%TF.GenerationSoftware,KiCad,Pcbnew,7.0.5*%
%TF.CreationDate,2023-06-26T09:37:40-04:00*%
%TF.ProjectId,ESP32Sensor-Sensor_board,45535033-3253-4656-9e73-6f722d53656e,rev?*%
%TF.SameCoordinates,Original*%
%TF.FileFunction,Legend,Bot*%
%TF.FilePolarity,Positive*%
%FSLAX46Y46*%
G04 Gerber Fmt 4.6, Leading zero omitted, Abs format (unit mm)*
G04 Created by KiCad (PCBNEW 7.0.5) date 2023-06-26 09:37:40*
%MOMM*%
%LPD*%
G01*
G04 APERTURE LIST*
%ADD10C,0.150000*%
%ADD11C,0.508000*%
%ADD12C,0.127000*%
%ADD13C,0.200000*%
%ADD14C,0.120000*%
%ADD15C,0.152400*%
G04 APERTURE END LIST*
D10*
%TO.C,FB1*%
X-18356990Y-17327666D02*
X-18356990Y-16994333D01*
X-17833180Y-16994333D02*
X-18833180Y-16994333D01*
X-18833180Y-16994333D02*
X-18833180Y-17470523D01*
X-18356990Y-18184809D02*
X-18309371Y-18327666D01*
X-18309371Y-18327666D02*
X-18261752Y-18375285D01*
X-18261752Y-18375285D02*
X-18166514Y-18422904D01*
X-18166514Y-18422904D02*
X-18023657Y-18422904D01*
X-18023657Y-18422904D02*
X-17928419Y-18375285D01*
X-17928419Y-18375285D02*
X-17880800Y-18327666D01*
X-17880800Y-18327666D02*
X-17833180Y-18232428D01*
X-17833180Y-18232428D02*
X-17833180Y-17851476D01*
X-17833180Y-17851476D02*
X-18833180Y-17851476D01*
X-18833180Y-17851476D02*
X-18833180Y-18184809D01*
X-18833180Y-18184809D02*
X-18785561Y-18280047D01*
X-18785561Y-18280047D02*
X-18737942Y-18327666D01*
X-18737942Y-18327666D02*
X-18642704Y-18375285D01*
X-18642704Y-18375285D02*
X-18547466Y-18375285D01*
X-18547466Y-18375285D02*
X-18452228Y-18327666D01*
X-18452228Y-18327666D02*
X-18404609Y-18280047D01*
X-18404609Y-18280047D02*
X-18356990Y-18184809D01*
X-18356990Y-18184809D02*
X-18356990Y-17851476D01*
X-17833180Y-19375285D02*
X-17833180Y-18803857D01*
X-17833180Y-19089571D02*
X-18833180Y-19089571D01*
X-18833180Y-19089571D02*
X-18690323Y-18994333D01*
X-18690323Y-18994333D02*
X-18595085Y-18899095D01*
X-18595085Y-18899095D02*
X-18547466Y-18803857D01*
%TO.C,S3*%
X12853200Y-5842095D02*
X12900819Y-5984952D01*
X12900819Y-5984952D02*
X12900819Y-6223047D01*
X12900819Y-6223047D02*
X12853200Y-6318285D01*
X12853200Y-6318285D02*
X12805580Y-6365904D01*
X12805580Y-6365904D02*
X12710342Y-6413523D01*
X12710342Y-6413523D02*
X12615104Y-6413523D01*
X12615104Y-6413523D02*
X12519866Y-6365904D01*
X12519866Y-6365904D02*
X12472247Y-6318285D01*
X12472247Y-6318285D02*
X12424628Y-6223047D01*
X12424628Y-6223047D02*
X12377009Y-6032571D01*
X12377009Y-6032571D02*
X12329390Y-5937333D01*
X12329390Y-5937333D02*
X12281771Y-5889714D01*
X12281771Y-5889714D02*
X12186533Y-5842095D01*
X12186533Y-5842095D02*
X12091295Y-5842095D01*
X12091295Y-5842095D02*
X11996057Y-5889714D01*
X11996057Y-5889714D02*
X11948438Y-5937333D01*
X11948438Y-5937333D02*
X11900819Y-6032571D01*
X11900819Y-6032571D02*
X11900819Y-6270666D01*
X11900819Y-6270666D02*
X11948438Y-6413523D01*
X11900819Y-6746857D02*
X11900819Y-7365904D01*
X11900819Y-7365904D02*
X12281771Y-7032571D01*
X12281771Y-7032571D02*
X12281771Y-7175428D01*
X12281771Y-7175428D02*
X12329390Y-7270666D01*
X12329390Y-7270666D02*
X12377009Y-7318285D01*
X12377009Y-7318285D02*
X12472247Y-7365904D01*
X12472247Y-7365904D02*
X12710342Y-7365904D01*
X12710342Y-7365904D02*
X12805580Y-7318285D01*
X12805580Y-7318285D02*
X12853200Y-7270666D01*
X12853200Y-7270666D02*
X12900819Y-7175428D01*
X12900819Y-7175428D02*
X12900819Y-6889714D01*
X12900819Y-6889714D02*
X12853200Y-6794476D01*
X12853200Y-6794476D02*
X12805580Y-6746857D01*
%TO.C,R10*%
X13662819Y-29837142D02*
X13186628Y-29503809D01*
X13662819Y-29265714D02*
X12662819Y-29265714D01*
X12662819Y-29265714D02*
X12662819Y-29646666D01*
X12662819Y-29646666D02*
X12710438Y-29741904D01*
X12710438Y-29741904D02*
X12758057Y-29789523D01*
X12758057Y-29789523D02*
X12853295Y-29837142D01*
X12853295Y-29837142D02*
X12996152Y-29837142D01*
X12996152Y-29837142D02*
X13091390Y-29789523D01*
X13091390Y-29789523D02*
X13139009Y-29741904D01*
X13139009Y-29741904D02*
X13186628Y-29646666D01*
X13186628Y-29646666D02*
X13186628Y-29265714D01*
X13662819Y-30789523D02*
X13662819Y-30218095D01*
X13662819Y-30503809D02*
X12662819Y-30503809D01*
X12662819Y-30503809D02*
X12805676Y-30408571D01*
X12805676Y-30408571D02*
X12900914Y-30313333D01*
X12900914Y-30313333D02*
X12948533Y-30218095D01*
X12662819Y-31408571D02*
X12662819Y-31503809D01*
X12662819Y-31503809D02*
X12710438Y-31599047D01*
X12710438Y-31599047D02*
X12758057Y-31646666D01*
X12758057Y-31646666D02*
X12853295Y-31694285D01*
X12853295Y-31694285D02*
X13043771Y-31741904D01*
X13043771Y-31741904D02*
X13281866Y-31741904D01*
X13281866Y-31741904D02*
X13472342Y-31694285D01*
X13472342Y-31694285D02*
X13567580Y-31646666D01*
X13567580Y-31646666D02*
X13615200Y-31599047D01*
X13615200Y-31599047D02*
X13662819Y-31503809D01*
X13662819Y-31503809D02*
X13662819Y-31408571D01*
X13662819Y-31408571D02*
X13615200Y-31313333D01*
X13615200Y-31313333D02*
X13567580Y-31265714D01*
X13567580Y-31265714D02*
X13472342Y-31218095D01*
X13472342Y-31218095D02*
X13281866Y-31170476D01*
X13281866Y-31170476D02*
X13043771Y-31170476D01*
X13043771Y-31170476D02*
X12853295Y-31218095D01*
X12853295Y-31218095D02*
X12758057Y-31265714D01*
X12758057Y-31265714D02*
X12710438Y-31313333D01*
X12710438Y-31313333D02*
X12662819Y-31408571D01*
%TO.C,R8*%
X5754666Y-10106819D02*
X6087999Y-9630628D01*
X6326094Y-10106819D02*
X6326094Y-9106819D01*
X6326094Y-9106819D02*
X5945142Y-9106819D01*
X5945142Y-9106819D02*
X5849904Y-9154438D01*
X5849904Y-9154438D02*
X5802285Y-9202057D01*
X5802285Y-9202057D02*
X5754666Y-9297295D01*
X5754666Y-9297295D02*
X5754666Y-9440152D01*
X5754666Y-9440152D02*
X5802285Y-9535390D01*
X5802285Y-9535390D02*
X5849904Y-9583009D01*
X5849904Y-9583009D02*
X5945142Y-9630628D01*
X5945142Y-9630628D02*
X6326094Y-9630628D01*
X5183237Y-9535390D02*
X5278475Y-9487771D01*
X5278475Y-9487771D02*
X5326094Y-9440152D01*
X5326094Y-9440152D02*
X5373713Y-9344914D01*
X5373713Y-9344914D02*
X5373713Y-9297295D01*
X5373713Y-9297295D02*
X5326094Y-9202057D01*
X5326094Y-9202057D02*
X5278475Y-9154438D01*
X5278475Y-9154438D02*
X5183237Y-9106819D01*
X5183237Y-9106819D02*
X4992761Y-9106819D01*
X4992761Y-9106819D02*
X4897523Y-9154438D01*
X4897523Y-9154438D02*
X4849904Y-9202057D01*
X4849904Y-9202057D02*
X4802285Y-9297295D01*
X4802285Y-9297295D02*
X4802285Y-9344914D01*
X4802285Y-9344914D02*
X4849904Y-9440152D01*
X4849904Y-9440152D02*
X4897523Y-9487771D01*
X4897523Y-9487771D02*
X4992761Y-9535390D01*
X4992761Y-9535390D02*
X5183237Y-9535390D01*
X5183237Y-9535390D02*
X5278475Y-9583009D01*
X5278475Y-9583009D02*
X5326094Y-9630628D01*
X5326094Y-9630628D02*
X5373713Y-9725866D01*
X5373713Y-9725866D02*
X5373713Y-9916342D01*
X5373713Y-9916342D02*
X5326094Y-10011580D01*
X5326094Y-10011580D02*
X5278475Y-10059200D01*
X5278475Y-10059200D02*
X5183237Y-10106819D01*
X5183237Y-10106819D02*
X4992761Y-10106819D01*
X4992761Y-10106819D02*
X4897523Y-10059200D01*
X4897523Y-10059200D02*
X4849904Y-10011580D01*
X4849904Y-10011580D02*
X4802285Y-9916342D01*
X4802285Y-9916342D02*
X4802285Y-9725866D01*
X4802285Y-9725866D02*
X4849904Y-9630628D01*
X4849904Y-9630628D02*
X4897523Y-9583009D01*
X4897523Y-9583009D02*
X4992761Y-9535390D01*
%TO.C,C17*%
X-5199142Y-50843580D02*
X-5151523Y-50891200D01*
X-5151523Y-50891200D02*
X-5008666Y-50938819D01*
X-5008666Y-50938819D02*
X-4913428Y-50938819D01*
X-4913428Y-50938819D02*
X-4770571Y-50891200D01*
X-4770571Y-50891200D02*
X-4675333Y-50795961D01*
X-4675333Y-50795961D02*
X-4627714Y-50700723D01*
X-4627714Y-50700723D02*
X-4580095Y-50510247D01*
X-4580095Y-50510247D02*
X-4580095Y-50367390D01*
X-4580095Y-50367390D02*
X-4627714Y-50176914D01*
X-4627714Y-50176914D02*
X-4675333Y-50081676D01*
X-4675333Y-50081676D02*
X-4770571Y-49986438D01*
X-4770571Y-49986438D02*
X-4913428Y-49938819D01*
X-4913428Y-49938819D02*
X-5008666Y-49938819D01*
X-5008666Y-49938819D02*
X-5151523Y-49986438D01*
X-5151523Y-49986438D02*
X-5199142Y-50034057D01*
X-6151523Y-50938819D02*
X-5580095Y-50938819D01*
X-5865809Y-50938819D02*
X-5865809Y-49938819D01*
X-5865809Y-49938819D02*
X-5770571Y-50081676D01*
X-5770571Y-50081676D02*
X-5675333Y-50176914D01*
X-5675333Y-50176914D02*
X-5580095Y-50224533D01*
X-6484857Y-49938819D02*
X-7151523Y-49938819D01*
X-7151523Y-49938819D02*
X-6722952Y-50938819D01*
%TO.C,FB3*%
X-5770666Y-9583009D02*
X-5437333Y-9583009D01*
X-5437333Y-10106819D02*
X-5437333Y-9106819D01*
X-5437333Y-9106819D02*
X-5913523Y-9106819D01*
X-6627809Y-9583009D02*
X-6770666Y-9630628D01*
X-6770666Y-9630628D02*
X-6818285Y-9678247D01*
X-6818285Y-9678247D02*
X-6865904Y-9773485D01*
X-6865904Y-9773485D02*
X-6865904Y-9916342D01*
X-6865904Y-9916342D02*
X-6818285Y-10011580D01*
X-6818285Y-10011580D02*
X-6770666Y-10059200D01*
X-6770666Y-10059200D02*
X-6675428Y-10106819D01*
X-6675428Y-10106819D02*
X-6294476Y-10106819D01*
X-6294476Y-10106819D02*
X-6294476Y-9106819D01*
X-6294476Y-9106819D02*
X-6627809Y-9106819D01*
X-6627809Y-9106819D02*
X-6723047Y-9154438D01*
X-6723047Y-9154438D02*
X-6770666Y-9202057D01*
X-6770666Y-9202057D02*
X-6818285Y-9297295D01*
X-6818285Y-9297295D02*
X-6818285Y-9392533D01*
X-6818285Y-9392533D02*
X-6770666Y-9487771D01*
X-6770666Y-9487771D02*
X-6723047Y-9535390D01*
X-6723047Y-9535390D02*
X-6627809Y-9583009D01*
X-6627809Y-9583009D02*
X-6294476Y-9583009D01*
X-7199238Y-9106819D02*
X-7818285Y-9106819D01*
X-7818285Y-9106819D02*
X-7484952Y-9487771D01*
X-7484952Y-9487771D02*
X-7627809Y-9487771D01*
X-7627809Y-9487771D02*
X-7723047Y-9535390D01*
X-7723047Y-9535390D02*
X-7770666Y-9583009D01*
X-7770666Y-9583009D02*
X-7818285Y-9678247D01*
X-7818285Y-9678247D02*
X-7818285Y-9916342D01*
X-7818285Y-9916342D02*
X-7770666Y-10011580D01*
X-7770666Y-10011580D02*
X-7723047Y-10059200D01*
X-7723047Y-10059200D02*
X-7627809Y-10106819D01*
X-7627809Y-10106819D02*
X-7342095Y-10106819D01*
X-7342095Y-10106819D02*
X-7246857Y-10059200D01*
X-7246857Y-10059200D02*
X-7199238Y-10011580D01*
%TO.C,C8*%
X10265580Y-34123333D02*
X10313200Y-34075714D01*
X10313200Y-34075714D02*
X10360819Y-33932857D01*
X10360819Y-33932857D02*
X10360819Y-33837619D01*
X10360819Y-33837619D02*
X10313200Y-33694762D01*
X10313200Y-33694762D02*
X10217961Y-33599524D01*
X10217961Y-33599524D02*
X10122723Y-33551905D01*
X10122723Y-33551905D02*
X9932247Y-33504286D01*
X9932247Y-33504286D02*
X9789390Y-33504286D01*
X9789390Y-33504286D02*
X9598914Y-33551905D01*
X9598914Y-33551905D02*
X9503676Y-33599524D01*
X9503676Y-33599524D02*
X9408438Y-33694762D01*
X9408438Y-33694762D02*
X9360819Y-33837619D01*
X9360819Y-33837619D02*
X9360819Y-33932857D01*
X9360819Y-33932857D02*
X9408438Y-34075714D01*
X9408438Y-34075714D02*
X9456057Y-34123333D01*
X9789390Y-34694762D02*
X9741771Y-34599524D01*
X9741771Y-34599524D02*
X9694152Y-34551905D01*
X9694152Y-34551905D02*
X9598914Y-34504286D01*
X9598914Y-34504286D02*
X9551295Y-34504286D01*
X9551295Y-34504286D02*
X9456057Y-34551905D01*
X9456057Y-34551905D02*
X9408438Y-34599524D01*
X9408438Y-34599524D02*
X9360819Y-34694762D01*
X9360819Y-34694762D02*
X9360819Y-34885238D01*
X9360819Y-34885238D02*
X9408438Y-34980476D01*
X9408438Y-34980476D02*
X9456057Y-35028095D01*
X9456057Y-35028095D02*
X9551295Y-35075714D01*
X9551295Y-35075714D02*
X9598914Y-35075714D01*
X9598914Y-35075714D02*
X9694152Y-35028095D01*
X9694152Y-35028095D02*
X9741771Y-34980476D01*
X9741771Y-34980476D02*
X9789390Y-34885238D01*
X9789390Y-34885238D02*
X9789390Y-34694762D01*
X9789390Y-34694762D02*
X9837009Y-34599524D01*
X9837009Y-34599524D02*
X9884628Y-34551905D01*
X9884628Y-34551905D02*
X9979866Y-34504286D01*
X9979866Y-34504286D02*
X10170342Y-34504286D01*
X10170342Y-34504286D02*
X10265580Y-34551905D01*
X10265580Y-34551905D02*
X10313200Y-34599524D01*
X10313200Y-34599524D02*
X10360819Y-34694762D01*
X10360819Y-34694762D02*
X10360819Y-34885238D01*
X10360819Y-34885238D02*
X10313200Y-34980476D01*
X10313200Y-34980476D02*
X10265580Y-35028095D01*
X10265580Y-35028095D02*
X10170342Y-35075714D01*
X10170342Y-35075714D02*
X9979866Y-35075714D01*
X9979866Y-35075714D02*
X9884628Y-35028095D01*
X9884628Y-35028095D02*
X9837009Y-34980476D01*
X9837009Y-34980476D02*
X9789390Y-34885238D01*
%TO.C,CR1*%
X9038419Y-7270666D02*
X8990800Y-7318285D01*
X8990800Y-7318285D02*
X8943180Y-7461142D01*
X8943180Y-7461142D02*
X8943180Y-7556380D01*
X8943180Y-7556380D02*
X8990800Y-7699237D01*
X8990800Y-7699237D02*
X9086038Y-7794475D01*
X9086038Y-7794475D02*
X9181276Y-7842094D01*
X9181276Y-7842094D02*
X9371752Y-7889713D01*
X9371752Y-7889713D02*
X9514609Y-7889713D01*
X9514609Y-7889713D02*
X9705085Y-7842094D01*
X9705085Y-7842094D02*
X9800323Y-7794475D01*
X9800323Y-7794475D02*
X9895561Y-7699237D01*
X9895561Y-7699237D02*
X9943180Y-7556380D01*
X9943180Y-7556380D02*
X9943180Y-7461142D01*
X9943180Y-7461142D02*
X9895561Y-7318285D01*
X9895561Y-7318285D02*
X9847942Y-7270666D01*
X8943180Y-6270666D02*
X9419371Y-6603999D01*
X8943180Y-6842094D02*
X9943180Y-6842094D01*
X9943180Y-6842094D02*
X9943180Y-6461142D01*
X9943180Y-6461142D02*
X9895561Y-6365904D01*
X9895561Y-6365904D02*
X9847942Y-6318285D01*
X9847942Y-6318285D02*
X9752704Y-6270666D01*
X9752704Y-6270666D02*
X9609847Y-6270666D01*
X9609847Y-6270666D02*
X9514609Y-6318285D01*
X9514609Y-6318285D02*
X9466990Y-6365904D01*
X9466990Y-6365904D02*
X9419371Y-6461142D01*
X9419371Y-6461142D02*
X9419371Y-6842094D01*
X8943180Y-5318285D02*
X8943180Y-5889713D01*
X8943180Y-5603999D02*
X9943180Y-5603999D01*
X9943180Y-5603999D02*
X9800323Y-5699237D01*
X9800323Y-5699237D02*
X9705085Y-5794475D01*
X9705085Y-5794475D02*
X9657466Y-5889713D01*
X8852819Y-13329600D02*
X9090914Y-13329600D01*
X8995676Y-13091505D02*
X9090914Y-13329600D01*
X9090914Y-13329600D02*
X8995676Y-13567695D01*
X9281390Y-13186743D02*
X9090914Y-13329600D01*
X9090914Y-13329600D02*
X9281390Y-13472457D01*
X9943180Y-13329599D02*
X9705085Y-13329599D01*
X9800323Y-13567694D02*
X9705085Y-13329599D01*
X9705085Y-13329599D02*
X9800323Y-13091504D01*
X9514609Y-13472456D02*
X9705085Y-13329599D01*
X9705085Y-13329599D02*
X9514609Y-13186742D01*
%TO.C,S2*%
X-6450800Y-6858095D02*
X-6403180Y-7000952D01*
X-6403180Y-7000952D02*
X-6403180Y-7239047D01*
X-6403180Y-7239047D02*
X-6450800Y-7334285D01*
X-6450800Y-7334285D02*
X-6498419Y-7381904D01*
X-6498419Y-7381904D02*
X-6593657Y-7429523D01*
X-6593657Y-7429523D02*
X-6688895Y-7429523D01*
X-6688895Y-7429523D02*
X-6784133Y-7381904D01*
X-6784133Y-7381904D02*
X-6831752Y-7334285D01*
X-6831752Y-7334285D02*
X-6879371Y-7239047D01*
X-6879371Y-7239047D02*
X-6926990Y-7048571D01*
X-6926990Y-7048571D02*
X-6974609Y-6953333D01*
X-6974609Y-6953333D02*
X-7022228Y-6905714D01*
X-7022228Y-6905714D02*
X-7117466Y-6858095D01*
X-7117466Y-6858095D02*
X-7212704Y-6858095D01*
X-7212704Y-6858095D02*
X-7307942Y-6905714D01*
X-7307942Y-6905714D02*
X-7355561Y-6953333D01*
X-7355561Y-6953333D02*
X-7403180Y-7048571D01*
X-7403180Y-7048571D02*
X-7403180Y-7286666D01*
X-7403180Y-7286666D02*
X-7355561Y-7429523D01*
X-7307942Y-7810476D02*
X-7355561Y-7858095D01*
X-7355561Y-7858095D02*
X-7403180Y-7953333D01*
X-7403180Y-7953333D02*
X-7403180Y-8191428D01*
X-7403180Y-8191428D02*
X-7355561Y-8286666D01*
X-7355561Y-8286666D02*
X-7307942Y-8334285D01*
X-7307942Y-8334285D02*
X-7212704Y-8381904D01*
X-7212704Y-8381904D02*
X-7117466Y-8381904D01*
X-7117466Y-8381904D02*
X-6974609Y-8334285D01*
X-6974609Y-8334285D02*
X-6403180Y-7762857D01*
X-6403180Y-7762857D02*
X-6403180Y-8381904D01*
%TO.C,U7*%
X-2069180Y-9906095D02*
X-1259657Y-9906095D01*
X-1259657Y-9906095D02*
X-1164419Y-9953714D01*
X-1164419Y-9953714D02*
X-1116800Y-10001333D01*
X-1116800Y-10001333D02*
X-1069180Y-10096571D01*
X-1069180Y-10096571D02*
X-1069180Y-10287047D01*
X-1069180Y-10287047D02*
X-1116800Y-10382285D01*
X-1116800Y-10382285D02*
X-1164419Y-10429904D01*
X-1164419Y-10429904D02*
X-1259657Y-10477523D01*
X-1259657Y-10477523D02*
X-2069180Y-10477523D01*
X-2069180Y-10858476D02*
X-2069180Y-11525142D01*
X-2069180Y-11525142D02*
X-1069180Y-11096571D01*
X-6437980Y-12776200D02*
X-6199885Y-12776200D01*
X-6295123Y-12538105D02*
X-6199885Y-12776200D01*
X-6199885Y-12776200D02*
X-6295123Y-13014295D01*
X-6009409Y-12633343D02*
X-6199885Y-12776200D01*
X-6199885Y-12776200D02*
X-6009409Y-12919057D01*
X-6437980Y-12776200D02*
X-6199885Y-12776200D01*
X-6295123Y-12538105D02*
X-6199885Y-12776200D01*
X-6199885Y-12776200D02*
X-6295123Y-13014295D01*
X-6009409Y-12633343D02*
X-6199885Y-12776200D01*
X-6199885Y-12776200D02*
X-6009409Y-12919057D01*
%TO.C,R11*%
X11376819Y-16883142D02*
X10900628Y-16549809D01*
X11376819Y-16311714D02*
X10376819Y-16311714D01*
X10376819Y-16311714D02*
X10376819Y-16692666D01*
X10376819Y-16692666D02*
X10424438Y-16787904D01*
X10424438Y-16787904D02*
X10472057Y-16835523D01*
X10472057Y-16835523D02*
X10567295Y-16883142D01*
X10567295Y-16883142D02*
X10710152Y-16883142D01*
X10710152Y-16883142D02*
X10805390Y-16835523D01*
X10805390Y-16835523D02*
X10853009Y-16787904D01*
X10853009Y-16787904D02*
X10900628Y-16692666D01*
X10900628Y-16692666D02*
X10900628Y-16311714D01*
X11376819Y-17835523D02*
X11376819Y-17264095D01*
X11376819Y-17549809D02*
X10376819Y-17549809D01*
X10376819Y-17549809D02*
X10519676Y-17454571D01*
X10519676Y-17454571D02*
X10614914Y-17359333D01*
X10614914Y-17359333D02*
X10662533Y-17264095D01*
X11376819Y-18787904D02*
X11376819Y-18216476D01*
X11376819Y-18502190D02*
X10376819Y-18502190D01*
X10376819Y-18502190D02*
X10519676Y-18406952D01*
X10519676Y-18406952D02*
X10614914Y-18311714D01*
X10614914Y-18311714D02*
X10662533Y-18216476D01*
%TO.C,R12*%
X8328819Y-16883142D02*
X7852628Y-16549809D01*
X8328819Y-16311714D02*
X7328819Y-16311714D01*
X7328819Y-16311714D02*
X7328819Y-16692666D01*
X7328819Y-16692666D02*
X7376438Y-16787904D01*
X7376438Y-16787904D02*
X7424057Y-16835523D01*
X7424057Y-16835523D02*
X7519295Y-16883142D01*
X7519295Y-16883142D02*
X7662152Y-16883142D01*
X7662152Y-16883142D02*
X7757390Y-16835523D01*
X7757390Y-16835523D02*
X7805009Y-16787904D01*
X7805009Y-16787904D02*
X7852628Y-16692666D01*
X7852628Y-16692666D02*
X7852628Y-16311714D01*
X8328819Y-17835523D02*
X8328819Y-17264095D01*
X8328819Y-17549809D02*
X7328819Y-17549809D01*
X7328819Y-17549809D02*
X7471676Y-17454571D01*
X7471676Y-17454571D02*
X7566914Y-17359333D01*
X7566914Y-17359333D02*
X7614533Y-17264095D01*
X7424057Y-18216476D02*
X7376438Y-18264095D01*
X7376438Y-18264095D02*
X7328819Y-18359333D01*
X7328819Y-18359333D02*
X7328819Y-18597428D01*
X7328819Y-18597428D02*
X7376438Y-18692666D01*
X7376438Y-18692666D02*
X7424057Y-18740285D01*
X7424057Y-18740285D02*
X7519295Y-18787904D01*
X7519295Y-18787904D02*
X7614533Y-18787904D01*
X7614533Y-18787904D02*
X7757390Y-18740285D01*
X7757390Y-18740285D02*
X8328819Y-18168857D01*
X8328819Y-18168857D02*
X8328819Y-18787904D01*
%TO.C,R18*%
X8328819Y-12057142D02*
X7852628Y-11723809D01*
X8328819Y-11485714D02*
X7328819Y-11485714D01*
X7328819Y-11485714D02*
X7328819Y-11866666D01*
X7328819Y-11866666D02*
X7376438Y-11961904D01*
X7376438Y-11961904D02*
X7424057Y-12009523D01*
X7424057Y-12009523D02*
X7519295Y-12057142D01*
X7519295Y-12057142D02*
X7662152Y-12057142D01*
X7662152Y-12057142D02*
X7757390Y-12009523D01*
X7757390Y-12009523D02*
X7805009Y-11961904D01*
X7805009Y-11961904D02*
X7852628Y-11866666D01*
X7852628Y-11866666D02*
X7852628Y-11485714D01*
X8328819Y-13009523D02*
X8328819Y-12438095D01*
X8328819Y-12723809D02*
X7328819Y-12723809D01*
X7328819Y-12723809D02*
X7471676Y-12628571D01*
X7471676Y-12628571D02*
X7566914Y-12533333D01*
X7566914Y-12533333D02*
X7614533Y-12438095D01*
X7757390Y-13580952D02*
X7709771Y-13485714D01*
X7709771Y-13485714D02*
X7662152Y-13438095D01*
X7662152Y-13438095D02*
X7566914Y-13390476D01*
X7566914Y-13390476D02*
X7519295Y-13390476D01*
X7519295Y-13390476D02*
X7424057Y-13438095D01*
X7424057Y-13438095D02*
X7376438Y-13485714D01*
X7376438Y-13485714D02*
X7328819Y-13580952D01*
X7328819Y-13580952D02*
X7328819Y-13771428D01*
X7328819Y-13771428D02*
X7376438Y-13866666D01*
X7376438Y-13866666D02*
X7424057Y-13914285D01*
X7424057Y-13914285D02*
X7519295Y-13961904D01*
X7519295Y-13961904D02*
X7566914Y-13961904D01*
X7566914Y-13961904D02*
X7662152Y-13914285D01*
X7662152Y-13914285D02*
X7709771Y-13866666D01*
X7709771Y-13866666D02*
X7757390Y-13771428D01*
X7757390Y-13771428D02*
X7757390Y-13580952D01*
X7757390Y-13580952D02*
X7805009Y-13485714D01*
X7805009Y-13485714D02*
X7852628Y-13438095D01*
X7852628Y-13438095D02*
X7947866Y-13390476D01*
X7947866Y-13390476D02*
X8138342Y-13390476D01*
X8138342Y-13390476D02*
X8233580Y-13438095D01*
X8233580Y-13438095D02*
X8281200Y-13485714D01*
X8281200Y-13485714D02*
X8328819Y-13580952D01*
X8328819Y-13580952D02*
X8328819Y-13771428D01*
X8328819Y-13771428D02*
X8281200Y-13866666D01*
X8281200Y-13866666D02*
X8233580Y-13914285D01*
X8233580Y-13914285D02*
X8138342Y-13961904D01*
X8138342Y-13961904D02*
X7947866Y-13961904D01*
X7947866Y-13961904D02*
X7852628Y-13914285D01*
X7852628Y-13914285D02*
X7805009Y-13866666D01*
X7805009Y-13866666D02*
X7757390Y-13771428D01*
%TO.C,R13*%
X17914857Y-23568819D02*
X18248190Y-23092628D01*
X18486285Y-23568819D02*
X18486285Y-22568819D01*
X18486285Y-22568819D02*
X18105333Y-22568819D01*
X18105333Y-22568819D02*
X18010095Y-22616438D01*
X18010095Y-22616438D02*
X17962476Y-22664057D01*
X17962476Y-22664057D02*
X17914857Y-22759295D01*
X17914857Y-22759295D02*
X17914857Y-22902152D01*
X17914857Y-22902152D02*
X17962476Y-22997390D01*
X17962476Y-22997390D02*
X18010095Y-23045009D01*
X18010095Y-23045009D02*
X18105333Y-23092628D01*
X18105333Y-23092628D02*
X18486285Y-23092628D01*
X16962476Y-23568819D02*
X17533904Y-23568819D01*
X17248190Y-23568819D02*
X17248190Y-22568819D01*
X17248190Y-22568819D02*
X17343428Y-22711676D01*
X17343428Y-22711676D02*
X17438666Y-22806914D01*
X17438666Y-22806914D02*
X17533904Y-22854533D01*
X16629142Y-22568819D02*
X16010095Y-22568819D01*
X16010095Y-22568819D02*
X16343428Y-22949771D01*
X16343428Y-22949771D02*
X16200571Y-22949771D01*
X16200571Y-22949771D02*
X16105333Y-22997390D01*
X16105333Y-22997390D02*
X16057714Y-23045009D01*
X16057714Y-23045009D02*
X16010095Y-23140247D01*
X16010095Y-23140247D02*
X16010095Y-23378342D01*
X16010095Y-23378342D02*
X16057714Y-23473580D01*
X16057714Y-23473580D02*
X16105333Y-23521200D01*
X16105333Y-23521200D02*
X16200571Y-23568819D01*
X16200571Y-23568819D02*
X16486285Y-23568819D01*
X16486285Y-23568819D02*
X16581523Y-23521200D01*
X16581523Y-23521200D02*
X16629142Y-23473580D01*
%TO.C,U9*%
X470819Y-15240095D02*
X1280342Y-15240095D01*
X1280342Y-15240095D02*
X1375580Y-15287714D01*
X1375580Y-15287714D02*
X1423200Y-15335333D01*
X1423200Y-15335333D02*
X1470819Y-15430571D01*
X1470819Y-15430571D02*
X1470819Y-15621047D01*
X1470819Y-15621047D02*
X1423200Y-15716285D01*
X1423200Y-15716285D02*
X1375580Y-15763904D01*
X1375580Y-15763904D02*
X1280342Y-15811523D01*
X1280342Y-15811523D02*
X470819Y-15811523D01*
X1470819Y-16335333D02*
X1470819Y-16525809D01*
X1470819Y-16525809D02*
X1423200Y-16621047D01*
X1423200Y-16621047D02*
X1375580Y-16668666D01*
X1375580Y-16668666D02*
X1232723Y-16763904D01*
X1232723Y-16763904D02*
X1042247Y-16811523D01*
X1042247Y-16811523D02*
X661295Y-16811523D01*
X661295Y-16811523D02*
X566057Y-16763904D01*
X566057Y-16763904D02*
X518438Y-16716285D01*
X518438Y-16716285D02*
X470819Y-16621047D01*
X470819Y-16621047D02*
X470819Y-16430571D01*
X470819Y-16430571D02*
X518438Y-16335333D01*
X518438Y-16335333D02*
X566057Y-16287714D01*
X566057Y-16287714D02*
X661295Y-16240095D01*
X661295Y-16240095D02*
X899390Y-16240095D01*
X899390Y-16240095D02*
X994628Y-16287714D01*
X994628Y-16287714D02*
X1042247Y-16335333D01*
X1042247Y-16335333D02*
X1089866Y-16430571D01*
X1089866Y-16430571D02*
X1089866Y-16621047D01*
X1089866Y-16621047D02*
X1042247Y-16716285D01*
X1042247Y-16716285D02*
X994628Y-16763904D01*
X994628Y-16763904D02*
X899390Y-16811523D01*
X166019Y-12776200D02*
X404114Y-12776200D01*
X308876Y-12538105D02*
X404114Y-12776200D01*
X404114Y-12776200D02*
X308876Y-13014295D01*
X594590Y-12633343D02*
X404114Y-12776200D01*
X404114Y-12776200D02*
X594590Y-12919057D01*
X166019Y-12776200D02*
X404114Y-12776200D01*
X308876Y-12538105D02*
X404114Y-12776200D01*
X404114Y-12776200D02*
X308876Y-13014295D01*
X594590Y-12633343D02*
X404114Y-12776200D01*
X404114Y-12776200D02*
X594590Y-12919057D01*
%TO.C,R14*%
X18168857Y-26108819D02*
X18502190Y-25632628D01*
X18740285Y-26108819D02*
X18740285Y-25108819D01*
X18740285Y-25108819D02*
X18359333Y-25108819D01*
X18359333Y-25108819D02*
X18264095Y-25156438D01*
X18264095Y-25156438D02*
X18216476Y-25204057D01*
X18216476Y-25204057D02*
X18168857Y-25299295D01*
X18168857Y-25299295D02*
X18168857Y-25442152D01*
X18168857Y-25442152D02*
X18216476Y-25537390D01*
X18216476Y-25537390D02*
X18264095Y-25585009D01*
X18264095Y-25585009D02*
X18359333Y-25632628D01*
X18359333Y-25632628D02*
X18740285Y-25632628D01*
X17216476Y-26108819D02*
X17787904Y-26108819D01*
X17502190Y-26108819D02*
X17502190Y-25108819D01*
X17502190Y-25108819D02*
X17597428Y-25251676D01*
X17597428Y-25251676D02*
X17692666Y-25346914D01*
X17692666Y-25346914D02*
X17787904Y-25394533D01*
X16359333Y-25442152D02*
X16359333Y-26108819D01*
X16597428Y-25061200D02*
X16835523Y-25775485D01*
X16835523Y-25775485D02*
X16216476Y-25775485D01*
%TO.C,U12*%
X5810094Y-39440819D02*
X5810094Y-40250342D01*
X5810094Y-40250342D02*
X5762475Y-40345580D01*
X5762475Y-40345580D02*
X5714856Y-40393200D01*
X5714856Y-40393200D02*
X5619618Y-40440819D01*
X5619618Y-40440819D02*
X5429142Y-40440819D01*
X5429142Y-40440819D02*
X5333904Y-40393200D01*
X5333904Y-40393200D02*
X5286285Y-40345580D01*
X5286285Y-40345580D02*
X5238666Y-40250342D01*
X5238666Y-40250342D02*
X5238666Y-39440819D01*
X4238666Y-40440819D02*
X4810094Y-40440819D01*
X4524380Y-40440819D02*
X4524380Y-39440819D01*
X4524380Y-39440819D02*
X4619618Y-39583676D01*
X4619618Y-39583676D02*
X4714856Y-39678914D01*
X4714856Y-39678914D02*
X4810094Y-39726533D01*
X3857713Y-39536057D02*
X3810094Y-39488438D01*
X3810094Y-39488438D02*
X3714856Y-39440819D01*
X3714856Y-39440819D02*
X3476761Y-39440819D01*
X3476761Y-39440819D02*
X3381523Y-39488438D01*
X3381523Y-39488438D02*
X3333904Y-39536057D01*
X3333904Y-39536057D02*
X3286285Y-39631295D01*
X3286285Y-39631295D02*
X3286285Y-39726533D01*
X3286285Y-39726533D02*
X3333904Y-39869390D01*
X3333904Y-39869390D02*
X3905332Y-40440819D01*
X3905332Y-40440819D02*
X3286285Y-40440819D01*
%TO.C,R15*%
X-1133142Y-27124819D02*
X-799809Y-26648628D01*
X-561714Y-27124819D02*
X-561714Y-26124819D01*
X-561714Y-26124819D02*
X-942666Y-26124819D01*
X-942666Y-26124819D02*
X-1037904Y-26172438D01*
X-1037904Y-26172438D02*
X-1085523Y-26220057D01*
X-1085523Y-26220057D02*
X-1133142Y-26315295D01*
X-1133142Y-26315295D02*
X-1133142Y-26458152D01*
X-1133142Y-26458152D02*
X-1085523Y-26553390D01*
X-1085523Y-26553390D02*
X-1037904Y-26601009D01*
X-1037904Y-26601009D02*
X-942666Y-26648628D01*
X-942666Y-26648628D02*
X-561714Y-26648628D01*
X-2085523Y-27124819D02*
X-1514095Y-27124819D01*
X-1799809Y-27124819D02*
X-1799809Y-26124819D01*
X-1799809Y-26124819D02*
X-1704571Y-26267676D01*
X-1704571Y-26267676D02*
X-1609333Y-26362914D01*
X-1609333Y-26362914D02*
X-1514095Y-26410533D01*
X-2990285Y-26124819D02*
X-2514095Y-26124819D01*
X-2514095Y-26124819D02*
X-2466476Y-26601009D01*
X-2466476Y-26601009D02*
X-2514095Y-26553390D01*
X-2514095Y-26553390D02*
X-2609333Y-26505771D01*
X-2609333Y-26505771D02*
X-2847428Y-26505771D01*
X-2847428Y-26505771D02*
X-2942666Y-26553390D01*
X-2942666Y-26553390D02*
X-2990285Y-26601009D01*
X-2990285Y-26601009D02*
X-3037904Y-26696247D01*
X-3037904Y-26696247D02*
X-3037904Y-26934342D01*
X-3037904Y-26934342D02*
X-2990285Y-27029580D01*
X-2990285Y-27029580D02*
X-2942666Y-27077200D01*
X-2942666Y-27077200D02*
X-2847428Y-27124819D01*
X-2847428Y-27124819D02*
X-2609333Y-27124819D01*
X-2609333Y-27124819D02*
X-2514095Y-27077200D01*
X-2514095Y-27077200D02*
X-2466476Y-27029580D01*
%TO.C,CR3*%
X14329580Y-47593333D02*
X14377200Y-47545714D01*
X14377200Y-47545714D02*
X14424819Y-47402857D01*
X14424819Y-47402857D02*
X14424819Y-47307619D01*
X14424819Y-47307619D02*
X14377200Y-47164762D01*
X14377200Y-47164762D02*
X14281961Y-47069524D01*
X14281961Y-47069524D02*
X14186723Y-47021905D01*
X14186723Y-47021905D02*
X13996247Y-46974286D01*
X13996247Y-46974286D02*
X13853390Y-46974286D01*
X13853390Y-46974286D02*
X13662914Y-47021905D01*
X13662914Y-47021905D02*
X13567676Y-47069524D01*
X13567676Y-47069524D02*
X13472438Y-47164762D01*
X13472438Y-47164762D02*
X13424819Y-47307619D01*
X13424819Y-47307619D02*
X13424819Y-47402857D01*
X13424819Y-47402857D02*
X13472438Y-47545714D01*
X13472438Y-47545714D02*
X13520057Y-47593333D01*
X14424819Y-48593333D02*
X13948628Y-48260000D01*
X14424819Y-48021905D02*
X13424819Y-48021905D01*
X13424819Y-48021905D02*
X13424819Y-48402857D01*
X13424819Y-48402857D02*
X13472438Y-48498095D01*
X13472438Y-48498095D02*
X13520057Y-48545714D01*
X13520057Y-48545714D02*
X13615295Y-48593333D01*
X13615295Y-48593333D02*
X13758152Y-48593333D01*
X13758152Y-48593333D02*
X13853390Y-48545714D01*
X13853390Y-48545714D02*
X13901009Y-48498095D01*
X13901009Y-48498095D02*
X13948628Y-48402857D01*
X13948628Y-48402857D02*
X13948628Y-48021905D01*
X13424819Y-48926667D02*
X13424819Y-49545714D01*
X13424819Y-49545714D02*
X13805771Y-49212381D01*
X13805771Y-49212381D02*
X13805771Y-49355238D01*
X13805771Y-49355238D02*
X13853390Y-49450476D01*
X13853390Y-49450476D02*
X13901009Y-49498095D01*
X13901009Y-49498095D02*
X13996247Y-49545714D01*
X13996247Y-49545714D02*
X14234342Y-49545714D01*
X14234342Y-49545714D02*
X14329580Y-49498095D01*
X14329580Y-49498095D02*
X14377200Y-49450476D01*
X14377200Y-49450476D02*
X14424819Y-49355238D01*
X14424819Y-49355238D02*
X14424819Y-49069524D01*
X14424819Y-49069524D02*
X14377200Y-48974286D01*
X14377200Y-48974286D02*
X14329580Y-48926667D01*
X10783219Y-46583600D02*
X11021314Y-46583600D01*
X10926076Y-46345505D02*
X11021314Y-46583600D01*
X11021314Y-46583600D02*
X10926076Y-46821695D01*
X11211790Y-46440743D02*
X11021314Y-46583600D01*
X11021314Y-46583600D02*
X11211790Y-46726457D01*
X10783219Y-46583600D02*
X11021314Y-46583600D01*
X10926076Y-46345505D02*
X11021314Y-46583600D01*
X11021314Y-46583600D02*
X10926076Y-46821695D01*
X11211790Y-46440743D02*
X11021314Y-46583600D01*
X11021314Y-46583600D02*
X11211790Y-46726457D01*
%TO.C,R5*%
X-15300728Y-10174553D02*
X-15776919Y-9841220D01*
X-15300728Y-9603125D02*
X-16300728Y-9603125D01*
X-16300728Y-9603125D02*
X-16300728Y-9984077D01*
X-16300728Y-9984077D02*
X-16253109Y-10079315D01*
X-16253109Y-10079315D02*
X-16205490Y-10126934D01*
X-16205490Y-10126934D02*
X-16110252Y-10174553D01*
X-16110252Y-10174553D02*
X-15967395Y-10174553D01*
X-15967395Y-10174553D02*
X-15872157Y-10126934D01*
X-15872157Y-10126934D02*
X-15824538Y-10079315D01*
X-15824538Y-10079315D02*
X-15776919Y-9984077D01*
X-15776919Y-9984077D02*
X-15776919Y-9603125D01*
X-16300728Y-11079315D02*
X-16300728Y-10603125D01*
X-16300728Y-10603125D02*
X-15824538Y-10555506D01*
X-15824538Y-10555506D02*
X-15872157Y-10603125D01*
X-15872157Y-10603125D02*
X-15919776Y-10698363D01*
X-15919776Y-10698363D02*
X-15919776Y-10936458D01*
X-15919776Y-10936458D02*
X-15872157Y-11031696D01*
X-15872157Y-11031696D02*
X-15824538Y-11079315D01*
X-15824538Y-11079315D02*
X-15729300Y-11126934D01*
X-15729300Y-11126934D02*
X-15491205Y-11126934D01*
X-15491205Y-11126934D02*
X-15395967Y-11079315D01*
X-15395967Y-11079315D02*
X-15348348Y-11031696D01*
X-15348348Y-11031696D02*
X-15300728Y-10936458D01*
X-15300728Y-10936458D02*
X-15300728Y-10698363D01*
X-15300728Y-10698363D02*
X-15348348Y-10603125D01*
X-15348348Y-10603125D02*
X-15395967Y-10555506D01*
%TO.C,CR2*%
X12096666Y-19917580D02*
X12144285Y-19965200D01*
X12144285Y-19965200D02*
X12287142Y-20012819D01*
X12287142Y-20012819D02*
X12382380Y-20012819D01*
X12382380Y-20012819D02*
X12525237Y-19965200D01*
X12525237Y-19965200D02*
X12620475Y-19869961D01*
X12620475Y-19869961D02*
X12668094Y-19774723D01*
X12668094Y-19774723D02*
X12715713Y-19584247D01*
X12715713Y-19584247D02*
X12715713Y-19441390D01*
X12715713Y-19441390D02*
X12668094Y-19250914D01*
X12668094Y-19250914D02*
X12620475Y-19155676D01*
X12620475Y-19155676D02*
X12525237Y-19060438D01*
X12525237Y-19060438D02*
X12382380Y-19012819D01*
X12382380Y-19012819D02*
X12287142Y-19012819D01*
X12287142Y-19012819D02*
X12144285Y-19060438D01*
X12144285Y-19060438D02*
X12096666Y-19108057D01*
X11096666Y-20012819D02*
X11429999Y-19536628D01*
X11668094Y-20012819D02*
X11668094Y-19012819D01*
X11668094Y-19012819D02*
X11287142Y-19012819D01*
X11287142Y-19012819D02*
X11191904Y-19060438D01*
X11191904Y-19060438D02*
X11144285Y-19108057D01*
X11144285Y-19108057D02*
X11096666Y-19203295D01*
X11096666Y-19203295D02*
X11096666Y-19346152D01*
X11096666Y-19346152D02*
X11144285Y-19441390D01*
X11144285Y-19441390D02*
X11191904Y-19489009D01*
X11191904Y-19489009D02*
X11287142Y-19536628D01*
X11287142Y-19536628D02*
X11668094Y-19536628D01*
X10715713Y-19108057D02*
X10668094Y-19060438D01*
X10668094Y-19060438D02*
X10572856Y-19012819D01*
X10572856Y-19012819D02*
X10334761Y-19012819D01*
X10334761Y-19012819D02*
X10239523Y-19060438D01*
X10239523Y-19060438D02*
X10191904Y-19108057D01*
X10191904Y-19108057D02*
X10144285Y-19203295D01*
X10144285Y-19203295D02*
X10144285Y-19298533D01*
X10144285Y-19298533D02*
X10191904Y-19441390D01*
X10191904Y-19441390D02*
X10763332Y-20012819D01*
X10763332Y-20012819D02*
X10144285Y-20012819D01*
X12578399Y-20536819D02*
X12578399Y-20774914D01*
X12816494Y-20679676D02*
X12578399Y-20774914D01*
X12578399Y-20774914D02*
X12340304Y-20679676D01*
X12721256Y-20965390D02*
X12578399Y-20774914D01*
X12578399Y-20774914D02*
X12435542Y-20965390D01*
X12578400Y-21627180D02*
X12578400Y-21389085D01*
X12340305Y-21484323D02*
X12578400Y-21389085D01*
X12578400Y-21389085D02*
X12816495Y-21484323D01*
X12435543Y-21198609D02*
X12578400Y-21389085D01*
X12578400Y-21389085D02*
X12721257Y-21198609D01*
%TO.C,FB4*%
X7691333Y-8059009D02*
X8024666Y-8059009D01*
X8024666Y-8582819D02*
X8024666Y-7582819D01*
X8024666Y-7582819D02*
X7548476Y-7582819D01*
X6834190Y-8059009D02*
X6691333Y-8106628D01*
X6691333Y-8106628D02*
X6643714Y-8154247D01*
X6643714Y-8154247D02*
X6596095Y-8249485D01*
X6596095Y-8249485D02*
X6596095Y-8392342D01*
X6596095Y-8392342D02*
X6643714Y-8487580D01*
X6643714Y-8487580D02*
X6691333Y-8535200D01*
X6691333Y-8535200D02*
X6786571Y-8582819D01*
X6786571Y-8582819D02*
X7167523Y-8582819D01*
X7167523Y-8582819D02*
X7167523Y-7582819D01*
X7167523Y-7582819D02*
X6834190Y-7582819D01*
X6834190Y-7582819D02*
X6738952Y-7630438D01*
X6738952Y-7630438D02*
X6691333Y-7678057D01*
X6691333Y-7678057D02*
X6643714Y-7773295D01*
X6643714Y-7773295D02*
X6643714Y-7868533D01*
X6643714Y-7868533D02*
X6691333Y-7963771D01*
X6691333Y-7963771D02*
X6738952Y-8011390D01*
X6738952Y-8011390D02*
X6834190Y-8059009D01*
X6834190Y-8059009D02*
X7167523Y-8059009D01*
X5738952Y-7916152D02*
X5738952Y-8582819D01*
X5977047Y-7535200D02*
X6215142Y-8249485D01*
X6215142Y-8249485D02*
X5596095Y-8249485D01*
%TO.C,C18*%
X-5227142Y-52175580D02*
X-5179523Y-52223200D01*
X-5179523Y-52223200D02*
X-5036666Y-52270819D01*
X-5036666Y-52270819D02*
X-4941428Y-52270819D01*
X-4941428Y-52270819D02*
X-4798571Y-52223200D01*
X-4798571Y-52223200D02*
X-4703333Y-52127961D01*
X-4703333Y-52127961D02*
X-4655714Y-52032723D01*
X-4655714Y-52032723D02*
X-4608095Y-51842247D01*
X-4608095Y-51842247D02*
X-4608095Y-51699390D01*
X-4608095Y-51699390D02*
X-4655714Y-51508914D01*
X-4655714Y-51508914D02*
X-4703333Y-51413676D01*
X-4703333Y-51413676D02*
X-4798571Y-51318438D01*
X-4798571Y-51318438D02*
X-4941428Y-51270819D01*
X-4941428Y-51270819D02*
X-5036666Y-51270819D01*
X-5036666Y-51270819D02*
X-5179523Y-51318438D01*
X-5179523Y-51318438D02*
X-5227142Y-51366057D01*
X-6179523Y-52270819D02*
X-5608095Y-52270819D01*
X-5893809Y-52270819D02*
X-5893809Y-51270819D01*
X-5893809Y-51270819D02*
X-5798571Y-51413676D01*
X-5798571Y-51413676D02*
X-5703333Y-51508914D01*
X-5703333Y-51508914D02*
X-5608095Y-51556533D01*
X-6750952Y-51699390D02*
X-6655714Y-51651771D01*
X-6655714Y-51651771D02*
X-6608095Y-51604152D01*
X-6608095Y-51604152D02*
X-6560476Y-51508914D01*
X-6560476Y-51508914D02*
X-6560476Y-51461295D01*
X-6560476Y-51461295D02*
X-6608095Y-51366057D01*
X-6608095Y-51366057D02*
X-6655714Y-51318438D01*
X-6655714Y-51318438D02*
X-6750952Y-51270819D01*
X-6750952Y-51270819D02*
X-6941428Y-51270819D01*
X-6941428Y-51270819D02*
X-7036666Y-51318438D01*
X-7036666Y-51318438D02*
X-7084285Y-51366057D01*
X-7084285Y-51366057D02*
X-7131904Y-51461295D01*
X-7131904Y-51461295D02*
X-7131904Y-51508914D01*
X-7131904Y-51508914D02*
X-7084285Y-51604152D01*
X-7084285Y-51604152D02*
X-7036666Y-51651771D01*
X-7036666Y-51651771D02*
X-6941428Y-51699390D01*
X-6941428Y-51699390D02*
X-6750952Y-51699390D01*
X-6750952Y-51699390D02*
X-6655714Y-51747009D01*
X-6655714Y-51747009D02*
X-6608095Y-51794628D01*
X-6608095Y-51794628D02*
X-6560476Y-51889866D01*
X-6560476Y-51889866D02*
X-6560476Y-52080342D01*
X-6560476Y-52080342D02*
X-6608095Y-52175580D01*
X-6608095Y-52175580D02*
X-6655714Y-52223200D01*
X-6655714Y-52223200D02*
X-6750952Y-52270819D01*
X-6750952Y-52270819D02*
X-6941428Y-52270819D01*
X-6941428Y-52270819D02*
X-7036666Y-52223200D01*
X-7036666Y-52223200D02*
X-7084285Y-52175580D01*
X-7084285Y-52175580D02*
X-7131904Y-52080342D01*
X-7131904Y-52080342D02*
X-7131904Y-51889866D01*
X-7131904Y-51889866D02*
X-7084285Y-51794628D01*
X-7084285Y-51794628D02*
X-7036666Y-51747009D01*
X-7036666Y-51747009D02*
X-6941428Y-51699390D01*
%TO.C,C14*%
X9786857Y-38943580D02*
X9834476Y-38991200D01*
X9834476Y-38991200D02*
X9977333Y-39038819D01*
X9977333Y-39038819D02*
X10072571Y-39038819D01*
X10072571Y-39038819D02*
X10215428Y-38991200D01*
X10215428Y-38991200D02*
X10310666Y-38895961D01*
X10310666Y-38895961D02*
X10358285Y-38800723D01*
X10358285Y-38800723D02*
X10405904Y-38610247D01*
X10405904Y-38610247D02*
X10405904Y-38467390D01*
X10405904Y-38467390D02*
X10358285Y-38276914D01*
X10358285Y-38276914D02*
X10310666Y-38181676D01*
X10310666Y-38181676D02*
X10215428Y-38086438D01*
X10215428Y-38086438D02*
X10072571Y-38038819D01*
X10072571Y-38038819D02*
X9977333Y-38038819D01*
X9977333Y-38038819D02*
X9834476Y-38086438D01*
X9834476Y-38086438D02*
X9786857Y-38134057D01*
X8834476Y-39038819D02*
X9405904Y-39038819D01*
X9120190Y-39038819D02*
X9120190Y-38038819D01*
X9120190Y-38038819D02*
X9215428Y-38181676D01*
X9215428Y-38181676D02*
X9310666Y-38276914D01*
X9310666Y-38276914D02*
X9405904Y-38324533D01*
X7977333Y-38372152D02*
X7977333Y-39038819D01*
X8215428Y-37991200D02*
X8453523Y-38705485D01*
X8453523Y-38705485D02*
X7834476Y-38705485D01*
%TO.C,C6*%
X13656666Y-23329580D02*
X13704285Y-23377200D01*
X13704285Y-23377200D02*
X13847142Y-23424819D01*
X13847142Y-23424819D02*
X13942380Y-23424819D01*
X13942380Y-23424819D02*
X14085237Y-23377200D01*
X14085237Y-23377200D02*
X14180475Y-23281961D01*
X14180475Y-23281961D02*
X14228094Y-23186723D01*
X14228094Y-23186723D02*
X14275713Y-22996247D01*
X14275713Y-22996247D02*
X14275713Y-22853390D01*
X14275713Y-22853390D02*
X14228094Y-22662914D01*
X14228094Y-22662914D02*
X14180475Y-22567676D01*
X14180475Y-22567676D02*
X14085237Y-22472438D01*
X14085237Y-22472438D02*
X13942380Y-22424819D01*
X13942380Y-22424819D02*
X13847142Y-22424819D01*
X13847142Y-22424819D02*
X13704285Y-22472438D01*
X13704285Y-22472438D02*
X13656666Y-22520057D01*
X12799523Y-22424819D02*
X12989999Y-22424819D01*
X12989999Y-22424819D02*
X13085237Y-22472438D01*
X13085237Y-22472438D02*
X13132856Y-22520057D01*
X13132856Y-22520057D02*
X13228094Y-22662914D01*
X13228094Y-22662914D02*
X13275713Y-22853390D01*
X13275713Y-22853390D02*
X13275713Y-23234342D01*
X13275713Y-23234342D02*
X13228094Y-23329580D01*
X13228094Y-23329580D02*
X13180475Y-23377200D01*
X13180475Y-23377200D02*
X13085237Y-23424819D01*
X13085237Y-23424819D02*
X12894761Y-23424819D01*
X12894761Y-23424819D02*
X12799523Y-23377200D01*
X12799523Y-23377200D02*
X12751904Y-23329580D01*
X12751904Y-23329580D02*
X12704285Y-23234342D01*
X12704285Y-23234342D02*
X12704285Y-22996247D01*
X12704285Y-22996247D02*
X12751904Y-22901009D01*
X12751904Y-22901009D02*
X12799523Y-22853390D01*
X12799523Y-22853390D02*
X12894761Y-22805771D01*
X12894761Y-22805771D02*
X13085237Y-22805771D01*
X13085237Y-22805771D02*
X13180475Y-22853390D01*
X13180475Y-22853390D02*
X13228094Y-22901009D01*
X13228094Y-22901009D02*
X13275713Y-22996247D01*
%TO.C,R17*%
X16644857Y-33728819D02*
X16978190Y-33252628D01*
X17216285Y-33728819D02*
X17216285Y-32728819D01*
X17216285Y-32728819D02*
X16835333Y-32728819D01*
X16835333Y-32728819D02*
X16740095Y-32776438D01*
X16740095Y-32776438D02*
X16692476Y-32824057D01*
X16692476Y-32824057D02*
X16644857Y-32919295D01*
X16644857Y-32919295D02*
X16644857Y-33062152D01*
X16644857Y-33062152D02*
X16692476Y-33157390D01*
X16692476Y-33157390D02*
X16740095Y-33205009D01*
X16740095Y-33205009D02*
X16835333Y-33252628D01*
X16835333Y-33252628D02*
X17216285Y-33252628D01*
X15692476Y-33728819D02*
X16263904Y-33728819D01*
X15978190Y-33728819D02*
X15978190Y-32728819D01*
X15978190Y-32728819D02*
X16073428Y-32871676D01*
X16073428Y-32871676D02*
X16168666Y-32966914D01*
X16168666Y-32966914D02*
X16263904Y-33014533D01*
X15359142Y-32728819D02*
X14692476Y-32728819D01*
X14692476Y-32728819D02*
X15121047Y-33728819D01*
%TO.C,R4*%
X-17261233Y-10161477D02*
X-17737424Y-9828144D01*
X-17261233Y-9590049D02*
X-18261233Y-9590049D01*
X-18261233Y-9590049D02*
X-18261233Y-9971001D01*
X-18261233Y-9971001D02*
X-18213614Y-10066239D01*
X-18213614Y-10066239D02*
X-18165995Y-10113858D01*
X-18165995Y-10113858D02*
X-18070757Y-10161477D01*
X-18070757Y-10161477D02*
X-17927900Y-10161477D01*
X-17927900Y-10161477D02*
X-17832662Y-10113858D01*
X-17832662Y-10113858D02*
X-17785043Y-10066239D01*
X-17785043Y-10066239D02*
X-17737424Y-9971001D01*
X-17737424Y-9971001D02*
X-17737424Y-9590049D01*
X-17927900Y-11018620D02*
X-17261233Y-11018620D01*
X-18308853Y-10780525D02*
X-17594567Y-10542430D01*
X-17594567Y-10542430D02*
X-17594567Y-11161477D01*
%TO.C,FB2*%
X-14927990Y-17581666D02*
X-14927990Y-17248333D01*
X-14404180Y-17248333D02*
X-15404180Y-17248333D01*
X-15404180Y-17248333D02*
X-15404180Y-17724523D01*
X-14927990Y-18438809D02*
X-14880371Y-18581666D01*
X-14880371Y-18581666D02*
X-14832752Y-18629285D01*
X-14832752Y-18629285D02*
X-14737514Y-18676904D01*
X-14737514Y-18676904D02*
X-14594657Y-18676904D01*
X-14594657Y-18676904D02*
X-14499419Y-18629285D01*
X-14499419Y-18629285D02*
X-14451800Y-18581666D01*
X-14451800Y-18581666D02*
X-14404180Y-18486428D01*
X-14404180Y-18486428D02*
X-14404180Y-18105476D01*
X-14404180Y-18105476D02*
X-15404180Y-18105476D01*
X-15404180Y-18105476D02*
X-15404180Y-18438809D01*
X-15404180Y-18438809D02*
X-15356561Y-18534047D01*
X-15356561Y-18534047D02*
X-15308942Y-18581666D01*
X-15308942Y-18581666D02*
X-15213704Y-18629285D01*
X-15213704Y-18629285D02*
X-15118466Y-18629285D01*
X-15118466Y-18629285D02*
X-15023228Y-18581666D01*
X-15023228Y-18581666D02*
X-14975609Y-18534047D01*
X-14975609Y-18534047D02*
X-14927990Y-18438809D01*
X-14927990Y-18438809D02*
X-14927990Y-18105476D01*
X-15308942Y-19057857D02*
X-15356561Y-19105476D01*
X-15356561Y-19105476D02*
X-15404180Y-19200714D01*
X-15404180Y-19200714D02*
X-15404180Y-19438809D01*
X-15404180Y-19438809D02*
X-15356561Y-19534047D01*
X-15356561Y-19534047D02*
X-15308942Y-19581666D01*
X-15308942Y-19581666D02*
X-15213704Y-19629285D01*
X-15213704Y-19629285D02*
X-15118466Y-19629285D01*
X-15118466Y-19629285D02*
X-14975609Y-19581666D01*
X-14975609Y-19581666D02*
X-14404180Y-19010238D01*
X-14404180Y-19010238D02*
X-14404180Y-19629285D01*
%TO.C,C12*%
X-1077142Y-25505580D02*
X-1029523Y-25553200D01*
X-1029523Y-25553200D02*
X-886666Y-25600819D01*
X-886666Y-25600819D02*
X-791428Y-25600819D01*
X-791428Y-25600819D02*
X-648571Y-25553200D01*
X-648571Y-25553200D02*
X-553333Y-25457961D01*
X-553333Y-25457961D02*
X-505714Y-25362723D01*
X-505714Y-25362723D02*
X-458095Y-25172247D01*
X-458095Y-25172247D02*
X-458095Y-25029390D01*
X-458095Y-25029390D02*
X-505714Y-24838914D01*
X-505714Y-24838914D02*
X-553333Y-24743676D01*
X-553333Y-24743676D02*
X-648571Y-24648438D01*
X-648571Y-24648438D02*
X-791428Y-24600819D01*
X-791428Y-24600819D02*
X-886666Y-24600819D01*
X-886666Y-24600819D02*
X-1029523Y-24648438D01*
X-1029523Y-24648438D02*
X-1077142Y-24696057D01*
X-2029523Y-25600819D02*
X-1458095Y-25600819D01*
X-1743809Y-25600819D02*
X-1743809Y-24600819D01*
X-1743809Y-24600819D02*
X-1648571Y-24743676D01*
X-1648571Y-24743676D02*
X-1553333Y-24838914D01*
X-1553333Y-24838914D02*
X-1458095Y-24886533D01*
X-2410476Y-24696057D02*
X-2458095Y-24648438D01*
X-2458095Y-24648438D02*
X-2553333Y-24600819D01*
X-2553333Y-24600819D02*
X-2791428Y-24600819D01*
X-2791428Y-24600819D02*
X-2886666Y-24648438D01*
X-2886666Y-24648438D02*
X-2934285Y-24696057D01*
X-2934285Y-24696057D02*
X-2981904Y-24791295D01*
X-2981904Y-24791295D02*
X-2981904Y-24886533D01*
X-2981904Y-24886533D02*
X-2934285Y-25029390D01*
X-2934285Y-25029390D02*
X-2362857Y-25600819D01*
X-2362857Y-25600819D02*
X-2981904Y-25600819D01*
%TO.C,R19*%
X11376819Y-12057142D02*
X10900628Y-11723809D01*
X11376819Y-11485714D02*
X10376819Y-11485714D01*
X10376819Y-11485714D02*
X10376819Y-11866666D01*
X10376819Y-11866666D02*
X10424438Y-11961904D01*
X10424438Y-11961904D02*
X10472057Y-12009523D01*
X10472057Y-12009523D02*
X10567295Y-12057142D01*
X10567295Y-12057142D02*
X10710152Y-12057142D01*
X10710152Y-12057142D02*
X10805390Y-12009523D01*
X10805390Y-12009523D02*
X10853009Y-11961904D01*
X10853009Y-11961904D02*
X10900628Y-11866666D01*
X10900628Y-11866666D02*
X10900628Y-11485714D01*
X11376819Y-13009523D02*
X11376819Y-12438095D01*
X11376819Y-12723809D02*
X10376819Y-12723809D01*
X10376819Y-12723809D02*
X10519676Y-12628571D01*
X10519676Y-12628571D02*
X10614914Y-12533333D01*
X10614914Y-12533333D02*
X10662533Y-12438095D01*
X11376819Y-13485714D02*
X11376819Y-13676190D01*
X11376819Y-13676190D02*
X11329200Y-13771428D01*
X11329200Y-13771428D02*
X11281580Y-13819047D01*
X11281580Y-13819047D02*
X11138723Y-13914285D01*
X11138723Y-13914285D02*
X10948247Y-13961904D01*
X10948247Y-13961904D02*
X10567295Y-13961904D01*
X10567295Y-13961904D02*
X10472057Y-13914285D01*
X10472057Y-13914285D02*
X10424438Y-13866666D01*
X10424438Y-13866666D02*
X10376819Y-13771428D01*
X10376819Y-13771428D02*
X10376819Y-13580952D01*
X10376819Y-13580952D02*
X10424438Y-13485714D01*
X10424438Y-13485714D02*
X10472057Y-13438095D01*
X10472057Y-13438095D02*
X10567295Y-13390476D01*
X10567295Y-13390476D02*
X10805390Y-13390476D01*
X10805390Y-13390476D02*
X10900628Y-13438095D01*
X10900628Y-13438095D02*
X10948247Y-13485714D01*
X10948247Y-13485714D02*
X10995866Y-13580952D01*
X10995866Y-13580952D02*
X10995866Y-13771428D01*
X10995866Y-13771428D02*
X10948247Y-13866666D01*
X10948247Y-13866666D02*
X10900628Y-13914285D01*
X10900628Y-13914285D02*
X10805390Y-13961904D01*
%TO.C,U8*%
X1232819Y-32336095D02*
X2042342Y-32336095D01*
X2042342Y-32336095D02*
X2137580Y-32383714D01*
X2137580Y-32383714D02*
X2185200Y-32431333D01*
X2185200Y-32431333D02*
X2232819Y-32526571D01*
X2232819Y-32526571D02*
X2232819Y-32717047D01*
X2232819Y-32717047D02*
X2185200Y-32812285D01*
X2185200Y-32812285D02*
X2137580Y-32859904D01*
X2137580Y-32859904D02*
X2042342Y-32907523D01*
X2042342Y-32907523D02*
X1232819Y-32907523D01*
X1661390Y-33526571D02*
X1613771Y-33431333D01*
X1613771Y-33431333D02*
X1566152Y-33383714D01*
X1566152Y-33383714D02*
X1470914Y-33336095D01*
X1470914Y-33336095D02*
X1423295Y-33336095D01*
X1423295Y-33336095D02*
X1328057Y-33383714D01*
X1328057Y-33383714D02*
X1280438Y-33431333D01*
X1280438Y-33431333D02*
X1232819Y-33526571D01*
X1232819Y-33526571D02*
X1232819Y-33717047D01*
X1232819Y-33717047D02*
X1280438Y-33812285D01*
X1280438Y-33812285D02*
X1328057Y-33859904D01*
X1328057Y-33859904D02*
X1423295Y-33907523D01*
X1423295Y-33907523D02*
X1470914Y-33907523D01*
X1470914Y-33907523D02*
X1566152Y-33859904D01*
X1566152Y-33859904D02*
X1613771Y-33812285D01*
X1613771Y-33812285D02*
X1661390Y-33717047D01*
X1661390Y-33717047D02*
X1661390Y-33526571D01*
X1661390Y-33526571D02*
X1709009Y-33431333D01*
X1709009Y-33431333D02*
X1756628Y-33383714D01*
X1756628Y-33383714D02*
X1851866Y-33336095D01*
X1851866Y-33336095D02*
X2042342Y-33336095D01*
X2042342Y-33336095D02*
X2137580Y-33383714D01*
X2137580Y-33383714D02*
X2185200Y-33431333D01*
X2185200Y-33431333D02*
X2232819Y-33526571D01*
X2232819Y-33526571D02*
X2232819Y-33717047D01*
X2232819Y-33717047D02*
X2185200Y-33812285D01*
X2185200Y-33812285D02*
X2137580Y-33859904D01*
X2137580Y-33859904D02*
X2042342Y-33907523D01*
X2042342Y-33907523D02*
X1851866Y-33907523D01*
X1851866Y-33907523D02*
X1756628Y-33859904D01*
X1756628Y-33859904D02*
X1709009Y-33812285D01*
X1709009Y-33812285D02*
X1661390Y-33717047D01*
%TO.C,R20*%
X-10279142Y-49730819D02*
X-9945809Y-49254628D01*
X-9707714Y-49730819D02*
X-9707714Y-48730819D01*
X-9707714Y-48730819D02*
X-10088666Y-48730819D01*
X-10088666Y-48730819D02*
X-10183904Y-48778438D01*
X-10183904Y-48778438D02*
X-10231523Y-48826057D01*
X-10231523Y-48826057D02*
X-10279142Y-48921295D01*
X-10279142Y-48921295D02*
X-10279142Y-49064152D01*
X-10279142Y-49064152D02*
X-10231523Y-49159390D01*
X-10231523Y-49159390D02*
X-10183904Y-49207009D01*
X-10183904Y-49207009D02*
X-10088666Y-49254628D01*
X-10088666Y-49254628D02*
X-9707714Y-49254628D01*
X-10660095Y-48826057D02*
X-10707714Y-48778438D01*
X-10707714Y-48778438D02*
X-10802952Y-48730819D01*
X-10802952Y-48730819D02*
X-11041047Y-48730819D01*
X-11041047Y-48730819D02*
X-11136285Y-48778438D01*
X-11136285Y-48778438D02*
X-11183904Y-48826057D01*
X-11183904Y-48826057D02*
X-11231523Y-48921295D01*
X-11231523Y-48921295D02*
X-11231523Y-49016533D01*
X-11231523Y-49016533D02*
X-11183904Y-49159390D01*
X-11183904Y-49159390D02*
X-10612476Y-49730819D01*
X-10612476Y-49730819D02*
X-11231523Y-49730819D01*
X-11850571Y-48730819D02*
X-11945809Y-48730819D01*
X-11945809Y-48730819D02*
X-12041047Y-48778438D01*
X-12041047Y-48778438D02*
X-12088666Y-48826057D01*
X-12088666Y-48826057D02*
X-12136285Y-48921295D01*
X-12136285Y-48921295D02*
X-12183904Y-49111771D01*
X-12183904Y-49111771D02*
X-12183904Y-49349866D01*
X-12183904Y-49349866D02*
X-12136285Y-49540342D01*
X-12136285Y-49540342D02*
X-12088666Y-49635580D01*
X-12088666Y-49635580D02*
X-12041047Y-49683200D01*
X-12041047Y-49683200D02*
X-11945809Y-49730819D01*
X-11945809Y-49730819D02*
X-11850571Y-49730819D01*
X-11850571Y-49730819D02*
X-11755333Y-49683200D01*
X-11755333Y-49683200D02*
X-11707714Y-49635580D01*
X-11707714Y-49635580D02*
X-11660095Y-49540342D01*
X-11660095Y-49540342D02*
X-11612476Y-49349866D01*
X-11612476Y-49349866D02*
X-11612476Y-49111771D01*
X-11612476Y-49111771D02*
X-11660095Y-48921295D01*
X-11660095Y-48921295D02*
X-11707714Y-48826057D01*
X-11707714Y-48826057D02*
X-11755333Y-48778438D01*
X-11755333Y-48778438D02*
X-11850571Y-48730819D01*
%TO.C,U10*%
X6254495Y-33986820D02*
X6254495Y-34796343D01*
X6254495Y-34796343D02*
X6206876Y-34891581D01*
X6206876Y-34891581D02*
X6159257Y-34939201D01*
X6159257Y-34939201D02*
X6064019Y-34986820D01*
X6064019Y-34986820D02*
X5873543Y-34986820D01*
X5873543Y-34986820D02*
X5778305Y-34939201D01*
X5778305Y-34939201D02*
X5730686Y-34891581D01*
X5730686Y-34891581D02*
X5683067Y-34796343D01*
X5683067Y-34796343D02*
X5683067Y-33986820D01*
X4683067Y-34986820D02*
X5254495Y-34986820D01*
X4968781Y-34986820D02*
X4968781Y-33986820D01*
X4968781Y-33986820D02*
X5064019Y-34129677D01*
X5064019Y-34129677D02*
X5159257Y-34224915D01*
X5159257Y-34224915D02*
X5254495Y-34272534D01*
X4064019Y-33986820D02*
X3968781Y-33986820D01*
X3968781Y-33986820D02*
X3873543Y-34034439D01*
X3873543Y-34034439D02*
X3825924Y-34082058D01*
X3825924Y-34082058D02*
X3778305Y-34177296D01*
X3778305Y-34177296D02*
X3730686Y-34367772D01*
X3730686Y-34367772D02*
X3730686Y-34605867D01*
X3730686Y-34605867D02*
X3778305Y-34796343D01*
X3778305Y-34796343D02*
X3825924Y-34891581D01*
X3825924Y-34891581D02*
X3873543Y-34939201D01*
X3873543Y-34939201D02*
X3968781Y-34986820D01*
X3968781Y-34986820D02*
X4064019Y-34986820D01*
X4064019Y-34986820D02*
X4159257Y-34939201D01*
X4159257Y-34939201D02*
X4206876Y-34891581D01*
X4206876Y-34891581D02*
X4254495Y-34796343D01*
X4254495Y-34796343D02*
X4302114Y-34605867D01*
X4302114Y-34605867D02*
X4302114Y-34367772D01*
X4302114Y-34367772D02*
X4254495Y-34177296D01*
X4254495Y-34177296D02*
X4206876Y-34082058D01*
X4206876Y-34082058D02*
X4159257Y-34034439D01*
X4159257Y-34034439D02*
X4064019Y-33986820D01*
%TO.C,R9*%
X13662819Y-28027333D02*
X13186628Y-27694000D01*
X13662819Y-27455905D02*
X12662819Y-27455905D01*
X12662819Y-27455905D02*
X12662819Y-27836857D01*
X12662819Y-27836857D02*
X12710438Y-27932095D01*
X12710438Y-27932095D02*
X12758057Y-27979714D01*
X12758057Y-27979714D02*
X12853295Y-28027333D01*
X12853295Y-28027333D02*
X12996152Y-28027333D01*
X12996152Y-28027333D02*
X13091390Y-27979714D01*
X13091390Y-27979714D02*
X13139009Y-27932095D01*
X13139009Y-27932095D02*
X13186628Y-27836857D01*
X13186628Y-27836857D02*
X13186628Y-27455905D01*
X13662819Y-28503524D02*
X13662819Y-28694000D01*
X13662819Y-28694000D02*
X13615200Y-28789238D01*
X13615200Y-28789238D02*
X13567580Y-28836857D01*
X13567580Y-28836857D02*
X13424723Y-28932095D01*
X13424723Y-28932095D02*
X13234247Y-28979714D01*
X13234247Y-28979714D02*
X12853295Y-28979714D01*
X12853295Y-28979714D02*
X12758057Y-28932095D01*
X12758057Y-28932095D02*
X12710438Y-28884476D01*
X12710438Y-28884476D02*
X12662819Y-28789238D01*
X12662819Y-28789238D02*
X12662819Y-28598762D01*
X12662819Y-28598762D02*
X12710438Y-28503524D01*
X12710438Y-28503524D02*
X12758057Y-28455905D01*
X12758057Y-28455905D02*
X12853295Y-28408286D01*
X12853295Y-28408286D02*
X13091390Y-28408286D01*
X13091390Y-28408286D02*
X13186628Y-28455905D01*
X13186628Y-28455905D02*
X13234247Y-28503524D01*
X13234247Y-28503524D02*
X13281866Y-28598762D01*
X13281866Y-28598762D02*
X13281866Y-28789238D01*
X13281866Y-28789238D02*
X13234247Y-28884476D01*
X13234247Y-28884476D02*
X13186628Y-28932095D01*
X13186628Y-28932095D02*
X13091390Y-28979714D01*
%TO.C,C10*%
X-1133142Y-28299580D02*
X-1085523Y-28347200D01*
X-1085523Y-28347200D02*
X-942666Y-28394819D01*
X-942666Y-28394819D02*
X-847428Y-28394819D01*
X-847428Y-28394819D02*
X-704571Y-28347200D01*
X-704571Y-28347200D02*
X-609333Y-28251961D01*
X-609333Y-28251961D02*
X-561714Y-28156723D01*
X-561714Y-28156723D02*
X-514095Y-27966247D01*
X-514095Y-27966247D02*
X-514095Y-27823390D01*
X-514095Y-27823390D02*
X-561714Y-27632914D01*
X-561714Y-27632914D02*
X-609333Y-27537676D01*
X-609333Y-27537676D02*
X-704571Y-27442438D01*
X-704571Y-27442438D02*
X-847428Y-27394819D01*
X-847428Y-27394819D02*
X-942666Y-27394819D01*
X-942666Y-27394819D02*
X-1085523Y-27442438D01*
X-1085523Y-27442438D02*
X-1133142Y-27490057D01*
X-2085523Y-28394819D02*
X-1514095Y-28394819D01*
X-1799809Y-28394819D02*
X-1799809Y-27394819D01*
X-1799809Y-27394819D02*
X-1704571Y-27537676D01*
X-1704571Y-27537676D02*
X-1609333Y-27632914D01*
X-1609333Y-27632914D02*
X-1514095Y-27680533D01*
X-2704571Y-27394819D02*
X-2799809Y-27394819D01*
X-2799809Y-27394819D02*
X-2895047Y-27442438D01*
X-2895047Y-27442438D02*
X-2942666Y-27490057D01*
X-2942666Y-27490057D02*
X-2990285Y-27585295D01*
X-2990285Y-27585295D02*
X-3037904Y-27775771D01*
X-3037904Y-27775771D02*
X-3037904Y-28013866D01*
X-3037904Y-28013866D02*
X-2990285Y-28204342D01*
X-2990285Y-28204342D02*
X-2942666Y-28299580D01*
X-2942666Y-28299580D02*
X-2895047Y-28347200D01*
X-2895047Y-28347200D02*
X-2799809Y-28394819D01*
X-2799809Y-28394819D02*
X-2704571Y-28394819D01*
X-2704571Y-28394819D02*
X-2609333Y-28347200D01*
X-2609333Y-28347200D02*
X-2561714Y-28299580D01*
X-2561714Y-28299580D02*
X-2514095Y-28204342D01*
X-2514095Y-28204342D02*
X-2466476Y-28013866D01*
X-2466476Y-28013866D02*
X-2466476Y-27775771D01*
X-2466476Y-27775771D02*
X-2514095Y-27585295D01*
X-2514095Y-27585295D02*
X-2561714Y-27490057D01*
X-2561714Y-27490057D02*
X-2609333Y-27442438D01*
X-2609333Y-27442438D02*
X-2704571Y-27394819D01*
%TO.C,C11*%
X-15387142Y-21949580D02*
X-15339523Y-21997200D01*
X-15339523Y-21997200D02*
X-15196666Y-22044819D01*
X-15196666Y-22044819D02*
X-15101428Y-22044819D01*
X-15101428Y-22044819D02*
X-14958571Y-21997200D01*
X-14958571Y-21997200D02*
X-14863333Y-21901961D01*
X-14863333Y-21901961D02*
X-14815714Y-21806723D01*
X-14815714Y-21806723D02*
X-14768095Y-21616247D01*
X-14768095Y-21616247D02*
X-14768095Y-21473390D01*
X-14768095Y-21473390D02*
X-14815714Y-21282914D01*
X-14815714Y-21282914D02*
X-14863333Y-21187676D01*
X-14863333Y-21187676D02*
X-14958571Y-21092438D01*
X-14958571Y-21092438D02*
X-15101428Y-21044819D01*
X-15101428Y-21044819D02*
X-15196666Y-21044819D01*
X-15196666Y-21044819D02*
X-15339523Y-21092438D01*
X-15339523Y-21092438D02*
X-15387142Y-21140057D01*
X-16339523Y-22044819D02*
X-15768095Y-22044819D01*
X-16053809Y-22044819D02*
X-16053809Y-21044819D01*
X-16053809Y-21044819D02*
X-15958571Y-21187676D01*
X-15958571Y-21187676D02*
X-15863333Y-21282914D01*
X-15863333Y-21282914D02*
X-15768095Y-21330533D01*
X-17291904Y-22044819D02*
X-16720476Y-22044819D01*
X-17006190Y-22044819D02*
X-17006190Y-21044819D01*
X-17006190Y-21044819D02*
X-16910952Y-21187676D01*
X-16910952Y-21187676D02*
X-16815714Y-21282914D01*
X-16815714Y-21282914D02*
X-16720476Y-21330533D01*
%TO.C,C13*%
X9786857Y-40345580D02*
X9834476Y-40393200D01*
X9834476Y-40393200D02*
X9977333Y-40440819D01*
X9977333Y-40440819D02*
X10072571Y-40440819D01*
X10072571Y-40440819D02*
X10215428Y-40393200D01*
X10215428Y-40393200D02*
X10310666Y-40297961D01*
X10310666Y-40297961D02*
X10358285Y-40202723D01*
X10358285Y-40202723D02*
X10405904Y-40012247D01*
X10405904Y-40012247D02*
X10405904Y-39869390D01*
X10405904Y-39869390D02*
X10358285Y-39678914D01*
X10358285Y-39678914D02*
X10310666Y-39583676D01*
X10310666Y-39583676D02*
X10215428Y-39488438D01*
X10215428Y-39488438D02*
X10072571Y-39440819D01*
X10072571Y-39440819D02*
X9977333Y-39440819D01*
X9977333Y-39440819D02*
X9834476Y-39488438D01*
X9834476Y-39488438D02*
X9786857Y-39536057D01*
X8834476Y-40440819D02*
X9405904Y-40440819D01*
X9120190Y-40440819D02*
X9120190Y-39440819D01*
X9120190Y-39440819D02*
X9215428Y-39583676D01*
X9215428Y-39583676D02*
X9310666Y-39678914D01*
X9310666Y-39678914D02*
X9405904Y-39726533D01*
X8501142Y-39440819D02*
X7882095Y-39440819D01*
X7882095Y-39440819D02*
X8215428Y-39821771D01*
X8215428Y-39821771D02*
X8072571Y-39821771D01*
X8072571Y-39821771D02*
X7977333Y-39869390D01*
X7977333Y-39869390D02*
X7929714Y-39917009D01*
X7929714Y-39917009D02*
X7882095Y-40012247D01*
X7882095Y-40012247D02*
X7882095Y-40250342D01*
X7882095Y-40250342D02*
X7929714Y-40345580D01*
X7929714Y-40345580D02*
X7977333Y-40393200D01*
X7977333Y-40393200D02*
X8072571Y-40440819D01*
X8072571Y-40440819D02*
X8358285Y-40440819D01*
X8358285Y-40440819D02*
X8453523Y-40393200D01*
X8453523Y-40393200D02*
X8501142Y-40345580D01*
%TO.C,R7*%
X2198666Y-10106819D02*
X2531999Y-9630628D01*
X2770094Y-10106819D02*
X2770094Y-9106819D01*
X2770094Y-9106819D02*
X2389142Y-9106819D01*
X2389142Y-9106819D02*
X2293904Y-9154438D01*
X2293904Y-9154438D02*
X2246285Y-9202057D01*
X2246285Y-9202057D02*
X2198666Y-9297295D01*
X2198666Y-9297295D02*
X2198666Y-9440152D01*
X2198666Y-9440152D02*
X2246285Y-9535390D01*
X2246285Y-9535390D02*
X2293904Y-9583009D01*
X2293904Y-9583009D02*
X2389142Y-9630628D01*
X2389142Y-9630628D02*
X2770094Y-9630628D01*
X1865332Y-9106819D02*
X1198666Y-9106819D01*
X1198666Y-9106819D02*
X1627237Y-10106819D01*
%TO.C,R6*%
X-13261180Y-10145833D02*
X-13737371Y-9812500D01*
X-13261180Y-9574405D02*
X-14261180Y-9574405D01*
X-14261180Y-9574405D02*
X-14261180Y-9955357D01*
X-14261180Y-9955357D02*
X-14213561Y-10050595D01*
X-14213561Y-10050595D02*
X-14165942Y-10098214D01*
X-14165942Y-10098214D02*
X-14070704Y-10145833D01*
X-14070704Y-10145833D02*
X-13927847Y-10145833D01*
X-13927847Y-10145833D02*
X-13832609Y-10098214D01*
X-13832609Y-10098214D02*
X-13784990Y-10050595D01*
X-13784990Y-10050595D02*
X-13737371Y-9955357D01*
X-13737371Y-9955357D02*
X-13737371Y-9574405D01*
X-14261180Y-11002976D02*
X-14261180Y-10812500D01*
X-14261180Y-10812500D02*
X-14213561Y-10717262D01*
X-14213561Y-10717262D02*
X-14165942Y-10669643D01*
X-14165942Y-10669643D02*
X-14023085Y-10574405D01*
X-14023085Y-10574405D02*
X-13832609Y-10526786D01*
X-13832609Y-10526786D02*
X-13451657Y-10526786D01*
X-13451657Y-10526786D02*
X-13356419Y-10574405D01*
X-13356419Y-10574405D02*
X-13308800Y-10622024D01*
X-13308800Y-10622024D02*
X-13261180Y-10717262D01*
X-13261180Y-10717262D02*
X-13261180Y-10907738D01*
X-13261180Y-10907738D02*
X-13308800Y-11002976D01*
X-13308800Y-11002976D02*
X-13356419Y-11050595D01*
X-13356419Y-11050595D02*
X-13451657Y-11098214D01*
X-13451657Y-11098214D02*
X-13689752Y-11098214D01*
X-13689752Y-11098214D02*
X-13784990Y-11050595D01*
X-13784990Y-11050595D02*
X-13832609Y-11002976D01*
X-13832609Y-11002976D02*
X-13880228Y-10907738D01*
X-13880228Y-10907738D02*
X-13880228Y-10717262D01*
X-13880228Y-10717262D02*
X-13832609Y-10622024D01*
X-13832609Y-10622024D02*
X-13784990Y-10574405D01*
X-13784990Y-10574405D02*
X-13689752Y-10526786D01*
%TO.C,U11*%
X-9175905Y-33998819D02*
X-9175905Y-34808342D01*
X-9175905Y-34808342D02*
X-9223524Y-34903580D01*
X-9223524Y-34903580D02*
X-9271143Y-34951200D01*
X-9271143Y-34951200D02*
X-9366381Y-34998819D01*
X-9366381Y-34998819D02*
X-9556857Y-34998819D01*
X-9556857Y-34998819D02*
X-9652095Y-34951200D01*
X-9652095Y-34951200D02*
X-9699714Y-34903580D01*
X-9699714Y-34903580D02*
X-9747333Y-34808342D01*
X-9747333Y-34808342D02*
X-9747333Y-33998819D01*
X-10747333Y-34998819D02*
X-10175905Y-34998819D01*
X-10461619Y-34998819D02*
X-10461619Y-33998819D01*
X-10461619Y-33998819D02*
X-10366381Y-34141676D01*
X-10366381Y-34141676D02*
X-10271143Y-34236914D01*
X-10271143Y-34236914D02*
X-10175905Y-34284533D01*
X-11699714Y-34998819D02*
X-11128286Y-34998819D01*
X-11414000Y-34998819D02*
X-11414000Y-33998819D01*
X-11414000Y-33998819D02*
X-11318762Y-34141676D01*
X-11318762Y-34141676D02*
X-11223524Y-34236914D01*
X-11223524Y-34236914D02*
X-11128286Y-34284533D01*
X-16713199Y-34631980D02*
X-16713199Y-34393885D01*
X-16951294Y-34489123D02*
X-16713199Y-34393885D01*
X-16713199Y-34393885D02*
X-16475104Y-34489123D01*
X-16856056Y-34203409D02*
X-16713199Y-34393885D01*
X-16713199Y-34393885D02*
X-16570342Y-34203409D01*
X-16713199Y-34631980D02*
X-16713199Y-34393885D01*
X-16951294Y-34489123D02*
X-16713199Y-34393885D01*
X-16713199Y-34393885D02*
X-16475104Y-34489123D01*
X-16856056Y-34203409D02*
X-16713199Y-34393885D01*
X-16713199Y-34393885D02*
X-16570342Y-34203409D01*
%TO.C,C15*%
X-4466419Y-20566142D02*
X-4418800Y-20518523D01*
X-4418800Y-20518523D02*
X-4371180Y-20375666D01*
X-4371180Y-20375666D02*
X-4371180Y-20280428D01*
X-4371180Y-20280428D02*
X-4418800Y-20137571D01*
X-4418800Y-20137571D02*
X-4514038Y-20042333D01*
X-4514038Y-20042333D02*
X-4609276Y-19994714D01*
X-4609276Y-19994714D02*
X-4799752Y-19947095D01*
X-4799752Y-19947095D02*
X-4942609Y-19947095D01*
X-4942609Y-19947095D02*
X-5133085Y-19994714D01*
X-5133085Y-19994714D02*
X-5228323Y-20042333D01*
X-5228323Y-20042333D02*
X-5323561Y-20137571D01*
X-5323561Y-20137571D02*
X-5371180Y-20280428D01*
X-5371180Y-20280428D02*
X-5371180Y-20375666D01*
X-5371180Y-20375666D02*
X-5323561Y-20518523D01*
X-5323561Y-20518523D02*
X-5275942Y-20566142D01*
X-4371180Y-21518523D02*
X-4371180Y-20947095D01*
X-4371180Y-21232809D02*
X-5371180Y-21232809D01*
X-5371180Y-21232809D02*
X-5228323Y-21137571D01*
X-5228323Y-21137571D02*
X-5133085Y-21042333D01*
X-5133085Y-21042333D02*
X-5085466Y-20947095D01*
X-5371180Y-22423285D02*
X-5371180Y-21947095D01*
X-5371180Y-21947095D02*
X-4894990Y-21899476D01*
X-4894990Y-21899476D02*
X-4942609Y-21947095D01*
X-4942609Y-21947095D02*
X-4990228Y-22042333D01*
X-4990228Y-22042333D02*
X-4990228Y-22280428D01*
X-4990228Y-22280428D02*
X-4942609Y-22375666D01*
X-4942609Y-22375666D02*
X-4894990Y-22423285D01*
X-4894990Y-22423285D02*
X-4799752Y-22470904D01*
X-4799752Y-22470904D02*
X-4561657Y-22470904D01*
X-4561657Y-22470904D02*
X-4466419Y-22423285D01*
X-4466419Y-22423285D02*
X-4418800Y-22375666D01*
X-4418800Y-22375666D02*
X-4371180Y-22280428D01*
X-4371180Y-22280428D02*
X-4371180Y-22042333D01*
X-4371180Y-22042333D02*
X-4418800Y-21947095D01*
X-4418800Y-21947095D02*
X-4466419Y-21899476D01*
%TO.C,C16*%
X-5227142Y-49635580D02*
X-5179523Y-49683200D01*
X-5179523Y-49683200D02*
X-5036666Y-49730819D01*
X-5036666Y-49730819D02*
X-4941428Y-49730819D01*
X-4941428Y-49730819D02*
X-4798571Y-49683200D01*
X-4798571Y-49683200D02*
X-4703333Y-49587961D01*
X-4703333Y-49587961D02*
X-4655714Y-49492723D01*
X-4655714Y-49492723D02*
X-4608095Y-49302247D01*
X-4608095Y-49302247D02*
X-4608095Y-49159390D01*
X-4608095Y-49159390D02*
X-4655714Y-48968914D01*
X-4655714Y-48968914D02*
X-4703333Y-48873676D01*
X-4703333Y-48873676D02*
X-4798571Y-48778438D01*
X-4798571Y-48778438D02*
X-4941428Y-48730819D01*
X-4941428Y-48730819D02*
X-5036666Y-48730819D01*
X-5036666Y-48730819D02*
X-5179523Y-48778438D01*
X-5179523Y-48778438D02*
X-5227142Y-48826057D01*
X-6179523Y-49730819D02*
X-5608095Y-49730819D01*
X-5893809Y-49730819D02*
X-5893809Y-48730819D01*
X-5893809Y-48730819D02*
X-5798571Y-48873676D01*
X-5798571Y-48873676D02*
X-5703333Y-48968914D01*
X-5703333Y-48968914D02*
X-5608095Y-49016533D01*
X-7036666Y-48730819D02*
X-6846190Y-48730819D01*
X-6846190Y-48730819D02*
X-6750952Y-48778438D01*
X-6750952Y-48778438D02*
X-6703333Y-48826057D01*
X-6703333Y-48826057D02*
X-6608095Y-48968914D01*
X-6608095Y-48968914D02*
X-6560476Y-49159390D01*
X-6560476Y-49159390D02*
X-6560476Y-49540342D01*
X-6560476Y-49540342D02*
X-6608095Y-49635580D01*
X-6608095Y-49635580D02*
X-6655714Y-49683200D01*
X-6655714Y-49683200D02*
X-6750952Y-49730819D01*
X-6750952Y-49730819D02*
X-6941428Y-49730819D01*
X-6941428Y-49730819D02*
X-7036666Y-49683200D01*
X-7036666Y-49683200D02*
X-7084285Y-49635580D01*
X-7084285Y-49635580D02*
X-7131904Y-49540342D01*
X-7131904Y-49540342D02*
X-7131904Y-49302247D01*
X-7131904Y-49302247D02*
X-7084285Y-49207009D01*
X-7084285Y-49207009D02*
X-7036666Y-49159390D01*
X-7036666Y-49159390D02*
X-6941428Y-49111771D01*
X-6941428Y-49111771D02*
X-6750952Y-49111771D01*
X-6750952Y-49111771D02*
X-6655714Y-49159390D01*
X-6655714Y-49159390D02*
X-6608095Y-49207009D01*
X-6608095Y-49207009D02*
X-6560476Y-49302247D01*
%TO.C,C9*%
X11535580Y-34123333D02*
X11583200Y-34075714D01*
X11583200Y-34075714D02*
X11630819Y-33932857D01*
X11630819Y-33932857D02*
X11630819Y-33837619D01*
X11630819Y-33837619D02*
X11583200Y-33694762D01*
X11583200Y-33694762D02*
X11487961Y-33599524D01*
X11487961Y-33599524D02*
X11392723Y-33551905D01*
X11392723Y-33551905D02*
X11202247Y-33504286D01*
X11202247Y-33504286D02*
X11059390Y-33504286D01*
X11059390Y-33504286D02*
X10868914Y-33551905D01*
X10868914Y-33551905D02*
X10773676Y-33599524D01*
X10773676Y-33599524D02*
X10678438Y-33694762D01*
X10678438Y-33694762D02*
X10630819Y-33837619D01*
X10630819Y-33837619D02*
X10630819Y-33932857D01*
X10630819Y-33932857D02*
X10678438Y-34075714D01*
X10678438Y-34075714D02*
X10726057Y-34123333D01*
X11630819Y-34599524D02*
X11630819Y-34790000D01*
X11630819Y-34790000D02*
X11583200Y-34885238D01*
X11583200Y-34885238D02*
X11535580Y-34932857D01*
X11535580Y-34932857D02*
X11392723Y-35028095D01*
X11392723Y-35028095D02*
X11202247Y-35075714D01*
X11202247Y-35075714D02*
X10821295Y-35075714D01*
X10821295Y-35075714D02*
X10726057Y-35028095D01*
X10726057Y-35028095D02*
X10678438Y-34980476D01*
X10678438Y-34980476D02*
X10630819Y-34885238D01*
X10630819Y-34885238D02*
X10630819Y-34694762D01*
X10630819Y-34694762D02*
X10678438Y-34599524D01*
X10678438Y-34599524D02*
X10726057Y-34551905D01*
X10726057Y-34551905D02*
X10821295Y-34504286D01*
X10821295Y-34504286D02*
X11059390Y-34504286D01*
X11059390Y-34504286D02*
X11154628Y-34551905D01*
X11154628Y-34551905D02*
X11202247Y-34599524D01*
X11202247Y-34599524D02*
X11249866Y-34694762D01*
X11249866Y-34694762D02*
X11249866Y-34885238D01*
X11249866Y-34885238D02*
X11202247Y-34980476D01*
X11202247Y-34980476D02*
X11154628Y-35028095D01*
X11154628Y-35028095D02*
X11059390Y-35075714D01*
%TO.C,R16*%
X-3101180Y-20693142D02*
X-3577371Y-20359809D01*
X-3101180Y-20121714D02*
X-4101180Y-20121714D01*
X-4101180Y-20121714D02*
X-4101180Y-20502666D01*
X-4101180Y-20502666D02*
X-4053561Y-20597904D01*
X-4053561Y-20597904D02*
X-4005942Y-20645523D01*
X-4005942Y-20645523D02*
X-3910704Y-20693142D01*
X-3910704Y-20693142D02*
X-3767847Y-20693142D01*
X-3767847Y-20693142D02*
X-3672609Y-20645523D01*
X-3672609Y-20645523D02*
X-3624990Y-20597904D01*
X-3624990Y-20597904D02*
X-3577371Y-20502666D01*
X-3577371Y-20502666D02*
X-3577371Y-20121714D01*
X-3101180Y-21645523D02*
X-3101180Y-21074095D01*
X-3101180Y-21359809D02*
X-4101180Y-21359809D01*
X-4101180Y-21359809D02*
X-3958323Y-21264571D01*
X-3958323Y-21264571D02*
X-3863085Y-21169333D01*
X-3863085Y-21169333D02*
X-3815466Y-21074095D01*
X-4101180Y-22502666D02*
X-4101180Y-22312190D01*
X-4101180Y-22312190D02*
X-4053561Y-22216952D01*
X-4053561Y-22216952D02*
X-4005942Y-22169333D01*
X-4005942Y-22169333D02*
X-3863085Y-22074095D01*
X-3863085Y-22074095D02*
X-3672609Y-22026476D01*
X-3672609Y-22026476D02*
X-3291657Y-22026476D01*
X-3291657Y-22026476D02*
X-3196419Y-22074095D01*
X-3196419Y-22074095D02*
X-3148800Y-22121714D01*
X-3148800Y-22121714D02*
X-3101180Y-22216952D01*
X-3101180Y-22216952D02*
X-3101180Y-22407428D01*
X-3101180Y-22407428D02*
X-3148800Y-22502666D01*
X-3148800Y-22502666D02*
X-3196419Y-22550285D01*
X-3196419Y-22550285D02*
X-3291657Y-22597904D01*
X-3291657Y-22597904D02*
X-3529752Y-22597904D01*
X-3529752Y-22597904D02*
X-3624990Y-22550285D01*
X-3624990Y-22550285D02*
X-3672609Y-22502666D01*
X-3672609Y-22502666D02*
X-3720228Y-22407428D01*
X-3720228Y-22407428D02*
X-3720228Y-22216952D01*
X-3720228Y-22216952D02*
X-3672609Y-22121714D01*
X-3672609Y-22121714D02*
X-3624990Y-22074095D01*
X-3624990Y-22074095D02*
X-3529752Y-22026476D01*
%TO.C,C7*%
X13656666Y-26775580D02*
X13704285Y-26823200D01*
X13704285Y-26823200D02*
X13847142Y-26870819D01*
X13847142Y-26870819D02*
X13942380Y-26870819D01*
X13942380Y-26870819D02*
X14085237Y-26823200D01*
X14085237Y-26823200D02*
X14180475Y-26727961D01*
X14180475Y-26727961D02*
X14228094Y-26632723D01*
X14228094Y-26632723D02*
X14275713Y-26442247D01*
X14275713Y-26442247D02*
X14275713Y-26299390D01*
X14275713Y-26299390D02*
X14228094Y-26108914D01*
X14228094Y-26108914D02*
X14180475Y-26013676D01*
X14180475Y-26013676D02*
X14085237Y-25918438D01*
X14085237Y-25918438D02*
X13942380Y-25870819D01*
X13942380Y-25870819D02*
X13847142Y-25870819D01*
X13847142Y-25870819D02*
X13704285Y-25918438D01*
X13704285Y-25918438D02*
X13656666Y-25966057D01*
X13323332Y-25870819D02*
X12656666Y-25870819D01*
X12656666Y-25870819D02*
X13085237Y-26870819D01*
D11*
%TO.C,U1*%
X-11024087Y-56515300D02*
G75*
G03*
X-11024087Y-56515300I-381000J0D01*
G01*
D12*
%TO.C,S3*%
X11711000Y-17320000D02*
X11711000Y-10620000D01*
X12831000Y-17320000D02*
X11711000Y-17320000D01*
X18261000Y-17320000D02*
X17141000Y-17320000D01*
X12831000Y-10620000D02*
X11711000Y-10620000D01*
X18261000Y-10620000D02*
X18261000Y-17320000D01*
X18261000Y-10620000D02*
X17141000Y-10620000D01*
D13*
X16356000Y-20320000D02*
G75*
G03*
X16356000Y-20320000I-100000J0D01*
G01*
D14*
%TO.C,R10*%
X12064000Y-30582359D02*
X12064000Y-30889641D01*
X11304000Y-30582359D02*
X11304000Y-30889641D01*
%TO.C,R8*%
X4471641Y-11302000D02*
X4164359Y-11302000D01*
X4471641Y-10542000D02*
X4164359Y-10542000D01*
%TO.C,C17*%
X-8302164Y-50906000D02*
X-8517836Y-50906000D01*
X-8302164Y-50186000D02*
X-8517836Y-50186000D01*
%TO.C,C8*%
X7726000Y-34182164D02*
X7726000Y-34397836D01*
X7006000Y-34182164D02*
X7006000Y-34397836D01*
D15*
%TO.C,CR1*%
X8596000Y-12220000D02*
X8596000Y-9116000D01*
X10200000Y-9116000D02*
X10200000Y-12220000D01*
D12*
%TO.C,S2*%
X-5869000Y-11382000D02*
X-5869000Y-18082000D01*
X-6989000Y-11382000D02*
X-5869000Y-11382000D01*
X-12419000Y-11382000D02*
X-11299000Y-11382000D01*
X-6989000Y-18082000D02*
X-5869000Y-18082000D01*
X-12419000Y-18082000D02*
X-12419000Y-11382000D01*
X-12419000Y-18082000D02*
X-11299000Y-18082000D01*
D13*
X-10314000Y-8382000D02*
G75*
G03*
X-10314000Y-8382000I-100000J0D01*
G01*
D15*
%TO.C,U7*%
X342900Y-13373100D02*
X342900Y-17614900D01*
X-4914900Y-17614900D02*
X-4914900Y-13373100D01*
D14*
%TO.C,R11*%
X10286000Y-17880359D02*
X10286000Y-18187641D01*
X9526000Y-17880359D02*
X9526000Y-18187641D01*
%TO.C,R12*%
X9270000Y-17880359D02*
X9270000Y-18187641D01*
X8510000Y-17880359D02*
X8510000Y-18187641D01*
%TO.C,R18*%
X8510000Y-15391641D02*
X8510000Y-15084359D01*
X9270000Y-15391641D02*
X9270000Y-15084359D01*
%TO.C,R13*%
X15675641Y-24510000D02*
X15368359Y-24510000D01*
X15675641Y-23750000D02*
X15368359Y-23750000D01*
D15*
%TO.C,U9*%
X6946900Y-13373100D02*
X6946900Y-17614900D01*
X1689100Y-17614900D02*
X1689100Y-13373100D01*
D14*
%TO.C,R14*%
X15675641Y-25526000D02*
X15368359Y-25526000D01*
X15675641Y-24766000D02*
X15368359Y-24766000D01*
%TO.C,U12*%
X5350000Y-36990000D02*
X7350000Y-36990000D01*
X6350000Y-39210000D02*
X7350000Y-39210000D01*
%TO.C,R15*%
X-4469641Y-26290000D02*
X-4162359Y-26290000D01*
X-4469641Y-27050000D02*
X-4162359Y-27050000D01*
D15*
%TO.C,CR3*%
X15646400Y-47244000D02*
X15646400Y-49276000D01*
X12293600Y-49276000D02*
X12293600Y-47244000D01*
D14*
%TO.C,R5*%
X-15020548Y-12904156D02*
X-15020548Y-13358284D01*
X-16490548Y-12904156D02*
X-16490548Y-13358284D01*
D15*
%TO.C,CR2*%
X13688000Y-20280000D02*
X16792000Y-20280000D01*
X16792000Y-21884000D02*
X13688000Y-21884000D01*
D14*
%TO.C,C18*%
X-8330164Y-51922000D02*
X-8545836Y-51922000D01*
X-8330164Y-51202000D02*
X-8545836Y-51202000D01*
%TO.C,C14*%
X3958000Y-38249836D02*
X3958000Y-38034164D01*
X4678000Y-38249836D02*
X4678000Y-38034164D01*
%TO.C,C6*%
X13597836Y-24490000D02*
X13382164Y-24490000D01*
X13597836Y-23770000D02*
X13382164Y-23770000D01*
%TO.C,R17*%
X13030564Y-33755000D02*
X12576436Y-33755000D01*
X13030564Y-32285000D02*
X12576436Y-32285000D01*
%TO.C,R4*%
X-16981053Y-12893080D02*
X-16981053Y-13347208D01*
X-18451053Y-12893080D02*
X-18451053Y-13347208D01*
%TO.C,C12*%
X-4395836Y-25040000D02*
X-4180164Y-25040000D01*
X-4395836Y-25760000D02*
X-4180164Y-25760000D01*
%TO.C,R19*%
X9526000Y-15393641D02*
X9526000Y-15086359D01*
X10286000Y-15393641D02*
X10286000Y-15086359D01*
%TO.C,U8*%
X10574000Y-22126000D02*
X10339000Y-22126000D01*
X-2211000Y-22126000D02*
X-2211000Y-20311000D01*
X-2446000Y-22126000D02*
X-2211000Y-22126000D01*
X10574000Y-25986000D02*
X10574000Y-22126000D01*
X10574000Y-25986000D02*
X10574000Y-29846000D01*
X-2446000Y-25986000D02*
X-2446000Y-22126000D01*
X-2446000Y-25986000D02*
X-2446000Y-29846000D01*
X10574000Y-29846000D02*
X10339000Y-29846000D01*
X-2446000Y-29846000D02*
X-2211000Y-29846000D01*
%TO.C,R20*%
X-9554000Y-50900359D02*
X-9554000Y-51207641D01*
X-10314000Y-50900359D02*
X-10314000Y-51207641D01*
D15*
%TO.C,U10*%
X6193401Y-36209000D02*
X3839401Y-36209000D01*
X6193401Y-35739342D02*
X6193401Y-36209000D01*
X6193401Y-32855002D02*
X6193401Y-33324660D01*
X3839401Y-36209000D02*
X3839401Y-35739342D01*
X3839401Y-33324660D02*
X3839401Y-32855002D01*
X3839401Y-32855002D02*
X6193401Y-32855002D01*
X6703942Y-33855829D02*
G75*
G03*
X6703942Y-33708173I18859J73828D01*
G01*
D14*
%TO.C,R9*%
X12064000Y-28550359D02*
X12064000Y-28857641D01*
X11304000Y-28550359D02*
X11304000Y-28857641D01*
%TO.C,C10*%
X-4208164Y-28300000D02*
X-4423836Y-28300000D01*
X-4208164Y-27580000D02*
X-4423836Y-27580000D01*
%TO.C,C11*%
X-13569836Y-20976000D02*
X-13354164Y-20976000D01*
X-13569836Y-21696000D02*
X-13354164Y-21696000D01*
%TO.C,C13*%
X6965836Y-40346000D02*
X6750164Y-40346000D01*
X6965836Y-39626000D02*
X6750164Y-39626000D01*
%TO.C,R7*%
X1878359Y-10542000D02*
X2185641Y-10542000D01*
X1878359Y-11302000D02*
X2185641Y-11302000D01*
%TO.C,R6*%
X-14451000Y-13331564D02*
X-14451000Y-12877436D01*
X-12981000Y-13331564D02*
X-12981000Y-12877436D01*
D15*
%TO.C,U11*%
X-15735300Y-22694900D02*
X-8140700Y-22694900D01*
X-8140700Y-33185100D02*
X-15735300Y-33185100D01*
X-11633200Y-33185100D02*
G75*
G03*
X-12242800Y-33185100I-304800J0D01*
G01*
G36*
X-5753100Y-24955500D02*
G01*
X-6007100Y-24955500D01*
X-6007100Y-24574500D01*
X-5753100Y-24574500D01*
X-5753100Y-24955500D01*
G37*
D14*
%TO.C,C15*%
X-5184000Y-23729836D02*
X-5184000Y-23514164D01*
X-4464000Y-23729836D02*
X-4464000Y-23514164D01*
%TO.C,C16*%
X-8330164Y-49760000D02*
X-8545836Y-49760000D01*
X-8330164Y-49040000D02*
X-8545836Y-49040000D01*
%TO.C,C9*%
X8996000Y-34182164D02*
X8996000Y-34397836D01*
X8276000Y-34182164D02*
X8276000Y-34397836D01*
%TO.C,R16*%
X-3303000Y-23468359D02*
X-3303000Y-23775641D01*
X-4063000Y-23468359D02*
X-4063000Y-23775641D01*
%TO.C,C7*%
X13597836Y-25506000D02*
X13382164Y-25506000D01*
X13597836Y-24786000D02*
X13382164Y-24786000D01*
%TD*%
M02*
