%TF.GenerationSoftware,KiCad,Pcbnew,7.0.10*%
%TF.CreationDate,2024-03-09T07:06:31+08:00*%
%TF.ProjectId,ESP32Sensor-Sensor_board,45535033-3253-4656-9e73-6f722d53656e,rev?*%
%TF.SameCoordinates,Original*%
%TF.FileFunction,Drillmap*%
%TF.FilePolarity,Positive*%
%FSLAX45Y45*%
G04 Gerber Fmt 4.5, Leading zero omitted, Abs format (unit mm)*
G04 Created by KiCad (PCBNEW 7.0.10) date 2024-03-09 07:06:31*
%MOMM*%
%LPD*%
G01*
G04 APERTURE LIST*
%ADD10C,0.100000*%
%ADD11C,0.200000*%
G04 APERTURE END LIST*
D10*
X17500000Y-13400000D02*
X12700000Y-13400000D01*
X12700000Y-8250000D02*
X13300000Y-8250000D01*
X14250000Y-7790000D02*
G75*
G03*
X13930000Y-7790000I-160000J0D01*
G01*
X13930000Y-7790000D02*
G75*
G03*
X14250000Y-7790000I160000J0D01*
G01*
X17300000Y-13100000D02*
G75*
G03*
X16980000Y-13100000I-160000J0D01*
G01*
X16980000Y-13100000D02*
G75*
G03*
X17300000Y-13100000I160000J0D01*
G01*
X17500000Y-7400000D02*
X17500000Y-13400000D01*
X13300000Y-11250000D02*
X12700000Y-11250000D01*
X14340000Y-7660000D02*
X14340000Y-7400000D01*
X12700000Y-11250000D02*
X12700000Y-13400000D01*
X13200000Y-13091200D02*
G75*
G03*
X12880000Y-13091200I-160000J0D01*
G01*
X12880000Y-13091200D02*
G75*
G03*
X13200000Y-13091200I160000J0D01*
G01*
X17500000Y-7400000D02*
X15840000Y-7400000D01*
X13300000Y-8250000D02*
X13300000Y-11250000D01*
X15840000Y-7400000D02*
X15840000Y-7660000D01*
X12700000Y-7400000D02*
X14340000Y-7400000D01*
X12700000Y-7400000D02*
X12700000Y-8250000D01*
X15840000Y-7660000D02*
X14340000Y-7660000D01*
X16250000Y-7790000D02*
G75*
G03*
X15930000Y-7790000I-160000J0D01*
G01*
X15930000Y-7790000D02*
G75*
G03*
X16250000Y-7790000I160000J0D01*
G01*
D11*
D10*
X13368270Y-8983740D02*
X13391130Y-9006600D01*
X13391130Y-8983740D02*
X13368270Y-9006600D01*
X13607970Y-8993140D02*
X13630830Y-9016000D01*
X13630830Y-8993140D02*
X13607970Y-9016000D01*
X13648570Y-8133570D02*
X13671430Y-8156430D01*
X13671430Y-8133570D02*
X13648570Y-8156430D01*
X13667570Y-9053740D02*
X13690430Y-9076600D01*
X13690430Y-9053740D02*
X13667570Y-9076600D01*
X13668570Y-11016070D02*
X13691430Y-11038930D01*
X13691430Y-11016070D02*
X13668570Y-11038930D01*
X13691190Y-10384000D02*
X13714050Y-10406860D01*
X13714050Y-10384000D02*
X13691190Y-10406860D01*
X13736070Y-7721070D02*
X13758930Y-7743930D01*
X13758930Y-7721070D02*
X13736070Y-7743930D01*
X13825070Y-8752380D02*
X13847930Y-8775240D01*
X13847930Y-8752380D02*
X13825070Y-8775240D01*
X13898570Y-10766070D02*
X13921430Y-10788930D01*
X13921430Y-10766070D02*
X13898570Y-10788930D01*
X13991270Y-9441500D02*
X14014130Y-9464360D01*
X14014130Y-9441500D02*
X13991270Y-9464360D01*
X14001070Y-10778570D02*
X14023930Y-10801430D01*
X14023930Y-10778570D02*
X14001070Y-10801430D01*
X14057670Y-11446470D02*
X14080530Y-11469330D01*
X14080530Y-11446470D02*
X14057670Y-11469330D01*
X14070490Y-10390770D02*
X14093350Y-10413630D01*
X14093350Y-10390770D02*
X14070490Y-10413630D01*
X14081070Y-9136070D02*
X14103930Y-9158930D01*
X14103930Y-9136070D02*
X14081070Y-9158930D01*
X14102870Y-11077370D02*
X14125730Y-11100230D01*
X14125730Y-11077370D02*
X14102870Y-11100230D01*
X14118670Y-9436490D02*
X14141530Y-9459350D01*
X14141530Y-9436490D02*
X14118670Y-9459350D01*
X14168970Y-11419370D02*
X14191830Y-11442230D01*
X14191830Y-11419370D02*
X14168970Y-11442230D01*
X14231070Y-10828570D02*
X14253930Y-10851430D01*
X14253930Y-10828570D02*
X14231070Y-10851430D01*
X14285570Y-9473570D02*
X14308430Y-9496430D01*
X14308430Y-9473570D02*
X14285570Y-9496430D01*
X14306770Y-8980450D02*
X14329630Y-9003310D01*
X14329630Y-8980450D02*
X14306770Y-9003310D01*
X14364970Y-12212570D02*
X14387830Y-12235430D01*
X14387830Y-12212570D02*
X14364970Y-12235430D01*
X14402370Y-8742440D02*
X14425230Y-8765300D01*
X14425230Y-8742440D02*
X14402370Y-8765300D01*
X14443570Y-8361070D02*
X14466430Y-8383930D01*
X14466430Y-8361070D02*
X14443570Y-8383930D01*
X14526570Y-10265570D02*
X14549430Y-10288430D01*
X14549430Y-10265570D02*
X14526570Y-10288430D01*
X14538670Y-8551720D02*
X14561530Y-8574580D01*
X14561530Y-8551720D02*
X14538670Y-8574580D01*
X14540970Y-10789770D02*
X14563830Y-10812630D01*
X14563830Y-10789770D02*
X14540970Y-10812630D01*
X14541270Y-8730695D02*
X14564130Y-8753555D01*
X14564130Y-8730695D02*
X14541270Y-8753555D01*
X14559200Y-9821470D02*
X14582060Y-9844330D01*
X14582060Y-9821470D02*
X14559200Y-9844330D01*
X14566070Y-11337270D02*
X14588930Y-11360130D01*
X14588930Y-11337270D02*
X14566070Y-11360130D01*
X14573270Y-11147970D02*
X14596130Y-11170830D01*
X14596130Y-11147970D02*
X14573270Y-11170830D01*
X14580660Y-11403640D02*
X14603520Y-11426500D01*
X14603520Y-11403640D02*
X14580660Y-11426500D01*
X14726070Y-9178570D02*
X14748930Y-9201430D01*
X14748930Y-9178570D02*
X14726070Y-9201430D01*
X14736070Y-8746070D02*
X14758930Y-8768930D01*
X14758930Y-8746070D02*
X14736070Y-8768930D01*
X14750470Y-10374470D02*
X14773330Y-10397330D01*
X14773330Y-10374470D02*
X14750470Y-10397330D01*
X14862570Y-9016570D02*
X14885430Y-9039430D01*
X14885430Y-9016570D02*
X14862570Y-9039430D01*
X14903570Y-12636070D02*
X14926430Y-12658930D01*
X14926430Y-12636070D02*
X14903570Y-12658930D01*
X14916270Y-8907030D02*
X14939130Y-8929890D01*
X14939130Y-8907030D02*
X14916270Y-8929890D01*
X14936730Y-8038300D02*
X14959590Y-8061160D01*
X14959590Y-8038300D02*
X14936730Y-8061160D01*
X15015170Y-11537970D02*
X15038030Y-11560830D01*
X15038030Y-11537970D02*
X15015170Y-11560830D01*
X15039970Y-10447170D02*
X15062830Y-10470030D01*
X15062830Y-10447170D02*
X15039970Y-10470030D01*
X15073570Y-12643570D02*
X15096430Y-12666430D01*
X15096430Y-12643570D02*
X15073570Y-12666430D01*
X15149570Y-11007270D02*
X15172430Y-11030130D01*
X15172430Y-11007270D02*
X15149570Y-11030130D01*
X15253570Y-8891070D02*
X15276430Y-8913930D01*
X15276430Y-8891070D02*
X15253570Y-8913930D01*
X15362170Y-8688070D02*
X15385030Y-8710930D01*
X15385030Y-8688070D02*
X15362170Y-8710930D01*
X15369070Y-8521420D02*
X15391930Y-8544280D01*
X15391930Y-8521420D02*
X15369070Y-8544280D01*
X15384970Y-8825400D02*
X15407830Y-8848260D01*
X15407830Y-8825400D02*
X15384970Y-8848260D01*
X15418570Y-9546070D02*
X15441430Y-9568930D01*
X15441430Y-9546070D02*
X15418570Y-9568930D01*
X15420270Y-8604710D02*
X15443130Y-8627570D01*
X15443130Y-8604710D02*
X15420270Y-8627570D01*
X15421770Y-9147960D02*
X15444630Y-9170820D01*
X15444630Y-9147960D02*
X15421770Y-9170820D01*
X15553950Y-12638670D02*
X15576810Y-12661530D01*
X15576810Y-12638670D02*
X15553950Y-12661530D01*
X15678570Y-12631070D02*
X15701430Y-12653930D01*
X15701430Y-12631070D02*
X15678570Y-12653930D01*
X15695170Y-9052130D02*
X15718030Y-9074990D01*
X15718030Y-9052130D02*
X15695170Y-9074990D01*
X15711520Y-11986890D02*
X15734380Y-12009750D01*
X15734380Y-11986890D02*
X15711520Y-12009750D01*
X15756870Y-8309610D02*
X15779730Y-8332470D01*
X15779730Y-8309610D02*
X15756870Y-8332470D01*
X15768570Y-12627570D02*
X15791430Y-12650430D01*
X15791430Y-12627570D02*
X15768570Y-12650430D01*
X15832570Y-10394570D02*
X15855430Y-10417430D01*
X15855430Y-10394570D02*
X15832570Y-10417430D01*
X15855520Y-12035780D02*
X15878380Y-12058640D01*
X15878380Y-12035780D02*
X15855520Y-12058640D01*
X15903570Y-8711070D02*
X15926430Y-8733930D01*
X15926430Y-8711070D02*
X15903570Y-8733930D01*
X15930570Y-10338570D02*
X15953430Y-10361430D01*
X15953430Y-10338570D02*
X15930570Y-10361430D01*
X16070570Y-11049870D02*
X16093430Y-11072730D01*
X16093430Y-11049870D02*
X16070570Y-11072730D01*
X16087070Y-8589010D02*
X16109930Y-8611870D01*
X16109930Y-8589010D02*
X16087070Y-8611870D01*
X16087070Y-9315450D02*
X16109930Y-9338310D01*
X16109930Y-9315450D02*
X16087070Y-9338310D01*
X16098570Y-9878570D02*
X16121430Y-9901430D01*
X16121430Y-9878570D02*
X16098570Y-9901430D01*
X16101570Y-12879970D02*
X16124430Y-12902830D01*
X16124430Y-12879970D02*
X16101570Y-12902830D01*
X16210070Y-12878270D02*
X16232930Y-12901130D01*
X16232930Y-12878270D02*
X16210070Y-12901130D01*
X16211570Y-11903570D02*
X16234430Y-11926430D01*
X16234430Y-11903570D02*
X16211570Y-11926430D01*
X16236070Y-11491070D02*
X16258930Y-11513930D01*
X16258930Y-11491070D02*
X16236070Y-11513930D01*
X16303570Y-10631070D02*
X16326430Y-10653930D01*
X16326430Y-10631070D02*
X16303570Y-10653930D01*
X16304670Y-8849630D02*
X16327530Y-8872490D01*
X16327530Y-8849630D02*
X16304670Y-8872490D01*
X16320970Y-12878070D02*
X16343830Y-12900930D01*
X16343830Y-12878070D02*
X16320970Y-12900930D01*
X16324070Y-10978970D02*
X16346930Y-11001830D01*
X16346930Y-10978970D02*
X16324070Y-11001830D01*
X16367570Y-12922570D02*
X16390430Y-12945430D01*
X16390430Y-12922570D02*
X16367570Y-12945430D01*
X16371670Y-12367470D02*
X16394530Y-12390330D01*
X16394530Y-12367470D02*
X16371670Y-12390330D01*
X16376670Y-8982710D02*
X16399530Y-9005570D01*
X16399530Y-8982710D02*
X16376670Y-9005570D01*
X16424570Y-9346570D02*
X16447430Y-9369430D01*
X16447430Y-9346570D02*
X16424570Y-9369430D01*
X16468370Y-10923770D02*
X16491230Y-10946630D01*
X16491230Y-10923770D02*
X16468370Y-10946630D01*
X16509570Y-9022650D02*
X16532430Y-9045510D01*
X16532430Y-9022650D02*
X16509570Y-9045510D01*
X16509570Y-10789470D02*
X16532430Y-10812330D01*
X16532430Y-10789470D02*
X16509570Y-10812330D01*
X16544470Y-11955170D02*
X16567330Y-11978030D01*
X16567330Y-11955170D02*
X16544470Y-11978030D01*
X16566070Y-11758570D02*
X16588930Y-11781430D01*
X16588930Y-11758570D02*
X16566070Y-11781430D01*
X16589570Y-12168570D02*
X16612430Y-12191430D01*
X16612430Y-12168570D02*
X16589570Y-12191430D01*
X16657270Y-11671470D02*
X16680130Y-11694330D01*
X16680130Y-11671470D02*
X16657270Y-11694330D01*
X16676370Y-10227270D02*
X16699230Y-10250130D01*
X16699230Y-10227270D02*
X16676370Y-10250130D01*
X16692570Y-12629570D02*
X16715430Y-12652430D01*
X16715430Y-12629570D02*
X16692570Y-12652430D01*
X16694170Y-8822690D02*
X16717030Y-8845550D01*
X16717030Y-8822690D02*
X16694170Y-8845550D01*
X16704270Y-9762490D02*
X16727130Y-9785350D01*
X16727130Y-9762490D02*
X16704270Y-9785350D01*
X16724670Y-9046210D02*
X16747530Y-9069070D01*
X16747530Y-9046210D02*
X16724670Y-9069070D01*
X16789620Y-9436960D02*
X16812480Y-9459820D01*
X16812480Y-9436960D02*
X16789620Y-9459820D01*
X16795770Y-12369570D02*
X16818630Y-12392430D01*
X16818630Y-12369570D02*
X16795770Y-12392430D01*
X16950970Y-11119570D02*
X16973830Y-11142430D01*
X16973830Y-11119570D02*
X16950970Y-11142430D01*
X16988570Y-7793570D02*
X17011430Y-7816430D01*
X17011430Y-7793570D02*
X16988570Y-7816430D01*
X17146070Y-9433570D02*
X17168930Y-9456430D01*
X17168930Y-9433570D02*
X17146070Y-9456430D01*
X17175740Y-11672180D02*
X17198600Y-11695040D01*
X17198600Y-11672180D02*
X17175740Y-11695040D01*
X17203670Y-11098570D02*
X17226530Y-11121430D01*
X17226530Y-11098570D02*
X17203670Y-11121430D01*
X15945000Y-10601250D02*
G75*
G03*
X15915000Y-10601250I-15000J0D01*
G01*
X15915000Y-10601250D02*
G75*
G03*
X15945000Y-10601250I15000J0D01*
G01*
X16705000Y-10601250D02*
G75*
G03*
X16675000Y-10601250I-15000J0D01*
G01*
X16675000Y-10601250D02*
G75*
G03*
X16705000Y-10601250I15000J0D01*
G01*
X16850000Y-11935000D02*
G75*
G03*
X16820000Y-11935000I-15000J0D01*
G01*
X16820000Y-11935000D02*
G75*
G03*
X16850000Y-11935000I15000J0D01*
G01*
X16850000Y-12075000D02*
G75*
G03*
X16820000Y-12075000I-15000J0D01*
G01*
X16820000Y-12075000D02*
G75*
G03*
X16850000Y-12075000I15000J0D01*
G01*
X16990000Y-11935000D02*
G75*
G03*
X16960000Y-11935000I-15000J0D01*
G01*
X16960000Y-11935000D02*
G75*
G03*
X16990000Y-11935000I15000J0D01*
G01*
X16990000Y-12075000D02*
G75*
G03*
X16960000Y-12075000I-15000J0D01*
G01*
X16960000Y-12075000D02*
G75*
G03*
X16990000Y-12075000I15000J0D01*
G01*
X14104420Y-10806410D02*
X14104420Y-10836890D01*
X14089180Y-10821650D02*
X14119660Y-10821650D01*
X14225200Y-9311800D02*
X14225200Y-9342280D01*
X14209960Y-9327040D02*
X14240440Y-9327040D01*
X14832000Y-8849490D02*
X14832000Y-8879970D01*
X14816760Y-8864730D02*
X14847240Y-8864730D01*
X14990600Y-11276560D02*
X14990600Y-11307040D01*
X14975360Y-11291800D02*
X15005840Y-11291800D01*
X15414000Y-9649800D02*
X15414000Y-9680280D01*
X15398760Y-9665040D02*
X15429240Y-9665040D01*
X15450200Y-9284670D02*
X15450200Y-9315150D01*
X15434960Y-9299910D02*
X15465440Y-9299910D01*
X15450200Y-9881460D02*
X15450200Y-9911940D01*
X15434960Y-9896700D02*
X15465440Y-9896700D01*
X15627100Y-10160260D02*
X15627100Y-10190740D01*
X15611860Y-10175500D02*
X15642340Y-10175500D01*
X15879100Y-9202510D02*
X15879100Y-9232990D01*
X15863860Y-9217750D02*
X15894340Y-9217750D01*
X16075000Y-12174760D02*
X16075000Y-12205240D01*
X16059760Y-12190000D02*
X16090240Y-12190000D01*
X16185000Y-9947260D02*
X16185000Y-9977740D01*
X16169760Y-9962500D02*
X16200240Y-9962500D01*
X16208100Y-11224160D02*
X16208100Y-11254640D01*
X16192860Y-11239400D02*
X16223340Y-11239400D01*
X16472400Y-11059260D02*
X16472400Y-11089740D01*
X16457160Y-11074500D02*
X16487640Y-11074500D01*
X16830790Y-10411430D02*
X16830790Y-10441910D01*
X16815550Y-10426670D02*
X16846030Y-10426670D01*
X17104180Y-12203590D02*
X17104180Y-12234070D01*
X17088940Y-12218830D02*
X17119420Y-12218830D01*
X15447642Y-12846342D02*
X15447642Y-12818058D01*
X15419358Y-12818058D01*
X15419358Y-12846342D01*
X15447642Y-12846342D01*
X16088142Y-12609142D02*
X16088142Y-12580858D01*
X16059858Y-12580858D01*
X16059858Y-12609142D01*
X16088142Y-12609142D01*
X16919142Y-12019142D02*
X16919142Y-11990858D01*
X16890858Y-11990858D01*
X16890858Y-12019142D01*
X16919142Y-12019142D01*
X15778000Y-12851000D02*
X15808000Y-12821000D01*
X15778000Y-12791000D01*
X15748000Y-12821000D01*
X15778000Y-12851000D01*
X15748000Y-12766000D02*
X15748000Y-12876000D01*
X15748000Y-12876000D02*
G75*
G03*
X15808000Y-12876000I30000J0D01*
G01*
X15808000Y-12876000D02*
X15808000Y-12766000D01*
X15808000Y-12766000D02*
G75*
G03*
X15748000Y-12766000I-30000J0D01*
G01*
X15778000Y-13269000D02*
X15808000Y-13239000D01*
X15778000Y-13209000D01*
X15748000Y-13239000D01*
X15778000Y-13269000D01*
X15748000Y-13199000D02*
X15748000Y-13279000D01*
X15748000Y-13279000D02*
G75*
G03*
X15808000Y-13279000I30000J0D01*
G01*
X15808000Y-13279000D02*
X15808000Y-13199000D01*
X15808000Y-13199000D02*
G75*
G03*
X15748000Y-13199000I-30000J0D01*
G01*
X16642000Y-12851000D02*
X16672000Y-12821000D01*
X16642000Y-12791000D01*
X16612000Y-12821000D01*
X16642000Y-12851000D01*
X16612000Y-12766000D02*
X16612000Y-12876000D01*
X16612000Y-12876000D02*
G75*
G03*
X16672000Y-12876000I30000J0D01*
G01*
X16672000Y-12876000D02*
X16672000Y-12766000D01*
X16672000Y-12766000D02*
G75*
G03*
X16612000Y-12766000I-30000J0D01*
G01*
X16642000Y-13269000D02*
X16672000Y-13239000D01*
X16642000Y-13209000D01*
X16612000Y-13239000D01*
X16642000Y-13269000D01*
X16612000Y-13199000D02*
X16612000Y-13279000D01*
X16612000Y-13279000D02*
G75*
G03*
X16672000Y-13279000I30000J0D01*
G01*
X16672000Y-13279000D02*
X16672000Y-13199000D01*
X16672000Y-13199000D02*
G75*
G03*
X16612000Y-13199000I-30000J0D01*
G01*
X14678900Y-8252350D02*
X14755100Y-8328550D01*
X14755100Y-8252350D02*
X14678900Y-8328550D01*
X14755100Y-8290450D02*
G75*
G03*
X14678900Y-8290450I-38100J0D01*
G01*
X14678900Y-8290450D02*
G75*
G03*
X14755100Y-8290450I38100J0D01*
G01*
X15053550Y-8252350D02*
X15129750Y-8328550D01*
X15129750Y-8252350D02*
X15053550Y-8328550D01*
X15129750Y-8290450D02*
G75*
G03*
X15053550Y-8290450I-38100J0D01*
G01*
X15053550Y-8290450D02*
G75*
G03*
X15129750Y-8290450I38100J0D01*
G01*
X15434550Y-8252350D02*
X15510750Y-8328550D01*
X15510750Y-8252350D02*
X15434550Y-8328550D01*
X15510750Y-8290450D02*
G75*
G03*
X15434550Y-8290450I-38100J0D01*
G01*
X15434550Y-8290450D02*
G75*
G03*
X15510750Y-8290450I38100J0D01*
G01*
X13690000Y-12075000D02*
X13790000Y-12175000D01*
X13790000Y-12075000D02*
X13690000Y-12175000D01*
X13740000Y-12075000D02*
X13740000Y-12175000D01*
X13690000Y-12125000D02*
X13790000Y-12125000D01*
X13615000Y-12175000D02*
X13865000Y-12175000D01*
X13865000Y-12175000D02*
G75*
G03*
X13865000Y-12075000I0J50000D01*
G01*
X13865000Y-12075000D02*
X13615000Y-12075000D01*
X13615000Y-12075000D02*
G75*
G03*
X13615000Y-12175000I0J-50000D01*
G01*
X13690000Y-12675000D02*
X13790000Y-12775000D01*
X13790000Y-12675000D02*
X13690000Y-12775000D01*
X13740000Y-12675000D02*
X13740000Y-12775000D01*
X13690000Y-12725000D02*
X13790000Y-12725000D01*
X13640000Y-12775000D02*
X13840000Y-12775000D01*
X13840000Y-12775000D02*
G75*
G03*
X13840000Y-12675000I0J50000D01*
G01*
X13840000Y-12675000D02*
X13640000Y-12675000D01*
X13640000Y-12675000D02*
G75*
G03*
X13640000Y-12775000I0J-50000D01*
G01*
X14160000Y-12375000D02*
X14260000Y-12475000D01*
X14260000Y-12375000D02*
X14160000Y-12475000D01*
X14210000Y-12375000D02*
X14210000Y-12475000D01*
X14160000Y-12425000D02*
X14260000Y-12425000D01*
X14160000Y-12325000D02*
X14160000Y-12525000D01*
X14160000Y-12525000D02*
G75*
G03*
X14260000Y-12525000I50000J0D01*
G01*
X14260000Y-12525000D02*
X14260000Y-12325000D01*
X14260000Y-12325000D02*
G75*
G03*
X14160000Y-12325000I-50000J0D01*
G01*
X17240000Y-8778000D02*
X17340000Y-8878000D01*
X17340000Y-8778000D02*
X17240000Y-8878000D01*
X17290000Y-8778000D02*
X17290000Y-8878000D01*
X17240000Y-8828000D02*
X17340000Y-8828000D01*
X17240000Y-9032000D02*
X17340000Y-9132000D01*
X17340000Y-9032000D02*
X17240000Y-9132000D01*
X17290000Y-9032000D02*
X17290000Y-9132000D01*
X17240000Y-9082000D02*
X17340000Y-9082000D01*
X17240000Y-9286000D02*
X17340000Y-9386000D01*
X17340000Y-9286000D02*
X17240000Y-9386000D01*
X17290000Y-9286000D02*
X17290000Y-9386000D01*
X17240000Y-9336000D02*
X17340000Y-9336000D01*
X17240000Y-9540000D02*
X17340000Y-9640000D01*
X17340000Y-9540000D02*
X17240000Y-9640000D01*
X17290000Y-9540000D02*
X17290000Y-9640000D01*
X17240000Y-9590000D02*
X17340000Y-9590000D01*
X17240000Y-9794000D02*
X17340000Y-9894000D01*
X17340000Y-9794000D02*
X17240000Y-9894000D01*
X17290000Y-9794000D02*
X17290000Y-9894000D01*
X17240000Y-9844000D02*
X17340000Y-9844000D01*
X17240000Y-10048000D02*
X17340000Y-10148000D01*
X17340000Y-10048000D02*
X17240000Y-10148000D01*
X17290000Y-10048000D02*
X17290000Y-10148000D01*
X17240000Y-10098000D02*
X17340000Y-10098000D01*
X17240000Y-10302000D02*
X17340000Y-10402000D01*
X17340000Y-10302000D02*
X17240000Y-10402000D01*
X17290000Y-10302000D02*
X17290000Y-10402000D01*
X17240000Y-10352000D02*
X17340000Y-10352000D01*
X17240000Y-10556000D02*
X17340000Y-10656000D01*
X17340000Y-10556000D02*
X17240000Y-10656000D01*
X17290000Y-10556000D02*
X17290000Y-10656000D01*
X17240000Y-10606000D02*
X17340000Y-10606000D01*
D11*
X12955777Y-13716484D02*
X12955777Y-13516484D01*
X12955777Y-13516484D02*
X13003396Y-13516484D01*
X13003396Y-13516484D02*
X13031967Y-13526008D01*
X13031967Y-13526008D02*
X13051015Y-13545055D01*
X13051015Y-13545055D02*
X13060539Y-13564103D01*
X13060539Y-13564103D02*
X13070062Y-13602198D01*
X13070062Y-13602198D02*
X13070062Y-13630769D01*
X13070062Y-13630769D02*
X13060539Y-13668865D01*
X13060539Y-13668865D02*
X13051015Y-13687912D01*
X13051015Y-13687912D02*
X13031967Y-13706960D01*
X13031967Y-13706960D02*
X13003396Y-13716484D01*
X13003396Y-13716484D02*
X12955777Y-13716484D01*
X13155777Y-13716484D02*
X13155777Y-13583150D01*
X13155777Y-13621246D02*
X13165301Y-13602198D01*
X13165301Y-13602198D02*
X13174824Y-13592674D01*
X13174824Y-13592674D02*
X13193872Y-13583150D01*
X13193872Y-13583150D02*
X13212920Y-13583150D01*
X13279586Y-13716484D02*
X13279586Y-13583150D01*
X13279586Y-13516484D02*
X13270062Y-13526008D01*
X13270062Y-13526008D02*
X13279586Y-13535531D01*
X13279586Y-13535531D02*
X13289110Y-13526008D01*
X13289110Y-13526008D02*
X13279586Y-13516484D01*
X13279586Y-13516484D02*
X13279586Y-13535531D01*
X13403396Y-13716484D02*
X13384348Y-13706960D01*
X13384348Y-13706960D02*
X13374824Y-13687912D01*
X13374824Y-13687912D02*
X13374824Y-13516484D01*
X13508158Y-13716484D02*
X13489110Y-13706960D01*
X13489110Y-13706960D02*
X13479586Y-13687912D01*
X13479586Y-13687912D02*
X13479586Y-13516484D01*
X13736729Y-13716484D02*
X13736729Y-13516484D01*
X13736729Y-13516484D02*
X13803396Y-13659341D01*
X13803396Y-13659341D02*
X13870062Y-13516484D01*
X13870062Y-13516484D02*
X13870062Y-13716484D01*
X14051015Y-13716484D02*
X14051015Y-13611722D01*
X14051015Y-13611722D02*
X14041491Y-13592674D01*
X14041491Y-13592674D02*
X14022443Y-13583150D01*
X14022443Y-13583150D02*
X13984348Y-13583150D01*
X13984348Y-13583150D02*
X13965301Y-13592674D01*
X14051015Y-13706960D02*
X14031967Y-13716484D01*
X14031967Y-13716484D02*
X13984348Y-13716484D01*
X13984348Y-13716484D02*
X13965301Y-13706960D01*
X13965301Y-13706960D02*
X13955777Y-13687912D01*
X13955777Y-13687912D02*
X13955777Y-13668865D01*
X13955777Y-13668865D02*
X13965301Y-13649817D01*
X13965301Y-13649817D02*
X13984348Y-13640293D01*
X13984348Y-13640293D02*
X14031967Y-13640293D01*
X14031967Y-13640293D02*
X14051015Y-13630769D01*
X14146253Y-13583150D02*
X14146253Y-13783150D01*
X14146253Y-13592674D02*
X14165301Y-13583150D01*
X14165301Y-13583150D02*
X14203396Y-13583150D01*
X14203396Y-13583150D02*
X14222443Y-13592674D01*
X14222443Y-13592674D02*
X14231967Y-13602198D01*
X14231967Y-13602198D02*
X14241491Y-13621246D01*
X14241491Y-13621246D02*
X14241491Y-13678388D01*
X14241491Y-13678388D02*
X14231967Y-13697436D01*
X14231967Y-13697436D02*
X14222443Y-13706960D01*
X14222443Y-13706960D02*
X14203396Y-13716484D01*
X14203396Y-13716484D02*
X14165301Y-13716484D01*
X14165301Y-13716484D02*
X14146253Y-13706960D01*
X14327205Y-13697436D02*
X14336729Y-13706960D01*
X14336729Y-13706960D02*
X14327205Y-13716484D01*
X14327205Y-13716484D02*
X14317682Y-13706960D01*
X14317682Y-13706960D02*
X14327205Y-13697436D01*
X14327205Y-13697436D02*
X14327205Y-13716484D01*
X14327205Y-13592674D02*
X14336729Y-13602198D01*
X14336729Y-13602198D02*
X14327205Y-13611722D01*
X14327205Y-13611722D02*
X14317682Y-13602198D01*
X14317682Y-13602198D02*
X14327205Y-13592674D01*
X14327205Y-13592674D02*
X14327205Y-13611722D01*
D10*
X12672140Y-14033570D02*
X12695000Y-14056430D01*
X12695000Y-14033570D02*
X12672140Y-14056430D01*
D11*
X12993872Y-13936484D02*
X13012920Y-13936484D01*
X13012920Y-13936484D02*
X13031967Y-13946008D01*
X13031967Y-13946008D02*
X13041491Y-13955531D01*
X13041491Y-13955531D02*
X13051015Y-13974579D01*
X13051015Y-13974579D02*
X13060539Y-14012674D01*
X13060539Y-14012674D02*
X13060539Y-14060293D01*
X13060539Y-14060293D02*
X13051015Y-14098388D01*
X13051015Y-14098388D02*
X13041491Y-14117436D01*
X13041491Y-14117436D02*
X13031967Y-14126960D01*
X13031967Y-14126960D02*
X13012920Y-14136484D01*
X13012920Y-14136484D02*
X12993872Y-14136484D01*
X12993872Y-14136484D02*
X12974824Y-14126960D01*
X12974824Y-14126960D02*
X12965301Y-14117436D01*
X12965301Y-14117436D02*
X12955777Y-14098388D01*
X12955777Y-14098388D02*
X12946253Y-14060293D01*
X12946253Y-14060293D02*
X12946253Y-14012674D01*
X12946253Y-14012674D02*
X12955777Y-13974579D01*
X12955777Y-13974579D02*
X12965301Y-13955531D01*
X12965301Y-13955531D02*
X12974824Y-13946008D01*
X12974824Y-13946008D02*
X12993872Y-13936484D01*
X13146253Y-14117436D02*
X13155777Y-14126960D01*
X13155777Y-14126960D02*
X13146253Y-14136484D01*
X13146253Y-14136484D02*
X13136729Y-14126960D01*
X13136729Y-14126960D02*
X13146253Y-14117436D01*
X13146253Y-14117436D02*
X13146253Y-14136484D01*
X13231967Y-13955531D02*
X13241491Y-13946008D01*
X13241491Y-13946008D02*
X13260539Y-13936484D01*
X13260539Y-13936484D02*
X13308158Y-13936484D01*
X13308158Y-13936484D02*
X13327205Y-13946008D01*
X13327205Y-13946008D02*
X13336729Y-13955531D01*
X13336729Y-13955531D02*
X13346253Y-13974579D01*
X13346253Y-13974579D02*
X13346253Y-13993627D01*
X13346253Y-13993627D02*
X13336729Y-14022198D01*
X13336729Y-14022198D02*
X13222443Y-14136484D01*
X13222443Y-14136484D02*
X13346253Y-14136484D01*
X13422443Y-13955531D02*
X13431967Y-13946008D01*
X13431967Y-13946008D02*
X13451015Y-13936484D01*
X13451015Y-13936484D02*
X13498634Y-13936484D01*
X13498634Y-13936484D02*
X13517682Y-13946008D01*
X13517682Y-13946008D02*
X13527205Y-13955531D01*
X13527205Y-13955531D02*
X13536729Y-13974579D01*
X13536729Y-13974579D02*
X13536729Y-13993627D01*
X13536729Y-13993627D02*
X13527205Y-14022198D01*
X13527205Y-14022198D02*
X13412920Y-14136484D01*
X13412920Y-14136484D02*
X13536729Y-14136484D01*
X13631967Y-14136484D02*
X13670062Y-14136484D01*
X13670062Y-14136484D02*
X13689110Y-14126960D01*
X13689110Y-14126960D02*
X13698634Y-14117436D01*
X13698634Y-14117436D02*
X13717682Y-14088865D01*
X13717682Y-14088865D02*
X13727205Y-14050769D01*
X13727205Y-14050769D02*
X13727205Y-13974579D01*
X13727205Y-13974579D02*
X13717682Y-13955531D01*
X13717682Y-13955531D02*
X13708158Y-13946008D01*
X13708158Y-13946008D02*
X13689110Y-13936484D01*
X13689110Y-13936484D02*
X13651015Y-13936484D01*
X13651015Y-13936484D02*
X13631967Y-13946008D01*
X13631967Y-13946008D02*
X13622443Y-13955531D01*
X13622443Y-13955531D02*
X13612920Y-13974579D01*
X13612920Y-13974579D02*
X13612920Y-14022198D01*
X13612920Y-14022198D02*
X13622443Y-14041246D01*
X13622443Y-14041246D02*
X13631967Y-14050769D01*
X13631967Y-14050769D02*
X13651015Y-14060293D01*
X13651015Y-14060293D02*
X13689110Y-14060293D01*
X13689110Y-14060293D02*
X13708158Y-14050769D01*
X13708158Y-14050769D02*
X13717682Y-14041246D01*
X13717682Y-14041246D02*
X13727205Y-14022198D01*
X13812920Y-14136484D02*
X13812920Y-14003150D01*
X13812920Y-14022198D02*
X13822443Y-14012674D01*
X13822443Y-14012674D02*
X13841491Y-14003150D01*
X13841491Y-14003150D02*
X13870063Y-14003150D01*
X13870063Y-14003150D02*
X13889110Y-14012674D01*
X13889110Y-14012674D02*
X13898634Y-14031722D01*
X13898634Y-14031722D02*
X13898634Y-14136484D01*
X13898634Y-14031722D02*
X13908158Y-14012674D01*
X13908158Y-14012674D02*
X13927205Y-14003150D01*
X13927205Y-14003150D02*
X13955777Y-14003150D01*
X13955777Y-14003150D02*
X13974824Y-14012674D01*
X13974824Y-14012674D02*
X13984348Y-14031722D01*
X13984348Y-14031722D02*
X13984348Y-14136484D01*
X14079586Y-14136484D02*
X14079586Y-14003150D01*
X14079586Y-14022198D02*
X14089110Y-14012674D01*
X14089110Y-14012674D02*
X14108158Y-14003150D01*
X14108158Y-14003150D02*
X14136729Y-14003150D01*
X14136729Y-14003150D02*
X14155777Y-14012674D01*
X14155777Y-14012674D02*
X14165301Y-14031722D01*
X14165301Y-14031722D02*
X14165301Y-14136484D01*
X14165301Y-14031722D02*
X14174824Y-14012674D01*
X14174824Y-14012674D02*
X14193872Y-14003150D01*
X14193872Y-14003150D02*
X14222443Y-14003150D01*
X14222443Y-14003150D02*
X14241491Y-14012674D01*
X14241491Y-14012674D02*
X14251015Y-14031722D01*
X14251015Y-14031722D02*
X14251015Y-14136484D01*
X14641491Y-13926960D02*
X14470063Y-14184103D01*
X14898634Y-13936484D02*
X14917682Y-13936484D01*
X14917682Y-13936484D02*
X14936729Y-13946008D01*
X14936729Y-13946008D02*
X14946253Y-13955531D01*
X14946253Y-13955531D02*
X14955777Y-13974579D01*
X14955777Y-13974579D02*
X14965301Y-14012674D01*
X14965301Y-14012674D02*
X14965301Y-14060293D01*
X14965301Y-14060293D02*
X14955777Y-14098388D01*
X14955777Y-14098388D02*
X14946253Y-14117436D01*
X14946253Y-14117436D02*
X14936729Y-14126960D01*
X14936729Y-14126960D02*
X14917682Y-14136484D01*
X14917682Y-14136484D02*
X14898634Y-14136484D01*
X14898634Y-14136484D02*
X14879586Y-14126960D01*
X14879586Y-14126960D02*
X14870063Y-14117436D01*
X14870063Y-14117436D02*
X14860539Y-14098388D01*
X14860539Y-14098388D02*
X14851015Y-14060293D01*
X14851015Y-14060293D02*
X14851015Y-14012674D01*
X14851015Y-14012674D02*
X14860539Y-13974579D01*
X14860539Y-13974579D02*
X14870063Y-13955531D01*
X14870063Y-13955531D02*
X14879586Y-13946008D01*
X14879586Y-13946008D02*
X14898634Y-13936484D01*
X15051015Y-14117436D02*
X15060539Y-14126960D01*
X15060539Y-14126960D02*
X15051015Y-14136484D01*
X15051015Y-14136484D02*
X15041491Y-14126960D01*
X15041491Y-14126960D02*
X15051015Y-14117436D01*
X15051015Y-14117436D02*
X15051015Y-14136484D01*
X15184348Y-13936484D02*
X15203396Y-13936484D01*
X15203396Y-13936484D02*
X15222444Y-13946008D01*
X15222444Y-13946008D02*
X15231967Y-13955531D01*
X15231967Y-13955531D02*
X15241491Y-13974579D01*
X15241491Y-13974579D02*
X15251015Y-14012674D01*
X15251015Y-14012674D02*
X15251015Y-14060293D01*
X15251015Y-14060293D02*
X15241491Y-14098388D01*
X15241491Y-14098388D02*
X15231967Y-14117436D01*
X15231967Y-14117436D02*
X15222444Y-14126960D01*
X15222444Y-14126960D02*
X15203396Y-14136484D01*
X15203396Y-14136484D02*
X15184348Y-14136484D01*
X15184348Y-14136484D02*
X15165301Y-14126960D01*
X15165301Y-14126960D02*
X15155777Y-14117436D01*
X15155777Y-14117436D02*
X15146253Y-14098388D01*
X15146253Y-14098388D02*
X15136729Y-14060293D01*
X15136729Y-14060293D02*
X15136729Y-14012674D01*
X15136729Y-14012674D02*
X15146253Y-13974579D01*
X15146253Y-13974579D02*
X15155777Y-13955531D01*
X15155777Y-13955531D02*
X15165301Y-13946008D01*
X15165301Y-13946008D02*
X15184348Y-13936484D01*
X15374825Y-13936484D02*
X15393872Y-13936484D01*
X15393872Y-13936484D02*
X15412920Y-13946008D01*
X15412920Y-13946008D02*
X15422444Y-13955531D01*
X15422444Y-13955531D02*
X15431967Y-13974579D01*
X15431967Y-13974579D02*
X15441491Y-14012674D01*
X15441491Y-14012674D02*
X15441491Y-14060293D01*
X15441491Y-14060293D02*
X15431967Y-14098388D01*
X15431967Y-14098388D02*
X15422444Y-14117436D01*
X15422444Y-14117436D02*
X15412920Y-14126960D01*
X15412920Y-14126960D02*
X15393872Y-14136484D01*
X15393872Y-14136484D02*
X15374825Y-14136484D01*
X15374825Y-14136484D02*
X15355777Y-14126960D01*
X15355777Y-14126960D02*
X15346253Y-14117436D01*
X15346253Y-14117436D02*
X15336729Y-14098388D01*
X15336729Y-14098388D02*
X15327206Y-14060293D01*
X15327206Y-14060293D02*
X15327206Y-14012674D01*
X15327206Y-14012674D02*
X15336729Y-13974579D01*
X15336729Y-13974579D02*
X15346253Y-13955531D01*
X15346253Y-13955531D02*
X15355777Y-13946008D01*
X15355777Y-13946008D02*
X15374825Y-13936484D01*
X15536729Y-14136484D02*
X15574825Y-14136484D01*
X15574825Y-14136484D02*
X15593872Y-14126960D01*
X15593872Y-14126960D02*
X15603396Y-14117436D01*
X15603396Y-14117436D02*
X15622444Y-14088865D01*
X15622444Y-14088865D02*
X15631967Y-14050769D01*
X15631967Y-14050769D02*
X15631967Y-13974579D01*
X15631967Y-13974579D02*
X15622444Y-13955531D01*
X15622444Y-13955531D02*
X15612920Y-13946008D01*
X15612920Y-13946008D02*
X15593872Y-13936484D01*
X15593872Y-13936484D02*
X15555777Y-13936484D01*
X15555777Y-13936484D02*
X15536729Y-13946008D01*
X15536729Y-13946008D02*
X15527206Y-13955531D01*
X15527206Y-13955531D02*
X15517682Y-13974579D01*
X15517682Y-13974579D02*
X15517682Y-14022198D01*
X15517682Y-14022198D02*
X15527206Y-14041246D01*
X15527206Y-14041246D02*
X15536729Y-14050769D01*
X15536729Y-14050769D02*
X15555777Y-14060293D01*
X15555777Y-14060293D02*
X15593872Y-14060293D01*
X15593872Y-14060293D02*
X15612920Y-14050769D01*
X15612920Y-14050769D02*
X15622444Y-14041246D01*
X15622444Y-14041246D02*
X15631967Y-14022198D01*
X15755777Y-13936484D02*
X15774825Y-13936484D01*
X15774825Y-13936484D02*
X15793872Y-13946008D01*
X15793872Y-13946008D02*
X15803396Y-13955531D01*
X15803396Y-13955531D02*
X15812920Y-13974579D01*
X15812920Y-13974579D02*
X15822444Y-14012674D01*
X15822444Y-14012674D02*
X15822444Y-14060293D01*
X15822444Y-14060293D02*
X15812920Y-14098388D01*
X15812920Y-14098388D02*
X15803396Y-14117436D01*
X15803396Y-14117436D02*
X15793872Y-14126960D01*
X15793872Y-14126960D02*
X15774825Y-14136484D01*
X15774825Y-14136484D02*
X15755777Y-14136484D01*
X15755777Y-14136484D02*
X15736729Y-14126960D01*
X15736729Y-14126960D02*
X15727206Y-14117436D01*
X15727206Y-14117436D02*
X15717682Y-14098388D01*
X15717682Y-14098388D02*
X15708158Y-14060293D01*
X15708158Y-14060293D02*
X15708158Y-14012674D01*
X15708158Y-14012674D02*
X15717682Y-13974579D01*
X15717682Y-13974579D02*
X15727206Y-13955531D01*
X15727206Y-13955531D02*
X15736729Y-13946008D01*
X15736729Y-13946008D02*
X15755777Y-13936484D01*
X15898634Y-13936484D02*
X15898634Y-13974579D01*
X15974825Y-13936484D02*
X15974825Y-13974579D01*
X16270063Y-14212674D02*
X16260539Y-14203150D01*
X16260539Y-14203150D02*
X16241491Y-14174579D01*
X16241491Y-14174579D02*
X16231968Y-14155531D01*
X16231968Y-14155531D02*
X16222444Y-14126960D01*
X16222444Y-14126960D02*
X16212920Y-14079341D01*
X16212920Y-14079341D02*
X16212920Y-14041246D01*
X16212920Y-14041246D02*
X16222444Y-13993627D01*
X16222444Y-13993627D02*
X16231968Y-13965055D01*
X16231968Y-13965055D02*
X16241491Y-13946008D01*
X16241491Y-13946008D02*
X16260539Y-13917436D01*
X16260539Y-13917436D02*
X16270063Y-13907912D01*
X16355777Y-14136484D02*
X16393872Y-14136484D01*
X16393872Y-14136484D02*
X16412920Y-14126960D01*
X16412920Y-14126960D02*
X16422444Y-14117436D01*
X16422444Y-14117436D02*
X16441491Y-14088865D01*
X16441491Y-14088865D02*
X16451015Y-14050769D01*
X16451015Y-14050769D02*
X16451015Y-13974579D01*
X16451015Y-13974579D02*
X16441491Y-13955531D01*
X16441491Y-13955531D02*
X16431968Y-13946008D01*
X16431968Y-13946008D02*
X16412920Y-13936484D01*
X16412920Y-13936484D02*
X16374825Y-13936484D01*
X16374825Y-13936484D02*
X16355777Y-13946008D01*
X16355777Y-13946008D02*
X16346253Y-13955531D01*
X16346253Y-13955531D02*
X16336729Y-13974579D01*
X16336729Y-13974579D02*
X16336729Y-14022198D01*
X16336729Y-14022198D02*
X16346253Y-14041246D01*
X16346253Y-14041246D02*
X16355777Y-14050769D01*
X16355777Y-14050769D02*
X16374825Y-14060293D01*
X16374825Y-14060293D02*
X16412920Y-14060293D01*
X16412920Y-14060293D02*
X16431968Y-14050769D01*
X16431968Y-14050769D02*
X16441491Y-14041246D01*
X16441491Y-14041246D02*
X16451015Y-14022198D01*
X16622444Y-14003150D02*
X16622444Y-14136484D01*
X16574825Y-13926960D02*
X16527206Y-14069817D01*
X16527206Y-14069817D02*
X16651015Y-14069817D01*
X16879587Y-14136484D02*
X16879587Y-13936484D01*
X16965301Y-14136484D02*
X16965301Y-14031722D01*
X16965301Y-14031722D02*
X16955777Y-14012674D01*
X16955777Y-14012674D02*
X16936730Y-14003150D01*
X16936730Y-14003150D02*
X16908158Y-14003150D01*
X16908158Y-14003150D02*
X16889111Y-14012674D01*
X16889111Y-14012674D02*
X16879587Y-14022198D01*
X17089111Y-14136484D02*
X17070063Y-14126960D01*
X17070063Y-14126960D02*
X17060539Y-14117436D01*
X17060539Y-14117436D02*
X17051015Y-14098388D01*
X17051015Y-14098388D02*
X17051015Y-14041246D01*
X17051015Y-14041246D02*
X17060539Y-14022198D01*
X17060539Y-14022198D02*
X17070063Y-14012674D01*
X17070063Y-14012674D02*
X17089111Y-14003150D01*
X17089111Y-14003150D02*
X17117682Y-14003150D01*
X17117682Y-14003150D02*
X17136730Y-14012674D01*
X17136730Y-14012674D02*
X17146253Y-14022198D01*
X17146253Y-14022198D02*
X17155777Y-14041246D01*
X17155777Y-14041246D02*
X17155777Y-14098388D01*
X17155777Y-14098388D02*
X17146253Y-14117436D01*
X17146253Y-14117436D02*
X17136730Y-14126960D01*
X17136730Y-14126960D02*
X17117682Y-14136484D01*
X17117682Y-14136484D02*
X17089111Y-14136484D01*
X17270063Y-14136484D02*
X17251015Y-14126960D01*
X17251015Y-14126960D02*
X17241492Y-14107912D01*
X17241492Y-14107912D02*
X17241492Y-13936484D01*
X17422444Y-14126960D02*
X17403396Y-14136484D01*
X17403396Y-14136484D02*
X17365301Y-14136484D01*
X17365301Y-14136484D02*
X17346253Y-14126960D01*
X17346253Y-14126960D02*
X17336730Y-14107912D01*
X17336730Y-14107912D02*
X17336730Y-14031722D01*
X17336730Y-14031722D02*
X17346253Y-14012674D01*
X17346253Y-14012674D02*
X17365301Y-14003150D01*
X17365301Y-14003150D02*
X17403396Y-14003150D01*
X17403396Y-14003150D02*
X17422444Y-14012674D01*
X17422444Y-14012674D02*
X17431968Y-14031722D01*
X17431968Y-14031722D02*
X17431968Y-14050769D01*
X17431968Y-14050769D02*
X17336730Y-14069817D01*
X17508158Y-14126960D02*
X17527206Y-14136484D01*
X17527206Y-14136484D02*
X17565301Y-14136484D01*
X17565301Y-14136484D02*
X17584349Y-14126960D01*
X17584349Y-14126960D02*
X17593873Y-14107912D01*
X17593873Y-14107912D02*
X17593873Y-14098388D01*
X17593873Y-14098388D02*
X17584349Y-14079341D01*
X17584349Y-14079341D02*
X17565301Y-14069817D01*
X17565301Y-14069817D02*
X17536730Y-14069817D01*
X17536730Y-14069817D02*
X17517682Y-14060293D01*
X17517682Y-14060293D02*
X17508158Y-14041246D01*
X17508158Y-14041246D02*
X17508158Y-14031722D01*
X17508158Y-14031722D02*
X17517682Y-14012674D01*
X17517682Y-14012674D02*
X17536730Y-14003150D01*
X17536730Y-14003150D02*
X17565301Y-14003150D01*
X17565301Y-14003150D02*
X17584349Y-14012674D01*
X17660539Y-14212674D02*
X17670063Y-14203150D01*
X17670063Y-14203150D02*
X17689111Y-14174579D01*
X17689111Y-14174579D02*
X17698634Y-14155531D01*
X17698634Y-14155531D02*
X17708158Y-14126960D01*
X17708158Y-14126960D02*
X17717682Y-14079341D01*
X17717682Y-14079341D02*
X17717682Y-14041246D01*
X17717682Y-14041246D02*
X17708158Y-13993627D01*
X17708158Y-13993627D02*
X17698634Y-13965055D01*
X17698634Y-13965055D02*
X17689111Y-13946008D01*
X17689111Y-13946008D02*
X17670063Y-13917436D01*
X17670063Y-13917436D02*
X17660539Y-13907912D01*
D10*
X12695000Y-14309000D02*
G75*
G03*
X12665000Y-14309000I-15000J0D01*
G01*
X12665000Y-14309000D02*
G75*
G03*
X12695000Y-14309000I15000J0D01*
G01*
D11*
X12993872Y-14200484D02*
X13012920Y-14200484D01*
X13012920Y-14200484D02*
X13031967Y-14210008D01*
X13031967Y-14210008D02*
X13041491Y-14219531D01*
X13041491Y-14219531D02*
X13051015Y-14238579D01*
X13051015Y-14238579D02*
X13060539Y-14276674D01*
X13060539Y-14276674D02*
X13060539Y-14324293D01*
X13060539Y-14324293D02*
X13051015Y-14362388D01*
X13051015Y-14362388D02*
X13041491Y-14381436D01*
X13041491Y-14381436D02*
X13031967Y-14390960D01*
X13031967Y-14390960D02*
X13012920Y-14400484D01*
X13012920Y-14400484D02*
X12993872Y-14400484D01*
X12993872Y-14400484D02*
X12974824Y-14390960D01*
X12974824Y-14390960D02*
X12965301Y-14381436D01*
X12965301Y-14381436D02*
X12955777Y-14362388D01*
X12955777Y-14362388D02*
X12946253Y-14324293D01*
X12946253Y-14324293D02*
X12946253Y-14276674D01*
X12946253Y-14276674D02*
X12955777Y-14238579D01*
X12955777Y-14238579D02*
X12965301Y-14219531D01*
X12965301Y-14219531D02*
X12974824Y-14210008D01*
X12974824Y-14210008D02*
X12993872Y-14200484D01*
X13146253Y-14381436D02*
X13155777Y-14390960D01*
X13155777Y-14390960D02*
X13146253Y-14400484D01*
X13146253Y-14400484D02*
X13136729Y-14390960D01*
X13136729Y-14390960D02*
X13146253Y-14381436D01*
X13146253Y-14381436D02*
X13146253Y-14400484D01*
X13222443Y-14200484D02*
X13346253Y-14200484D01*
X13346253Y-14200484D02*
X13279586Y-14276674D01*
X13279586Y-14276674D02*
X13308158Y-14276674D01*
X13308158Y-14276674D02*
X13327205Y-14286198D01*
X13327205Y-14286198D02*
X13336729Y-14295722D01*
X13336729Y-14295722D02*
X13346253Y-14314769D01*
X13346253Y-14314769D02*
X13346253Y-14362388D01*
X13346253Y-14362388D02*
X13336729Y-14381436D01*
X13336729Y-14381436D02*
X13327205Y-14390960D01*
X13327205Y-14390960D02*
X13308158Y-14400484D01*
X13308158Y-14400484D02*
X13251015Y-14400484D01*
X13251015Y-14400484D02*
X13231967Y-14390960D01*
X13231967Y-14390960D02*
X13222443Y-14381436D01*
X13470062Y-14200484D02*
X13489110Y-14200484D01*
X13489110Y-14200484D02*
X13508158Y-14210008D01*
X13508158Y-14210008D02*
X13517682Y-14219531D01*
X13517682Y-14219531D02*
X13527205Y-14238579D01*
X13527205Y-14238579D02*
X13536729Y-14276674D01*
X13536729Y-14276674D02*
X13536729Y-14324293D01*
X13536729Y-14324293D02*
X13527205Y-14362388D01*
X13527205Y-14362388D02*
X13517682Y-14381436D01*
X13517682Y-14381436D02*
X13508158Y-14390960D01*
X13508158Y-14390960D02*
X13489110Y-14400484D01*
X13489110Y-14400484D02*
X13470062Y-14400484D01*
X13470062Y-14400484D02*
X13451015Y-14390960D01*
X13451015Y-14390960D02*
X13441491Y-14381436D01*
X13441491Y-14381436D02*
X13431967Y-14362388D01*
X13431967Y-14362388D02*
X13422443Y-14324293D01*
X13422443Y-14324293D02*
X13422443Y-14276674D01*
X13422443Y-14276674D02*
X13431967Y-14238579D01*
X13431967Y-14238579D02*
X13441491Y-14219531D01*
X13441491Y-14219531D02*
X13451015Y-14210008D01*
X13451015Y-14210008D02*
X13470062Y-14200484D01*
X13660539Y-14200484D02*
X13679586Y-14200484D01*
X13679586Y-14200484D02*
X13698634Y-14210008D01*
X13698634Y-14210008D02*
X13708158Y-14219531D01*
X13708158Y-14219531D02*
X13717682Y-14238579D01*
X13717682Y-14238579D02*
X13727205Y-14276674D01*
X13727205Y-14276674D02*
X13727205Y-14324293D01*
X13727205Y-14324293D02*
X13717682Y-14362388D01*
X13717682Y-14362388D02*
X13708158Y-14381436D01*
X13708158Y-14381436D02*
X13698634Y-14390960D01*
X13698634Y-14390960D02*
X13679586Y-14400484D01*
X13679586Y-14400484D02*
X13660539Y-14400484D01*
X13660539Y-14400484D02*
X13641491Y-14390960D01*
X13641491Y-14390960D02*
X13631967Y-14381436D01*
X13631967Y-14381436D02*
X13622443Y-14362388D01*
X13622443Y-14362388D02*
X13612920Y-14324293D01*
X13612920Y-14324293D02*
X13612920Y-14276674D01*
X13612920Y-14276674D02*
X13622443Y-14238579D01*
X13622443Y-14238579D02*
X13631967Y-14219531D01*
X13631967Y-14219531D02*
X13641491Y-14210008D01*
X13641491Y-14210008D02*
X13660539Y-14200484D01*
X13812920Y-14400484D02*
X13812920Y-14267150D01*
X13812920Y-14286198D02*
X13822443Y-14276674D01*
X13822443Y-14276674D02*
X13841491Y-14267150D01*
X13841491Y-14267150D02*
X13870063Y-14267150D01*
X13870063Y-14267150D02*
X13889110Y-14276674D01*
X13889110Y-14276674D02*
X13898634Y-14295722D01*
X13898634Y-14295722D02*
X13898634Y-14400484D01*
X13898634Y-14295722D02*
X13908158Y-14276674D01*
X13908158Y-14276674D02*
X13927205Y-14267150D01*
X13927205Y-14267150D02*
X13955777Y-14267150D01*
X13955777Y-14267150D02*
X13974824Y-14276674D01*
X13974824Y-14276674D02*
X13984348Y-14295722D01*
X13984348Y-14295722D02*
X13984348Y-14400484D01*
X14079586Y-14400484D02*
X14079586Y-14267150D01*
X14079586Y-14286198D02*
X14089110Y-14276674D01*
X14089110Y-14276674D02*
X14108158Y-14267150D01*
X14108158Y-14267150D02*
X14136729Y-14267150D01*
X14136729Y-14267150D02*
X14155777Y-14276674D01*
X14155777Y-14276674D02*
X14165301Y-14295722D01*
X14165301Y-14295722D02*
X14165301Y-14400484D01*
X14165301Y-14295722D02*
X14174824Y-14276674D01*
X14174824Y-14276674D02*
X14193872Y-14267150D01*
X14193872Y-14267150D02*
X14222443Y-14267150D01*
X14222443Y-14267150D02*
X14241491Y-14276674D01*
X14241491Y-14276674D02*
X14251015Y-14295722D01*
X14251015Y-14295722D02*
X14251015Y-14400484D01*
X14641491Y-14190960D02*
X14470063Y-14448103D01*
X14898634Y-14200484D02*
X14917682Y-14200484D01*
X14917682Y-14200484D02*
X14936729Y-14210008D01*
X14936729Y-14210008D02*
X14946253Y-14219531D01*
X14946253Y-14219531D02*
X14955777Y-14238579D01*
X14955777Y-14238579D02*
X14965301Y-14276674D01*
X14965301Y-14276674D02*
X14965301Y-14324293D01*
X14965301Y-14324293D02*
X14955777Y-14362388D01*
X14955777Y-14362388D02*
X14946253Y-14381436D01*
X14946253Y-14381436D02*
X14936729Y-14390960D01*
X14936729Y-14390960D02*
X14917682Y-14400484D01*
X14917682Y-14400484D02*
X14898634Y-14400484D01*
X14898634Y-14400484D02*
X14879586Y-14390960D01*
X14879586Y-14390960D02*
X14870063Y-14381436D01*
X14870063Y-14381436D02*
X14860539Y-14362388D01*
X14860539Y-14362388D02*
X14851015Y-14324293D01*
X14851015Y-14324293D02*
X14851015Y-14276674D01*
X14851015Y-14276674D02*
X14860539Y-14238579D01*
X14860539Y-14238579D02*
X14870063Y-14219531D01*
X14870063Y-14219531D02*
X14879586Y-14210008D01*
X14879586Y-14210008D02*
X14898634Y-14200484D01*
X15051015Y-14381436D02*
X15060539Y-14390960D01*
X15060539Y-14390960D02*
X15051015Y-14400484D01*
X15051015Y-14400484D02*
X15041491Y-14390960D01*
X15041491Y-14390960D02*
X15051015Y-14381436D01*
X15051015Y-14381436D02*
X15051015Y-14400484D01*
X15184348Y-14200484D02*
X15203396Y-14200484D01*
X15203396Y-14200484D02*
X15222444Y-14210008D01*
X15222444Y-14210008D02*
X15231967Y-14219531D01*
X15231967Y-14219531D02*
X15241491Y-14238579D01*
X15241491Y-14238579D02*
X15251015Y-14276674D01*
X15251015Y-14276674D02*
X15251015Y-14324293D01*
X15251015Y-14324293D02*
X15241491Y-14362388D01*
X15241491Y-14362388D02*
X15231967Y-14381436D01*
X15231967Y-14381436D02*
X15222444Y-14390960D01*
X15222444Y-14390960D02*
X15203396Y-14400484D01*
X15203396Y-14400484D02*
X15184348Y-14400484D01*
X15184348Y-14400484D02*
X15165301Y-14390960D01*
X15165301Y-14390960D02*
X15155777Y-14381436D01*
X15155777Y-14381436D02*
X15146253Y-14362388D01*
X15146253Y-14362388D02*
X15136729Y-14324293D01*
X15136729Y-14324293D02*
X15136729Y-14276674D01*
X15136729Y-14276674D02*
X15146253Y-14238579D01*
X15146253Y-14238579D02*
X15155777Y-14219531D01*
X15155777Y-14219531D02*
X15165301Y-14210008D01*
X15165301Y-14210008D02*
X15184348Y-14200484D01*
X15441491Y-14400484D02*
X15327206Y-14400484D01*
X15384348Y-14400484D02*
X15384348Y-14200484D01*
X15384348Y-14200484D02*
X15365301Y-14229055D01*
X15365301Y-14229055D02*
X15346253Y-14248103D01*
X15346253Y-14248103D02*
X15327206Y-14257627D01*
X15631967Y-14400484D02*
X15517682Y-14400484D01*
X15574825Y-14400484D02*
X15574825Y-14200484D01*
X15574825Y-14200484D02*
X15555777Y-14229055D01*
X15555777Y-14229055D02*
X15536729Y-14248103D01*
X15536729Y-14248103D02*
X15517682Y-14257627D01*
X15746253Y-14286198D02*
X15727206Y-14276674D01*
X15727206Y-14276674D02*
X15717682Y-14267150D01*
X15717682Y-14267150D02*
X15708158Y-14248103D01*
X15708158Y-14248103D02*
X15708158Y-14238579D01*
X15708158Y-14238579D02*
X15717682Y-14219531D01*
X15717682Y-14219531D02*
X15727206Y-14210008D01*
X15727206Y-14210008D02*
X15746253Y-14200484D01*
X15746253Y-14200484D02*
X15784348Y-14200484D01*
X15784348Y-14200484D02*
X15803396Y-14210008D01*
X15803396Y-14210008D02*
X15812920Y-14219531D01*
X15812920Y-14219531D02*
X15822444Y-14238579D01*
X15822444Y-14238579D02*
X15822444Y-14248103D01*
X15822444Y-14248103D02*
X15812920Y-14267150D01*
X15812920Y-14267150D02*
X15803396Y-14276674D01*
X15803396Y-14276674D02*
X15784348Y-14286198D01*
X15784348Y-14286198D02*
X15746253Y-14286198D01*
X15746253Y-14286198D02*
X15727206Y-14295722D01*
X15727206Y-14295722D02*
X15717682Y-14305246D01*
X15717682Y-14305246D02*
X15708158Y-14324293D01*
X15708158Y-14324293D02*
X15708158Y-14362388D01*
X15708158Y-14362388D02*
X15717682Y-14381436D01*
X15717682Y-14381436D02*
X15727206Y-14390960D01*
X15727206Y-14390960D02*
X15746253Y-14400484D01*
X15746253Y-14400484D02*
X15784348Y-14400484D01*
X15784348Y-14400484D02*
X15803396Y-14390960D01*
X15803396Y-14390960D02*
X15812920Y-14381436D01*
X15812920Y-14381436D02*
X15822444Y-14362388D01*
X15822444Y-14362388D02*
X15822444Y-14324293D01*
X15822444Y-14324293D02*
X15812920Y-14305246D01*
X15812920Y-14305246D02*
X15803396Y-14295722D01*
X15803396Y-14295722D02*
X15784348Y-14286198D01*
X15898634Y-14200484D02*
X15898634Y-14238579D01*
X15974825Y-14200484D02*
X15974825Y-14238579D01*
X16270063Y-14476674D02*
X16260539Y-14467150D01*
X16260539Y-14467150D02*
X16241491Y-14438579D01*
X16241491Y-14438579D02*
X16231968Y-14419531D01*
X16231968Y-14419531D02*
X16222444Y-14390960D01*
X16222444Y-14390960D02*
X16212920Y-14343341D01*
X16212920Y-14343341D02*
X16212920Y-14305246D01*
X16212920Y-14305246D02*
X16222444Y-14257627D01*
X16222444Y-14257627D02*
X16231968Y-14229055D01*
X16231968Y-14229055D02*
X16241491Y-14210008D01*
X16241491Y-14210008D02*
X16260539Y-14181436D01*
X16260539Y-14181436D02*
X16270063Y-14171912D01*
X16431968Y-14200484D02*
X16393872Y-14200484D01*
X16393872Y-14200484D02*
X16374825Y-14210008D01*
X16374825Y-14210008D02*
X16365301Y-14219531D01*
X16365301Y-14219531D02*
X16346253Y-14248103D01*
X16346253Y-14248103D02*
X16336729Y-14286198D01*
X16336729Y-14286198D02*
X16336729Y-14362388D01*
X16336729Y-14362388D02*
X16346253Y-14381436D01*
X16346253Y-14381436D02*
X16355777Y-14390960D01*
X16355777Y-14390960D02*
X16374825Y-14400484D01*
X16374825Y-14400484D02*
X16412920Y-14400484D01*
X16412920Y-14400484D02*
X16431968Y-14390960D01*
X16431968Y-14390960D02*
X16441491Y-14381436D01*
X16441491Y-14381436D02*
X16451015Y-14362388D01*
X16451015Y-14362388D02*
X16451015Y-14314769D01*
X16451015Y-14314769D02*
X16441491Y-14295722D01*
X16441491Y-14295722D02*
X16431968Y-14286198D01*
X16431968Y-14286198D02*
X16412920Y-14276674D01*
X16412920Y-14276674D02*
X16374825Y-14276674D01*
X16374825Y-14276674D02*
X16355777Y-14286198D01*
X16355777Y-14286198D02*
X16346253Y-14295722D01*
X16346253Y-14295722D02*
X16336729Y-14314769D01*
X16689110Y-14400484D02*
X16689110Y-14200484D01*
X16774825Y-14400484D02*
X16774825Y-14295722D01*
X16774825Y-14295722D02*
X16765301Y-14276674D01*
X16765301Y-14276674D02*
X16746253Y-14267150D01*
X16746253Y-14267150D02*
X16717682Y-14267150D01*
X16717682Y-14267150D02*
X16698634Y-14276674D01*
X16698634Y-14276674D02*
X16689110Y-14286198D01*
X16898634Y-14400484D02*
X16879587Y-14390960D01*
X16879587Y-14390960D02*
X16870063Y-14381436D01*
X16870063Y-14381436D02*
X16860539Y-14362388D01*
X16860539Y-14362388D02*
X16860539Y-14305246D01*
X16860539Y-14305246D02*
X16870063Y-14286198D01*
X16870063Y-14286198D02*
X16879587Y-14276674D01*
X16879587Y-14276674D02*
X16898634Y-14267150D01*
X16898634Y-14267150D02*
X16927206Y-14267150D01*
X16927206Y-14267150D02*
X16946253Y-14276674D01*
X16946253Y-14276674D02*
X16955777Y-14286198D01*
X16955777Y-14286198D02*
X16965301Y-14305246D01*
X16965301Y-14305246D02*
X16965301Y-14362388D01*
X16965301Y-14362388D02*
X16955777Y-14381436D01*
X16955777Y-14381436D02*
X16946253Y-14390960D01*
X16946253Y-14390960D02*
X16927206Y-14400484D01*
X16927206Y-14400484D02*
X16898634Y-14400484D01*
X17079587Y-14400484D02*
X17060539Y-14390960D01*
X17060539Y-14390960D02*
X17051015Y-14371912D01*
X17051015Y-14371912D02*
X17051015Y-14200484D01*
X17231968Y-14390960D02*
X17212920Y-14400484D01*
X17212920Y-14400484D02*
X17174825Y-14400484D01*
X17174825Y-14400484D02*
X17155777Y-14390960D01*
X17155777Y-14390960D02*
X17146253Y-14371912D01*
X17146253Y-14371912D02*
X17146253Y-14295722D01*
X17146253Y-14295722D02*
X17155777Y-14276674D01*
X17155777Y-14276674D02*
X17174825Y-14267150D01*
X17174825Y-14267150D02*
X17212920Y-14267150D01*
X17212920Y-14267150D02*
X17231968Y-14276674D01*
X17231968Y-14276674D02*
X17241492Y-14295722D01*
X17241492Y-14295722D02*
X17241492Y-14314769D01*
X17241492Y-14314769D02*
X17146253Y-14333817D01*
X17317682Y-14390960D02*
X17336730Y-14400484D01*
X17336730Y-14400484D02*
X17374825Y-14400484D01*
X17374825Y-14400484D02*
X17393873Y-14390960D01*
X17393873Y-14390960D02*
X17403396Y-14371912D01*
X17403396Y-14371912D02*
X17403396Y-14362388D01*
X17403396Y-14362388D02*
X17393873Y-14343341D01*
X17393873Y-14343341D02*
X17374825Y-14333817D01*
X17374825Y-14333817D02*
X17346253Y-14333817D01*
X17346253Y-14333817D02*
X17327206Y-14324293D01*
X17327206Y-14324293D02*
X17317682Y-14305246D01*
X17317682Y-14305246D02*
X17317682Y-14295722D01*
X17317682Y-14295722D02*
X17327206Y-14276674D01*
X17327206Y-14276674D02*
X17346253Y-14267150D01*
X17346253Y-14267150D02*
X17374825Y-14267150D01*
X17374825Y-14267150D02*
X17393873Y-14276674D01*
X17470063Y-14476674D02*
X17479587Y-14467150D01*
X17479587Y-14467150D02*
X17498634Y-14438579D01*
X17498634Y-14438579D02*
X17508158Y-14419531D01*
X17508158Y-14419531D02*
X17517682Y-14390960D01*
X17517682Y-14390960D02*
X17527206Y-14343341D01*
X17527206Y-14343341D02*
X17527206Y-14305246D01*
X17527206Y-14305246D02*
X17517682Y-14257627D01*
X17517682Y-14257627D02*
X17508158Y-14229055D01*
X17508158Y-14229055D02*
X17498634Y-14210008D01*
X17498634Y-14210008D02*
X17479587Y-14181436D01*
X17479587Y-14181436D02*
X17470063Y-14171912D01*
D10*
X12679760Y-14557760D02*
X12679760Y-14588240D01*
X12664520Y-14573000D02*
X12695000Y-14573000D01*
D11*
X12993872Y-14464484D02*
X13012920Y-14464484D01*
X13012920Y-14464484D02*
X13031967Y-14474008D01*
X13031967Y-14474008D02*
X13041491Y-14483531D01*
X13041491Y-14483531D02*
X13051015Y-14502579D01*
X13051015Y-14502579D02*
X13060539Y-14540674D01*
X13060539Y-14540674D02*
X13060539Y-14588293D01*
X13060539Y-14588293D02*
X13051015Y-14626388D01*
X13051015Y-14626388D02*
X13041491Y-14645436D01*
X13041491Y-14645436D02*
X13031967Y-14654960D01*
X13031967Y-14654960D02*
X13012920Y-14664484D01*
X13012920Y-14664484D02*
X12993872Y-14664484D01*
X12993872Y-14664484D02*
X12974824Y-14654960D01*
X12974824Y-14654960D02*
X12965301Y-14645436D01*
X12965301Y-14645436D02*
X12955777Y-14626388D01*
X12955777Y-14626388D02*
X12946253Y-14588293D01*
X12946253Y-14588293D02*
X12946253Y-14540674D01*
X12946253Y-14540674D02*
X12955777Y-14502579D01*
X12955777Y-14502579D02*
X12965301Y-14483531D01*
X12965301Y-14483531D02*
X12974824Y-14474008D01*
X12974824Y-14474008D02*
X12993872Y-14464484D01*
X13146253Y-14645436D02*
X13155777Y-14654960D01*
X13155777Y-14654960D02*
X13146253Y-14664484D01*
X13146253Y-14664484D02*
X13136729Y-14654960D01*
X13136729Y-14654960D02*
X13146253Y-14645436D01*
X13146253Y-14645436D02*
X13146253Y-14664484D01*
X13222443Y-14464484D02*
X13346253Y-14464484D01*
X13346253Y-14464484D02*
X13279586Y-14540674D01*
X13279586Y-14540674D02*
X13308158Y-14540674D01*
X13308158Y-14540674D02*
X13327205Y-14550198D01*
X13327205Y-14550198D02*
X13336729Y-14559722D01*
X13336729Y-14559722D02*
X13346253Y-14578769D01*
X13346253Y-14578769D02*
X13346253Y-14626388D01*
X13346253Y-14626388D02*
X13336729Y-14645436D01*
X13336729Y-14645436D02*
X13327205Y-14654960D01*
X13327205Y-14654960D02*
X13308158Y-14664484D01*
X13308158Y-14664484D02*
X13251015Y-14664484D01*
X13251015Y-14664484D02*
X13231967Y-14654960D01*
X13231967Y-14654960D02*
X13222443Y-14645436D01*
X13470062Y-14464484D02*
X13489110Y-14464484D01*
X13489110Y-14464484D02*
X13508158Y-14474008D01*
X13508158Y-14474008D02*
X13517682Y-14483531D01*
X13517682Y-14483531D02*
X13527205Y-14502579D01*
X13527205Y-14502579D02*
X13536729Y-14540674D01*
X13536729Y-14540674D02*
X13536729Y-14588293D01*
X13536729Y-14588293D02*
X13527205Y-14626388D01*
X13527205Y-14626388D02*
X13517682Y-14645436D01*
X13517682Y-14645436D02*
X13508158Y-14654960D01*
X13508158Y-14654960D02*
X13489110Y-14664484D01*
X13489110Y-14664484D02*
X13470062Y-14664484D01*
X13470062Y-14664484D02*
X13451015Y-14654960D01*
X13451015Y-14654960D02*
X13441491Y-14645436D01*
X13441491Y-14645436D02*
X13431967Y-14626388D01*
X13431967Y-14626388D02*
X13422443Y-14588293D01*
X13422443Y-14588293D02*
X13422443Y-14540674D01*
X13422443Y-14540674D02*
X13431967Y-14502579D01*
X13431967Y-14502579D02*
X13441491Y-14483531D01*
X13441491Y-14483531D02*
X13451015Y-14474008D01*
X13451015Y-14474008D02*
X13470062Y-14464484D01*
X13717682Y-14464484D02*
X13622443Y-14464484D01*
X13622443Y-14464484D02*
X13612920Y-14559722D01*
X13612920Y-14559722D02*
X13622443Y-14550198D01*
X13622443Y-14550198D02*
X13641491Y-14540674D01*
X13641491Y-14540674D02*
X13689110Y-14540674D01*
X13689110Y-14540674D02*
X13708158Y-14550198D01*
X13708158Y-14550198D02*
X13717682Y-14559722D01*
X13717682Y-14559722D02*
X13727205Y-14578769D01*
X13727205Y-14578769D02*
X13727205Y-14626388D01*
X13727205Y-14626388D02*
X13717682Y-14645436D01*
X13717682Y-14645436D02*
X13708158Y-14654960D01*
X13708158Y-14654960D02*
X13689110Y-14664484D01*
X13689110Y-14664484D02*
X13641491Y-14664484D01*
X13641491Y-14664484D02*
X13622443Y-14654960D01*
X13622443Y-14654960D02*
X13612920Y-14645436D01*
X13812920Y-14664484D02*
X13812920Y-14531150D01*
X13812920Y-14550198D02*
X13822443Y-14540674D01*
X13822443Y-14540674D02*
X13841491Y-14531150D01*
X13841491Y-14531150D02*
X13870063Y-14531150D01*
X13870063Y-14531150D02*
X13889110Y-14540674D01*
X13889110Y-14540674D02*
X13898634Y-14559722D01*
X13898634Y-14559722D02*
X13898634Y-14664484D01*
X13898634Y-14559722D02*
X13908158Y-14540674D01*
X13908158Y-14540674D02*
X13927205Y-14531150D01*
X13927205Y-14531150D02*
X13955777Y-14531150D01*
X13955777Y-14531150D02*
X13974824Y-14540674D01*
X13974824Y-14540674D02*
X13984348Y-14559722D01*
X13984348Y-14559722D02*
X13984348Y-14664484D01*
X14079586Y-14664484D02*
X14079586Y-14531150D01*
X14079586Y-14550198D02*
X14089110Y-14540674D01*
X14089110Y-14540674D02*
X14108158Y-14531150D01*
X14108158Y-14531150D02*
X14136729Y-14531150D01*
X14136729Y-14531150D02*
X14155777Y-14540674D01*
X14155777Y-14540674D02*
X14165301Y-14559722D01*
X14165301Y-14559722D02*
X14165301Y-14664484D01*
X14165301Y-14559722D02*
X14174824Y-14540674D01*
X14174824Y-14540674D02*
X14193872Y-14531150D01*
X14193872Y-14531150D02*
X14222443Y-14531150D01*
X14222443Y-14531150D02*
X14241491Y-14540674D01*
X14241491Y-14540674D02*
X14251015Y-14559722D01*
X14251015Y-14559722D02*
X14251015Y-14664484D01*
X14641491Y-14454960D02*
X14470063Y-14712103D01*
X14898634Y-14464484D02*
X14917682Y-14464484D01*
X14917682Y-14464484D02*
X14936729Y-14474008D01*
X14936729Y-14474008D02*
X14946253Y-14483531D01*
X14946253Y-14483531D02*
X14955777Y-14502579D01*
X14955777Y-14502579D02*
X14965301Y-14540674D01*
X14965301Y-14540674D02*
X14965301Y-14588293D01*
X14965301Y-14588293D02*
X14955777Y-14626388D01*
X14955777Y-14626388D02*
X14946253Y-14645436D01*
X14946253Y-14645436D02*
X14936729Y-14654960D01*
X14936729Y-14654960D02*
X14917682Y-14664484D01*
X14917682Y-14664484D02*
X14898634Y-14664484D01*
X14898634Y-14664484D02*
X14879586Y-14654960D01*
X14879586Y-14654960D02*
X14870063Y-14645436D01*
X14870063Y-14645436D02*
X14860539Y-14626388D01*
X14860539Y-14626388D02*
X14851015Y-14588293D01*
X14851015Y-14588293D02*
X14851015Y-14540674D01*
X14851015Y-14540674D02*
X14860539Y-14502579D01*
X14860539Y-14502579D02*
X14870063Y-14483531D01*
X14870063Y-14483531D02*
X14879586Y-14474008D01*
X14879586Y-14474008D02*
X14898634Y-14464484D01*
X15051015Y-14645436D02*
X15060539Y-14654960D01*
X15060539Y-14654960D02*
X15051015Y-14664484D01*
X15051015Y-14664484D02*
X15041491Y-14654960D01*
X15041491Y-14654960D02*
X15051015Y-14645436D01*
X15051015Y-14645436D02*
X15051015Y-14664484D01*
X15184348Y-14464484D02*
X15203396Y-14464484D01*
X15203396Y-14464484D02*
X15222444Y-14474008D01*
X15222444Y-14474008D02*
X15231967Y-14483531D01*
X15231967Y-14483531D02*
X15241491Y-14502579D01*
X15241491Y-14502579D02*
X15251015Y-14540674D01*
X15251015Y-14540674D02*
X15251015Y-14588293D01*
X15251015Y-14588293D02*
X15241491Y-14626388D01*
X15241491Y-14626388D02*
X15231967Y-14645436D01*
X15231967Y-14645436D02*
X15222444Y-14654960D01*
X15222444Y-14654960D02*
X15203396Y-14664484D01*
X15203396Y-14664484D02*
X15184348Y-14664484D01*
X15184348Y-14664484D02*
X15165301Y-14654960D01*
X15165301Y-14654960D02*
X15155777Y-14645436D01*
X15155777Y-14645436D02*
X15146253Y-14626388D01*
X15146253Y-14626388D02*
X15136729Y-14588293D01*
X15136729Y-14588293D02*
X15136729Y-14540674D01*
X15136729Y-14540674D02*
X15146253Y-14502579D01*
X15146253Y-14502579D02*
X15155777Y-14483531D01*
X15155777Y-14483531D02*
X15165301Y-14474008D01*
X15165301Y-14474008D02*
X15184348Y-14464484D01*
X15441491Y-14664484D02*
X15327206Y-14664484D01*
X15384348Y-14664484D02*
X15384348Y-14464484D01*
X15384348Y-14464484D02*
X15365301Y-14493055D01*
X15365301Y-14493055D02*
X15346253Y-14512103D01*
X15346253Y-14512103D02*
X15327206Y-14521627D01*
X15517682Y-14483531D02*
X15527206Y-14474008D01*
X15527206Y-14474008D02*
X15546253Y-14464484D01*
X15546253Y-14464484D02*
X15593872Y-14464484D01*
X15593872Y-14464484D02*
X15612920Y-14474008D01*
X15612920Y-14474008D02*
X15622444Y-14483531D01*
X15622444Y-14483531D02*
X15631967Y-14502579D01*
X15631967Y-14502579D02*
X15631967Y-14521627D01*
X15631967Y-14521627D02*
X15622444Y-14550198D01*
X15622444Y-14550198D02*
X15508158Y-14664484D01*
X15508158Y-14664484D02*
X15631967Y-14664484D01*
X15755777Y-14464484D02*
X15774825Y-14464484D01*
X15774825Y-14464484D02*
X15793872Y-14474008D01*
X15793872Y-14474008D02*
X15803396Y-14483531D01*
X15803396Y-14483531D02*
X15812920Y-14502579D01*
X15812920Y-14502579D02*
X15822444Y-14540674D01*
X15822444Y-14540674D02*
X15822444Y-14588293D01*
X15822444Y-14588293D02*
X15812920Y-14626388D01*
X15812920Y-14626388D02*
X15803396Y-14645436D01*
X15803396Y-14645436D02*
X15793872Y-14654960D01*
X15793872Y-14654960D02*
X15774825Y-14664484D01*
X15774825Y-14664484D02*
X15755777Y-14664484D01*
X15755777Y-14664484D02*
X15736729Y-14654960D01*
X15736729Y-14654960D02*
X15727206Y-14645436D01*
X15727206Y-14645436D02*
X15717682Y-14626388D01*
X15717682Y-14626388D02*
X15708158Y-14588293D01*
X15708158Y-14588293D02*
X15708158Y-14540674D01*
X15708158Y-14540674D02*
X15717682Y-14502579D01*
X15717682Y-14502579D02*
X15727206Y-14483531D01*
X15727206Y-14483531D02*
X15736729Y-14474008D01*
X15736729Y-14474008D02*
X15755777Y-14464484D01*
X15898634Y-14464484D02*
X15898634Y-14502579D01*
X15974825Y-14464484D02*
X15974825Y-14502579D01*
X16270063Y-14740674D02*
X16260539Y-14731150D01*
X16260539Y-14731150D02*
X16241491Y-14702579D01*
X16241491Y-14702579D02*
X16231968Y-14683531D01*
X16231968Y-14683531D02*
X16222444Y-14654960D01*
X16222444Y-14654960D02*
X16212920Y-14607341D01*
X16212920Y-14607341D02*
X16212920Y-14569246D01*
X16212920Y-14569246D02*
X16222444Y-14521627D01*
X16222444Y-14521627D02*
X16231968Y-14493055D01*
X16231968Y-14493055D02*
X16241491Y-14474008D01*
X16241491Y-14474008D02*
X16260539Y-14445436D01*
X16260539Y-14445436D02*
X16270063Y-14435912D01*
X16451015Y-14664484D02*
X16336729Y-14664484D01*
X16393872Y-14664484D02*
X16393872Y-14464484D01*
X16393872Y-14464484D02*
X16374825Y-14493055D01*
X16374825Y-14493055D02*
X16355777Y-14512103D01*
X16355777Y-14512103D02*
X16336729Y-14521627D01*
X16631968Y-14464484D02*
X16536729Y-14464484D01*
X16536729Y-14464484D02*
X16527206Y-14559722D01*
X16527206Y-14559722D02*
X16536729Y-14550198D01*
X16536729Y-14550198D02*
X16555777Y-14540674D01*
X16555777Y-14540674D02*
X16603396Y-14540674D01*
X16603396Y-14540674D02*
X16622444Y-14550198D01*
X16622444Y-14550198D02*
X16631968Y-14559722D01*
X16631968Y-14559722D02*
X16641491Y-14578769D01*
X16641491Y-14578769D02*
X16641491Y-14626388D01*
X16641491Y-14626388D02*
X16631968Y-14645436D01*
X16631968Y-14645436D02*
X16622444Y-14654960D01*
X16622444Y-14654960D02*
X16603396Y-14664484D01*
X16603396Y-14664484D02*
X16555777Y-14664484D01*
X16555777Y-14664484D02*
X16536729Y-14654960D01*
X16536729Y-14654960D02*
X16527206Y-14645436D01*
X16879587Y-14664484D02*
X16879587Y-14464484D01*
X16965301Y-14664484D02*
X16965301Y-14559722D01*
X16965301Y-14559722D02*
X16955777Y-14540674D01*
X16955777Y-14540674D02*
X16936730Y-14531150D01*
X16936730Y-14531150D02*
X16908158Y-14531150D01*
X16908158Y-14531150D02*
X16889111Y-14540674D01*
X16889111Y-14540674D02*
X16879587Y-14550198D01*
X17089111Y-14664484D02*
X17070063Y-14654960D01*
X17070063Y-14654960D02*
X17060539Y-14645436D01*
X17060539Y-14645436D02*
X17051015Y-14626388D01*
X17051015Y-14626388D02*
X17051015Y-14569246D01*
X17051015Y-14569246D02*
X17060539Y-14550198D01*
X17060539Y-14550198D02*
X17070063Y-14540674D01*
X17070063Y-14540674D02*
X17089111Y-14531150D01*
X17089111Y-14531150D02*
X17117682Y-14531150D01*
X17117682Y-14531150D02*
X17136730Y-14540674D01*
X17136730Y-14540674D02*
X17146253Y-14550198D01*
X17146253Y-14550198D02*
X17155777Y-14569246D01*
X17155777Y-14569246D02*
X17155777Y-14626388D01*
X17155777Y-14626388D02*
X17146253Y-14645436D01*
X17146253Y-14645436D02*
X17136730Y-14654960D01*
X17136730Y-14654960D02*
X17117682Y-14664484D01*
X17117682Y-14664484D02*
X17089111Y-14664484D01*
X17270063Y-14664484D02*
X17251015Y-14654960D01*
X17251015Y-14654960D02*
X17241492Y-14635912D01*
X17241492Y-14635912D02*
X17241492Y-14464484D01*
X17422444Y-14654960D02*
X17403396Y-14664484D01*
X17403396Y-14664484D02*
X17365301Y-14664484D01*
X17365301Y-14664484D02*
X17346253Y-14654960D01*
X17346253Y-14654960D02*
X17336730Y-14635912D01*
X17336730Y-14635912D02*
X17336730Y-14559722D01*
X17336730Y-14559722D02*
X17346253Y-14540674D01*
X17346253Y-14540674D02*
X17365301Y-14531150D01*
X17365301Y-14531150D02*
X17403396Y-14531150D01*
X17403396Y-14531150D02*
X17422444Y-14540674D01*
X17422444Y-14540674D02*
X17431968Y-14559722D01*
X17431968Y-14559722D02*
X17431968Y-14578769D01*
X17431968Y-14578769D02*
X17336730Y-14597817D01*
X17508158Y-14654960D02*
X17527206Y-14664484D01*
X17527206Y-14664484D02*
X17565301Y-14664484D01*
X17565301Y-14664484D02*
X17584349Y-14654960D01*
X17584349Y-14654960D02*
X17593873Y-14635912D01*
X17593873Y-14635912D02*
X17593873Y-14626388D01*
X17593873Y-14626388D02*
X17584349Y-14607341D01*
X17584349Y-14607341D02*
X17565301Y-14597817D01*
X17565301Y-14597817D02*
X17536730Y-14597817D01*
X17536730Y-14597817D02*
X17517682Y-14588293D01*
X17517682Y-14588293D02*
X17508158Y-14569246D01*
X17508158Y-14569246D02*
X17508158Y-14559722D01*
X17508158Y-14559722D02*
X17517682Y-14540674D01*
X17517682Y-14540674D02*
X17536730Y-14531150D01*
X17536730Y-14531150D02*
X17565301Y-14531150D01*
X17565301Y-14531150D02*
X17584349Y-14540674D01*
X17660539Y-14740674D02*
X17670063Y-14731150D01*
X17670063Y-14731150D02*
X17689111Y-14702579D01*
X17689111Y-14702579D02*
X17698634Y-14683531D01*
X17698634Y-14683531D02*
X17708158Y-14654960D01*
X17708158Y-14654960D02*
X17717682Y-14607341D01*
X17717682Y-14607341D02*
X17717682Y-14569246D01*
X17717682Y-14569246D02*
X17708158Y-14521627D01*
X17708158Y-14521627D02*
X17698634Y-14493055D01*
X17698634Y-14493055D02*
X17689111Y-14474008D01*
X17689111Y-14474008D02*
X17670063Y-14445436D01*
X17670063Y-14445436D02*
X17660539Y-14435912D01*
D10*
X12689142Y-14851142D02*
X12689142Y-14822858D01*
X12660858Y-14822858D01*
X12660858Y-14851142D01*
X12689142Y-14851142D01*
D11*
X12993872Y-14728484D02*
X13012920Y-14728484D01*
X13012920Y-14728484D02*
X13031967Y-14738008D01*
X13031967Y-14738008D02*
X13041491Y-14747531D01*
X13041491Y-14747531D02*
X13051015Y-14766579D01*
X13051015Y-14766579D02*
X13060539Y-14804674D01*
X13060539Y-14804674D02*
X13060539Y-14852293D01*
X13060539Y-14852293D02*
X13051015Y-14890388D01*
X13051015Y-14890388D02*
X13041491Y-14909436D01*
X13041491Y-14909436D02*
X13031967Y-14918960D01*
X13031967Y-14918960D02*
X13012920Y-14928484D01*
X13012920Y-14928484D02*
X12993872Y-14928484D01*
X12993872Y-14928484D02*
X12974824Y-14918960D01*
X12974824Y-14918960D02*
X12965301Y-14909436D01*
X12965301Y-14909436D02*
X12955777Y-14890388D01*
X12955777Y-14890388D02*
X12946253Y-14852293D01*
X12946253Y-14852293D02*
X12946253Y-14804674D01*
X12946253Y-14804674D02*
X12955777Y-14766579D01*
X12955777Y-14766579D02*
X12965301Y-14747531D01*
X12965301Y-14747531D02*
X12974824Y-14738008D01*
X12974824Y-14738008D02*
X12993872Y-14728484D01*
X13146253Y-14909436D02*
X13155777Y-14918960D01*
X13155777Y-14918960D02*
X13146253Y-14928484D01*
X13146253Y-14928484D02*
X13136729Y-14918960D01*
X13136729Y-14918960D02*
X13146253Y-14909436D01*
X13146253Y-14909436D02*
X13146253Y-14928484D01*
X13327205Y-14795150D02*
X13327205Y-14928484D01*
X13279586Y-14718960D02*
X13231967Y-14861817D01*
X13231967Y-14861817D02*
X13355777Y-14861817D01*
X13470062Y-14728484D02*
X13489110Y-14728484D01*
X13489110Y-14728484D02*
X13508158Y-14738008D01*
X13508158Y-14738008D02*
X13517682Y-14747531D01*
X13517682Y-14747531D02*
X13527205Y-14766579D01*
X13527205Y-14766579D02*
X13536729Y-14804674D01*
X13536729Y-14804674D02*
X13536729Y-14852293D01*
X13536729Y-14852293D02*
X13527205Y-14890388D01*
X13527205Y-14890388D02*
X13517682Y-14909436D01*
X13517682Y-14909436D02*
X13508158Y-14918960D01*
X13508158Y-14918960D02*
X13489110Y-14928484D01*
X13489110Y-14928484D02*
X13470062Y-14928484D01*
X13470062Y-14928484D02*
X13451015Y-14918960D01*
X13451015Y-14918960D02*
X13441491Y-14909436D01*
X13441491Y-14909436D02*
X13431967Y-14890388D01*
X13431967Y-14890388D02*
X13422443Y-14852293D01*
X13422443Y-14852293D02*
X13422443Y-14804674D01*
X13422443Y-14804674D02*
X13431967Y-14766579D01*
X13431967Y-14766579D02*
X13441491Y-14747531D01*
X13441491Y-14747531D02*
X13451015Y-14738008D01*
X13451015Y-14738008D02*
X13470062Y-14728484D01*
X13660539Y-14728484D02*
X13679586Y-14728484D01*
X13679586Y-14728484D02*
X13698634Y-14738008D01*
X13698634Y-14738008D02*
X13708158Y-14747531D01*
X13708158Y-14747531D02*
X13717682Y-14766579D01*
X13717682Y-14766579D02*
X13727205Y-14804674D01*
X13727205Y-14804674D02*
X13727205Y-14852293D01*
X13727205Y-14852293D02*
X13717682Y-14890388D01*
X13717682Y-14890388D02*
X13708158Y-14909436D01*
X13708158Y-14909436D02*
X13698634Y-14918960D01*
X13698634Y-14918960D02*
X13679586Y-14928484D01*
X13679586Y-14928484D02*
X13660539Y-14928484D01*
X13660539Y-14928484D02*
X13641491Y-14918960D01*
X13641491Y-14918960D02*
X13631967Y-14909436D01*
X13631967Y-14909436D02*
X13622443Y-14890388D01*
X13622443Y-14890388D02*
X13612920Y-14852293D01*
X13612920Y-14852293D02*
X13612920Y-14804674D01*
X13612920Y-14804674D02*
X13622443Y-14766579D01*
X13622443Y-14766579D02*
X13631967Y-14747531D01*
X13631967Y-14747531D02*
X13641491Y-14738008D01*
X13641491Y-14738008D02*
X13660539Y-14728484D01*
X13812920Y-14928484D02*
X13812920Y-14795150D01*
X13812920Y-14814198D02*
X13822443Y-14804674D01*
X13822443Y-14804674D02*
X13841491Y-14795150D01*
X13841491Y-14795150D02*
X13870063Y-14795150D01*
X13870063Y-14795150D02*
X13889110Y-14804674D01*
X13889110Y-14804674D02*
X13898634Y-14823722D01*
X13898634Y-14823722D02*
X13898634Y-14928484D01*
X13898634Y-14823722D02*
X13908158Y-14804674D01*
X13908158Y-14804674D02*
X13927205Y-14795150D01*
X13927205Y-14795150D02*
X13955777Y-14795150D01*
X13955777Y-14795150D02*
X13974824Y-14804674D01*
X13974824Y-14804674D02*
X13984348Y-14823722D01*
X13984348Y-14823722D02*
X13984348Y-14928484D01*
X14079586Y-14928484D02*
X14079586Y-14795150D01*
X14079586Y-14814198D02*
X14089110Y-14804674D01*
X14089110Y-14804674D02*
X14108158Y-14795150D01*
X14108158Y-14795150D02*
X14136729Y-14795150D01*
X14136729Y-14795150D02*
X14155777Y-14804674D01*
X14155777Y-14804674D02*
X14165301Y-14823722D01*
X14165301Y-14823722D02*
X14165301Y-14928484D01*
X14165301Y-14823722D02*
X14174824Y-14804674D01*
X14174824Y-14804674D02*
X14193872Y-14795150D01*
X14193872Y-14795150D02*
X14222443Y-14795150D01*
X14222443Y-14795150D02*
X14241491Y-14804674D01*
X14241491Y-14804674D02*
X14251015Y-14823722D01*
X14251015Y-14823722D02*
X14251015Y-14928484D01*
X14641491Y-14718960D02*
X14470063Y-14976103D01*
X14898634Y-14728484D02*
X14917682Y-14728484D01*
X14917682Y-14728484D02*
X14936729Y-14738008D01*
X14936729Y-14738008D02*
X14946253Y-14747531D01*
X14946253Y-14747531D02*
X14955777Y-14766579D01*
X14955777Y-14766579D02*
X14965301Y-14804674D01*
X14965301Y-14804674D02*
X14965301Y-14852293D01*
X14965301Y-14852293D02*
X14955777Y-14890388D01*
X14955777Y-14890388D02*
X14946253Y-14909436D01*
X14946253Y-14909436D02*
X14936729Y-14918960D01*
X14936729Y-14918960D02*
X14917682Y-14928484D01*
X14917682Y-14928484D02*
X14898634Y-14928484D01*
X14898634Y-14928484D02*
X14879586Y-14918960D01*
X14879586Y-14918960D02*
X14870063Y-14909436D01*
X14870063Y-14909436D02*
X14860539Y-14890388D01*
X14860539Y-14890388D02*
X14851015Y-14852293D01*
X14851015Y-14852293D02*
X14851015Y-14804674D01*
X14851015Y-14804674D02*
X14860539Y-14766579D01*
X14860539Y-14766579D02*
X14870063Y-14747531D01*
X14870063Y-14747531D02*
X14879586Y-14738008D01*
X14879586Y-14738008D02*
X14898634Y-14728484D01*
X15051015Y-14909436D02*
X15060539Y-14918960D01*
X15060539Y-14918960D02*
X15051015Y-14928484D01*
X15051015Y-14928484D02*
X15041491Y-14918960D01*
X15041491Y-14918960D02*
X15051015Y-14909436D01*
X15051015Y-14909436D02*
X15051015Y-14928484D01*
X15184348Y-14728484D02*
X15203396Y-14728484D01*
X15203396Y-14728484D02*
X15222444Y-14738008D01*
X15222444Y-14738008D02*
X15231967Y-14747531D01*
X15231967Y-14747531D02*
X15241491Y-14766579D01*
X15241491Y-14766579D02*
X15251015Y-14804674D01*
X15251015Y-14804674D02*
X15251015Y-14852293D01*
X15251015Y-14852293D02*
X15241491Y-14890388D01*
X15241491Y-14890388D02*
X15231967Y-14909436D01*
X15231967Y-14909436D02*
X15222444Y-14918960D01*
X15222444Y-14918960D02*
X15203396Y-14928484D01*
X15203396Y-14928484D02*
X15184348Y-14928484D01*
X15184348Y-14928484D02*
X15165301Y-14918960D01*
X15165301Y-14918960D02*
X15155777Y-14909436D01*
X15155777Y-14909436D02*
X15146253Y-14890388D01*
X15146253Y-14890388D02*
X15136729Y-14852293D01*
X15136729Y-14852293D02*
X15136729Y-14804674D01*
X15136729Y-14804674D02*
X15146253Y-14766579D01*
X15146253Y-14766579D02*
X15155777Y-14747531D01*
X15155777Y-14747531D02*
X15165301Y-14738008D01*
X15165301Y-14738008D02*
X15184348Y-14728484D01*
X15441491Y-14928484D02*
X15327206Y-14928484D01*
X15384348Y-14928484D02*
X15384348Y-14728484D01*
X15384348Y-14728484D02*
X15365301Y-14757055D01*
X15365301Y-14757055D02*
X15346253Y-14776103D01*
X15346253Y-14776103D02*
X15327206Y-14785627D01*
X15622444Y-14728484D02*
X15527206Y-14728484D01*
X15527206Y-14728484D02*
X15517682Y-14823722D01*
X15517682Y-14823722D02*
X15527206Y-14814198D01*
X15527206Y-14814198D02*
X15546253Y-14804674D01*
X15546253Y-14804674D02*
X15593872Y-14804674D01*
X15593872Y-14804674D02*
X15612920Y-14814198D01*
X15612920Y-14814198D02*
X15622444Y-14823722D01*
X15622444Y-14823722D02*
X15631967Y-14842769D01*
X15631967Y-14842769D02*
X15631967Y-14890388D01*
X15631967Y-14890388D02*
X15622444Y-14909436D01*
X15622444Y-14909436D02*
X15612920Y-14918960D01*
X15612920Y-14918960D02*
X15593872Y-14928484D01*
X15593872Y-14928484D02*
X15546253Y-14928484D01*
X15546253Y-14928484D02*
X15527206Y-14918960D01*
X15527206Y-14918960D02*
X15517682Y-14909436D01*
X15698634Y-14728484D02*
X15831967Y-14728484D01*
X15831967Y-14728484D02*
X15746253Y-14928484D01*
X15898634Y-14728484D02*
X15898634Y-14766579D01*
X15974825Y-14728484D02*
X15974825Y-14766579D01*
X16270063Y-15004674D02*
X16260539Y-14995150D01*
X16260539Y-14995150D02*
X16241491Y-14966579D01*
X16241491Y-14966579D02*
X16231968Y-14947531D01*
X16231968Y-14947531D02*
X16222444Y-14918960D01*
X16222444Y-14918960D02*
X16212920Y-14871341D01*
X16212920Y-14871341D02*
X16212920Y-14833246D01*
X16212920Y-14833246D02*
X16222444Y-14785627D01*
X16222444Y-14785627D02*
X16231968Y-14757055D01*
X16231968Y-14757055D02*
X16241491Y-14738008D01*
X16241491Y-14738008D02*
X16260539Y-14709436D01*
X16260539Y-14709436D02*
X16270063Y-14699912D01*
X16327206Y-14728484D02*
X16451015Y-14728484D01*
X16451015Y-14728484D02*
X16384348Y-14804674D01*
X16384348Y-14804674D02*
X16412920Y-14804674D01*
X16412920Y-14804674D02*
X16431968Y-14814198D01*
X16431968Y-14814198D02*
X16441491Y-14823722D01*
X16441491Y-14823722D02*
X16451015Y-14842769D01*
X16451015Y-14842769D02*
X16451015Y-14890388D01*
X16451015Y-14890388D02*
X16441491Y-14909436D01*
X16441491Y-14909436D02*
X16431968Y-14918960D01*
X16431968Y-14918960D02*
X16412920Y-14928484D01*
X16412920Y-14928484D02*
X16355777Y-14928484D01*
X16355777Y-14928484D02*
X16336729Y-14918960D01*
X16336729Y-14918960D02*
X16327206Y-14909436D01*
X16689110Y-14928484D02*
X16689110Y-14728484D01*
X16774825Y-14928484D02*
X16774825Y-14823722D01*
X16774825Y-14823722D02*
X16765301Y-14804674D01*
X16765301Y-14804674D02*
X16746253Y-14795150D01*
X16746253Y-14795150D02*
X16717682Y-14795150D01*
X16717682Y-14795150D02*
X16698634Y-14804674D01*
X16698634Y-14804674D02*
X16689110Y-14814198D01*
X16898634Y-14928484D02*
X16879587Y-14918960D01*
X16879587Y-14918960D02*
X16870063Y-14909436D01*
X16870063Y-14909436D02*
X16860539Y-14890388D01*
X16860539Y-14890388D02*
X16860539Y-14833246D01*
X16860539Y-14833246D02*
X16870063Y-14814198D01*
X16870063Y-14814198D02*
X16879587Y-14804674D01*
X16879587Y-14804674D02*
X16898634Y-14795150D01*
X16898634Y-14795150D02*
X16927206Y-14795150D01*
X16927206Y-14795150D02*
X16946253Y-14804674D01*
X16946253Y-14804674D02*
X16955777Y-14814198D01*
X16955777Y-14814198D02*
X16965301Y-14833246D01*
X16965301Y-14833246D02*
X16965301Y-14890388D01*
X16965301Y-14890388D02*
X16955777Y-14909436D01*
X16955777Y-14909436D02*
X16946253Y-14918960D01*
X16946253Y-14918960D02*
X16927206Y-14928484D01*
X16927206Y-14928484D02*
X16898634Y-14928484D01*
X17079587Y-14928484D02*
X17060539Y-14918960D01*
X17060539Y-14918960D02*
X17051015Y-14899912D01*
X17051015Y-14899912D02*
X17051015Y-14728484D01*
X17231968Y-14918960D02*
X17212920Y-14928484D01*
X17212920Y-14928484D02*
X17174825Y-14928484D01*
X17174825Y-14928484D02*
X17155777Y-14918960D01*
X17155777Y-14918960D02*
X17146253Y-14899912D01*
X17146253Y-14899912D02*
X17146253Y-14823722D01*
X17146253Y-14823722D02*
X17155777Y-14804674D01*
X17155777Y-14804674D02*
X17174825Y-14795150D01*
X17174825Y-14795150D02*
X17212920Y-14795150D01*
X17212920Y-14795150D02*
X17231968Y-14804674D01*
X17231968Y-14804674D02*
X17241492Y-14823722D01*
X17241492Y-14823722D02*
X17241492Y-14842769D01*
X17241492Y-14842769D02*
X17146253Y-14861817D01*
X17317682Y-14918960D02*
X17336730Y-14928484D01*
X17336730Y-14928484D02*
X17374825Y-14928484D01*
X17374825Y-14928484D02*
X17393873Y-14918960D01*
X17393873Y-14918960D02*
X17403396Y-14899912D01*
X17403396Y-14899912D02*
X17403396Y-14890388D01*
X17403396Y-14890388D02*
X17393873Y-14871341D01*
X17393873Y-14871341D02*
X17374825Y-14861817D01*
X17374825Y-14861817D02*
X17346253Y-14861817D01*
X17346253Y-14861817D02*
X17327206Y-14852293D01*
X17327206Y-14852293D02*
X17317682Y-14833246D01*
X17317682Y-14833246D02*
X17317682Y-14823722D01*
X17317682Y-14823722D02*
X17327206Y-14804674D01*
X17327206Y-14804674D02*
X17346253Y-14795150D01*
X17346253Y-14795150D02*
X17374825Y-14795150D01*
X17374825Y-14795150D02*
X17393873Y-14804674D01*
X17470063Y-15004674D02*
X17479587Y-14995150D01*
X17479587Y-14995150D02*
X17498634Y-14966579D01*
X17498634Y-14966579D02*
X17508158Y-14947531D01*
X17508158Y-14947531D02*
X17517682Y-14918960D01*
X17517682Y-14918960D02*
X17527206Y-14871341D01*
X17527206Y-14871341D02*
X17527206Y-14833246D01*
X17527206Y-14833246D02*
X17517682Y-14785627D01*
X17517682Y-14785627D02*
X17508158Y-14757055D01*
X17508158Y-14757055D02*
X17498634Y-14738008D01*
X17498634Y-14738008D02*
X17479587Y-14709436D01*
X17479587Y-14709436D02*
X17470063Y-14699912D01*
D10*
X12665000Y-15131000D02*
X12695000Y-15101000D01*
X12665000Y-15071000D01*
X12635000Y-15101000D01*
X12665000Y-15131000D01*
D11*
X12993872Y-14992484D02*
X13012920Y-14992484D01*
X13012920Y-14992484D02*
X13031967Y-15002008D01*
X13031967Y-15002008D02*
X13041491Y-15011531D01*
X13041491Y-15011531D02*
X13051015Y-15030579D01*
X13051015Y-15030579D02*
X13060539Y-15068674D01*
X13060539Y-15068674D02*
X13060539Y-15116293D01*
X13060539Y-15116293D02*
X13051015Y-15154388D01*
X13051015Y-15154388D02*
X13041491Y-15173436D01*
X13041491Y-15173436D02*
X13031967Y-15182960D01*
X13031967Y-15182960D02*
X13012920Y-15192484D01*
X13012920Y-15192484D02*
X12993872Y-15192484D01*
X12993872Y-15192484D02*
X12974824Y-15182960D01*
X12974824Y-15182960D02*
X12965301Y-15173436D01*
X12965301Y-15173436D02*
X12955777Y-15154388D01*
X12955777Y-15154388D02*
X12946253Y-15116293D01*
X12946253Y-15116293D02*
X12946253Y-15068674D01*
X12946253Y-15068674D02*
X12955777Y-15030579D01*
X12955777Y-15030579D02*
X12965301Y-15011531D01*
X12965301Y-15011531D02*
X12974824Y-15002008D01*
X12974824Y-15002008D02*
X12993872Y-14992484D01*
X13146253Y-15173436D02*
X13155777Y-15182960D01*
X13155777Y-15182960D02*
X13146253Y-15192484D01*
X13146253Y-15192484D02*
X13136729Y-15182960D01*
X13136729Y-15182960D02*
X13146253Y-15173436D01*
X13146253Y-15173436D02*
X13146253Y-15192484D01*
X13327205Y-14992484D02*
X13289110Y-14992484D01*
X13289110Y-14992484D02*
X13270062Y-15002008D01*
X13270062Y-15002008D02*
X13260539Y-15011531D01*
X13260539Y-15011531D02*
X13241491Y-15040103D01*
X13241491Y-15040103D02*
X13231967Y-15078198D01*
X13231967Y-15078198D02*
X13231967Y-15154388D01*
X13231967Y-15154388D02*
X13241491Y-15173436D01*
X13241491Y-15173436D02*
X13251015Y-15182960D01*
X13251015Y-15182960D02*
X13270062Y-15192484D01*
X13270062Y-15192484D02*
X13308158Y-15192484D01*
X13308158Y-15192484D02*
X13327205Y-15182960D01*
X13327205Y-15182960D02*
X13336729Y-15173436D01*
X13336729Y-15173436D02*
X13346253Y-15154388D01*
X13346253Y-15154388D02*
X13346253Y-15106769D01*
X13346253Y-15106769D02*
X13336729Y-15087722D01*
X13336729Y-15087722D02*
X13327205Y-15078198D01*
X13327205Y-15078198D02*
X13308158Y-15068674D01*
X13308158Y-15068674D02*
X13270062Y-15068674D01*
X13270062Y-15068674D02*
X13251015Y-15078198D01*
X13251015Y-15078198D02*
X13241491Y-15087722D01*
X13241491Y-15087722D02*
X13231967Y-15106769D01*
X13470062Y-14992484D02*
X13489110Y-14992484D01*
X13489110Y-14992484D02*
X13508158Y-15002008D01*
X13508158Y-15002008D02*
X13517682Y-15011531D01*
X13517682Y-15011531D02*
X13527205Y-15030579D01*
X13527205Y-15030579D02*
X13536729Y-15068674D01*
X13536729Y-15068674D02*
X13536729Y-15116293D01*
X13536729Y-15116293D02*
X13527205Y-15154388D01*
X13527205Y-15154388D02*
X13517682Y-15173436D01*
X13517682Y-15173436D02*
X13508158Y-15182960D01*
X13508158Y-15182960D02*
X13489110Y-15192484D01*
X13489110Y-15192484D02*
X13470062Y-15192484D01*
X13470062Y-15192484D02*
X13451015Y-15182960D01*
X13451015Y-15182960D02*
X13441491Y-15173436D01*
X13441491Y-15173436D02*
X13431967Y-15154388D01*
X13431967Y-15154388D02*
X13422443Y-15116293D01*
X13422443Y-15116293D02*
X13422443Y-15068674D01*
X13422443Y-15068674D02*
X13431967Y-15030579D01*
X13431967Y-15030579D02*
X13441491Y-15011531D01*
X13441491Y-15011531D02*
X13451015Y-15002008D01*
X13451015Y-15002008D02*
X13470062Y-14992484D01*
X13660539Y-14992484D02*
X13679586Y-14992484D01*
X13679586Y-14992484D02*
X13698634Y-15002008D01*
X13698634Y-15002008D02*
X13708158Y-15011531D01*
X13708158Y-15011531D02*
X13717682Y-15030579D01*
X13717682Y-15030579D02*
X13727205Y-15068674D01*
X13727205Y-15068674D02*
X13727205Y-15116293D01*
X13727205Y-15116293D02*
X13717682Y-15154388D01*
X13717682Y-15154388D02*
X13708158Y-15173436D01*
X13708158Y-15173436D02*
X13698634Y-15182960D01*
X13698634Y-15182960D02*
X13679586Y-15192484D01*
X13679586Y-15192484D02*
X13660539Y-15192484D01*
X13660539Y-15192484D02*
X13641491Y-15182960D01*
X13641491Y-15182960D02*
X13631967Y-15173436D01*
X13631967Y-15173436D02*
X13622443Y-15154388D01*
X13622443Y-15154388D02*
X13612920Y-15116293D01*
X13612920Y-15116293D02*
X13612920Y-15068674D01*
X13612920Y-15068674D02*
X13622443Y-15030579D01*
X13622443Y-15030579D02*
X13631967Y-15011531D01*
X13631967Y-15011531D02*
X13641491Y-15002008D01*
X13641491Y-15002008D02*
X13660539Y-14992484D01*
X13812920Y-15192484D02*
X13812920Y-15059150D01*
X13812920Y-15078198D02*
X13822443Y-15068674D01*
X13822443Y-15068674D02*
X13841491Y-15059150D01*
X13841491Y-15059150D02*
X13870063Y-15059150D01*
X13870063Y-15059150D02*
X13889110Y-15068674D01*
X13889110Y-15068674D02*
X13898634Y-15087722D01*
X13898634Y-15087722D02*
X13898634Y-15192484D01*
X13898634Y-15087722D02*
X13908158Y-15068674D01*
X13908158Y-15068674D02*
X13927205Y-15059150D01*
X13927205Y-15059150D02*
X13955777Y-15059150D01*
X13955777Y-15059150D02*
X13974824Y-15068674D01*
X13974824Y-15068674D02*
X13984348Y-15087722D01*
X13984348Y-15087722D02*
X13984348Y-15192484D01*
X14079586Y-15192484D02*
X14079586Y-15059150D01*
X14079586Y-15078198D02*
X14089110Y-15068674D01*
X14089110Y-15068674D02*
X14108158Y-15059150D01*
X14108158Y-15059150D02*
X14136729Y-15059150D01*
X14136729Y-15059150D02*
X14155777Y-15068674D01*
X14155777Y-15068674D02*
X14165301Y-15087722D01*
X14165301Y-15087722D02*
X14165301Y-15192484D01*
X14165301Y-15087722D02*
X14174824Y-15068674D01*
X14174824Y-15068674D02*
X14193872Y-15059150D01*
X14193872Y-15059150D02*
X14222443Y-15059150D01*
X14222443Y-15059150D02*
X14241491Y-15068674D01*
X14241491Y-15068674D02*
X14251015Y-15087722D01*
X14251015Y-15087722D02*
X14251015Y-15192484D01*
X14641491Y-14982960D02*
X14470063Y-15240103D01*
X14898634Y-14992484D02*
X14917682Y-14992484D01*
X14917682Y-14992484D02*
X14936729Y-15002008D01*
X14936729Y-15002008D02*
X14946253Y-15011531D01*
X14946253Y-15011531D02*
X14955777Y-15030579D01*
X14955777Y-15030579D02*
X14965301Y-15068674D01*
X14965301Y-15068674D02*
X14965301Y-15116293D01*
X14965301Y-15116293D02*
X14955777Y-15154388D01*
X14955777Y-15154388D02*
X14946253Y-15173436D01*
X14946253Y-15173436D02*
X14936729Y-15182960D01*
X14936729Y-15182960D02*
X14917682Y-15192484D01*
X14917682Y-15192484D02*
X14898634Y-15192484D01*
X14898634Y-15192484D02*
X14879586Y-15182960D01*
X14879586Y-15182960D02*
X14870063Y-15173436D01*
X14870063Y-15173436D02*
X14860539Y-15154388D01*
X14860539Y-15154388D02*
X14851015Y-15116293D01*
X14851015Y-15116293D02*
X14851015Y-15068674D01*
X14851015Y-15068674D02*
X14860539Y-15030579D01*
X14860539Y-15030579D02*
X14870063Y-15011531D01*
X14870063Y-15011531D02*
X14879586Y-15002008D01*
X14879586Y-15002008D02*
X14898634Y-14992484D01*
X15051015Y-15173436D02*
X15060539Y-15182960D01*
X15060539Y-15182960D02*
X15051015Y-15192484D01*
X15051015Y-15192484D02*
X15041491Y-15182960D01*
X15041491Y-15182960D02*
X15051015Y-15173436D01*
X15051015Y-15173436D02*
X15051015Y-15192484D01*
X15184348Y-14992484D02*
X15203396Y-14992484D01*
X15203396Y-14992484D02*
X15222444Y-15002008D01*
X15222444Y-15002008D02*
X15231967Y-15011531D01*
X15231967Y-15011531D02*
X15241491Y-15030579D01*
X15241491Y-15030579D02*
X15251015Y-15068674D01*
X15251015Y-15068674D02*
X15251015Y-15116293D01*
X15251015Y-15116293D02*
X15241491Y-15154388D01*
X15241491Y-15154388D02*
X15231967Y-15173436D01*
X15231967Y-15173436D02*
X15222444Y-15182960D01*
X15222444Y-15182960D02*
X15203396Y-15192484D01*
X15203396Y-15192484D02*
X15184348Y-15192484D01*
X15184348Y-15192484D02*
X15165301Y-15182960D01*
X15165301Y-15182960D02*
X15155777Y-15173436D01*
X15155777Y-15173436D02*
X15146253Y-15154388D01*
X15146253Y-15154388D02*
X15136729Y-15116293D01*
X15136729Y-15116293D02*
X15136729Y-15068674D01*
X15136729Y-15068674D02*
X15146253Y-15030579D01*
X15146253Y-15030579D02*
X15155777Y-15011531D01*
X15155777Y-15011531D02*
X15165301Y-15002008D01*
X15165301Y-15002008D02*
X15184348Y-14992484D01*
X15327206Y-15011531D02*
X15336729Y-15002008D01*
X15336729Y-15002008D02*
X15355777Y-14992484D01*
X15355777Y-14992484D02*
X15403396Y-14992484D01*
X15403396Y-14992484D02*
X15422444Y-15002008D01*
X15422444Y-15002008D02*
X15431967Y-15011531D01*
X15431967Y-15011531D02*
X15441491Y-15030579D01*
X15441491Y-15030579D02*
X15441491Y-15049627D01*
X15441491Y-15049627D02*
X15431967Y-15078198D01*
X15431967Y-15078198D02*
X15317682Y-15192484D01*
X15317682Y-15192484D02*
X15441491Y-15192484D01*
X15508158Y-14992484D02*
X15631967Y-14992484D01*
X15631967Y-14992484D02*
X15565301Y-15068674D01*
X15565301Y-15068674D02*
X15593872Y-15068674D01*
X15593872Y-15068674D02*
X15612920Y-15078198D01*
X15612920Y-15078198D02*
X15622444Y-15087722D01*
X15622444Y-15087722D02*
X15631967Y-15106769D01*
X15631967Y-15106769D02*
X15631967Y-15154388D01*
X15631967Y-15154388D02*
X15622444Y-15173436D01*
X15622444Y-15173436D02*
X15612920Y-15182960D01*
X15612920Y-15182960D02*
X15593872Y-15192484D01*
X15593872Y-15192484D02*
X15536729Y-15192484D01*
X15536729Y-15192484D02*
X15517682Y-15182960D01*
X15517682Y-15182960D02*
X15508158Y-15173436D01*
X15803396Y-14992484D02*
X15765301Y-14992484D01*
X15765301Y-14992484D02*
X15746253Y-15002008D01*
X15746253Y-15002008D02*
X15736729Y-15011531D01*
X15736729Y-15011531D02*
X15717682Y-15040103D01*
X15717682Y-15040103D02*
X15708158Y-15078198D01*
X15708158Y-15078198D02*
X15708158Y-15154388D01*
X15708158Y-15154388D02*
X15717682Y-15173436D01*
X15717682Y-15173436D02*
X15727206Y-15182960D01*
X15727206Y-15182960D02*
X15746253Y-15192484D01*
X15746253Y-15192484D02*
X15784348Y-15192484D01*
X15784348Y-15192484D02*
X15803396Y-15182960D01*
X15803396Y-15182960D02*
X15812920Y-15173436D01*
X15812920Y-15173436D02*
X15822444Y-15154388D01*
X15822444Y-15154388D02*
X15822444Y-15106769D01*
X15822444Y-15106769D02*
X15812920Y-15087722D01*
X15812920Y-15087722D02*
X15803396Y-15078198D01*
X15803396Y-15078198D02*
X15784348Y-15068674D01*
X15784348Y-15068674D02*
X15746253Y-15068674D01*
X15746253Y-15068674D02*
X15727206Y-15078198D01*
X15727206Y-15078198D02*
X15717682Y-15087722D01*
X15717682Y-15087722D02*
X15708158Y-15106769D01*
X15898634Y-14992484D02*
X15898634Y-15030579D01*
X15974825Y-14992484D02*
X15974825Y-15030579D01*
X16270063Y-15268674D02*
X16260539Y-15259150D01*
X16260539Y-15259150D02*
X16241491Y-15230579D01*
X16241491Y-15230579D02*
X16231968Y-15211531D01*
X16231968Y-15211531D02*
X16222444Y-15182960D01*
X16222444Y-15182960D02*
X16212920Y-15135341D01*
X16212920Y-15135341D02*
X16212920Y-15097246D01*
X16212920Y-15097246D02*
X16222444Y-15049627D01*
X16222444Y-15049627D02*
X16231968Y-15021055D01*
X16231968Y-15021055D02*
X16241491Y-15002008D01*
X16241491Y-15002008D02*
X16260539Y-14973436D01*
X16260539Y-14973436D02*
X16270063Y-14963912D01*
X16384348Y-14992484D02*
X16403396Y-14992484D01*
X16403396Y-14992484D02*
X16422444Y-15002008D01*
X16422444Y-15002008D02*
X16431968Y-15011531D01*
X16431968Y-15011531D02*
X16441491Y-15030579D01*
X16441491Y-15030579D02*
X16451015Y-15068674D01*
X16451015Y-15068674D02*
X16451015Y-15116293D01*
X16451015Y-15116293D02*
X16441491Y-15154388D01*
X16441491Y-15154388D02*
X16431968Y-15173436D01*
X16431968Y-15173436D02*
X16422444Y-15182960D01*
X16422444Y-15182960D02*
X16403396Y-15192484D01*
X16403396Y-15192484D02*
X16384348Y-15192484D01*
X16384348Y-15192484D02*
X16365301Y-15182960D01*
X16365301Y-15182960D02*
X16355777Y-15173436D01*
X16355777Y-15173436D02*
X16346253Y-15154388D01*
X16346253Y-15154388D02*
X16336729Y-15116293D01*
X16336729Y-15116293D02*
X16336729Y-15068674D01*
X16336729Y-15068674D02*
X16346253Y-15030579D01*
X16346253Y-15030579D02*
X16355777Y-15011531D01*
X16355777Y-15011531D02*
X16365301Y-15002008D01*
X16365301Y-15002008D02*
X16384348Y-14992484D01*
X16689110Y-15192484D02*
X16689110Y-14992484D01*
X16774825Y-15192484D02*
X16774825Y-15087722D01*
X16774825Y-15087722D02*
X16765301Y-15068674D01*
X16765301Y-15068674D02*
X16746253Y-15059150D01*
X16746253Y-15059150D02*
X16717682Y-15059150D01*
X16717682Y-15059150D02*
X16698634Y-15068674D01*
X16698634Y-15068674D02*
X16689110Y-15078198D01*
X16898634Y-15192484D02*
X16879587Y-15182960D01*
X16879587Y-15182960D02*
X16870063Y-15173436D01*
X16870063Y-15173436D02*
X16860539Y-15154388D01*
X16860539Y-15154388D02*
X16860539Y-15097246D01*
X16860539Y-15097246D02*
X16870063Y-15078198D01*
X16870063Y-15078198D02*
X16879587Y-15068674D01*
X16879587Y-15068674D02*
X16898634Y-15059150D01*
X16898634Y-15059150D02*
X16927206Y-15059150D01*
X16927206Y-15059150D02*
X16946253Y-15068674D01*
X16946253Y-15068674D02*
X16955777Y-15078198D01*
X16955777Y-15078198D02*
X16965301Y-15097246D01*
X16965301Y-15097246D02*
X16965301Y-15154388D01*
X16965301Y-15154388D02*
X16955777Y-15173436D01*
X16955777Y-15173436D02*
X16946253Y-15182960D01*
X16946253Y-15182960D02*
X16927206Y-15192484D01*
X16927206Y-15192484D02*
X16898634Y-15192484D01*
X17079587Y-15192484D02*
X17060539Y-15182960D01*
X17060539Y-15182960D02*
X17051015Y-15163912D01*
X17051015Y-15163912D02*
X17051015Y-14992484D01*
X17231968Y-15182960D02*
X17212920Y-15192484D01*
X17212920Y-15192484D02*
X17174825Y-15192484D01*
X17174825Y-15192484D02*
X17155777Y-15182960D01*
X17155777Y-15182960D02*
X17146253Y-15163912D01*
X17146253Y-15163912D02*
X17146253Y-15087722D01*
X17146253Y-15087722D02*
X17155777Y-15068674D01*
X17155777Y-15068674D02*
X17174825Y-15059150D01*
X17174825Y-15059150D02*
X17212920Y-15059150D01*
X17212920Y-15059150D02*
X17231968Y-15068674D01*
X17231968Y-15068674D02*
X17241492Y-15087722D01*
X17241492Y-15087722D02*
X17241492Y-15106769D01*
X17241492Y-15106769D02*
X17146253Y-15125817D01*
X17317682Y-15182960D02*
X17336730Y-15192484D01*
X17336730Y-15192484D02*
X17374825Y-15192484D01*
X17374825Y-15192484D02*
X17393873Y-15182960D01*
X17393873Y-15182960D02*
X17403396Y-15163912D01*
X17403396Y-15163912D02*
X17403396Y-15154388D01*
X17403396Y-15154388D02*
X17393873Y-15135341D01*
X17393873Y-15135341D02*
X17374825Y-15125817D01*
X17374825Y-15125817D02*
X17346253Y-15125817D01*
X17346253Y-15125817D02*
X17327206Y-15116293D01*
X17327206Y-15116293D02*
X17317682Y-15097246D01*
X17317682Y-15097246D02*
X17317682Y-15087722D01*
X17317682Y-15087722D02*
X17327206Y-15068674D01*
X17327206Y-15068674D02*
X17346253Y-15059150D01*
X17346253Y-15059150D02*
X17374825Y-15059150D01*
X17374825Y-15059150D02*
X17393873Y-15068674D01*
X17641492Y-15116293D02*
X17793873Y-15116293D01*
X17717682Y-15192484D02*
X17717682Y-15040103D01*
X18127206Y-15059150D02*
X18127206Y-15192484D01*
X18079587Y-14982960D02*
X18031968Y-15125817D01*
X18031968Y-15125817D02*
X18155777Y-15125817D01*
X18374825Y-15182960D02*
X18393873Y-15192484D01*
X18393873Y-15192484D02*
X18431968Y-15192484D01*
X18431968Y-15192484D02*
X18451016Y-15182960D01*
X18451016Y-15182960D02*
X18460539Y-15163912D01*
X18460539Y-15163912D02*
X18460539Y-15154388D01*
X18460539Y-15154388D02*
X18451016Y-15135341D01*
X18451016Y-15135341D02*
X18431968Y-15125817D01*
X18431968Y-15125817D02*
X18403396Y-15125817D01*
X18403396Y-15125817D02*
X18384349Y-15116293D01*
X18384349Y-15116293D02*
X18374825Y-15097246D01*
X18374825Y-15097246D02*
X18374825Y-15087722D01*
X18374825Y-15087722D02*
X18384349Y-15068674D01*
X18384349Y-15068674D02*
X18403396Y-15059150D01*
X18403396Y-15059150D02*
X18431968Y-15059150D01*
X18431968Y-15059150D02*
X18451016Y-15068674D01*
X18574825Y-15192484D02*
X18555777Y-15182960D01*
X18555777Y-15182960D02*
X18546254Y-15163912D01*
X18546254Y-15163912D02*
X18546254Y-14992484D01*
X18679587Y-15192484D02*
X18660539Y-15182960D01*
X18660539Y-15182960D02*
X18651016Y-15173436D01*
X18651016Y-15173436D02*
X18641492Y-15154388D01*
X18641492Y-15154388D02*
X18641492Y-15097246D01*
X18641492Y-15097246D02*
X18651016Y-15078198D01*
X18651016Y-15078198D02*
X18660539Y-15068674D01*
X18660539Y-15068674D02*
X18679587Y-15059150D01*
X18679587Y-15059150D02*
X18708158Y-15059150D01*
X18708158Y-15059150D02*
X18727206Y-15068674D01*
X18727206Y-15068674D02*
X18736730Y-15078198D01*
X18736730Y-15078198D02*
X18746254Y-15097246D01*
X18746254Y-15097246D02*
X18746254Y-15154388D01*
X18746254Y-15154388D02*
X18736730Y-15173436D01*
X18736730Y-15173436D02*
X18727206Y-15182960D01*
X18727206Y-15182960D02*
X18708158Y-15192484D01*
X18708158Y-15192484D02*
X18679587Y-15192484D01*
X18803397Y-15059150D02*
X18879587Y-15059150D01*
X18831968Y-14992484D02*
X18831968Y-15163912D01*
X18831968Y-15163912D02*
X18841492Y-15182960D01*
X18841492Y-15182960D02*
X18860539Y-15192484D01*
X18860539Y-15192484D02*
X18879587Y-15192484D01*
X18936730Y-15182960D02*
X18955777Y-15192484D01*
X18955777Y-15192484D02*
X18993873Y-15192484D01*
X18993873Y-15192484D02*
X19012920Y-15182960D01*
X19012920Y-15182960D02*
X19022444Y-15163912D01*
X19022444Y-15163912D02*
X19022444Y-15154388D01*
X19022444Y-15154388D02*
X19012920Y-15135341D01*
X19012920Y-15135341D02*
X18993873Y-15125817D01*
X18993873Y-15125817D02*
X18965301Y-15125817D01*
X18965301Y-15125817D02*
X18946254Y-15116293D01*
X18946254Y-15116293D02*
X18936730Y-15097246D01*
X18936730Y-15097246D02*
X18936730Y-15087722D01*
X18936730Y-15087722D02*
X18946254Y-15068674D01*
X18946254Y-15068674D02*
X18965301Y-15059150D01*
X18965301Y-15059150D02*
X18993873Y-15059150D01*
X18993873Y-15059150D02*
X19012920Y-15068674D01*
X19089111Y-15268674D02*
X19098635Y-15259150D01*
X19098635Y-15259150D02*
X19117682Y-15230579D01*
X19117682Y-15230579D02*
X19127206Y-15211531D01*
X19127206Y-15211531D02*
X19136730Y-15182960D01*
X19136730Y-15182960D02*
X19146254Y-15135341D01*
X19146254Y-15135341D02*
X19146254Y-15097246D01*
X19146254Y-15097246D02*
X19136730Y-15049627D01*
X19136730Y-15049627D02*
X19127206Y-15021055D01*
X19127206Y-15021055D02*
X19117682Y-15002008D01*
X19117682Y-15002008D02*
X19098635Y-14973436D01*
X19098635Y-14973436D02*
X19089111Y-14963912D01*
D10*
X12618800Y-15326900D02*
X12695000Y-15403100D01*
X12695000Y-15326900D02*
X12618800Y-15403100D01*
X12695000Y-15365000D02*
G75*
G03*
X12618800Y-15365000I-38100J0D01*
G01*
X12618800Y-15365000D02*
G75*
G03*
X12695000Y-15365000I38100J0D01*
G01*
D11*
X12993872Y-15256484D02*
X13012920Y-15256484D01*
X13012920Y-15256484D02*
X13031967Y-15266008D01*
X13031967Y-15266008D02*
X13041491Y-15275531D01*
X13041491Y-15275531D02*
X13051015Y-15294579D01*
X13051015Y-15294579D02*
X13060539Y-15332674D01*
X13060539Y-15332674D02*
X13060539Y-15380293D01*
X13060539Y-15380293D02*
X13051015Y-15418388D01*
X13051015Y-15418388D02*
X13041491Y-15437436D01*
X13041491Y-15437436D02*
X13031967Y-15446960D01*
X13031967Y-15446960D02*
X13012920Y-15456484D01*
X13012920Y-15456484D02*
X12993872Y-15456484D01*
X12993872Y-15456484D02*
X12974824Y-15446960D01*
X12974824Y-15446960D02*
X12965301Y-15437436D01*
X12965301Y-15437436D02*
X12955777Y-15418388D01*
X12955777Y-15418388D02*
X12946253Y-15380293D01*
X12946253Y-15380293D02*
X12946253Y-15332674D01*
X12946253Y-15332674D02*
X12955777Y-15294579D01*
X12955777Y-15294579D02*
X12965301Y-15275531D01*
X12965301Y-15275531D02*
X12974824Y-15266008D01*
X12974824Y-15266008D02*
X12993872Y-15256484D01*
X13146253Y-15437436D02*
X13155777Y-15446960D01*
X13155777Y-15446960D02*
X13146253Y-15456484D01*
X13146253Y-15456484D02*
X13136729Y-15446960D01*
X13136729Y-15446960D02*
X13146253Y-15437436D01*
X13146253Y-15437436D02*
X13146253Y-15456484D01*
X13222443Y-15256484D02*
X13355777Y-15256484D01*
X13355777Y-15256484D02*
X13270062Y-15456484D01*
X13517682Y-15256484D02*
X13479586Y-15256484D01*
X13479586Y-15256484D02*
X13460539Y-15266008D01*
X13460539Y-15266008D02*
X13451015Y-15275531D01*
X13451015Y-15275531D02*
X13431967Y-15304103D01*
X13431967Y-15304103D02*
X13422443Y-15342198D01*
X13422443Y-15342198D02*
X13422443Y-15418388D01*
X13422443Y-15418388D02*
X13431967Y-15437436D01*
X13431967Y-15437436D02*
X13441491Y-15446960D01*
X13441491Y-15446960D02*
X13460539Y-15456484D01*
X13460539Y-15456484D02*
X13498634Y-15456484D01*
X13498634Y-15456484D02*
X13517682Y-15446960D01*
X13517682Y-15446960D02*
X13527205Y-15437436D01*
X13527205Y-15437436D02*
X13536729Y-15418388D01*
X13536729Y-15418388D02*
X13536729Y-15370769D01*
X13536729Y-15370769D02*
X13527205Y-15351722D01*
X13527205Y-15351722D02*
X13517682Y-15342198D01*
X13517682Y-15342198D02*
X13498634Y-15332674D01*
X13498634Y-15332674D02*
X13460539Y-15332674D01*
X13460539Y-15332674D02*
X13441491Y-15342198D01*
X13441491Y-15342198D02*
X13431967Y-15351722D01*
X13431967Y-15351722D02*
X13422443Y-15370769D01*
X13612920Y-15275531D02*
X13622443Y-15266008D01*
X13622443Y-15266008D02*
X13641491Y-15256484D01*
X13641491Y-15256484D02*
X13689110Y-15256484D01*
X13689110Y-15256484D02*
X13708158Y-15266008D01*
X13708158Y-15266008D02*
X13717682Y-15275531D01*
X13717682Y-15275531D02*
X13727205Y-15294579D01*
X13727205Y-15294579D02*
X13727205Y-15313627D01*
X13727205Y-15313627D02*
X13717682Y-15342198D01*
X13717682Y-15342198D02*
X13603396Y-15456484D01*
X13603396Y-15456484D02*
X13727205Y-15456484D01*
X13812920Y-15456484D02*
X13812920Y-15323150D01*
X13812920Y-15342198D02*
X13822443Y-15332674D01*
X13822443Y-15332674D02*
X13841491Y-15323150D01*
X13841491Y-15323150D02*
X13870063Y-15323150D01*
X13870063Y-15323150D02*
X13889110Y-15332674D01*
X13889110Y-15332674D02*
X13898634Y-15351722D01*
X13898634Y-15351722D02*
X13898634Y-15456484D01*
X13898634Y-15351722D02*
X13908158Y-15332674D01*
X13908158Y-15332674D02*
X13927205Y-15323150D01*
X13927205Y-15323150D02*
X13955777Y-15323150D01*
X13955777Y-15323150D02*
X13974824Y-15332674D01*
X13974824Y-15332674D02*
X13984348Y-15351722D01*
X13984348Y-15351722D02*
X13984348Y-15456484D01*
X14079586Y-15456484D02*
X14079586Y-15323150D01*
X14079586Y-15342198D02*
X14089110Y-15332674D01*
X14089110Y-15332674D02*
X14108158Y-15323150D01*
X14108158Y-15323150D02*
X14136729Y-15323150D01*
X14136729Y-15323150D02*
X14155777Y-15332674D01*
X14155777Y-15332674D02*
X14165301Y-15351722D01*
X14165301Y-15351722D02*
X14165301Y-15456484D01*
X14165301Y-15351722D02*
X14174824Y-15332674D01*
X14174824Y-15332674D02*
X14193872Y-15323150D01*
X14193872Y-15323150D02*
X14222443Y-15323150D01*
X14222443Y-15323150D02*
X14241491Y-15332674D01*
X14241491Y-15332674D02*
X14251015Y-15351722D01*
X14251015Y-15351722D02*
X14251015Y-15456484D01*
X14641491Y-15246960D02*
X14470063Y-15504103D01*
X14898634Y-15256484D02*
X14917682Y-15256484D01*
X14917682Y-15256484D02*
X14936729Y-15266008D01*
X14936729Y-15266008D02*
X14946253Y-15275531D01*
X14946253Y-15275531D02*
X14955777Y-15294579D01*
X14955777Y-15294579D02*
X14965301Y-15332674D01*
X14965301Y-15332674D02*
X14965301Y-15380293D01*
X14965301Y-15380293D02*
X14955777Y-15418388D01*
X14955777Y-15418388D02*
X14946253Y-15437436D01*
X14946253Y-15437436D02*
X14936729Y-15446960D01*
X14936729Y-15446960D02*
X14917682Y-15456484D01*
X14917682Y-15456484D02*
X14898634Y-15456484D01*
X14898634Y-15456484D02*
X14879586Y-15446960D01*
X14879586Y-15446960D02*
X14870063Y-15437436D01*
X14870063Y-15437436D02*
X14860539Y-15418388D01*
X14860539Y-15418388D02*
X14851015Y-15380293D01*
X14851015Y-15380293D02*
X14851015Y-15332674D01*
X14851015Y-15332674D02*
X14860539Y-15294579D01*
X14860539Y-15294579D02*
X14870063Y-15275531D01*
X14870063Y-15275531D02*
X14879586Y-15266008D01*
X14879586Y-15266008D02*
X14898634Y-15256484D01*
X15051015Y-15437436D02*
X15060539Y-15446960D01*
X15060539Y-15446960D02*
X15051015Y-15456484D01*
X15051015Y-15456484D02*
X15041491Y-15446960D01*
X15041491Y-15446960D02*
X15051015Y-15437436D01*
X15051015Y-15437436D02*
X15051015Y-15456484D01*
X15184348Y-15256484D02*
X15203396Y-15256484D01*
X15203396Y-15256484D02*
X15222444Y-15266008D01*
X15222444Y-15266008D02*
X15231967Y-15275531D01*
X15231967Y-15275531D02*
X15241491Y-15294579D01*
X15241491Y-15294579D02*
X15251015Y-15332674D01*
X15251015Y-15332674D02*
X15251015Y-15380293D01*
X15251015Y-15380293D02*
X15241491Y-15418388D01*
X15241491Y-15418388D02*
X15231967Y-15437436D01*
X15231967Y-15437436D02*
X15222444Y-15446960D01*
X15222444Y-15446960D02*
X15203396Y-15456484D01*
X15203396Y-15456484D02*
X15184348Y-15456484D01*
X15184348Y-15456484D02*
X15165301Y-15446960D01*
X15165301Y-15446960D02*
X15155777Y-15437436D01*
X15155777Y-15437436D02*
X15146253Y-15418388D01*
X15146253Y-15418388D02*
X15136729Y-15380293D01*
X15136729Y-15380293D02*
X15136729Y-15332674D01*
X15136729Y-15332674D02*
X15146253Y-15294579D01*
X15146253Y-15294579D02*
X15155777Y-15275531D01*
X15155777Y-15275531D02*
X15165301Y-15266008D01*
X15165301Y-15266008D02*
X15184348Y-15256484D01*
X15317682Y-15256484D02*
X15441491Y-15256484D01*
X15441491Y-15256484D02*
X15374825Y-15332674D01*
X15374825Y-15332674D02*
X15403396Y-15332674D01*
X15403396Y-15332674D02*
X15422444Y-15342198D01*
X15422444Y-15342198D02*
X15431967Y-15351722D01*
X15431967Y-15351722D02*
X15441491Y-15370769D01*
X15441491Y-15370769D02*
X15441491Y-15418388D01*
X15441491Y-15418388D02*
X15431967Y-15437436D01*
X15431967Y-15437436D02*
X15422444Y-15446960D01*
X15422444Y-15446960D02*
X15403396Y-15456484D01*
X15403396Y-15456484D02*
X15346253Y-15456484D01*
X15346253Y-15456484D02*
X15327206Y-15446960D01*
X15327206Y-15446960D02*
X15317682Y-15437436D01*
X15565301Y-15256484D02*
X15584348Y-15256484D01*
X15584348Y-15256484D02*
X15603396Y-15266008D01*
X15603396Y-15266008D02*
X15612920Y-15275531D01*
X15612920Y-15275531D02*
X15622444Y-15294579D01*
X15622444Y-15294579D02*
X15631967Y-15332674D01*
X15631967Y-15332674D02*
X15631967Y-15380293D01*
X15631967Y-15380293D02*
X15622444Y-15418388D01*
X15622444Y-15418388D02*
X15612920Y-15437436D01*
X15612920Y-15437436D02*
X15603396Y-15446960D01*
X15603396Y-15446960D02*
X15584348Y-15456484D01*
X15584348Y-15456484D02*
X15565301Y-15456484D01*
X15565301Y-15456484D02*
X15546253Y-15446960D01*
X15546253Y-15446960D02*
X15536729Y-15437436D01*
X15536729Y-15437436D02*
X15527206Y-15418388D01*
X15527206Y-15418388D02*
X15517682Y-15380293D01*
X15517682Y-15380293D02*
X15517682Y-15332674D01*
X15517682Y-15332674D02*
X15527206Y-15294579D01*
X15527206Y-15294579D02*
X15536729Y-15275531D01*
X15536729Y-15275531D02*
X15546253Y-15266008D01*
X15546253Y-15266008D02*
X15565301Y-15256484D01*
X15755777Y-15256484D02*
X15774825Y-15256484D01*
X15774825Y-15256484D02*
X15793872Y-15266008D01*
X15793872Y-15266008D02*
X15803396Y-15275531D01*
X15803396Y-15275531D02*
X15812920Y-15294579D01*
X15812920Y-15294579D02*
X15822444Y-15332674D01*
X15822444Y-15332674D02*
X15822444Y-15380293D01*
X15822444Y-15380293D02*
X15812920Y-15418388D01*
X15812920Y-15418388D02*
X15803396Y-15437436D01*
X15803396Y-15437436D02*
X15793872Y-15446960D01*
X15793872Y-15446960D02*
X15774825Y-15456484D01*
X15774825Y-15456484D02*
X15755777Y-15456484D01*
X15755777Y-15456484D02*
X15736729Y-15446960D01*
X15736729Y-15446960D02*
X15727206Y-15437436D01*
X15727206Y-15437436D02*
X15717682Y-15418388D01*
X15717682Y-15418388D02*
X15708158Y-15380293D01*
X15708158Y-15380293D02*
X15708158Y-15332674D01*
X15708158Y-15332674D02*
X15717682Y-15294579D01*
X15717682Y-15294579D02*
X15727206Y-15275531D01*
X15727206Y-15275531D02*
X15736729Y-15266008D01*
X15736729Y-15266008D02*
X15755777Y-15256484D01*
X15898634Y-15256484D02*
X15898634Y-15294579D01*
X15974825Y-15256484D02*
X15974825Y-15294579D01*
X16270063Y-15532674D02*
X16260539Y-15523150D01*
X16260539Y-15523150D02*
X16241491Y-15494579D01*
X16241491Y-15494579D02*
X16231968Y-15475531D01*
X16231968Y-15475531D02*
X16222444Y-15446960D01*
X16222444Y-15446960D02*
X16212920Y-15399341D01*
X16212920Y-15399341D02*
X16212920Y-15361246D01*
X16212920Y-15361246D02*
X16222444Y-15313627D01*
X16222444Y-15313627D02*
X16231968Y-15285055D01*
X16231968Y-15285055D02*
X16241491Y-15266008D01*
X16241491Y-15266008D02*
X16260539Y-15237436D01*
X16260539Y-15237436D02*
X16270063Y-15227912D01*
X16327206Y-15256484D02*
X16451015Y-15256484D01*
X16451015Y-15256484D02*
X16384348Y-15332674D01*
X16384348Y-15332674D02*
X16412920Y-15332674D01*
X16412920Y-15332674D02*
X16431968Y-15342198D01*
X16431968Y-15342198D02*
X16441491Y-15351722D01*
X16441491Y-15351722D02*
X16451015Y-15370769D01*
X16451015Y-15370769D02*
X16451015Y-15418388D01*
X16451015Y-15418388D02*
X16441491Y-15437436D01*
X16441491Y-15437436D02*
X16431968Y-15446960D01*
X16431968Y-15446960D02*
X16412920Y-15456484D01*
X16412920Y-15456484D02*
X16355777Y-15456484D01*
X16355777Y-15456484D02*
X16336729Y-15446960D01*
X16336729Y-15446960D02*
X16327206Y-15437436D01*
X16689110Y-15456484D02*
X16689110Y-15256484D01*
X16774825Y-15456484D02*
X16774825Y-15351722D01*
X16774825Y-15351722D02*
X16765301Y-15332674D01*
X16765301Y-15332674D02*
X16746253Y-15323150D01*
X16746253Y-15323150D02*
X16717682Y-15323150D01*
X16717682Y-15323150D02*
X16698634Y-15332674D01*
X16698634Y-15332674D02*
X16689110Y-15342198D01*
X16898634Y-15456484D02*
X16879587Y-15446960D01*
X16879587Y-15446960D02*
X16870063Y-15437436D01*
X16870063Y-15437436D02*
X16860539Y-15418388D01*
X16860539Y-15418388D02*
X16860539Y-15361246D01*
X16860539Y-15361246D02*
X16870063Y-15342198D01*
X16870063Y-15342198D02*
X16879587Y-15332674D01*
X16879587Y-15332674D02*
X16898634Y-15323150D01*
X16898634Y-15323150D02*
X16927206Y-15323150D01*
X16927206Y-15323150D02*
X16946253Y-15332674D01*
X16946253Y-15332674D02*
X16955777Y-15342198D01*
X16955777Y-15342198D02*
X16965301Y-15361246D01*
X16965301Y-15361246D02*
X16965301Y-15418388D01*
X16965301Y-15418388D02*
X16955777Y-15437436D01*
X16955777Y-15437436D02*
X16946253Y-15446960D01*
X16946253Y-15446960D02*
X16927206Y-15456484D01*
X16927206Y-15456484D02*
X16898634Y-15456484D01*
X17079587Y-15456484D02*
X17060539Y-15446960D01*
X17060539Y-15446960D02*
X17051015Y-15427912D01*
X17051015Y-15427912D02*
X17051015Y-15256484D01*
X17231968Y-15446960D02*
X17212920Y-15456484D01*
X17212920Y-15456484D02*
X17174825Y-15456484D01*
X17174825Y-15456484D02*
X17155777Y-15446960D01*
X17155777Y-15446960D02*
X17146253Y-15427912D01*
X17146253Y-15427912D02*
X17146253Y-15351722D01*
X17146253Y-15351722D02*
X17155777Y-15332674D01*
X17155777Y-15332674D02*
X17174825Y-15323150D01*
X17174825Y-15323150D02*
X17212920Y-15323150D01*
X17212920Y-15323150D02*
X17231968Y-15332674D01*
X17231968Y-15332674D02*
X17241492Y-15351722D01*
X17241492Y-15351722D02*
X17241492Y-15370769D01*
X17241492Y-15370769D02*
X17146253Y-15389817D01*
X17317682Y-15446960D02*
X17336730Y-15456484D01*
X17336730Y-15456484D02*
X17374825Y-15456484D01*
X17374825Y-15456484D02*
X17393873Y-15446960D01*
X17393873Y-15446960D02*
X17403396Y-15427912D01*
X17403396Y-15427912D02*
X17403396Y-15418388D01*
X17403396Y-15418388D02*
X17393873Y-15399341D01*
X17393873Y-15399341D02*
X17374825Y-15389817D01*
X17374825Y-15389817D02*
X17346253Y-15389817D01*
X17346253Y-15389817D02*
X17327206Y-15380293D01*
X17327206Y-15380293D02*
X17317682Y-15361246D01*
X17317682Y-15361246D02*
X17317682Y-15351722D01*
X17317682Y-15351722D02*
X17327206Y-15332674D01*
X17327206Y-15332674D02*
X17346253Y-15323150D01*
X17346253Y-15323150D02*
X17374825Y-15323150D01*
X17374825Y-15323150D02*
X17393873Y-15332674D01*
X17470063Y-15532674D02*
X17479587Y-15523150D01*
X17479587Y-15523150D02*
X17498634Y-15494579D01*
X17498634Y-15494579D02*
X17508158Y-15475531D01*
X17508158Y-15475531D02*
X17517682Y-15446960D01*
X17517682Y-15446960D02*
X17527206Y-15399341D01*
X17527206Y-15399341D02*
X17527206Y-15361246D01*
X17527206Y-15361246D02*
X17517682Y-15313627D01*
X17517682Y-15313627D02*
X17508158Y-15285055D01*
X17508158Y-15285055D02*
X17498634Y-15266008D01*
X17498634Y-15266008D02*
X17479587Y-15237436D01*
X17479587Y-15237436D02*
X17470063Y-15227912D01*
D10*
X12595000Y-15579000D02*
X12695000Y-15679000D01*
X12695000Y-15579000D02*
X12595000Y-15679000D01*
X12645000Y-15579000D02*
X12645000Y-15679000D01*
X12595000Y-15629000D02*
X12695000Y-15629000D01*
D11*
X13060539Y-15720484D02*
X12946253Y-15720484D01*
X13003396Y-15720484D02*
X13003396Y-15520484D01*
X13003396Y-15520484D02*
X12984348Y-15549055D01*
X12984348Y-15549055D02*
X12965301Y-15568103D01*
X12965301Y-15568103D02*
X12946253Y-15577627D01*
X13146253Y-15701436D02*
X13155777Y-15710960D01*
X13155777Y-15710960D02*
X13146253Y-15720484D01*
X13146253Y-15720484D02*
X13136729Y-15710960D01*
X13136729Y-15710960D02*
X13146253Y-15701436D01*
X13146253Y-15701436D02*
X13146253Y-15720484D01*
X13279586Y-15520484D02*
X13298634Y-15520484D01*
X13298634Y-15520484D02*
X13317682Y-15530008D01*
X13317682Y-15530008D02*
X13327205Y-15539531D01*
X13327205Y-15539531D02*
X13336729Y-15558579D01*
X13336729Y-15558579D02*
X13346253Y-15596674D01*
X13346253Y-15596674D02*
X13346253Y-15644293D01*
X13346253Y-15644293D02*
X13336729Y-15682388D01*
X13336729Y-15682388D02*
X13327205Y-15701436D01*
X13327205Y-15701436D02*
X13317682Y-15710960D01*
X13317682Y-15710960D02*
X13298634Y-15720484D01*
X13298634Y-15720484D02*
X13279586Y-15720484D01*
X13279586Y-15720484D02*
X13260539Y-15710960D01*
X13260539Y-15710960D02*
X13251015Y-15701436D01*
X13251015Y-15701436D02*
X13241491Y-15682388D01*
X13241491Y-15682388D02*
X13231967Y-15644293D01*
X13231967Y-15644293D02*
X13231967Y-15596674D01*
X13231967Y-15596674D02*
X13241491Y-15558579D01*
X13241491Y-15558579D02*
X13251015Y-15539531D01*
X13251015Y-15539531D02*
X13260539Y-15530008D01*
X13260539Y-15530008D02*
X13279586Y-15520484D01*
X13470062Y-15520484D02*
X13489110Y-15520484D01*
X13489110Y-15520484D02*
X13508158Y-15530008D01*
X13508158Y-15530008D02*
X13517682Y-15539531D01*
X13517682Y-15539531D02*
X13527205Y-15558579D01*
X13527205Y-15558579D02*
X13536729Y-15596674D01*
X13536729Y-15596674D02*
X13536729Y-15644293D01*
X13536729Y-15644293D02*
X13527205Y-15682388D01*
X13527205Y-15682388D02*
X13517682Y-15701436D01*
X13517682Y-15701436D02*
X13508158Y-15710960D01*
X13508158Y-15710960D02*
X13489110Y-15720484D01*
X13489110Y-15720484D02*
X13470062Y-15720484D01*
X13470062Y-15720484D02*
X13451015Y-15710960D01*
X13451015Y-15710960D02*
X13441491Y-15701436D01*
X13441491Y-15701436D02*
X13431967Y-15682388D01*
X13431967Y-15682388D02*
X13422443Y-15644293D01*
X13422443Y-15644293D02*
X13422443Y-15596674D01*
X13422443Y-15596674D02*
X13431967Y-15558579D01*
X13431967Y-15558579D02*
X13441491Y-15539531D01*
X13441491Y-15539531D02*
X13451015Y-15530008D01*
X13451015Y-15530008D02*
X13470062Y-15520484D01*
X13660539Y-15520484D02*
X13679586Y-15520484D01*
X13679586Y-15520484D02*
X13698634Y-15530008D01*
X13698634Y-15530008D02*
X13708158Y-15539531D01*
X13708158Y-15539531D02*
X13717682Y-15558579D01*
X13717682Y-15558579D02*
X13727205Y-15596674D01*
X13727205Y-15596674D02*
X13727205Y-15644293D01*
X13727205Y-15644293D02*
X13717682Y-15682388D01*
X13717682Y-15682388D02*
X13708158Y-15701436D01*
X13708158Y-15701436D02*
X13698634Y-15710960D01*
X13698634Y-15710960D02*
X13679586Y-15720484D01*
X13679586Y-15720484D02*
X13660539Y-15720484D01*
X13660539Y-15720484D02*
X13641491Y-15710960D01*
X13641491Y-15710960D02*
X13631967Y-15701436D01*
X13631967Y-15701436D02*
X13622443Y-15682388D01*
X13622443Y-15682388D02*
X13612920Y-15644293D01*
X13612920Y-15644293D02*
X13612920Y-15596674D01*
X13612920Y-15596674D02*
X13622443Y-15558579D01*
X13622443Y-15558579D02*
X13631967Y-15539531D01*
X13631967Y-15539531D02*
X13641491Y-15530008D01*
X13641491Y-15530008D02*
X13660539Y-15520484D01*
X13812920Y-15720484D02*
X13812920Y-15587150D01*
X13812920Y-15606198D02*
X13822443Y-15596674D01*
X13822443Y-15596674D02*
X13841491Y-15587150D01*
X13841491Y-15587150D02*
X13870063Y-15587150D01*
X13870063Y-15587150D02*
X13889110Y-15596674D01*
X13889110Y-15596674D02*
X13898634Y-15615722D01*
X13898634Y-15615722D02*
X13898634Y-15720484D01*
X13898634Y-15615722D02*
X13908158Y-15596674D01*
X13908158Y-15596674D02*
X13927205Y-15587150D01*
X13927205Y-15587150D02*
X13955777Y-15587150D01*
X13955777Y-15587150D02*
X13974824Y-15596674D01*
X13974824Y-15596674D02*
X13984348Y-15615722D01*
X13984348Y-15615722D02*
X13984348Y-15720484D01*
X14079586Y-15720484D02*
X14079586Y-15587150D01*
X14079586Y-15606198D02*
X14089110Y-15596674D01*
X14089110Y-15596674D02*
X14108158Y-15587150D01*
X14108158Y-15587150D02*
X14136729Y-15587150D01*
X14136729Y-15587150D02*
X14155777Y-15596674D01*
X14155777Y-15596674D02*
X14165301Y-15615722D01*
X14165301Y-15615722D02*
X14165301Y-15720484D01*
X14165301Y-15615722D02*
X14174824Y-15596674D01*
X14174824Y-15596674D02*
X14193872Y-15587150D01*
X14193872Y-15587150D02*
X14222443Y-15587150D01*
X14222443Y-15587150D02*
X14241491Y-15596674D01*
X14241491Y-15596674D02*
X14251015Y-15615722D01*
X14251015Y-15615722D02*
X14251015Y-15720484D01*
X14641491Y-15510960D02*
X14470063Y-15768103D01*
X14898634Y-15520484D02*
X14917682Y-15520484D01*
X14917682Y-15520484D02*
X14936729Y-15530008D01*
X14936729Y-15530008D02*
X14946253Y-15539531D01*
X14946253Y-15539531D02*
X14955777Y-15558579D01*
X14955777Y-15558579D02*
X14965301Y-15596674D01*
X14965301Y-15596674D02*
X14965301Y-15644293D01*
X14965301Y-15644293D02*
X14955777Y-15682388D01*
X14955777Y-15682388D02*
X14946253Y-15701436D01*
X14946253Y-15701436D02*
X14936729Y-15710960D01*
X14936729Y-15710960D02*
X14917682Y-15720484D01*
X14917682Y-15720484D02*
X14898634Y-15720484D01*
X14898634Y-15720484D02*
X14879586Y-15710960D01*
X14879586Y-15710960D02*
X14870063Y-15701436D01*
X14870063Y-15701436D02*
X14860539Y-15682388D01*
X14860539Y-15682388D02*
X14851015Y-15644293D01*
X14851015Y-15644293D02*
X14851015Y-15596674D01*
X14851015Y-15596674D02*
X14860539Y-15558579D01*
X14860539Y-15558579D02*
X14870063Y-15539531D01*
X14870063Y-15539531D02*
X14879586Y-15530008D01*
X14879586Y-15530008D02*
X14898634Y-15520484D01*
X15051015Y-15701436D02*
X15060539Y-15710960D01*
X15060539Y-15710960D02*
X15051015Y-15720484D01*
X15051015Y-15720484D02*
X15041491Y-15710960D01*
X15041491Y-15710960D02*
X15051015Y-15701436D01*
X15051015Y-15701436D02*
X15051015Y-15720484D01*
X15184348Y-15520484D02*
X15203396Y-15520484D01*
X15203396Y-15520484D02*
X15222444Y-15530008D01*
X15222444Y-15530008D02*
X15231967Y-15539531D01*
X15231967Y-15539531D02*
X15241491Y-15558579D01*
X15241491Y-15558579D02*
X15251015Y-15596674D01*
X15251015Y-15596674D02*
X15251015Y-15644293D01*
X15251015Y-15644293D02*
X15241491Y-15682388D01*
X15241491Y-15682388D02*
X15231967Y-15701436D01*
X15231967Y-15701436D02*
X15222444Y-15710960D01*
X15222444Y-15710960D02*
X15203396Y-15720484D01*
X15203396Y-15720484D02*
X15184348Y-15720484D01*
X15184348Y-15720484D02*
X15165301Y-15710960D01*
X15165301Y-15710960D02*
X15155777Y-15701436D01*
X15155777Y-15701436D02*
X15146253Y-15682388D01*
X15146253Y-15682388D02*
X15136729Y-15644293D01*
X15136729Y-15644293D02*
X15136729Y-15596674D01*
X15136729Y-15596674D02*
X15146253Y-15558579D01*
X15146253Y-15558579D02*
X15155777Y-15539531D01*
X15155777Y-15539531D02*
X15165301Y-15530008D01*
X15165301Y-15530008D02*
X15184348Y-15520484D01*
X15317682Y-15520484D02*
X15441491Y-15520484D01*
X15441491Y-15520484D02*
X15374825Y-15596674D01*
X15374825Y-15596674D02*
X15403396Y-15596674D01*
X15403396Y-15596674D02*
X15422444Y-15606198D01*
X15422444Y-15606198D02*
X15431967Y-15615722D01*
X15431967Y-15615722D02*
X15441491Y-15634769D01*
X15441491Y-15634769D02*
X15441491Y-15682388D01*
X15441491Y-15682388D02*
X15431967Y-15701436D01*
X15431967Y-15701436D02*
X15422444Y-15710960D01*
X15422444Y-15710960D02*
X15403396Y-15720484D01*
X15403396Y-15720484D02*
X15346253Y-15720484D01*
X15346253Y-15720484D02*
X15327206Y-15710960D01*
X15327206Y-15710960D02*
X15317682Y-15701436D01*
X15536729Y-15720484D02*
X15574825Y-15720484D01*
X15574825Y-15720484D02*
X15593872Y-15710960D01*
X15593872Y-15710960D02*
X15603396Y-15701436D01*
X15603396Y-15701436D02*
X15622444Y-15672865D01*
X15622444Y-15672865D02*
X15631967Y-15634769D01*
X15631967Y-15634769D02*
X15631967Y-15558579D01*
X15631967Y-15558579D02*
X15622444Y-15539531D01*
X15622444Y-15539531D02*
X15612920Y-15530008D01*
X15612920Y-15530008D02*
X15593872Y-15520484D01*
X15593872Y-15520484D02*
X15555777Y-15520484D01*
X15555777Y-15520484D02*
X15536729Y-15530008D01*
X15536729Y-15530008D02*
X15527206Y-15539531D01*
X15527206Y-15539531D02*
X15517682Y-15558579D01*
X15517682Y-15558579D02*
X15517682Y-15606198D01*
X15517682Y-15606198D02*
X15527206Y-15625246D01*
X15527206Y-15625246D02*
X15536729Y-15634769D01*
X15536729Y-15634769D02*
X15555777Y-15644293D01*
X15555777Y-15644293D02*
X15593872Y-15644293D01*
X15593872Y-15644293D02*
X15612920Y-15634769D01*
X15612920Y-15634769D02*
X15622444Y-15625246D01*
X15622444Y-15625246D02*
X15631967Y-15606198D01*
X15803396Y-15587150D02*
X15803396Y-15720484D01*
X15755777Y-15510960D02*
X15708158Y-15653817D01*
X15708158Y-15653817D02*
X15831967Y-15653817D01*
X15898634Y-15520484D02*
X15898634Y-15558579D01*
X15974825Y-15520484D02*
X15974825Y-15558579D01*
X16270063Y-15796674D02*
X16260539Y-15787150D01*
X16260539Y-15787150D02*
X16241491Y-15758579D01*
X16241491Y-15758579D02*
X16231968Y-15739531D01*
X16231968Y-15739531D02*
X16222444Y-15710960D01*
X16222444Y-15710960D02*
X16212920Y-15663341D01*
X16212920Y-15663341D02*
X16212920Y-15625246D01*
X16212920Y-15625246D02*
X16222444Y-15577627D01*
X16222444Y-15577627D02*
X16231968Y-15549055D01*
X16231968Y-15549055D02*
X16241491Y-15530008D01*
X16241491Y-15530008D02*
X16260539Y-15501436D01*
X16260539Y-15501436D02*
X16270063Y-15491912D01*
X16374825Y-15606198D02*
X16355777Y-15596674D01*
X16355777Y-15596674D02*
X16346253Y-15587150D01*
X16346253Y-15587150D02*
X16336729Y-15568103D01*
X16336729Y-15568103D02*
X16336729Y-15558579D01*
X16336729Y-15558579D02*
X16346253Y-15539531D01*
X16346253Y-15539531D02*
X16355777Y-15530008D01*
X16355777Y-15530008D02*
X16374825Y-15520484D01*
X16374825Y-15520484D02*
X16412920Y-15520484D01*
X16412920Y-15520484D02*
X16431968Y-15530008D01*
X16431968Y-15530008D02*
X16441491Y-15539531D01*
X16441491Y-15539531D02*
X16451015Y-15558579D01*
X16451015Y-15558579D02*
X16451015Y-15568103D01*
X16451015Y-15568103D02*
X16441491Y-15587150D01*
X16441491Y-15587150D02*
X16431968Y-15596674D01*
X16431968Y-15596674D02*
X16412920Y-15606198D01*
X16412920Y-15606198D02*
X16374825Y-15606198D01*
X16374825Y-15606198D02*
X16355777Y-15615722D01*
X16355777Y-15615722D02*
X16346253Y-15625246D01*
X16346253Y-15625246D02*
X16336729Y-15644293D01*
X16336729Y-15644293D02*
X16336729Y-15682388D01*
X16336729Y-15682388D02*
X16346253Y-15701436D01*
X16346253Y-15701436D02*
X16355777Y-15710960D01*
X16355777Y-15710960D02*
X16374825Y-15720484D01*
X16374825Y-15720484D02*
X16412920Y-15720484D01*
X16412920Y-15720484D02*
X16431968Y-15710960D01*
X16431968Y-15710960D02*
X16441491Y-15701436D01*
X16441491Y-15701436D02*
X16451015Y-15682388D01*
X16451015Y-15682388D02*
X16451015Y-15644293D01*
X16451015Y-15644293D02*
X16441491Y-15625246D01*
X16441491Y-15625246D02*
X16431968Y-15615722D01*
X16431968Y-15615722D02*
X16412920Y-15606198D01*
X16689110Y-15720484D02*
X16689110Y-15520484D01*
X16774825Y-15720484D02*
X16774825Y-15615722D01*
X16774825Y-15615722D02*
X16765301Y-15596674D01*
X16765301Y-15596674D02*
X16746253Y-15587150D01*
X16746253Y-15587150D02*
X16717682Y-15587150D01*
X16717682Y-15587150D02*
X16698634Y-15596674D01*
X16698634Y-15596674D02*
X16689110Y-15606198D01*
X16898634Y-15720484D02*
X16879587Y-15710960D01*
X16879587Y-15710960D02*
X16870063Y-15701436D01*
X16870063Y-15701436D02*
X16860539Y-15682388D01*
X16860539Y-15682388D02*
X16860539Y-15625246D01*
X16860539Y-15625246D02*
X16870063Y-15606198D01*
X16870063Y-15606198D02*
X16879587Y-15596674D01*
X16879587Y-15596674D02*
X16898634Y-15587150D01*
X16898634Y-15587150D02*
X16927206Y-15587150D01*
X16927206Y-15587150D02*
X16946253Y-15596674D01*
X16946253Y-15596674D02*
X16955777Y-15606198D01*
X16955777Y-15606198D02*
X16965301Y-15625246D01*
X16965301Y-15625246D02*
X16965301Y-15682388D01*
X16965301Y-15682388D02*
X16955777Y-15701436D01*
X16955777Y-15701436D02*
X16946253Y-15710960D01*
X16946253Y-15710960D02*
X16927206Y-15720484D01*
X16927206Y-15720484D02*
X16898634Y-15720484D01*
X17079587Y-15720484D02*
X17060539Y-15710960D01*
X17060539Y-15710960D02*
X17051015Y-15691912D01*
X17051015Y-15691912D02*
X17051015Y-15520484D01*
X17231968Y-15710960D02*
X17212920Y-15720484D01*
X17212920Y-15720484D02*
X17174825Y-15720484D01*
X17174825Y-15720484D02*
X17155777Y-15710960D01*
X17155777Y-15710960D02*
X17146253Y-15691912D01*
X17146253Y-15691912D02*
X17146253Y-15615722D01*
X17146253Y-15615722D02*
X17155777Y-15596674D01*
X17155777Y-15596674D02*
X17174825Y-15587150D01*
X17174825Y-15587150D02*
X17212920Y-15587150D01*
X17212920Y-15587150D02*
X17231968Y-15596674D01*
X17231968Y-15596674D02*
X17241492Y-15615722D01*
X17241492Y-15615722D02*
X17241492Y-15634769D01*
X17241492Y-15634769D02*
X17146253Y-15653817D01*
X17317682Y-15710960D02*
X17336730Y-15720484D01*
X17336730Y-15720484D02*
X17374825Y-15720484D01*
X17374825Y-15720484D02*
X17393873Y-15710960D01*
X17393873Y-15710960D02*
X17403396Y-15691912D01*
X17403396Y-15691912D02*
X17403396Y-15682388D01*
X17403396Y-15682388D02*
X17393873Y-15663341D01*
X17393873Y-15663341D02*
X17374825Y-15653817D01*
X17374825Y-15653817D02*
X17346253Y-15653817D01*
X17346253Y-15653817D02*
X17327206Y-15644293D01*
X17327206Y-15644293D02*
X17317682Y-15625246D01*
X17317682Y-15625246D02*
X17317682Y-15615722D01*
X17317682Y-15615722D02*
X17327206Y-15596674D01*
X17327206Y-15596674D02*
X17346253Y-15587150D01*
X17346253Y-15587150D02*
X17374825Y-15587150D01*
X17374825Y-15587150D02*
X17393873Y-15596674D01*
X17641492Y-15644293D02*
X17793873Y-15644293D01*
X17717682Y-15720484D02*
X17717682Y-15568103D01*
X18022444Y-15520484D02*
X18146254Y-15520484D01*
X18146254Y-15520484D02*
X18079587Y-15596674D01*
X18079587Y-15596674D02*
X18108158Y-15596674D01*
X18108158Y-15596674D02*
X18127206Y-15606198D01*
X18127206Y-15606198D02*
X18136730Y-15615722D01*
X18136730Y-15615722D02*
X18146254Y-15634769D01*
X18146254Y-15634769D02*
X18146254Y-15682388D01*
X18146254Y-15682388D02*
X18136730Y-15701436D01*
X18136730Y-15701436D02*
X18127206Y-15710960D01*
X18127206Y-15710960D02*
X18108158Y-15720484D01*
X18108158Y-15720484D02*
X18051015Y-15720484D01*
X18051015Y-15720484D02*
X18031968Y-15710960D01*
X18031968Y-15710960D02*
X18022444Y-15701436D01*
X18374825Y-15710960D02*
X18393873Y-15720484D01*
X18393873Y-15720484D02*
X18431968Y-15720484D01*
X18431968Y-15720484D02*
X18451016Y-15710960D01*
X18451016Y-15710960D02*
X18460539Y-15691912D01*
X18460539Y-15691912D02*
X18460539Y-15682388D01*
X18460539Y-15682388D02*
X18451016Y-15663341D01*
X18451016Y-15663341D02*
X18431968Y-15653817D01*
X18431968Y-15653817D02*
X18403396Y-15653817D01*
X18403396Y-15653817D02*
X18384349Y-15644293D01*
X18384349Y-15644293D02*
X18374825Y-15625246D01*
X18374825Y-15625246D02*
X18374825Y-15615722D01*
X18374825Y-15615722D02*
X18384349Y-15596674D01*
X18384349Y-15596674D02*
X18403396Y-15587150D01*
X18403396Y-15587150D02*
X18431968Y-15587150D01*
X18431968Y-15587150D02*
X18451016Y-15596674D01*
X18574825Y-15720484D02*
X18555777Y-15710960D01*
X18555777Y-15710960D02*
X18546254Y-15691912D01*
X18546254Y-15691912D02*
X18546254Y-15520484D01*
X18679587Y-15720484D02*
X18660539Y-15710960D01*
X18660539Y-15710960D02*
X18651016Y-15701436D01*
X18651016Y-15701436D02*
X18641492Y-15682388D01*
X18641492Y-15682388D02*
X18641492Y-15625246D01*
X18641492Y-15625246D02*
X18651016Y-15606198D01*
X18651016Y-15606198D02*
X18660539Y-15596674D01*
X18660539Y-15596674D02*
X18679587Y-15587150D01*
X18679587Y-15587150D02*
X18708158Y-15587150D01*
X18708158Y-15587150D02*
X18727206Y-15596674D01*
X18727206Y-15596674D02*
X18736730Y-15606198D01*
X18736730Y-15606198D02*
X18746254Y-15625246D01*
X18746254Y-15625246D02*
X18746254Y-15682388D01*
X18746254Y-15682388D02*
X18736730Y-15701436D01*
X18736730Y-15701436D02*
X18727206Y-15710960D01*
X18727206Y-15710960D02*
X18708158Y-15720484D01*
X18708158Y-15720484D02*
X18679587Y-15720484D01*
X18803397Y-15587150D02*
X18879587Y-15587150D01*
X18831968Y-15520484D02*
X18831968Y-15691912D01*
X18831968Y-15691912D02*
X18841492Y-15710960D01*
X18841492Y-15710960D02*
X18860539Y-15720484D01*
X18860539Y-15720484D02*
X18879587Y-15720484D01*
X18936730Y-15710960D02*
X18955777Y-15720484D01*
X18955777Y-15720484D02*
X18993873Y-15720484D01*
X18993873Y-15720484D02*
X19012920Y-15710960D01*
X19012920Y-15710960D02*
X19022444Y-15691912D01*
X19022444Y-15691912D02*
X19022444Y-15682388D01*
X19022444Y-15682388D02*
X19012920Y-15663341D01*
X19012920Y-15663341D02*
X18993873Y-15653817D01*
X18993873Y-15653817D02*
X18965301Y-15653817D01*
X18965301Y-15653817D02*
X18946254Y-15644293D01*
X18946254Y-15644293D02*
X18936730Y-15625246D01*
X18936730Y-15625246D02*
X18936730Y-15615722D01*
X18936730Y-15615722D02*
X18946254Y-15596674D01*
X18946254Y-15596674D02*
X18965301Y-15587150D01*
X18965301Y-15587150D02*
X18993873Y-15587150D01*
X18993873Y-15587150D02*
X19012920Y-15596674D01*
X19089111Y-15796674D02*
X19098635Y-15787150D01*
X19098635Y-15787150D02*
X19117682Y-15758579D01*
X19117682Y-15758579D02*
X19127206Y-15739531D01*
X19127206Y-15739531D02*
X19136730Y-15710960D01*
X19136730Y-15710960D02*
X19146254Y-15663341D01*
X19146254Y-15663341D02*
X19146254Y-15625246D01*
X19146254Y-15625246D02*
X19136730Y-15577627D01*
X19136730Y-15577627D02*
X19127206Y-15549055D01*
X19127206Y-15549055D02*
X19117682Y-15530008D01*
X19117682Y-15530008D02*
X19098635Y-15501436D01*
X19098635Y-15501436D02*
X19089111Y-15491912D01*
M02*
