%TF.GenerationSoftware,KiCad,Pcbnew,7.0.10*%
%TF.CreationDate,2024-03-09T07:06:31+08:00*%
%TF.ProjectId,ESP32Sensor-Sensor_board,45535033-3253-4656-9e73-6f722d53656e,rev?*%
%TF.SameCoordinates,Original*%
%TF.FileFunction,Drillmap*%
%TF.FilePolarity,Positive*%
%FSLAX45Y45*%
G04 Gerber Fmt 4.5, Leading zero omitted, Abs format (unit mm)*
G04 Created by KiCad (PCBNEW 7.0.10) date 2024-03-09 07:06:31*
%MOMM*%
%LPD*%
G01*
G04 APERTURE LIST*
%ADD10C,0.100000*%
%ADD11C,0.200000*%
G04 APERTURE END LIST*
D10*
X17500000Y-13400000D02*
X12700000Y-13400000D01*
X12700000Y-8250000D02*
X13300000Y-8250000D01*
X14250000Y-7790000D02*
G75*
G03*
X13930000Y-7790000I-160000J0D01*
G01*
X13930000Y-7790000D02*
G75*
G03*
X14250000Y-7790000I160000J0D01*
G01*
X17300000Y-13100000D02*
G75*
G03*
X16980000Y-13100000I-160000J0D01*
G01*
X16980000Y-13100000D02*
G75*
G03*
X17300000Y-13100000I160000J0D01*
G01*
X17500000Y-7400000D02*
X17500000Y-13400000D01*
X13300000Y-11250000D02*
X12700000Y-11250000D01*
X14340000Y-7660000D02*
X14340000Y-7400000D01*
X12700000Y-11250000D02*
X12700000Y-13400000D01*
X13200000Y-13091200D02*
G75*
G03*
X12880000Y-13091200I-160000J0D01*
G01*
X12880000Y-13091200D02*
G75*
G03*
X13200000Y-13091200I160000J0D01*
G01*
X17500000Y-7400000D02*
X15840000Y-7400000D01*
X13300000Y-8250000D02*
X13300000Y-11250000D01*
X15840000Y-7400000D02*
X15840000Y-7660000D01*
X12700000Y-7400000D02*
X14340000Y-7400000D01*
X12700000Y-7400000D02*
X12700000Y-8250000D01*
X15840000Y-7660000D02*
X14340000Y-7660000D01*
X16250000Y-7790000D02*
G75*
G03*
X15930000Y-7790000I-160000J0D01*
G01*
X15930000Y-7790000D02*
G75*
G03*
X16250000Y-7790000I160000J0D01*
G01*
D11*
D10*
X15888500Y-12838500D02*
X15953500Y-12903500D01*
X15953500Y-12838500D02*
X15888500Y-12903500D01*
X16466500Y-12838500D02*
X16531500Y-12903500D01*
X16531500Y-12838500D02*
X16466500Y-12903500D01*
D11*
X12955777Y-13716484D02*
X12955777Y-13516484D01*
X12955777Y-13516484D02*
X13003396Y-13516484D01*
X13003396Y-13516484D02*
X13031967Y-13526008D01*
X13031967Y-13526008D02*
X13051015Y-13545055D01*
X13051015Y-13545055D02*
X13060539Y-13564103D01*
X13060539Y-13564103D02*
X13070062Y-13602198D01*
X13070062Y-13602198D02*
X13070062Y-13630769D01*
X13070062Y-13630769D02*
X13060539Y-13668865D01*
X13060539Y-13668865D02*
X13051015Y-13687912D01*
X13051015Y-13687912D02*
X13031967Y-13706960D01*
X13031967Y-13706960D02*
X13003396Y-13716484D01*
X13003396Y-13716484D02*
X12955777Y-13716484D01*
X13155777Y-13716484D02*
X13155777Y-13583150D01*
X13155777Y-13621246D02*
X13165301Y-13602198D01*
X13165301Y-13602198D02*
X13174824Y-13592674D01*
X13174824Y-13592674D02*
X13193872Y-13583150D01*
X13193872Y-13583150D02*
X13212920Y-13583150D01*
X13279586Y-13716484D02*
X13279586Y-13583150D01*
X13279586Y-13516484D02*
X13270062Y-13526008D01*
X13270062Y-13526008D02*
X13279586Y-13535531D01*
X13279586Y-13535531D02*
X13289110Y-13526008D01*
X13289110Y-13526008D02*
X13279586Y-13516484D01*
X13279586Y-13516484D02*
X13279586Y-13535531D01*
X13403396Y-13716484D02*
X13384348Y-13706960D01*
X13384348Y-13706960D02*
X13374824Y-13687912D01*
X13374824Y-13687912D02*
X13374824Y-13516484D01*
X13508158Y-13716484D02*
X13489110Y-13706960D01*
X13489110Y-13706960D02*
X13479586Y-13687912D01*
X13479586Y-13687912D02*
X13479586Y-13516484D01*
X13736729Y-13716484D02*
X13736729Y-13516484D01*
X13736729Y-13516484D02*
X13803396Y-13659341D01*
X13803396Y-13659341D02*
X13870062Y-13516484D01*
X13870062Y-13516484D02*
X13870062Y-13716484D01*
X14051015Y-13716484D02*
X14051015Y-13611722D01*
X14051015Y-13611722D02*
X14041491Y-13592674D01*
X14041491Y-13592674D02*
X14022443Y-13583150D01*
X14022443Y-13583150D02*
X13984348Y-13583150D01*
X13984348Y-13583150D02*
X13965301Y-13592674D01*
X14051015Y-13706960D02*
X14031967Y-13716484D01*
X14031967Y-13716484D02*
X13984348Y-13716484D01*
X13984348Y-13716484D02*
X13965301Y-13706960D01*
X13965301Y-13706960D02*
X13955777Y-13687912D01*
X13955777Y-13687912D02*
X13955777Y-13668865D01*
X13955777Y-13668865D02*
X13965301Y-13649817D01*
X13965301Y-13649817D02*
X13984348Y-13640293D01*
X13984348Y-13640293D02*
X14031967Y-13640293D01*
X14031967Y-13640293D02*
X14051015Y-13630769D01*
X14146253Y-13583150D02*
X14146253Y-13783150D01*
X14146253Y-13592674D02*
X14165301Y-13583150D01*
X14165301Y-13583150D02*
X14203396Y-13583150D01*
X14203396Y-13583150D02*
X14222443Y-13592674D01*
X14222443Y-13592674D02*
X14231967Y-13602198D01*
X14231967Y-13602198D02*
X14241491Y-13621246D01*
X14241491Y-13621246D02*
X14241491Y-13678388D01*
X14241491Y-13678388D02*
X14231967Y-13697436D01*
X14231967Y-13697436D02*
X14222443Y-13706960D01*
X14222443Y-13706960D02*
X14203396Y-13716484D01*
X14203396Y-13716484D02*
X14165301Y-13716484D01*
X14165301Y-13716484D02*
X14146253Y-13706960D01*
X14327205Y-13697436D02*
X14336729Y-13706960D01*
X14336729Y-13706960D02*
X14327205Y-13716484D01*
X14327205Y-13716484D02*
X14317682Y-13706960D01*
X14317682Y-13706960D02*
X14327205Y-13697436D01*
X14327205Y-13697436D02*
X14327205Y-13716484D01*
X14327205Y-13592674D02*
X14336729Y-13602198D01*
X14336729Y-13602198D02*
X14327205Y-13611722D01*
X14327205Y-13611722D02*
X14317682Y-13602198D01*
X14317682Y-13602198D02*
X14327205Y-13592674D01*
X14327205Y-13592674D02*
X14327205Y-13611722D01*
D10*
X12630000Y-14012500D02*
X12695000Y-14077500D01*
X12695000Y-14012500D02*
X12630000Y-14077500D01*
D11*
X12993872Y-13936484D02*
X13012920Y-13936484D01*
X13012920Y-13936484D02*
X13031967Y-13946008D01*
X13031967Y-13946008D02*
X13041491Y-13955531D01*
X13041491Y-13955531D02*
X13051015Y-13974579D01*
X13051015Y-13974579D02*
X13060539Y-14012674D01*
X13060539Y-14012674D02*
X13060539Y-14060293D01*
X13060539Y-14060293D02*
X13051015Y-14098388D01*
X13051015Y-14098388D02*
X13041491Y-14117436D01*
X13041491Y-14117436D02*
X13031967Y-14126960D01*
X13031967Y-14126960D02*
X13012920Y-14136484D01*
X13012920Y-14136484D02*
X12993872Y-14136484D01*
X12993872Y-14136484D02*
X12974824Y-14126960D01*
X12974824Y-14126960D02*
X12965301Y-14117436D01*
X12965301Y-14117436D02*
X12955777Y-14098388D01*
X12955777Y-14098388D02*
X12946253Y-14060293D01*
X12946253Y-14060293D02*
X12946253Y-14012674D01*
X12946253Y-14012674D02*
X12955777Y-13974579D01*
X12955777Y-13974579D02*
X12965301Y-13955531D01*
X12965301Y-13955531D02*
X12974824Y-13946008D01*
X12974824Y-13946008D02*
X12993872Y-13936484D01*
X13146253Y-14117436D02*
X13155777Y-14126960D01*
X13155777Y-14126960D02*
X13146253Y-14136484D01*
X13146253Y-14136484D02*
X13136729Y-14126960D01*
X13136729Y-14126960D02*
X13146253Y-14117436D01*
X13146253Y-14117436D02*
X13146253Y-14136484D01*
X13327205Y-13936484D02*
X13289110Y-13936484D01*
X13289110Y-13936484D02*
X13270062Y-13946008D01*
X13270062Y-13946008D02*
X13260539Y-13955531D01*
X13260539Y-13955531D02*
X13241491Y-13984103D01*
X13241491Y-13984103D02*
X13231967Y-14022198D01*
X13231967Y-14022198D02*
X13231967Y-14098388D01*
X13231967Y-14098388D02*
X13241491Y-14117436D01*
X13241491Y-14117436D02*
X13251015Y-14126960D01*
X13251015Y-14126960D02*
X13270062Y-14136484D01*
X13270062Y-14136484D02*
X13308158Y-14136484D01*
X13308158Y-14136484D02*
X13327205Y-14126960D01*
X13327205Y-14126960D02*
X13336729Y-14117436D01*
X13336729Y-14117436D02*
X13346253Y-14098388D01*
X13346253Y-14098388D02*
X13346253Y-14050769D01*
X13346253Y-14050769D02*
X13336729Y-14031722D01*
X13336729Y-14031722D02*
X13327205Y-14022198D01*
X13327205Y-14022198D02*
X13308158Y-14012674D01*
X13308158Y-14012674D02*
X13270062Y-14012674D01*
X13270062Y-14012674D02*
X13251015Y-14022198D01*
X13251015Y-14022198D02*
X13241491Y-14031722D01*
X13241491Y-14031722D02*
X13231967Y-14050769D01*
X13527205Y-13936484D02*
X13431967Y-13936484D01*
X13431967Y-13936484D02*
X13422443Y-14031722D01*
X13422443Y-14031722D02*
X13431967Y-14022198D01*
X13431967Y-14022198D02*
X13451015Y-14012674D01*
X13451015Y-14012674D02*
X13498634Y-14012674D01*
X13498634Y-14012674D02*
X13517682Y-14022198D01*
X13517682Y-14022198D02*
X13527205Y-14031722D01*
X13527205Y-14031722D02*
X13536729Y-14050769D01*
X13536729Y-14050769D02*
X13536729Y-14098388D01*
X13536729Y-14098388D02*
X13527205Y-14117436D01*
X13527205Y-14117436D02*
X13517682Y-14126960D01*
X13517682Y-14126960D02*
X13498634Y-14136484D01*
X13498634Y-14136484D02*
X13451015Y-14136484D01*
X13451015Y-14136484D02*
X13431967Y-14126960D01*
X13431967Y-14126960D02*
X13422443Y-14117436D01*
X13660539Y-13936484D02*
X13679586Y-13936484D01*
X13679586Y-13936484D02*
X13698634Y-13946008D01*
X13698634Y-13946008D02*
X13708158Y-13955531D01*
X13708158Y-13955531D02*
X13717682Y-13974579D01*
X13717682Y-13974579D02*
X13727205Y-14012674D01*
X13727205Y-14012674D02*
X13727205Y-14060293D01*
X13727205Y-14060293D02*
X13717682Y-14098388D01*
X13717682Y-14098388D02*
X13708158Y-14117436D01*
X13708158Y-14117436D02*
X13698634Y-14126960D01*
X13698634Y-14126960D02*
X13679586Y-14136484D01*
X13679586Y-14136484D02*
X13660539Y-14136484D01*
X13660539Y-14136484D02*
X13641491Y-14126960D01*
X13641491Y-14126960D02*
X13631967Y-14117436D01*
X13631967Y-14117436D02*
X13622443Y-14098388D01*
X13622443Y-14098388D02*
X13612920Y-14060293D01*
X13612920Y-14060293D02*
X13612920Y-14012674D01*
X13612920Y-14012674D02*
X13622443Y-13974579D01*
X13622443Y-13974579D02*
X13631967Y-13955531D01*
X13631967Y-13955531D02*
X13641491Y-13946008D01*
X13641491Y-13946008D02*
X13660539Y-13936484D01*
X13812920Y-14136484D02*
X13812920Y-14003150D01*
X13812920Y-14022198D02*
X13822443Y-14012674D01*
X13822443Y-14012674D02*
X13841491Y-14003150D01*
X13841491Y-14003150D02*
X13870063Y-14003150D01*
X13870063Y-14003150D02*
X13889110Y-14012674D01*
X13889110Y-14012674D02*
X13898634Y-14031722D01*
X13898634Y-14031722D02*
X13898634Y-14136484D01*
X13898634Y-14031722D02*
X13908158Y-14012674D01*
X13908158Y-14012674D02*
X13927205Y-14003150D01*
X13927205Y-14003150D02*
X13955777Y-14003150D01*
X13955777Y-14003150D02*
X13974824Y-14012674D01*
X13974824Y-14012674D02*
X13984348Y-14031722D01*
X13984348Y-14031722D02*
X13984348Y-14136484D01*
X14079586Y-14136484D02*
X14079586Y-14003150D01*
X14079586Y-14022198D02*
X14089110Y-14012674D01*
X14089110Y-14012674D02*
X14108158Y-14003150D01*
X14108158Y-14003150D02*
X14136729Y-14003150D01*
X14136729Y-14003150D02*
X14155777Y-14012674D01*
X14155777Y-14012674D02*
X14165301Y-14031722D01*
X14165301Y-14031722D02*
X14165301Y-14136484D01*
X14165301Y-14031722D02*
X14174824Y-14012674D01*
X14174824Y-14012674D02*
X14193872Y-14003150D01*
X14193872Y-14003150D02*
X14222443Y-14003150D01*
X14222443Y-14003150D02*
X14241491Y-14012674D01*
X14241491Y-14012674D02*
X14251015Y-14031722D01*
X14251015Y-14031722D02*
X14251015Y-14136484D01*
X14641491Y-13926960D02*
X14470063Y-14184103D01*
X14898634Y-13936484D02*
X14917682Y-13936484D01*
X14917682Y-13936484D02*
X14936729Y-13946008D01*
X14936729Y-13946008D02*
X14946253Y-13955531D01*
X14946253Y-13955531D02*
X14955777Y-13974579D01*
X14955777Y-13974579D02*
X14965301Y-14012674D01*
X14965301Y-14012674D02*
X14965301Y-14060293D01*
X14965301Y-14060293D02*
X14955777Y-14098388D01*
X14955777Y-14098388D02*
X14946253Y-14117436D01*
X14946253Y-14117436D02*
X14936729Y-14126960D01*
X14936729Y-14126960D02*
X14917682Y-14136484D01*
X14917682Y-14136484D02*
X14898634Y-14136484D01*
X14898634Y-14136484D02*
X14879586Y-14126960D01*
X14879586Y-14126960D02*
X14870063Y-14117436D01*
X14870063Y-14117436D02*
X14860539Y-14098388D01*
X14860539Y-14098388D02*
X14851015Y-14060293D01*
X14851015Y-14060293D02*
X14851015Y-14012674D01*
X14851015Y-14012674D02*
X14860539Y-13974579D01*
X14860539Y-13974579D02*
X14870063Y-13955531D01*
X14870063Y-13955531D02*
X14879586Y-13946008D01*
X14879586Y-13946008D02*
X14898634Y-13936484D01*
X15051015Y-14117436D02*
X15060539Y-14126960D01*
X15060539Y-14126960D02*
X15051015Y-14136484D01*
X15051015Y-14136484D02*
X15041491Y-14126960D01*
X15041491Y-14126960D02*
X15051015Y-14117436D01*
X15051015Y-14117436D02*
X15051015Y-14136484D01*
X15184348Y-13936484D02*
X15203396Y-13936484D01*
X15203396Y-13936484D02*
X15222444Y-13946008D01*
X15222444Y-13946008D02*
X15231967Y-13955531D01*
X15231967Y-13955531D02*
X15241491Y-13974579D01*
X15241491Y-13974579D02*
X15251015Y-14012674D01*
X15251015Y-14012674D02*
X15251015Y-14060293D01*
X15251015Y-14060293D02*
X15241491Y-14098388D01*
X15241491Y-14098388D02*
X15231967Y-14117436D01*
X15231967Y-14117436D02*
X15222444Y-14126960D01*
X15222444Y-14126960D02*
X15203396Y-14136484D01*
X15203396Y-14136484D02*
X15184348Y-14136484D01*
X15184348Y-14136484D02*
X15165301Y-14126960D01*
X15165301Y-14126960D02*
X15155777Y-14117436D01*
X15155777Y-14117436D02*
X15146253Y-14098388D01*
X15146253Y-14098388D02*
X15136729Y-14060293D01*
X15136729Y-14060293D02*
X15136729Y-14012674D01*
X15136729Y-14012674D02*
X15146253Y-13974579D01*
X15146253Y-13974579D02*
X15155777Y-13955531D01*
X15155777Y-13955531D02*
X15165301Y-13946008D01*
X15165301Y-13946008D02*
X15184348Y-13936484D01*
X15327206Y-13955531D02*
X15336729Y-13946008D01*
X15336729Y-13946008D02*
X15355777Y-13936484D01*
X15355777Y-13936484D02*
X15403396Y-13936484D01*
X15403396Y-13936484D02*
X15422444Y-13946008D01*
X15422444Y-13946008D02*
X15431967Y-13955531D01*
X15431967Y-13955531D02*
X15441491Y-13974579D01*
X15441491Y-13974579D02*
X15441491Y-13993627D01*
X15441491Y-13993627D02*
X15431967Y-14022198D01*
X15431967Y-14022198D02*
X15317682Y-14136484D01*
X15317682Y-14136484D02*
X15441491Y-14136484D01*
X15622444Y-13936484D02*
X15527206Y-13936484D01*
X15527206Y-13936484D02*
X15517682Y-14031722D01*
X15517682Y-14031722D02*
X15527206Y-14022198D01*
X15527206Y-14022198D02*
X15546253Y-14012674D01*
X15546253Y-14012674D02*
X15593872Y-14012674D01*
X15593872Y-14012674D02*
X15612920Y-14022198D01*
X15612920Y-14022198D02*
X15622444Y-14031722D01*
X15622444Y-14031722D02*
X15631967Y-14050769D01*
X15631967Y-14050769D02*
X15631967Y-14098388D01*
X15631967Y-14098388D02*
X15622444Y-14117436D01*
X15622444Y-14117436D02*
X15612920Y-14126960D01*
X15612920Y-14126960D02*
X15593872Y-14136484D01*
X15593872Y-14136484D02*
X15546253Y-14136484D01*
X15546253Y-14136484D02*
X15527206Y-14126960D01*
X15527206Y-14126960D02*
X15517682Y-14117436D01*
X15803396Y-13936484D02*
X15765301Y-13936484D01*
X15765301Y-13936484D02*
X15746253Y-13946008D01*
X15746253Y-13946008D02*
X15736729Y-13955531D01*
X15736729Y-13955531D02*
X15717682Y-13984103D01*
X15717682Y-13984103D02*
X15708158Y-14022198D01*
X15708158Y-14022198D02*
X15708158Y-14098388D01*
X15708158Y-14098388D02*
X15717682Y-14117436D01*
X15717682Y-14117436D02*
X15727206Y-14126960D01*
X15727206Y-14126960D02*
X15746253Y-14136484D01*
X15746253Y-14136484D02*
X15784348Y-14136484D01*
X15784348Y-14136484D02*
X15803396Y-14126960D01*
X15803396Y-14126960D02*
X15812920Y-14117436D01*
X15812920Y-14117436D02*
X15822444Y-14098388D01*
X15822444Y-14098388D02*
X15822444Y-14050769D01*
X15822444Y-14050769D02*
X15812920Y-14031722D01*
X15812920Y-14031722D02*
X15803396Y-14022198D01*
X15803396Y-14022198D02*
X15784348Y-14012674D01*
X15784348Y-14012674D02*
X15746253Y-14012674D01*
X15746253Y-14012674D02*
X15727206Y-14022198D01*
X15727206Y-14022198D02*
X15717682Y-14031722D01*
X15717682Y-14031722D02*
X15708158Y-14050769D01*
X15898634Y-13936484D02*
X15898634Y-13974579D01*
X15974825Y-13936484D02*
X15974825Y-13974579D01*
X16270063Y-14212674D02*
X16260539Y-14203150D01*
X16260539Y-14203150D02*
X16241491Y-14174579D01*
X16241491Y-14174579D02*
X16231968Y-14155531D01*
X16231968Y-14155531D02*
X16222444Y-14126960D01*
X16222444Y-14126960D02*
X16212920Y-14079341D01*
X16212920Y-14079341D02*
X16212920Y-14041246D01*
X16212920Y-14041246D02*
X16222444Y-13993627D01*
X16222444Y-13993627D02*
X16231968Y-13965055D01*
X16231968Y-13965055D02*
X16241491Y-13946008D01*
X16241491Y-13946008D02*
X16260539Y-13917436D01*
X16260539Y-13917436D02*
X16270063Y-13907912D01*
X16336729Y-13955531D02*
X16346253Y-13946008D01*
X16346253Y-13946008D02*
X16365301Y-13936484D01*
X16365301Y-13936484D02*
X16412920Y-13936484D01*
X16412920Y-13936484D02*
X16431968Y-13946008D01*
X16431968Y-13946008D02*
X16441491Y-13955531D01*
X16441491Y-13955531D02*
X16451015Y-13974579D01*
X16451015Y-13974579D02*
X16451015Y-13993627D01*
X16451015Y-13993627D02*
X16441491Y-14022198D01*
X16441491Y-14022198D02*
X16327206Y-14136484D01*
X16327206Y-14136484D02*
X16451015Y-14136484D01*
X16689110Y-14136484D02*
X16689110Y-13936484D01*
X16774825Y-14136484D02*
X16774825Y-14031722D01*
X16774825Y-14031722D02*
X16765301Y-14012674D01*
X16765301Y-14012674D02*
X16746253Y-14003150D01*
X16746253Y-14003150D02*
X16717682Y-14003150D01*
X16717682Y-14003150D02*
X16698634Y-14012674D01*
X16698634Y-14012674D02*
X16689110Y-14022198D01*
X16898634Y-14136484D02*
X16879587Y-14126960D01*
X16879587Y-14126960D02*
X16870063Y-14117436D01*
X16870063Y-14117436D02*
X16860539Y-14098388D01*
X16860539Y-14098388D02*
X16860539Y-14041246D01*
X16860539Y-14041246D02*
X16870063Y-14022198D01*
X16870063Y-14022198D02*
X16879587Y-14012674D01*
X16879587Y-14012674D02*
X16898634Y-14003150D01*
X16898634Y-14003150D02*
X16927206Y-14003150D01*
X16927206Y-14003150D02*
X16946253Y-14012674D01*
X16946253Y-14012674D02*
X16955777Y-14022198D01*
X16955777Y-14022198D02*
X16965301Y-14041246D01*
X16965301Y-14041246D02*
X16965301Y-14098388D01*
X16965301Y-14098388D02*
X16955777Y-14117436D01*
X16955777Y-14117436D02*
X16946253Y-14126960D01*
X16946253Y-14126960D02*
X16927206Y-14136484D01*
X16927206Y-14136484D02*
X16898634Y-14136484D01*
X17079587Y-14136484D02*
X17060539Y-14126960D01*
X17060539Y-14126960D02*
X17051015Y-14107912D01*
X17051015Y-14107912D02*
X17051015Y-13936484D01*
X17231968Y-14126960D02*
X17212920Y-14136484D01*
X17212920Y-14136484D02*
X17174825Y-14136484D01*
X17174825Y-14136484D02*
X17155777Y-14126960D01*
X17155777Y-14126960D02*
X17146253Y-14107912D01*
X17146253Y-14107912D02*
X17146253Y-14031722D01*
X17146253Y-14031722D02*
X17155777Y-14012674D01*
X17155777Y-14012674D02*
X17174825Y-14003150D01*
X17174825Y-14003150D02*
X17212920Y-14003150D01*
X17212920Y-14003150D02*
X17231968Y-14012674D01*
X17231968Y-14012674D02*
X17241492Y-14031722D01*
X17241492Y-14031722D02*
X17241492Y-14050769D01*
X17241492Y-14050769D02*
X17146253Y-14069817D01*
X17317682Y-14126960D02*
X17336730Y-14136484D01*
X17336730Y-14136484D02*
X17374825Y-14136484D01*
X17374825Y-14136484D02*
X17393873Y-14126960D01*
X17393873Y-14126960D02*
X17403396Y-14107912D01*
X17403396Y-14107912D02*
X17403396Y-14098388D01*
X17403396Y-14098388D02*
X17393873Y-14079341D01*
X17393873Y-14079341D02*
X17374825Y-14069817D01*
X17374825Y-14069817D02*
X17346253Y-14069817D01*
X17346253Y-14069817D02*
X17327206Y-14060293D01*
X17327206Y-14060293D02*
X17317682Y-14041246D01*
X17317682Y-14041246D02*
X17317682Y-14031722D01*
X17317682Y-14031722D02*
X17327206Y-14012674D01*
X17327206Y-14012674D02*
X17346253Y-14003150D01*
X17346253Y-14003150D02*
X17374825Y-14003150D01*
X17374825Y-14003150D02*
X17393873Y-14012674D01*
X17470063Y-14212674D02*
X17479587Y-14203150D01*
X17479587Y-14203150D02*
X17498634Y-14174579D01*
X17498634Y-14174579D02*
X17508158Y-14155531D01*
X17508158Y-14155531D02*
X17517682Y-14126960D01*
X17517682Y-14126960D02*
X17527206Y-14079341D01*
X17527206Y-14079341D02*
X17527206Y-14041246D01*
X17527206Y-14041246D02*
X17517682Y-13993627D01*
X17517682Y-13993627D02*
X17508158Y-13965055D01*
X17508158Y-13965055D02*
X17498634Y-13946008D01*
X17498634Y-13946008D02*
X17479587Y-13917436D01*
X17479587Y-13917436D02*
X17470063Y-13907912D01*
X17831968Y-14212674D02*
X17822444Y-14203150D01*
X17822444Y-14203150D02*
X17803396Y-14174579D01*
X17803396Y-14174579D02*
X17793873Y-14155531D01*
X17793873Y-14155531D02*
X17784349Y-14126960D01*
X17784349Y-14126960D02*
X17774825Y-14079341D01*
X17774825Y-14079341D02*
X17774825Y-14041246D01*
X17774825Y-14041246D02*
X17784349Y-13993627D01*
X17784349Y-13993627D02*
X17793873Y-13965055D01*
X17793873Y-13965055D02*
X17803396Y-13946008D01*
X17803396Y-13946008D02*
X17822444Y-13917436D01*
X17822444Y-13917436D02*
X17831968Y-13907912D01*
X17908158Y-14003150D02*
X17908158Y-14136484D01*
X17908158Y-14022198D02*
X17917682Y-14012674D01*
X17917682Y-14012674D02*
X17936730Y-14003150D01*
X17936730Y-14003150D02*
X17965301Y-14003150D01*
X17965301Y-14003150D02*
X17984349Y-14012674D01*
X17984349Y-14012674D02*
X17993873Y-14031722D01*
X17993873Y-14031722D02*
X17993873Y-14136484D01*
X18117682Y-14136484D02*
X18098634Y-14126960D01*
X18098634Y-14126960D02*
X18089111Y-14117436D01*
X18089111Y-14117436D02*
X18079587Y-14098388D01*
X18079587Y-14098388D02*
X18079587Y-14041246D01*
X18079587Y-14041246D02*
X18089111Y-14022198D01*
X18089111Y-14022198D02*
X18098634Y-14012674D01*
X18098634Y-14012674D02*
X18117682Y-14003150D01*
X18117682Y-14003150D02*
X18146254Y-14003150D01*
X18146254Y-14003150D02*
X18165301Y-14012674D01*
X18165301Y-14012674D02*
X18174825Y-14022198D01*
X18174825Y-14022198D02*
X18184349Y-14041246D01*
X18184349Y-14041246D02*
X18184349Y-14098388D01*
X18184349Y-14098388D02*
X18174825Y-14117436D01*
X18174825Y-14117436D02*
X18165301Y-14126960D01*
X18165301Y-14126960D02*
X18146254Y-14136484D01*
X18146254Y-14136484D02*
X18117682Y-14136484D01*
X18241492Y-14003150D02*
X18317682Y-14003150D01*
X18270063Y-13936484D02*
X18270063Y-14107912D01*
X18270063Y-14107912D02*
X18279587Y-14126960D01*
X18279587Y-14126960D02*
X18298634Y-14136484D01*
X18298634Y-14136484D02*
X18317682Y-14136484D01*
X18536730Y-14003150D02*
X18536730Y-14203150D01*
X18536730Y-14012674D02*
X18555777Y-14003150D01*
X18555777Y-14003150D02*
X18593873Y-14003150D01*
X18593873Y-14003150D02*
X18612920Y-14012674D01*
X18612920Y-14012674D02*
X18622444Y-14022198D01*
X18622444Y-14022198D02*
X18631968Y-14041246D01*
X18631968Y-14041246D02*
X18631968Y-14098388D01*
X18631968Y-14098388D02*
X18622444Y-14117436D01*
X18622444Y-14117436D02*
X18612920Y-14126960D01*
X18612920Y-14126960D02*
X18593873Y-14136484D01*
X18593873Y-14136484D02*
X18555777Y-14136484D01*
X18555777Y-14136484D02*
X18536730Y-14126960D01*
X18746254Y-14136484D02*
X18727206Y-14126960D01*
X18727206Y-14126960D02*
X18717682Y-14107912D01*
X18717682Y-14107912D02*
X18717682Y-13936484D01*
X18908158Y-14136484D02*
X18908158Y-14031722D01*
X18908158Y-14031722D02*
X18898635Y-14012674D01*
X18898635Y-14012674D02*
X18879587Y-14003150D01*
X18879587Y-14003150D02*
X18841492Y-14003150D01*
X18841492Y-14003150D02*
X18822444Y-14012674D01*
X18908158Y-14126960D02*
X18889111Y-14136484D01*
X18889111Y-14136484D02*
X18841492Y-14136484D01*
X18841492Y-14136484D02*
X18822444Y-14126960D01*
X18822444Y-14126960D02*
X18812920Y-14107912D01*
X18812920Y-14107912D02*
X18812920Y-14088865D01*
X18812920Y-14088865D02*
X18822444Y-14069817D01*
X18822444Y-14069817D02*
X18841492Y-14060293D01*
X18841492Y-14060293D02*
X18889111Y-14060293D01*
X18889111Y-14060293D02*
X18908158Y-14050769D01*
X18974825Y-14003150D02*
X19051015Y-14003150D01*
X19003396Y-13936484D02*
X19003396Y-14107912D01*
X19003396Y-14107912D02*
X19012920Y-14126960D01*
X19012920Y-14126960D02*
X19031968Y-14136484D01*
X19031968Y-14136484D02*
X19051015Y-14136484D01*
X19193873Y-14126960D02*
X19174825Y-14136484D01*
X19174825Y-14136484D02*
X19136730Y-14136484D01*
X19136730Y-14136484D02*
X19117682Y-14126960D01*
X19117682Y-14126960D02*
X19108158Y-14107912D01*
X19108158Y-14107912D02*
X19108158Y-14031722D01*
X19108158Y-14031722D02*
X19117682Y-14012674D01*
X19117682Y-14012674D02*
X19136730Y-14003150D01*
X19136730Y-14003150D02*
X19174825Y-14003150D01*
X19174825Y-14003150D02*
X19193873Y-14012674D01*
X19193873Y-14012674D02*
X19203396Y-14031722D01*
X19203396Y-14031722D02*
X19203396Y-14050769D01*
X19203396Y-14050769D02*
X19108158Y-14069817D01*
X19374825Y-14136484D02*
X19374825Y-13936484D01*
X19374825Y-14126960D02*
X19355777Y-14136484D01*
X19355777Y-14136484D02*
X19317682Y-14136484D01*
X19317682Y-14136484D02*
X19298635Y-14126960D01*
X19298635Y-14126960D02*
X19289111Y-14117436D01*
X19289111Y-14117436D02*
X19279587Y-14098388D01*
X19279587Y-14098388D02*
X19279587Y-14041246D01*
X19279587Y-14041246D02*
X19289111Y-14022198D01*
X19289111Y-14022198D02*
X19298635Y-14012674D01*
X19298635Y-14012674D02*
X19317682Y-14003150D01*
X19317682Y-14003150D02*
X19355777Y-14003150D01*
X19355777Y-14003150D02*
X19374825Y-14012674D01*
X19451016Y-14212674D02*
X19460539Y-14203150D01*
X19460539Y-14203150D02*
X19479587Y-14174579D01*
X19479587Y-14174579D02*
X19489111Y-14155531D01*
X19489111Y-14155531D02*
X19498635Y-14126960D01*
X19498635Y-14126960D02*
X19508158Y-14079341D01*
X19508158Y-14079341D02*
X19508158Y-14041246D01*
X19508158Y-14041246D02*
X19498635Y-13993627D01*
X19498635Y-13993627D02*
X19489111Y-13965055D01*
X19489111Y-13965055D02*
X19479587Y-13946008D01*
X19479587Y-13946008D02*
X19460539Y-13917436D01*
X19460539Y-13917436D02*
X19451016Y-13907912D01*
M02*
