M48
; DRILL file {KiCad 7.0.10} date Sat Mar  9 07:06:30 2024
; FORMAT={-:-/ absolute / metric / decimal}
; #@! TF.CreationDate,2024-03-09T07:06:30+08:00
; #@! TF.GenerationSoftware,Kicad,Pcbnew,7.0.10
; #@! TF.FileFunction,Plated,1,4,PTH
FMAT,2
METRIC
; #@! TA.AperFunction,Plated,PTH,ViaDrill
T1C0.229
; #@! TA.AperFunction,Plated,PTH,ComponentDrill
T2C0.300
; #@! TA.AperFunction,Plated,PTH,ViaDrill
T3C0.305
; #@! TA.AperFunction,Plated,PTH,ViaDrill
T4C0.400
; #@! TA.AperFunction,Plated,PTH,ComponentDrill
T5C0.600
; #@! TA.AperFunction,Plated,PTH,ComponentDrill
T6C0.762
; #@! TA.AperFunction,Plated,PTH,ComponentDrill
T7C1.000
%
G90
G05
T1
X133.797Y-89.952
X136.194Y-90.046
X136.6Y-81.45
X136.79Y-90.652
X136.8Y-110.275
X137.026Y-103.954
X137.475Y-77.325
X138.365Y-87.638
X139.1Y-107.775
X140.027Y-94.529
X140.125Y-107.9
X140.691Y-114.579
X140.819Y-104.022
X140.925Y-91.475
X141.143Y-110.888
X141.301Y-94.479
X141.804Y-114.308
X142.425Y-108.4
X142.97Y-94.85
X143.182Y-89.919
X143.764Y-122.24
X144.138Y-87.539
X144.55Y-83.725
X145.38Y-102.77
X145.501Y-85.632
X145.524Y-108.012
X145.527Y-87.421
X145.706Y-98.329
X145.775Y-113.487
X145.847Y-111.594
X145.921Y-114.151
X147.375Y-91.9
X147.475Y-87.575
X147.619Y-103.859
X148.74Y-90.28
X149.15Y-126.475
X149.277Y-89.185
X149.482Y-80.497
X150.266Y-115.494
X150.514Y-104.586
X150.85Y-126.55
X151.61Y-110.187
X152.65Y-89.025
X153.736Y-86.995
X153.805Y-85.328
X153.964Y-88.368
X154.3Y-95.575
X154.317Y-86.161
X154.332Y-91.594
X155.654Y-126.501
X156.9Y-126.425
X157.066Y-90.636
X157.23Y-119.983
X157.683Y-83.21
X157.8Y-126.39
X158.44Y-104.06
X158.669Y-120.472
X159.15Y-87.225
X159.42Y-103.5
X160.82Y-110.613
X160.985Y-86.004
X160.985Y-93.269
X161.1Y-98.9
X161.13Y-128.914
X162.215Y-128.897
X162.23Y-119.15
X162.475Y-115.025
X163.15Y-106.425
X163.161Y-88.611
X163.324Y-128.895
X163.355Y-109.904
X163.79Y-129.34
X163.831Y-123.789
X163.881Y-89.941
X164.36Y-93.58
X164.798Y-109.352
X165.21Y-90.341
X165.21Y-108.009
X165.559Y-119.666
X165.775Y-117.7
X166.01Y-121.8
X166.687Y-116.829
X166.878Y-102.387
X167.04Y-126.41
X167.056Y-88.341
X167.157Y-97.739
X167.361Y-90.576
X168.01Y-94.484
X168.072Y-123.81
X169.624Y-111.31
X170.0Y-78.05
X171.575Y-94.45
X171.872Y-116.836
X172.151Y-111.1
T2
X159.3Y-106.012
X166.9Y-106.012
X168.35Y-119.35
X168.35Y-120.75
X169.75Y-119.35
X169.75Y-120.75
T3
X141.044Y-108.216
X142.252Y-93.27
X148.32Y-88.647
X149.906Y-112.918
X154.14Y-96.65
X154.502Y-92.999
X154.502Y-98.967
X156.271Y-101.755
X158.791Y-92.177
X160.75Y-121.9
X161.85Y-99.625
X162.081Y-112.394
X164.724Y-110.745
X168.308Y-104.267
X171.042Y-122.188
T4
X154.335Y-128.322
X160.74Y-125.95
X169.05Y-120.05
T6
X147.17Y-82.904
X150.916Y-82.904
X154.726Y-82.904
T7
X172.9Y-88.28
X172.9Y-90.82
X172.9Y-93.36
X172.9Y-95.9
X172.9Y-98.44
X172.9Y-100.98
X172.9Y-103.52
X172.9Y-106.06
T5
G00X157.78Y-127.66
M15
G01X157.78Y-128.76
M16
G05
G00X157.78Y-131.99
M15
G01X157.78Y-132.79
M16
G05
G00X166.42Y-127.66
M15
G01X166.42Y-128.76
M16
G05
G00X166.42Y-131.99
M15
G01X166.42Y-132.79
M16
G05
T7
G00X136.15Y-121.25
M15
G01X138.65Y-121.25
M16
G05
G00X136.4Y-127.25
M15
G01X138.4Y-127.25
M16
G05
G00X142.1Y-123.25
M15
G01X142.1Y-125.25
M16
G05
M30
