%TF.GenerationSoftware,KiCad,Pcbnew,7.0.10*%
%TF.CreationDate,2024-03-09T07:06:28+08:00*%
%TF.ProjectId,ESP32Sensor-Sensor_board,45535033-3253-4656-9e73-6f722d53656e,rev?*%
%TF.SameCoordinates,Original*%
%TF.FileFunction,Soldermask,Top*%
%TF.FilePolarity,Negative*%
%FSLAX46Y46*%
G04 Gerber Fmt 4.6, Leading zero omitted, Abs format (unit mm)*
G04 Created by KiCad (PCBNEW 7.0.10) date 2024-03-09 07:06:28*
%MOMM*%
%LPD*%
G01*
G04 APERTURE LIST*
G04 Aperture macros list*
%AMRoundRect*
0 Rectangle with rounded corners*
0 $1 Rounding radius*
0 $2 $3 $4 $5 $6 $7 $8 $9 X,Y pos of 4 corners*
0 Add a 4 corners polygon primitive as box body*
4,1,4,$2,$3,$4,$5,$6,$7,$8,$9,$2,$3,0*
0 Add four circle primitives for the rounded corners*
1,1,$1+$1,$2,$3*
1,1,$1+$1,$4,$5*
1,1,$1+$1,$6,$7*
1,1,$1+$1,$8,$9*
0 Add four rect primitives between the rounded corners*
20,1,$1+$1,$2,$3,$4,$5,0*
20,1,$1+$1,$4,$5,$6,$7,0*
20,1,$1+$1,$6,$7,$8,$9,0*
20,1,$1+$1,$8,$9,$2,$3,0*%
G04 Aperture macros list end*
%ADD10O,1.000000X2.100000*%
%ADD11O,1.000000X1.800000*%
%ADD12R,0.300000X1.140000*%
%ADD13R,0.600000X1.080000*%
%ADD14C,0.650000*%
%ADD15RoundRect,0.147500X0.172500X-0.147500X0.172500X0.147500X-0.172500X0.147500X-0.172500X-0.147500X0*%
%ADD16RoundRect,0.250000X-0.250000X-0.475000X0.250000X-0.475000X0.250000X0.475000X-0.250000X0.475000X0*%
%ADD17C,1.000000*%
%ADD18RoundRect,0.250000X0.475000X-0.250000X0.475000X0.250000X-0.475000X0.250000X-0.475000X-0.250000X0*%
%ADD19RoundRect,0.135000X-0.185000X0.135000X-0.185000X-0.135000X0.185000X-0.135000X0.185000X0.135000X0*%
%ADD20R,0.400000X0.650000*%
%ADD21RoundRect,0.093750X-0.106250X0.093750X-0.106250X-0.093750X0.106250X-0.093750X0.106250X0.093750X0*%
%ADD22R,1.600000X1.000000*%
%ADD23RoundRect,0.135000X0.185000X-0.135000X0.185000X0.135000X-0.185000X0.135000X-0.185000X-0.135000X0*%
%ADD24RoundRect,0.135000X-0.135000X-0.185000X0.135000X-0.185000X0.135000X0.185000X-0.135000X0.185000X0*%
%ADD25RoundRect,0.140000X0.170000X-0.140000X0.170000X0.140000X-0.170000X0.140000X-0.170000X-0.140000X0*%
%ADD26RoundRect,0.062500X0.062500X-0.275000X0.062500X0.275000X-0.062500X0.275000X-0.062500X-0.275000X0*%
%ADD27RoundRect,0.062500X0.275000X-0.062500X0.275000X0.062500X-0.275000X0.062500X-0.275000X-0.062500X0*%
%ADD28R,1.450000X1.450000*%
%ADD29RoundRect,0.225000X-0.250000X0.225000X-0.250000X-0.225000X0.250000X-0.225000X0.250000X0.225000X0*%
%ADD30RoundRect,0.140000X-0.140000X-0.170000X0.140000X-0.170000X0.140000X0.170000X-0.140000X0.170000X0*%
%ADD31RoundRect,0.062500X0.062500X-0.350000X0.062500X0.350000X-0.062500X0.350000X-0.062500X-0.350000X0*%
%ADD32RoundRect,0.062500X0.350000X-0.062500X0.350000X0.062500X-0.350000X0.062500X-0.350000X-0.062500X0*%
%ADD33R,2.600000X2.600000*%
%ADD34R,4.500000X2.000000*%
%ADD35O,4.000000X2.000000*%
%ADD36O,2.000000X4.200000*%
%ADD37RoundRect,0.150000X-0.875000X-0.150000X0.875000X-0.150000X0.875000X0.150000X-0.875000X0.150000X0*%
%ADD38RoundRect,0.250000X-0.325000X-1.100000X0.325000X-1.100000X0.325000X1.100000X-0.325000X1.100000X0*%
%ADD39RoundRect,0.102000X0.450000X-0.750000X0.450000X0.750000X-0.450000X0.750000X-0.450000X-0.750000X0*%
%ADD40RoundRect,0.102000X0.350000X-0.350000X0.350000X0.350000X-0.350000X0.350000X-0.350000X-0.350000X0*%
%ADD41R,1.700000X1.700000*%
%ADD42O,1.700000X1.700000*%
%ADD43R,0.760000X2.030000*%
%ADD44RoundRect,0.381000X-0.381000X-2.794000X0.381000X-2.794000X0.381000X2.794000X-0.381000X2.794000X0*%
%ADD45C,1.524000*%
G04 APERTURE END LIST*
D10*
%TO.C,J3*%
X166420000Y-128210000D03*
D11*
X166420000Y-132390000D03*
X157780000Y-132390000D03*
D10*
X157780000Y-128210000D03*
D12*
X160350000Y-127590000D03*
X161350000Y-127590000D03*
X162850000Y-127590000D03*
X163850000Y-127590000D03*
D13*
X164500000Y-127560000D03*
X165300000Y-127560000D03*
D12*
X163350000Y-127590000D03*
X162350000Y-127590000D03*
X161850000Y-127590000D03*
X160850000Y-127590000D03*
D13*
X159700000Y-127560000D03*
X158900000Y-127560000D03*
D14*
X164990000Y-128710000D03*
X159210000Y-128710000D03*
%TD*%
D15*
%TO.C,FB1*%
X156300000Y-106485000D03*
X156300000Y-105515000D03*
%TD*%
D16*
%TO.C,C18*%
X134250000Y-108900000D03*
X136150000Y-108900000D03*
%TD*%
D17*
%TO.C,TP5*%
X173700000Y-123400000D03*
%TD*%
D18*
%TO.C,C1*%
X169800000Y-125550000D03*
X169800000Y-123650000D03*
%TD*%
D19*
%TO.C,R1*%
X172200000Y-120300000D03*
X172200000Y-121320000D03*
%TD*%
D20*
%TO.C,U10*%
X171750000Y-110150000D03*
X171100000Y-110150000D03*
X170450000Y-110150000D03*
X170450000Y-112050000D03*
X171100000Y-112050000D03*
X171750000Y-112050000D03*
%TD*%
D21*
%TO.C,U14*%
X159950000Y-105125000D03*
X159300000Y-105125000D03*
X158650000Y-105125000D03*
X158650000Y-106900000D03*
X159300000Y-106900000D03*
X159950000Y-106900000D03*
D22*
X159300000Y-106012500D03*
%TD*%
D23*
%TO.C,R18*%
X168800000Y-111610000D03*
X168800000Y-110590000D03*
%TD*%
D17*
%TO.C,TP1*%
X136800000Y-86200000D03*
%TD*%
D21*
%TO.C,U11*%
X167550000Y-105125000D03*
X166900000Y-105125000D03*
X166250000Y-105125000D03*
X166250000Y-106900000D03*
X166900000Y-106900000D03*
X167550000Y-106900000D03*
D22*
X166900000Y-106012500D03*
%TD*%
D24*
%TO.C,R22*%
X161890000Y-109100000D03*
X162910000Y-109100000D03*
%TD*%
D25*
%TO.C,C29*%
X157400000Y-106492500D03*
X157400000Y-105532500D03*
%TD*%
D26*
%TO.C,U8*%
X152700000Y-126762500D03*
X153200000Y-126762500D03*
X153700000Y-126762500D03*
D27*
X154462500Y-126250000D03*
X154462500Y-125750000D03*
X154462500Y-125250000D03*
X154462500Y-124750000D03*
D26*
X153700000Y-124237500D03*
X153200000Y-124237500D03*
X152700000Y-124237500D03*
D27*
X151937500Y-124750000D03*
X151937500Y-125250000D03*
X151937500Y-125750000D03*
X151937500Y-126250000D03*
D28*
X153200000Y-125500000D03*
%TD*%
D25*
%TO.C,C22*%
X137450000Y-109355000D03*
X137450000Y-108395000D03*
%TD*%
D29*
%TO.C,C25*%
X169050000Y-105237500D03*
X169050000Y-106787500D03*
%TD*%
D17*
%TO.C,TP3*%
X140200000Y-113330000D03*
%TD*%
D15*
%TO.C,FB2*%
X163800000Y-111485000D03*
X163800000Y-110515000D03*
%TD*%
D30*
%TO.C,C20*%
X151720000Y-128500000D03*
X152680000Y-128500000D03*
%TD*%
D23*
%TO.C,R19*%
X173400000Y-111610000D03*
X173400000Y-110590000D03*
%TD*%
D31*
%TO.C,U15*%
X167800000Y-121987500D03*
X168300000Y-121987500D03*
X168800000Y-121987500D03*
X169300000Y-121987500D03*
X169800000Y-121987500D03*
X170300000Y-121987500D03*
D32*
X170987500Y-121300000D03*
X170987500Y-120800000D03*
X170987500Y-120300000D03*
X170987500Y-119800000D03*
X170987500Y-119300000D03*
X170987500Y-118800000D03*
D31*
X170300000Y-118112500D03*
X169800000Y-118112500D03*
X169300000Y-118112500D03*
X168800000Y-118112500D03*
X168300000Y-118112500D03*
X167800000Y-118112500D03*
D32*
X167112500Y-118800000D03*
X167112500Y-119300000D03*
X167112500Y-119800000D03*
X167112500Y-120300000D03*
X167112500Y-120800000D03*
X167112500Y-121300000D03*
D33*
X169050000Y-120050000D03*
%TD*%
D25*
%TO.C,C27*%
X161500000Y-111480000D03*
X161500000Y-110520000D03*
%TD*%
D23*
%TO.C,R16*%
X138525000Y-109385000D03*
X138525000Y-108365000D03*
%TD*%
D29*
%TO.C,C23*%
X159500000Y-110125000D03*
X159500000Y-111675000D03*
%TD*%
D18*
%TO.C,C26*%
X144500000Y-114950000D03*
X144500000Y-113050000D03*
%TD*%
D25*
%TO.C,C24*%
X165000000Y-106492500D03*
X165000000Y-105532500D03*
%TD*%
D17*
%TO.C,TP2*%
X134700000Y-86000000D03*
%TD*%
D34*
%TO.C,J1*%
X137400000Y-121250000D03*
D35*
X137400000Y-127250000D03*
D36*
X142100000Y-124250000D03*
%TD*%
D37*
%TO.C,U13*%
X147350000Y-109055000D03*
X147350000Y-110325000D03*
X147350000Y-111595000D03*
X147350000Y-112865000D03*
X147350000Y-114135000D03*
X147350000Y-115405000D03*
X147350000Y-116675000D03*
X147350000Y-117945000D03*
X156650000Y-117945000D03*
X156650000Y-116675000D03*
X156650000Y-115405000D03*
X156650000Y-114135000D03*
X156650000Y-112865000D03*
X156650000Y-111595000D03*
X156650000Y-110325000D03*
X156650000Y-109055000D03*
%TD*%
D38*
%TO.C,C28*%
X160925000Y-114800000D03*
X163875000Y-114800000D03*
%TD*%
D25*
%TO.C,C19*%
X149825000Y-125955000D03*
X149825000Y-124995000D03*
%TD*%
D30*
%TO.C,C17*%
X134720000Y-110600000D03*
X135680000Y-110600000D03*
%TD*%
D17*
%TO.C,TP6*%
X173700000Y-118500000D03*
%TD*%
D38*
%TO.C,C31*%
X160925000Y-118400000D03*
X163875000Y-118400000D03*
%TD*%
D23*
%TO.C,R23*%
X162700000Y-111510000D03*
X162700000Y-110490000D03*
%TD*%
D39*
%TO.C,U9*%
X133905100Y-106250000D03*
X135405100Y-106250000D03*
X136905100Y-106250000D03*
X138405100Y-106250000D03*
X139905100Y-106250000D03*
X141405100Y-106250000D03*
X142905100Y-106250000D03*
X144405100Y-106250000D03*
X145905100Y-106250000D03*
X145905100Y-88750000D03*
X144405100Y-88750000D03*
X142905100Y-88750000D03*
X141405100Y-88750000D03*
X139905100Y-88750000D03*
X138405100Y-88750000D03*
X136905100Y-88750000D03*
X135405100Y-88750000D03*
X133905100Y-88750000D03*
D40*
X139005100Y-97640000D03*
X139005100Y-96540000D03*
X139005100Y-95440000D03*
X140105100Y-97640000D03*
X140105100Y-96540000D03*
X140105100Y-95440000D03*
X141205100Y-97640000D03*
X141205100Y-96540000D03*
X141205100Y-95440000D03*
%TD*%
D29*
%TO.C,C30*%
X161450000Y-105237500D03*
X161450000Y-106787500D03*
%TD*%
D41*
%TO.C,J6*%
X172900000Y-88280000D03*
D42*
X172900000Y-90820000D03*
X172900000Y-93360000D03*
X172900000Y-95900000D03*
X172900000Y-98440000D03*
X172900000Y-100980000D03*
X172900000Y-103520000D03*
X172900000Y-106060000D03*
%TD*%
D43*
%TO.C,J4*%
X168282500Y-75782500D03*
X168282500Y-78832500D03*
X167012500Y-75782500D03*
X167012500Y-78832500D03*
X165742500Y-75782500D03*
X165742500Y-78832500D03*
%TD*%
D44*
%TO.C,PD1*%
X154726500Y-79729500D03*
D45*
X154726500Y-82904500D03*
D44*
X147170000Y-79729500D03*
D45*
X147170000Y-82904500D03*
X150916500Y-82904500D03*
%TD*%
D43*
%TO.C,J2*%
X136282500Y-75782500D03*
X136282500Y-78832500D03*
X135012500Y-75782500D03*
X135012500Y-78832500D03*
X133742500Y-75782500D03*
X133742500Y-78832500D03*
%TD*%
M02*
