%TF.GenerationSoftware,KiCad,Pcbnew,7.0.5*%
%TF.CreationDate,2023-06-26T09:34:37-04:00*%
%TF.ProjectId,ESP32Sensor-LED_board,45535033-3253-4656-9e73-6f722d4c4544,rev?*%
%TF.SameCoordinates,Original*%
%TF.FileFunction,Legend,Bot*%
%TF.FilePolarity,Positive*%
%FSLAX46Y46*%
G04 Gerber Fmt 4.6, Leading zero omitted, Abs format (unit mm)*
G04 Created by KiCad (PCBNEW 7.0.5) date 2023-06-26 09:34:37*
%MOMM*%
%LPD*%
G01*
G04 APERTURE LIST*
%ADD10C,0.150000*%
%ADD11C,0.152400*%
%ADD12C,0.120000*%
%ADD13C,0.508000*%
G04 APERTURE END LIST*
D10*
%TO.C,R3*%
X22803464Y12328252D02*
X23382523Y12277672D01*
X23089178Y11833380D02*
X23955203Y12333380D01*
X23955203Y12333380D02*
X23764727Y12663295D01*
X23764727Y12663295D02*
X23675869Y12721964D01*
X23675869Y12721964D02*
X23610820Y12739393D01*
X23610820Y12739393D02*
X23504532Y12733014D01*
X23504532Y12733014D02*
X23380814Y12661585D01*
X23380814Y12661585D02*
X23322145Y12572727D01*
X23322145Y12572727D02*
X23304715Y12507678D01*
X23304715Y12507678D02*
X23311095Y12401390D01*
X23311095Y12401390D02*
X23501571Y12071475D01*
X23502822Y13116927D02*
X23193299Y13653038D01*
X23193299Y13653038D02*
X23030051Y13173887D01*
X23030051Y13173887D02*
X22958622Y13297605D01*
X22958622Y13297605D02*
X22869764Y13356274D01*
X22869764Y13356274D02*
X22804715Y13373703D01*
X22804715Y13373703D02*
X22698427Y13367324D01*
X22698427Y13367324D02*
X22492230Y13248276D01*
X22492230Y13248276D02*
X22433561Y13159418D01*
X22433561Y13159418D02*
X22416132Y13094369D01*
X22416132Y13094369D02*
X22422511Y12988081D01*
X22422511Y12988081D02*
X22565369Y12740645D01*
X22565369Y12740645D02*
X22654227Y12681976D01*
X22654227Y12681976D02*
X22719276Y12664546D01*
%TO.C,R17*%
X-25138142Y715180D02*
X-24804809Y1191371D01*
X-24566714Y715180D02*
X-24566714Y1715180D01*
X-24566714Y1715180D02*
X-24947666Y1715180D01*
X-24947666Y1715180D02*
X-25042904Y1667561D01*
X-25042904Y1667561D02*
X-25090523Y1619942D01*
X-25090523Y1619942D02*
X-25138142Y1524704D01*
X-25138142Y1524704D02*
X-25138142Y1381847D01*
X-25138142Y1381847D02*
X-25090523Y1286609D01*
X-25090523Y1286609D02*
X-25042904Y1238990D01*
X-25042904Y1238990D02*
X-24947666Y1191371D01*
X-24947666Y1191371D02*
X-24566714Y1191371D01*
X-26090523Y715180D02*
X-25519095Y715180D01*
X-25804809Y715180D02*
X-25804809Y1715180D01*
X-25804809Y1715180D02*
X-25709571Y1572323D01*
X-25709571Y1572323D02*
X-25614333Y1477085D01*
X-25614333Y1477085D02*
X-25519095Y1429466D01*
X-26423857Y1715180D02*
X-27090523Y1715180D01*
X-27090523Y1715180D02*
X-26661952Y715180D01*
%TO.C,U2*%
X12612761Y-23369768D02*
X12207999Y-22668700D01*
X12207999Y-22668700D02*
X12201619Y-22562412D01*
X12201619Y-22562412D02*
X12219049Y-22497363D01*
X12219049Y-22497363D02*
X12277718Y-22408505D01*
X12277718Y-22408505D02*
X12442676Y-22313267D01*
X12442676Y-22313267D02*
X12548964Y-22306887D01*
X12548964Y-22306887D02*
X12614012Y-22324317D01*
X12614012Y-22324317D02*
X12702871Y-22382986D01*
X12702871Y-22382986D02*
X13107633Y-23084054D01*
X13431167Y-22787290D02*
X13496216Y-22804720D01*
X13496216Y-22804720D02*
X13602504Y-22798340D01*
X13602504Y-22798340D02*
X13808701Y-22679292D01*
X13808701Y-22679292D02*
X13867370Y-22590434D01*
X13867370Y-22590434D02*
X13884800Y-22525385D01*
X13884800Y-22525385D02*
X13878420Y-22419097D01*
X13878420Y-22419097D02*
X13830801Y-22336618D01*
X13830801Y-22336618D02*
X13718133Y-22236710D01*
X13718133Y-22236710D02*
X12937547Y-22027553D01*
X12937547Y-22027553D02*
X13473658Y-21718029D01*
%TO.C,R5*%
X8071121Y-25420553D02*
X7524883Y-25221825D01*
X7923224Y-24868596D02*
X6957298Y-25127415D01*
X6957298Y-25127415D02*
X7055896Y-25495387D01*
X7055896Y-25495387D02*
X7126542Y-25575055D01*
X7126542Y-25575055D02*
X7184863Y-25608727D01*
X7184863Y-25608727D02*
X7289181Y-25630074D01*
X7289181Y-25630074D02*
X7427170Y-25593100D01*
X7427170Y-25593100D02*
X7506838Y-25522454D01*
X7506838Y-25522454D02*
X7540510Y-25464132D01*
X7540510Y-25464132D02*
X7561857Y-25359815D01*
X7561857Y-25359815D02*
X7463259Y-24991843D01*
X7339364Y-26553305D02*
X7216117Y-26093341D01*
X7216117Y-26093341D02*
X7663757Y-25924097D01*
X7663757Y-25924097D02*
X7630085Y-25982418D01*
X7630085Y-25982418D02*
X7608738Y-26086736D01*
X7608738Y-26086736D02*
X7670362Y-26316718D01*
X7670362Y-26316718D02*
X7741008Y-26396387D01*
X7741008Y-26396387D02*
X7799329Y-26430058D01*
X7799329Y-26430058D02*
X7903647Y-26451405D01*
X7903647Y-26451405D02*
X8133629Y-26389782D01*
X8133629Y-26389782D02*
X8213297Y-26319136D01*
X8213297Y-26319136D02*
X8246969Y-26260815D01*
X8246969Y-26260815D02*
X8268316Y-26156497D01*
X8268316Y-26156497D02*
X8206692Y-25926515D01*
X8206692Y-25926515D02*
X8136047Y-25846846D01*
X8136047Y-25846846D02*
X8077725Y-25813175D01*
%TO.C,K1*%
X23852094Y2085180D02*
X23852094Y3085180D01*
X23280666Y2085180D02*
X23709237Y2656609D01*
X23280666Y3085180D02*
X23852094Y2513752D01*
X22328285Y2085180D02*
X22899713Y2085180D01*
X22613999Y2085180D02*
X22613999Y3085180D01*
X22613999Y3085180D02*
X22709237Y2942323D01*
X22709237Y2942323D02*
X22804475Y2847085D01*
X22804475Y2847085D02*
X22899713Y2799466D01*
%TO.C,R7*%
X-5674321Y26064253D02*
X-5128083Y25865525D01*
X-5526424Y25512296D02*
X-4560498Y25771115D01*
X-4560498Y25771115D02*
X-4659096Y26139087D01*
X-4659096Y26139087D02*
X-4729742Y26218755D01*
X-4729742Y26218755D02*
X-4788063Y26252427D01*
X-4788063Y26252427D02*
X-4892381Y26273774D01*
X-4892381Y26273774D02*
X-5030370Y26236800D01*
X-5030370Y26236800D02*
X-5110038Y26166154D01*
X-5110038Y26166154D02*
X-5143710Y26107832D01*
X-5143710Y26107832D02*
X-5165057Y26003515D01*
X-5165057Y26003515D02*
X-5066459Y25635543D01*
X-4794668Y26645048D02*
X-4967214Y27288998D01*
X-4967214Y27288998D02*
X-5822217Y26616211D01*
%TO.C,J1*%
X16333333Y-3010819D02*
X16333333Y-3725104D01*
X16333333Y-3725104D02*
X16380952Y-3867961D01*
X16380952Y-3867961D02*
X16476190Y-3963200D01*
X16476190Y-3963200D02*
X16619047Y-4010819D01*
X16619047Y-4010819D02*
X16714285Y-4010819D01*
X15333333Y-4010819D02*
X15904761Y-4010819D01*
X15619047Y-4010819D02*
X15619047Y-3010819D01*
X15619047Y-3010819D02*
X15714285Y-3153676D01*
X15714285Y-3153676D02*
X15809523Y-3248914D01*
X15809523Y-3248914D02*
X15904761Y-3296533D01*
%TO.C,R10*%
X-3911640Y-19485838D02*
X-3537948Y-19931060D01*
X-4059536Y-20037796D02*
X-3093610Y-20296615D01*
X-3093610Y-20296615D02*
X-2995013Y-19928643D01*
X-2995013Y-19928643D02*
X-3016360Y-19824325D01*
X-3016360Y-19824325D02*
X-3050031Y-19766004D01*
X-3050031Y-19766004D02*
X-3129700Y-19695358D01*
X-3129700Y-19695358D02*
X-3267689Y-19658384D01*
X-3267689Y-19658384D02*
X-3372007Y-19679731D01*
X-3372007Y-19679731D02*
X-3430328Y-19713403D01*
X-3430328Y-19713403D02*
X-3500974Y-19793071D01*
X-3500974Y-19793071D02*
X-3599572Y-20161043D01*
X-3665145Y-18565909D02*
X-3813042Y-19117866D01*
X-3739094Y-18841887D02*
X-2773168Y-19100707D01*
X-2773168Y-19100707D02*
X-2935807Y-19155725D01*
X-2935807Y-19155725D02*
X-3052449Y-19223069D01*
X-3052449Y-19223069D02*
X-3123095Y-19302737D01*
X-2538998Y-18226774D02*
X-2514349Y-18134781D01*
X-2514349Y-18134781D02*
X-2535696Y-18030463D01*
X-2535696Y-18030463D02*
X-2569368Y-17972142D01*
X-2569368Y-17972142D02*
X-2649036Y-17901496D01*
X-2649036Y-17901496D02*
X-2820697Y-17806201D01*
X-2820697Y-17806201D02*
X-3050679Y-17744577D01*
X-3050679Y-17744577D02*
X-3246990Y-17741275D01*
X-3246990Y-17741275D02*
X-3351307Y-17762622D01*
X-3351307Y-17762622D02*
X-3409629Y-17796293D01*
X-3409629Y-17796293D02*
X-3480275Y-17875962D01*
X-3480275Y-17875962D02*
X-3504924Y-17967955D01*
X-3504924Y-17967955D02*
X-3483577Y-18072272D01*
X-3483577Y-18072272D02*
X-3449905Y-18130593D01*
X-3449905Y-18130593D02*
X-3370237Y-18201239D01*
X-3370237Y-18201239D02*
X-3198576Y-18296535D01*
X-3198576Y-18296535D02*
X-2968593Y-18358158D01*
X-2968593Y-18358158D02*
X-2772283Y-18361461D01*
X-2772283Y-18361461D02*
X-2667965Y-18340114D01*
X-2667965Y-18340114D02*
X-2609644Y-18306442D01*
X-2609644Y-18306442D02*
X-2538998Y-18226774D01*
%TO.C,R6*%
X23591216Y-13418072D02*
X23345490Y-12891301D01*
X23876931Y-12923200D02*
X23010905Y-12423200D01*
X23010905Y-12423200D02*
X22820429Y-12753115D01*
X22820429Y-12753115D02*
X22814049Y-12859403D01*
X22814049Y-12859403D02*
X22831479Y-12924452D01*
X22831479Y-12924452D02*
X22890148Y-13013310D01*
X22890148Y-13013310D02*
X23013866Y-13084739D01*
X23013866Y-13084739D02*
X23120154Y-13091118D01*
X23120154Y-13091118D02*
X23185203Y-13073688D01*
X23185203Y-13073688D02*
X23274061Y-13015019D01*
X23274061Y-13015019D02*
X23464538Y-12685105D01*
X22296620Y-13660379D02*
X22391858Y-13495422D01*
X22391858Y-13495422D02*
X22480716Y-13436753D01*
X22480716Y-13436753D02*
X22545765Y-13419323D01*
X22545765Y-13419323D02*
X22717102Y-13408273D01*
X22717102Y-13408273D02*
X22905869Y-13462272D01*
X22905869Y-13462272D02*
X23235783Y-13652748D01*
X23235783Y-13652748D02*
X23294452Y-13741607D01*
X23294452Y-13741607D02*
X23311882Y-13806655D01*
X23311882Y-13806655D02*
X23305502Y-13912944D01*
X23305502Y-13912944D02*
X23210264Y-14077901D01*
X23210264Y-14077901D02*
X23121406Y-14136570D01*
X23121406Y-14136570D02*
X23056357Y-14154000D01*
X23056357Y-14154000D02*
X22950069Y-14147620D01*
X22950069Y-14147620D02*
X22743872Y-14028572D01*
X22743872Y-14028572D02*
X22685203Y-13939714D01*
X22685203Y-13939714D02*
X22667773Y-13874665D01*
X22667773Y-13874665D02*
X22674153Y-13768377D01*
X22674153Y-13768377D02*
X22769391Y-13603420D01*
X22769391Y-13603420D02*
X22858250Y-13544751D01*
X22858250Y-13544751D02*
X22923298Y-13527321D01*
X22923298Y-13527321D02*
X23029587Y-13533701D01*
%TO.C,R14*%
X26931857Y715180D02*
X27265190Y1191371D01*
X27503285Y715180D02*
X27503285Y1715180D01*
X27503285Y1715180D02*
X27122333Y1715180D01*
X27122333Y1715180D02*
X27027095Y1667561D01*
X27027095Y1667561D02*
X26979476Y1619942D01*
X26979476Y1619942D02*
X26931857Y1524704D01*
X26931857Y1524704D02*
X26931857Y1381847D01*
X26931857Y1381847D02*
X26979476Y1286609D01*
X26979476Y1286609D02*
X27027095Y1238990D01*
X27027095Y1238990D02*
X27122333Y1191371D01*
X27122333Y1191371D02*
X27503285Y1191371D01*
X25979476Y715180D02*
X26550904Y715180D01*
X26265190Y715180D02*
X26265190Y1715180D01*
X26265190Y1715180D02*
X26360428Y1572323D01*
X26360428Y1572323D02*
X26455666Y1477085D01*
X26455666Y1477085D02*
X26550904Y1429466D01*
X25122333Y1381847D02*
X25122333Y715180D01*
X25360428Y1762800D02*
X25598523Y1048514D01*
X25598523Y1048514D02*
X24979476Y1048514D01*
%TO.C,R16*%
X-19423142Y-2359819D02*
X-19089809Y-1883628D01*
X-18851714Y-2359819D02*
X-18851714Y-1359819D01*
X-18851714Y-1359819D02*
X-19232666Y-1359819D01*
X-19232666Y-1359819D02*
X-19327904Y-1407438D01*
X-19327904Y-1407438D02*
X-19375523Y-1455057D01*
X-19375523Y-1455057D02*
X-19423142Y-1550295D01*
X-19423142Y-1550295D02*
X-19423142Y-1693152D01*
X-19423142Y-1693152D02*
X-19375523Y-1788390D01*
X-19375523Y-1788390D02*
X-19327904Y-1836009D01*
X-19327904Y-1836009D02*
X-19232666Y-1883628D01*
X-19232666Y-1883628D02*
X-18851714Y-1883628D01*
X-20375523Y-2359819D02*
X-19804095Y-2359819D01*
X-20089809Y-2359819D02*
X-20089809Y-1359819D01*
X-20089809Y-1359819D02*
X-19994571Y-1502676D01*
X-19994571Y-1502676D02*
X-19899333Y-1597914D01*
X-19899333Y-1597914D02*
X-19804095Y-1645533D01*
X-21232666Y-1359819D02*
X-21042190Y-1359819D01*
X-21042190Y-1359819D02*
X-20946952Y-1407438D01*
X-20946952Y-1407438D02*
X-20899333Y-1455057D01*
X-20899333Y-1455057D02*
X-20804095Y-1597914D01*
X-20804095Y-1597914D02*
X-20756476Y-1788390D01*
X-20756476Y-1788390D02*
X-20756476Y-2169342D01*
X-20756476Y-2169342D02*
X-20804095Y-2264580D01*
X-20804095Y-2264580D02*
X-20851714Y-2312200D01*
X-20851714Y-2312200D02*
X-20946952Y-2359819D01*
X-20946952Y-2359819D02*
X-21137428Y-2359819D01*
X-21137428Y-2359819D02*
X-21232666Y-2312200D01*
X-21232666Y-2312200D02*
X-21280285Y-2264580D01*
X-21280285Y-2264580D02*
X-21327904Y-2169342D01*
X-21327904Y-2169342D02*
X-21327904Y-1931247D01*
X-21327904Y-1931247D02*
X-21280285Y-1836009D01*
X-21280285Y-1836009D02*
X-21232666Y-1788390D01*
X-21232666Y-1788390D02*
X-21137428Y-1740771D01*
X-21137428Y-1740771D02*
X-20946952Y-1740771D01*
X-20946952Y-1740771D02*
X-20851714Y-1788390D01*
X-20851714Y-1788390D02*
X-20804095Y-1836009D01*
X-20804095Y-1836009D02*
X-20756476Y-1931247D01*
%TO.C,R12*%
X-23313456Y-14119141D02*
X-22734396Y-14169721D01*
X-23027741Y-14614012D02*
X-22161716Y-14114012D01*
X-22161716Y-14114012D02*
X-22352192Y-13784098D01*
X-22352192Y-13784098D02*
X-22441051Y-13725429D01*
X-22441051Y-13725429D02*
X-22506099Y-13707999D01*
X-22506099Y-13707999D02*
X-22612388Y-13714379D01*
X-22612388Y-13714379D02*
X-22736105Y-13785807D01*
X-22736105Y-13785807D02*
X-22794775Y-13874666D01*
X-22794775Y-13874666D02*
X-22812204Y-13939715D01*
X-22812204Y-13939715D02*
X-22805825Y-14046003D01*
X-22805825Y-14046003D02*
X-22615348Y-14375917D01*
X-23789646Y-13294355D02*
X-23503932Y-13789226D01*
X-23646789Y-13541790D02*
X-22780764Y-13041790D01*
X-22780764Y-13041790D02*
X-22856863Y-13195698D01*
X-22856863Y-13195698D02*
X-22891722Y-13325795D01*
X-22891722Y-13325795D02*
X-22885342Y-13432083D01*
X-23196576Y-12512059D02*
X-23179146Y-12447010D01*
X-23179146Y-12447010D02*
X-23185526Y-12340722D01*
X-23185526Y-12340722D02*
X-23304573Y-12134526D01*
X-23304573Y-12134526D02*
X-23393432Y-12075857D01*
X-23393432Y-12075857D02*
X-23458480Y-12058427D01*
X-23458480Y-12058427D02*
X-23564769Y-12064807D01*
X-23564769Y-12064807D02*
X-23647247Y-12112426D01*
X-23647247Y-12112426D02*
X-23747156Y-12225093D01*
X-23747156Y-12225093D02*
X-23956313Y-13005679D01*
X-23956313Y-13005679D02*
X-24265837Y-12469568D01*
%TO.C,C6*%
X14396937Y-22549131D02*
X14379508Y-22614180D01*
X14379508Y-22614180D02*
X14409697Y-22761707D01*
X14409697Y-22761707D02*
X14457316Y-22844186D01*
X14457316Y-22844186D02*
X14569984Y-22944094D01*
X14569984Y-22944094D02*
X14700081Y-22978954D01*
X14700081Y-22978954D02*
X14806370Y-22972574D01*
X14806370Y-22972574D02*
X14995136Y-22918575D01*
X14995136Y-22918575D02*
X15118854Y-22847147D01*
X15118854Y-22847147D02*
X15260002Y-22710669D01*
X15260002Y-22710669D02*
X15318671Y-22621811D01*
X15318671Y-22621811D02*
X15353531Y-22491713D01*
X15353531Y-22491713D02*
X15323341Y-22344186D01*
X15323341Y-22344186D02*
X15275722Y-22261707D01*
X15275722Y-22261707D02*
X15163054Y-22161799D01*
X15163054Y-22161799D02*
X15098006Y-22144369D01*
X14751913Y-21354443D02*
X14847151Y-21519400D01*
X14847151Y-21519400D02*
X14853531Y-21625688D01*
X14853531Y-21625688D02*
X14836101Y-21690737D01*
X14836101Y-21690737D02*
X14760002Y-21844644D01*
X14760002Y-21844644D02*
X14618854Y-21981121D01*
X14618854Y-21981121D02*
X14288940Y-22171598D01*
X14288940Y-22171598D02*
X14182652Y-22177977D01*
X14182652Y-22177977D02*
X14117603Y-22160548D01*
X14117603Y-22160548D02*
X14028744Y-22101879D01*
X14028744Y-22101879D02*
X13933506Y-21936921D01*
X13933506Y-21936921D02*
X13927127Y-21830633D01*
X13927127Y-21830633D02*
X13944556Y-21765584D01*
X13944556Y-21765584D02*
X14003225Y-21676726D01*
X14003225Y-21676726D02*
X14209422Y-21557678D01*
X14209422Y-21557678D02*
X14315710Y-21551299D01*
X14315710Y-21551299D02*
X14380759Y-21568728D01*
X14380759Y-21568728D02*
X14469617Y-21627397D01*
X14469617Y-21627397D02*
X14564855Y-21792355D01*
X14564855Y-21792355D02*
X14571235Y-21898643D01*
X14571235Y-21898643D02*
X14553805Y-21963692D01*
X14553805Y-21963692D02*
X14495136Y-22052550D01*
%TO.C,U3*%
X-12612761Y23369768D02*
X-12207999Y22668700D01*
X-12207999Y22668700D02*
X-12201619Y22562412D01*
X-12201619Y22562412D02*
X-12219049Y22497363D01*
X-12219049Y22497363D02*
X-12277718Y22408505D01*
X-12277718Y22408505D02*
X-12442676Y22313267D01*
X-12442676Y22313267D02*
X-12548964Y22306887D01*
X-12548964Y22306887D02*
X-12614012Y22324317D01*
X-12614012Y22324317D02*
X-12702871Y22382986D01*
X-12702871Y22382986D02*
X-13107633Y23084054D01*
X-13437547Y22893578D02*
X-13973658Y22584054D01*
X-13973658Y22584054D02*
X-13494507Y22420806D01*
X-13494507Y22420806D02*
X-13618225Y22349378D01*
X-13618225Y22349378D02*
X-13676894Y22260519D01*
X-13676894Y22260519D02*
X-13694324Y22195471D01*
X-13694324Y22195471D02*
X-13687944Y22089183D01*
X-13687944Y22089183D02*
X-13568896Y21882986D01*
X-13568896Y21882986D02*
X-13480038Y21824317D01*
X-13480038Y21824317D02*
X-13414989Y21806887D01*
X-13414989Y21806887D02*
X-13308701Y21813267D01*
X-13308701Y21813267D02*
X-13061265Y21956124D01*
X-13061265Y21956124D02*
X-13002596Y22044982D01*
X-13002596Y22044982D02*
X-12985166Y22110031D01*
%TO.C,R2*%
X6185192Y18382173D02*
X5811501Y18827395D01*
X6333089Y18934130D02*
X5367163Y19192950D01*
X5367163Y19192950D02*
X5268565Y18824978D01*
X5268565Y18824978D02*
X5289912Y18720660D01*
X5289912Y18720660D02*
X5323584Y18662339D01*
X5323584Y18662339D02*
X5403252Y18591693D01*
X5403252Y18591693D02*
X5541242Y18554719D01*
X5541242Y18554719D02*
X5645559Y18576066D01*
X5645559Y18576066D02*
X5703881Y18609738D01*
X5703881Y18609738D02*
X5774527Y18689406D01*
X5774527Y18689406D02*
X5873124Y19057378D01*
X5212662Y18248371D02*
X5154341Y18214699D01*
X5154341Y18214699D02*
X5083695Y18135031D01*
X5083695Y18135031D02*
X5022071Y17905048D01*
X5022071Y17905048D02*
X5043418Y17800731D01*
X5043418Y17800731D02*
X5077090Y17742410D01*
X5077090Y17742410D02*
X5156758Y17671764D01*
X5156758Y17671764D02*
X5248751Y17647114D01*
X5248751Y17647114D02*
X5399065Y17656137D01*
X5399065Y17656137D02*
X6098919Y18060198D01*
X6098919Y18060198D02*
X5938698Y17462243D01*
%TO.C,C5*%
X17170962Y-21254841D02*
X17153533Y-21319890D01*
X17153533Y-21319890D02*
X17183722Y-21467417D01*
X17183722Y-21467417D02*
X17231341Y-21549896D01*
X17231341Y-21549896D02*
X17344009Y-21649804D01*
X17344009Y-21649804D02*
X17474106Y-21684664D01*
X17474106Y-21684664D02*
X17580395Y-21678284D01*
X17580395Y-21678284D02*
X17769161Y-21624285D01*
X17769161Y-21624285D02*
X17892879Y-21552857D01*
X17892879Y-21552857D02*
X18034027Y-21416379D01*
X18034027Y-21416379D02*
X18092696Y-21327521D01*
X18092696Y-21327521D02*
X18127556Y-21197423D01*
X18127556Y-21197423D02*
X18097366Y-21049896D01*
X18097366Y-21049896D02*
X18049747Y-20967417D01*
X18049747Y-20967417D02*
X17937079Y-20867509D01*
X17937079Y-20867509D02*
X17872031Y-20850079D01*
X17502128Y-20018913D02*
X17740223Y-20431306D01*
X17740223Y-20431306D02*
X17351640Y-20710641D01*
X17351640Y-20710641D02*
X17369070Y-20645592D01*
X17369070Y-20645592D02*
X17362690Y-20539304D01*
X17362690Y-20539304D02*
X17243642Y-20333107D01*
X17243642Y-20333107D02*
X17154784Y-20274438D01*
X17154784Y-20274438D02*
X17089735Y-20257009D01*
X17089735Y-20257009D02*
X16983447Y-20263388D01*
X16983447Y-20263388D02*
X16777250Y-20382436D01*
X16777250Y-20382436D02*
X16718581Y-20471294D01*
X16718581Y-20471294D02*
X16701152Y-20536343D01*
X16701152Y-20536343D02*
X16707531Y-20642631D01*
X16707531Y-20642631D02*
X16826579Y-20848828D01*
X16826579Y-20848828D02*
X16915437Y-20907497D01*
X16915437Y-20907497D02*
X16980486Y-20924927D01*
%TO.C,C8*%
X-12192139Y-15249938D02*
X-12127090Y-15232508D01*
X-12127090Y-15232508D02*
X-12014422Y-15132600D01*
X-12014422Y-15132600D02*
X-11966803Y-15050121D01*
X-11966803Y-15050121D02*
X-11936614Y-14902594D01*
X-11936614Y-14902594D02*
X-11971474Y-14772496D01*
X-11971474Y-14772496D02*
X-12030143Y-14683638D01*
X-12030143Y-14683638D02*
X-12171290Y-14547160D01*
X-12171290Y-14547160D02*
X-12295008Y-14475732D01*
X-12295008Y-14475732D02*
X-12483775Y-14421733D01*
X-12483775Y-14421733D02*
X-12590063Y-14415353D01*
X-12590063Y-14415353D02*
X-12720161Y-14450213D01*
X-12720161Y-14450213D02*
X-12832829Y-14550121D01*
X-12832829Y-14550121D02*
X-12880448Y-14632600D01*
X-12880448Y-14632600D02*
X-12910637Y-14780127D01*
X-12910637Y-14780127D02*
X-12893207Y-14845176D01*
X-12890247Y-15506714D02*
X-12883867Y-15400426D01*
X-12883867Y-15400426D02*
X-12901297Y-15335377D01*
X-12901297Y-15335377D02*
X-12959966Y-15246519D01*
X-12959966Y-15246519D02*
X-13001205Y-15222709D01*
X-13001205Y-15222709D02*
X-13107493Y-15216330D01*
X-13107493Y-15216330D02*
X-13172542Y-15233759D01*
X-13172542Y-15233759D02*
X-13261400Y-15292429D01*
X-13261400Y-15292429D02*
X-13356638Y-15457386D01*
X-13356638Y-15457386D02*
X-13363018Y-15563674D01*
X-13363018Y-15563674D02*
X-13345588Y-15628723D01*
X-13345588Y-15628723D02*
X-13286919Y-15717581D01*
X-13286919Y-15717581D02*
X-13245680Y-15741391D01*
X-13245680Y-15741391D02*
X-13139392Y-15747770D01*
X-13139392Y-15747770D02*
X-13074343Y-15730341D01*
X-13074343Y-15730341D02*
X-12985485Y-15671671D01*
X-12985485Y-15671671D02*
X-12890247Y-15506714D01*
X-12890247Y-15506714D02*
X-12801388Y-15448045D01*
X-12801388Y-15448045D02*
X-12736339Y-15430615D01*
X-12736339Y-15430615D02*
X-12630051Y-15436995D01*
X-12630051Y-15436995D02*
X-12465094Y-15532233D01*
X-12465094Y-15532233D02*
X-12406425Y-15621092D01*
X-12406425Y-15621092D02*
X-12388995Y-15686140D01*
X-12388995Y-15686140D02*
X-12395375Y-15792429D01*
X-12395375Y-15792429D02*
X-12490613Y-15957386D01*
X-12490613Y-15957386D02*
X-12579471Y-16016055D01*
X-12579471Y-16016055D02*
X-12644520Y-16033485D01*
X-12644520Y-16033485D02*
X-12750808Y-16027105D01*
X-12750808Y-16027105D02*
X-12915765Y-15931867D01*
X-12915765Y-15931867D02*
X-12974435Y-15843008D01*
X-12974435Y-15843008D02*
X-12991864Y-15777960D01*
X-12991864Y-15777960D02*
X-12985485Y-15671671D01*
%TO.C,C1*%
X-17754083Y19995887D02*
X-17771512Y19930838D01*
X-17771512Y19930838D02*
X-17741323Y19783311D01*
X-17741323Y19783311D02*
X-17693704Y19700832D01*
X-17693704Y19700832D02*
X-17581036Y19600924D01*
X-17581036Y19600924D02*
X-17450939Y19566064D01*
X-17450939Y19566064D02*
X-17344650Y19572444D01*
X-17344650Y19572444D02*
X-17155884Y19626443D01*
X-17155884Y19626443D02*
X-17032166Y19697871D01*
X-17032166Y19697871D02*
X-16891018Y19834349D01*
X-16891018Y19834349D02*
X-16832349Y19923207D01*
X-16832349Y19923207D02*
X-16797489Y20053305D01*
X-16797489Y20053305D02*
X-16827679Y20200832D01*
X-16827679Y20200832D02*
X-16875298Y20283311D01*
X-16875298Y20283311D02*
X-16987966Y20383219D01*
X-16987966Y20383219D02*
X-17053014Y20400649D01*
X-18312752Y20773054D02*
X-18027037Y20278182D01*
X-18169895Y20525618D02*
X-17303869Y21025618D01*
X-17303869Y21025618D02*
X-17379968Y20871711D01*
X-17379968Y20871711D02*
X-17414828Y20741613D01*
X-17414828Y20741613D02*
X-17408448Y20635325D01*
%TO.C,U4*%
X-12260921Y-22777290D02*
X-12665683Y-23478359D01*
X-12665683Y-23478359D02*
X-12754541Y-23537028D01*
X-12754541Y-23537028D02*
X-12819590Y-23554457D01*
X-12819590Y-23554457D02*
X-12925878Y-23548078D01*
X-12925878Y-23548078D02*
X-13090836Y-23452840D01*
X-13090836Y-23452840D02*
X-13149505Y-23363981D01*
X-13149505Y-23363981D02*
X-13166934Y-23298932D01*
X-13166934Y-23298932D02*
X-13160555Y-23192644D01*
X-13160555Y-23192644D02*
X-12755793Y-22491576D01*
X-13706006Y-22327870D02*
X-14039340Y-22905221D01*
X-13309334Y-22117003D02*
X-13460280Y-22854641D01*
X-13460280Y-22854641D02*
X-13996391Y-22545117D01*
%TO.C,C4*%
X12802805Y15404784D02*
X12867854Y15422214D01*
X12867854Y15422214D02*
X12980522Y15522122D01*
X12980522Y15522122D02*
X13028141Y15604601D01*
X13028141Y15604601D02*
X13058330Y15752128D01*
X13058330Y15752128D02*
X13023470Y15882226D01*
X13023470Y15882226D02*
X12964801Y15971084D01*
X12964801Y15971084D02*
X12823654Y16107562D01*
X12823654Y16107562D02*
X12699936Y16178990D01*
X12699936Y16178990D02*
X12511169Y16232989D01*
X12511169Y16232989D02*
X12404881Y16239369D01*
X12404881Y16239369D02*
X12274783Y16204509D01*
X12274783Y16204509D02*
X12162115Y16104601D01*
X12162115Y16104601D02*
X12114496Y16022122D01*
X12114496Y16022122D02*
X12084307Y15874595D01*
X12084307Y15874595D02*
X12101737Y15809546D01*
X11879362Y14948191D02*
X12456712Y14614858D01*
X11668495Y15344864D02*
X12406132Y15193917D01*
X12406132Y15193917D02*
X12096608Y14657806D01*
%TO.C,J2*%
X-15666666Y-3010819D02*
X-15666666Y-3725104D01*
X-15666666Y-3725104D02*
X-15619047Y-3867961D01*
X-15619047Y-3867961D02*
X-15523809Y-3963200D01*
X-15523809Y-3963200D02*
X-15380952Y-4010819D01*
X-15380952Y-4010819D02*
X-15285714Y-4010819D01*
X-16095238Y-3106057D02*
X-16142857Y-3058438D01*
X-16142857Y-3058438D02*
X-16238095Y-3010819D01*
X-16238095Y-3010819D02*
X-16476190Y-3010819D01*
X-16476190Y-3010819D02*
X-16571428Y-3058438D01*
X-16571428Y-3058438D02*
X-16619047Y-3106057D01*
X-16619047Y-3106057D02*
X-16666666Y-3201295D01*
X-16666666Y-3201295D02*
X-16666666Y-3296533D01*
X-16666666Y-3296533D02*
X-16619047Y-3439390D01*
X-16619047Y-3439390D02*
X-16047619Y-4010819D01*
X-16047619Y-4010819D02*
X-16666666Y-4010819D01*
%TO.C,C2*%
X-15214073Y22535872D02*
X-15231502Y22470823D01*
X-15231502Y22470823D02*
X-15201313Y22323296D01*
X-15201313Y22323296D02*
X-15153694Y22240817D01*
X-15153694Y22240817D02*
X-15041026Y22140909D01*
X-15041026Y22140909D02*
X-14910929Y22106049D01*
X-14910929Y22106049D02*
X-14804640Y22112429D01*
X-14804640Y22112429D02*
X-14615874Y22166428D01*
X-14615874Y22166428D02*
X-14492156Y22237856D01*
X-14492156Y22237856D02*
X-14351008Y22374334D01*
X-14351008Y22374334D02*
X-14292339Y22463192D01*
X-14292339Y22463192D02*
X-14257479Y22593290D01*
X-14257479Y22593290D02*
X-14287669Y22740817D01*
X-14287669Y22740817D02*
X-14335288Y22823296D01*
X-14335288Y22823296D02*
X-14447956Y22923204D01*
X-14447956Y22923204D02*
X-14513004Y22940634D01*
X-14703481Y23270548D02*
X-14686051Y23335597D01*
X-14686051Y23335597D02*
X-14692431Y23441885D01*
X-14692431Y23441885D02*
X-14811478Y23648082D01*
X-14811478Y23648082D02*
X-14900337Y23706751D01*
X-14900337Y23706751D02*
X-14965385Y23724181D01*
X-14965385Y23724181D02*
X-15071674Y23717801D01*
X-15071674Y23717801D02*
X-15154152Y23670182D01*
X-15154152Y23670182D02*
X-15254061Y23557514D01*
X-15254061Y23557514D02*
X-15463218Y22776928D01*
X-15463218Y22776928D02*
X-15772742Y23313039D01*
%TO.C,R8*%
X-8071121Y25420553D02*
X-7524883Y25221825D01*
X-7923224Y24868596D02*
X-6957298Y25127415D01*
X-6957298Y25127415D02*
X-7055896Y25495387D01*
X-7055896Y25495387D02*
X-7126542Y25575055D01*
X-7126542Y25575055D02*
X-7184863Y25608727D01*
X-7184863Y25608727D02*
X-7289181Y25630074D01*
X-7289181Y25630074D02*
X-7427170Y25593100D01*
X-7427170Y25593100D02*
X-7506838Y25522454D01*
X-7506838Y25522454D02*
X-7540510Y25464132D01*
X-7540510Y25464132D02*
X-7561857Y25359815D01*
X-7561857Y25359815D02*
X-7463259Y24991843D01*
X-7667060Y26120408D02*
X-7596414Y26040739D01*
X-7596414Y26040739D02*
X-7538092Y26007068D01*
X-7538092Y26007068D02*
X-7433775Y25985721D01*
X-7433775Y25985721D02*
X-7387778Y25998045D01*
X-7387778Y25998045D02*
X-7308110Y26068691D01*
X-7308110Y26068691D02*
X-7274438Y26127012D01*
X-7274438Y26127012D02*
X-7253091Y26231330D01*
X-7253091Y26231330D02*
X-7302390Y26415316D01*
X-7302390Y26415316D02*
X-7373036Y26494984D01*
X-7373036Y26494984D02*
X-7431357Y26528656D01*
X-7431357Y26528656D02*
X-7535675Y26550003D01*
X-7535675Y26550003D02*
X-7581671Y26537678D01*
X-7581671Y26537678D02*
X-7661340Y26467032D01*
X-7661340Y26467032D02*
X-7695011Y26408711D01*
X-7695011Y26408711D02*
X-7716358Y26304394D01*
X-7716358Y26304394D02*
X-7667060Y26120408D01*
X-7667060Y26120408D02*
X-7688407Y26016090D01*
X-7688407Y26016090D02*
X-7722078Y25957769D01*
X-7722078Y25957769D02*
X-7801747Y25887123D01*
X-7801747Y25887123D02*
X-7985732Y25837824D01*
X-7985732Y25837824D02*
X-8090050Y25859171D01*
X-8090050Y25859171D02*
X-8148371Y25892843D01*
X-8148371Y25892843D02*
X-8219017Y25972511D01*
X-8219017Y25972511D02*
X-8268316Y26156497D01*
X-8268316Y26156497D02*
X-8246969Y26260815D01*
X-8246969Y26260815D02*
X-8213297Y26319136D01*
X-8213297Y26319136D02*
X-8133629Y26389782D01*
X-8133629Y26389782D02*
X-7949643Y26439081D01*
X-7949643Y26439081D02*
X-7845326Y26417734D01*
X-7845326Y26417734D02*
X-7787004Y26384062D01*
X-7787004Y26384062D02*
X-7716358Y26304394D01*
%TO.C,C3*%
X13979418Y14798031D02*
X14044467Y14815461D01*
X14044467Y14815461D02*
X14157135Y14915369D01*
X14157135Y14915369D02*
X14204754Y14997848D01*
X14204754Y14997848D02*
X14234943Y15145375D01*
X14234943Y15145375D02*
X14200083Y15275473D01*
X14200083Y15275473D02*
X14141414Y15364331D01*
X14141414Y15364331D02*
X14000267Y15500809D01*
X14000267Y15500809D02*
X13876549Y15572237D01*
X13876549Y15572237D02*
X13687782Y15626236D01*
X13687782Y15626236D02*
X13581494Y15632616D01*
X13581494Y15632616D02*
X13451396Y15597756D01*
X13451396Y15597756D02*
X13338728Y15497848D01*
X13338728Y15497848D02*
X13291109Y15415369D01*
X13291109Y15415369D02*
X13260920Y15267842D01*
X13260920Y15267842D02*
X13278350Y15202793D01*
X13029204Y14961737D02*
X12719681Y14425626D01*
X12719681Y14425626D02*
X13216262Y14523825D01*
X13216262Y14523825D02*
X13144833Y14400107D01*
X13144833Y14400107D02*
X13138453Y14293819D01*
X13138453Y14293819D02*
X13155883Y14228770D01*
X13155883Y14228770D02*
X13214552Y14139912D01*
X13214552Y14139912D02*
X13420749Y14020864D01*
X13420749Y14020864D02*
X13527037Y14014484D01*
X13527037Y14014484D02*
X13592086Y14031914D01*
X13592086Y14031914D02*
X13680944Y14090583D01*
X13680944Y14090583D02*
X13823801Y14338019D01*
X13823801Y14338019D02*
X13830181Y14444307D01*
X13830181Y14444307D02*
X13812751Y14509356D01*
%TO.C,R11*%
X-6308440Y-18842138D02*
X-5934748Y-19287360D01*
X-6456336Y-19394096D02*
X-5490410Y-19652915D01*
X-5490410Y-19652915D02*
X-5391813Y-19284943D01*
X-5391813Y-19284943D02*
X-5413160Y-19180625D01*
X-5413160Y-19180625D02*
X-5446831Y-19122304D01*
X-5446831Y-19122304D02*
X-5526500Y-19051658D01*
X-5526500Y-19051658D02*
X-5664489Y-19014684D01*
X-5664489Y-19014684D02*
X-5768807Y-19036031D01*
X-5768807Y-19036031D02*
X-5827128Y-19069703D01*
X-5827128Y-19069703D02*
X-5897774Y-19149371D01*
X-5897774Y-19149371D02*
X-5996372Y-19517343D01*
X-6061945Y-17922209D02*
X-6209842Y-18474166D01*
X-6135894Y-18198187D02*
X-5169968Y-18457007D01*
X-5169968Y-18457007D02*
X-5332607Y-18512025D01*
X-5332607Y-18512025D02*
X-5449249Y-18579369D01*
X-5449249Y-18579369D02*
X-5519895Y-18659037D01*
X-5815451Y-17002279D02*
X-5963348Y-17554237D01*
X-5889399Y-17278258D02*
X-4923473Y-17537077D01*
X-4923473Y-17537077D02*
X-5086112Y-17592096D01*
X-5086112Y-17592096D02*
X-5202755Y-17659439D01*
X-5202755Y-17659439D02*
X-5273401Y-17739108D01*
%TO.C,R4*%
X5442421Y-26064253D02*
X4896183Y-25865525D01*
X5294524Y-25512296D02*
X4328598Y-25771115D01*
X4328598Y-25771115D02*
X4427196Y-26139087D01*
X4427196Y-26139087D02*
X4497842Y-26218755D01*
X4497842Y-26218755D02*
X4556163Y-26252427D01*
X4556163Y-26252427D02*
X4660481Y-26273774D01*
X4660481Y-26273774D02*
X4798470Y-26236800D01*
X4798470Y-26236800D02*
X4878138Y-26166154D01*
X4878138Y-26166154D02*
X4911810Y-26107832D01*
X4911810Y-26107832D02*
X4933157Y-26003515D01*
X4933157Y-26003515D02*
X4834559Y-25635543D01*
X5020315Y-27064736D02*
X5664265Y-26892190D01*
X4590720Y-26933351D02*
X5219043Y-26518498D01*
X5219043Y-26518498D02*
X5379264Y-27116452D01*
%TO.C,R15*%
X20581857Y2085180D02*
X20915190Y2561371D01*
X21153285Y2085180D02*
X21153285Y3085180D01*
X21153285Y3085180D02*
X20772333Y3085180D01*
X20772333Y3085180D02*
X20677095Y3037561D01*
X20677095Y3037561D02*
X20629476Y2989942D01*
X20629476Y2989942D02*
X20581857Y2894704D01*
X20581857Y2894704D02*
X20581857Y2751847D01*
X20581857Y2751847D02*
X20629476Y2656609D01*
X20629476Y2656609D02*
X20677095Y2608990D01*
X20677095Y2608990D02*
X20772333Y2561371D01*
X20772333Y2561371D02*
X21153285Y2561371D01*
X19629476Y2085180D02*
X20200904Y2085180D01*
X19915190Y2085180D02*
X19915190Y3085180D01*
X19915190Y3085180D02*
X20010428Y2942323D01*
X20010428Y2942323D02*
X20105666Y2847085D01*
X20105666Y2847085D02*
X20200904Y2799466D01*
X18724714Y3085180D02*
X19200904Y3085180D01*
X19200904Y3085180D02*
X19248523Y2608990D01*
X19248523Y2608990D02*
X19200904Y2656609D01*
X19200904Y2656609D02*
X19105666Y2704228D01*
X19105666Y2704228D02*
X18867571Y2704228D01*
X18867571Y2704228D02*
X18772333Y2656609D01*
X18772333Y2656609D02*
X18724714Y2608990D01*
X18724714Y2608990D02*
X18677095Y2513752D01*
X18677095Y2513752D02*
X18677095Y2275657D01*
X18677095Y2275657D02*
X18724714Y2180419D01*
X18724714Y2180419D02*
X18772333Y2132800D01*
X18772333Y2132800D02*
X18867571Y2085180D01*
X18867571Y2085180D02*
X19105666Y2085180D01*
X19105666Y2085180D02*
X19200904Y2132800D01*
X19200904Y2132800D02*
X19248523Y2180419D01*
%TO.C,C7*%
X-13273250Y-14393432D02*
X-13208201Y-14376002D01*
X-13208201Y-14376002D02*
X-13095533Y-14276094D01*
X-13095533Y-14276094D02*
X-13047914Y-14193615D01*
X-13047914Y-14193615D02*
X-13017725Y-14046088D01*
X-13017725Y-14046088D02*
X-13052585Y-13915990D01*
X-13052585Y-13915990D02*
X-13111254Y-13827132D01*
X-13111254Y-13827132D02*
X-13252401Y-13690654D01*
X-13252401Y-13690654D02*
X-13376119Y-13619226D01*
X-13376119Y-13619226D02*
X-13564886Y-13565227D01*
X-13564886Y-13565227D02*
X-13671174Y-13558847D01*
X-13671174Y-13558847D02*
X-13801272Y-13593707D01*
X-13801272Y-13593707D02*
X-13913940Y-13693615D01*
X-13913940Y-13693615D02*
X-13961559Y-13776094D01*
X-13961559Y-13776094D02*
X-13991748Y-13923621D01*
X-13991748Y-13923621D02*
X-13974318Y-13988670D01*
X-14223464Y-14229726D02*
X-14556797Y-14807076D01*
X-14556797Y-14807076D02*
X-13476486Y-14935923D01*
%TO.C,K2*%
X-21867905Y2085180D02*
X-21867905Y3085180D01*
X-22439333Y2085180D02*
X-22010762Y2656609D01*
X-22439333Y3085180D02*
X-21867905Y2513752D01*
X-22820286Y2989942D02*
X-22867905Y3037561D01*
X-22867905Y3037561D02*
X-22963143Y3085180D01*
X-22963143Y3085180D02*
X-23201238Y3085180D01*
X-23201238Y3085180D02*
X-23296476Y3037561D01*
X-23296476Y3037561D02*
X-23344095Y2989942D01*
X-23344095Y2989942D02*
X-23391714Y2894704D01*
X-23391714Y2894704D02*
X-23391714Y2799466D01*
X-23391714Y2799466D02*
X-23344095Y2656609D01*
X-23344095Y2656609D02*
X-22772667Y2085180D01*
X-22772667Y2085180D02*
X-23391714Y2085180D01*
%TO.C,R9*%
X-22616366Y13321927D02*
X-22862092Y13848698D01*
X-22330651Y13816799D02*
X-23196677Y14316799D01*
X-23196677Y14316799D02*
X-23387153Y13986884D01*
X-23387153Y13986884D02*
X-23393533Y13880596D01*
X-23393533Y13880596D02*
X-23376103Y13815547D01*
X-23376103Y13815547D02*
X-23317434Y13726689D01*
X-23317434Y13726689D02*
X-23193716Y13655260D01*
X-23193716Y13655260D02*
X-23087428Y13648881D01*
X-23087428Y13648881D02*
X-23022379Y13666311D01*
X-23022379Y13666311D02*
X-22933521Y13724980D01*
X-22933521Y13724980D02*
X-22743044Y14054894D01*
X-22854461Y12909534D02*
X-22949699Y12744577D01*
X-22949699Y12744577D02*
X-23038557Y12685908D01*
X-23038557Y12685908D02*
X-23103606Y12668478D01*
X-23103606Y12668478D02*
X-23274943Y12657428D01*
X-23274943Y12657428D02*
X-23463710Y12711427D01*
X-23463710Y12711427D02*
X-23793624Y12901903D01*
X-23793624Y12901903D02*
X-23852293Y12990761D01*
X-23852293Y12990761D02*
X-23869723Y13055810D01*
X-23869723Y13055810D02*
X-23863343Y13162098D01*
X-23863343Y13162098D02*
X-23768105Y13327055D01*
X-23768105Y13327055D02*
X-23679247Y13385725D01*
X-23679247Y13385725D02*
X-23614198Y13403154D01*
X-23614198Y13403154D02*
X-23507910Y13396775D01*
X-23507910Y13396775D02*
X-23301713Y13277727D01*
X-23301713Y13277727D02*
X-23243044Y13188869D01*
X-23243044Y13188869D02*
X-23225615Y13123820D01*
X-23225615Y13123820D02*
X-23231994Y13017532D01*
X-23231994Y13017532D02*
X-23327232Y12852574D01*
X-23327232Y12852574D02*
X-23416091Y12793905D01*
X-23416091Y12793905D02*
X-23481140Y12776476D01*
X-23481140Y12776476D02*
X-23587428Y12782855D01*
%TO.C,U1*%
X12387921Y22557320D02*
X12792683Y23258389D01*
X12792683Y23258389D02*
X12881541Y23317058D01*
X12881541Y23317058D02*
X12946590Y23334487D01*
X12946590Y23334487D02*
X13052878Y23328108D01*
X13052878Y23328108D02*
X13217836Y23232870D01*
X13217836Y23232870D02*
X13276505Y23144011D01*
X13276505Y23144011D02*
X13293934Y23078962D01*
X13293934Y23078962D02*
X13287555Y22972674D01*
X13287555Y22972674D02*
X12882793Y22271606D01*
X14248818Y22637631D02*
X13753947Y22923346D01*
X14001382Y22780489D02*
X13501382Y21914463D01*
X13501382Y21914463D02*
X13490332Y22085800D01*
X13490332Y22085800D02*
X13455473Y22215898D01*
X13455473Y22215898D02*
X13396804Y22304756D01*
%TO.C,R1*%
X3661392Y19025873D02*
X3287701Y19471095D01*
X3809289Y19577830D02*
X2843363Y19836650D01*
X2843363Y19836650D02*
X2744765Y19468678D01*
X2744765Y19468678D02*
X2766112Y19364360D01*
X2766112Y19364360D02*
X2799784Y19306039D01*
X2799784Y19306039D02*
X2879452Y19235393D01*
X2879452Y19235393D02*
X3017442Y19198419D01*
X3017442Y19198419D02*
X3121759Y19219766D01*
X3121759Y19219766D02*
X3180081Y19253438D01*
X3180081Y19253438D02*
X3250727Y19333106D01*
X3250727Y19333106D02*
X3349324Y19701078D01*
X3414898Y18105943D02*
X3562795Y18657901D01*
X3488846Y18381922D02*
X2522920Y18640741D01*
X2522920Y18640741D02*
X2685559Y18695760D01*
X2685559Y18695760D02*
X2802202Y18763104D01*
X2802202Y18763104D02*
X2872848Y18842772D01*
D11*
%TO.C,R3*%
X18571245Y9185487D02*
X17240495Y11490413D01*
X21265955Y13814513D02*
X22596705Y11509587D01*
D12*
%TO.C,R17*%
X-25627359Y-380000D02*
X-25934641Y-380000D01*
X-25627359Y380000D02*
X-25934641Y380000D01*
D11*
%TO.C,U2*%
X8352677Y-19075277D02*
X12343323Y-16771277D01*
X8650807Y-19591654D02*
X8352677Y-19075277D01*
X10656677Y-23065923D02*
X10358547Y-22549546D01*
X12343323Y-16771277D02*
X12641453Y-17287654D01*
X14349193Y-20245546D02*
X14647323Y-20761923D01*
X14647323Y-20761923D02*
X10656677Y-23065923D01*
X9663284Y-22408663D02*
G75*
G03*
X9663284Y-22408663I-76200J0D01*
G01*
%TO.C,R5*%
X6751701Y-21321386D02*
X7092126Y-22591868D01*
X5153899Y-23111214D02*
X4813474Y-21840732D01*
%TO.C,K1*%
X24116500Y-1043200D02*
X21754300Y-1043200D01*
X21754300Y1319000D02*
X24116500Y1319000D01*
X24797100Y787900D02*
G75*
G03*
X24797100Y787900I-76200J0D01*
G01*
%TO.C,R7*%
X-4354901Y21965086D02*
X-4695326Y23235568D01*
X-2757099Y23754914D02*
X-2416674Y22484432D01*
%TO.C,J1*%
X18247900Y-2286000D02*
X17971040Y-2286000D01*
X18247900Y2286000D02*
X18247900Y-2286000D01*
X17971040Y2286000D02*
X18247900Y2286000D01*
X14028960Y-2286000D02*
X13752100Y-2286000D01*
X13752100Y-2286000D02*
X13752100Y2286000D01*
X13752100Y2286000D02*
X14028960Y2286000D01*
D13*
X19263900Y1866900D02*
G75*
G03*
X19263900Y1866900I-381000J0D01*
G01*
D11*
%TO.C,R10*%
X-4695326Y-23235568D02*
X-4354901Y-21965086D01*
X-2416674Y-22484432D02*
X-2757099Y-23754914D01*
%TO.C,R6*%
X22596689Y-11509587D02*
X21265939Y-13814513D01*
X17240479Y-11490413D02*
X18571229Y-9185487D01*
D12*
%TO.C,R14*%
X25807641Y-380000D02*
X25500359Y-380000D01*
X25807641Y380000D02*
X25500359Y380000D01*
%TO.C,R16*%
X-19912359Y-1015000D02*
X-20219641Y-1015000D01*
X-19912359Y-255000D02*
X-20219641Y-255000D01*
D11*
%TO.C,R12*%
X-21265939Y-13814513D02*
X-22596689Y-11509587D01*
X-18571229Y-9185487D02*
X-17240479Y-11490413D01*
D12*
%TO.C,C6*%
X14824349Y-20044589D02*
X14716513Y-19857811D01*
X15447887Y-19684589D02*
X15340051Y-19497811D01*
D11*
%TO.C,U3*%
X-8352677Y19075277D02*
X-12343323Y16771277D01*
X-8650807Y19591654D02*
X-8352677Y19075277D01*
X-10656677Y23065923D02*
X-10358547Y22549546D01*
X-12343323Y16771277D02*
X-12641453Y17287654D01*
X-14349193Y20245546D02*
X-14647323Y20761923D01*
X-14647323Y20761923D02*
X-10656677Y23065923D01*
X-9510884Y22408663D02*
G75*
G03*
X-9510884Y22408663I-76200J0D01*
G01*
%TO.C,R2*%
X7092126Y22591868D02*
X6751701Y21321386D01*
X4813474Y21840732D02*
X5153899Y23111214D01*
D12*
%TO.C,C5*%
X15704249Y-19536589D02*
X15596413Y-19349811D01*
X16327787Y-19176589D02*
X16219951Y-18989811D01*
%TO.C,C8*%
X-13105413Y-17104611D02*
X-13213249Y-17291389D01*
X-13728951Y-16744611D02*
X-13836787Y-16931389D01*
%TO.C,C1*%
X-15608049Y19450389D02*
X-15500213Y19263611D01*
X-16231587Y19090389D02*
X-16123751Y18903611D01*
D11*
%TO.C,U4*%
X-10656677Y-23065923D02*
X-14647323Y-20761923D01*
X-10358547Y-22549546D02*
X-10656677Y-23065923D01*
X-8352677Y-19075277D02*
X-8650807Y-19591654D01*
X-14647323Y-20761923D02*
X-14349193Y-20245546D01*
X-12641453Y-17287654D02*
X-12343323Y-16771277D01*
X-12343323Y-16771277D02*
X-8352677Y-19075277D01*
X-8310884Y-20330203D02*
G75*
G03*
X-8310884Y-20330203I-76200J0D01*
G01*
D12*
%TO.C,C4*%
X13223313Y17231611D02*
X13331149Y17418389D01*
X13846851Y16871611D02*
X13954687Y17058389D01*
D11*
%TO.C,J2*%
X-13752100Y-2286000D02*
X-14028960Y-2286000D01*
X-13752100Y2286000D02*
X-13752100Y-2286000D01*
X-14028960Y2286000D02*
X-13752100Y2286000D01*
X-17971040Y-2286000D02*
X-18247900Y-2286000D01*
X-18247900Y-2286000D02*
X-18247900Y2286000D01*
X-18247900Y2286000D02*
X-17971040Y2286000D01*
D13*
X-12736100Y1866900D02*
G75*
G03*
X-12736100Y1866900I-381000J0D01*
G01*
D12*
%TO.C,C2*%
X-14728149Y19958389D02*
X-14620313Y19771611D01*
X-15351687Y19598389D02*
X-15243851Y19411611D01*
D11*
%TO.C,R8*%
X-6751701Y21321386D02*
X-7092126Y22591868D01*
X-5153899Y23111214D02*
X-4813474Y21840732D01*
D12*
%TO.C,C3*%
X14103213Y16723611D02*
X14211049Y16910389D01*
X14726751Y16363611D02*
X14834587Y16550389D01*
D11*
%TO.C,R11*%
X-7092126Y-22591868D02*
X-6751701Y-21321386D01*
X-4813474Y-21840732D02*
X-5153899Y-23111214D01*
%TO.C,R4*%
X4123001Y-21965086D02*
X4463426Y-23235568D01*
X2525199Y-23754914D02*
X2184774Y-22484432D01*
D12*
%TO.C,R15*%
X20092641Y255000D02*
X19785359Y255000D01*
X20092641Y1015000D02*
X19785359Y1015000D01*
%TO.C,C7*%
X-13985313Y-16596611D02*
X-14093149Y-16783389D01*
X-14608851Y-16236611D02*
X-14716687Y-16423389D01*
D11*
%TO.C,K2*%
X-21883500Y-1043200D02*
X-24245700Y-1043200D01*
X-24245700Y1319000D02*
X-21883500Y1319000D01*
X-21202900Y787900D02*
G75*
G03*
X-21202900Y787900I-76200J0D01*
G01*
%TO.C,R9*%
X-22596689Y11509587D02*
X-21265939Y13814513D01*
X-17240479Y11490413D02*
X-18571229Y9185487D01*
%TO.C,U1*%
X10656677Y23065923D02*
X14647323Y20761923D01*
X10358547Y22549546D02*
X10656677Y23065923D01*
X8352677Y19075277D02*
X8650807Y19591654D01*
X14647323Y20761923D02*
X14349193Y20245546D01*
X12641453Y17287654D02*
X12343323Y16771277D01*
X12343323Y16771277D02*
X8352677Y19075277D01*
X8463284Y20330203D02*
G75*
G03*
X8463284Y20330203I-76200J0D01*
G01*
%TO.C,R1*%
X4568326Y23235568D02*
X4227901Y21965086D01*
X2289674Y22484432D02*
X2630099Y23754914D01*
%TD*%
M02*
