%TF.GenerationSoftware,KiCad,Pcbnew,7.0.5*%
%TF.CreationDate,2023-06-26T09:34:37-04:00*%
%TF.ProjectId,ESP32Sensor-LED_board,45535033-3253-4656-9e73-6f722d4c4544,rev?*%
%TF.SameCoordinates,Original*%
%TF.FileFunction,Copper,L3,Inr*%
%TF.FilePolarity,Positive*%
%FSLAX46Y46*%
G04 Gerber Fmt 4.6, Leading zero omitted, Abs format (unit mm)*
G04 Created by KiCad (PCBNEW 7.0.5) date 2023-06-26 09:34:37*
%MOMM*%
%LPD*%
G01*
G04 APERTURE LIST*
%TA.AperFunction,ComponentPad*%
%ADD10C,0.700000*%
%TD*%
%TA.AperFunction,ViaPad*%
%ADD11C,0.700000*%
%TD*%
%TA.AperFunction,Conductor*%
%ADD12C,0.127000*%
%TD*%
G04 APERTURE END LIST*
D10*
%TO.N,LED_GND*%
%TO.C,U2*%
X10315074Y-19136248D03*
X11585074Y-21335952D03*
X11414926Y-18501248D03*
X12684926Y-20700952D03*
%TD*%
%TO.N,LED_GND*%
%TO.C,U3*%
X-10315074Y19136248D03*
X-11585074Y21335952D03*
X-11414926Y18501248D03*
X-12684926Y20700952D03*
%TD*%
%TO.N,LED_GND*%
%TO.C,U4*%
X-11585074Y-21335952D03*
X-10315074Y-19136248D03*
X-12684926Y-20700952D03*
X-11414926Y-18501248D03*
%TD*%
%TO.N,LED_GND*%
%TO.C,U1*%
X11585074Y21335952D03*
X10315074Y19136248D03*
X12684926Y20700952D03*
X11414926Y18501248D03*
%TD*%
D11*
%TO.N,+Vs_For_LED_Drivers*%
X-12446000Y-17145000D03*
X-16891000Y19050000D03*
X16764000Y3175000D03*
X14859000Y-18415000D03*
X-14351000Y3175000D03*
X11684000Y15875000D03*
%TO.N,Net-(K1-S1)*%
X24384000Y1905000D03*
X1524000Y23495000D03*
%TO.N,LED_REF_INV*%
X-19431000Y0D03*
X-27051000Y0D03*
X19939000Y1524000D03*
X18542000Y-3048000D03*
X13462000Y-3048000D03*
X26924000Y0D03*
%TO.N,Net-(U1-Q)*%
X25019000Y5080000D03*
%TO.N,PWM_DIM*%
X9398000Y-22352000D03*
X7874000Y18288000D03*
X-9144000Y-19050000D03*
X-9398000Y22860000D03*
X15748000Y3810000D03*
%TO.N,Net-(U2-Q)*%
X25019000Y-3810000D03*
%TO.N,Net-(K1-S2)*%
X1524000Y-23495000D03*
X21209000Y-1270000D03*
%TO.N,Net-(K2-S1)*%
X-1651000Y23495000D03*
X-21148638Y1680828D03*
%TO.N,Net-(U4-Q)*%
X-25146000Y-3810000D03*
%TO.N,Net-(K2-S2)*%
X-1651000Y-23495000D03*
X-24511000Y-1270000D03*
%TO.N,Net-(U3-Q)*%
X-25146000Y5080000D03*
%TO.N,3V3*%
X-16891000Y3175000D03*
%TO.N,SDA*%
X-2286000Y-18415000D03*
X-381000Y-17145000D03*
X-16256000Y3810000D03*
%TO.N,SCL*%
X-16510000Y-4572000D03*
%TO.N,INT*%
X-17526000Y-4572000D03*
%TD*%
D12*
%TO.N,PWM_DIM*%
X7874000Y18288000D02*
X873784Y11287784D01*
X9398000Y-19369966D02*
X1270000Y-11241966D01*
X9398000Y-22352000D02*
X9398000Y-19369966D01*
X-9398000Y22860000D02*
X-9398000Y19649762D01*
X11657155Y3810000D02*
X10895155Y3048000D01*
X15748000Y3810000D02*
X11657155Y3810000D01*
X-9144000Y-18830358D02*
X-1524000Y-11210358D01*
X-9144000Y-19050000D02*
X-9144000Y-18830358D01*
X-9398000Y19649762D02*
X-1016000Y11267762D01*
X7999835Y7999835D02*
G75*
G02*
X7999835Y7999835I-7999835J-7999835D01*
G01*
%TD*%
%TA.AperFunction,Conductor*%
%TO.N,LED_GND*%
G36*
X821822Y28730129D02*
G01*
X1073663Y28725419D01*
X1075975Y28725333D01*
X2147008Y28665186D01*
X2149298Y28665014D01*
X2531873Y28629139D01*
X3217315Y28564862D01*
X3219619Y28564603D01*
X4283138Y28424589D01*
X4285431Y28424243D01*
X5342977Y28244559D01*
X5345255Y28244128D01*
X6395343Y28025026D01*
X6397604Y28024510D01*
X7438747Y27766302D01*
X7440986Y27765702D01*
X8471776Y27468737D01*
X8473992Y27468053D01*
X9492945Y27132756D01*
X9495134Y27131991D01*
X10500815Y26758837D01*
X10502974Y26757990D01*
X11494018Y26347485D01*
X11496143Y26346558D01*
X12471150Y25899284D01*
X12473239Y25898278D01*
X13430836Y25414860D01*
X13432886Y25413777D01*
X14371742Y24894889D01*
X14373750Y24893729D01*
X15292524Y24340114D01*
X15294488Y24338880D01*
X16191966Y23751269D01*
X16193882Y23749962D01*
X17068725Y23129226D01*
X17070568Y23127867D01*
X17921611Y22474838D01*
X17923424Y22473392D01*
X18424474Y22058257D01*
X18749436Y21789014D01*
X18751178Y21787515D01*
X19551058Y21072699D01*
X19552757Y21071122D01*
X20325302Y20326942D01*
X20326942Y20325302D01*
X21071122Y19552757D01*
X21072699Y19551058D01*
X21787515Y18751178D01*
X21789014Y18749436D01*
X21968441Y18532877D01*
X22473392Y17923424D01*
X22474838Y17921611D01*
X23127867Y17070568D01*
X23129226Y17068725D01*
X23550644Y16474794D01*
X23749962Y16193882D01*
X23751269Y16191966D01*
X24338880Y15294488D01*
X24340114Y15292524D01*
X24893729Y14373750D01*
X24894889Y14371742D01*
X25413777Y13432886D01*
X25414860Y13430836D01*
X25898278Y12473239D01*
X25899284Y12471150D01*
X26346558Y11496143D01*
X26347485Y11494018D01*
X26757990Y10502974D01*
X26758837Y10500815D01*
X27131991Y9495134D01*
X27132756Y9492945D01*
X27468053Y8473992D01*
X27468737Y8471776D01*
X27765702Y7440986D01*
X27766302Y7438747D01*
X28024510Y6397604D01*
X28025026Y6395343D01*
X28244128Y5345255D01*
X28244559Y5342977D01*
X28424243Y4285431D01*
X28424589Y4283138D01*
X28564603Y3219619D01*
X28564862Y3217315D01*
X28619993Y2629409D01*
X28659757Y2205364D01*
X28665013Y2149321D01*
X28665186Y2147008D01*
X28725333Y1075975D01*
X28725419Y1073663D01*
X28729780Y840553D01*
X28745478Y1159D01*
X28745478Y-1159D01*
X28725420Y-1073658D01*
X28725333Y-1075975D01*
X28665186Y-2147008D01*
X28665013Y-2149321D01*
X28564862Y-3217315D01*
X28564603Y-3219619D01*
X28424589Y-4283138D01*
X28424243Y-4285431D01*
X28244559Y-5342977D01*
X28244128Y-5345255D01*
X28025026Y-6395343D01*
X28024510Y-6397604D01*
X27766302Y-7438747D01*
X27765702Y-7440986D01*
X27468737Y-8471776D01*
X27468053Y-8473992D01*
X27132756Y-9492945D01*
X27131991Y-9495134D01*
X26758837Y-10500815D01*
X26757990Y-10502974D01*
X26347485Y-11494018D01*
X26346558Y-11496143D01*
X25899284Y-12471150D01*
X25898278Y-12473239D01*
X25414860Y-13430836D01*
X25413777Y-13432886D01*
X24894889Y-14371742D01*
X24893729Y-14373750D01*
X24340114Y-15292524D01*
X24338880Y-15294488D01*
X23751269Y-16191966D01*
X23749962Y-16193882D01*
X23610718Y-16390128D01*
X23129226Y-17068725D01*
X23127873Y-17070558D01*
X23000690Y-17236307D01*
X22474838Y-17921611D01*
X22473392Y-17923424D01*
X22031445Y-18456835D01*
X21789014Y-18749436D01*
X21787515Y-18751178D01*
X21072699Y-19551058D01*
X21071122Y-19552757D01*
X20326942Y-20325302D01*
X20325302Y-20326942D01*
X19552757Y-21071122D01*
X19551058Y-21072699D01*
X18751178Y-21787515D01*
X18749436Y-21789014D01*
X18586857Y-21923717D01*
X17923424Y-22473392D01*
X17921611Y-22474838D01*
X17070568Y-23127867D01*
X17068725Y-23129226D01*
X16553220Y-23494998D01*
X16193882Y-23749962D01*
X16191966Y-23751269D01*
X15294488Y-24338880D01*
X15292524Y-24340114D01*
X14373750Y-24893729D01*
X14371742Y-24894889D01*
X13432886Y-25413777D01*
X13430836Y-25414860D01*
X12473239Y-25898278D01*
X12471150Y-25899284D01*
X11496143Y-26346558D01*
X11494018Y-26347485D01*
X10502974Y-26757990D01*
X10500815Y-26758837D01*
X9495134Y-27131991D01*
X9492945Y-27132756D01*
X8473992Y-27468053D01*
X8471776Y-27468737D01*
X7440986Y-27765702D01*
X7438747Y-27766302D01*
X6397604Y-28024510D01*
X6395343Y-28025026D01*
X5345255Y-28244128D01*
X5342977Y-28244559D01*
X4285431Y-28424243D01*
X4283138Y-28424589D01*
X3219619Y-28564603D01*
X3217315Y-28564862D01*
X2531873Y-28629139D01*
X2149298Y-28665014D01*
X2147008Y-28665186D01*
X1075975Y-28725333D01*
X1073663Y-28725419D01*
X821822Y-28730129D01*
X1159Y-28745478D01*
X-1159Y-28745478D01*
X-821822Y-28730129D01*
X-1073663Y-28725419D01*
X-1075975Y-28725333D01*
X-2147008Y-28665186D01*
X-2149298Y-28665014D01*
X-2531873Y-28629139D01*
X-3217315Y-28564862D01*
X-3219619Y-28564603D01*
X-4283138Y-28424589D01*
X-4285431Y-28424243D01*
X-5342977Y-28244559D01*
X-5345255Y-28244128D01*
X-6395343Y-28025026D01*
X-6397604Y-28024510D01*
X-7438747Y-27766302D01*
X-7440986Y-27765702D01*
X-8471776Y-27468737D01*
X-8473992Y-27468053D01*
X-9492945Y-27132756D01*
X-9495134Y-27131991D01*
X-10500815Y-26758837D01*
X-10502974Y-26757990D01*
X-11494018Y-26347485D01*
X-11496143Y-26346558D01*
X-12251600Y-26000000D01*
X-1859237Y-26000000D01*
X-1840313Y-26264597D01*
X-1840312Y-26264601D01*
X-1840312Y-26264602D01*
X-1822379Y-26347040D01*
X-1783925Y-26523808D01*
X-1691221Y-26772355D01*
X-1691218Y-26772359D01*
X-1691218Y-26772361D01*
X-1677637Y-26797233D01*
X-1564090Y-27005179D01*
X-1405118Y-27217541D01*
X-1217541Y-27405118D01*
X-1005179Y-27564090D01*
X-772360Y-27691218D01*
X-772359Y-27691218D01*
X-772355Y-27691221D01*
X-523808Y-27783925D01*
X-264597Y-27840313D01*
X-26508Y-27857341D01*
X-1Y-27859237D01*
X0Y-27859237D01*
X1Y-27859237D01*
X26508Y-27857341D01*
X264597Y-27840313D01*
X523808Y-27783925D01*
X772355Y-27691221D01*
X772359Y-27691218D01*
X772361Y-27691218D01*
X888767Y-27627655D01*
X1005179Y-27564090D01*
X1217541Y-27405118D01*
X1405118Y-27217541D01*
X1564090Y-27005179D01*
X1579268Y-26977382D01*
X2250182Y-26977382D01*
X2270478Y-27157524D01*
X2330355Y-27328643D01*
X2330356Y-27328646D01*
X2421892Y-27474326D01*
X2426809Y-27482151D01*
X2555001Y-27610343D01*
X2708505Y-27706795D01*
X2879622Y-27766672D01*
X2879625Y-27766672D01*
X2879627Y-27766673D01*
X2970572Y-27776919D01*
X3014583Y-27781878D01*
X3014586Y-27781879D01*
X3104957Y-27781879D01*
X3104960Y-27781879D01*
X3104961Y-27781878D01*
X3172440Y-27774275D01*
X3239918Y-27766673D01*
X3239919Y-27766672D01*
X3239924Y-27766672D01*
X3411041Y-27706795D01*
X3564545Y-27610343D01*
X3692737Y-27482151D01*
X3789189Y-27328647D01*
X3849066Y-27157530D01*
X3849067Y-27157524D01*
X3869364Y-26977382D01*
X3869364Y-26977375D01*
X3849067Y-26797233D01*
X3849066Y-26797231D01*
X3849066Y-26797228D01*
X3789189Y-26626111D01*
X3692737Y-26472607D01*
X3564545Y-26344415D01*
X3564544Y-26344414D01*
X3411040Y-26247962D01*
X3411037Y-26247961D01*
X3264249Y-26196598D01*
X3239924Y-26188086D01*
X3239923Y-26188085D01*
X3239918Y-26188084D01*
X3104963Y-26172879D01*
X3104957Y-26172879D01*
X3014589Y-26172879D01*
X3014582Y-26172879D01*
X2879627Y-26188084D01*
X2708508Y-26247961D01*
X2708505Y-26247962D01*
X2555000Y-26344415D01*
X2426809Y-26472606D01*
X2330356Y-26626111D01*
X2330355Y-26626114D01*
X2270478Y-26797233D01*
X2250182Y-26977375D01*
X2250182Y-26977382D01*
X1579268Y-26977382D01*
X1677637Y-26797233D01*
X1691218Y-26772361D01*
X1691218Y-26772359D01*
X1691221Y-26772355D01*
X1783925Y-26523808D01*
X1822379Y-26347040D01*
X1840312Y-26264602D01*
X1840312Y-26264601D01*
X1840313Y-26264597D01*
X1859237Y-26000000D01*
X1840313Y-25735403D01*
X1835075Y-25711326D01*
X1783927Y-25476200D01*
X1783926Y-25476198D01*
X1783925Y-25476192D01*
X1691221Y-25227645D01*
X1691219Y-25227642D01*
X1691218Y-25227638D01*
X1564093Y-24994826D01*
X1564088Y-24994818D01*
X1405124Y-24782466D01*
X1405108Y-24782448D01*
X1217551Y-24594891D01*
X1217533Y-24594875D01*
X1005181Y-24435911D01*
X1005173Y-24435906D01*
X772360Y-24308781D01*
X772361Y-24308781D01*
X672936Y-24271697D01*
X523808Y-24216075D01*
X523805Y-24216074D01*
X523799Y-24216072D01*
X264602Y-24159687D01*
X1Y-24140763D01*
X-1Y-24140763D01*
X-264602Y-24159687D01*
X-523799Y-24216072D01*
X-523805Y-24216074D01*
X-523808Y-24216075D01*
X-672936Y-24271697D01*
X-772361Y-24308781D01*
X-1005173Y-24435906D01*
X-1005181Y-24435911D01*
X-1217533Y-24594875D01*
X-1217551Y-24594891D01*
X-1405108Y-24782448D01*
X-1405124Y-24782466D01*
X-1564088Y-24994818D01*
X-1564093Y-24994826D01*
X-1691218Y-25227638D01*
X-1691219Y-25227642D01*
X-1691221Y-25227645D01*
X-1783925Y-25476192D01*
X-1783926Y-25476198D01*
X-1783927Y-25476200D01*
X-1835075Y-25711326D01*
X-1840313Y-25735403D01*
X-1859237Y-26000000D01*
X-12251600Y-26000000D01*
X-12471150Y-25899284D01*
X-12473239Y-25898278D01*
X-13430836Y-25414860D01*
X-13432886Y-25413777D01*
X-14350136Y-24906830D01*
X-11725970Y-24906830D01*
X-11716056Y-24994818D01*
X-11705672Y-25086978D01*
X-11645795Y-25258095D01*
X-11549343Y-25411599D01*
X-11421151Y-25539791D01*
X-11267647Y-25636243D01*
X-11096530Y-25696120D01*
X-11096525Y-25696120D01*
X-11096524Y-25696121D01*
X-11029046Y-25703723D01*
X-10961567Y-25711326D01*
X-10961566Y-25711327D01*
X-10871195Y-25711327D01*
X-10871192Y-25711327D01*
X-10871189Y-25711326D01*
X-10827178Y-25706367D01*
X-10736233Y-25696121D01*
X-10736231Y-25696120D01*
X-10736228Y-25696120D01*
X-10565111Y-25636243D01*
X-10411607Y-25539791D01*
X-10283415Y-25411599D01*
X-10283414Y-25411598D01*
X-10186962Y-25258094D01*
X-10186961Y-25258091D01*
X-10127084Y-25086972D01*
X-10106788Y-24906830D01*
X-10106788Y-24906823D01*
X-10127084Y-24726681D01*
X-10186961Y-24555562D01*
X-10186962Y-24555559D01*
X-10283415Y-24402054D01*
X-10411606Y-24273863D01*
X-10565111Y-24177410D01*
X-10565114Y-24177409D01*
X-10736233Y-24117532D01*
X-10871188Y-24102327D01*
X-10871195Y-24102327D01*
X-10961563Y-24102327D01*
X-10961569Y-24102327D01*
X-11096524Y-24117532D01*
X-11267643Y-24177409D01*
X-11267646Y-24177410D01*
X-11329181Y-24216075D01*
X-11421151Y-24273863D01*
X-11549343Y-24402055D01*
X-11645795Y-24555559D01*
X-11705672Y-24726676D01*
X-11705672Y-24726679D01*
X-11705673Y-24726681D01*
X-11725970Y-24906823D01*
X-11725970Y-24906830D01*
X-14350136Y-24906830D01*
X-14371742Y-24894889D01*
X-14373750Y-24893729D01*
X-15292524Y-24340114D01*
X-15294488Y-24338880D01*
X-16191966Y-23751269D01*
X-16193882Y-23749962D01*
X-16553217Y-23495000D01*
X-2256682Y-23495000D01*
X-2236044Y-23651762D01*
X-2175536Y-23797841D01*
X-2079282Y-23923282D01*
X-1953841Y-24019536D01*
X-1807762Y-24080044D01*
X-1703253Y-24093802D01*
X-1651001Y-24100682D01*
X-1651000Y-24100682D01*
X-1650999Y-24100682D01*
X-1572618Y-24090363D01*
X-1494238Y-24080044D01*
X-1348159Y-24019536D01*
X-1222718Y-23923282D01*
X-1126464Y-23797841D01*
X-1106915Y-23750647D01*
X-1065956Y-23651762D01*
X-1065955Y-23651760D01*
X-1045318Y-23495001D01*
X918318Y-23495001D01*
X938955Y-23651760D01*
X938956Y-23651762D01*
X979915Y-23750647D01*
X999464Y-23797841D01*
X1095718Y-23923282D01*
X1221159Y-24019536D01*
X1367238Y-24080044D01*
X1445619Y-24090363D01*
X1523999Y-24100682D01*
X1524000Y-24100682D01*
X1524001Y-24100682D01*
X1576254Y-24093802D01*
X1680762Y-24080044D01*
X1826841Y-24019536D01*
X1952282Y-23923282D01*
X2048536Y-23797841D01*
X2109044Y-23651762D01*
X2129682Y-23495000D01*
X2109044Y-23338238D01*
X2048536Y-23192159D01*
X1952282Y-23066718D01*
X1826841Y-22970464D01*
X1680762Y-22909956D01*
X1680760Y-22909955D01*
X1524001Y-22889318D01*
X1523999Y-22889318D01*
X1367239Y-22909955D01*
X1367237Y-22909956D01*
X1221160Y-22970463D01*
X1095718Y-23066718D01*
X999463Y-23192160D01*
X938956Y-23338237D01*
X938955Y-23338239D01*
X918318Y-23494998D01*
X918318Y-23495001D01*
X-1045318Y-23495001D01*
X-1045318Y-23494998D01*
X-1065955Y-23338239D01*
X-1065956Y-23338237D01*
X-1126463Y-23192160D01*
X-1222718Y-23066718D01*
X-1348160Y-22970463D01*
X-1494237Y-22909956D01*
X-1494239Y-22909955D01*
X-1650999Y-22889318D01*
X-1651001Y-22889318D01*
X-1807760Y-22909955D01*
X-1807762Y-22909956D01*
X-1953841Y-22970464D01*
X-2079282Y-23066718D01*
X-2175536Y-23192159D01*
X-2236044Y-23338238D01*
X-2256682Y-23495000D01*
X-16553217Y-23495000D01*
X-16553220Y-23494998D01*
X-17068725Y-23129226D01*
X-17070568Y-23127867D01*
X-17921611Y-22474838D01*
X-17923424Y-22473392D01*
X-18586857Y-21923717D01*
X-18749436Y-21789014D01*
X-18751178Y-21787515D01*
X-18950865Y-21609064D01*
X-12121382Y-21609064D01*
X-12109174Y-21638538D01*
X-12012998Y-21763876D01*
X-11887660Y-21860052D01*
X-11741708Y-21920506D01*
X-11741704Y-21920507D01*
X-11585074Y-21941128D01*
X-11553443Y-21936963D01*
X-11673462Y-21489044D01*
X-12121381Y-21609063D01*
X-12121382Y-21609064D01*
X-18950865Y-21609064D01*
X-19216429Y-21371742D01*
X-11695224Y-21371742D01*
X-11653151Y-21429652D01*
X-11602522Y-21446102D01*
X-11567626Y-21446102D01*
X-11516997Y-21429652D01*
X-11513138Y-21424340D01*
X-11431980Y-21424340D01*
X-11311960Y-21872259D01*
X-11282485Y-21860050D01*
X-11157149Y-21763876D01*
X-11060973Y-21638538D01*
X-11000519Y-21492586D01*
X-11000518Y-21492582D01*
X-10979897Y-21335952D01*
X-10979897Y-21335950D01*
X-10984060Y-21304322D01*
X-10984061Y-21304321D01*
X-11431980Y-21424340D01*
X-11513138Y-21424340D01*
X-11474924Y-21371742D01*
X-11474924Y-21300162D01*
X-11516997Y-21242252D01*
X-11567626Y-21225802D01*
X-11602522Y-21225802D01*
X-11653151Y-21242252D01*
X-11695224Y-21300162D01*
X-11695224Y-21371742D01*
X-19216429Y-21371742D01*
X-19551058Y-21072699D01*
X-19552757Y-21071122D01*
X-19653514Y-20974064D01*
X-13221234Y-20974064D01*
X-13209026Y-21003538D01*
X-13112850Y-21128876D01*
X-12987512Y-21225052D01*
X-12841560Y-21285506D01*
X-12841556Y-21285507D01*
X-12684926Y-21306128D01*
X-12653295Y-21301963D01*
X-12773314Y-20854044D01*
X-13221233Y-20974063D01*
X-13221234Y-20974064D01*
X-19653514Y-20974064D01*
X-19899882Y-20736742D01*
X-12795076Y-20736742D01*
X-12753003Y-20794652D01*
X-12702374Y-20811102D01*
X-12667478Y-20811102D01*
X-12616849Y-20794652D01*
X-12612990Y-20789340D01*
X-12531832Y-20789340D01*
X-12411812Y-21237259D01*
X-12382336Y-21225050D01*
X-12376253Y-21221538D01*
X-12308353Y-21205064D01*
X-12242326Y-21227915D01*
X-12199134Y-21282836D01*
X-12190251Y-21328924D01*
X-12190251Y-21335950D01*
X-12186085Y-21367581D01*
X-11738166Y-21247562D01*
X-11858186Y-20799644D01*
X-11887666Y-20811855D01*
X-11893757Y-20815371D01*
X-11961658Y-20831838D01*
X-12027684Y-20808981D01*
X-12070870Y-20754057D01*
X-12074554Y-20734938D01*
X-11616703Y-20734938D01*
X-11496684Y-21182858D01*
X-11048765Y-21062838D01*
X-11060974Y-21033364D01*
X-11157147Y-20908028D01*
X-11282487Y-20811851D01*
X-11428439Y-20751397D01*
X-11428443Y-20751396D01*
X-11585073Y-20730775D01*
X-11585075Y-20730775D01*
X-11616703Y-20734938D01*
X-12074554Y-20734938D01*
X-12079749Y-20707979D01*
X-12079749Y-20700950D01*
X-12083912Y-20669322D01*
X-12083913Y-20669321D01*
X-12531832Y-20789340D01*
X-12612990Y-20789340D01*
X-12574776Y-20736742D01*
X-12574776Y-20665162D01*
X-12616849Y-20607252D01*
X-12667478Y-20590802D01*
X-12702374Y-20590802D01*
X-12753003Y-20607252D01*
X-12795076Y-20665162D01*
X-12795076Y-20736742D01*
X-19899882Y-20736742D01*
X-19937037Y-20700951D01*
X-13290102Y-20700951D01*
X-13285937Y-20732581D01*
X-12838018Y-20612562D01*
X-12958038Y-20164644D01*
X-12987515Y-20176854D01*
X-13112850Y-20273027D01*
X-13209025Y-20398364D01*
X-13269480Y-20544317D01*
X-13269481Y-20544321D01*
X-13290102Y-20700951D01*
X-19937037Y-20700951D01*
X-20325302Y-20326942D01*
X-20326942Y-20325302D01*
X-20544031Y-20099938D01*
X-12716555Y-20099938D01*
X-12596536Y-20547858D01*
X-12148617Y-20427838D01*
X-12160826Y-20398364D01*
X-12256999Y-20273028D01*
X-12382339Y-20176851D01*
X-12528291Y-20116397D01*
X-12528295Y-20116396D01*
X-12684925Y-20095775D01*
X-12684927Y-20095775D01*
X-12716555Y-20099938D01*
X-20544031Y-20099938D01*
X-21071122Y-19552757D01*
X-21072699Y-19551058D01*
X-21199328Y-19409360D01*
X-10851382Y-19409360D01*
X-10839174Y-19438834D01*
X-10742998Y-19564172D01*
X-10617660Y-19660348D01*
X-10471708Y-19720802D01*
X-10471704Y-19720803D01*
X-10315074Y-19741424D01*
X-10283443Y-19737259D01*
X-10403462Y-19289340D01*
X-10851381Y-19409359D01*
X-10851382Y-19409360D01*
X-21199328Y-19409360D01*
X-21411412Y-19172038D01*
X-10425224Y-19172038D01*
X-10383151Y-19229948D01*
X-10332522Y-19246398D01*
X-10297626Y-19246398D01*
X-10246997Y-19229948D01*
X-10204924Y-19172038D01*
X-10204924Y-19100458D01*
X-10246997Y-19042548D01*
X-10297626Y-19026098D01*
X-10332522Y-19026098D01*
X-10383151Y-19042548D01*
X-10425224Y-19100458D01*
X-10425224Y-19172038D01*
X-21411412Y-19172038D01*
X-21766798Y-18774360D01*
X-11951234Y-18774360D01*
X-11939026Y-18803834D01*
X-11842850Y-18929172D01*
X-11717512Y-19025348D01*
X-11571560Y-19085802D01*
X-11571556Y-19085803D01*
X-11414926Y-19106424D01*
X-11383295Y-19102259D01*
X-11503314Y-18654340D01*
X-11951233Y-18774359D01*
X-11951234Y-18774360D01*
X-21766798Y-18774360D01*
X-21787515Y-18751178D01*
X-21789014Y-18749436D01*
X-21964994Y-18537038D01*
X-11525076Y-18537038D01*
X-11483003Y-18594948D01*
X-11432374Y-18611398D01*
X-11397478Y-18611398D01*
X-11346849Y-18594948D01*
X-11342990Y-18589636D01*
X-11261832Y-18589636D01*
X-11141812Y-19037555D01*
X-11112336Y-19025346D01*
X-11106253Y-19021834D01*
X-11038353Y-19005360D01*
X-10972326Y-19028211D01*
X-10929134Y-19083132D01*
X-10920251Y-19129220D01*
X-10920251Y-19136246D01*
X-10916085Y-19167877D01*
X-10468166Y-19047858D01*
X-10588186Y-18599940D01*
X-10617666Y-18612151D01*
X-10623757Y-18615667D01*
X-10691658Y-18632134D01*
X-10757684Y-18609277D01*
X-10800870Y-18554353D01*
X-10809749Y-18508275D01*
X-10809749Y-18501246D01*
X-10813912Y-18469618D01*
X-10813913Y-18469617D01*
X-11261832Y-18589636D01*
X-11342990Y-18589636D01*
X-11304776Y-18537038D01*
X-11304776Y-18465458D01*
X-11346849Y-18407548D01*
X-11397478Y-18391098D01*
X-11432374Y-18391098D01*
X-11483003Y-18407548D01*
X-11525076Y-18465458D01*
X-11525076Y-18537038D01*
X-21964994Y-18537038D01*
X-21994648Y-18501247D01*
X-12020102Y-18501247D01*
X-12015937Y-18532877D01*
X-11568018Y-18412858D01*
X-11688038Y-17964940D01*
X-11717515Y-17977150D01*
X-11842850Y-18073323D01*
X-11939025Y-18198660D01*
X-11999480Y-18344613D01*
X-11999481Y-18344617D01*
X-12020102Y-18501247D01*
X-21994648Y-18501247D01*
X-22031445Y-18456835D01*
X-22473392Y-17923424D01*
X-22474838Y-17921611D01*
X-22491241Y-17900234D01*
X-11446555Y-17900234D01*
X-11326536Y-18348154D01*
X-10878617Y-18228134D01*
X-10890826Y-18198660D01*
X-10986999Y-18073324D01*
X-11112339Y-17977147D01*
X-11258291Y-17916693D01*
X-11258295Y-17916692D01*
X-11414925Y-17896071D01*
X-11414927Y-17896071D01*
X-11446555Y-17900234D01*
X-22491241Y-17900234D01*
X-23000690Y-17236307D01*
X-23070752Y-17145000D01*
X-13051682Y-17145000D01*
X-13031044Y-17301762D01*
X-12970536Y-17447841D01*
X-12874282Y-17573282D01*
X-12748841Y-17669536D01*
X-12602762Y-17730044D01*
X-12498254Y-17743802D01*
X-12446001Y-17750682D01*
X-12446000Y-17750682D01*
X-12445999Y-17750682D01*
X-12367619Y-17740363D01*
X-12289238Y-17730044D01*
X-12143159Y-17669536D01*
X-12017718Y-17573282D01*
X-11921464Y-17447841D01*
X-11860956Y-17301762D01*
X-11860955Y-17301760D01*
X-11840318Y-17145001D01*
X-11840318Y-17144998D01*
X-11860955Y-16988239D01*
X-11860956Y-16988237D01*
X-11921463Y-16842160D01*
X-12017718Y-16716718D01*
X-12143160Y-16620463D01*
X-12289237Y-16559956D01*
X-12289239Y-16559955D01*
X-12445999Y-16539318D01*
X-12446001Y-16539318D01*
X-12602760Y-16559955D01*
X-12602762Y-16559956D01*
X-12748841Y-16620464D01*
X-12874282Y-16716718D01*
X-12970536Y-16842159D01*
X-13031044Y-16988238D01*
X-13051682Y-17145000D01*
X-23070752Y-17145000D01*
X-23127873Y-17070558D01*
X-23129226Y-17068725D01*
X-23610718Y-16390128D01*
X-23749962Y-16193882D01*
X-23751269Y-16191966D01*
X-23794785Y-16125503D01*
X-22794445Y-16125503D01*
X-22774148Y-16305645D01*
X-22774147Y-16305651D01*
X-22714270Y-16476768D01*
X-22617818Y-16630272D01*
X-22489626Y-16758464D01*
X-22336122Y-16854916D01*
X-22165005Y-16914793D01*
X-22165000Y-16914793D01*
X-22164999Y-16914794D01*
X-22097521Y-16922396D01*
X-22030042Y-16929999D01*
X-22030041Y-16930000D01*
X-21939670Y-16930000D01*
X-21939667Y-16930000D01*
X-21939664Y-16929999D01*
X-21895653Y-16925040D01*
X-21804708Y-16914794D01*
X-21804706Y-16914793D01*
X-21804703Y-16914793D01*
X-21633586Y-16854916D01*
X-21480082Y-16758464D01*
X-21351890Y-16630272D01*
X-21255438Y-16476768D01*
X-21255437Y-16476767D01*
X-21255436Y-16476764D01*
X-21195559Y-16305645D01*
X-21175263Y-16125503D01*
X-11480737Y-16125503D01*
X-11460440Y-16305645D01*
X-11460439Y-16305651D01*
X-11400562Y-16476768D01*
X-11304110Y-16630272D01*
X-11175918Y-16758464D01*
X-11022414Y-16854916D01*
X-10851297Y-16914793D01*
X-10851292Y-16914793D01*
X-10851291Y-16914794D01*
X-10783813Y-16922396D01*
X-10716334Y-16929999D01*
X-10716333Y-16930000D01*
X-10625962Y-16930000D01*
X-10625959Y-16930000D01*
X-10625956Y-16929999D01*
X-10581945Y-16925040D01*
X-10491000Y-16914794D01*
X-10490998Y-16914793D01*
X-10490995Y-16914793D01*
X-10319878Y-16854916D01*
X-10166374Y-16758464D01*
X-10038182Y-16630272D01*
X-9941730Y-16476768D01*
X-9941729Y-16476767D01*
X-9941728Y-16476764D01*
X-9881851Y-16305645D01*
X-9861555Y-16125503D01*
X-9861555Y-16125496D01*
X-9881851Y-15945354D01*
X-9941728Y-15774235D01*
X-9941729Y-15774232D01*
X-10038182Y-15620727D01*
X-10166373Y-15492536D01*
X-10319878Y-15396083D01*
X-10319881Y-15396082D01*
X-10491000Y-15336205D01*
X-10625955Y-15321000D01*
X-10625962Y-15321000D01*
X-10716330Y-15321000D01*
X-10716336Y-15321000D01*
X-10851291Y-15336205D01*
X-11022410Y-15396082D01*
X-11022413Y-15396083D01*
X-11033644Y-15403140D01*
X-11175918Y-15492536D01*
X-11304110Y-15620728D01*
X-11400562Y-15774232D01*
X-11460439Y-15945349D01*
X-11460439Y-15945352D01*
X-11460440Y-15945354D01*
X-11480737Y-16125496D01*
X-11480737Y-16125503D01*
X-21175263Y-16125503D01*
X-21175263Y-16125496D01*
X-21195559Y-15945354D01*
X-21255436Y-15774235D01*
X-21255437Y-15774232D01*
X-21351890Y-15620727D01*
X-21480081Y-15492536D01*
X-21633586Y-15396083D01*
X-21633589Y-15396082D01*
X-21804708Y-15336205D01*
X-21939663Y-15321000D01*
X-21939670Y-15321000D01*
X-22030038Y-15321000D01*
X-22030044Y-15321000D01*
X-22164999Y-15336205D01*
X-22336118Y-15396082D01*
X-22336121Y-15396083D01*
X-22347352Y-15403140D01*
X-22489626Y-15492536D01*
X-22617818Y-15620728D01*
X-22714270Y-15774232D01*
X-22774147Y-15945349D01*
X-22774147Y-15945352D01*
X-22774148Y-15945354D01*
X-22794445Y-16125496D01*
X-22794445Y-16125503D01*
X-23794785Y-16125503D01*
X-24338880Y-15294488D01*
X-24340114Y-15292524D01*
X-24893729Y-14373750D01*
X-24894889Y-14371742D01*
X-25413777Y-13432886D01*
X-25414860Y-13430836D01*
X-25898278Y-12473239D01*
X-25899284Y-12471150D01*
X-26346558Y-11496143D01*
X-26347485Y-11494018D01*
X-26757990Y-10502974D01*
X-26758837Y-10500815D01*
X-27131991Y-9495134D01*
X-27132756Y-9492945D01*
X-27412331Y-8643330D01*
X-18191512Y-8643330D01*
X-18171215Y-8823472D01*
X-18171214Y-8823478D01*
X-18111337Y-8994595D01*
X-18014885Y-9148099D01*
X-17886693Y-9276291D01*
X-17733189Y-9372743D01*
X-17562072Y-9432620D01*
X-17562067Y-9432620D01*
X-17562066Y-9432621D01*
X-17494588Y-9440223D01*
X-17427109Y-9447826D01*
X-17427108Y-9447827D01*
X-17336737Y-9447827D01*
X-17336734Y-9447827D01*
X-17336731Y-9447826D01*
X-17292720Y-9442867D01*
X-17201775Y-9432621D01*
X-17201773Y-9432620D01*
X-17201770Y-9432620D01*
X-17030653Y-9372743D01*
X-16877149Y-9276291D01*
X-16748957Y-9148099D01*
X-16652505Y-8994595D01*
X-16652504Y-8994594D01*
X-16652503Y-8994591D01*
X-16592626Y-8823472D01*
X-16572330Y-8643330D01*
X-16572330Y-8643323D01*
X-16592626Y-8463181D01*
X-16652503Y-8292062D01*
X-16652504Y-8292059D01*
X-16748957Y-8138554D01*
X-16877148Y-8010363D01*
X-17030653Y-7913910D01*
X-17030656Y-7913909D01*
X-17201775Y-7854032D01*
X-17336730Y-7838827D01*
X-17336737Y-7838827D01*
X-17427105Y-7838827D01*
X-17427111Y-7838827D01*
X-17562066Y-7854032D01*
X-17733185Y-7913909D01*
X-17733188Y-7913910D01*
X-17859042Y-7992989D01*
X-17886693Y-8010363D01*
X-18014885Y-8138555D01*
X-18111337Y-8292059D01*
X-18171214Y-8463176D01*
X-18171214Y-8463179D01*
X-18171215Y-8463181D01*
X-18191512Y-8643323D01*
X-18191512Y-8643330D01*
X-27412331Y-8643330D01*
X-27468053Y-8473992D01*
X-27468737Y-8471776D01*
X-27748700Y-7500000D01*
X-14849618Y-7500000D01*
X-14830694Y-7764597D01*
X-14774306Y-8023808D01*
X-14681602Y-8272355D01*
X-14554471Y-8505179D01*
X-14395499Y-8717541D01*
X-14207922Y-8905118D01*
X-13995560Y-9064090D01*
X-13762741Y-9191218D01*
X-13762740Y-9191218D01*
X-13762736Y-9191221D01*
X-13514189Y-9283925D01*
X-13254978Y-9340313D01*
X-13016889Y-9357341D01*
X-12990382Y-9359237D01*
X-12990381Y-9359237D01*
X-12990380Y-9359237D01*
X-12960921Y-9357130D01*
X-12725784Y-9340313D01*
X-12725780Y-9340312D01*
X-12725778Y-9340312D01*
X-12466581Y-9283927D01*
X-12466579Y-9283926D01*
X-12466573Y-9283925D01*
X-12218026Y-9191221D01*
X-12218023Y-9191219D01*
X-12218019Y-9191218D01*
X-11985207Y-9064093D01*
X-11985199Y-9064088D01*
X-11772847Y-8905124D01*
X-11772829Y-8905108D01*
X-11585272Y-8717551D01*
X-11585256Y-8717533D01*
X-11426292Y-8505181D01*
X-11426287Y-8505173D01*
X-11299162Y-8272361D01*
X-11206453Y-8023799D01*
X-11150068Y-7764602D01*
X-11131144Y-7500001D01*
X-11131144Y-7499998D01*
X-11150068Y-7235397D01*
X-11206453Y-6976200D01*
X-11299162Y-6727638D01*
X-11426287Y-6494826D01*
X-11426292Y-6494818D01*
X-11585256Y-6282466D01*
X-11585272Y-6282448D01*
X-11772829Y-6094891D01*
X-11772847Y-6094875D01*
X-11985199Y-5935911D01*
X-11985207Y-5935906D01*
X-12218020Y-5808781D01*
X-12218019Y-5808781D01*
X-12466581Y-5716072D01*
X-12725778Y-5659687D01*
X-12990380Y-5640763D01*
X-12990382Y-5640763D01*
X-13254983Y-5659687D01*
X-13514180Y-5716072D01*
X-13514186Y-5716074D01*
X-13514189Y-5716075D01*
X-13663317Y-5771697D01*
X-13762742Y-5808781D01*
X-13995554Y-5935906D01*
X-13995562Y-5935911D01*
X-14207914Y-6094875D01*
X-14207932Y-6094891D01*
X-14395489Y-6282448D01*
X-14395505Y-6282466D01*
X-14554469Y-6494818D01*
X-14554474Y-6494826D01*
X-14681599Y-6727638D01*
X-14681600Y-6727642D01*
X-14681602Y-6727645D01*
X-14774306Y-6976192D01*
X-14830694Y-7235403D01*
X-14839986Y-7365321D01*
X-14847984Y-7477160D01*
X-14849618Y-7500000D01*
X-27748700Y-7500000D01*
X-27765702Y-7440986D01*
X-27766302Y-7438747D01*
X-28024510Y-6397604D01*
X-28025026Y-6395343D01*
X-28244128Y-5345255D01*
X-28244559Y-5342977D01*
X-28375553Y-4572000D01*
X-18131682Y-4572000D01*
X-18111044Y-4728762D01*
X-18050536Y-4874841D01*
X-17954282Y-5000282D01*
X-17828841Y-5096536D01*
X-17682762Y-5157044D01*
X-17578254Y-5170802D01*
X-17526001Y-5177682D01*
X-17526000Y-5177682D01*
X-17525999Y-5177682D01*
X-17447618Y-5167363D01*
X-17369238Y-5157044D01*
X-17223159Y-5096536D01*
X-17223158Y-5096535D01*
X-17223157Y-5096535D01*
X-17093485Y-4997034D01*
X-17028316Y-4971840D01*
X-16959871Y-4985878D01*
X-16942512Y-4997035D01*
X-16938284Y-5000279D01*
X-16938282Y-5000282D01*
X-16812841Y-5096536D01*
X-16666762Y-5157044D01*
X-16562254Y-5170802D01*
X-16510001Y-5177682D01*
X-16510000Y-5177682D01*
X-16509999Y-5177682D01*
X-16431618Y-5167363D01*
X-16353238Y-5157044D01*
X-16207159Y-5096536D01*
X-16081718Y-5000282D01*
X-15985464Y-4874841D01*
X-15974399Y-4848129D01*
X-15924956Y-4728762D01*
X-15924955Y-4728760D01*
X-15904318Y-4572001D01*
X-15904318Y-4571998D01*
X-15924955Y-4415239D01*
X-15924956Y-4415237D01*
X-15985463Y-4269160D01*
X-16081718Y-4143718D01*
X-16207160Y-4047463D01*
X-16353237Y-3986956D01*
X-16353239Y-3986955D01*
X-16509999Y-3966318D01*
X-16510001Y-3966318D01*
X-16666760Y-3986955D01*
X-16666762Y-3986956D01*
X-16812842Y-4047464D01*
X-16942514Y-4146965D01*
X-17007683Y-4172159D01*
X-17076128Y-4158121D01*
X-17093486Y-4146965D01*
X-17223157Y-4047464D01*
X-17369237Y-3986956D01*
X-17369239Y-3986955D01*
X-17525999Y-3966318D01*
X-17526001Y-3966318D01*
X-17682760Y-3986955D01*
X-17682762Y-3986956D01*
X-17828841Y-4047464D01*
X-17954282Y-4143718D01*
X-18050536Y-4269159D01*
X-18111044Y-4415238D01*
X-18131682Y-4572000D01*
X-28375553Y-4572000D01*
X-28424243Y-4285431D01*
X-28424589Y-4283138D01*
X-28486878Y-3810000D01*
X-25751682Y-3810000D01*
X-25731044Y-3966762D01*
X-25670536Y-4112841D01*
X-25574282Y-4238282D01*
X-25448841Y-4334536D01*
X-25302762Y-4395044D01*
X-25198254Y-4408802D01*
X-25146001Y-4415682D01*
X-25146000Y-4415682D01*
X-25145999Y-4415682D01*
X-25067619Y-4405363D01*
X-24989238Y-4395044D01*
X-24843159Y-4334536D01*
X-24717718Y-4238282D01*
X-24621464Y-4112841D01*
X-24594383Y-4047463D01*
X-24560956Y-3966762D01*
X-24560955Y-3966760D01*
X-24540318Y-3810001D01*
X-24540318Y-3809998D01*
X-24560955Y-3653239D01*
X-24560956Y-3653237D01*
X-24621463Y-3507160D01*
X-24717718Y-3381718D01*
X-24843160Y-3285463D01*
X-24989237Y-3224956D01*
X-24989239Y-3224955D01*
X-25145999Y-3204318D01*
X-25146001Y-3204318D01*
X-25302760Y-3224955D01*
X-25302762Y-3224956D01*
X-25448841Y-3285464D01*
X-25574282Y-3381718D01*
X-25670536Y-3507159D01*
X-25731044Y-3653238D01*
X-25751682Y-3810000D01*
X-28486878Y-3810000D01*
X-28564603Y-3219619D01*
X-28564862Y-3217315D01*
X-28586509Y-2986476D01*
X-27989470Y-2986476D01*
X-27969173Y-3166618D01*
X-27969172Y-3166624D01*
X-27909295Y-3337741D01*
X-27812843Y-3491245D01*
X-27684651Y-3619437D01*
X-27531147Y-3715889D01*
X-27360030Y-3775766D01*
X-27360025Y-3775766D01*
X-27360024Y-3775767D01*
X-27292546Y-3783369D01*
X-27225067Y-3790972D01*
X-27225066Y-3790973D01*
X-27134695Y-3790973D01*
X-27134692Y-3790973D01*
X-27134689Y-3790972D01*
X-27090678Y-3786013D01*
X-26999733Y-3775767D01*
X-26999731Y-3775766D01*
X-26999728Y-3775766D01*
X-26828611Y-3715889D01*
X-26675107Y-3619437D01*
X-26546915Y-3491245D01*
X-26450463Y-3337741D01*
X-26450462Y-3337740D01*
X-26450461Y-3337737D01*
X-26390584Y-3166618D01*
X-26370288Y-2986476D01*
X-26370288Y-2986469D01*
X-26390584Y-2806327D01*
X-26450461Y-2635208D01*
X-26450462Y-2635205D01*
X-26546915Y-2481700D01*
X-26675106Y-2353509D01*
X-26828611Y-2257056D01*
X-26828614Y-2257055D01*
X-26999733Y-2197178D01*
X-27134688Y-2181973D01*
X-27134695Y-2181973D01*
X-27225063Y-2181973D01*
X-27225069Y-2181973D01*
X-27360024Y-2197178D01*
X-27531143Y-2257055D01*
X-27531146Y-2257056D01*
X-27684651Y-2353508D01*
X-27684651Y-2353509D01*
X-27812843Y-2481701D01*
X-27909295Y-2635205D01*
X-27969172Y-2806322D01*
X-27969172Y-2806325D01*
X-27969173Y-2806327D01*
X-27989470Y-2986469D01*
X-27989470Y-2986476D01*
X-28586509Y-2986476D01*
X-28665013Y-2149321D01*
X-28665186Y-2147008D01*
X-28714437Y-1270000D01*
X-25116682Y-1270000D01*
X-25096044Y-1426762D01*
X-25035536Y-1572841D01*
X-24939282Y-1698282D01*
X-24813841Y-1794536D01*
X-24667762Y-1855044D01*
X-24563254Y-1868802D01*
X-24511001Y-1875682D01*
X-24511000Y-1875682D01*
X-24510999Y-1875682D01*
X-24414184Y-1862936D01*
X-24354238Y-1855044D01*
X-24208159Y-1794536D01*
X-24082718Y-1698282D01*
X-23986464Y-1572841D01*
X-23925956Y-1426762D01*
X-23925955Y-1426760D01*
X-23905318Y-1270001D01*
X-23905318Y-1269998D01*
X-23925955Y-1113239D01*
X-23925956Y-1113237D01*
X-23986463Y-967160D01*
X-24082718Y-841718D01*
X-24208160Y-745463D01*
X-24354237Y-684956D01*
X-24354239Y-684955D01*
X-24510999Y-664318D01*
X-24511001Y-664318D01*
X-24667760Y-684955D01*
X-24667762Y-684956D01*
X-24813841Y-745464D01*
X-24939282Y-841718D01*
X-25035536Y-967159D01*
X-25096044Y-1113238D01*
X-25096044Y-1113239D01*
X-25116311Y-1267185D01*
X-25116682Y-1270000D01*
X-28714437Y-1270000D01*
X-28725333Y-1075975D01*
X-28725420Y-1073658D01*
X-28745478Y-1159D01*
X-28745478Y-1D01*
X-27656682Y-1D01*
X-27655529Y-8756D01*
X-27636044Y-156762D01*
X-27575536Y-302841D01*
X-27479282Y-428282D01*
X-27353841Y-524536D01*
X-27207762Y-585044D01*
X-27127687Y-595586D01*
X-27051001Y-605682D01*
X-27051000Y-605682D01*
X-27050999Y-605682D01*
X-26972618Y-595363D01*
X-26894238Y-585044D01*
X-26748159Y-524536D01*
X-26622718Y-428282D01*
X-26526464Y-302841D01*
X-26524722Y-298637D01*
X-26465956Y-156762D01*
X-26465955Y-156760D01*
X-26445318Y-1D01*
X-26445318Y1D01*
X-26465955Y156760D01*
X-26465956Y156762D01*
X-26526463Y302839D01*
X-26526464Y302841D01*
X-26622718Y428282D01*
X-26748159Y524536D01*
X-26894238Y585044D01*
X-26974313Y595586D01*
X-27050999Y605682D01*
X-27051001Y605682D01*
X-27103254Y598802D01*
X-27207762Y585044D01*
X-27353841Y524536D01*
X-27479282Y428282D01*
X-27575536Y302841D01*
X-27636044Y156762D01*
X-27646920Y74151D01*
X-27656682Y1D01*
X-27656682Y-1D01*
X-28745478Y-1D01*
X-28745478Y1159D01*
X-28729780Y840553D01*
X-28725419Y1073663D01*
X-28725333Y1075975D01*
X-28691366Y1680826D01*
X-21754320Y1680826D01*
X-21754311Y1680760D01*
X-21733682Y1524066D01*
X-21673174Y1377987D01*
X-21576920Y1252546D01*
X-21451479Y1156292D01*
X-21451477Y1156291D01*
X-21305400Y1095784D01*
X-21305398Y1095783D01*
X-21148639Y1075146D01*
X-21148638Y1075146D01*
X-21148637Y1075146D01*
X-20991877Y1095783D01*
X-20991875Y1095784D01*
X-20845798Y1156291D01*
X-20799500Y1191817D01*
X-20262064Y1191817D01*
X-20244411Y1035144D01*
X-20241766Y1011670D01*
X-20181889Y840553D01*
X-20126643Y752628D01*
X-20085436Y687048D01*
X-19957245Y558857D01*
X-19957242Y558855D01*
X-19938849Y547298D01*
X-19892557Y494964D01*
X-19881908Y425911D01*
X-19906444Y366818D01*
X-19955536Y302841D01*
X-20016044Y156762D01*
X-20026920Y74151D01*
X-20036682Y1D01*
X-20036682Y-1D01*
X-20035529Y-8756D01*
X-20016044Y-156762D01*
X-19955536Y-302841D01*
X-19859282Y-428282D01*
X-19733841Y-524536D01*
X-19587762Y-585044D01*
X-19507687Y-595586D01*
X-19431001Y-605682D01*
X-19431000Y-605682D01*
X-19430999Y-605682D01*
X-19354289Y-595583D01*
X-17896511Y-595583D01*
X-17886631Y-752629D01*
X-17838005Y-902283D01*
X-17753690Y-1035143D01*
X-17638982Y-1142860D01*
X-17501090Y-1218667D01*
X-17348678Y-1257800D01*
X-17230819Y-1257800D01*
X-17230817Y-1257800D01*
X-17230813Y-1257799D01*
X-17230807Y-1257799D01*
X-17206437Y-1254720D01*
X-17113885Y-1243028D01*
X-17113880Y-1243026D01*
X-17113879Y-1243026D01*
X-16967582Y-1185103D01*
X-16967579Y-1185102D01*
X-16840276Y-1092610D01*
X-16739973Y-971365D01*
X-16739971Y-971361D01*
X-16739970Y-971360D01*
X-16736762Y-966306D01*
X-16684218Y-920252D01*
X-16615117Y-909917D01*
X-16551397Y-938582D01*
X-16527374Y-966306D01*
X-16483690Y-1035143D01*
X-16368982Y-1142860D01*
X-16231090Y-1218667D01*
X-16078678Y-1257800D01*
X-15960819Y-1257800D01*
X-15960817Y-1257800D01*
X-15960813Y-1257799D01*
X-15960807Y-1257799D01*
X-15936437Y-1254720D01*
X-15843885Y-1243028D01*
X-15843880Y-1243026D01*
X-15843879Y-1243026D01*
X-15697582Y-1185103D01*
X-15697579Y-1185102D01*
X-15570276Y-1092610D01*
X-15469973Y-971365D01*
X-15469971Y-971361D01*
X-15469970Y-971360D01*
X-15466762Y-966306D01*
X-15414218Y-920252D01*
X-15345117Y-909917D01*
X-15281397Y-938582D01*
X-15257374Y-966306D01*
X-15213690Y-1035143D01*
X-15098982Y-1142860D01*
X-14961090Y-1218667D01*
X-14808678Y-1257800D01*
X-14690819Y-1257800D01*
X-14690817Y-1257800D01*
X-14690813Y-1257799D01*
X-14690807Y-1257799D01*
X-14666437Y-1254720D01*
X-14573885Y-1243028D01*
X-14573880Y-1243026D01*
X-14573879Y-1243026D01*
X-14427582Y-1185103D01*
X-14427579Y-1185102D01*
X-14300276Y-1092610D01*
X-14199973Y-971365D01*
X-14199972Y-971363D01*
X-14199971Y-971362D01*
X-14132974Y-828985D01*
X-14132974Y-828984D01*
X-14118409Y-752629D01*
X-14103489Y-674417D01*
X-14108449Y-595583D01*
X-14113369Y-517371D01*
X-14113369Y-517368D01*
X-14161995Y-367716D01*
X-14246310Y-234856D01*
X-14361014Y-127142D01*
X-14361022Y-127136D01*
X-14393821Y-109105D01*
X-14443084Y-59558D01*
X-14455861Y0D01*
X-11632396Y0D01*
X-11612716Y-676364D01*
X-11553742Y-1350439D01*
X-11455674Y-2019944D01*
X-11318843Y-2682615D01*
X-11143713Y-3336209D01*
X-10930877Y-3978514D01*
X-10681053Y-4607357D01*
X-10395089Y-5220610D01*
X-10073950Y-5816198D01*
X-9718725Y-6392106D01*
X-9330615Y-6946385D01*
X-8910932Y-7477160D01*
X-8461098Y-7982634D01*
X-7982634Y-8461098D01*
X-7477160Y-8910932D01*
X-6946385Y-9330615D01*
X-6392106Y-9718725D01*
X-5816198Y-10073950D01*
X-5220610Y-10395089D01*
X-4607357Y-10681053D01*
X-3978514Y-10930877D01*
X-3336209Y-11143713D01*
X-2682615Y-11318843D01*
X-2592798Y-11337388D01*
X-2405494Y-11376064D01*
X-2343820Y-11408898D01*
X-2309688Y-11469864D01*
X-2313935Y-11539604D01*
X-2342888Y-11585183D01*
X-9181055Y-18423350D01*
X-9242378Y-18456835D01*
X-9252549Y-18458608D01*
X-9268270Y-18460678D01*
X-9300762Y-18464956D01*
X-9335606Y-18479389D01*
X-9434994Y-18520557D01*
X-9446841Y-18525464D01*
X-9572282Y-18621718D01*
X-9638736Y-18708323D01*
X-9664566Y-18741985D01*
X-9720994Y-18783188D01*
X-9790740Y-18787343D01*
X-9851660Y-18753131D01*
X-9861316Y-18741988D01*
X-9887147Y-18708324D01*
X-10012487Y-18612147D01*
X-10158439Y-18551693D01*
X-10158443Y-18551692D01*
X-10315073Y-18531071D01*
X-10315075Y-18531071D01*
X-10346703Y-18535234D01*
X-10161981Y-19224635D01*
X-10041960Y-19672555D01*
X-10012485Y-19660346D01*
X-9887149Y-19564172D01*
X-9795138Y-19444261D01*
X-9738710Y-19403059D01*
X-9668964Y-19398904D01*
X-9608043Y-19433116D01*
X-9598389Y-19444258D01*
X-9572282Y-19478282D01*
X-9446841Y-19574536D01*
X-9300762Y-19635044D01*
X-9196253Y-19648802D01*
X-9144001Y-19655682D01*
X-9144000Y-19655682D01*
X-9143999Y-19655682D01*
X-9065619Y-19645363D01*
X-8987238Y-19635044D01*
X-8841159Y-19574536D01*
X-8715718Y-19478282D01*
X-8619464Y-19352841D01*
X-8598377Y-19301934D01*
X-8558956Y-19206762D01*
X-8558955Y-19206760D01*
X-8538318Y-19050001D01*
X-8538318Y-19049998D01*
X-8558955Y-18893239D01*
X-8558956Y-18893238D01*
X-8586959Y-18825631D01*
X-8594426Y-18756162D01*
X-8563151Y-18693683D01*
X-8560078Y-18690499D01*
X-8284579Y-18415000D01*
X-2891682Y-18415000D01*
X-2871044Y-18571762D01*
X-2810536Y-18717841D01*
X-2714282Y-18843282D01*
X-2588841Y-18939536D01*
X-2442762Y-19000044D01*
X-2338254Y-19013802D01*
X-2286001Y-19020682D01*
X-2286000Y-19020682D01*
X-2285999Y-19020682D01*
X-2178140Y-19006482D01*
X-2129238Y-19000044D01*
X-2082829Y-18980820D01*
X-2013362Y-18973352D01*
X-1950883Y-19004627D01*
X-1915230Y-19064715D01*
X-1912158Y-19109264D01*
X-1918440Y-19165017D01*
X-1928012Y-19249970D01*
X-1928012Y-19249976D01*
X-1910054Y-19409359D01*
X-1907714Y-19430124D01*
X-1847837Y-19601241D01*
X-1751385Y-19754745D01*
X-1623193Y-19882937D01*
X-1469689Y-19979389D01*
X-1298572Y-20039266D01*
X-1298567Y-20039266D01*
X-1298566Y-20039267D01*
X-1231088Y-20046869D01*
X-1163609Y-20054472D01*
X-1163608Y-20054473D01*
X-1073237Y-20054473D01*
X-1073234Y-20054473D01*
X-1073231Y-20054472D01*
X-1029220Y-20049513D01*
X-938275Y-20039267D01*
X-938273Y-20039266D01*
X-938270Y-20039266D01*
X-767153Y-19979389D01*
X-613649Y-19882937D01*
X-485457Y-19754745D01*
X-458596Y-19711995D01*
X-389004Y-19601240D01*
X-389003Y-19601237D01*
X-329126Y-19430118D01*
X-308830Y-19249976D01*
X-308830Y-19249969D01*
X-329126Y-19069827D01*
X-389003Y-18898708D01*
X-389004Y-18898705D01*
X-485457Y-18745200D01*
X-613648Y-18617009D01*
X-767153Y-18520556D01*
X-767156Y-18520555D01*
X-938275Y-18460678D01*
X-1073230Y-18445473D01*
X-1073237Y-18445473D01*
X-1163605Y-18445473D01*
X-1163611Y-18445473D01*
X-1298566Y-18460678D01*
X-1298571Y-18460679D01*
X-1298572Y-18460680D01*
X-1322897Y-18469191D01*
X-1469685Y-18520555D01*
X-1469692Y-18520558D01*
X-1491124Y-18534025D01*
X-1558360Y-18553025D01*
X-1625196Y-18532657D01*
X-1670409Y-18479389D01*
X-1678548Y-18423127D01*
X-1680318Y-18423127D01*
X-1680318Y-18414998D01*
X-1700955Y-18258239D01*
X-1700956Y-18258237D01*
X-1761463Y-18112160D01*
X-1857718Y-17986718D01*
X-1983160Y-17890463D01*
X-2129237Y-17829956D01*
X-2129239Y-17829955D01*
X-2285999Y-17809318D01*
X-2286001Y-17809318D01*
X-2442760Y-17829955D01*
X-2442762Y-17829956D01*
X-2588841Y-17890464D01*
X-2714282Y-17986718D01*
X-2810536Y-18112159D01*
X-2871044Y-18258238D01*
X-2871044Y-18258239D01*
X-2882415Y-18344613D01*
X-2891682Y-18415000D01*
X-8284579Y-18415000D01*
X-7014579Y-17145000D01*
X-986682Y-17145000D01*
X-966044Y-17301762D01*
X-905536Y-17447841D01*
X-809282Y-17573282D01*
X-683841Y-17669536D01*
X-537762Y-17730044D01*
X-433254Y-17743802D01*
X-381001Y-17750682D01*
X-381000Y-17750682D01*
X-380999Y-17750682D01*
X-302619Y-17740363D01*
X-224238Y-17730044D01*
X-78159Y-17669536D01*
X47282Y-17573282D01*
X143536Y-17447841D01*
X204044Y-17301762D01*
X224682Y-17145000D01*
X204044Y-16988238D01*
X143536Y-16842159D01*
X47282Y-16716718D01*
X-78159Y-16620464D01*
X-78158Y-16620464D01*
X-78160Y-16620463D01*
X-224237Y-16559956D01*
X-224239Y-16559955D01*
X-380999Y-16539318D01*
X-381001Y-16539318D01*
X-537760Y-16559955D01*
X-537762Y-16559956D01*
X-683841Y-16620464D01*
X-809282Y-16716718D01*
X-905536Y-16842159D01*
X-966044Y-16988238D01*
X-986682Y-17145000D01*
X-7014579Y-17145000D01*
X-1458044Y-11588465D01*
X-1396721Y-11554980D01*
X-1352376Y-11553458D01*
X-1350439Y-11553742D01*
X-676364Y-11612716D01*
X0Y-11632396D01*
X676364Y-11612716D01*
X1097225Y-11575894D01*
X1165723Y-11589660D01*
X1195712Y-11611741D01*
X9047681Y-19463710D01*
X9081166Y-19525033D01*
X9084000Y-19551391D01*
X9084000Y-21774875D01*
X9064315Y-21841914D01*
X9035488Y-21873250D01*
X8969719Y-21923717D01*
X8873463Y-22049160D01*
X8812956Y-22195237D01*
X8812955Y-22195239D01*
X8792318Y-22351998D01*
X8792318Y-22352001D01*
X8812955Y-22508760D01*
X8812956Y-22508762D01*
X8873464Y-22654841D01*
X8969718Y-22780282D01*
X9095159Y-22876536D01*
X9241238Y-22937044D01*
X9319619Y-22947363D01*
X9397999Y-22957682D01*
X9398000Y-22957682D01*
X9398001Y-22957682D01*
X9450254Y-22950802D01*
X9554762Y-22937044D01*
X9700841Y-22876536D01*
X9826282Y-22780282D01*
X9922536Y-22654841D01*
X9983044Y-22508762D01*
X10003682Y-22352000D01*
X9983044Y-22195238D01*
X9922536Y-22049159D01*
X9836445Y-21936963D01*
X11553443Y-21936963D01*
X11585074Y-21941128D01*
X11741704Y-21920507D01*
X11741708Y-21920506D01*
X11887660Y-21860052D01*
X11988913Y-21782357D01*
X15389309Y-21782357D01*
X15409605Y-21962499D01*
X15469482Y-22133618D01*
X15469483Y-22133621D01*
X15508200Y-22195239D01*
X15565936Y-22287126D01*
X15694128Y-22415318D01*
X15847632Y-22511770D01*
X16018749Y-22571647D01*
X16018752Y-22571647D01*
X16018754Y-22571648D01*
X16109699Y-22581894D01*
X16153710Y-22586853D01*
X16153713Y-22586854D01*
X16244084Y-22586854D01*
X16244087Y-22586854D01*
X16244088Y-22586853D01*
X16311567Y-22579250D01*
X16379045Y-22571648D01*
X16379046Y-22571647D01*
X16379051Y-22571647D01*
X16550168Y-22511770D01*
X16703672Y-22415318D01*
X16831864Y-22287126D01*
X16928316Y-22133622D01*
X16988193Y-21962505D01*
X16991071Y-21936963D01*
X17008491Y-21782357D01*
X17008491Y-21782350D01*
X16988194Y-21602208D01*
X16988193Y-21602206D01*
X16988193Y-21602203D01*
X16928316Y-21431086D01*
X16831864Y-21277582D01*
X16703672Y-21149390D01*
X16565924Y-21062838D01*
X16550167Y-21052937D01*
X16550164Y-21052936D01*
X16379045Y-20993059D01*
X16244090Y-20977854D01*
X16244084Y-20977854D01*
X16153716Y-20977854D01*
X16153709Y-20977854D01*
X16018754Y-20993059D01*
X15847635Y-21052936D01*
X15847632Y-21052937D01*
X15694127Y-21149390D01*
X15565936Y-21277581D01*
X15469483Y-21431086D01*
X15469482Y-21431089D01*
X15409605Y-21602208D01*
X15389309Y-21782350D01*
X15389309Y-21782357D01*
X11988913Y-21782357D01*
X12012998Y-21763876D01*
X12109174Y-21638538D01*
X12121382Y-21609064D01*
X12121381Y-21609063D01*
X11673462Y-21489044D01*
X11553443Y-21936963D01*
X9836445Y-21936963D01*
X9826282Y-21923718D01*
X9798027Y-21902037D01*
X9760512Y-21873250D01*
X9719310Y-21816821D01*
X9712000Y-21774875D01*
X9712000Y-21335952D01*
X10979897Y-21335952D01*
X11000518Y-21492582D01*
X11000519Y-21492586D01*
X11060973Y-21638538D01*
X11157149Y-21763876D01*
X11282485Y-21860050D01*
X11311960Y-21872259D01*
X11431980Y-21424340D01*
X11235681Y-21371742D01*
X11474924Y-21371742D01*
X11516997Y-21429652D01*
X11567626Y-21446102D01*
X11602522Y-21446102D01*
X11653151Y-21429652D01*
X11695224Y-21371742D01*
X11695224Y-21300162D01*
X11657009Y-21247562D01*
X11738166Y-21247562D01*
X12186085Y-21367581D01*
X12190251Y-21335950D01*
X12190251Y-21328924D01*
X12198168Y-21301963D01*
X12653295Y-21301963D01*
X12684926Y-21306128D01*
X12841556Y-21285507D01*
X12841560Y-21285506D01*
X12987512Y-21225052D01*
X13112850Y-21128876D01*
X13209026Y-21003538D01*
X13221234Y-20974064D01*
X13221233Y-20974063D01*
X12773314Y-20854044D01*
X12653295Y-21301963D01*
X12198168Y-21301963D01*
X12209936Y-21261885D01*
X12262740Y-21216130D01*
X12331898Y-21206186D01*
X12376253Y-21221538D01*
X12382336Y-21225050D01*
X12411812Y-21237259D01*
X12531832Y-20789340D01*
X12335533Y-20736742D01*
X12574776Y-20736742D01*
X12616849Y-20794652D01*
X12667478Y-20811102D01*
X12702374Y-20811102D01*
X12753003Y-20794652D01*
X12795076Y-20736742D01*
X12795076Y-20665162D01*
X12756861Y-20612562D01*
X12838018Y-20612562D01*
X13285937Y-20732581D01*
X13290102Y-20700951D01*
X13269481Y-20544321D01*
X13269480Y-20544317D01*
X13209025Y-20398364D01*
X13112852Y-20273028D01*
X12987511Y-20176851D01*
X12958038Y-20164643D01*
X12838018Y-20612562D01*
X12756861Y-20612562D01*
X12753003Y-20607252D01*
X12702374Y-20590802D01*
X12667478Y-20590802D01*
X12616849Y-20607252D01*
X12574776Y-20665162D01*
X12574776Y-20736742D01*
X12335533Y-20736742D01*
X12083913Y-20669321D01*
X12083912Y-20669322D01*
X12079749Y-20700950D01*
X12079749Y-20707979D01*
X12060064Y-20775018D01*
X12007260Y-20820773D01*
X11938102Y-20830717D01*
X11893750Y-20815367D01*
X11887662Y-20811852D01*
X11858186Y-20799643D01*
X11738166Y-21247562D01*
X11657009Y-21247562D01*
X11653151Y-21242252D01*
X11602522Y-21225802D01*
X11567626Y-21225802D01*
X11516997Y-21242252D01*
X11474924Y-21300162D01*
X11474924Y-21371742D01*
X11235681Y-21371742D01*
X10984061Y-21304321D01*
X10984060Y-21304322D01*
X10979897Y-21335950D01*
X10979897Y-21335952D01*
X9712000Y-21335952D01*
X9712000Y-21062838D01*
X11048765Y-21062838D01*
X11496684Y-21182858D01*
X11616703Y-20734938D01*
X11585075Y-20730775D01*
X11585073Y-20730775D01*
X11428443Y-20751396D01*
X11428439Y-20751397D01*
X11282486Y-20811852D01*
X11157149Y-20908027D01*
X11060974Y-21033364D01*
X11048765Y-21062838D01*
X9712000Y-21062838D01*
X9712000Y-20427838D01*
X12148617Y-20427838D01*
X12596536Y-20547858D01*
X12716555Y-20099938D01*
X12684927Y-20095775D01*
X12684925Y-20095775D01*
X12528295Y-20116396D01*
X12528291Y-20116397D01*
X12382338Y-20176852D01*
X12257001Y-20273027D01*
X12160826Y-20398364D01*
X12148617Y-20427838D01*
X9712000Y-20427838D01*
X9712000Y-19737259D01*
X10283443Y-19737259D01*
X10315074Y-19741424D01*
X10471704Y-19720803D01*
X10471708Y-19720802D01*
X10617660Y-19660348D01*
X10742998Y-19564172D01*
X10839174Y-19438834D01*
X10851382Y-19409360D01*
X10851381Y-19409359D01*
X10403462Y-19289340D01*
X10283443Y-19737259D01*
X9712000Y-19737259D01*
X9712000Y-19681223D01*
X9731685Y-19614184D01*
X9784489Y-19568429D01*
X9853647Y-19558485D01*
X9911487Y-19582848D01*
X10012482Y-19660345D01*
X10041960Y-19672555D01*
X10161980Y-19224636D01*
X9965682Y-19172038D01*
X10204924Y-19172038D01*
X10246997Y-19229948D01*
X10297626Y-19246398D01*
X10332522Y-19246398D01*
X10383151Y-19229948D01*
X10425224Y-19172038D01*
X10425224Y-19100458D01*
X10387009Y-19047858D01*
X10468166Y-19047858D01*
X10916085Y-19167877D01*
X10920251Y-19136246D01*
X10920251Y-19129220D01*
X10928168Y-19102259D01*
X11383295Y-19102259D01*
X11414926Y-19106424D01*
X11571556Y-19085803D01*
X11571560Y-19085802D01*
X11717512Y-19025348D01*
X11842850Y-18929172D01*
X11939026Y-18803834D01*
X11951234Y-18774360D01*
X11951233Y-18774359D01*
X11503314Y-18654340D01*
X11383295Y-19102259D01*
X10928168Y-19102259D01*
X10939936Y-19062181D01*
X10992740Y-19016426D01*
X11061898Y-19006482D01*
X11106253Y-19021834D01*
X11112336Y-19025346D01*
X11141812Y-19037555D01*
X11261832Y-18589636D01*
X11065533Y-18537038D01*
X11304776Y-18537038D01*
X11346849Y-18594948D01*
X11397478Y-18611398D01*
X11432374Y-18611398D01*
X11483003Y-18594948D01*
X11525076Y-18537038D01*
X11525076Y-18465458D01*
X11486861Y-18412858D01*
X11568018Y-18412858D01*
X12015937Y-18532877D01*
X12020102Y-18501247D01*
X12008747Y-18415001D01*
X14253318Y-18415001D01*
X14273955Y-18571760D01*
X14273956Y-18571762D01*
X14330521Y-18708323D01*
X14334464Y-18717841D01*
X14430718Y-18843282D01*
X14556159Y-18939536D01*
X14702238Y-19000044D01*
X14751140Y-19006482D01*
X14858999Y-19020682D01*
X14859000Y-19020682D01*
X14859001Y-19020682D01*
X14911254Y-19013802D01*
X15015762Y-19000044D01*
X15161841Y-18939536D01*
X15287282Y-18843282D01*
X15383536Y-18717841D01*
X15444044Y-18571762D01*
X15464682Y-18415000D01*
X15455415Y-18344613D01*
X15444044Y-18258239D01*
X15444044Y-18258238D01*
X15383536Y-18112159D01*
X15287282Y-17986718D01*
X15161841Y-17890464D01*
X15015762Y-17829956D01*
X15015760Y-17829955D01*
X14859001Y-17809318D01*
X14858999Y-17809318D01*
X14702239Y-17829955D01*
X14702237Y-17829956D01*
X14556160Y-17890463D01*
X14430718Y-17986718D01*
X14334463Y-18112160D01*
X14273956Y-18258237D01*
X14273955Y-18258239D01*
X14253318Y-18414998D01*
X14253318Y-18415001D01*
X12008747Y-18415001D01*
X11999481Y-18344617D01*
X11999480Y-18344613D01*
X11939025Y-18198660D01*
X11842852Y-18073324D01*
X11717511Y-17977147D01*
X11688038Y-17964939D01*
X11568018Y-18412858D01*
X11486861Y-18412858D01*
X11483003Y-18407548D01*
X11432374Y-18391098D01*
X11397478Y-18391098D01*
X11346849Y-18407548D01*
X11304776Y-18465458D01*
X11304776Y-18537038D01*
X11065533Y-18537038D01*
X10813913Y-18469617D01*
X10813912Y-18469618D01*
X10809749Y-18501246D01*
X10809749Y-18508275D01*
X10790064Y-18575314D01*
X10737260Y-18621069D01*
X10668102Y-18631013D01*
X10623750Y-18615663D01*
X10617662Y-18612148D01*
X10588186Y-18599939D01*
X10468166Y-19047858D01*
X10387009Y-19047858D01*
X10383151Y-19042548D01*
X10332522Y-19026098D01*
X10297626Y-19026098D01*
X10246997Y-19042548D01*
X10204924Y-19100458D01*
X10204924Y-19172038D01*
X9965682Y-19172038D01*
X9712667Y-19104243D01*
X9649662Y-19123971D01*
X9582282Y-19105486D01*
X9559769Y-19087672D01*
X9335231Y-18863134D01*
X9778765Y-18863134D01*
X10226684Y-18983154D01*
X10346703Y-18535234D01*
X10315075Y-18531071D01*
X10315073Y-18531071D01*
X10158443Y-18551692D01*
X10158439Y-18551693D01*
X10012486Y-18612148D01*
X9887149Y-18708323D01*
X9790974Y-18833660D01*
X9778765Y-18863134D01*
X9335231Y-18863134D01*
X8700231Y-18228134D01*
X10878617Y-18228134D01*
X11326536Y-18348154D01*
X11446555Y-17900234D01*
X11414927Y-17896071D01*
X11414925Y-17896071D01*
X11258295Y-17916692D01*
X11258291Y-17916693D01*
X11112338Y-17977148D01*
X10987001Y-18073323D01*
X10890826Y-18198660D01*
X10878617Y-18228134D01*
X8700231Y-18228134D01*
X8667699Y-18195602D01*
X8634214Y-18134279D01*
X8639198Y-18064587D01*
X8681070Y-18008654D01*
X8746534Y-17984237D01*
X8755380Y-17983921D01*
X8761814Y-17983921D01*
X8761815Y-17983920D01*
X8829294Y-17976317D01*
X8896772Y-17968715D01*
X8896773Y-17968714D01*
X8896778Y-17968714D01*
X9067895Y-17908837D01*
X9221399Y-17812385D01*
X9349591Y-17684193D01*
X9446043Y-17530689D01*
X9505920Y-17359572D01*
X9520858Y-17226992D01*
X9526218Y-17179424D01*
X9526218Y-17179417D01*
X9505921Y-16999275D01*
X9505920Y-16999273D01*
X9505920Y-16999270D01*
X9446043Y-16828153D01*
X9349591Y-16674649D01*
X9221399Y-16546457D01*
X9210037Y-16539318D01*
X9067894Y-16450004D01*
X9067891Y-16450003D01*
X8896772Y-16390126D01*
X8761817Y-16374921D01*
X8761811Y-16374921D01*
X8671443Y-16374921D01*
X8671436Y-16374921D01*
X8536481Y-16390126D01*
X8365362Y-16450003D01*
X8365359Y-16450004D01*
X8211854Y-16546457D01*
X8083663Y-16674648D01*
X7987210Y-16828153D01*
X7987209Y-16828156D01*
X7927332Y-16999275D01*
X7909990Y-17153195D01*
X7882923Y-17217609D01*
X7825329Y-17257164D01*
X7755492Y-17259301D01*
X7699089Y-17226992D01*
X2106160Y-11634063D01*
X2072675Y-11572740D01*
X2077659Y-11503048D01*
X2119531Y-11447115D01*
X2168763Y-11424945D01*
X2682615Y-11318843D01*
X3336209Y-11143713D01*
X3978514Y-10930877D01*
X4607357Y-10681053D01*
X5062860Y-10468649D01*
X15389309Y-10468649D01*
X15409605Y-10648791D01*
X15469482Y-10819910D01*
X15469483Y-10819913D01*
X15469484Y-10819914D01*
X15565936Y-10973418D01*
X15694128Y-11101610D01*
X15847632Y-11198062D01*
X16018749Y-11257939D01*
X16018752Y-11257939D01*
X16018754Y-11257940D01*
X16109699Y-11268186D01*
X16153710Y-11273145D01*
X16153713Y-11273146D01*
X16244084Y-11273146D01*
X16244087Y-11273146D01*
X16244088Y-11273145D01*
X16311567Y-11265542D01*
X16379045Y-11257940D01*
X16379046Y-11257939D01*
X16379051Y-11257939D01*
X16550168Y-11198062D01*
X16703672Y-11101610D01*
X16831864Y-10973418D01*
X16928316Y-10819914D01*
X16965419Y-10713882D01*
X24170536Y-10713882D01*
X24190832Y-10894024D01*
X24250709Y-11065143D01*
X24250710Y-11065146D01*
X24250711Y-11065147D01*
X24347163Y-11218651D01*
X24475355Y-11346843D01*
X24628859Y-11443295D01*
X24799976Y-11503172D01*
X24799979Y-11503172D01*
X24799981Y-11503173D01*
X24890926Y-11513419D01*
X24934937Y-11518378D01*
X24934940Y-11518379D01*
X25025311Y-11518379D01*
X25025314Y-11518379D01*
X25025315Y-11518378D01*
X25092794Y-11510775D01*
X25160272Y-11503173D01*
X25160273Y-11503172D01*
X25160278Y-11503172D01*
X25331395Y-11443295D01*
X25484899Y-11346843D01*
X25613091Y-11218651D01*
X25709543Y-11065147D01*
X25769420Y-10894030D01*
X25770011Y-10888786D01*
X25789718Y-10713882D01*
X25789718Y-10713875D01*
X25769421Y-10533733D01*
X25769420Y-10533731D01*
X25769420Y-10533728D01*
X25709543Y-10362611D01*
X25613091Y-10209107D01*
X25484899Y-10080915D01*
X25390884Y-10021842D01*
X25331394Y-9984462D01*
X25331391Y-9984461D01*
X25160272Y-9924584D01*
X25025317Y-9909379D01*
X25025311Y-9909379D01*
X24934943Y-9909379D01*
X24934936Y-9909379D01*
X24799981Y-9924584D01*
X24628862Y-9984461D01*
X24628859Y-9984462D01*
X24475354Y-10080915D01*
X24347163Y-10209106D01*
X24250710Y-10362611D01*
X24250709Y-10362614D01*
X24190832Y-10533733D01*
X24170536Y-10713875D01*
X24170536Y-10713882D01*
X16965419Y-10713882D01*
X16988193Y-10648797D01*
X16990971Y-10624144D01*
X17008491Y-10468649D01*
X17008491Y-10468642D01*
X16988194Y-10288500D01*
X16988193Y-10288498D01*
X16988193Y-10288495D01*
X16928316Y-10117378D01*
X16831864Y-9963874D01*
X16703672Y-9835682D01*
X16550167Y-9739229D01*
X16550164Y-9739228D01*
X16379045Y-9679351D01*
X16244090Y-9664146D01*
X16244084Y-9664146D01*
X16153716Y-9664146D01*
X16153709Y-9664146D01*
X16018754Y-9679351D01*
X15847635Y-9739228D01*
X15847632Y-9739229D01*
X15694127Y-9835682D01*
X15565936Y-9963873D01*
X15469483Y-10117378D01*
X15469482Y-10117381D01*
X15409605Y-10288500D01*
X15389309Y-10468642D01*
X15389309Y-10468649D01*
X5062860Y-10468649D01*
X5220610Y-10395089D01*
X5816198Y-10073950D01*
X6392106Y-9718725D01*
X6946385Y-9330615D01*
X7477160Y-8910932D01*
X7982634Y-8461098D01*
X8461098Y-7982634D01*
X8890605Y-7500001D01*
X11131144Y-7500001D01*
X11150068Y-7764602D01*
X11206453Y-8023799D01*
X11299162Y-8272361D01*
X11426287Y-8505173D01*
X11426292Y-8505181D01*
X11585256Y-8717533D01*
X11585272Y-8717551D01*
X11772829Y-8905108D01*
X11772847Y-8905124D01*
X11985199Y-9064088D01*
X11985207Y-9064093D01*
X12218020Y-9191218D01*
X12218019Y-9191218D01*
X12218023Y-9191219D01*
X12218026Y-9191221D01*
X12466573Y-9283925D01*
X12466579Y-9283926D01*
X12466581Y-9283927D01*
X12725778Y-9340312D01*
X12725780Y-9340312D01*
X12725784Y-9340313D01*
X12960921Y-9357130D01*
X12990380Y-9359237D01*
X12990381Y-9359237D01*
X12990382Y-9359237D01*
X13016889Y-9357341D01*
X13254978Y-9340313D01*
X13514189Y-9283925D01*
X13762736Y-9191221D01*
X13762740Y-9191218D01*
X13762742Y-9191218D01*
X13879148Y-9127655D01*
X13995560Y-9064090D01*
X14207922Y-8905118D01*
X14395499Y-8717541D01*
X14554471Y-8505179D01*
X14681602Y-8272355D01*
X14774306Y-8023808D01*
X14830694Y-7764597D01*
X14849618Y-7500000D01*
X14847984Y-7477160D01*
X14839986Y-7365321D01*
X14830694Y-7235403D01*
X14774306Y-6976192D01*
X14681602Y-6727645D01*
X14681600Y-6727642D01*
X14681599Y-6727638D01*
X14554474Y-6494826D01*
X14554469Y-6494818D01*
X14395505Y-6282466D01*
X14395489Y-6282448D01*
X14207932Y-6094891D01*
X14207914Y-6094875D01*
X13995562Y-5935911D01*
X13995554Y-5935906D01*
X13762741Y-5808781D01*
X13762742Y-5808781D01*
X13663317Y-5771697D01*
X13514189Y-5716075D01*
X13514186Y-5716074D01*
X13514180Y-5716072D01*
X13254983Y-5659687D01*
X12990382Y-5640763D01*
X12990380Y-5640763D01*
X12725778Y-5659687D01*
X12466581Y-5716072D01*
X12218019Y-5808781D01*
X11985207Y-5935906D01*
X11985199Y-5935911D01*
X11772847Y-6094875D01*
X11772829Y-6094891D01*
X11585272Y-6282448D01*
X11585256Y-6282466D01*
X11426292Y-6494818D01*
X11426287Y-6494826D01*
X11299162Y-6727638D01*
X11206453Y-6976200D01*
X11150068Y-7235397D01*
X11131144Y-7499998D01*
X11131144Y-7500001D01*
X8890605Y-7500001D01*
X8910932Y-7477160D01*
X9330615Y-6946385D01*
X9718725Y-6392106D01*
X10073950Y-5816198D01*
X10395089Y-5220610D01*
X10681053Y-4607357D01*
X10930877Y-3978514D01*
X10986716Y-3810001D01*
X24413318Y-3810001D01*
X24433955Y-3966760D01*
X24433956Y-3966762D01*
X24467383Y-4047463D01*
X24494464Y-4112841D01*
X24590718Y-4238282D01*
X24716159Y-4334536D01*
X24862238Y-4395044D01*
X24940619Y-4405363D01*
X25018999Y-4415682D01*
X25019000Y-4415682D01*
X25019001Y-4415682D01*
X25071254Y-4408802D01*
X25175762Y-4395044D01*
X25321841Y-4334536D01*
X25447282Y-4238282D01*
X25543536Y-4112841D01*
X25604044Y-3966762D01*
X25624682Y-3810000D01*
X25604044Y-3653238D01*
X25543536Y-3507159D01*
X25447282Y-3381718D01*
X25321841Y-3285464D01*
X25175762Y-3224956D01*
X25175760Y-3224955D01*
X25019001Y-3204318D01*
X25018999Y-3204318D01*
X24862239Y-3224955D01*
X24862237Y-3224956D01*
X24716160Y-3285463D01*
X24590718Y-3381718D01*
X24494463Y-3507160D01*
X24433956Y-3653237D01*
X24433955Y-3653239D01*
X24413318Y-3809998D01*
X24413318Y-3810001D01*
X10986716Y-3810001D01*
X11143713Y-3336209D01*
X11220938Y-3048001D01*
X12856318Y-3048001D01*
X12876955Y-3204760D01*
X12876956Y-3204762D01*
X12910383Y-3285463D01*
X12937464Y-3350841D01*
X13033718Y-3476282D01*
X13159159Y-3572536D01*
X13305238Y-3633044D01*
X13383618Y-3643363D01*
X13461999Y-3653682D01*
X13462000Y-3653682D01*
X13462001Y-3653682D01*
X13514254Y-3646802D01*
X13618762Y-3633044D01*
X13764841Y-3572536D01*
X13890282Y-3476282D01*
X13986536Y-3350841D01*
X14047044Y-3204762D01*
X14067682Y-3048001D01*
X17936318Y-3048001D01*
X17956955Y-3204760D01*
X17956956Y-3204762D01*
X17990383Y-3285463D01*
X18017464Y-3350841D01*
X18113718Y-3476282D01*
X18239159Y-3572536D01*
X18385238Y-3633044D01*
X18463619Y-3643363D01*
X18541999Y-3653682D01*
X18542000Y-3653682D01*
X18542001Y-3653682D01*
X18594254Y-3646802D01*
X18698762Y-3633044D01*
X18844841Y-3572536D01*
X18970282Y-3476282D01*
X19066536Y-3350841D01*
X19127044Y-3204762D01*
X19147682Y-3048000D01*
X19142320Y-3007274D01*
X19127044Y-2891239D01*
X19127044Y-2891238D01*
X19066536Y-2745159D01*
X18970282Y-2619718D01*
X18844841Y-2523464D01*
X18698762Y-2462956D01*
X18698760Y-2462955D01*
X18542001Y-2442318D01*
X18541999Y-2442318D01*
X18385239Y-2462955D01*
X18385237Y-2462956D01*
X18239160Y-2523463D01*
X18113718Y-2619718D01*
X18017463Y-2745160D01*
X17956956Y-2891237D01*
X17956955Y-2891239D01*
X17936318Y-3047998D01*
X17936318Y-3048001D01*
X14067682Y-3048001D01*
X14067682Y-3048000D01*
X14062320Y-3007274D01*
X14047044Y-2891239D01*
X14047044Y-2891238D01*
X13986536Y-2745159D01*
X13890282Y-2619718D01*
X13764841Y-2523464D01*
X13618762Y-2462956D01*
X13618760Y-2462955D01*
X13462001Y-2442318D01*
X13461999Y-2442318D01*
X13305239Y-2462955D01*
X13305237Y-2462956D01*
X13159160Y-2523463D01*
X13033718Y-2619718D01*
X12937463Y-2745160D01*
X12876956Y-2891237D01*
X12876955Y-2891239D01*
X12856318Y-3047998D01*
X12856318Y-3048001D01*
X11220938Y-3048001D01*
X11318843Y-2682615D01*
X11455674Y-2019944D01*
X11553742Y-1350439D01*
X11612716Y-676364D01*
X11615066Y-595586D01*
X14103489Y-595586D01*
X14113369Y-752628D01*
X14113369Y-752631D01*
X14161995Y-902283D01*
X14246310Y-1035143D01*
X14361014Y-1142857D01*
X14361022Y-1142863D01*
X14437857Y-1185103D01*
X14498910Y-1218667D01*
X14651322Y-1257800D01*
X14769181Y-1257800D01*
X14769183Y-1257800D01*
X14769188Y-1257799D01*
X14769192Y-1257799D01*
X14781868Y-1256197D01*
X14886115Y-1243028D01*
X15032421Y-1185102D01*
X15159724Y-1092610D01*
X15260027Y-971365D01*
X15260031Y-971355D01*
X15263233Y-966312D01*
X15315774Y-920255D01*
X15384875Y-909916D01*
X15448596Y-938577D01*
X15472628Y-966311D01*
X15516310Y-1035143D01*
X15631014Y-1142857D01*
X15631022Y-1142863D01*
X15707857Y-1185103D01*
X15768910Y-1218667D01*
X15921322Y-1257800D01*
X16039181Y-1257800D01*
X16039183Y-1257800D01*
X16039188Y-1257799D01*
X16039192Y-1257799D01*
X16051868Y-1256197D01*
X16156115Y-1243028D01*
X16302421Y-1185102D01*
X16429724Y-1092610D01*
X16530027Y-971365D01*
X16530031Y-971355D01*
X16533233Y-966312D01*
X16585774Y-920255D01*
X16654875Y-909916D01*
X16718596Y-938577D01*
X16742628Y-966311D01*
X16786310Y-1035143D01*
X16901014Y-1142857D01*
X16901022Y-1142863D01*
X16977857Y-1185103D01*
X17038910Y-1218667D01*
X17191322Y-1257800D01*
X17309181Y-1257800D01*
X17309183Y-1257800D01*
X17309188Y-1257799D01*
X17309192Y-1257799D01*
X17321868Y-1256197D01*
X17426115Y-1243028D01*
X17572421Y-1185102D01*
X17699724Y-1092610D01*
X17800027Y-971365D01*
X17826116Y-915924D01*
X18513682Y-915924D01*
X18533978Y-1096066D01*
X18593855Y-1267185D01*
X18593856Y-1267188D01*
X18593857Y-1267189D01*
X18690309Y-1420693D01*
X18818501Y-1548885D01*
X18972005Y-1645337D01*
X19143122Y-1705214D01*
X19143125Y-1705214D01*
X19143127Y-1705215D01*
X19234072Y-1715461D01*
X19278083Y-1720420D01*
X19278086Y-1720421D01*
X19368457Y-1720421D01*
X19368460Y-1720421D01*
X19368461Y-1720420D01*
X19435940Y-1712817D01*
X19503418Y-1705215D01*
X19503419Y-1705214D01*
X19503424Y-1705214D01*
X19674541Y-1645337D01*
X19828045Y-1548885D01*
X19956237Y-1420693D01*
X20050922Y-1270001D01*
X20603318Y-1270001D01*
X20623955Y-1426760D01*
X20623956Y-1426762D01*
X20684464Y-1572841D01*
X20780718Y-1698282D01*
X20906159Y-1794536D01*
X21052238Y-1855044D01*
X21112184Y-1862936D01*
X21208999Y-1875682D01*
X21209000Y-1875682D01*
X21209001Y-1875682D01*
X21261254Y-1868802D01*
X21365762Y-1855044D01*
X21511841Y-1794536D01*
X21637282Y-1698282D01*
X21733536Y-1572841D01*
X21794044Y-1426762D01*
X21814682Y-1270000D01*
X21814311Y-1267185D01*
X21794044Y-1113239D01*
X21794044Y-1113238D01*
X21733536Y-967159D01*
X21637282Y-841718D01*
X21511841Y-745464D01*
X21365762Y-684956D01*
X21365760Y-684955D01*
X21209001Y-664318D01*
X21208999Y-664318D01*
X21052239Y-684955D01*
X21052237Y-684956D01*
X20906160Y-745463D01*
X20780718Y-841718D01*
X20684463Y-967160D01*
X20623956Y-1113237D01*
X20623955Y-1113239D01*
X20603318Y-1269998D01*
X20603318Y-1270001D01*
X20050922Y-1270001D01*
X20052689Y-1267189D01*
X20112566Y-1096072D01*
X20112956Y-1092610D01*
X20132864Y-915924D01*
X20132864Y-915917D01*
X20112567Y-735775D01*
X20112566Y-735773D01*
X20112566Y-735770D01*
X20052689Y-564653D01*
X19956237Y-411149D01*
X19828045Y-282957D01*
X19751492Y-234856D01*
X19674540Y-186504D01*
X19674537Y-186503D01*
X19504881Y-127138D01*
X19503424Y-126628D01*
X19503423Y-126627D01*
X19503418Y-126626D01*
X19368463Y-111421D01*
X19368457Y-111421D01*
X19278089Y-111421D01*
X19278082Y-111421D01*
X19143127Y-126626D01*
X18972008Y-186503D01*
X18972005Y-186504D01*
X18818500Y-282957D01*
X18690309Y-411148D01*
X18593856Y-564653D01*
X18593855Y-564656D01*
X18533978Y-735775D01*
X18513682Y-915917D01*
X18513682Y-915924D01*
X17826116Y-915924D01*
X17867026Y-828985D01*
X17896511Y-674417D01*
X17886631Y-517371D01*
X17838005Y-367717D01*
X17753690Y-234857D01*
X17702198Y-186503D01*
X17638985Y-127142D01*
X17638980Y-127138D01*
X17606179Y-109106D01*
X17556915Y-59559D01*
X17544138Y-1D01*
X26318318Y-1D01*
X26338955Y-156760D01*
X26338956Y-156762D01*
X26397722Y-298637D01*
X26399464Y-302841D01*
X26495718Y-428282D01*
X26621159Y-524536D01*
X26767238Y-585044D01*
X26845618Y-595363D01*
X26923999Y-605682D01*
X26924000Y-605682D01*
X26924001Y-605682D01*
X27000687Y-595586D01*
X27080762Y-585044D01*
X27226841Y-524536D01*
X27352282Y-428282D01*
X27448536Y-302841D01*
X27509044Y-156762D01*
X27528529Y-8756D01*
X27529682Y-1D01*
X27529682Y1D01*
X27519920Y74151D01*
X27509044Y156762D01*
X27448536Y302841D01*
X27352282Y428282D01*
X27226841Y524536D01*
X27080762Y585044D01*
X26976254Y598802D01*
X26924001Y605682D01*
X26923999Y605682D01*
X26847313Y595586D01*
X26767238Y585044D01*
X26621159Y524536D01*
X26495718Y428282D01*
X26399464Y302841D01*
X26399463Y302839D01*
X26338956Y156762D01*
X26338955Y156760D01*
X26318318Y1D01*
X26318318Y-1D01*
X17544138Y-1D01*
X17542259Y8756D01*
X17566863Y74150D01*
X17593027Y99869D01*
X17699724Y177390D01*
X17800027Y298635D01*
X17867026Y441015D01*
X17896511Y595583D01*
X17886631Y752629D01*
X17838005Y902283D01*
X17753690Y1035143D01*
X17638982Y1142860D01*
X17614549Y1156292D01*
X17562144Y1185102D01*
X17501090Y1218667D01*
X17348678Y1257800D01*
X17348674Y1257800D01*
X17230819Y1257800D01*
X17230817Y1257800D01*
X17230813Y1257799D01*
X17230807Y1257799D01*
X17206437Y1254720D01*
X17113885Y1243028D01*
X17113880Y1243026D01*
X17113879Y1243026D01*
X17052358Y1218668D01*
X16967579Y1185102D01*
X16840276Y1092610D01*
X16739973Y971365D01*
X16739973Y971364D01*
X16739970Y971360D01*
X16736762Y966306D01*
X16684218Y920252D01*
X16615117Y909917D01*
X16551397Y938582D01*
X16527374Y966306D01*
X16483690Y1035143D01*
X16368982Y1142860D01*
X16344549Y1156292D01*
X16292144Y1185102D01*
X16231090Y1218667D01*
X16078678Y1257800D01*
X16078674Y1257800D01*
X15960819Y1257800D01*
X15960817Y1257800D01*
X15960813Y1257799D01*
X15960807Y1257799D01*
X15936437Y1254720D01*
X15843885Y1243028D01*
X15843880Y1243026D01*
X15843879Y1243026D01*
X15782358Y1218668D01*
X15697579Y1185102D01*
X15570276Y1092610D01*
X15469973Y971365D01*
X15469973Y971364D01*
X15469970Y971360D01*
X15466762Y966306D01*
X15414218Y920252D01*
X15345117Y909917D01*
X15281397Y938582D01*
X15257374Y966306D01*
X15213690Y1035143D01*
X15098982Y1142860D01*
X15074549Y1156292D01*
X15022144Y1185102D01*
X14961090Y1218667D01*
X14808678Y1257800D01*
X14808674Y1257800D01*
X14690819Y1257800D01*
X14690817Y1257800D01*
X14690813Y1257799D01*
X14690807Y1257799D01*
X14666437Y1254720D01*
X14573885Y1243028D01*
X14573880Y1243026D01*
X14573879Y1243026D01*
X14512358Y1218668D01*
X14427579Y1185102D01*
X14300276Y1092610D01*
X14223219Y999464D01*
X14199971Y971362D01*
X14171057Y909916D01*
X14132974Y828985D01*
X14103489Y674417D01*
X14103489Y674413D01*
X14113369Y517371D01*
X14113369Y517368D01*
X14161995Y367716D01*
X14246310Y234856D01*
X14361014Y127142D01*
X14361022Y127136D01*
X14393821Y109105D01*
X14443084Y59558D01*
X14457740Y-8757D01*
X14433135Y-74151D01*
X14406972Y-99869D01*
X14300276Y-177390D01*
X14300275Y-177391D01*
X14199971Y-298637D01*
X14132974Y-441014D01*
X14132974Y-441015D01*
X14103489Y-595583D01*
X14103489Y-595585D01*
X14103489Y-595586D01*
X11615066Y-595586D01*
X11632396Y0D01*
X11612716Y676364D01*
X11553742Y1350439D01*
X11528319Y1523998D01*
X19333318Y1523998D01*
X19353955Y1367239D01*
X19353956Y1367237D01*
X19414463Y1221160D01*
X19510718Y1095718D01*
X19636160Y999463D01*
X19782237Y938956D01*
X19782239Y938955D01*
X19938999Y918318D01*
X19939000Y918318D01*
X19939001Y918318D01*
X20095760Y938955D01*
X20095762Y938956D01*
X20241839Y999463D01*
X20241841Y999464D01*
X20367282Y1095718D01*
X20463536Y1221159D01*
X20524044Y1367238D01*
X20544682Y1524000D01*
X20544673Y1524065D01*
X20524044Y1680760D01*
X20524044Y1680762D01*
X20463536Y1826841D01*
X20403564Y1904998D01*
X23778318Y1904998D01*
X23798955Y1748239D01*
X23798956Y1748237D01*
X23859463Y1602160D01*
X23955718Y1476718D01*
X24081160Y1380463D01*
X24227237Y1319956D01*
X24227239Y1319955D01*
X24383999Y1299318D01*
X24384000Y1299318D01*
X24384001Y1299318D01*
X24540760Y1319955D01*
X24540762Y1319956D01*
X24686839Y1380463D01*
X24686841Y1380464D01*
X24812282Y1476718D01*
X24908536Y1602159D01*
X24969044Y1748238D01*
X24989682Y1905000D01*
X24969044Y2061762D01*
X24908536Y2207841D01*
X24812282Y2333282D01*
X24686841Y2429536D01*
X24540762Y2490044D01*
X24436253Y2503802D01*
X24384001Y2510682D01*
X24383999Y2510682D01*
X24305619Y2500363D01*
X24227238Y2490044D01*
X24081159Y2429536D01*
X23955718Y2333282D01*
X23859464Y2207841D01*
X23859463Y2207839D01*
X23798956Y2061762D01*
X23798955Y2061760D01*
X23778318Y1905001D01*
X23778318Y1904998D01*
X20403564Y1904998D01*
X20367282Y1952282D01*
X20241841Y2048536D01*
X20095762Y2109044D01*
X19991254Y2122802D01*
X19939001Y2129682D01*
X19938999Y2129682D01*
X19860619Y2119363D01*
X19782238Y2109044D01*
X19636159Y2048536D01*
X19510718Y1952282D01*
X19414464Y1826841D01*
X19414463Y1826839D01*
X19353956Y1680762D01*
X19353955Y1680760D01*
X19333318Y1524001D01*
X19333318Y1523998D01*
X11528319Y1523998D01*
X11455674Y2019944D01*
X11318843Y2682615D01*
X11264462Y2885564D01*
X11266125Y2955413D01*
X11296556Y3005338D01*
X11750899Y3459681D01*
X11812222Y3493166D01*
X11838580Y3496000D01*
X15170877Y3496000D01*
X15237916Y3476315D01*
X15269253Y3447486D01*
X15319716Y3381719D01*
X15445160Y3285463D01*
X15591237Y3224956D01*
X15591239Y3224955D01*
X15747999Y3204318D01*
X15748000Y3204318D01*
X15748001Y3204318D01*
X15904760Y3224955D01*
X15904765Y3224957D01*
X15989671Y3260126D01*
X16059140Y3267595D01*
X16121619Y3236320D01*
X16157271Y3176231D01*
X16160062Y3161751D01*
X16178956Y3018238D01*
X16178956Y3018237D01*
X16239463Y2872160D01*
X16335718Y2746718D01*
X16461160Y2650463D01*
X16607237Y2589956D01*
X16607239Y2589955D01*
X16763999Y2569318D01*
X16764000Y2569318D01*
X16764001Y2569318D01*
X16920760Y2589955D01*
X16920762Y2589956D01*
X17066839Y2650463D01*
X17066841Y2650464D01*
X17192282Y2746718D01*
X17288536Y2872159D01*
X17349044Y3018238D01*
X17357468Y3082227D01*
X17369682Y3174998D01*
X17369682Y3175001D01*
X17358180Y3262369D01*
X26241088Y3262369D01*
X26261384Y3082227D01*
X26321261Y2911108D01*
X26321262Y2911105D01*
X26417715Y2757600D01*
X26545906Y2629409D01*
X26699411Y2532956D01*
X26699414Y2532955D01*
X26870533Y2473078D01*
X27005488Y2457873D01*
X27095863Y2457873D01*
X27095869Y2457873D01*
X27230824Y2473078D01*
X27401943Y2532955D01*
X27401946Y2532956D01*
X27555451Y2629409D01*
X27683642Y2757600D01*
X27780095Y2911105D01*
X27780096Y2911108D01*
X27795599Y2955413D01*
X27839972Y3082222D01*
X27843116Y3110124D01*
X27860270Y3262369D01*
X27860270Y3262376D01*
X27839973Y3442518D01*
X27839972Y3442519D01*
X27839972Y3442524D01*
X27780095Y3613641D01*
X27683643Y3767145D01*
X27555451Y3895337D01*
X27401947Y3991789D01*
X27230830Y4051666D01*
X27230825Y4051666D01*
X27230824Y4051667D01*
X27163346Y4059269D01*
X27095866Y4066872D01*
X27095865Y4066873D01*
X27095863Y4066873D01*
X27005495Y4066873D01*
X27005493Y4066873D01*
X27005490Y4066872D01*
X26961478Y4061913D01*
X26870533Y4051667D01*
X26870531Y4051666D01*
X26870528Y4051666D01*
X26699411Y3991789D01*
X26545907Y3895337D01*
X26545906Y3895336D01*
X26417715Y3767145D01*
X26321262Y3613640D01*
X26321261Y3613637D01*
X26261384Y3442518D01*
X26241088Y3262376D01*
X26241088Y3262369D01*
X17358180Y3262369D01*
X17355139Y3285464D01*
X17349044Y3331762D01*
X17288536Y3477841D01*
X17192282Y3603282D01*
X17066841Y3699536D01*
X16920762Y3760044D01*
X16816253Y3773802D01*
X16764001Y3780682D01*
X16763999Y3780682D01*
X16695569Y3771673D01*
X16607238Y3760044D01*
X16522327Y3724872D01*
X16452860Y3717404D01*
X16390380Y3748679D01*
X16354728Y3808768D01*
X16351939Y3823236D01*
X16333044Y3966762D01*
X16272536Y4112841D01*
X16176282Y4238282D01*
X16050841Y4334536D01*
X15904762Y4395044D01*
X15800254Y4408802D01*
X15748001Y4415682D01*
X15747999Y4415682D01*
X15669618Y4405363D01*
X15591238Y4395044D01*
X15445159Y4334536D01*
X15319718Y4238282D01*
X15319717Y4238281D01*
X15319716Y4238280D01*
X15269253Y4172514D01*
X15212825Y4131311D01*
X15170877Y4124000D01*
X11673575Y4124000D01*
X11668174Y4124235D01*
X11629366Y4127631D01*
X11591726Y4117544D01*
X11586470Y4116379D01*
X11548104Y4109615D01*
X11548102Y4109614D01*
X11548101Y4109614D01*
X11541628Y4107258D01*
X11528666Y4101890D01*
X11522408Y4098971D01*
X11522406Y4098971D01*
X11522405Y4098970D01*
X11490498Y4076629D01*
X11485934Y4073722D01*
X11474072Y4066873D01*
X11452206Y4054249D01*
X11452204Y4054246D01*
X11452203Y4054246D01*
X11427159Y4024400D01*
X11423504Y4020412D01*
X11185211Y3782119D01*
X11123888Y3748634D01*
X11054196Y3753618D01*
X10998263Y3795490D01*
X10979824Y3830797D01*
X10930877Y3978514D01*
X10681053Y4607357D01*
X10460657Y5079998D01*
X24413318Y5079998D01*
X24433955Y4923239D01*
X24433956Y4923237D01*
X24494463Y4777160D01*
X24590718Y4651718D01*
X24716160Y4555463D01*
X24862237Y4494956D01*
X24862239Y4494955D01*
X25018999Y4474318D01*
X25019000Y4474318D01*
X25019001Y4474318D01*
X25175760Y4494955D01*
X25175762Y4494956D01*
X25321839Y4555463D01*
X25321841Y4555464D01*
X25447282Y4651718D01*
X25543536Y4777159D01*
X25604044Y4923238D01*
X25624682Y5080000D01*
X25604044Y5236762D01*
X25543536Y5382841D01*
X25447282Y5508282D01*
X25321841Y5604536D01*
X25175762Y5665044D01*
X25071254Y5678802D01*
X25019001Y5685682D01*
X25018999Y5685682D01*
X24940618Y5675363D01*
X24862238Y5665044D01*
X24716159Y5604536D01*
X24590718Y5508282D01*
X24494464Y5382841D01*
X24494463Y5382839D01*
X24433956Y5236762D01*
X24433955Y5236760D01*
X24413318Y5080001D01*
X24413318Y5079998D01*
X10460657Y5079998D01*
X10395089Y5220610D01*
X10073950Y5816198D01*
X9718725Y6392106D01*
X9330615Y6946385D01*
X8910932Y7477160D01*
X8461098Y7982634D01*
X8267238Y8176492D01*
X8267235Y8176497D01*
X8257033Y8186699D01*
X8257033Y8186700D01*
X8221867Y8221867D01*
X8186700Y8257033D01*
X8186699Y8257033D01*
X8176497Y8267235D01*
X8176492Y8267238D01*
X7982634Y8461098D01*
X7477160Y8910932D01*
X7466674Y8919223D01*
X16443130Y8919223D01*
X16463426Y8739081D01*
X16523303Y8567962D01*
X16523304Y8567959D01*
X16619757Y8414454D01*
X16747948Y8286263D01*
X16901453Y8189810D01*
X16901456Y8189809D01*
X17072575Y8129932D01*
X17207530Y8114727D01*
X17297905Y8114727D01*
X17297911Y8114727D01*
X17432866Y8129932D01*
X17603985Y8189809D01*
X17603988Y8189810D01*
X17757493Y8286263D01*
X17885684Y8414454D01*
X17914981Y8461079D01*
X17982137Y8567959D01*
X18042014Y8739076D01*
X18042015Y8739081D01*
X18062312Y8919223D01*
X18062312Y8919230D01*
X18042015Y9099372D01*
X18042014Y9099373D01*
X18042014Y9099378D01*
X17982137Y9270495D01*
X17885685Y9423999D01*
X17757493Y9552191D01*
X17603989Y9648643D01*
X17432872Y9708520D01*
X17432867Y9708520D01*
X17432866Y9708521D01*
X17365388Y9716123D01*
X17297908Y9723726D01*
X17297907Y9723727D01*
X17297905Y9723727D01*
X17207537Y9723727D01*
X17207535Y9723727D01*
X17207532Y9723726D01*
X17163520Y9718767D01*
X17072575Y9708521D01*
X17072573Y9708520D01*
X17072570Y9708520D01*
X16901453Y9648643D01*
X16747949Y9552191D01*
X16747948Y9552190D01*
X16619757Y9423999D01*
X16523304Y9270494D01*
X16523303Y9270491D01*
X16463426Y9099372D01*
X16443130Y8919230D01*
X16443130Y8919223D01*
X7466674Y8919223D01*
X6946385Y9330615D01*
X6392106Y9718725D01*
X5816198Y10073950D01*
X5220610Y10395089D01*
X4607357Y10681053D01*
X3978514Y10930877D01*
X3336209Y11143713D01*
X2682615Y11318843D01*
X2019944Y11455674D01*
X1798282Y11488142D01*
X1734807Y11517334D01*
X1697188Y11576212D01*
X1697373Y11646081D01*
X1728576Y11698513D01*
X6431459Y16401396D01*
X9732455Y16401396D01*
X9752751Y16221254D01*
X9812628Y16050135D01*
X9812629Y16050132D01*
X9909082Y15896627D01*
X10037273Y15768436D01*
X10190778Y15671983D01*
X10190781Y15671982D01*
X10361900Y15612105D01*
X10496855Y15596900D01*
X10587230Y15596900D01*
X10587236Y15596900D01*
X10722191Y15612105D01*
X10893310Y15671982D01*
X10893317Y15671985D01*
X10947353Y15705938D01*
X11014590Y15724938D01*
X11081425Y15704570D01*
X11126638Y15651301D01*
X11127885Y15648397D01*
X11159463Y15572160D01*
X11255718Y15446718D01*
X11381160Y15350463D01*
X11527237Y15289956D01*
X11527239Y15289955D01*
X11683999Y15269318D01*
X11684000Y15269318D01*
X11684001Y15269318D01*
X11840760Y15289955D01*
X11840762Y15289956D01*
X11986839Y15350463D01*
X11986841Y15350464D01*
X12112282Y15446718D01*
X12208536Y15572159D01*
X12269044Y15718238D01*
X12280949Y15808668D01*
X12289682Y15874998D01*
X12289682Y15875001D01*
X12269044Y16031760D01*
X12269044Y16031762D01*
X12208536Y16177841D01*
X12112282Y16303282D01*
X11986841Y16399536D01*
X11982351Y16401396D01*
X21046163Y16401396D01*
X21066459Y16221254D01*
X21126336Y16050135D01*
X21126337Y16050132D01*
X21222790Y15896627D01*
X21350981Y15768436D01*
X21504486Y15671983D01*
X21504489Y15671982D01*
X21675608Y15612105D01*
X21810563Y15596900D01*
X21900938Y15596900D01*
X21900944Y15596900D01*
X22035899Y15612105D01*
X22207018Y15671982D01*
X22207021Y15671983D01*
X22360526Y15768436D01*
X22488717Y15896627D01*
X22585170Y16050132D01*
X22585171Y16050135D01*
X22625447Y16165237D01*
X22645047Y16221249D01*
X22654290Y16303282D01*
X22665345Y16401396D01*
X22665345Y16401403D01*
X22645048Y16581545D01*
X22645047Y16581548D01*
X22645047Y16581551D01*
X22585170Y16752668D01*
X22488718Y16906172D01*
X22360526Y17034364D01*
X22207022Y17130816D01*
X22035905Y17190693D01*
X22035900Y17190693D01*
X22035899Y17190694D01*
X21968390Y17198300D01*
X21900941Y17205899D01*
X21900940Y17205900D01*
X21900938Y17205900D01*
X21810570Y17205900D01*
X21810568Y17205900D01*
X21810565Y17205899D01*
X21766553Y17200940D01*
X21675608Y17190694D01*
X21675606Y17190693D01*
X21675603Y17190693D01*
X21504486Y17130816D01*
X21350982Y17034364D01*
X21350981Y17034363D01*
X21222790Y16906172D01*
X21126337Y16752667D01*
X21126336Y16752664D01*
X21066459Y16581545D01*
X21046163Y16401403D01*
X21046163Y16401396D01*
X11982351Y16401396D01*
X11840762Y16460044D01*
X11728724Y16474794D01*
X11684001Y16480682D01*
X11683999Y16480682D01*
X11639276Y16474794D01*
X11527238Y16460044D01*
X11505376Y16450988D01*
X11435911Y16443520D01*
X11373431Y16474794D01*
X11337778Y16534883D01*
X11334707Y16551656D01*
X11331339Y16581551D01*
X11271462Y16752668D01*
X11175010Y16906172D01*
X11046818Y17034364D01*
X10893314Y17130816D01*
X10722197Y17190693D01*
X10722192Y17190693D01*
X10722191Y17190694D01*
X10654682Y17198300D01*
X10587233Y17205899D01*
X10587232Y17205900D01*
X10587230Y17205900D01*
X10496862Y17205900D01*
X10496860Y17205900D01*
X10496857Y17205899D01*
X10452845Y17200940D01*
X10361900Y17190694D01*
X10361898Y17190693D01*
X10361895Y17190693D01*
X10190778Y17130816D01*
X10037274Y17034364D01*
X10037273Y17034363D01*
X9909082Y16906172D01*
X9812629Y16752667D01*
X9812628Y16752664D01*
X9752751Y16581545D01*
X9732455Y16401403D01*
X9732455Y16401396D01*
X6431459Y16401396D01*
X7687943Y17657880D01*
X7749266Y17691365D01*
X7791809Y17693138D01*
X7873999Y17682318D01*
X7874000Y17682318D01*
X7874001Y17682318D01*
X8030760Y17702955D01*
X8030762Y17702956D01*
X8176839Y17763463D01*
X8176841Y17763464D01*
X8302282Y17859718D01*
X8398536Y17985159D01*
X8459044Y18131238D01*
X8471801Y18228134D01*
X10878617Y18228134D01*
X10890825Y18198661D01*
X10987001Y18073323D01*
X11112339Y17977147D01*
X11258291Y17916693D01*
X11258295Y17916692D01*
X11414925Y17896071D01*
X11414927Y17896071D01*
X11446555Y17900234D01*
X11326536Y18348154D01*
X10878617Y18228134D01*
X8471801Y18228134D01*
X8479682Y18288000D01*
X8459044Y18444762D01*
X8450471Y18465458D01*
X11304776Y18465458D01*
X11346849Y18407548D01*
X11397478Y18391098D01*
X11432374Y18391098D01*
X11483003Y18407548D01*
X11486861Y18412858D01*
X11568018Y18412858D01*
X11688038Y17964939D01*
X11717511Y17977147D01*
X11842850Y18073323D01*
X11939026Y18198661D01*
X11999480Y18344613D01*
X11999481Y18344617D01*
X12020102Y18501247D01*
X12015937Y18532877D01*
X11568018Y18412858D01*
X11486861Y18412858D01*
X11525076Y18465458D01*
X11525076Y18537038D01*
X11483003Y18594948D01*
X11432374Y18611398D01*
X11397478Y18611398D01*
X11346849Y18594948D01*
X11304776Y18537038D01*
X11304776Y18465458D01*
X8450471Y18465458D01*
X8398536Y18590841D01*
X8302282Y18716282D01*
X8176841Y18812536D01*
X8054687Y18863134D01*
X9778765Y18863134D01*
X9790973Y18833661D01*
X9887149Y18708323D01*
X10012487Y18612147D01*
X10158439Y18551693D01*
X10158443Y18551692D01*
X10315073Y18531071D01*
X10315075Y18531071D01*
X10346703Y18535234D01*
X10226684Y18983154D01*
X9778765Y18863134D01*
X8054687Y18863134D01*
X8030762Y18873044D01*
X7926253Y18886802D01*
X7874001Y18893682D01*
X7873999Y18893682D01*
X7795619Y18883363D01*
X7717238Y18873044D01*
X7571159Y18812536D01*
X7445718Y18716282D01*
X7349464Y18590841D01*
X7349463Y18590839D01*
X7288956Y18444762D01*
X7288955Y18444760D01*
X7268318Y18288001D01*
X7268318Y18287998D01*
X7279138Y18205809D01*
X7268372Y18136773D01*
X7243880Y18101943D01*
X789240Y11647303D01*
X727917Y11613818D01*
X690748Y11611457D01*
X676364Y11612716D01*
X0Y11632396D01*
X-676364Y11612716D01*
X-839939Y11598404D01*
X-908437Y11612170D01*
X-938426Y11634251D01*
X-4304175Y15000000D01*
X-1859237Y15000000D01*
X-1840313Y14735403D01*
X-1783925Y14476192D01*
X-1691221Y14227645D01*
X-1691218Y14227638D01*
X-1564093Y13994826D01*
X-1564088Y13994818D01*
X-1405124Y13782466D01*
X-1405108Y13782448D01*
X-1217551Y13594891D01*
X-1217533Y13594875D01*
X-1005181Y13435911D01*
X-1005173Y13435906D01*
X-772360Y13308781D01*
X-772361Y13308781D01*
X-672936Y13271697D01*
X-523808Y13216075D01*
X-523805Y13216074D01*
X-523799Y13216072D01*
X-264602Y13159687D01*
X-1Y13140763D01*
X0Y13140763D01*
X1Y13140763D01*
X264602Y13159687D01*
X523799Y13216072D01*
X523805Y13216074D01*
X523808Y13216075D01*
X672936Y13271697D01*
X772361Y13308781D01*
X1005173Y13435906D01*
X1005181Y13435911D01*
X1217533Y13594875D01*
X1217551Y13594891D01*
X1405108Y13782448D01*
X1405124Y13782466D01*
X1564088Y13994818D01*
X1564093Y13994826D01*
X1691218Y14227638D01*
X1691221Y14227645D01*
X1783925Y14476192D01*
X1840313Y14735403D01*
X1859237Y15000000D01*
X1840313Y15264597D01*
X1834796Y15289956D01*
X1783927Y15523799D01*
X1783926Y15523799D01*
X1783925Y15523808D01*
X1691221Y15772355D01*
X1564090Y16005179D01*
X1405118Y16217541D01*
X1217541Y16405118D01*
X1005179Y16564090D01*
X772360Y16691218D01*
X772359Y16691218D01*
X772355Y16691221D01*
X523808Y16783925D01*
X264597Y16840313D01*
X26508Y16857341D01*
X1Y16859237D01*
X-1Y16859237D01*
X-26508Y16857341D01*
X-264597Y16840313D01*
X-523808Y16783925D01*
X-772355Y16691221D01*
X-772359Y16691218D01*
X-772361Y16691218D01*
X-818676Y16665928D01*
X-1005179Y16564090D01*
X-1217541Y16405118D01*
X-1405118Y16217541D01*
X-1564090Y16005179D01*
X-1691221Y15772355D01*
X-1783925Y15523808D01*
X-1783926Y15523799D01*
X-1783927Y15523799D01*
X-1834796Y15289956D01*
X-1840313Y15264597D01*
X-1859237Y15000000D01*
X-4304175Y15000000D01*
X-8829944Y19525769D01*
X179630Y19525769D01*
X199926Y19345627D01*
X259803Y19174508D01*
X259804Y19174505D01*
X356257Y19021000D01*
X484448Y18892809D01*
X637953Y18796356D01*
X637956Y18796355D01*
X809075Y18736478D01*
X944030Y18721273D01*
X1034405Y18721273D01*
X1034411Y18721273D01*
X1169366Y18736478D01*
X1340485Y18796355D01*
X1340488Y18796356D01*
X1493993Y18892809D01*
X1622184Y19021000D01*
X1622707Y19021831D01*
X1672111Y19100458D01*
X10204924Y19100458D01*
X10246997Y19042548D01*
X10297626Y19026098D01*
X10332522Y19026098D01*
X10383151Y19042548D01*
X10387009Y19047858D01*
X10468166Y19047858D01*
X10588186Y18599939D01*
X10617662Y18612148D01*
X10623750Y18615663D01*
X10691650Y18632135D01*
X10757677Y18609282D01*
X10800867Y18554360D01*
X10809749Y18508275D01*
X10809749Y18501246D01*
X10813912Y18469618D01*
X10813913Y18469617D01*
X11261832Y18589636D01*
X11141813Y19037554D01*
X11141812Y19037554D01*
X11112339Y19025347D01*
X11106248Y19021831D01*
X11038348Y19005361D01*
X10972321Y19028214D01*
X10929132Y19083137D01*
X10925447Y19102259D01*
X11383295Y19102259D01*
X11503315Y18654341D01*
X11951233Y18774360D01*
X11939028Y18803829D01*
X11939023Y18803837D01*
X11842852Y18929171D01*
X11717512Y19025348D01*
X11571560Y19085802D01*
X11571556Y19085803D01*
X11414926Y19106424D01*
X11383295Y19102259D01*
X10925447Y19102259D01*
X10920251Y19129220D01*
X10920251Y19136246D01*
X10916085Y19167877D01*
X10468166Y19047858D01*
X10387009Y19047858D01*
X10425224Y19100458D01*
X10425224Y19172038D01*
X10383151Y19229948D01*
X10332522Y19246398D01*
X10297626Y19246398D01*
X10246997Y19229948D01*
X10204924Y19172038D01*
X10204924Y19100458D01*
X1672111Y19100458D01*
X1694598Y19136246D01*
X9709897Y19136246D01*
X9714060Y19104618D01*
X9714061Y19104617D01*
X10161980Y19224636D01*
X10041961Y19672554D01*
X10041960Y19672554D01*
X10012487Y19660347D01*
X10012483Y19660345D01*
X9887149Y19564172D01*
X9790974Y19438835D01*
X9730519Y19292882D01*
X9730518Y19292878D01*
X9709897Y19136248D01*
X9709897Y19136246D01*
X1694598Y19136246D01*
X1718637Y19174505D01*
X1778514Y19345622D01*
X1778515Y19345627D01*
X1798812Y19525769D01*
X1798812Y19525776D01*
X1778515Y19705918D01*
X1778514Y19705919D01*
X1778514Y19705924D01*
X1767549Y19737259D01*
X10283443Y19737259D01*
X10403463Y19289341D01*
X10851381Y19409360D01*
X10839176Y19438829D01*
X10839171Y19438837D01*
X10743000Y19564171D01*
X10617660Y19660348D01*
X10471708Y19720802D01*
X10471704Y19720803D01*
X10315074Y19741424D01*
X10283443Y19737259D01*
X1767549Y19737259D01*
X1718637Y19877041D01*
X1622185Y20030545D01*
X1493993Y20158737D01*
X1340489Y20255189D01*
X1169372Y20315066D01*
X1169367Y20315066D01*
X1169366Y20315067D01*
X1101888Y20322669D01*
X1034408Y20330272D01*
X1034407Y20330273D01*
X1034405Y20330273D01*
X944037Y20330273D01*
X944035Y20330273D01*
X944032Y20330272D01*
X907338Y20326138D01*
X809075Y20315067D01*
X809073Y20315066D01*
X809070Y20315066D01*
X637953Y20255189D01*
X484449Y20158737D01*
X484448Y20158736D01*
X356257Y20030545D01*
X259804Y19877040D01*
X259803Y19877037D01*
X199926Y19705918D01*
X179630Y19525776D01*
X179630Y19525769D01*
X-8829944Y19525769D01*
X-9047681Y19743506D01*
X-9081166Y19804829D01*
X-9084000Y19831187D01*
X-9084000Y20427838D01*
X12148617Y20427838D01*
X12160825Y20398365D01*
X12257001Y20273027D01*
X12382339Y20176851D01*
X12528291Y20116397D01*
X12528295Y20116396D01*
X12684925Y20095775D01*
X12684927Y20095775D01*
X12716555Y20099938D01*
X12596536Y20547858D01*
X12148617Y20427838D01*
X-9084000Y20427838D01*
X-9084000Y20665162D01*
X12574776Y20665162D01*
X12616849Y20607252D01*
X12667478Y20590802D01*
X12702374Y20590802D01*
X12753003Y20607252D01*
X12756861Y20612562D01*
X12838018Y20612562D01*
X12958038Y20164643D01*
X12987511Y20176851D01*
X13112850Y20273027D01*
X13209026Y20398365D01*
X13269480Y20544317D01*
X13269481Y20544321D01*
X13290102Y20700951D01*
X13285937Y20732581D01*
X12838018Y20612562D01*
X12756861Y20612562D01*
X12795076Y20665162D01*
X12795076Y20736742D01*
X12753003Y20794652D01*
X12702374Y20811102D01*
X12667478Y20811102D01*
X12616849Y20794652D01*
X12574776Y20736742D01*
X12574776Y20665162D01*
X-9084000Y20665162D01*
X-9084000Y21062838D01*
X11048765Y21062838D01*
X11060973Y21033365D01*
X11157149Y20908027D01*
X11282487Y20811851D01*
X11428439Y20751397D01*
X11428443Y20751396D01*
X11585073Y20730775D01*
X11585075Y20730775D01*
X11616703Y20734938D01*
X11496684Y21182858D01*
X11048765Y21062838D01*
X-9084000Y21062838D01*
X-9084000Y21300162D01*
X11474924Y21300162D01*
X11516997Y21242252D01*
X11567626Y21225802D01*
X11602522Y21225802D01*
X11653151Y21242252D01*
X11657009Y21247562D01*
X11738166Y21247562D01*
X11858186Y20799643D01*
X11887662Y20811852D01*
X11893750Y20815367D01*
X11961650Y20831839D01*
X12027677Y20808986D01*
X12070867Y20754064D01*
X12079749Y20707979D01*
X12079749Y20700950D01*
X12083912Y20669322D01*
X12083913Y20669321D01*
X12531832Y20789340D01*
X12411813Y21237258D01*
X12411812Y21237258D01*
X12382339Y21225051D01*
X12376248Y21221535D01*
X12308348Y21205065D01*
X12242321Y21227918D01*
X12199132Y21282841D01*
X12195447Y21301963D01*
X12653295Y21301963D01*
X12773315Y20854045D01*
X13221233Y20974064D01*
X13209028Y21003533D01*
X13209023Y21003541D01*
X13112852Y21128875D01*
X12987512Y21225052D01*
X12841560Y21285506D01*
X12841556Y21285507D01*
X12684926Y21306128D01*
X12653295Y21301963D01*
X12195447Y21301963D01*
X12190251Y21328924D01*
X12190251Y21335950D01*
X12186085Y21367581D01*
X11738166Y21247562D01*
X11657009Y21247562D01*
X11695224Y21300162D01*
X11695224Y21371742D01*
X11653151Y21429652D01*
X11602522Y21446102D01*
X11567626Y21446102D01*
X11516997Y21429652D01*
X11474924Y21371742D01*
X11474924Y21300162D01*
X-9084000Y21300162D01*
X-9084000Y21335950D01*
X10979897Y21335950D01*
X10984060Y21304322D01*
X10984061Y21304321D01*
X11431980Y21424340D01*
X11311961Y21872258D01*
X11311960Y21872258D01*
X11282487Y21860051D01*
X11282483Y21860049D01*
X11157149Y21763876D01*
X11060974Y21638539D01*
X11000519Y21492586D01*
X11000518Y21492582D01*
X10979897Y21335952D01*
X10979897Y21335950D01*
X-9084000Y21335950D01*
X-9084000Y21936963D01*
X11553443Y21936963D01*
X11673463Y21489045D01*
X12121381Y21609064D01*
X12109176Y21638533D01*
X12109171Y21638541D01*
X12013000Y21763875D01*
X11887660Y21860052D01*
X11741708Y21920506D01*
X11741704Y21920507D01*
X11585074Y21941128D01*
X11553443Y21936963D01*
X-9084000Y21936963D01*
X-9084000Y22282875D01*
X-9064315Y22349914D01*
X-9035488Y22381250D01*
X-8969719Y22431717D01*
X-8873463Y22557160D01*
X-8812956Y22703237D01*
X-8812955Y22703239D01*
X-8792318Y22859998D01*
X-8792318Y22860001D01*
X-8812955Y23016760D01*
X-8812956Y23016762D01*
X-8873463Y23162839D01*
X-8873464Y23162841D01*
X-8969718Y23288282D01*
X-9095159Y23384536D01*
X-9241238Y23445044D01*
X-9319619Y23455363D01*
X-9397999Y23465682D01*
X-9398001Y23465682D01*
X-9450254Y23458802D01*
X-9554762Y23445044D01*
X-9700841Y23384536D01*
X-9826282Y23288282D01*
X-9922536Y23162841D01*
X-9983044Y23016762D01*
X-9983044Y23016760D01*
X-10003319Y22862754D01*
X-10003682Y22860000D01*
X-9983044Y22703238D01*
X-9922536Y22557159D01*
X-9826282Y22431718D01*
X-9798027Y22410037D01*
X-9760512Y22381250D01*
X-9719310Y22324821D01*
X-9712000Y22282875D01*
X-9712000Y19681223D01*
X-9731685Y19614184D01*
X-9784489Y19568429D01*
X-9853647Y19558485D01*
X-9911487Y19582848D01*
X-10012482Y19660345D01*
X-10041960Y19672555D01*
X-10161980Y19224636D01*
X-9714061Y19104617D01*
X-9714060Y19104618D01*
X-9709897Y19136246D01*
X-9709897Y19136249D01*
X-9720034Y19213247D01*
X-9709269Y19282282D01*
X-9662889Y19334538D01*
X-9595620Y19353423D01*
X-9528819Y19332942D01*
X-9509414Y19317113D01*
X-8658332Y18466031D01*
X-8624847Y18404708D01*
X-8629831Y18335016D01*
X-8671703Y18279083D01*
X-8737167Y18254666D01*
X-8759896Y18255129D01*
X-8777985Y18257168D01*
X-8800641Y18259721D01*
X-8800643Y18259721D01*
X-8891011Y18259721D01*
X-8891013Y18259721D01*
X-8891014Y18259720D01*
X-8958494Y18252117D01*
X-9025972Y18244515D01*
X-9025973Y18244514D01*
X-9025978Y18244514D01*
X-9197095Y18184637D01*
X-9350599Y18088185D01*
X-9478791Y17959993D01*
X-9575243Y17806489D01*
X-9635120Y17635372D01*
X-9655418Y17455221D01*
X-9635120Y17275070D01*
X-9575243Y17103953D01*
X-9553094Y17068702D01*
X-9478790Y16950448D01*
X-9350599Y16822257D01*
X-9197094Y16725804D01*
X-9197091Y16725803D01*
X-9025972Y16665926D01*
X-8891017Y16650721D01*
X-8800643Y16650721D01*
X-8800636Y16650721D01*
X-8665681Y16665926D01*
X-8494562Y16725803D01*
X-8494559Y16725804D01*
X-8341054Y16822257D01*
X-8212863Y16950448D01*
X-8116410Y17103953D01*
X-8116409Y17103956D01*
X-8056532Y17275075D01*
X-8036236Y17455217D01*
X-8036236Y17455225D01*
X-8045917Y17541151D01*
X-8033862Y17609973D01*
X-7986513Y17661352D01*
X-7918902Y17678976D01*
X-7852497Y17657249D01*
X-7835016Y17642715D01*
X-1870086Y11677785D01*
X-1836601Y11616462D01*
X-1841585Y11546770D01*
X-1883457Y11490837D01*
X-1939792Y11467414D01*
X-2019944Y11455674D01*
X-2682615Y11318843D01*
X-3336209Y11143713D01*
X-3978514Y10930877D01*
X-4607357Y10681053D01*
X-5220610Y10395089D01*
X-5816198Y10073950D01*
X-6392106Y9718725D01*
X-6946385Y9330615D01*
X-7477160Y8910932D01*
X-7982634Y8461098D01*
X-8461098Y7982634D01*
X-8910932Y7477160D01*
X-9330615Y6946385D01*
X-9718725Y6392106D01*
X-10073950Y5816198D01*
X-10395089Y5220610D01*
X-10681053Y4607357D01*
X-10930877Y3978514D01*
X-11143713Y3336209D01*
X-11318843Y2682615D01*
X-11455674Y2019944D01*
X-11553742Y1350439D01*
X-11612716Y676364D01*
X-11632396Y0D01*
X-14455861Y0D01*
X-14457740Y8757D01*
X-14433135Y74151D01*
X-14406972Y99869D01*
X-14300276Y177390D01*
X-14242849Y246807D01*
X-14199971Y298637D01*
X-14132974Y441014D01*
X-14132974Y441015D01*
X-14111434Y553933D01*
X-14103489Y595583D01*
X-14113369Y752629D01*
X-14113369Y752631D01*
X-14161995Y902283D01*
X-14246310Y1035143D01*
X-14361014Y1142857D01*
X-14361022Y1142863D01*
X-14498906Y1218665D01*
X-14498910Y1218667D01*
X-14651322Y1257800D01*
X-14651326Y1257800D01*
X-14769181Y1257800D01*
X-14769183Y1257800D01*
X-14769188Y1257799D01*
X-14769192Y1257799D01*
X-14781868Y1256197D01*
X-14886115Y1243028D01*
X-15032421Y1185102D01*
X-15159724Y1092610D01*
X-15260027Y971365D01*
X-15260029Y971360D01*
X-15263233Y966312D01*
X-15315774Y920255D01*
X-15384875Y909916D01*
X-15448596Y938577D01*
X-15472628Y966311D01*
X-15516310Y1035143D01*
X-15631014Y1142857D01*
X-15631022Y1142863D01*
X-15768906Y1218665D01*
X-15768910Y1218667D01*
X-15921322Y1257800D01*
X-15921326Y1257800D01*
X-16039181Y1257800D01*
X-16039183Y1257800D01*
X-16039188Y1257799D01*
X-16039192Y1257799D01*
X-16051868Y1256197D01*
X-16156115Y1243028D01*
X-16302421Y1185102D01*
X-16429724Y1092610D01*
X-16530027Y971365D01*
X-16530029Y971360D01*
X-16533233Y966312D01*
X-16585774Y920255D01*
X-16654875Y909916D01*
X-16718596Y938577D01*
X-16742628Y966311D01*
X-16786310Y1035143D01*
X-16901014Y1142857D01*
X-16901022Y1142863D01*
X-17038906Y1218665D01*
X-17038910Y1218667D01*
X-17191322Y1257800D01*
X-17191326Y1257800D01*
X-17309181Y1257800D01*
X-17309183Y1257800D01*
X-17309188Y1257799D01*
X-17309192Y1257799D01*
X-17321868Y1256197D01*
X-17426115Y1243028D01*
X-17572421Y1185102D01*
X-17699724Y1092610D01*
X-17800027Y971365D01*
X-17867026Y828985D01*
X-17896511Y674417D01*
X-17886631Y517371D01*
X-17838005Y367717D01*
X-17760101Y244960D01*
X-17753689Y234856D01*
X-17638985Y127142D01*
X-17638980Y127138D01*
X-17606179Y109106D01*
X-17556915Y59559D01*
X-17542259Y-8756D01*
X-17566863Y-74150D01*
X-17593027Y-99869D01*
X-17699724Y-177390D01*
X-17800027Y-298635D01*
X-17867026Y-441015D01*
X-17896511Y-595583D01*
X-19354289Y-595583D01*
X-19352618Y-595363D01*
X-19274238Y-585044D01*
X-19128159Y-524536D01*
X-19002718Y-428282D01*
X-18906464Y-302841D01*
X-18904722Y-298637D01*
X-18845956Y-156762D01*
X-18845955Y-156760D01*
X-18825318Y-1D01*
X-18825318Y1D01*
X-18845955Y156760D01*
X-18845956Y156762D01*
X-18906464Y302842D01*
X-18969902Y385516D01*
X-18995096Y450685D01*
X-18981057Y519130D01*
X-18952379Y553687D01*
X-18952625Y553933D01*
X-18949979Y556578D01*
X-18948848Y557942D01*
X-18947701Y558856D01*
X-18819509Y687048D01*
X-18723056Y840553D01*
X-18723055Y840556D01*
X-18663178Y1011675D01*
X-18642882Y1191817D01*
X-18642882Y1191824D01*
X-18663178Y1371966D01*
X-18723055Y1543085D01*
X-18723056Y1543088D01*
X-18819509Y1696593D01*
X-18947700Y1824784D01*
X-18947701Y1824785D01*
X-19101205Y1921237D01*
X-19272322Y1981114D01*
X-19272325Y1981114D01*
X-19272327Y1981115D01*
X-19363272Y1991361D01*
X-19407284Y1996320D01*
X-19407287Y1996321D01*
X-19407289Y1996321D01*
X-19497657Y1996321D01*
X-19497659Y1996321D01*
X-19497660Y1996320D01*
X-19565140Y1988717D01*
X-19632618Y1981115D01*
X-19632619Y1981114D01*
X-19632624Y1981114D01*
X-19803741Y1921237D01*
X-19957245Y1824785D01*
X-20085437Y1696593D01*
X-20181889Y1543089D01*
X-20241766Y1371972D01*
X-20241766Y1371967D01*
X-20241767Y1371966D01*
X-20262064Y1191824D01*
X-20262064Y1191817D01*
X-20799500Y1191817D01*
X-20720356Y1252546D01*
X-20624101Y1377988D01*
X-20563594Y1524065D01*
X-20563593Y1524067D01*
X-20542956Y1680826D01*
X-20542956Y1680829D01*
X-20563593Y1837588D01*
X-20563594Y1837590D01*
X-20624101Y1983667D01*
X-20624102Y1983669D01*
X-20720356Y2109110D01*
X-20845797Y2205364D01*
X-20991876Y2265872D01*
X-21070257Y2276191D01*
X-21148637Y2286510D01*
X-21148639Y2286510D01*
X-21200891Y2279630D01*
X-21305400Y2265872D01*
X-21451479Y2205364D01*
X-21576920Y2109110D01*
X-21673174Y1983669D01*
X-21733682Y1837590D01*
X-21733682Y1837588D01*
X-21754320Y1680829D01*
X-21754320Y1680826D01*
X-28691366Y1680826D01*
X-28665186Y2147008D01*
X-28665013Y2149321D01*
X-28659757Y2205364D01*
X-28619993Y2629409D01*
X-28568830Y3174998D01*
X-17496682Y3174998D01*
X-17484468Y3082227D01*
X-17476044Y3018238D01*
X-17415536Y2872159D01*
X-17319282Y2746718D01*
X-17193841Y2650464D01*
X-17193839Y2650463D01*
X-17047762Y2589956D01*
X-17047760Y2589955D01*
X-16891001Y2569318D01*
X-16891000Y2569318D01*
X-16890999Y2569318D01*
X-16734239Y2589955D01*
X-16734237Y2589956D01*
X-16588160Y2650463D01*
X-16462718Y2746718D01*
X-16366463Y2872160D01*
X-16305956Y3018237D01*
X-16305956Y3018239D01*
X-16294326Y3106573D01*
X-16266059Y3170470D01*
X-16259194Y3174998D01*
X-14956682Y3174998D01*
X-14944468Y3082227D01*
X-14936044Y3018238D01*
X-14875536Y2872159D01*
X-14779282Y2746718D01*
X-14653841Y2650464D01*
X-14653839Y2650463D01*
X-14507762Y2589956D01*
X-14507760Y2589955D01*
X-14351001Y2569318D01*
X-14351000Y2569318D01*
X-14350999Y2569318D01*
X-14194239Y2589955D01*
X-14194237Y2589956D01*
X-14048160Y2650463D01*
X-13922718Y2746718D01*
X-13826463Y2872160D01*
X-13765956Y3018237D01*
X-13765955Y3018239D01*
X-13745318Y3174998D01*
X-13745318Y3175001D01*
X-13765955Y3331760D01*
X-13765956Y3331762D01*
X-13826463Y3477839D01*
X-13826464Y3477841D01*
X-13922718Y3603282D01*
X-14048159Y3699536D01*
X-14194238Y3760044D01*
X-14282569Y3771673D01*
X-14350999Y3780682D01*
X-14351001Y3780682D01*
X-14403253Y3773802D01*
X-14507762Y3760044D01*
X-14653841Y3699536D01*
X-14779282Y3603282D01*
X-14875536Y3477841D01*
X-14936044Y3331762D01*
X-14942139Y3285464D01*
X-14956682Y3175001D01*
X-14956682Y3174998D01*
X-16259194Y3174998D01*
X-16207734Y3208940D01*
X-16187573Y3213326D01*
X-16116606Y3222669D01*
X-16099238Y3224956D01*
X-16099237Y3224956D01*
X-15953160Y3285463D01*
X-15827718Y3381718D01*
X-15731463Y3507160D01*
X-15670956Y3653237D01*
X-15670955Y3653239D01*
X-15650318Y3809998D01*
X-15650318Y3810001D01*
X-15670955Y3966760D01*
X-15670956Y3966762D01*
X-15731463Y4112839D01*
X-15731464Y4112841D01*
X-15827718Y4238282D01*
X-15953159Y4334536D01*
X-16099238Y4395044D01*
X-16177618Y4405363D01*
X-16255999Y4415682D01*
X-16256001Y4415682D01*
X-16308254Y4408802D01*
X-16412762Y4395044D01*
X-16558841Y4334536D01*
X-16684282Y4238282D01*
X-16780536Y4112841D01*
X-16841044Y3966762D01*
X-16844552Y3940112D01*
X-16852673Y3878427D01*
X-16880939Y3814531D01*
X-16939263Y3776059D01*
X-16959421Y3771674D01*
X-17047762Y3760044D01*
X-17193841Y3699536D01*
X-17319282Y3603282D01*
X-17415536Y3477841D01*
X-17476044Y3331762D01*
X-17482139Y3285464D01*
X-17496682Y3175001D01*
X-17496682Y3174998D01*
X-28568830Y3174998D01*
X-28564862Y3217315D01*
X-28564603Y3219619D01*
X-28424589Y4283138D01*
X-28424243Y4285431D01*
X-28289241Y5080000D01*
X-25751682Y5080000D01*
X-25731044Y4923238D01*
X-25670536Y4777159D01*
X-25574282Y4651718D01*
X-25448841Y4555464D01*
X-25448839Y4555463D01*
X-25302762Y4494956D01*
X-25302760Y4494955D01*
X-25146001Y4474318D01*
X-25146000Y4474318D01*
X-25145999Y4474318D01*
X-24989239Y4494955D01*
X-24989237Y4494956D01*
X-24843160Y4555463D01*
X-24717718Y4651718D01*
X-24621463Y4777160D01*
X-24560956Y4923237D01*
X-24560955Y4923239D01*
X-24540318Y5079998D01*
X-24540318Y5080001D01*
X-24560955Y5236760D01*
X-24560956Y5236762D01*
X-24621463Y5382839D01*
X-24621464Y5382841D01*
X-24717718Y5508282D01*
X-24843159Y5604536D01*
X-24989238Y5665044D01*
X-25067618Y5675363D01*
X-25145999Y5685682D01*
X-25146001Y5685682D01*
X-25198254Y5678802D01*
X-25302762Y5665044D01*
X-25448841Y5604536D01*
X-25574282Y5508282D01*
X-25670536Y5382841D01*
X-25731044Y5236762D01*
X-25751682Y5080000D01*
X-28289241Y5080000D01*
X-28244559Y5342977D01*
X-28244128Y5345255D01*
X-28025026Y6395343D01*
X-28024510Y6397604D01*
X-27766302Y7438747D01*
X-27765702Y7440986D01*
X-27468737Y8471776D01*
X-27468053Y8473992D01*
X-27132756Y9492945D01*
X-27131991Y9495134D01*
X-26758837Y10500815D01*
X-26757990Y10502974D01*
X-26556350Y10989775D01*
X-25918918Y10989775D01*
X-25901745Y10837359D01*
X-25898620Y10809628D01*
X-25838743Y10638511D01*
X-25743075Y10486254D01*
X-25742290Y10485006D01*
X-25614099Y10356815D01*
X-25460594Y10260362D01*
X-25460591Y10260361D01*
X-25289472Y10200484D01*
X-25154517Y10185279D01*
X-25064143Y10185279D01*
X-25064136Y10185279D01*
X-24929181Y10200484D01*
X-24758062Y10260361D01*
X-24758059Y10260362D01*
X-24604554Y10356815D01*
X-24476363Y10485006D01*
X-24379910Y10638511D01*
X-24379909Y10638514D01*
X-24342808Y10744542D01*
X-17137691Y10744542D01*
X-17117394Y10564400D01*
X-17117393Y10564395D01*
X-17057516Y10393278D01*
X-16974000Y10260361D01*
X-16961063Y10239773D01*
X-16832872Y10111582D01*
X-16679367Y10015129D01*
X-16679364Y10015128D01*
X-16508245Y9955251D01*
X-16373290Y9940046D01*
X-16282916Y9940046D01*
X-16282909Y9940046D01*
X-16147954Y9955251D01*
X-15976835Y10015128D01*
X-15976832Y10015129D01*
X-15823327Y10111582D01*
X-15695136Y10239773D01*
X-15598683Y10393278D01*
X-15598682Y10393281D01*
X-15538805Y10564400D01*
X-15518509Y10744542D01*
X-15518509Y10744549D01*
X-15538805Y10924691D01*
X-15540970Y10930877D01*
X-15559645Y10984248D01*
X-15598682Y11095810D01*
X-15598683Y11095813D01*
X-15695136Y11249318D01*
X-15823327Y11377509D01*
X-15823328Y11377510D01*
X-15976832Y11473962D01*
X-16147949Y11533839D01*
X-16147952Y11533839D01*
X-16147954Y11533840D01*
X-16238899Y11544086D01*
X-16282911Y11549045D01*
X-16282914Y11549046D01*
X-16282916Y11549046D01*
X-16373284Y11549046D01*
X-16373286Y11549046D01*
X-16373287Y11549045D01*
X-16440767Y11541442D01*
X-16508245Y11533840D01*
X-16508246Y11533839D01*
X-16508251Y11533839D01*
X-16679368Y11473962D01*
X-16832872Y11377510D01*
X-16961064Y11249318D01*
X-17057516Y11095814D01*
X-17117393Y10924697D01*
X-17117393Y10924692D01*
X-17117394Y10924691D01*
X-17137691Y10744549D01*
X-17137691Y10744542D01*
X-24342808Y10744542D01*
X-24320032Y10809633D01*
X-24299736Y10989775D01*
X-24299736Y10989782D01*
X-24320032Y11169924D01*
X-24379909Y11341043D01*
X-24379910Y11341046D01*
X-24476363Y11494551D01*
X-24604554Y11622742D01*
X-24604555Y11622743D01*
X-24758059Y11719195D01*
X-24929176Y11779072D01*
X-24929179Y11779072D01*
X-24929181Y11779073D01*
X-25020126Y11789319D01*
X-25064138Y11794278D01*
X-25064141Y11794279D01*
X-25064143Y11794279D01*
X-25154511Y11794279D01*
X-25154513Y11794279D01*
X-25154514Y11794278D01*
X-25221994Y11786675D01*
X-25289472Y11779073D01*
X-25289473Y11779072D01*
X-25289478Y11779072D01*
X-25460595Y11719195D01*
X-25614099Y11622743D01*
X-25742291Y11494551D01*
X-25838743Y11341047D01*
X-25898620Y11169930D01*
X-25898620Y11169925D01*
X-25898621Y11169924D01*
X-25918918Y10989782D01*
X-25918918Y10989775D01*
X-26556350Y10989775D01*
X-26347485Y11494018D01*
X-26346558Y11496143D01*
X-25899284Y12471150D01*
X-25898278Y12473239D01*
X-25414860Y13430836D01*
X-25413777Y13432886D01*
X-24894889Y14371742D01*
X-24893729Y14373750D01*
X-24340114Y15292524D01*
X-24338880Y15294488D01*
X-23751269Y16191966D01*
X-23749962Y16193882D01*
X-23550644Y16474794D01*
X-23129226Y17068725D01*
X-23127867Y17070568D01*
X-22491241Y17900234D01*
X-11446555Y17900234D01*
X-11414927Y17896071D01*
X-11414925Y17896071D01*
X-11258295Y17916692D01*
X-11258291Y17916693D01*
X-11112339Y17977147D01*
X-10987001Y18073323D01*
X-10890825Y18198661D01*
X-10878617Y18228134D01*
X-11326536Y18348154D01*
X-11446555Y17900234D01*
X-22491241Y17900234D01*
X-22474838Y17921611D01*
X-22473392Y17923424D01*
X-21968441Y18532877D01*
X-21789014Y18749436D01*
X-21787515Y18751178D01*
X-21520473Y19049998D01*
X-17496682Y19049998D01*
X-17493436Y19025346D01*
X-17476044Y18893238D01*
X-17415536Y18747159D01*
X-17319282Y18621718D01*
X-17193841Y18525464D01*
X-17193839Y18525463D01*
X-17047762Y18464956D01*
X-17047760Y18464955D01*
X-16891001Y18444318D01*
X-16891000Y18444318D01*
X-16890999Y18444318D01*
X-16734239Y18464955D01*
X-16734237Y18464956D01*
X-16646623Y18501247D01*
X-12020102Y18501247D01*
X-11999481Y18344617D01*
X-11999480Y18344613D01*
X-11939026Y18198661D01*
X-11842850Y18073323D01*
X-11717511Y17977147D01*
X-11688038Y17964939D01*
X-11568018Y18412858D01*
X-11764325Y18465458D01*
X-11525076Y18465458D01*
X-11483003Y18407548D01*
X-11432374Y18391098D01*
X-11397478Y18391098D01*
X-11346849Y18407548D01*
X-11304776Y18465458D01*
X-11304776Y18537038D01*
X-11342990Y18589636D01*
X-11261832Y18589636D01*
X-10813913Y18469617D01*
X-10813912Y18469618D01*
X-10809749Y18501246D01*
X-10809749Y18508275D01*
X-10801833Y18535234D01*
X-10346703Y18535234D01*
X-10315075Y18531071D01*
X-10315073Y18531071D01*
X-10158443Y18551692D01*
X-10158439Y18551693D01*
X-10012487Y18612147D01*
X-9887149Y18708323D01*
X-9790973Y18833661D01*
X-9778765Y18863134D01*
X-10226684Y18983154D01*
X-10346703Y18535234D01*
X-10801833Y18535234D01*
X-10790064Y18575314D01*
X-10737260Y18621069D01*
X-10668102Y18631013D01*
X-10623750Y18615663D01*
X-10617662Y18612148D01*
X-10588186Y18599939D01*
X-10468166Y19047858D01*
X-10664473Y19100458D01*
X-10425224Y19100458D01*
X-10383151Y19042548D01*
X-10332522Y19026098D01*
X-10297626Y19026098D01*
X-10246997Y19042548D01*
X-10204924Y19100458D01*
X-10204924Y19172038D01*
X-10246997Y19229948D01*
X-10297626Y19246398D01*
X-10332522Y19246398D01*
X-10383151Y19229948D01*
X-10425224Y19172038D01*
X-10425224Y19100458D01*
X-10664473Y19100458D01*
X-10916085Y19167877D01*
X-10920251Y19136246D01*
X-10920251Y19129220D01*
X-10939936Y19062181D01*
X-10992740Y19016426D01*
X-11061898Y19006482D01*
X-11106253Y19021834D01*
X-11112336Y19025346D01*
X-11141812Y19037555D01*
X-11261832Y18589636D01*
X-11342990Y18589636D01*
X-11346849Y18594948D01*
X-11397478Y18611398D01*
X-11432374Y18611398D01*
X-11483003Y18594948D01*
X-11525076Y18537038D01*
X-11525076Y18465458D01*
X-11764325Y18465458D01*
X-12015937Y18532877D01*
X-12020102Y18501247D01*
X-16646623Y18501247D01*
X-16588160Y18525463D01*
X-16462718Y18621718D01*
X-16366463Y18747160D01*
X-16355196Y18774360D01*
X-11951233Y18774360D01*
X-11503315Y18654341D01*
X-11383295Y19102259D01*
X-11414926Y19106424D01*
X-11571556Y19085803D01*
X-11571560Y19085802D01*
X-11717513Y19025347D01*
X-11842850Y18929172D01*
X-11939023Y18803837D01*
X-11939028Y18803829D01*
X-11951233Y18774360D01*
X-16355196Y18774360D01*
X-16305956Y18893237D01*
X-16305955Y18893239D01*
X-16285318Y19049998D01*
X-16285318Y19050001D01*
X-16305955Y19206760D01*
X-16305956Y19206762D01*
X-16366463Y19352839D01*
X-16366464Y19352841D01*
X-16409832Y19409360D01*
X-10851381Y19409360D01*
X-10403463Y19289341D01*
X-10283443Y19737259D01*
X-10315074Y19741424D01*
X-10471704Y19720803D01*
X-10471708Y19720802D01*
X-10617661Y19660347D01*
X-10742998Y19564172D01*
X-10839171Y19438837D01*
X-10839176Y19438829D01*
X-10851381Y19409360D01*
X-16409832Y19409360D01*
X-16462718Y19478282D01*
X-16588159Y19574536D01*
X-16734238Y19635044D01*
X-16812619Y19645363D01*
X-16890999Y19655682D01*
X-16891001Y19655682D01*
X-16943254Y19648802D01*
X-17047762Y19635044D01*
X-17193841Y19574536D01*
X-17319282Y19478282D01*
X-17415536Y19352841D01*
X-17476044Y19206762D01*
X-17489254Y19106424D01*
X-17496682Y19050001D01*
X-17496682Y19049998D01*
X-21520473Y19049998D01*
X-21072699Y19551058D01*
X-21071122Y19552757D01*
X-20544031Y20099938D01*
X-12716555Y20099938D01*
X-12684927Y20095775D01*
X-12684925Y20095775D01*
X-12528295Y20116396D01*
X-12528291Y20116397D01*
X-12382339Y20176851D01*
X-12257001Y20273027D01*
X-12160825Y20398365D01*
X-12148617Y20427838D01*
X-12596536Y20547858D01*
X-12716555Y20099938D01*
X-20544031Y20099938D01*
X-20326942Y20325302D01*
X-20325302Y20326942D01*
X-19937037Y20700951D01*
X-13290102Y20700951D01*
X-13269481Y20544321D01*
X-13269480Y20544317D01*
X-13209026Y20398365D01*
X-13112850Y20273027D01*
X-12987511Y20176851D01*
X-12958038Y20164643D01*
X-12838018Y20612562D01*
X-13034325Y20665162D01*
X-12795076Y20665162D01*
X-12753003Y20607252D01*
X-12702374Y20590802D01*
X-12667478Y20590802D01*
X-12616849Y20607252D01*
X-12574776Y20665162D01*
X-12574776Y20736742D01*
X-12612990Y20789340D01*
X-12531832Y20789340D01*
X-12083913Y20669321D01*
X-12083912Y20669322D01*
X-12079749Y20700950D01*
X-12079749Y20707979D01*
X-12071833Y20734938D01*
X-11616703Y20734938D01*
X-11585075Y20730775D01*
X-11585073Y20730775D01*
X-11428443Y20751396D01*
X-11428439Y20751397D01*
X-11282487Y20811851D01*
X-11157149Y20908027D01*
X-11060973Y21033365D01*
X-11048765Y21062838D01*
X-11496684Y21182858D01*
X-11616703Y20734938D01*
X-12071833Y20734938D01*
X-12060064Y20775018D01*
X-12007260Y20820773D01*
X-11938102Y20830717D01*
X-11893750Y20815367D01*
X-11887662Y20811852D01*
X-11858186Y20799643D01*
X-11738166Y21247562D01*
X-11934473Y21300162D01*
X-11695224Y21300162D01*
X-11653151Y21242252D01*
X-11602522Y21225802D01*
X-11567626Y21225802D01*
X-11516997Y21242252D01*
X-11474924Y21300162D01*
X-11474924Y21371742D01*
X-11513138Y21424340D01*
X-11431980Y21424340D01*
X-10984061Y21304321D01*
X-10984060Y21304322D01*
X-10979897Y21335950D01*
X-10979897Y21335952D01*
X-11000518Y21492582D01*
X-11000519Y21492586D01*
X-11060974Y21638539D01*
X-11157147Y21763875D01*
X-11282485Y21860050D01*
X-11311960Y21872259D01*
X-11431980Y21424340D01*
X-11513138Y21424340D01*
X-11516997Y21429652D01*
X-11567626Y21446102D01*
X-11602522Y21446102D01*
X-11653151Y21429652D01*
X-11695224Y21371742D01*
X-11695224Y21300162D01*
X-11934473Y21300162D01*
X-12186085Y21367581D01*
X-12190251Y21335950D01*
X-12190251Y21328924D01*
X-12209936Y21261885D01*
X-12262740Y21216130D01*
X-12331898Y21206186D01*
X-12376253Y21221538D01*
X-12382336Y21225050D01*
X-12411812Y21237259D01*
X-12531832Y20789340D01*
X-12612990Y20789340D01*
X-12616849Y20794652D01*
X-12667478Y20811102D01*
X-12702374Y20811102D01*
X-12753003Y20794652D01*
X-12795076Y20736742D01*
X-12795076Y20665162D01*
X-13034325Y20665162D01*
X-13285937Y20732581D01*
X-13290102Y20700951D01*
X-19937037Y20700951D01*
X-19653514Y20974064D01*
X-13221233Y20974064D01*
X-12773315Y20854045D01*
X-12653295Y21301963D01*
X-12684926Y21306128D01*
X-12841556Y21285507D01*
X-12841560Y21285506D01*
X-12987513Y21225051D01*
X-13112850Y21128876D01*
X-13209023Y21003541D01*
X-13209028Y21003533D01*
X-13221233Y20974064D01*
X-19653514Y20974064D01*
X-19552757Y21071122D01*
X-19551058Y21072699D01*
X-18751178Y21787515D01*
X-18749436Y21789014D01*
X-18424482Y22058250D01*
X-17137691Y22058250D01*
X-17124025Y21936963D01*
X-17117393Y21878103D01*
X-17057516Y21706986D01*
X-17014505Y21638533D01*
X-16961063Y21553481D01*
X-16832872Y21425290D01*
X-16679367Y21328837D01*
X-16679364Y21328836D01*
X-16508245Y21268959D01*
X-16373290Y21253754D01*
X-16282916Y21253754D01*
X-16282909Y21253754D01*
X-16147954Y21268959D01*
X-15976835Y21328836D01*
X-15976832Y21328837D01*
X-15823327Y21425290D01*
X-15695136Y21553481D01*
X-15660211Y21609064D01*
X-12121381Y21609064D01*
X-11673463Y21489045D01*
X-11553443Y21936963D01*
X-11585074Y21941128D01*
X-11741704Y21920507D01*
X-11741708Y21920506D01*
X-11887661Y21860051D01*
X-12012998Y21763876D01*
X-12109171Y21638541D01*
X-12109176Y21638533D01*
X-12121381Y21609064D01*
X-15660211Y21609064D01*
X-15598683Y21706986D01*
X-15598682Y21706989D01*
X-15538805Y21878108D01*
X-15518509Y22058250D01*
X-15518509Y22058257D01*
X-15538805Y22238399D01*
X-15598682Y22409518D01*
X-15598683Y22409521D01*
X-15695136Y22563026D01*
X-15823327Y22691217D01*
X-15823328Y22691218D01*
X-15976832Y22787670D01*
X-16147949Y22847547D01*
X-16147952Y22847547D01*
X-16147954Y22847548D01*
X-16258456Y22859998D01*
X-16282911Y22862753D01*
X-16282914Y22862754D01*
X-16282916Y22862754D01*
X-16373284Y22862754D01*
X-16373286Y22862754D01*
X-16373287Y22862753D01*
X-16440767Y22855150D01*
X-16508245Y22847548D01*
X-16508246Y22847547D01*
X-16508251Y22847547D01*
X-16679368Y22787670D01*
X-16832872Y22691218D01*
X-16961064Y22563026D01*
X-17057516Y22409522D01*
X-17117393Y22238405D01*
X-17117393Y22238400D01*
X-17117394Y22238399D01*
X-17137691Y22058257D01*
X-17137691Y22058250D01*
X-18424482Y22058250D01*
X-18424474Y22058257D01*
X-17923424Y22473392D01*
X-17921611Y22474838D01*
X-17070568Y23127867D01*
X-17068725Y23129226D01*
X-16553216Y23495000D01*
X-2256682Y23495000D01*
X-2236044Y23338238D01*
X-2175536Y23192159D01*
X-2079282Y23066718D01*
X-1953841Y22970464D01*
X-1953839Y22970463D01*
X-1807762Y22909956D01*
X-1807760Y22909955D01*
X-1651001Y22889318D01*
X-1651000Y22889318D01*
X-1650999Y22889318D01*
X-1494239Y22909955D01*
X-1494237Y22909956D01*
X-1348160Y22970463D01*
X-1222718Y23066718D01*
X-1126463Y23192160D01*
X-1065956Y23338237D01*
X-1065955Y23338239D01*
X-1045318Y23494998D01*
X918318Y23494998D01*
X938955Y23338239D01*
X938956Y23338237D01*
X999463Y23192160D01*
X1095718Y23066718D01*
X1221160Y22970463D01*
X1367237Y22909956D01*
X1367239Y22909955D01*
X1523999Y22889318D01*
X1524000Y22889318D01*
X1524001Y22889318D01*
X1680760Y22909955D01*
X1680762Y22909956D01*
X1826839Y22970463D01*
X1826841Y22970464D01*
X1952282Y23066718D01*
X2048536Y23192159D01*
X2109044Y23338238D01*
X2129682Y23495000D01*
X2109044Y23651762D01*
X2048536Y23797841D01*
X1952282Y23923282D01*
X1826841Y24019536D01*
X1680762Y24080044D01*
X1576254Y24093802D01*
X1524001Y24100682D01*
X1523999Y24100682D01*
X1445619Y24090363D01*
X1367238Y24080044D01*
X1221159Y24019536D01*
X1095718Y23923282D01*
X999464Y23797841D01*
X999463Y23797839D01*
X938956Y23651762D01*
X938955Y23651760D01*
X918318Y23495001D01*
X918318Y23494998D01*
X-1045318Y23494998D01*
X-1045318Y23495001D01*
X-1065955Y23651760D01*
X-1065956Y23651762D01*
X-1126463Y23797839D01*
X-1126464Y23797841D01*
X-1222718Y23923282D01*
X-1348159Y24019536D01*
X-1494238Y24080044D01*
X-1572618Y24090363D01*
X-1650999Y24100682D01*
X-1651001Y24100682D01*
X-1703253Y24093802D01*
X-1807762Y24080044D01*
X-1953841Y24019536D01*
X-2079282Y23923282D01*
X-2175536Y23797841D01*
X-2236044Y23651762D01*
X-2256682Y23495000D01*
X-16553216Y23495000D01*
X-16193882Y23749962D01*
X-16191966Y23751269D01*
X-15294488Y24338880D01*
X-15292524Y24340114D01*
X-14373750Y24893729D01*
X-14371742Y24894889D01*
X-13432886Y25413777D01*
X-13430836Y25414860D01*
X-12473239Y25898278D01*
X-12471150Y25899284D01*
X-12251600Y26000000D01*
X-1859237Y26000000D01*
X-1840313Y25735403D01*
X-1840312Y25735399D01*
X-1840312Y25735397D01*
X-1796477Y25533891D01*
X-1783925Y25476192D01*
X-1691221Y25227645D01*
X-1691218Y25227638D01*
X-1564093Y24994826D01*
X-1564088Y24994818D01*
X-1405124Y24782466D01*
X-1405108Y24782448D01*
X-1217551Y24594891D01*
X-1217533Y24594875D01*
X-1005181Y24435911D01*
X-1005173Y24435906D01*
X-772360Y24308781D01*
X-772361Y24308781D01*
X-672936Y24271697D01*
X-523808Y24216075D01*
X-523805Y24216074D01*
X-523799Y24216072D01*
X-264602Y24159687D01*
X-1Y24140763D01*
X0Y24140763D01*
X1Y24140763D01*
X264602Y24159687D01*
X523799Y24216072D01*
X523805Y24216074D01*
X523808Y24216075D01*
X672936Y24271697D01*
X772361Y24308781D01*
X1005173Y24435906D01*
X1005181Y24435911D01*
X1217533Y24594875D01*
X1217551Y24594891D01*
X1405108Y24782448D01*
X1405124Y24782466D01*
X1564088Y24994818D01*
X1564093Y24994826D01*
X1666638Y25182623D01*
X9977588Y25182623D01*
X9997884Y25002481D01*
X10057761Y24831362D01*
X10057762Y24831359D01*
X10154215Y24677854D01*
X10282406Y24549663D01*
X10435911Y24453210D01*
X10435914Y24453209D01*
X10607033Y24393332D01*
X10741988Y24378127D01*
X10832363Y24378127D01*
X10832369Y24378127D01*
X10967324Y24393332D01*
X11138443Y24453209D01*
X11138446Y24453210D01*
X11291951Y24549663D01*
X11420142Y24677854D01*
X11516595Y24831359D01*
X11516596Y24831362D01*
X11538419Y24893729D01*
X11576472Y25002476D01*
X11576473Y25002481D01*
X11596770Y25182623D01*
X11596770Y25182630D01*
X11576473Y25362772D01*
X11576472Y25362773D01*
X11576472Y25362778D01*
X11516595Y25533895D01*
X11420143Y25687399D01*
X11291951Y25815591D01*
X11138447Y25912043D01*
X10967330Y25971920D01*
X10967325Y25971920D01*
X10967324Y25971921D01*
X10899846Y25979523D01*
X10832366Y25987126D01*
X10832365Y25987127D01*
X10832363Y25987127D01*
X10741995Y25987127D01*
X10741993Y25987127D01*
X10741990Y25987126D01*
X10697978Y25982167D01*
X10607033Y25971921D01*
X10607031Y25971920D01*
X10607028Y25971920D01*
X10435911Y25912043D01*
X10282407Y25815591D01*
X10282406Y25815590D01*
X10154215Y25687399D01*
X10057762Y25533894D01*
X10057761Y25533891D01*
X9997884Y25362772D01*
X9977588Y25182630D01*
X9977588Y25182623D01*
X1666638Y25182623D01*
X1691218Y25227638D01*
X1691221Y25227645D01*
X1783925Y25476192D01*
X1796477Y25533891D01*
X1840312Y25735397D01*
X1840312Y25735399D01*
X1840313Y25735403D01*
X1859237Y26000000D01*
X1840313Y26264597D01*
X1822483Y26346558D01*
X1783927Y26523799D01*
X1783926Y26523799D01*
X1783925Y26523808D01*
X1691221Y26772355D01*
X1564090Y27005179D01*
X1405118Y27217541D01*
X1217541Y27405118D01*
X1005179Y27564090D01*
X772360Y27691218D01*
X772359Y27691218D01*
X772355Y27691221D01*
X523808Y27783925D01*
X264597Y27840313D01*
X26508Y27857341D01*
X1Y27859237D01*
X-1Y27859237D01*
X-26508Y27857341D01*
X-264597Y27840313D01*
X-523808Y27783925D01*
X-772355Y27691221D01*
X-772359Y27691218D01*
X-772361Y27691218D01*
X-888767Y27627655D01*
X-1005179Y27564090D01*
X-1217541Y27405118D01*
X-1405118Y27217541D01*
X-1564090Y27005179D01*
X-1691221Y26772355D01*
X-1783925Y26523808D01*
X-1783926Y26523799D01*
X-1783927Y26523799D01*
X-1822483Y26346558D01*
X-1840313Y26264597D01*
X-1859237Y26000000D01*
X-12251600Y26000000D01*
X-11496143Y26346558D01*
X-11494018Y26347485D01*
X-10502974Y26757990D01*
X-10500815Y26758837D01*
X-9495134Y27131991D01*
X-9492945Y27132756D01*
X-9126997Y27253175D01*
X-3998564Y27253175D01*
X-3978267Y27073033D01*
X-3978266Y27073028D01*
X-3918389Y26901911D01*
X-3828491Y26758837D01*
X-3821936Y26748406D01*
X-3693745Y26620215D01*
X-3540240Y26523762D01*
X-3540237Y26523761D01*
X-3369118Y26463884D01*
X-3234163Y26448679D01*
X-3143789Y26448679D01*
X-3143782Y26448679D01*
X-3008827Y26463884D01*
X-2837708Y26523761D01*
X-2837705Y26523762D01*
X-2684200Y26620215D01*
X-2556009Y26748406D01*
X-2459556Y26901911D01*
X-2459555Y26901914D01*
X-2399678Y27073033D01*
X-2379382Y27253175D01*
X-2379382Y27253182D01*
X-2399678Y27433324D01*
X-2459555Y27604443D01*
X-2459556Y27604446D01*
X-2556009Y27757951D01*
X-2684200Y27886142D01*
X-2684201Y27886143D01*
X-2837705Y27982595D01*
X-3008822Y28042472D01*
X-3008825Y28042472D01*
X-3008827Y28042473D01*
X-3099772Y28052719D01*
X-3143784Y28057678D01*
X-3143787Y28057679D01*
X-3143789Y28057679D01*
X-3234157Y28057679D01*
X-3234159Y28057679D01*
X-3234160Y28057678D01*
X-3301640Y28050075D01*
X-3369118Y28042473D01*
X-3369119Y28042472D01*
X-3369124Y28042472D01*
X-3540241Y27982595D01*
X-3693745Y27886143D01*
X-3821937Y27757951D01*
X-3918389Y27604447D01*
X-3978266Y27433330D01*
X-3978266Y27433325D01*
X-3978267Y27433324D01*
X-3998564Y27253182D01*
X-3998564Y27253175D01*
X-9126997Y27253175D01*
X-8473992Y27468053D01*
X-8471776Y27468737D01*
X-7440986Y27765702D01*
X-7438747Y27766302D01*
X-6397604Y28024510D01*
X-6395343Y28025026D01*
X-5345255Y28244128D01*
X-5342977Y28244559D01*
X-4285431Y28424243D01*
X-4283138Y28424589D01*
X-3219619Y28564603D01*
X-3217315Y28564862D01*
X-2531873Y28629139D01*
X-2149298Y28665014D01*
X-2147008Y28665186D01*
X-1075975Y28725333D01*
X-1073663Y28725419D01*
X-821822Y28730129D01*
X-1159Y28745478D01*
X1159Y28745478D01*
X821822Y28730129D01*
G37*
%TD.AperFunction*%
%TD*%
M02*
