%TF.GenerationSoftware,KiCad,Pcbnew,7.0.5*%
%TF.CreationDate,2023-06-26T09:34:37-04:00*%
%TF.ProjectId,ESP32Sensor-LED_board,45535033-3253-4656-9e73-6f722d4c4544,rev?*%
%TF.SameCoordinates,Original*%
%TF.FileFunction,Copper,L4,Bot*%
%TF.FilePolarity,Positive*%
%FSLAX46Y46*%
G04 Gerber Fmt 4.6, Leading zero omitted, Abs format (unit mm)*
G04 Created by KiCad (PCBNEW 7.0.5) date 2023-06-26 09:34:37*
%MOMM*%
%LPD*%
G01*
G04 APERTURE LIST*
G04 Aperture macros list*
%AMRoundRect*
0 Rectangle with rounded corners*
0 $1 Rounding radius*
0 $2 $3 $4 $5 $6 $7 $8 $9 X,Y pos of 4 corners*
0 Add a 4 corners polygon primitive as box body*
4,1,4,$2,$3,$4,$5,$6,$7,$8,$9,$2,$3,0*
0 Add four circle primitives for the rounded corners*
1,1,$1+$1,$2,$3*
1,1,$1+$1,$4,$5*
1,1,$1+$1,$6,$7*
1,1,$1+$1,$8,$9*
0 Add four rect primitives between the rounded corners*
20,1,$1+$1,$2,$3,$4,$5,0*
20,1,$1+$1,$4,$5,$6,$7,0*
20,1,$1+$1,$6,$7,$8,$9,0*
20,1,$1+$1,$8,$9,$2,$3,0*%
%AMRotRect*
0 Rectangle, with rotation*
0 The origin of the aperture is its center*
0 $1 length*
0 $2 width*
0 $3 Rotation angle, in degrees counterclockwise*
0 Add horizontal line*
21,1,$1,$2,0,0,$3*%
G04 Aperture macros list end*
%TA.AperFunction,WasherPad*%
%ADD10C,1.400000*%
%TD*%
%TA.AperFunction,SMDPad,CuDef*%
%ADD11RotRect,2.209800X4.394200X120.000000*%
%TD*%
%TA.AperFunction,SMDPad,CuDef*%
%ADD12RoundRect,0.135000X0.135000X0.185000X-0.135000X0.185000X-0.135000X-0.185000X0.135000X-0.185000X0*%
%TD*%
%TA.AperFunction,SMDPad,CuDef*%
%ADD13RotRect,0.950000X0.350000X30.000000*%
%TD*%
%TA.AperFunction,ComponentPad*%
%ADD14C,0.700000*%
%TD*%
%TA.AperFunction,SMDPad,CuDef*%
%ADD15RotRect,2.200000X2.999999X30.000000*%
%TD*%
%TA.AperFunction,SMDPad,CuDef*%
%ADD16RotRect,1.117600X1.752600X285.000000*%
%TD*%
%TA.AperFunction,SMDPad,CuDef*%
%ADD17R,0.660400X0.304800*%
%TD*%
%TA.AperFunction,SMDPad,CuDef*%
%ADD18R,0.965200X0.685800*%
%TD*%
%TA.AperFunction,SMDPad,CuDef*%
%ADD19RotRect,1.117600X1.752600X105.000000*%
%TD*%
%TA.AperFunction,SMDPad,CuDef*%
%ADD20R,0.736600X1.333500*%
%TD*%
%TA.AperFunction,SMDPad,CuDef*%
%ADD21RotRect,1.117600X1.752600X75.000000*%
%TD*%
%TA.AperFunction,SMDPad,CuDef*%
%ADD22RotRect,2.209800X4.394200X240.000000*%
%TD*%
%TA.AperFunction,SMDPad,CuDef*%
%ADD23RoundRect,0.140000X0.217224X-0.036244X0.077224X0.206244X-0.217224X0.036244X-0.077224X-0.206244X0*%
%TD*%
%TA.AperFunction,SMDPad,CuDef*%
%ADD24RotRect,0.950000X0.350000X210.000000*%
%TD*%
%TA.AperFunction,SMDPad,CuDef*%
%ADD25RotRect,2.200000X2.999999X210.000000*%
%TD*%
%TA.AperFunction,SMDPad,CuDef*%
%ADD26RotRect,1.117600X1.752600X255.000000*%
%TD*%
%TA.AperFunction,SMDPad,CuDef*%
%ADD27RoundRect,0.140000X-0.077224X0.206244X-0.217224X-0.036244X0.077224X-0.206244X0.217224X0.036244X0*%
%TD*%
%TA.AperFunction,SMDPad,CuDef*%
%ADD28RoundRect,0.140000X-0.217224X0.036244X-0.077224X-0.206244X0.217224X-0.036244X0.077224X0.206244X0*%
%TD*%
%TA.AperFunction,SMDPad,CuDef*%
%ADD29RotRect,0.950000X0.350000X150.000000*%
%TD*%
%TA.AperFunction,SMDPad,CuDef*%
%ADD30RotRect,2.200000X2.999999X150.000000*%
%TD*%
%TA.AperFunction,SMDPad,CuDef*%
%ADD31RoundRect,0.140000X0.077224X-0.206244X0.217224X0.036244X-0.077224X0.206244X-0.217224X-0.036244X0*%
%TD*%
%TA.AperFunction,SMDPad,CuDef*%
%ADD32RotRect,2.209800X4.394200X60.000000*%
%TD*%
%TA.AperFunction,SMDPad,CuDef*%
%ADD33RotRect,0.950000X0.350000X330.000000*%
%TD*%
%TA.AperFunction,SMDPad,CuDef*%
%ADD34RotRect,2.200000X2.999999X330.000000*%
%TD*%
%TA.AperFunction,ViaPad*%
%ADD35C,0.700000*%
%TD*%
%TA.AperFunction,Conductor*%
%ADD36C,0.254000*%
%TD*%
%TA.AperFunction,Conductor*%
%ADD37C,0.127000*%
%TD*%
G04 APERTURE END LIST*
D10*
%TO.P,LED1,*%
%TO.N,*%
X989221Y19525773D03*
X10787179Y25182627D03*
%TD*%
%TO.P,LED12,*%
%TO.N,*%
X-1118421Y-19249973D03*
X-10916379Y-24906827D03*
%TD*%
%TO.P,LED10,*%
%TO.N,*%
X-17381921Y-8643327D03*
X-27179879Y-2986473D03*
%TD*%
%TO.P,LED8,*%
%TO.N,*%
X-16328100Y22058254D03*
X-16328100Y10744546D03*
%TD*%
%TO.P,LED3,*%
%TO.N,*%
X17252721Y8919227D03*
X27050679Y3262373D03*
%TD*%
%TO.P,LED6,*%
%TO.N,*%
X3059773Y-26977379D03*
X8716627Y-17179421D03*
%TD*%
%TO.P,LED9,*%
%TO.N,*%
X-25109327Y10989779D03*
X-19452473Y1191821D03*
%TD*%
%TO.P,LED5,*%
%TO.N,*%
X16198900Y-21782354D03*
X16198900Y-10468646D03*
%TD*%
%TO.P,LED4,*%
%TO.N,*%
X24980127Y-10713879D03*
X19323273Y-915921D03*
%TD*%
%TO.P,LED7,*%
%TO.N,*%
X-3188973Y27253179D03*
X-8845827Y17455221D03*
%TD*%
%TO.P,LED11,*%
%TO.N,*%
X-10671146Y-16125500D03*
X-21984854Y-16125500D03*
%TD*%
%TO.P,LED2,*%
%TO.N,*%
X10542046Y16401400D03*
X21855754Y16401400D03*
%TD*%
D11*
%TO.P,R3,1*%
%TO.N,Net-(K1-D1-Pad6)*%
X21290200Y9124319D03*
%TO.P,R3,2*%
%TO.N,Net-(U1-Q)*%
X18547000Y13875681D03*
%TD*%
D12*
%TO.P,R17,1*%
%TO.N,Net-(K2-G2)*%
X-25271000Y0D03*
%TO.P,R17,2*%
%TO.N,LED_REF_INV*%
X-26291000Y0D03*
%TD*%
D13*
%TO.P,U2,1,PWM*%
%TO.N,PWM_DIM*%
X10432844Y-21920363D03*
%TO.P,U2,2,ST*%
%TO.N,unconnected-(U2-ST-Pad2)*%
X10032843Y-21227542D03*
%TO.P,U2,3,GND*%
%TO.N,LED_GND*%
X9632844Y-20534724D03*
%TO.P,U2,4,REF*%
%TO.N,Net-(K1-S2)*%
X9232844Y-19841903D03*
%TO.P,U2,5,D*%
%TO.N,unconnected-(U2-D-Pad5)*%
X12567156Y-17916837D03*
%TO.P,U2,6,Q*%
%TO.N,Net-(U2-Q)*%
X12967157Y-18609658D03*
%TO.P,U2,7,NC*%
%TO.N,unconnected-(U2-NC-Pad7)*%
X13367156Y-19302476D03*
%TO.P,U2,8,I*%
%TO.N,+Vs_For_LED_Drivers*%
X13767156Y-19995297D03*
D14*
%TO.P,U2,9,EPAD*%
%TO.N,LED_GND*%
X10315074Y-19136248D03*
X11585074Y-21335952D03*
D15*
X11500000Y-19918600D03*
D14*
X11414926Y-18501248D03*
X12684926Y-20700952D03*
%TD*%
D16*
%TO.P,R5,1*%
%TO.N,Net-(K1-S2)*%
X5558360Y-20744229D03*
%TO.P,R5,2*%
%TO.N,LED_GND*%
X6347240Y-23688371D03*
%TD*%
D17*
%TO.P,K1,1,S1*%
%TO.N,Net-(K1-S1)*%
X23964100Y787899D03*
%TO.P,K1,2,G1*%
%TO.N,Net-(K1-G1)*%
X23964100Y137900D03*
%TO.P,K1,3,D2*%
%TO.N,Net-(K1-D2-Pad3)*%
X23964100Y-512099D03*
%TO.P,K1,4,S2*%
%TO.N,Net-(K1-S2)*%
X21906700Y-512099D03*
%TO.P,K1,5,G2*%
%TO.N,Net-(K1-G2)*%
X21906700Y137900D03*
%TO.P,K1,6,D1*%
%TO.N,Net-(K1-D1-Pad6)*%
X21906700Y787899D03*
D18*
%TO.P,K1,7,D1*%
X22935400Y622786D03*
%TO.P,K1,8,D2*%
%TO.N,Net-(K1-D2-Pad3)*%
X22935400Y-346986D03*
%TD*%
D19*
%TO.P,R7,1*%
%TO.N,Net-(K2-S1)*%
X-3161560Y21387929D03*
%TO.P,R7,2*%
%TO.N,LED_GND*%
X-3950440Y24332071D03*
%TD*%
D20*
%TO.P,J1,1,1*%
%TO.N,+Vs_For_LED_Drivers*%
X17270000Y1936750D03*
%TO.P,J1,2,2*%
%TO.N,LED_GND*%
X17270000Y-1936750D03*
%TO.P,J1,3,3*%
%TO.N,PWM_DIM*%
X16000000Y1936750D03*
%TO.P,J1,4,4*%
%TO.N,LED_REF_INV*%
X16000000Y-1936750D03*
%TO.P,J1,5,5*%
%TO.N,unconnected-(J1-Pad5)*%
X14730000Y1936750D03*
%TO.P,J1,6,6*%
%TO.N,unconnected-(J1-Pad6)*%
X14730000Y-1936750D03*
%TD*%
D21*
%TO.P,R10,1*%
%TO.N,Net-(K2-S2)*%
X-3950440Y-24332071D03*
%TO.P,R10,2*%
%TO.N,LED_GND*%
X-3161560Y-21387929D03*
%TD*%
D22*
%TO.P,R6,1*%
%TO.N,Net-(K1-D2-Pad3)*%
X21290184Y-9124319D03*
%TO.P,R6,2*%
%TO.N,Net-(U2-Q)*%
X18546984Y-13875681D03*
%TD*%
D12*
%TO.P,R14,1*%
%TO.N,LED_REF_INV*%
X26164000Y0D03*
%TO.P,R14,2*%
%TO.N,Net-(K1-G1)*%
X25144000Y0D03*
%TD*%
%TO.P,R16,1*%
%TO.N,LED_REF_INV*%
X-19556000Y-635000D03*
%TO.P,R16,2*%
%TO.N,Net-(K2-G1)*%
X-20576000Y-635000D03*
%TD*%
D11*
%TO.P,R12,1*%
%TO.N,Net-(U4-Q)*%
X-18546984Y-13875681D03*
%TO.P,R12,2*%
%TO.N,Net-(K2-D2-Pad3)*%
X-21290184Y-9124319D03*
%TD*%
D23*
%TO.P,C6,1*%
%TO.N,LED_GND*%
X15322200Y-20186892D03*
%TO.P,C6,2*%
%TO.N,+Vs_For_LED_Drivers*%
X14842200Y-19355508D03*
%TD*%
D24*
%TO.P,U3,1,PWM*%
%TO.N,PWM_DIM*%
X-10432844Y21920363D03*
%TO.P,U3,2,ST*%
%TO.N,unconnected-(U3-ST-Pad2)*%
X-10032843Y21227542D03*
%TO.P,U3,3,GND*%
%TO.N,LED_GND*%
X-9632844Y20534724D03*
%TO.P,U3,4,REF*%
%TO.N,Net-(K2-S1)*%
X-9232844Y19841903D03*
%TO.P,U3,5,D*%
%TO.N,unconnected-(U3-D-Pad5)*%
X-12567156Y17916837D03*
%TO.P,U3,6,Q*%
%TO.N,Net-(U3-Q)*%
X-12967157Y18609658D03*
%TO.P,U3,7,NC*%
%TO.N,unconnected-(U3-NC-Pad7)*%
X-13367156Y19302476D03*
%TO.P,U3,8,I*%
%TO.N,+Vs_For_LED_Drivers*%
X-13767156Y19995297D03*
D14*
%TO.P,U3,9,EPAD*%
%TO.N,LED_GND*%
X-10315074Y19136248D03*
X-11585074Y21335952D03*
D25*
X-11500000Y19918600D03*
D14*
X-11414926Y18501248D03*
X-12684926Y20700952D03*
%TD*%
D26*
%TO.P,R2,1*%
%TO.N,Net-(K1-S1)*%
X6347240Y23688371D03*
%TO.P,R2,2*%
%TO.N,LED_GND*%
X5558360Y20744229D03*
%TD*%
D23*
%TO.P,C5,1*%
%TO.N,LED_GND*%
X16202100Y-19678892D03*
%TO.P,C5,2*%
%TO.N,+Vs_For_LED_Drivers*%
X15722100Y-18847508D03*
%TD*%
D27*
%TO.P,C8,1*%
%TO.N,LED_GND*%
X-13231100Y-16602308D03*
%TO.P,C8,2*%
%TO.N,+Vs_For_LED_Drivers*%
X-13711100Y-17433692D03*
%TD*%
D28*
%TO.P,C1,1*%
%TO.N,LED_GND*%
X-16105900Y19592692D03*
%TO.P,C1,2*%
%TO.N,+Vs_For_LED_Drivers*%
X-15625900Y18761308D03*
%TD*%
D29*
%TO.P,U4,1,PWM*%
%TO.N,PWM_DIM*%
X-9232844Y-19841903D03*
%TO.P,U4,2,ST*%
%TO.N,unconnected-(U4-ST-Pad2)*%
X-9632844Y-20534724D03*
%TO.P,U4,3,GND*%
%TO.N,LED_GND*%
X-10032843Y-21227542D03*
%TO.P,U4,4,REF*%
%TO.N,Net-(K2-S2)*%
X-10432844Y-21920363D03*
%TO.P,U4,5,D*%
%TO.N,unconnected-(U4-D-Pad5)*%
X-13767156Y-19995297D03*
%TO.P,U4,6,Q*%
%TO.N,Net-(U4-Q)*%
X-13367156Y-19302476D03*
%TO.P,U4,7,NC*%
%TO.N,unconnected-(U4-NC-Pad7)*%
X-12967157Y-18609658D03*
%TO.P,U4,8,I*%
%TO.N,+Vs_For_LED_Drivers*%
X-12567156Y-17916837D03*
D14*
%TO.P,U4,9,EPAD*%
%TO.N,LED_GND*%
X-11585074Y-21335952D03*
X-10315074Y-19136248D03*
D30*
X-11500000Y-19918600D03*
D14*
X-12684926Y-20700952D03*
X-11414926Y-18501248D03*
%TD*%
D31*
%TO.P,C4,1*%
%TO.N,LED_GND*%
X13349000Y16729308D03*
%TO.P,C4,2*%
%TO.N,+Vs_For_LED_Drivers*%
X13829000Y17560692D03*
%TD*%
D20*
%TO.P,J2,1,1*%
%TO.N,+Vs_For_LED_Drivers*%
X-14730000Y1936750D03*
%TO.P,J2,2,2*%
%TO.N,LED_GND*%
X-14730000Y-1936750D03*
%TO.P,J2,3,3*%
%TO.N,SDA*%
X-16000000Y1936750D03*
%TO.P,J2,4,4*%
%TO.N,SCL*%
X-16000000Y-1936750D03*
%TO.P,J2,5,5*%
%TO.N,3V3*%
X-17270000Y1936750D03*
%TO.P,J2,6,6*%
%TO.N,INT*%
X-17270000Y-1936750D03*
%TD*%
D28*
%TO.P,C2,1*%
%TO.N,LED_GND*%
X-15226000Y20100692D03*
%TO.P,C2,2*%
%TO.N,+Vs_For_LED_Drivers*%
X-14746000Y19269308D03*
%TD*%
D19*
%TO.P,R8,1*%
%TO.N,Net-(K2-S1)*%
X-5558360Y20744229D03*
%TO.P,R8,2*%
%TO.N,LED_GND*%
X-6347240Y23688371D03*
%TD*%
D31*
%TO.P,C3,1*%
%TO.N,LED_GND*%
X14228900Y16221308D03*
%TO.P,C3,2*%
%TO.N,+Vs_For_LED_Drivers*%
X14708900Y17052692D03*
%TD*%
D21*
%TO.P,R11,1*%
%TO.N,Net-(K2-S2)*%
X-6347240Y-23688371D03*
%TO.P,R11,2*%
%TO.N,LED_GND*%
X-5558360Y-20744229D03*
%TD*%
D16*
%TO.P,R4,1*%
%TO.N,Net-(K1-S2)*%
X2929660Y-21387929D03*
%TO.P,R4,2*%
%TO.N,LED_GND*%
X3718540Y-24332071D03*
%TD*%
D12*
%TO.P,R15,1*%
%TO.N,Net-(K1-G2)*%
X20449000Y635000D03*
%TO.P,R15,2*%
%TO.N,LED_REF_INV*%
X19429000Y635000D03*
%TD*%
D27*
%TO.P,C7,1*%
%TO.N,LED_GND*%
X-14111000Y-16094308D03*
%TO.P,C7,2*%
%TO.N,+Vs_For_LED_Drivers*%
X-14591000Y-16925692D03*
%TD*%
D17*
%TO.P,K2,1,S1*%
%TO.N,Net-(K2-S1)*%
X-22035900Y787899D03*
%TO.P,K2,2,G1*%
%TO.N,Net-(K2-G1)*%
X-22035900Y137900D03*
%TO.P,K2,3,D2*%
%TO.N,Net-(K2-D2-Pad3)*%
X-22035900Y-512099D03*
%TO.P,K2,4,S2*%
%TO.N,Net-(K2-S2)*%
X-24093300Y-512099D03*
%TO.P,K2,5,G2*%
%TO.N,Net-(K2-G2)*%
X-24093300Y137900D03*
%TO.P,K2,6,D1*%
%TO.N,Net-(K2-D1-Pad6)*%
X-24093300Y787899D03*
D18*
%TO.P,K2,7,D1*%
X-23064600Y622786D03*
%TO.P,K2,8,D2*%
%TO.N,Net-(K2-D2-Pad3)*%
X-23064600Y-346986D03*
%TD*%
D32*
%TO.P,R9,1*%
%TO.N,Net-(K2-D1-Pad6)*%
X-21290184Y9124319D03*
%TO.P,R9,2*%
%TO.N,Net-(U3-Q)*%
X-18546984Y13875681D03*
%TD*%
D33*
%TO.P,U1,1,PWM*%
%TO.N,PWM_DIM*%
X9232844Y19841903D03*
%TO.P,U1,2,ST*%
%TO.N,unconnected-(U1-ST-Pad2)*%
X9632844Y20534724D03*
%TO.P,U1,3,GND*%
%TO.N,LED_GND*%
X10032843Y21227542D03*
%TO.P,U1,4,REF*%
%TO.N,Net-(K1-S1)*%
X10432844Y21920363D03*
%TO.P,U1,5,D*%
%TO.N,unconnected-(U1-D-Pad5)*%
X13767156Y19995297D03*
%TO.P,U1,6,Q*%
%TO.N,Net-(U1-Q)*%
X13367156Y19302476D03*
%TO.P,U1,7,NC*%
%TO.N,unconnected-(U1-NC-Pad7)*%
X12967157Y18609658D03*
%TO.P,U1,8,I*%
%TO.N,+Vs_For_LED_Drivers*%
X12567156Y17916837D03*
D14*
%TO.P,U1,9,EPAD*%
%TO.N,LED_GND*%
X11585074Y21335952D03*
X10315074Y19136248D03*
D34*
X11500000Y19918600D03*
D14*
X12684926Y20700952D03*
X11414926Y18501248D03*
%TD*%
D26*
%TO.P,R1,1*%
%TO.N,Net-(K1-S1)*%
X3823440Y24332071D03*
%TO.P,R1,2*%
%TO.N,LED_GND*%
X3034560Y21387929D03*
%TD*%
D35*
%TO.N,+Vs_For_LED_Drivers*%
X-12446000Y-17145000D03*
X-16891000Y19050000D03*
X16764000Y3175000D03*
X14859000Y-18415000D03*
X-14351000Y3175000D03*
X11684000Y15875000D03*
%TO.N,Net-(K1-S1)*%
X24384000Y1905000D03*
X1524000Y23495000D03*
%TO.N,LED_REF_INV*%
X-19431000Y0D03*
X-27051000Y0D03*
X19939000Y1524000D03*
X18542000Y-3048000D03*
X13462000Y-3048000D03*
X26924000Y0D03*
%TO.N,Net-(U1-Q)*%
X25019000Y5080000D03*
%TO.N,PWM_DIM*%
X9398000Y-22352000D03*
X7874000Y18288000D03*
X-9144000Y-19050000D03*
X-9398000Y22860000D03*
X15748000Y3810000D03*
%TO.N,Net-(U2-Q)*%
X25019000Y-3810000D03*
%TO.N,Net-(K1-S2)*%
X1524000Y-23495000D03*
X21209000Y-1270000D03*
%TO.N,Net-(K2-S1)*%
X-1651000Y23495000D03*
X-21148638Y1680828D03*
%TO.N,Net-(U4-Q)*%
X-25146000Y-3810000D03*
%TO.N,Net-(K2-S2)*%
X-1651000Y-23495000D03*
X-24511000Y-1270000D03*
%TO.N,Net-(U3-Q)*%
X-25146000Y5080000D03*
%TO.N,3V3*%
X-16891000Y3175000D03*
%TO.N,SDA*%
X-2286000Y-18415000D03*
X-381000Y-17145000D03*
X-16256000Y3810000D03*
%TO.N,SCL*%
X-16510000Y-4572000D03*
%TO.N,INT*%
X-17526000Y-4572000D03*
%TD*%
D36*
%TO.N,LED_GND*%
X-15226000Y20100692D02*
X-15205308Y20100692D01*
X15830200Y-19678892D02*
X15322200Y-20186892D01*
X15322200Y-20186892D02*
X14992108Y-20186892D01*
X14992108Y-20186892D02*
X14224000Y-20955000D01*
X-16105900Y19592692D02*
X-15734000Y19592692D01*
X-4594140Y23688371D02*
X-3950440Y24332071D01*
X-6347240Y23688371D02*
X-4594140Y23688371D01*
X-12938974Y20955000D02*
X-12684926Y20700952D01*
X-13231100Y-16602308D02*
X-13138792Y-16510000D01*
X-15205308Y20100692D02*
X-14351000Y20955000D01*
X10883876Y-20534724D02*
X11500000Y-19918600D01*
X-6347240Y23688371D02*
X-6479197Y23688371D01*
X12938974Y-20955000D02*
X12684926Y-20700952D01*
X16202100Y-19678892D02*
X15830200Y-19678892D01*
X14228900Y16221308D02*
X13857000Y16221308D01*
X9632844Y-20534724D02*
X10883876Y-20534724D01*
X-10032843Y-21227542D02*
X-10191058Y-21227542D01*
X-3161560Y-21387929D02*
X-4914660Y-21387929D01*
X-13739100Y-16094308D02*
X-13231100Y-16602308D01*
X4362240Y-23688371D02*
X3718540Y-24332071D01*
X-14111000Y-16094308D02*
X-13739100Y-16094308D01*
X-6479197Y23688371D02*
X-9632844Y20534724D01*
X-15734000Y19592692D02*
X-15226000Y20100692D01*
X-9632844Y20534724D02*
X-10315074Y19852494D01*
X-10191058Y-21227542D02*
X-11500000Y-19918600D01*
X14224000Y-20955000D02*
X12938974Y-20955000D01*
X-13138792Y-16510000D02*
X-12192000Y-16510000D01*
X-4914660Y-21387929D02*
X-5558360Y-20744229D01*
X-11414926Y-17287074D02*
X-11414926Y-18501248D01*
X6347240Y-23688371D02*
X4362240Y-23688371D01*
X13857000Y16221308D02*
X13349000Y16729308D01*
X-10315074Y19852494D02*
X-10315074Y19136248D01*
X-14351000Y20955000D02*
X-12938974Y20955000D01*
X-12192000Y-16510000D02*
X-11414926Y-17287074D01*
%TO.N,+Vs_For_LED_Drivers*%
X-14493145Y19269308D02*
X-13767156Y19995297D01*
X17270000Y2669000D02*
X16764000Y3175000D01*
X14337000Y17052692D02*
X13829000Y17560692D01*
X-12567156Y-17916837D02*
X-12567156Y-17266156D01*
X-14591000Y-16925692D02*
X-14219100Y-16925692D01*
X-16602308Y18761308D02*
X-16891000Y19050000D01*
X15350200Y-18847508D02*
X14842200Y-19355508D01*
X14842200Y-19355508D02*
X14859000Y-19338708D01*
X-14219100Y-16925692D02*
X-13711100Y-17433692D01*
X11684000Y17033681D02*
X12567156Y17916837D01*
X-12567156Y-17916837D02*
X-13227955Y-17916837D01*
X17270000Y1936750D02*
X17270000Y2669000D01*
X14859000Y-19338708D02*
X14859000Y-18415000D01*
X12567156Y17916837D02*
X13472855Y17916837D01*
X-14730000Y2796000D02*
X-14351000Y3175000D01*
X13767156Y-19995297D02*
X14202411Y-19995297D01*
X11684000Y15875000D02*
X11684000Y17033681D01*
X-15254000Y18761308D02*
X-14746000Y19269308D01*
X13472855Y17916837D02*
X13829000Y17560692D01*
X14708900Y17052692D02*
X14337000Y17052692D01*
X14202411Y-19995297D02*
X14842200Y-19355508D01*
X-13227955Y-17916837D02*
X-13711100Y-17433692D01*
X15722100Y-18847508D02*
X15350200Y-18847508D01*
X-14746000Y19269308D02*
X-14493145Y19269308D01*
X-12567156Y-17266156D02*
X-12446000Y-17145000D01*
X-15625900Y18761308D02*
X-16602308Y18761308D01*
X-15625900Y18761308D02*
X-15254000Y18761308D01*
X-14730000Y1936750D02*
X-14730000Y2796000D01*
%TO.N,Net-(K1-S1)*%
X23964100Y787899D02*
X24384000Y1207799D01*
X5703540Y24332071D02*
X6347240Y23688371D01*
X8664836Y23688371D02*
X10432844Y21920363D01*
X1524000Y23495000D02*
X2361071Y24332071D01*
X3823440Y24332071D02*
X5703540Y24332071D01*
X6347240Y23688371D02*
X8664836Y23688371D01*
X24384000Y1207799D02*
X24384000Y1905000D01*
X2361071Y24332071D02*
X3823440Y24332071D01*
D37*
%TO.N,LED_REF_INV*%
X18542000Y-3048000D02*
X18542000Y-2286000D01*
X-19431000Y0D02*
X-19431000Y-510000D01*
X18542000Y-2286000D02*
X18288000Y-2032000D01*
X19939000Y1524000D02*
X19939000Y1145000D01*
X16000000Y-1936750D02*
X14888750Y-3048000D01*
X18923000Y635000D02*
X19429000Y635000D01*
X26164000Y0D02*
X26924000Y0D01*
X19939000Y1145000D02*
X19429000Y635000D01*
X-19431000Y-510000D02*
X-19556000Y-635000D01*
X-26291000Y0D02*
X-27051000Y0D01*
X14888750Y-3048000D02*
X13462000Y-3048000D01*
X18288000Y0D02*
X18923000Y635000D01*
X18288000Y-2032000D02*
X18288000Y0D01*
D36*
%TO.N,Net-(U1-Q)*%
X25019000Y5080000D02*
X25019000Y9525000D01*
X18547000Y13875681D02*
X18547000Y14122632D01*
X23114000Y12700000D02*
X23114000Y13970000D01*
X22479000Y14605000D02*
X19276319Y14605000D01*
X23114000Y13970000D02*
X22479000Y14605000D01*
X23749000Y12065000D02*
X23114000Y12700000D01*
X25019000Y9525000D02*
X23749000Y10795000D01*
X23749000Y10795000D02*
X23749000Y12065000D01*
X19276319Y14605000D02*
X18547000Y13875681D01*
X18547000Y14122632D02*
X13367156Y19302476D01*
D37*
%TO.N,PWM_DIM*%
X-10337637Y21920363D02*
X-9398000Y22860000D01*
X16000000Y3558000D02*
X15748000Y3810000D01*
X9829637Y-21920363D02*
X9398000Y-22352000D01*
X-9144000Y-19753059D02*
X-9144000Y-19050000D01*
X10432844Y-21920363D02*
X9829637Y-21920363D01*
X16000000Y1936750D02*
X16000000Y3558000D01*
X9232844Y19646844D02*
X7874000Y18288000D01*
X-10432844Y21920363D02*
X-10337637Y21920363D01*
X9232844Y19841903D02*
X9232844Y19646844D01*
X-9232844Y-19841903D02*
X-9144000Y-19753059D01*
D36*
%TO.N,Net-(U2-Q)*%
X23749000Y-10160000D02*
X23749000Y-11430000D01*
X23114000Y-12065000D02*
X23114000Y-13335000D01*
X23114000Y-13335000D02*
X21844000Y-14605000D01*
X25019000Y-3810000D02*
X25019000Y-8890000D01*
X13813007Y-18609658D02*
X12967157Y-18609658D01*
X19276303Y-14605000D02*
X18546984Y-13875681D01*
X23749000Y-11430000D02*
X23114000Y-12065000D01*
X18546984Y-13875681D02*
X13813007Y-18609658D01*
X21844000Y-14605000D02*
X19276303Y-14605000D01*
X25019000Y-8890000D02*
X23749000Y-10160000D01*
%TO.N,Net-(K1-S2)*%
X2929660Y-21387929D02*
X4914660Y-21387929D01*
X21906700Y-512099D02*
X21906700Y-572300D01*
X21906700Y-572300D02*
X21209000Y-1270000D01*
X5558360Y-20744229D02*
X8330518Y-20744229D01*
X1524000Y-22225000D02*
X2361071Y-21387929D01*
X2361071Y-21387929D02*
X2929660Y-21387929D01*
X1524000Y-23495000D02*
X1524000Y-22225000D01*
X4914660Y-21387929D02*
X5558360Y-20744229D01*
X8330518Y-20744229D02*
X9232844Y-19841903D01*
%TO.N,Net-(K2-S1)*%
X-2488071Y21387929D02*
X-3161560Y21387929D01*
X-5558360Y20744229D02*
X-3805260Y20744229D01*
X-22035900Y787899D02*
X-22035900Y793566D01*
X-1651000Y22225000D02*
X-2488071Y21387929D01*
X-1651000Y23495000D02*
X-1651000Y22225000D01*
X-9232844Y19841903D02*
X-6460686Y19841903D01*
X-22035900Y793566D02*
X-21148638Y1680828D01*
X-3805260Y20744229D02*
X-3161560Y21387929D01*
X-6460686Y19841903D02*
X-5558360Y20744229D01*
%TO.N,Net-(U4-Q)*%
X-19276303Y-14605000D02*
X-18546984Y-13875681D01*
X-25146000Y-3810000D02*
X-25146000Y-8890000D01*
X-23876000Y-11430000D02*
X-23241000Y-12065000D01*
X-18546984Y-13875681D02*
X-13367156Y-19055509D01*
X-25146000Y-8890000D02*
X-23876000Y-10160000D01*
X-13367156Y-19055509D02*
X-13367156Y-19302476D01*
X-21971000Y-14605000D02*
X-19276303Y-14605000D01*
X-23241000Y-13335000D02*
X-21971000Y-14605000D01*
X-23876000Y-10160000D02*
X-23876000Y-11430000D01*
X-23241000Y-12065000D02*
X-23241000Y-13335000D01*
%TO.N,Net-(K2-S2)*%
X-24093300Y-512099D02*
X-24093300Y-852300D01*
X-24093300Y-852300D02*
X-24511000Y-1270000D01*
X-3950440Y-24332071D02*
X-2488071Y-24332071D01*
X-6347240Y-23688371D02*
X-8664836Y-23688371D01*
X-8664836Y-23688371D02*
X-10432844Y-21920363D01*
X-4594140Y-23688371D02*
X-3950440Y-24332071D01*
X-6347240Y-23688371D02*
X-4594140Y-23688371D01*
X-2488071Y-24332071D02*
X-1651000Y-23495000D01*
%TO.N,Net-(U3-Q)*%
X-14986000Y17145000D02*
X-13521342Y18609658D01*
X-13521342Y18609658D02*
X-12967157Y18609658D01*
X-23876000Y10160000D02*
X-23876000Y12065000D01*
X-21336000Y15240000D02*
X-19911303Y15240000D01*
X-25146000Y8890000D02*
X-23876000Y10160000D01*
X-25146000Y5080000D02*
X-25146000Y8890000D01*
X-23876000Y12065000D02*
X-23241000Y12700000D01*
X-15990081Y17145000D02*
X-14986000Y17145000D01*
X-19911303Y15240000D02*
X-18546984Y13875681D01*
X-23241000Y12700000D02*
X-23241000Y13335000D01*
X-23241000Y13335000D02*
X-21336000Y15240000D01*
X-19329400Y13805681D02*
X-15990081Y17145000D01*
%TO.N,3V3*%
X-17270000Y1936750D02*
X-17270000Y2796000D01*
X-17270000Y2796000D02*
X-16891000Y3175000D01*
D37*
%TO.N,SDA*%
X-16000000Y1936750D02*
X-16256000Y2192750D01*
X-16256000Y2192750D02*
X-16256000Y3810000D01*
%TO.N,SCL*%
X-16510000Y-4572000D02*
X-16000000Y-4062000D01*
X-16000000Y-4062000D02*
X-16000000Y-1936750D01*
%TO.N,INT*%
X-17526000Y-4572000D02*
X-17270000Y-4316000D01*
X-17270000Y-4316000D02*
X-17270000Y-1936750D01*
D36*
%TO.N,Net-(K1-D2-Pad3)*%
X23798987Y-346986D02*
X23964100Y-512099D01*
X22935400Y-346986D02*
X23798987Y-346986D01*
X22935400Y-7479103D02*
X22935400Y-346986D01*
X21290184Y-9124319D02*
X22935400Y-7479103D01*
%TO.N,Net-(K1-D1-Pad6)*%
X22935400Y7479119D02*
X22935400Y622786D01*
X22935400Y622786D02*
X22071813Y622786D01*
X21290200Y9124319D02*
X22935400Y7479119D01*
X22071813Y622786D02*
X21906700Y787899D01*
%TO.N,Net-(K2-D2-Pad3)*%
X-22201013Y-346986D02*
X-22035900Y-512099D01*
X-23064600Y-7349903D02*
X-23064600Y-346986D01*
X-21290184Y-9124319D02*
X-23064600Y-7349903D01*
X-23064600Y-346986D02*
X-22201013Y-346986D01*
%TO.N,Net-(K2-D1-Pad6)*%
X-23064600Y8062319D02*
X-23064600Y622786D01*
X-23928187Y622786D02*
X-24093300Y787899D01*
X-23064600Y622786D02*
X-23928187Y622786D01*
X-22072600Y9054319D02*
X-23064600Y8062319D01*
%TO.N,Net-(K1-G2)*%
X21906700Y137900D02*
X20946100Y137900D01*
X20946100Y137900D02*
X20449000Y635000D01*
%TO.N,Net-(K1-G1)*%
X25006100Y137900D02*
X25144000Y0D01*
X23964100Y137900D02*
X25006100Y137900D01*
%TO.N,Net-(K2-G2)*%
X-24093300Y137900D02*
X-25133100Y137900D01*
X-25133100Y137900D02*
X-25271000Y0D01*
%TO.N,Net-(K2-G1)*%
X-22035900Y137900D02*
X-21348900Y137900D01*
X-21348900Y137900D02*
X-20576000Y-635000D01*
%TD*%
%TA.AperFunction,Conductor*%
%TO.N,LED_GND*%
G36*
X821822Y28730129D02*
G01*
X1073663Y28725419D01*
X1075975Y28725333D01*
X2147008Y28665186D01*
X2149298Y28665014D01*
X2531873Y28629139D01*
X3217315Y28564862D01*
X3219619Y28564603D01*
X4283138Y28424589D01*
X4285431Y28424243D01*
X5342977Y28244559D01*
X5345255Y28244128D01*
X6395343Y28025026D01*
X6397604Y28024510D01*
X7438747Y27766302D01*
X7440986Y27765702D01*
X8471776Y27468737D01*
X8473992Y27468053D01*
X9492945Y27132756D01*
X9495134Y27131991D01*
X10500815Y26758837D01*
X10502974Y26757990D01*
X11494018Y26347485D01*
X11496143Y26346558D01*
X12471150Y25899284D01*
X12473239Y25898278D01*
X13430836Y25414860D01*
X13432886Y25413777D01*
X14371742Y24894889D01*
X14373750Y24893729D01*
X15292524Y24340114D01*
X15294488Y24338880D01*
X16191966Y23751269D01*
X16193882Y23749962D01*
X16402838Y23601700D01*
X17068725Y23129226D01*
X17070558Y23127873D01*
X17215363Y23016762D01*
X17921611Y22474838D01*
X17923424Y22473392D01*
X18424477Y22058254D01*
X18749436Y21789014D01*
X18751178Y21787515D01*
X19551058Y21072699D01*
X19552757Y21071122D01*
X20325302Y20326942D01*
X20326942Y20325302D01*
X21071122Y19552757D01*
X21072699Y19551058D01*
X21787515Y18751178D01*
X21789014Y18749436D01*
X22017176Y18474056D01*
X22473392Y17923424D01*
X22474838Y17921611D01*
X22964251Y17283796D01*
X23113967Y17088682D01*
X23127867Y17070568D01*
X23129226Y17068725D01*
X23495416Y16552631D01*
X23749962Y16193882D01*
X23751269Y16191966D01*
X24338880Y15294488D01*
X24340114Y15292524D01*
X24893729Y14373750D01*
X24894889Y14371742D01*
X25413777Y13432886D01*
X25414860Y13430836D01*
X25898278Y12473239D01*
X25899284Y12471150D01*
X26346558Y11496143D01*
X26347485Y11494018D01*
X26757990Y10502974D01*
X26758837Y10500815D01*
X27131991Y9495134D01*
X27132756Y9492945D01*
X27468053Y8473992D01*
X27468737Y8471776D01*
X27765702Y7440986D01*
X27766302Y7438747D01*
X28024510Y6397604D01*
X28025026Y6395343D01*
X28244128Y5345255D01*
X28244559Y5342977D01*
X28424243Y4285431D01*
X28424589Y4283138D01*
X28564603Y3219619D01*
X28564862Y3217315D01*
X28623835Y2588433D01*
X28659757Y2205364D01*
X28665013Y2149321D01*
X28665186Y2147008D01*
X28725333Y1075975D01*
X28725419Y1073663D01*
X28726188Y1032600D01*
X28745478Y1159D01*
X28745478Y-1159D01*
X28734830Y-570500D01*
X28726024Y-1041385D01*
X28725420Y-1073658D01*
X28725333Y-1075975D01*
X28665186Y-2147008D01*
X28665014Y-2149298D01*
X28637537Y-2442318D01*
X28564862Y-3217315D01*
X28564603Y-3219619D01*
X28424589Y-4283138D01*
X28424243Y-4285431D01*
X28244559Y-5342977D01*
X28244128Y-5345255D01*
X28025026Y-6395343D01*
X28024510Y-6397604D01*
X27766302Y-7438747D01*
X27765702Y-7440986D01*
X27468737Y-8471776D01*
X27468053Y-8473992D01*
X27132756Y-9492945D01*
X27131991Y-9495134D01*
X26758837Y-10500815D01*
X26757990Y-10502974D01*
X26347485Y-11494018D01*
X26346558Y-11496143D01*
X25899284Y-12471150D01*
X25898278Y-12473239D01*
X25414860Y-13430836D01*
X25413777Y-13432886D01*
X24894889Y-14371742D01*
X24893729Y-14373750D01*
X24340114Y-15292524D01*
X24338880Y-15294488D01*
X23751269Y-16191966D01*
X23749962Y-16193882D01*
X23614156Y-16385283D01*
X23129226Y-17068725D01*
X23127873Y-17070558D01*
X23120170Y-17080599D01*
X22474838Y-17921611D01*
X22473392Y-17923424D01*
X22091532Y-18384312D01*
X21789014Y-18749436D01*
X21787515Y-18751178D01*
X21072699Y-19551058D01*
X21071122Y-19552757D01*
X20326942Y-20325302D01*
X20325302Y-20326942D01*
X19552757Y-21071122D01*
X19551058Y-21072699D01*
X18751178Y-21787515D01*
X18749436Y-21789014D01*
X18514591Y-21983592D01*
X17923424Y-22473392D01*
X17921611Y-22474838D01*
X17319253Y-22937044D01*
X17102320Y-23103503D01*
X17070568Y-23127867D01*
X17068725Y-23129226D01*
X16672541Y-23410335D01*
X16193882Y-23749962D01*
X16191966Y-23751269D01*
X15294488Y-24338880D01*
X15292524Y-24340114D01*
X14373750Y-24893729D01*
X14371742Y-24894889D01*
X13432886Y-25413777D01*
X13430836Y-25414860D01*
X12473239Y-25898278D01*
X12471150Y-25899284D01*
X11496143Y-26346558D01*
X11494018Y-26347485D01*
X10502974Y-26757990D01*
X10500815Y-26758837D01*
X9495134Y-27131991D01*
X9492945Y-27132756D01*
X8473992Y-27468053D01*
X8471776Y-27468737D01*
X7440986Y-27765702D01*
X7438747Y-27766302D01*
X6397604Y-28024510D01*
X6395343Y-28025026D01*
X5345255Y-28244128D01*
X5342977Y-28244559D01*
X4285431Y-28424243D01*
X4283138Y-28424589D01*
X3219619Y-28564603D01*
X3217315Y-28564862D01*
X2531873Y-28629139D01*
X2149298Y-28665014D01*
X2147008Y-28665186D01*
X1075975Y-28725333D01*
X1073663Y-28725419D01*
X821822Y-28730129D01*
X1159Y-28745478D01*
X-1159Y-28745478D01*
X-821822Y-28730129D01*
X-1073663Y-28725419D01*
X-1075975Y-28725333D01*
X-2147008Y-28665186D01*
X-2149298Y-28665014D01*
X-2531873Y-28629139D01*
X-3217315Y-28564862D01*
X-3219619Y-28564603D01*
X-4283138Y-28424589D01*
X-4285431Y-28424243D01*
X-5342977Y-28244559D01*
X-5345255Y-28244128D01*
X-6395343Y-28025026D01*
X-6397604Y-28024510D01*
X-7438747Y-27766302D01*
X-7440986Y-27765702D01*
X-8471776Y-27468737D01*
X-8473992Y-27468053D01*
X-9492945Y-27132756D01*
X-9495134Y-27131991D01*
X-10500815Y-26758837D01*
X-10502974Y-26757990D01*
X-11494018Y-26347485D01*
X-11496143Y-26346558D01*
X-12251600Y-26000000D01*
X-1859237Y-26000000D01*
X-1840313Y-26264597D01*
X-1840312Y-26264601D01*
X-1840312Y-26264602D01*
X-1822379Y-26347040D01*
X-1783925Y-26523808D01*
X-1691221Y-26772355D01*
X-1691218Y-26772359D01*
X-1691218Y-26772361D01*
X-1681014Y-26791048D01*
X-1564090Y-27005179D01*
X-1405118Y-27217541D01*
X-1217541Y-27405118D01*
X-1005179Y-27564090D01*
X-772360Y-27691218D01*
X-772359Y-27691218D01*
X-772355Y-27691221D01*
X-523808Y-27783925D01*
X-264597Y-27840313D01*
X-26508Y-27857341D01*
X-1Y-27859237D01*
X0Y-27859237D01*
X1Y-27859237D01*
X26508Y-27857341D01*
X264597Y-27840313D01*
X523808Y-27783925D01*
X772355Y-27691221D01*
X772359Y-27691218D01*
X772361Y-27691218D01*
X888767Y-27627655D01*
X1005179Y-27564090D01*
X1217541Y-27405118D01*
X1405118Y-27217541D01*
X1564090Y-27005179D01*
X1579270Y-26977379D01*
X2104674Y-26977379D01*
X2123025Y-27163710D01*
X2123026Y-27163712D01*
X2177377Y-27342881D01*
X2265635Y-27508002D01*
X2265637Y-27508005D01*
X2384415Y-27652736D01*
X2529146Y-27771514D01*
X2529149Y-27771516D01*
X2657859Y-27840312D01*
X2694272Y-27859775D01*
X2873439Y-27914125D01*
X2873441Y-27914126D01*
X2890147Y-27915771D01*
X3059773Y-27932478D01*
X3246104Y-27914126D01*
X3425274Y-27859775D01*
X3590398Y-27771515D01*
X3735130Y-27652736D01*
X3853909Y-27508004D01*
X3942169Y-27342880D01*
X3996520Y-27163710D01*
X4014872Y-26977379D01*
X3996520Y-26791048D01*
X3942169Y-26611878D01*
X3853909Y-26446754D01*
X3853908Y-26446752D01*
X3735130Y-26302021D01*
X3590399Y-26183243D01*
X3590396Y-26183241D01*
X3425275Y-26094983D01*
X3246106Y-26040632D01*
X3246104Y-26040631D01*
X3059773Y-26022280D01*
X2873441Y-26040631D01*
X2873439Y-26040632D01*
X2694270Y-26094983D01*
X2529149Y-26183241D01*
X2529146Y-26183243D01*
X2384415Y-26302021D01*
X2265637Y-26446752D01*
X2265635Y-26446755D01*
X2177377Y-26611876D01*
X2123026Y-26791045D01*
X2123025Y-26791047D01*
X2104674Y-26977379D01*
X1579270Y-26977379D01*
X1681014Y-26791048D01*
X1691218Y-26772361D01*
X1691218Y-26772359D01*
X1691221Y-26772355D01*
X1783925Y-26523808D01*
X1822379Y-26347040D01*
X1840312Y-26264602D01*
X1840312Y-26264601D01*
X1840313Y-26264597D01*
X1859237Y-26000000D01*
X1840313Y-25735403D01*
X1832821Y-25700964D01*
X1783927Y-25476200D01*
X1783926Y-25476198D01*
X1783925Y-25476192D01*
X1691221Y-25227645D01*
X1691219Y-25227642D01*
X1691218Y-25227638D01*
X1564093Y-24994826D01*
X1564088Y-24994818D01*
X1405124Y-24782466D01*
X1405108Y-24782448D01*
X1366978Y-24744318D01*
X2662969Y-24744318D01*
X2781618Y-25187120D01*
X2814503Y-25253806D01*
X2889276Y-25319379D01*
X2889277Y-25319380D01*
X2983457Y-25351351D01*
X3057641Y-25346488D01*
X3807130Y-25145663D01*
X3630150Y-24485163D01*
X2662969Y-24744318D01*
X1366978Y-24744318D01*
X1217551Y-24594891D01*
X1217533Y-24594875D01*
X1005181Y-24435911D01*
X1005173Y-24435906D01*
X772360Y-24308781D01*
X772361Y-24308781D01*
X672936Y-24271697D01*
X523808Y-24216075D01*
X523805Y-24216074D01*
X523799Y-24216072D01*
X264602Y-24159687D01*
X1Y-24140763D01*
X-1Y-24140763D01*
X-264602Y-24159687D01*
X-523799Y-24216072D01*
X-523805Y-24216074D01*
X-523808Y-24216075D01*
X-672936Y-24271697D01*
X-772361Y-24308781D01*
X-1005173Y-24435906D01*
X-1005181Y-24435911D01*
X-1217533Y-24594875D01*
X-1217551Y-24594891D01*
X-1405108Y-24782448D01*
X-1405124Y-24782466D01*
X-1564088Y-24994818D01*
X-1564093Y-24994826D01*
X-1691218Y-25227638D01*
X-1691219Y-25227642D01*
X-1691221Y-25227645D01*
X-1783925Y-25476192D01*
X-1783926Y-25476198D01*
X-1783927Y-25476200D01*
X-1832821Y-25700964D01*
X-1840313Y-25735403D01*
X-1859237Y-26000000D01*
X-12251600Y-26000000D01*
X-12471150Y-25899284D01*
X-12473239Y-25898278D01*
X-13430836Y-25414860D01*
X-13432886Y-25413777D01*
X-14350142Y-24906827D01*
X-11871478Y-24906827D01*
X-11853126Y-25093158D01*
X-11798775Y-25272328D01*
X-11710515Y-25437452D01*
X-11591736Y-25582184D01*
X-11447004Y-25700963D01*
X-11281880Y-25789223D01*
X-11102710Y-25843574D01*
X-10916379Y-25861926D01*
X-10748399Y-25845381D01*
X-10730047Y-25843574D01*
X-10730045Y-25843573D01*
X-10550878Y-25789223D01*
X-10550876Y-25789222D01*
X-10385755Y-25700964D01*
X-10385752Y-25700962D01*
X-10241021Y-25582184D01*
X-10122243Y-25437453D01*
X-10122241Y-25437450D01*
X-10033983Y-25272329D01*
X-9979632Y-25093160D01*
X-9979631Y-25093158D01*
X-9961280Y-24906827D01*
X-9979631Y-24720495D01*
X-9979632Y-24720493D01*
X-10033983Y-24541324D01*
X-10122241Y-24376203D01*
X-10122243Y-24376200D01*
X-10241021Y-24231469D01*
X-10385752Y-24112691D01*
X-10385755Y-24112689D01*
X-10550876Y-24024431D01*
X-10730045Y-23970080D01*
X-10730047Y-23970079D01*
X-10916379Y-23951728D01*
X-11102710Y-23970079D01*
X-11102712Y-23970080D01*
X-11281881Y-24024431D01*
X-11447002Y-24112689D01*
X-11447005Y-24112691D01*
X-11591736Y-24231469D01*
X-11710514Y-24376200D01*
X-11710516Y-24376203D01*
X-11781958Y-24509864D01*
X-11798775Y-24541326D01*
X-11853126Y-24720496D01*
X-11871478Y-24906827D01*
X-14350142Y-24906827D01*
X-14371742Y-24894889D01*
X-14373750Y-24893729D01*
X-15292524Y-24340114D01*
X-15294488Y-24338880D01*
X-16191966Y-23751269D01*
X-16193882Y-23749962D01*
X-16672541Y-23410335D01*
X-17068725Y-23129226D01*
X-17070568Y-23127867D01*
X-17102320Y-23103503D01*
X-17319253Y-22937044D01*
X-17921611Y-22474838D01*
X-17923424Y-22473392D01*
X-18514591Y-21983592D01*
X-18749436Y-21789014D01*
X-18751178Y-21787515D01*
X-19076665Y-21496642D01*
X-12266744Y-21496642D01*
X-12173346Y-21550567D01*
X-12125131Y-21601134D01*
X-12120785Y-21610504D01*
X-12109172Y-21638540D01*
X-12012998Y-21763876D01*
X-11887660Y-21860052D01*
X-11741708Y-21920506D01*
X-11741704Y-21920507D01*
X-11585075Y-21941128D01*
X-11554988Y-21937167D01*
X-11485953Y-21947931D01*
X-11476799Y-21952720D01*
X-11401054Y-21996452D01*
X-11401045Y-21996456D01*
X-11330645Y-22020354D01*
X-11231398Y-22013850D01*
X-11226101Y-22011238D01*
X-11157269Y-21999240D01*
X-11092878Y-22026360D01*
X-11089555Y-22029170D01*
X-11078324Y-22039020D01*
X-10547626Y-22345417D01*
X-10521953Y-22365117D01*
X-8968543Y-23918528D01*
X-8952417Y-23938387D01*
X-8946412Y-23947580D01*
X-8918209Y-23969530D01*
X-8912481Y-23974590D01*
X-8909650Y-23977423D01*
X-8894975Y-23987899D01*
X-8891575Y-23990328D01*
X-8889533Y-23991850D01*
X-8846991Y-24024963D01*
X-8846988Y-24024963D01*
X-8840055Y-24028715D01*
X-8832929Y-24032199D01*
X-8832925Y-24032203D01*
X-8781238Y-24047590D01*
X-8778833Y-24048360D01*
X-8727830Y-24065871D01*
X-8727829Y-24065871D01*
X-8720036Y-24067171D01*
X-8712178Y-24068151D01*
X-8712176Y-24068152D01*
X-8712172Y-24068151D01*
X-8712172Y-24068152D01*
X-8666392Y-24066258D01*
X-8658312Y-24065923D01*
X-8655751Y-24065871D01*
X-7667556Y-24065871D01*
X-7600517Y-24085556D01*
X-7567695Y-24119975D01*
X-7567551Y-24119849D01*
X-7564508Y-24123317D01*
X-7560171Y-24127867D01*
X-7559500Y-24129026D01*
X-7559499Y-24129031D01*
X-7493791Y-24203956D01*
X-7426976Y-24236906D01*
X-5686428Y-24703284D01*
X-5612090Y-24708156D01*
X-5517723Y-24676124D01*
X-5478722Y-24641920D01*
X-5442800Y-24610418D01*
X-5435143Y-24594891D01*
X-5427287Y-24578962D01*
X-5379983Y-24527545D01*
X-5312387Y-24509864D01*
X-5245963Y-24531535D01*
X-5201800Y-24585677D01*
X-5192343Y-24641919D01*
X-5194732Y-24678364D01*
X-5162699Y-24772731D01*
X-5096991Y-24847656D01*
X-5030176Y-24880606D01*
X-3289628Y-25346984D01*
X-3215290Y-25351856D01*
X-3120923Y-25319824D01*
X-3066765Y-25272328D01*
X-3046000Y-25254118D01*
X-3032945Y-25227645D01*
X-3013049Y-25187301D01*
X-3013000Y-25187120D01*
X-2909668Y-24801477D01*
X-2873303Y-24741817D01*
X-2810456Y-24711288D01*
X-2789893Y-24709571D01*
X-2540082Y-24709571D01*
X-2514636Y-24712210D01*
X-2503887Y-24714464D01*
X-2485805Y-24712210D01*
X-2468454Y-24710048D01*
X-2460778Y-24709571D01*
X-2456795Y-24709571D01*
X-2456790Y-24709571D01*
X-2434902Y-24705918D01*
X-2432363Y-24705549D01*
X-2411073Y-24702895D01*
X-2378868Y-24698881D01*
X-2378866Y-24698880D01*
X-2378865Y-24698880D01*
X-2371317Y-24696633D01*
X-2363807Y-24694054D01*
X-2363802Y-24694054D01*
X-2316364Y-24668381D01*
X-2314149Y-24667241D01*
X-2265682Y-24643547D01*
X-2265680Y-24643545D01*
X-2265677Y-24643544D01*
X-2259258Y-24638961D01*
X-2252997Y-24634089D01*
X-2216472Y-24594412D01*
X-2214697Y-24592562D01*
X-1998335Y-24376200D01*
X-1757698Y-24135564D01*
X-1696378Y-24102081D01*
X-1653830Y-24100309D01*
X-1651000Y-24100682D01*
X-1494238Y-24080044D01*
X-1348159Y-24019536D01*
X-1222718Y-23923282D01*
X-1126464Y-23797841D01*
X-1125287Y-23795001D01*
X-1065956Y-23651762D01*
X-1065955Y-23651760D01*
X-1045318Y-23495001D01*
X918318Y-23495001D01*
X938955Y-23651760D01*
X938956Y-23651762D01*
X998287Y-23795001D01*
X999464Y-23797841D01*
X1095718Y-23923282D01*
X1221159Y-24019536D01*
X1367238Y-24080044D01*
X1409106Y-24085556D01*
X1523999Y-24100682D01*
X1524000Y-24100682D01*
X1524001Y-24100682D01*
X1587463Y-24092327D01*
X1680762Y-24080044D01*
X1826841Y-24019536D01*
X1952282Y-23923282D01*
X2048536Y-23797841D01*
X2109044Y-23651762D01*
X2129682Y-23495000D01*
X2109044Y-23338238D01*
X2048536Y-23192159D01*
X1952282Y-23066718D01*
X1952280Y-23066716D01*
X1952279Y-23066715D01*
X1950012Y-23064976D01*
X1948581Y-23063016D01*
X1946532Y-23060967D01*
X1946851Y-23060647D01*
X1908810Y-23008547D01*
X1901500Y-22966601D01*
X1901500Y-22475150D01*
X1921185Y-22408111D01*
X1973989Y-22362356D01*
X2043147Y-22352412D01*
X2087724Y-22372769D01*
X2089569Y-22369576D01*
X2100139Y-22375678D01*
X2100143Y-22375682D01*
X2194510Y-22407714D01*
X2244092Y-22404464D01*
X2312273Y-22419723D01*
X2361383Y-22469421D01*
X2371974Y-22496106D01*
X2681613Y-23651697D01*
X2679950Y-23721546D01*
X2640788Y-23779409D01*
X2616685Y-23795001D01*
X2572297Y-23816891D01*
X2506723Y-23891664D01*
X2506721Y-23891668D01*
X2474754Y-23985840D01*
X2479616Y-24060038D01*
X2598265Y-24502837D01*
X2905705Y-24420459D01*
X3871632Y-24420459D01*
X4048613Y-25080958D01*
X4798094Y-24880136D01*
X4798098Y-24880135D01*
X4864782Y-24847249D01*
X4930356Y-24772477D01*
X4930358Y-24772473D01*
X4962325Y-24678301D01*
X4957463Y-24604108D01*
X4838813Y-24161303D01*
X3871632Y-24420459D01*
X2905705Y-24420459D01*
X3806922Y-24178979D01*
X3806928Y-24178977D01*
X4099368Y-24100618D01*
X5291669Y-24100618D01*
X5410318Y-24543420D01*
X5443203Y-24610106D01*
X5517976Y-24675679D01*
X5517977Y-24675680D01*
X5612157Y-24707651D01*
X5686341Y-24702788D01*
X6435830Y-24501963D01*
X6258850Y-23841463D01*
X5291669Y-24100618D01*
X4099368Y-24100618D01*
X4774109Y-23919822D01*
X4655461Y-23477022D01*
X4622576Y-23410335D01*
X4547803Y-23344762D01*
X4547802Y-23344761D01*
X4453624Y-23312791D01*
X4404241Y-23316028D01*
X4336058Y-23300769D01*
X4286948Y-23251071D01*
X4276359Y-23224391D01*
X3991694Y-22162005D01*
X3966718Y-22068794D01*
X3968381Y-21998945D01*
X4007543Y-21941082D01*
X4031641Y-21925493D01*
X4076211Y-21903514D01*
X4141919Y-21828589D01*
X4141920Y-21828584D01*
X4142591Y-21827425D01*
X4144716Y-21825398D01*
X4149971Y-21819407D01*
X4150507Y-21819877D01*
X4193160Y-21779211D01*
X4249976Y-21765429D01*
X4862649Y-21765429D01*
X4888086Y-21768066D01*
X4898844Y-21770322D01*
X4898846Y-21770321D01*
X4908827Y-21772414D01*
X4970401Y-21805436D01*
X5003159Y-21861682D01*
X5310313Y-23007996D01*
X5308650Y-23077846D01*
X5269488Y-23135709D01*
X5245385Y-23151301D01*
X5200997Y-23173191D01*
X5135423Y-23247964D01*
X5135421Y-23247968D01*
X5103454Y-23342140D01*
X5108316Y-23416338D01*
X5226965Y-23859137D01*
X5534405Y-23776759D01*
X6500332Y-23776759D01*
X6677313Y-24437258D01*
X7426794Y-24236436D01*
X7426798Y-24236435D01*
X7493482Y-24203549D01*
X7559056Y-24128777D01*
X7559058Y-24128773D01*
X7591025Y-24034601D01*
X7586163Y-23960408D01*
X7467513Y-23517603D01*
X6500332Y-23776759D01*
X5534405Y-23776759D01*
X6435622Y-23535279D01*
X6435628Y-23535277D01*
X7402809Y-23276122D01*
X7284161Y-22833322D01*
X7251276Y-22766635D01*
X7176503Y-22701062D01*
X7176502Y-22701061D01*
X7082324Y-22669091D01*
X7032941Y-22672328D01*
X6964758Y-22657069D01*
X6915648Y-22607371D01*
X6905059Y-22580691D01*
X6595417Y-21425094D01*
X6597081Y-21355245D01*
X6636243Y-21297382D01*
X6660341Y-21281793D01*
X6704911Y-21259814D01*
X6770619Y-21184889D01*
X6770620Y-21184884D01*
X6771291Y-21183725D01*
X6773416Y-21181698D01*
X6778671Y-21175707D01*
X6779207Y-21176177D01*
X6821860Y-21135511D01*
X6878676Y-21121729D01*
X8278507Y-21121729D01*
X8303952Y-21124368D01*
X8314702Y-21126622D01*
X8334382Y-21124168D01*
X8350135Y-21122206D01*
X8357811Y-21121729D01*
X8361796Y-21121729D01*
X8361799Y-21121729D01*
X8383741Y-21118066D01*
X8386181Y-21117712D01*
X8439721Y-21111039D01*
X8439728Y-21111035D01*
X8447298Y-21108782D01*
X8454781Y-21106212D01*
X8454787Y-21106212D01*
X8502232Y-21080534D01*
X8504447Y-21079394D01*
X8552907Y-21055705D01*
X8552909Y-21055702D01*
X8552911Y-21055702D01*
X8559341Y-21051111D01*
X8565583Y-21046252D01*
X8565589Y-21046249D01*
X8602141Y-21006541D01*
X8603842Y-21004768D01*
X8794979Y-20813631D01*
X8856298Y-20780149D01*
X8914750Y-20781540D01*
X8942476Y-20788969D01*
X9571209Y-20425970D01*
X9639109Y-20409497D01*
X9705136Y-20432350D01*
X9740595Y-20471356D01*
X9741595Y-20473088D01*
X9758069Y-20540988D01*
X9735217Y-20607015D01*
X9696209Y-20642476D01*
X9067475Y-21005475D01*
X9067475Y-21005476D01*
X9104786Y-21070100D01*
X9104791Y-21070107D01*
X9153809Y-21126001D01*
X9153808Y-21126001D01*
X9216493Y-21156914D01*
X9267913Y-21204219D01*
X9285594Y-21271815D01*
X9285384Y-21276234D01*
X9280758Y-21346826D01*
X9304705Y-21417369D01*
X9304705Y-21417370D01*
X9350473Y-21496642D01*
X9381606Y-21550567D01*
X9395008Y-21573779D01*
X9411481Y-21641679D01*
X9388628Y-21707706D01*
X9333707Y-21750897D01*
X9303808Y-21758718D01*
X9241238Y-21766956D01*
X9241237Y-21766956D01*
X9095160Y-21827463D01*
X8969718Y-21923718D01*
X8873463Y-22049160D01*
X8812956Y-22195237D01*
X8812955Y-22195239D01*
X8792318Y-22351998D01*
X8792318Y-22352001D01*
X8812955Y-22508760D01*
X8812956Y-22508762D01*
X8867256Y-22639855D01*
X8873464Y-22654841D01*
X8969718Y-22780282D01*
X9095159Y-22876536D01*
X9241238Y-22937044D01*
X9319619Y-22947363D01*
X9397999Y-22957682D01*
X9398000Y-22957682D01*
X9398001Y-22957682D01*
X9450254Y-22950802D01*
X9554762Y-22937044D01*
X9700841Y-22876536D01*
X9826282Y-22780282D01*
X9922536Y-22654841D01*
X9931521Y-22633148D01*
X9975358Y-22578745D01*
X10041652Y-22556678D01*
X10054181Y-22556863D01*
X10142320Y-22562640D01*
X10212864Y-22538694D01*
X11078324Y-22039020D01*
X11089497Y-22029220D01*
X11152874Y-21999819D01*
X11222091Y-22009349D01*
X11226101Y-22011238D01*
X11231398Y-22013850D01*
X11330645Y-22020354D01*
X11401045Y-21996456D01*
X11401054Y-21996452D01*
X11476799Y-21952720D01*
X11544698Y-21936246D01*
X11554988Y-21937167D01*
X11585075Y-21941128D01*
X11741704Y-21920507D01*
X11741708Y-21920506D01*
X11887660Y-21860052D01*
X11988917Y-21782354D01*
X15243801Y-21782354D01*
X15262152Y-21968685D01*
X15262153Y-21968687D01*
X15316504Y-22147856D01*
X15404762Y-22312977D01*
X15404764Y-22312980D01*
X15523542Y-22457711D01*
X15668273Y-22576489D01*
X15668276Y-22576491D01*
X15814860Y-22654841D01*
X15833399Y-22664750D01*
X15953103Y-22701062D01*
X16012566Y-22719100D01*
X16012568Y-22719101D01*
X16029274Y-22720746D01*
X16198900Y-22737453D01*
X16385231Y-22719101D01*
X16564401Y-22664750D01*
X16729525Y-22576490D01*
X16874257Y-22457711D01*
X16993036Y-22312979D01*
X17081296Y-22147855D01*
X17135647Y-21968685D01*
X17153999Y-21782354D01*
X17135647Y-21596023D01*
X17081296Y-21416853D01*
X17057184Y-21371742D01*
X16993037Y-21251730D01*
X16993035Y-21251727D01*
X16874257Y-21106996D01*
X16729526Y-20988218D01*
X16729523Y-20988216D01*
X16564402Y-20899958D01*
X16385233Y-20845607D01*
X16385231Y-20845606D01*
X16198900Y-20827255D01*
X16012568Y-20845606D01*
X16012566Y-20845607D01*
X15833397Y-20899958D01*
X15668276Y-20988216D01*
X15668273Y-20988218D01*
X15523542Y-21106996D01*
X15404764Y-21251727D01*
X15404762Y-21251730D01*
X15316504Y-21416851D01*
X15262153Y-21596020D01*
X15262152Y-21596022D01*
X15243801Y-21782354D01*
X11988917Y-21782354D01*
X12012998Y-21763876D01*
X12109172Y-21638540D01*
X12120785Y-21610504D01*
X12164624Y-21556100D01*
X12173346Y-21550567D01*
X12266744Y-21496642D01*
X11337410Y-19886987D01*
X11337408Y-19886981D01*
X10516746Y-18465555D01*
X10516745Y-18465555D01*
X10423344Y-18519480D01*
X10355444Y-18535952D01*
X10345162Y-18535031D01*
X10315078Y-18531071D01*
X10315073Y-18531071D01*
X10158443Y-18551692D01*
X10158439Y-18551693D01*
X10012486Y-18612148D01*
X9887149Y-18708323D01*
X9790975Y-18833658D01*
X9779359Y-18861701D01*
X9735516Y-18916102D01*
X9726802Y-18921629D01*
X9651048Y-18965366D01*
X9651042Y-18965371D01*
X9595147Y-19014389D01*
X9595146Y-19014391D01*
X9551159Y-19103588D01*
X9551158Y-19103590D01*
X9550772Y-19109490D01*
X9526742Y-19175098D01*
X9471057Y-19217299D01*
X9466903Y-19218792D01*
X9452829Y-19223570D01*
X9452819Y-19223574D01*
X8587366Y-19723244D01*
X8531354Y-19772365D01*
X8487276Y-19861742D01*
X8480759Y-19961190D01*
X8481047Y-19962038D01*
X8481128Y-19963995D01*
X8482353Y-19973297D01*
X8481520Y-19973406D01*
X8483953Y-20031847D01*
X8451307Y-20089572D01*
X8210469Y-20330411D01*
X8149149Y-20363895D01*
X8122790Y-20366729D01*
X6718907Y-20366729D01*
X6651868Y-20347044D01*
X6606113Y-20294240D01*
X6599132Y-20274823D01*
X6573817Y-20180346D01*
X6495751Y-19888999D01*
X6462801Y-19822184D01*
X6462800Y-19822183D01*
X6462799Y-19822181D01*
X6415380Y-19780596D01*
X6387877Y-19756476D01*
X6293510Y-19724444D01*
X6219168Y-19729316D01*
X4478625Y-20195693D01*
X4478619Y-20195696D01*
X4411811Y-20228642D01*
X4411808Y-20228645D01*
X4346101Y-20303567D01*
X4314067Y-20397938D01*
X4318940Y-20472270D01*
X4318940Y-20472273D01*
X4318941Y-20472274D01*
X4338573Y-20545543D01*
X4421314Y-20854336D01*
X4419651Y-20924185D01*
X4380488Y-20982048D01*
X4316260Y-21009552D01*
X4301539Y-21010429D01*
X4090207Y-21010429D01*
X4023168Y-20990744D01*
X3977413Y-20937940D01*
X3970432Y-20918523D01*
X3918123Y-20723302D01*
X3867051Y-20532699D01*
X3834101Y-20465884D01*
X3834100Y-20465883D01*
X3834099Y-20465881D01*
X3788589Y-20425970D01*
X3759177Y-20400176D01*
X3664810Y-20368144D01*
X3590468Y-20373016D01*
X1849925Y-20839393D01*
X1849919Y-20839396D01*
X1783111Y-20872342D01*
X1783108Y-20872345D01*
X1717401Y-20947267D01*
X1685367Y-21041638D01*
X1690240Y-21115966D01*
X1690240Y-21115971D01*
X1758126Y-21369326D01*
X1756463Y-21439176D01*
X1726032Y-21489100D01*
X1293843Y-21921289D01*
X1273990Y-21937412D01*
X1264794Y-21943420D01*
X1264789Y-21943425D01*
X1242855Y-21971603D01*
X1237778Y-21977354D01*
X1234956Y-21980177D01*
X1234943Y-21980192D01*
X1222052Y-21998245D01*
X1220524Y-22000294D01*
X1187407Y-22042846D01*
X1183647Y-22049793D01*
X1180168Y-22056909D01*
X1164785Y-22108578D01*
X1164004Y-22111016D01*
X1146499Y-22162005D01*
X1145198Y-22169805D01*
X1144218Y-22177662D01*
X1146447Y-22231520D01*
X1146500Y-22234083D01*
X1146500Y-22966601D01*
X1126815Y-23033640D01*
X1097988Y-23064976D01*
X1095720Y-23066715D01*
X999463Y-23192160D01*
X938956Y-23338237D01*
X938955Y-23338239D01*
X918318Y-23494998D01*
X918318Y-23495001D01*
X-1045318Y-23495001D01*
X-1045318Y-23494998D01*
X-1065955Y-23338239D01*
X-1065956Y-23338237D01*
X-1126463Y-23192160D01*
X-1222718Y-23066718D01*
X-1348160Y-22970463D01*
X-1494237Y-22909956D01*
X-1494239Y-22909955D01*
X-1650999Y-22889318D01*
X-1651001Y-22889318D01*
X-1807760Y-22909955D01*
X-1807762Y-22909956D01*
X-1953841Y-22970464D01*
X-2079282Y-23066718D01*
X-2175536Y-23192159D01*
X-2236044Y-23338238D01*
X-2256682Y-23495000D01*
X-2256310Y-23497823D01*
X-2256682Y-23500208D01*
X-2256682Y-23503128D01*
X-2257137Y-23503128D01*
X-2267068Y-23566857D01*
X-2291566Y-23601700D01*
X-2571255Y-23881389D01*
X-2632578Y-23914874D01*
X-2702270Y-23909890D01*
X-2752164Y-23875467D01*
X-2803888Y-23816486D01*
X-2803893Y-23816483D01*
X-2848451Y-23794509D01*
X-2899870Y-23747203D01*
X-2917551Y-23679608D01*
X-2913381Y-23651204D01*
X-2603741Y-22495612D01*
X-2567376Y-22435952D01*
X-2504529Y-22405423D01*
X-2475855Y-22403972D01*
X-2426476Y-22407209D01*
X-2332297Y-22375238D01*
X-2332296Y-22375237D01*
X-2257523Y-22309664D01*
X-2224638Y-22242978D01*
X-2105989Y-21800176D01*
X-3105262Y-21532422D01*
X-3105266Y-21532422D01*
X-3974396Y-21299539D01*
X-3008466Y-21299539D01*
X-2041285Y-21558695D01*
X-1922636Y-21115896D01*
X-1917774Y-21041698D01*
X-1949741Y-20947526D01*
X-1949743Y-20947522D01*
X-2015317Y-20872750D01*
X-2082001Y-20839864D01*
X-2082002Y-20839863D01*
X-2831485Y-20639040D01*
X-3008466Y-21299539D01*
X-3974396Y-21299539D01*
X-4281834Y-21217161D01*
X-4313885Y-21235666D01*
X-4381785Y-21252139D01*
X-4447812Y-21229287D01*
X-4483272Y-21190280D01*
X-4502788Y-21156476D01*
X-5502062Y-20888722D01*
X-5502066Y-20888722D01*
X-6371195Y-20655839D01*
X-5405266Y-20655839D01*
X-4438085Y-20914995D01*
X-4406034Y-20896490D01*
X-4338134Y-20880017D01*
X-4272107Y-20902869D01*
X-4236645Y-20941878D01*
X-4217129Y-20975680D01*
X-3249948Y-21234835D01*
X-3072968Y-20574335D01*
X-3822458Y-20373511D01*
X-3896642Y-20368648D01*
X-3990822Y-20400619D01*
X-3990823Y-20400620D01*
X-4065596Y-20466194D01*
X-4082172Y-20499807D01*
X-4129476Y-20551227D01*
X-4197071Y-20568910D01*
X-4263496Y-20547241D01*
X-4307661Y-20493101D01*
X-4317120Y-20436858D01*
X-4314574Y-20397999D01*
X-4346541Y-20303826D01*
X-4346543Y-20303822D01*
X-4412117Y-20229050D01*
X-4478801Y-20196164D01*
X-4478802Y-20196163D01*
X-5228285Y-19995340D01*
X-5405266Y-20655839D01*
X-6371195Y-20655839D01*
X-6678633Y-20573461D01*
X-6797283Y-21016266D01*
X-6802145Y-21090459D01*
X-6770178Y-21184631D01*
X-6770176Y-21184635D01*
X-6704601Y-21259408D01*
X-6704602Y-21259408D01*
X-6660216Y-21281297D01*
X-6608797Y-21328602D01*
X-6591115Y-21396197D01*
X-6595283Y-21424593D01*
X-6904925Y-22580195D01*
X-6941290Y-22639855D01*
X-7004137Y-22670384D01*
X-7032804Y-22671835D01*
X-7082390Y-22668586D01*
X-7176757Y-22700618D01*
X-7197831Y-22719100D01*
X-7251679Y-22766323D01*
X-7251680Y-22766325D01*
X-7251681Y-22766326D01*
X-7284631Y-22833141D01*
X-7320391Y-22966601D01*
X-7388012Y-23218965D01*
X-7424377Y-23278625D01*
X-7487224Y-23309154D01*
X-7507787Y-23310871D01*
X-8457109Y-23310871D01*
X-8524148Y-23291186D01*
X-8544790Y-23274552D01*
X-9651308Y-22168032D01*
X-9684793Y-22106709D01*
X-9681687Y-22051844D01*
X-9682353Y-22051757D01*
X-9681177Y-22042825D01*
X-9681045Y-22040489D01*
X-9680759Y-22039647D01*
X-9685385Y-21969053D01*
X-9670126Y-21900870D01*
X-9620426Y-21851760D01*
X-9616494Y-21849733D01*
X-9553808Y-21818819D01*
X-9504790Y-21762925D01*
X-9504785Y-21762918D01*
X-9467474Y-21698294D01*
X-9467474Y-21698293D01*
X-10096208Y-21335294D01*
X-10144424Y-21284727D01*
X-10157647Y-21216120D01*
X-10141594Y-21165906D01*
X-10140594Y-21164174D01*
X-10090027Y-21115959D01*
X-10021419Y-21102737D01*
X-9971208Y-21118788D01*
X-9342474Y-21481787D01*
X-9342473Y-21481787D01*
X-9305163Y-21417164D01*
X-9305162Y-21417161D01*
X-9281264Y-21346760D01*
X-9285835Y-21277016D01*
X-9270576Y-21208832D01*
X-9220877Y-21159722D01*
X-9216944Y-21157695D01*
X-9207535Y-21153055D01*
X-9153499Y-21126407D01*
X-9149815Y-21122206D01*
X-9104382Y-21070400D01*
X-9092634Y-21050053D01*
X-9027906Y-20937940D01*
X-8904706Y-20724552D01*
X-8904705Y-20724549D01*
X-8880759Y-20654009D01*
X-8883406Y-20613625D01*
X-8885349Y-20583954D01*
X-8870091Y-20515772D01*
X-8820392Y-20466662D01*
X-8816477Y-20464643D01*
X-8753499Y-20433586D01*
X-8737586Y-20415441D01*
X-8704382Y-20377579D01*
X-8703144Y-20375436D01*
X-8678055Y-20331980D01*
X-6613929Y-20331980D01*
X-5646748Y-20591135D01*
X-5469768Y-19930635D01*
X-6219258Y-19729811D01*
X-6293442Y-19724948D01*
X-6387622Y-19756919D01*
X-6387623Y-19756920D01*
X-6462396Y-19822493D01*
X-6495281Y-19889180D01*
X-6613929Y-20331980D01*
X-8678055Y-20331980D01*
X-8620704Y-20232644D01*
X-8504706Y-20031731D01*
X-8504705Y-20031728D01*
X-8480759Y-19961188D01*
X-8487276Y-19861742D01*
X-8531354Y-19772365D01*
X-8531353Y-19772365D01*
X-8587364Y-19723246D01*
X-8684122Y-19667382D01*
X-8732337Y-19616814D01*
X-8745559Y-19548207D01*
X-8720497Y-19484508D01*
X-8715721Y-19478284D01*
X-8715718Y-19478282D01*
X-8619464Y-19352841D01*
X-8606820Y-19322317D01*
X-8558956Y-19206762D01*
X-8558955Y-19206760D01*
X-8538318Y-19050001D01*
X-8538318Y-19049998D01*
X-8558955Y-18893239D01*
X-8558956Y-18893237D01*
X-8619463Y-18747160D01*
X-8715718Y-18621718D01*
X-8841160Y-18525463D01*
X-8987237Y-18464956D01*
X-8987239Y-18464955D01*
X-9143999Y-18444318D01*
X-9144001Y-18444318D01*
X-9300760Y-18464955D01*
X-9300762Y-18464956D01*
X-9432394Y-18519480D01*
X-9446841Y-18525464D01*
X-9572282Y-18621718D01*
X-9594073Y-18650117D01*
X-9664566Y-18741985D01*
X-9720994Y-18783188D01*
X-9790740Y-18787343D01*
X-9851660Y-18753131D01*
X-9861316Y-18741988D01*
X-9887147Y-18708324D01*
X-10012487Y-18612147D01*
X-10158439Y-18551693D01*
X-10158443Y-18551692D01*
X-10315073Y-18531071D01*
X-10315078Y-18531071D01*
X-10345162Y-18535031D01*
X-10414197Y-18524264D01*
X-10423344Y-18519480D01*
X-10516745Y-18465555D01*
X-10516746Y-18465555D01*
X-11337408Y-19886981D01*
X-11337410Y-19886987D01*
X-12266744Y-21496642D01*
X-19076665Y-21496642D01*
X-19551058Y-21072699D01*
X-19552757Y-21071122D01*
X-20325302Y-20326942D01*
X-20326942Y-20325302D01*
X-21071122Y-19552757D01*
X-21072699Y-19551058D01*
X-21787515Y-18751178D01*
X-21789014Y-18749436D01*
X-22091532Y-18384312D01*
X-22473392Y-17923424D01*
X-22474838Y-17921611D01*
X-23120170Y-17080599D01*
X-23127873Y-17070558D01*
X-23129226Y-17068725D01*
X-23614156Y-16385283D01*
X-23749962Y-16193882D01*
X-23751269Y-16191966D01*
X-24338880Y-15294488D01*
X-24340114Y-15292524D01*
X-24893729Y-14373750D01*
X-24894889Y-14371742D01*
X-25413777Y-13432886D01*
X-25414860Y-13430836D01*
X-25898278Y-12473239D01*
X-25899284Y-12471150D01*
X-26346558Y-11496143D01*
X-26347485Y-11494018D01*
X-26757990Y-10502974D01*
X-26758837Y-10500815D01*
X-27131991Y-9495134D01*
X-27132756Y-9492945D01*
X-27468053Y-8473992D01*
X-27468737Y-8471776D01*
X-27765702Y-7440986D01*
X-27766302Y-7438747D01*
X-28024510Y-6397604D01*
X-28025026Y-6395343D01*
X-28244128Y-5345255D01*
X-28244559Y-5342977D01*
X-28424243Y-4285431D01*
X-28424589Y-4283138D01*
X-28564603Y-3219619D01*
X-28564862Y-3217315D01*
X-28586509Y-2986473D01*
X-28134978Y-2986473D01*
X-28116626Y-3172804D01*
X-28062275Y-3351974D01*
X-27974015Y-3517098D01*
X-27855236Y-3661830D01*
X-27710504Y-3780609D01*
X-27545380Y-3868869D01*
X-27366210Y-3923220D01*
X-27179879Y-3941572D01*
X-27010253Y-3924865D01*
X-26993547Y-3923220D01*
X-26993545Y-3923219D01*
X-26975569Y-3917766D01*
X-26814378Y-3868869D01*
X-26780436Y-3850727D01*
X-26649255Y-3780610D01*
X-26649252Y-3780608D01*
X-26504521Y-3661830D01*
X-26385743Y-3517099D01*
X-26385741Y-3517096D01*
X-26297483Y-3351975D01*
X-26243132Y-3172806D01*
X-26243131Y-3172804D01*
X-26224780Y-2986473D01*
X-26243131Y-2800141D01*
X-26243132Y-2800139D01*
X-26297483Y-2620970D01*
X-26385741Y-2455849D01*
X-26385743Y-2455846D01*
X-26504521Y-2311115D01*
X-26649252Y-2192337D01*
X-26649255Y-2192335D01*
X-26814376Y-2104077D01*
X-26993545Y-2049726D01*
X-26993547Y-2049725D01*
X-27179879Y-2031374D01*
X-27366210Y-2049725D01*
X-27366212Y-2049726D01*
X-27545381Y-2104077D01*
X-27710502Y-2192335D01*
X-27710505Y-2192337D01*
X-27855236Y-2311115D01*
X-27974014Y-2455846D01*
X-27974016Y-2455849D01*
X-28023376Y-2548196D01*
X-28062275Y-2620972D01*
X-28116626Y-2800142D01*
X-28134978Y-2986473D01*
X-28586509Y-2986473D01*
X-28637537Y-2442318D01*
X-28665014Y-2149298D01*
X-28665186Y-2147008D01*
X-28725333Y-1075975D01*
X-28725420Y-1073658D01*
X-28726024Y-1041385D01*
X-28734830Y-570500D01*
X-28745478Y-1159D01*
X-28745478Y-1D01*
X-27656682Y-1D01*
X-27656085Y-4536D01*
X-27636044Y-156762D01*
X-27575536Y-302841D01*
X-27479282Y-428282D01*
X-27353841Y-524536D01*
X-27207762Y-585044D01*
X-27127687Y-595586D01*
X-27051001Y-605682D01*
X-27051000Y-605682D01*
X-27050999Y-605682D01*
X-26972618Y-595363D01*
X-26894238Y-585044D01*
X-26748159Y-524536D01*
X-26748154Y-524532D01*
X-26741616Y-520757D01*
X-26673716Y-504281D01*
X-26625151Y-516740D01*
X-26537518Y-559582D01*
X-26462582Y-570500D01*
X-26119423Y-570500D01*
X-26119418Y-570500D01*
X-26044482Y-559582D01*
X-26005077Y-540318D01*
X-25928900Y-503078D01*
X-25928897Y-503076D01*
X-25868681Y-442860D01*
X-25807358Y-409375D01*
X-25737666Y-414359D01*
X-25693319Y-442860D01*
X-25633102Y-503076D01*
X-25633099Y-503078D01*
X-25589205Y-524536D01*
X-25517518Y-559582D01*
X-25442582Y-570500D01*
X-25099423Y-570500D01*
X-25099418Y-570500D01*
X-25024482Y-559582D01*
X-24985077Y-540318D01*
X-24908900Y-503078D01*
X-24908897Y-503076D01*
X-24885681Y-479860D01*
X-24824358Y-446375D01*
X-24754666Y-451359D01*
X-24698733Y-493231D01*
X-24674316Y-558695D01*
X-24674000Y-567541D01*
X-24674000Y-604685D01*
X-24693685Y-671724D01*
X-24746489Y-717479D01*
X-24750547Y-719246D01*
X-24813838Y-745462D01*
X-24813841Y-745464D01*
X-24939280Y-841716D01*
X-24939280Y-841717D01*
X-24939282Y-841718D01*
X-25035536Y-967159D01*
X-25096044Y-1113238D01*
X-25096044Y-1113239D01*
X-25116681Y-1269996D01*
X-25116682Y-1270000D01*
X-25096044Y-1426762D01*
X-25035536Y-1572841D01*
X-24939282Y-1698282D01*
X-24813841Y-1794536D01*
X-24667762Y-1855044D01*
X-24563950Y-1868711D01*
X-24511001Y-1875682D01*
X-24511000Y-1875682D01*
X-24510999Y-1875682D01*
X-24414184Y-1862936D01*
X-24354238Y-1855044D01*
X-24208159Y-1794536D01*
X-24082718Y-1698282D01*
X-23986464Y-1572841D01*
X-23925956Y-1426762D01*
X-23925955Y-1426760D01*
X-23905318Y-1270001D01*
X-23905318Y-1269996D01*
X-23905691Y-1267163D01*
X-23905318Y-1264771D01*
X-23905318Y-1261874D01*
X-23904866Y-1261874D01*
X-23894924Y-1198128D01*
X-23870433Y-1163299D01*
X-23863144Y-1156010D01*
X-23843287Y-1139884D01*
X-23834091Y-1133876D01*
X-23812157Y-1105696D01*
X-23807068Y-1099934D01*
X-23804244Y-1097110D01*
X-23791352Y-1079054D01*
X-23789821Y-1077001D01*
X-23756710Y-1034458D01*
X-23752942Y-1027494D01*
X-23749466Y-1020385D01*
X-23749285Y-1019776D01*
X-23748811Y-1019044D01*
X-23744956Y-1011159D01*
X-23744002Y-1011625D01*
X-23711286Y-961143D01*
X-23647620Y-932361D01*
X-23606250Y-933547D01*
X-23586747Y-937427D01*
X-23571875Y-940386D01*
X-23571874Y-940386D01*
X-23566100Y-940386D01*
X-23499061Y-960071D01*
X-23453306Y-1012875D01*
X-23442100Y-1064386D01*
X-23442100Y-7297890D01*
X-23444738Y-7323336D01*
X-23446993Y-7334087D01*
X-23442575Y-7369521D01*
X-23442099Y-7377193D01*
X-23442100Y-7381184D01*
X-23438618Y-7402043D01*
X-23438450Y-7403055D01*
X-23438080Y-7405593D01*
X-23431410Y-7459106D01*
X-23431406Y-7459112D01*
X-23429153Y-7466683D01*
X-23426583Y-7474166D01*
X-23426583Y-7474172D01*
X-23400905Y-7521617D01*
X-23399765Y-7523832D01*
X-23376076Y-7572292D01*
X-23376073Y-7572294D01*
X-23376073Y-7572296D01*
X-23371482Y-7578726D01*
X-23366623Y-7584968D01*
X-23366620Y-7584974D01*
X-23326912Y-7621526D01*
X-23325139Y-7623227D01*
X-22735128Y-8213238D01*
X-22701645Y-8274559D01*
X-22706629Y-8344251D01*
X-22748501Y-8400184D01*
X-22760811Y-8408304D01*
X-23886271Y-9058089D01*
X-23891997Y-9061395D01*
X-23948007Y-9110515D01*
X-23992084Y-9199893D01*
X-23993262Y-9217882D01*
X-24017287Y-9283490D01*
X-24072969Y-9325695D01*
X-24142630Y-9331096D01*
X-24204152Y-9297978D01*
X-24204678Y-9297455D01*
X-24732181Y-8769953D01*
X-24765666Y-8708630D01*
X-24768500Y-8682272D01*
X-24768500Y-4338398D01*
X-24748815Y-4271359D01*
X-24719986Y-4240022D01*
X-24717719Y-4238283D01*
X-24713839Y-4233227D01*
X-24621464Y-4112841D01*
X-24611915Y-4089789D01*
X-24560956Y-3966762D01*
X-24560955Y-3966760D01*
X-24540318Y-3810001D01*
X-24540318Y-3809998D01*
X-24560955Y-3653239D01*
X-24560956Y-3653237D01*
X-24621463Y-3507160D01*
X-24717718Y-3381718D01*
X-24843160Y-3285463D01*
X-24989237Y-3224956D01*
X-24989239Y-3224955D01*
X-25145999Y-3204318D01*
X-25146001Y-3204318D01*
X-25302760Y-3224955D01*
X-25302762Y-3224956D01*
X-25388174Y-3260335D01*
X-25448841Y-3285464D01*
X-25574282Y-3381718D01*
X-25670536Y-3507159D01*
X-25731044Y-3653238D01*
X-25731044Y-3653239D01*
X-25747812Y-3780608D01*
X-25751682Y-3810000D01*
X-25731044Y-3966762D01*
X-25670536Y-4112841D01*
X-25574282Y-4238282D01*
X-25572014Y-4240022D01*
X-25570585Y-4241978D01*
X-25568535Y-4244029D01*
X-25568854Y-4244348D01*
X-25530811Y-4296450D01*
X-25523500Y-4338398D01*
X-25523500Y-8837987D01*
X-25526139Y-8863435D01*
X-25528393Y-8874184D01*
X-25523977Y-8909616D01*
X-25523500Y-8917292D01*
X-25523500Y-8921281D01*
X-25519837Y-8943223D01*
X-25519483Y-8945663D01*
X-25512810Y-8999203D01*
X-25512806Y-8999210D01*
X-25510553Y-9006780D01*
X-25507983Y-9014263D01*
X-25507983Y-9014269D01*
X-25482305Y-9061714D01*
X-25481165Y-9063929D01*
X-25457476Y-9112389D01*
X-25457473Y-9112391D01*
X-25457473Y-9112393D01*
X-25452882Y-9118823D01*
X-25448023Y-9125065D01*
X-25448020Y-9125071D01*
X-25408312Y-9161623D01*
X-25406539Y-9163324D01*
X-24289817Y-10280047D01*
X-24256334Y-10341368D01*
X-24253500Y-10367726D01*
X-24253500Y-11377987D01*
X-24256138Y-11403432D01*
X-24258372Y-11414083D01*
X-24258393Y-11414184D01*
X-24253977Y-11449616D01*
X-24253500Y-11457292D01*
X-24253500Y-11461281D01*
X-24249837Y-11483223D01*
X-24249483Y-11485663D01*
X-24242810Y-11539203D01*
X-24242806Y-11539210D01*
X-24240553Y-11546780D01*
X-24237983Y-11554263D01*
X-24237983Y-11554269D01*
X-24212305Y-11601714D01*
X-24211165Y-11603929D01*
X-24187476Y-11652389D01*
X-24187473Y-11652391D01*
X-24187473Y-11652393D01*
X-24182882Y-11658823D01*
X-24178023Y-11665065D01*
X-24178020Y-11665071D01*
X-24138313Y-11701622D01*
X-24136540Y-11703323D01*
X-23654817Y-12185047D01*
X-23621334Y-12246368D01*
X-23618500Y-12272726D01*
X-23618500Y-13282996D01*
X-23621139Y-13308435D01*
X-23622768Y-13316205D01*
X-23623393Y-13319183D01*
X-23618977Y-13354616D01*
X-23618500Y-13362292D01*
X-23618500Y-13366281D01*
X-23614837Y-13388223D01*
X-23614483Y-13390663D01*
X-23607810Y-13444203D01*
X-23607806Y-13444210D01*
X-23605553Y-13451780D01*
X-23602983Y-13459263D01*
X-23602983Y-13459269D01*
X-23577305Y-13506714D01*
X-23576165Y-13508929D01*
X-23552476Y-13557389D01*
X-23552473Y-13557391D01*
X-23552473Y-13557393D01*
X-23547882Y-13563823D01*
X-23543023Y-13570065D01*
X-23543020Y-13570071D01*
X-23503312Y-13606623D01*
X-23501539Y-13608324D01*
X-22274707Y-14835157D01*
X-22258581Y-14855016D01*
X-22252576Y-14864209D01*
X-22224373Y-14886159D01*
X-22218645Y-14891219D01*
X-22215814Y-14894052D01*
X-22201139Y-14904528D01*
X-22197739Y-14906957D01*
X-22195697Y-14908479D01*
X-22153155Y-14941592D01*
X-22153152Y-14941592D01*
X-22146219Y-14945344D01*
X-22139093Y-14948828D01*
X-22139089Y-14948832D01*
X-22139083Y-14948833D01*
X-22129851Y-14953349D01*
X-22130633Y-14954949D01*
X-22130245Y-14955150D01*
X-22130093Y-14955260D01*
X-22131193Y-14956780D01*
X-22088543Y-14984410D01*
X-22059749Y-15048070D01*
X-22069943Y-15117192D01*
X-22115889Y-15169830D01*
X-22165335Y-15186926D01*
X-22165209Y-15187564D01*
X-22169849Y-15188487D01*
X-22170393Y-15188675D01*
X-22171187Y-15188753D01*
X-22350356Y-15243104D01*
X-22515477Y-15331362D01*
X-22515480Y-15331364D01*
X-22660211Y-15450142D01*
X-22778989Y-15594873D01*
X-22778991Y-15594876D01*
X-22834012Y-15697814D01*
X-22867250Y-15759999D01*
X-22921601Y-15939169D01*
X-22939953Y-16125500D01*
X-22921601Y-16311831D01*
X-22867250Y-16491001D01*
X-22778990Y-16656125D01*
X-22660211Y-16800857D01*
X-22515479Y-16919636D01*
X-22350355Y-17007896D01*
X-22171185Y-17062247D01*
X-21984854Y-17080599D01*
X-21815228Y-17063892D01*
X-21798522Y-17062247D01*
X-21798520Y-17062246D01*
X-21619353Y-17007896D01*
X-21619351Y-17007895D01*
X-21454230Y-16919637D01*
X-21454227Y-16919635D01*
X-21309496Y-16800857D01*
X-21190718Y-16656126D01*
X-21190716Y-16656123D01*
X-21102458Y-16491002D01*
X-21048107Y-16311833D01*
X-21048106Y-16311831D01*
X-21029755Y-16125500D01*
X-21048106Y-15939168D01*
X-21048107Y-15939166D01*
X-21102458Y-15759997D01*
X-21190716Y-15594876D01*
X-21190718Y-15594873D01*
X-21309496Y-15450142D01*
X-21454227Y-15331364D01*
X-21454230Y-15331362D01*
X-21619351Y-15243104D01*
X-21678505Y-15225160D01*
X-21736943Y-15186863D01*
X-21765400Y-15123051D01*
X-21754839Y-15053984D01*
X-21708614Y-15001590D01*
X-21642509Y-14982500D01*
X-20805798Y-14982500D01*
X-20738759Y-15002185D01*
X-20698411Y-15044499D01*
X-20101881Y-16077721D01*
X-20052761Y-16133731D01*
X-19963383Y-16177808D01*
X-19863941Y-16184325D01*
X-19793397Y-16160379D01*
X-19006485Y-15706055D01*
X-17975619Y-15110884D01*
X-17907719Y-15094411D01*
X-17841692Y-15117264D01*
X-17825944Y-15130584D01*
X-14070548Y-18885981D01*
X-14037065Y-18947302D01*
X-14042049Y-19016994D01*
X-14050841Y-19035655D01*
X-14090064Y-19103590D01*
X-14095295Y-19112651D01*
X-14115454Y-19172038D01*
X-14119241Y-19183193D01*
X-14114649Y-19253246D01*
X-14129907Y-19321425D01*
X-14179606Y-19370536D01*
X-14183539Y-19372564D01*
X-14246501Y-19403614D01*
X-14246502Y-19403615D01*
X-14295617Y-19459620D01*
X-14295617Y-19459621D01*
X-14295620Y-19459624D01*
X-14495294Y-19805470D01*
X-14519241Y-19876014D01*
X-14512724Y-19975456D01*
X-14468646Y-20064834D01*
X-14412636Y-20113954D01*
X-13547176Y-20613628D01*
X-13533100Y-20618406D01*
X-13475949Y-20658593D01*
X-13449595Y-20723302D01*
X-13449226Y-20727716D01*
X-13448839Y-20733611D01*
X-13448838Y-20733614D01*
X-13404853Y-20822808D01*
X-13404852Y-20822810D01*
X-13348952Y-20871832D01*
X-13273201Y-20915566D01*
X-13224985Y-20966132D01*
X-13220637Y-20975504D01*
X-13209024Y-21003540D01*
X-13112850Y-21128876D01*
X-12987512Y-21225052D01*
X-12841560Y-21285506D01*
X-12841556Y-21285507D01*
X-12684927Y-21306128D01*
X-12654838Y-21302167D01*
X-12585802Y-21312932D01*
X-12576650Y-21317719D01*
X-12483251Y-21371642D01*
X-11670753Y-19964353D01*
X-10776233Y-18415000D01*
X-2891682Y-18415000D01*
X-2871044Y-18571762D01*
X-2810536Y-18717841D01*
X-2714282Y-18843282D01*
X-2588841Y-18939536D01*
X-2442762Y-19000044D01*
X-2338254Y-19013802D01*
X-2286001Y-19020682D01*
X-2286000Y-19020682D01*
X-2285999Y-19020682D01*
X-2202750Y-19009722D01*
X-2133715Y-19020488D01*
X-2081459Y-19066868D01*
X-2062574Y-19134136D01*
X-2063160Y-19144794D01*
X-2073520Y-19249973D01*
X-2055168Y-19436304D01*
X-2000817Y-19615474D01*
X-1912557Y-19780598D01*
X-1793778Y-19925330D01*
X-1649046Y-20044109D01*
X-1483922Y-20132369D01*
X-1304752Y-20186720D01*
X-1118421Y-20205072D01*
X-948795Y-20188365D01*
X-932089Y-20186720D01*
X-932087Y-20186719D01*
X-894648Y-20175362D01*
X-752920Y-20132369D01*
X-719639Y-20114580D01*
X-587797Y-20044110D01*
X-587794Y-20044108D01*
X-443063Y-19925330D01*
X-324285Y-19780599D01*
X-324283Y-19780596D01*
X-236025Y-19615475D01*
X-181674Y-19436306D01*
X-181673Y-19436304D01*
X-163322Y-19249973D01*
X-181673Y-19063641D01*
X-181674Y-19063639D01*
X-236025Y-18884470D01*
X-324283Y-18719349D01*
X-324285Y-18719346D01*
X-443063Y-18574615D01*
X-587794Y-18455837D01*
X-587797Y-18455835D01*
X-752918Y-18367577D01*
X-932087Y-18313226D01*
X-932089Y-18313225D01*
X-1118421Y-18294874D01*
X-1304752Y-18313225D01*
X-1304754Y-18313226D01*
X-1483923Y-18367577D01*
X-1515232Y-18384312D01*
X-1583634Y-18398554D01*
X-1648878Y-18373554D01*
X-1690249Y-18317249D01*
X-1696624Y-18291141D01*
X-1700956Y-18258238D01*
X-1700956Y-18258237D01*
X-1761463Y-18112160D01*
X-1857718Y-17986718D01*
X-1983160Y-17890463D01*
X-2129237Y-17829956D01*
X-2129239Y-17829955D01*
X-2285999Y-17809318D01*
X-2286001Y-17809318D01*
X-2442760Y-17829955D01*
X-2442762Y-17829956D01*
X-2531496Y-17866711D01*
X-2588841Y-17890464D01*
X-2714282Y-17986718D01*
X-2810536Y-18112159D01*
X-2871044Y-18258238D01*
X-2891682Y-18415000D01*
X-10776233Y-18415000D01*
X-10733252Y-18340555D01*
X-10733253Y-18340553D01*
X-10826652Y-18286630D01*
X-10874868Y-18236063D01*
X-10879211Y-18226701D01*
X-10890827Y-18198658D01*
X-10986999Y-18073324D01*
X-11112339Y-17977147D01*
X-11258291Y-17916693D01*
X-11258295Y-17916692D01*
X-11414925Y-17896071D01*
X-11414927Y-17896071D01*
X-11445014Y-17900032D01*
X-11514049Y-17889266D01*
X-11523198Y-17884481D01*
X-11598955Y-17840743D01*
X-11598954Y-17840743D01*
X-11669354Y-17816845D01*
X-11768600Y-17823349D01*
X-11768601Y-17823349D01*
X-11773903Y-17825964D01*
X-11842736Y-17837958D01*
X-11907126Y-17810835D01*
X-11910500Y-17807981D01*
X-11921679Y-17798177D01*
X-11921680Y-17798176D01*
X-11985371Y-17761404D01*
X-12033586Y-17710837D01*
X-12046808Y-17642230D01*
X-12021746Y-17578532D01*
X-11921464Y-17447842D01*
X-11860956Y-17301762D01*
X-11860955Y-17301760D01*
X-11840318Y-17145001D01*
X-11840318Y-17145000D01*
X-986682Y-17145000D01*
X-966044Y-17301762D01*
X-905536Y-17447841D01*
X-809282Y-17573282D01*
X-683841Y-17669536D01*
X-537762Y-17730044D01*
X-433254Y-17743802D01*
X-381001Y-17750682D01*
X-381000Y-17750682D01*
X-380999Y-17750682D01*
X-302619Y-17740363D01*
X-224238Y-17730044D01*
X-78159Y-17669536D01*
X47282Y-17573282D01*
X143536Y-17447841D01*
X204044Y-17301762D01*
X220151Y-17179420D01*
X7761528Y-17179420D01*
X7779879Y-17365752D01*
X7779880Y-17365754D01*
X7834231Y-17544923D01*
X7922489Y-17710044D01*
X7922491Y-17710047D01*
X8041269Y-17854778D01*
X8186000Y-17973556D01*
X8186003Y-17973558D01*
X8285357Y-18026663D01*
X8351126Y-18061817D01*
X8530293Y-18116167D01*
X8530295Y-18116168D01*
X8548647Y-18117975D01*
X8716627Y-18134520D01*
X8902958Y-18116168D01*
X9082128Y-18061817D01*
X9247252Y-17973557D01*
X9391984Y-17854778D01*
X9510763Y-17710046D01*
X9599023Y-17544922D01*
X9653374Y-17365752D01*
X9671726Y-17179421D01*
X9653374Y-16993090D01*
X9599023Y-16813920D01*
X9547068Y-16716718D01*
X9510764Y-16648797D01*
X9510762Y-16648794D01*
X9391984Y-16504063D01*
X9247253Y-16385285D01*
X9247250Y-16385283D01*
X9082129Y-16297025D01*
X8902960Y-16242674D01*
X8902958Y-16242673D01*
X8716627Y-16224322D01*
X8530295Y-16242673D01*
X8530293Y-16242674D01*
X8351124Y-16297025D01*
X8186003Y-16385283D01*
X8186000Y-16385285D01*
X8041269Y-16504063D01*
X7922491Y-16648794D01*
X7922489Y-16648797D01*
X7834231Y-16813918D01*
X7779880Y-16993087D01*
X7779879Y-16993089D01*
X7761528Y-17179420D01*
X220151Y-17179420D01*
X224682Y-17145000D01*
X223088Y-17132896D01*
X204044Y-16988239D01*
X204044Y-16988238D01*
X143536Y-16842159D01*
X47282Y-16716718D01*
X-78159Y-16620464D01*
X-78158Y-16620464D01*
X-78160Y-16620463D01*
X-224237Y-16559956D01*
X-224239Y-16559955D01*
X-380999Y-16539318D01*
X-381001Y-16539318D01*
X-537760Y-16559955D01*
X-537762Y-16559956D01*
X-601854Y-16586504D01*
X-683841Y-16620464D01*
X-809282Y-16716718D01*
X-905536Y-16842159D01*
X-966044Y-16988238D01*
X-966044Y-16988239D01*
X-985088Y-17132896D01*
X-986682Y-17145000D01*
X-11840318Y-17145000D01*
X-11840318Y-17144998D01*
X-11860955Y-16988239D01*
X-11860956Y-16988237D01*
X-11921463Y-16842160D01*
X-12017718Y-16716718D01*
X-12143160Y-16620463D01*
X-12289237Y-16559956D01*
X-12289239Y-16559955D01*
X-12445999Y-16539318D01*
X-12446003Y-16539318D01*
X-12503635Y-16546905D01*
X-12572670Y-16536139D01*
X-12624925Y-16489759D01*
X-12639593Y-16456062D01*
X-12653152Y-16405461D01*
X-12720436Y-16301852D01*
X-12720438Y-16301850D01*
X-12792292Y-16243662D01*
X-12792296Y-16243659D01*
X-12857846Y-16205813D01*
X-13068508Y-16570689D01*
X-13068510Y-16570695D01*
X-13123346Y-16665674D01*
X-13173913Y-16713890D01*
X-13242520Y-16727113D01*
X-13292733Y-16711061D01*
X-13525752Y-16576527D01*
X-13525784Y-16576519D01*
X-14065247Y-16265061D01*
X-14440247Y-16048554D01*
X-13940245Y-16048554D01*
X-13816352Y-16120084D01*
X-13816315Y-16120096D01*
X-13276853Y-16431554D01*
X-13276852Y-16431554D01*
X-13100151Y-16125500D01*
X-11626245Y-16125500D01*
X-11607893Y-16311831D01*
X-11553542Y-16491001D01*
X-11465282Y-16656125D01*
X-11346503Y-16800857D01*
X-11201771Y-16919636D01*
X-11036647Y-17007896D01*
X-10857477Y-17062247D01*
X-10671146Y-17080599D01*
X-10503166Y-17064054D01*
X-10484814Y-17062247D01*
X-10484812Y-17062246D01*
X-10305645Y-17007896D01*
X-10305643Y-17007895D01*
X-10140522Y-16919637D01*
X-10140519Y-16919635D01*
X-9995788Y-16800857D01*
X-9877010Y-16656126D01*
X-9877008Y-16656123D01*
X-9788750Y-16491002D01*
X-9734399Y-16311833D01*
X-9734398Y-16311831D01*
X-9716047Y-16125500D01*
X-9734398Y-15939168D01*
X-9734399Y-15939166D01*
X-9788750Y-15759997D01*
X-9877008Y-15594876D01*
X-9877010Y-15594873D01*
X-9995788Y-15450142D01*
X-10140519Y-15331364D01*
X-10140522Y-15331362D01*
X-10305643Y-15243104D01*
X-10484812Y-15188753D01*
X-10484814Y-15188752D01*
X-10671146Y-15170401D01*
X-10857477Y-15188752D01*
X-10857479Y-15188753D01*
X-11036648Y-15243104D01*
X-11201769Y-15331362D01*
X-11201772Y-15331364D01*
X-11346503Y-15450142D01*
X-11465281Y-15594873D01*
X-11465283Y-15594876D01*
X-11520304Y-15697814D01*
X-11553542Y-15759999D01*
X-11607893Y-15939169D01*
X-11626245Y-16125500D01*
X-13100151Y-16125500D01*
X-13074352Y-16080814D01*
X-13139899Y-16042971D01*
X-13226228Y-16009832D01*
X-13349597Y-16003366D01*
X-13349601Y-16003367D01*
X-13374513Y-16010042D01*
X-13444363Y-16008379D01*
X-13502225Y-15969216D01*
X-13526379Y-15922364D01*
X-13533052Y-15897461D01*
X-13600336Y-15793852D01*
X-13600338Y-15793850D01*
X-13672192Y-15735662D01*
X-13672196Y-15735659D01*
X-13737745Y-15697814D01*
X-13737746Y-15697814D01*
X-13940245Y-16048553D01*
X-13940245Y-16048554D01*
X-14440247Y-16048554D01*
X-14658472Y-15922561D01*
X-14658473Y-15922561D01*
X-14681316Y-15962126D01*
X-14714455Y-16048453D01*
X-14714456Y-16048457D01*
X-14720922Y-16171824D01*
X-14720922Y-16171825D01*
X-14713649Y-16198967D01*
X-14715310Y-16268817D01*
X-14754471Y-16326680D01*
X-14801328Y-16350837D01*
X-14829033Y-16358261D01*
X-14829034Y-16358261D01*
X-14932775Y-16425631D01*
X-14932776Y-16425632D01*
X-14932777Y-16425633D01*
X-14991040Y-16497581D01*
X-15056715Y-16611335D01*
X-15107280Y-16659549D01*
X-15175887Y-16672773D01*
X-15240752Y-16646805D01*
X-15251782Y-16637015D01*
X-16182742Y-15706055D01*
X-14533473Y-15706055D01*
X-14156753Y-15923554D01*
X-14156752Y-15923554D01*
X-13954252Y-15572814D01*
X-14019799Y-15534971D01*
X-14106128Y-15501832D01*
X-14229497Y-15495366D01*
X-14348829Y-15527342D01*
X-14348831Y-15527343D01*
X-14452436Y-15594623D01*
X-14510631Y-15666489D01*
X-14533473Y-15706054D01*
X-14533473Y-15706055D01*
X-16182742Y-15706055D01*
X-17102035Y-14786762D01*
X-17135520Y-14725439D01*
X-17130536Y-14655747D01*
X-17088664Y-14599814D01*
X-17076354Y-14591694D01*
X-16387097Y-14193751D01*
X-15945171Y-13938605D01*
X-15889161Y-13889485D01*
X-15845084Y-13800107D01*
X-15838567Y-13700665D01*
X-15838567Y-13700664D01*
X-15838567Y-13700662D01*
X-15862511Y-13630126D01*
X-15862515Y-13630116D01*
X-16992085Y-11673643D01*
X-17041207Y-11617631D01*
X-17130584Y-11573554D01*
X-17230027Y-11567037D01*
X-17277077Y-11583008D01*
X-17346886Y-11585916D01*
X-17407186Y-11550621D01*
X-17424321Y-11527588D01*
X-18035701Y-10468646D01*
X15243801Y-10468646D01*
X15262152Y-10654977D01*
X15262153Y-10654979D01*
X15316504Y-10834148D01*
X15404762Y-10999269D01*
X15404764Y-10999272D01*
X15523542Y-11144003D01*
X15668273Y-11262781D01*
X15668276Y-11262783D01*
X15787214Y-11326356D01*
X15833399Y-11351042D01*
X16012566Y-11405392D01*
X16012568Y-11405393D01*
X16029274Y-11407038D01*
X16198900Y-11423745D01*
X16385231Y-11405393D01*
X16564401Y-11351042D01*
X16729525Y-11262782D01*
X16874257Y-11144003D01*
X16993036Y-10999271D01*
X17081296Y-10834147D01*
X17135647Y-10654977D01*
X17153999Y-10468646D01*
X17135647Y-10282315D01*
X17081296Y-10103145D01*
X16993036Y-9938021D01*
X16993035Y-9938019D01*
X16874257Y-9793288D01*
X16729526Y-9674510D01*
X16729523Y-9674508D01*
X16564402Y-9586250D01*
X16385233Y-9531899D01*
X16385231Y-9531898D01*
X16198900Y-9513547D01*
X16012568Y-9531898D01*
X16012566Y-9531899D01*
X15833397Y-9586250D01*
X15668276Y-9674508D01*
X15668273Y-9674510D01*
X15523542Y-9793288D01*
X15404764Y-9938019D01*
X15404762Y-9938022D01*
X15316504Y-10103143D01*
X15262153Y-10282312D01*
X15262152Y-10282314D01*
X15243801Y-10468646D01*
X-18035701Y-10468646D01*
X-18695344Y-9326111D01*
X-18711817Y-9258211D01*
X-18688964Y-9192184D01*
X-18669717Y-9170884D01*
X-18659128Y-9161597D01*
X-18632361Y-9138123D01*
X-18588284Y-9048745D01*
X-18581767Y-8949303D01*
X-18581767Y-8949302D01*
X-18581767Y-8949300D01*
X-18605711Y-8878764D01*
X-18605715Y-8878754D01*
X-18741639Y-8643327D01*
X-18337020Y-8643327D01*
X-18318668Y-8829658D01*
X-18264317Y-9008828D01*
X-18176057Y-9173952D01*
X-18057278Y-9318684D01*
X-17912546Y-9437463D01*
X-17747422Y-9525723D01*
X-17568252Y-9580074D01*
X-17381921Y-9598426D01*
X-17213941Y-9581881D01*
X-17195589Y-9580074D01*
X-17195587Y-9580073D01*
X-17016420Y-9525723D01*
X-16993640Y-9513547D01*
X-16851297Y-9437464D01*
X-16851294Y-9437462D01*
X-16706563Y-9318684D01*
X-16587785Y-9173953D01*
X-16587783Y-9173950D01*
X-16499525Y-9008829D01*
X-16445174Y-8829660D01*
X-16445173Y-8829658D01*
X-16426822Y-8643326D01*
X-16445173Y-8456995D01*
X-16445174Y-8456993D01*
X-16499525Y-8277824D01*
X-16587783Y-8112703D01*
X-16587785Y-8112700D01*
X-16706563Y-7967969D01*
X-16851294Y-7849191D01*
X-16851297Y-7849189D01*
X-17016418Y-7760931D01*
X-17195587Y-7706580D01*
X-17195589Y-7706579D01*
X-17381921Y-7688228D01*
X-17568252Y-7706579D01*
X-17568254Y-7706580D01*
X-17747423Y-7760931D01*
X-17912544Y-7849189D01*
X-17912547Y-7849191D01*
X-18057278Y-7967969D01*
X-18176056Y-8112700D01*
X-18176058Y-8112703D01*
X-18229793Y-8213236D01*
X-18264317Y-8277826D01*
X-18318668Y-8456996D01*
X-18337020Y-8643327D01*
X-18741639Y-8643327D01*
X-19401739Y-7500000D01*
X-14849618Y-7500000D01*
X-14830694Y-7764597D01*
X-14774306Y-8023808D01*
X-14681602Y-8272355D01*
X-14554471Y-8505179D01*
X-14395499Y-8717541D01*
X-14207922Y-8905118D01*
X-13995560Y-9064090D01*
X-13762741Y-9191218D01*
X-13762740Y-9191218D01*
X-13762736Y-9191221D01*
X-13514189Y-9283925D01*
X-13514180Y-9283926D01*
X-13514180Y-9283927D01*
X-13320264Y-9326111D01*
X-13254978Y-9340313D01*
X-13016889Y-9357341D01*
X-12990382Y-9359237D01*
X-12990381Y-9359237D01*
X-12990380Y-9359237D01*
X-12960921Y-9357130D01*
X-12725784Y-9340313D01*
X-12725780Y-9340312D01*
X-12725778Y-9340312D01*
X-12466581Y-9283927D01*
X-12466579Y-9283926D01*
X-12466573Y-9283925D01*
X-12218026Y-9191221D01*
X-12218023Y-9191219D01*
X-12218019Y-9191218D01*
X-11985207Y-9064093D01*
X-11985199Y-9064088D01*
X-11772847Y-8905124D01*
X-11772829Y-8905108D01*
X-11585272Y-8717551D01*
X-11585256Y-8717533D01*
X-11426292Y-8505181D01*
X-11426287Y-8505173D01*
X-11299162Y-8272361D01*
X-11262009Y-8172750D01*
X-11206456Y-8023808D01*
X-11206455Y-8023805D01*
X-11206453Y-8023799D01*
X-11150068Y-7764602D01*
X-11131144Y-7500001D01*
X-11131144Y-7499998D01*
X-11150068Y-7235397D01*
X-11206453Y-6976200D01*
X-11299162Y-6727638D01*
X-11426287Y-6494826D01*
X-11426292Y-6494818D01*
X-11585256Y-6282466D01*
X-11585272Y-6282448D01*
X-11772829Y-6094891D01*
X-11772847Y-6094875D01*
X-11985199Y-5935911D01*
X-11985207Y-5935906D01*
X-12218020Y-5808781D01*
X-12218019Y-5808781D01*
X-12466581Y-5716072D01*
X-12725778Y-5659687D01*
X-12990380Y-5640763D01*
X-12990382Y-5640763D01*
X-13254983Y-5659687D01*
X-13514180Y-5716072D01*
X-13514186Y-5716074D01*
X-13514189Y-5716075D01*
X-13663317Y-5771697D01*
X-13762742Y-5808781D01*
X-13995554Y-5935906D01*
X-13995562Y-5935911D01*
X-14207914Y-6094875D01*
X-14207932Y-6094891D01*
X-14395489Y-6282448D01*
X-14395505Y-6282466D01*
X-14554469Y-6494818D01*
X-14554474Y-6494826D01*
X-14681599Y-6727638D01*
X-14681600Y-6727642D01*
X-14681602Y-6727645D01*
X-14774306Y-6976192D01*
X-14774307Y-6976198D01*
X-14774308Y-6976200D01*
X-14810413Y-7142174D01*
X-14830694Y-7235403D01*
X-14849618Y-7500000D01*
X-19401739Y-7500000D01*
X-19735285Y-6922281D01*
X-19784407Y-6866269D01*
X-19873784Y-6822192D01*
X-19906932Y-6820019D01*
X-19973227Y-6815675D01*
X-19973229Y-6815675D01*
X-20007327Y-6827250D01*
X-20043771Y-6839621D01*
X-20043773Y-6839622D01*
X-20043775Y-6839623D01*
X-21861547Y-7889113D01*
X-21929447Y-7905586D01*
X-21995474Y-7882733D01*
X-22011228Y-7869407D01*
X-22650781Y-7229855D01*
X-22684266Y-7168532D01*
X-22687100Y-7142174D01*
X-22687100Y-4572000D01*
X-18131682Y-4572000D01*
X-18111044Y-4728762D01*
X-18050536Y-4874841D01*
X-17954282Y-5000282D01*
X-17828841Y-5096536D01*
X-17682762Y-5157044D01*
X-17578254Y-5170802D01*
X-17526001Y-5177682D01*
X-17526000Y-5177682D01*
X-17525999Y-5177682D01*
X-17447618Y-5167363D01*
X-17369238Y-5157044D01*
X-17223159Y-5096536D01*
X-17223158Y-5096535D01*
X-17223157Y-5096535D01*
X-17093485Y-4997034D01*
X-17028316Y-4971840D01*
X-16959871Y-4985878D01*
X-16942512Y-4997035D01*
X-16938284Y-5000279D01*
X-16938282Y-5000282D01*
X-16812841Y-5096536D01*
X-16666762Y-5157044D01*
X-16562254Y-5170802D01*
X-16510001Y-5177682D01*
X-16510000Y-5177682D01*
X-16509999Y-5177682D01*
X-16431618Y-5167363D01*
X-16353238Y-5157044D01*
X-16207159Y-5096536D01*
X-16081718Y-5000282D01*
X-15985464Y-4874841D01*
X-15924956Y-4728762D01*
X-15924955Y-4728760D01*
X-15904318Y-4572001D01*
X-15904318Y-4571998D01*
X-15915138Y-4489810D01*
X-15904372Y-4420775D01*
X-15879880Y-4385943D01*
X-15789569Y-4295634D01*
X-15785579Y-4291978D01*
X-15755752Y-4266950D01*
X-15736281Y-4233227D01*
X-15733376Y-4228666D01*
X-15728286Y-4221396D01*
X-15711029Y-4196749D01*
X-15711028Y-4196746D01*
X-15708123Y-4190518D01*
X-15702739Y-4177520D01*
X-15700385Y-4171053D01*
X-15693622Y-4132700D01*
X-15692451Y-4127419D01*
X-15682368Y-4089789D01*
X-15685764Y-4050986D01*
X-15686000Y-4045579D01*
X-15686000Y-2971473D01*
X-15666315Y-2904434D01*
X-15613511Y-2858679D01*
X-15586191Y-2849856D01*
X-15533964Y-2839467D01*
X-15533960Y-2839466D01*
X-15507244Y-2821615D01*
X-15451099Y-2784101D01*
X-15451098Y-2784099D01*
X-15440944Y-2777315D01*
X-15440065Y-2778630D01*
X-15390997Y-2751837D01*
X-15321305Y-2756821D01*
X-15289079Y-2777531D01*
X-15288694Y-2776955D01*
X-15195844Y-2838994D01*
X-15195840Y-2838996D01*
X-15122928Y-2853499D01*
X-15122926Y-2853500D01*
X-14855000Y-2853500D01*
X-14855000Y-2061750D01*
X-14605000Y-2061750D01*
X-14605000Y-2853500D01*
X-14337074Y-2853500D01*
X-14337071Y-2853499D01*
X-14264159Y-2838996D01*
X-14264155Y-2838994D01*
X-14181460Y-2783739D01*
X-14126205Y-2701044D01*
X-14126203Y-2701040D01*
X-14111700Y-2628128D01*
X-14111700Y-2061750D01*
X-14605000Y-2061750D01*
X-14855000Y-2061750D01*
X-14855000Y-1935750D01*
X-14835315Y-1868711D01*
X-14782511Y-1822956D01*
X-14731000Y-1811750D01*
X-14111700Y-1811750D01*
X-14111700Y-1245371D01*
X-14126203Y-1172459D01*
X-14126204Y-1172456D01*
X-14186077Y-1082850D01*
X-14206954Y-1016173D01*
X-14195173Y-961165D01*
X-14132974Y-828985D01*
X-14132973Y-828983D01*
X-14114014Y-729590D01*
X-14103489Y-674417D01*
X-14104327Y-661104D01*
X-14113369Y-517371D01*
X-14113369Y-517368D01*
X-14161995Y-367716D01*
X-14246310Y-234856D01*
X-14361014Y-127142D01*
X-14361022Y-127136D01*
X-14393821Y-109105D01*
X-14443084Y-59558D01*
X-14455860Y-5D01*
X-10259366Y-5D01*
X-10258860Y-16419D01*
X-10239907Y-631576D01*
X-10181605Y-1260756D01*
X-10087233Y-1868711D01*
X-10084680Y-1885158D01*
X-9958141Y-2462956D01*
X-9949502Y-2502400D01*
X-9949497Y-2502414D01*
X-9949497Y-2502418D01*
X-9787754Y-3070887D01*
X-9776581Y-3110154D01*
X-9566574Y-3706110D01*
X-9320278Y-4288008D01*
X-9038627Y-4853640D01*
X-8722689Y-5400860D01*
X-8373663Y-5927593D01*
X-7992873Y-6431841D01*
X-7581763Y-6911690D01*
X-7141893Y-7365321D01*
X-6674931Y-7791013D01*
X-6182649Y-8187151D01*
X-5666914Y-8552232D01*
X-5129683Y-8884872D01*
X-4572993Y-9183808D01*
X-3998956Y-9447907D01*
X-3409750Y-9676167D01*
X-2807609Y-9867721D01*
X-2194818Y-10021844D01*
X-1573701Y-10137951D01*
X-946615Y-10215601D01*
X-315938Y-10254500D01*
X315924Y-10254500D01*
X315938Y-10254500D01*
X946615Y-10215601D01*
X1573701Y-10137951D01*
X2194818Y-10021844D01*
X2807609Y-9867721D01*
X3409750Y-9676167D01*
X3998956Y-9447907D01*
X4572993Y-9183808D01*
X5129683Y-8884872D01*
X5666914Y-8552232D01*
X6182649Y-8187151D01*
X6674931Y-7791013D01*
X6994156Y-7500001D01*
X11131144Y-7500001D01*
X11150068Y-7764602D01*
X11206453Y-8023799D01*
X11206455Y-8023805D01*
X11206456Y-8023808D01*
X11262009Y-8172750D01*
X11299162Y-8272361D01*
X11426287Y-8505173D01*
X11426292Y-8505181D01*
X11585256Y-8717533D01*
X11585272Y-8717551D01*
X11772829Y-8905108D01*
X11772847Y-8905124D01*
X11985199Y-9064088D01*
X11985207Y-9064093D01*
X12218020Y-9191218D01*
X12218019Y-9191218D01*
X12218023Y-9191219D01*
X12218026Y-9191221D01*
X12466573Y-9283925D01*
X12466579Y-9283926D01*
X12466581Y-9283927D01*
X12725778Y-9340312D01*
X12725780Y-9340312D01*
X12725784Y-9340313D01*
X12960921Y-9357130D01*
X12990380Y-9359237D01*
X12990381Y-9359237D01*
X12990382Y-9359237D01*
X13016889Y-9357341D01*
X13254978Y-9340313D01*
X13320264Y-9326111D01*
X13514180Y-9283927D01*
X13514180Y-9283926D01*
X13514189Y-9283925D01*
X13762736Y-9191221D01*
X13762740Y-9191218D01*
X13762742Y-9191218D01*
X13895324Y-9118823D01*
X13995560Y-9064090D01*
X14207922Y-8905118D01*
X14395499Y-8717541D01*
X14554471Y-8505179D01*
X14681602Y-8272355D01*
X14774306Y-8023808D01*
X14830694Y-7764597D01*
X14849618Y-7500000D01*
X14830694Y-7235403D01*
X14810413Y-7142174D01*
X14774308Y-6976200D01*
X14774307Y-6976198D01*
X14774306Y-6976192D01*
X14681602Y-6727645D01*
X14681600Y-6727642D01*
X14681599Y-6727638D01*
X14554474Y-6494826D01*
X14554469Y-6494818D01*
X14395505Y-6282466D01*
X14395489Y-6282448D01*
X14207932Y-6094891D01*
X14207914Y-6094875D01*
X13995562Y-5935911D01*
X13995554Y-5935906D01*
X13762741Y-5808781D01*
X13762742Y-5808781D01*
X13663317Y-5771697D01*
X13514189Y-5716075D01*
X13514186Y-5716074D01*
X13514180Y-5716072D01*
X13254983Y-5659687D01*
X12990382Y-5640763D01*
X12990380Y-5640763D01*
X12725778Y-5659687D01*
X12466581Y-5716072D01*
X12218019Y-5808781D01*
X11985207Y-5935906D01*
X11985199Y-5935911D01*
X11772847Y-6094875D01*
X11772829Y-6094891D01*
X11585272Y-6282448D01*
X11585256Y-6282466D01*
X11426292Y-6494818D01*
X11426287Y-6494826D01*
X11299162Y-6727638D01*
X11206453Y-6976200D01*
X11150068Y-7235397D01*
X11131144Y-7499998D01*
X11131144Y-7500001D01*
X6994156Y-7500001D01*
X7141893Y-7365321D01*
X7581763Y-6911690D01*
X7992873Y-6431841D01*
X8373663Y-5927593D01*
X8722689Y-5400860D01*
X9038627Y-4853640D01*
X9320278Y-4288008D01*
X9566574Y-3706110D01*
X9776581Y-3110154D01*
X9787754Y-3070887D01*
X9949497Y-2502418D01*
X9949497Y-2502414D01*
X9949502Y-2502400D01*
X9958141Y-2462956D01*
X10084680Y-1885158D01*
X10087233Y-1868711D01*
X10181605Y-1260756D01*
X10239907Y-631576D01*
X10258860Y-16419D01*
X10259366Y-5D01*
X10259366Y5D01*
X10254536Y156765D01*
X10239907Y631576D01*
X10181605Y1260756D01*
X10084681Y1885154D01*
X10001303Y2265871D01*
X9949507Y2502378D01*
X9949505Y2502383D01*
X9949502Y2502400D01*
X9925427Y2587016D01*
X9776590Y3110124D01*
X9776586Y3110135D01*
X9776581Y3110154D01*
X9566574Y3706110D01*
X9558632Y3724873D01*
X9418263Y4056509D01*
X9320278Y4288008D01*
X9038627Y4853640D01*
X8722689Y5400860D01*
X8373663Y5927593D01*
X7992873Y6431841D01*
X7581763Y6911690D01*
X7141893Y7365321D01*
X6674931Y7791013D01*
X6182649Y8187151D01*
X5666914Y8552232D01*
X5129683Y8884872D01*
X5065708Y8919226D01*
X16297622Y8919226D01*
X16315973Y8732895D01*
X16315974Y8732893D01*
X16370325Y8553724D01*
X16458583Y8388603D01*
X16458585Y8388600D01*
X16577363Y8243869D01*
X16722094Y8125091D01*
X16722097Y8125089D01*
X16887218Y8036831D01*
X17066387Y7982480D01*
X17066389Y7982479D01*
X17252720Y7964128D01*
X17252721Y7964128D01*
X17269426Y7965773D01*
X17439052Y7982479D01*
X17439054Y7982480D01*
X17618223Y8036831D01*
X17783344Y8125089D01*
X17783347Y8125091D01*
X17928078Y8243869D01*
X18046856Y8388600D01*
X18046858Y8388603D01*
X18135116Y8553724D01*
X18189467Y8732893D01*
X18189468Y8732895D01*
X18193118Y8769952D01*
X18207820Y8919227D01*
X18189468Y9105558D01*
X18135117Y9284728D01*
X18046857Y9449852D01*
X17928078Y9594584D01*
X17783346Y9713363D01*
X17618222Y9801623D01*
X17439052Y9855974D01*
X17252721Y9874326D01*
X17066389Y9855974D01*
X17066387Y9855973D01*
X16887220Y9801623D01*
X16887218Y9801622D01*
X16722097Y9713364D01*
X16722094Y9713362D01*
X16577363Y9594584D01*
X16458585Y9449853D01*
X16458583Y9449850D01*
X16370325Y9284729D01*
X16315974Y9105560D01*
X16315973Y9105558D01*
X16297622Y8919226D01*
X5065708Y8919226D01*
X4572993Y9183808D01*
X3998956Y9447907D01*
X3409750Y9676167D01*
X2807609Y9867721D01*
X2194818Y10021844D01*
X1573701Y10137951D01*
X946615Y10215601D01*
X315938Y10254500D01*
X315925Y10254500D01*
X-315925Y10254500D01*
X-315938Y10254500D01*
X-946615Y10215601D01*
X-1573701Y10137951D01*
X-2194818Y10021844D01*
X-2807609Y9867721D01*
X-3409750Y9676167D01*
X-3998956Y9447907D01*
X-4572993Y9183808D01*
X-5129683Y8884872D01*
X-5666914Y8552232D01*
X-6182649Y8187151D01*
X-6674931Y7791013D01*
X-7141893Y7365321D01*
X-7581763Y6911690D01*
X-7992873Y6431841D01*
X-8373663Y5927593D01*
X-8722689Y5400860D01*
X-9038627Y4853640D01*
X-9320278Y4288008D01*
X-9418263Y4056509D01*
X-9558632Y3724873D01*
X-9566574Y3706110D01*
X-9776581Y3110154D01*
X-9776586Y3110135D01*
X-9776590Y3110124D01*
X-9925427Y2587016D01*
X-9949502Y2502400D01*
X-9949505Y2502383D01*
X-9949507Y2502378D01*
X-10001303Y2265871D01*
X-10084681Y1885154D01*
X-10181605Y1260756D01*
X-10239907Y631576D01*
X-10254536Y156765D01*
X-10259366Y5D01*
X-10259366Y-5D01*
X-14455860Y-5D01*
X-14457740Y8757D01*
X-14433135Y74151D01*
X-14406972Y99869D01*
X-14300276Y177390D01*
X-14300275Y177391D01*
X-14199971Y298637D01*
X-14132974Y441014D01*
X-14132974Y441015D01*
X-14125207Y481732D01*
X-14103489Y595583D01*
X-14106246Y639400D01*
X-14113369Y752628D01*
X-14113369Y752631D01*
X-14161995Y902283D01*
X-14187103Y941847D01*
X-14188932Y944729D01*
X-14208233Y1011880D01*
X-14188166Y1078806D01*
X-14187338Y1080060D01*
X-14125735Y1172257D01*
X-14125732Y1172264D01*
X-14111200Y1245321D01*
X-14111200Y2542475D01*
X-14091515Y2609514D01*
X-14054248Y2645051D01*
X-14054606Y2645517D01*
X-14050275Y2648839D01*
X-14049210Y2649856D01*
X-14048164Y2650459D01*
X-13922719Y2746716D01*
X-13826463Y2872160D01*
X-13765956Y3018237D01*
X-13765955Y3018239D01*
X-13745318Y3174998D01*
X-13745318Y3175001D01*
X-13765955Y3331760D01*
X-13765956Y3331762D01*
X-13826463Y3477839D01*
X-13826464Y3477841D01*
X-13922718Y3603282D01*
X-14048159Y3699536D01*
X-14194238Y3760044D01*
X-14282569Y3771673D01*
X-14350999Y3780682D01*
X-14351001Y3780682D01*
X-14403253Y3773802D01*
X-14507762Y3760044D01*
X-14653841Y3699536D01*
X-14779282Y3603282D01*
X-14875536Y3477841D01*
X-14936044Y3331762D01*
X-14936044Y3331760D01*
X-14956682Y3175001D01*
X-14956682Y3166872D01*
X-14958995Y3166872D01*
X-14967922Y3109604D01*
X-14984555Y3086979D01*
X-14982895Y3085688D01*
X-14989207Y3077577D01*
X-14989209Y3077576D01*
X-15011159Y3049373D01*
X-15016219Y3043645D01*
X-15019052Y3040814D01*
X-15029528Y3026139D01*
X-15031957Y3022739D01*
X-15033479Y3020697D01*
X-15066592Y2978155D01*
X-15066592Y2978154D01*
X-15070344Y2971219D01*
X-15073832Y2964088D01*
X-15084244Y2929113D01*
X-15122238Y2870477D01*
X-15178898Y2842875D01*
X-15196040Y2839466D01*
X-15278901Y2784101D01*
X-15278902Y2784099D01*
X-15289056Y2777315D01*
X-15290015Y2778750D01*
X-15338642Y2752198D01*
X-15408334Y2757182D01*
X-15440558Y2777892D01*
X-15440944Y2777315D01*
X-15451098Y2784099D01*
X-15451099Y2784101D01*
X-15533960Y2839466D01*
X-15533964Y2839467D01*
X-15607023Y2854000D01*
X-15607026Y2854000D01*
X-15818000Y2854000D01*
X-15885039Y2873685D01*
X-15930794Y2926489D01*
X-15942000Y2978000D01*
X-15942000Y3232875D01*
X-15922315Y3299914D01*
X-15893488Y3331250D01*
X-15827719Y3381717D01*
X-15731463Y3507160D01*
X-15670956Y3653237D01*
X-15670955Y3653239D01*
X-15650318Y3809998D01*
X-15650318Y3810001D01*
X-15670955Y3966760D01*
X-15670956Y3966762D01*
X-15731463Y4112839D01*
X-15731464Y4112841D01*
X-15827718Y4238282D01*
X-15953159Y4334536D01*
X-16099238Y4395044D01*
X-16177618Y4405363D01*
X-16255999Y4415682D01*
X-16256001Y4415682D01*
X-16308254Y4408802D01*
X-16412762Y4395044D01*
X-16558841Y4334536D01*
X-16684282Y4238282D01*
X-16780536Y4112841D01*
X-16841044Y3966762D01*
X-16841044Y3966760D01*
X-16852673Y3878427D01*
X-16880939Y3814531D01*
X-16939263Y3776059D01*
X-16959421Y3771674D01*
X-17047762Y3760044D01*
X-17193841Y3699536D01*
X-17319282Y3603282D01*
X-17415536Y3477841D01*
X-17476044Y3331762D01*
X-17476044Y3331760D01*
X-17496682Y3175001D01*
X-17496682Y3166872D01*
X-17498995Y3166872D01*
X-17507922Y3109604D01*
X-17524555Y3086979D01*
X-17522895Y3085688D01*
X-17529207Y3077577D01*
X-17529209Y3077576D01*
X-17551159Y3049373D01*
X-17556219Y3043645D01*
X-17559052Y3040814D01*
X-17569528Y3026139D01*
X-17571957Y3022739D01*
X-17573479Y3020697D01*
X-17606592Y2978155D01*
X-17606592Y2978154D01*
X-17610344Y2971219D01*
X-17613832Y2964088D01*
X-17624244Y2929113D01*
X-17662238Y2870477D01*
X-17718898Y2842875D01*
X-17736040Y2839466D01*
X-17818901Y2784101D01*
X-17874266Y2701240D01*
X-17886719Y2638633D01*
X-17888799Y2628178D01*
X-17888800Y2628176D01*
X-17888800Y1245323D01*
X-17888799Y1245321D01*
X-17875599Y1178958D01*
X-17874266Y1172260D01*
X-17818901Y1089399D01*
X-17818899Y1089397D01*
X-17814172Y1082323D01*
X-17793294Y1015645D01*
X-17805076Y960636D01*
X-17867026Y828985D01*
X-17896511Y674417D01*
X-17886631Y517371D01*
X-17838005Y367717D01*
X-17787093Y287493D01*
X-17753689Y234856D01*
X-17638985Y127142D01*
X-17638980Y127138D01*
X-17606179Y109106D01*
X-17556915Y59559D01*
X-17542259Y-8756D01*
X-17566863Y-74150D01*
X-17593027Y-99869D01*
X-17699724Y-177390D01*
X-17800027Y-298635D01*
X-17867026Y-441015D01*
X-17896511Y-595583D01*
X-17886631Y-752629D01*
X-17838005Y-902283D01*
X-17811066Y-944730D01*
X-17791766Y-1011878D01*
X-17811832Y-1078804D01*
X-17812661Y-1080061D01*
X-17818899Y-1089398D01*
X-17818901Y-1089399D01*
X-17874264Y-1172257D01*
X-17874266Y-1172260D01*
X-17874267Y-1172264D01*
X-17888799Y-1245321D01*
X-17888800Y-1245323D01*
X-17888800Y-1245325D01*
X-17888800Y-1245326D01*
X-17888800Y-2628174D01*
X-17874266Y-2701240D01*
X-17818901Y-2784101D01*
X-17736040Y-2839466D01*
X-17736035Y-2839466D01*
X-17736035Y-2839467D01*
X-17683809Y-2849856D01*
X-17621898Y-2882240D01*
X-17587324Y-2942956D01*
X-17584000Y-2971473D01*
X-17584000Y-3865344D01*
X-17603685Y-3932383D01*
X-17656489Y-3978138D01*
X-17675902Y-3985118D01*
X-17682762Y-3986956D01*
X-17824290Y-4045579D01*
X-17828841Y-4047464D01*
X-17954282Y-4143718D01*
X-18050536Y-4269159D01*
X-18111044Y-4415238D01*
X-18131682Y-4572000D01*
X-22687100Y-4572000D01*
X-22687100Y-1064386D01*
X-22667415Y-997347D01*
X-22614611Y-951592D01*
X-22563100Y-940386D01*
X-22557324Y-940386D01*
X-22557321Y-940385D01*
X-22484264Y-925853D01*
X-22484263Y-925852D01*
X-22484260Y-925852D01*
X-22484257Y-925850D01*
X-22472980Y-921179D01*
X-22471422Y-924937D01*
X-22426338Y-910816D01*
X-22399914Y-913180D01*
X-22395753Y-914008D01*
X-22390776Y-914999D01*
X-21681026Y-914999D01*
X-21681024Y-914999D01*
X-21681021Y-914998D01*
X-21607964Y-900466D01*
X-21607960Y-900465D01*
X-21607959Y-900465D01*
X-21525099Y-845100D01*
X-21469734Y-762239D01*
X-21469733Y-762238D01*
X-21469732Y-762234D01*
X-21455200Y-689177D01*
X-21455200Y-589026D01*
X-21435515Y-521987D01*
X-21382711Y-476232D01*
X-21313553Y-466288D01*
X-21249997Y-495313D01*
X-21243546Y-501318D01*
X-21132816Y-612048D01*
X-21099334Y-673369D01*
X-21096500Y-699726D01*
X-21096500Y-856582D01*
X-21085582Y-931518D01*
X-21067995Y-967493D01*
X-21029078Y-1047099D01*
X-21029076Y-1047102D01*
X-20938102Y-1138076D01*
X-20938099Y-1138078D01*
X-20920020Y-1146916D01*
X-20822518Y-1194582D01*
X-20747582Y-1205500D01*
X-20404423Y-1205500D01*
X-20404418Y-1205500D01*
X-20329482Y-1194582D01*
X-20310090Y-1185102D01*
X-20213900Y-1138078D01*
X-20213897Y-1138076D01*
X-20153681Y-1077860D01*
X-20092358Y-1044375D01*
X-20022666Y-1049359D01*
X-19978319Y-1077860D01*
X-19918102Y-1138076D01*
X-19918099Y-1138078D01*
X-19900020Y-1146916D01*
X-19802518Y-1194582D01*
X-19727582Y-1205500D01*
X-19384423Y-1205500D01*
X-19384418Y-1205500D01*
X-19309482Y-1194582D01*
X-19290090Y-1185102D01*
X-19193900Y-1138078D01*
X-19193897Y-1138076D01*
X-19102923Y-1047102D01*
X-19102921Y-1047099D01*
X-19046419Y-931521D01*
X-19046418Y-931519D01*
X-19046418Y-931518D01*
X-19035500Y-856582D01*
X-19035500Y-512426D01*
X-19015815Y-445387D01*
X-19007394Y-434937D01*
X-19007666Y-434729D01*
X-19002720Y-428283D01*
X-19002718Y-428282D01*
X-18906464Y-302841D01*
X-18904722Y-298637D01*
X-18845956Y-156762D01*
X-18845955Y-156760D01*
X-18825318Y-1D01*
X-18825318Y1D01*
X-18845955Y156760D01*
X-18845957Y156765D01*
X-18904492Y298082D01*
X-18911961Y367551D01*
X-18880686Y430030D01*
X-18868596Y441387D01*
X-18777115Y516463D01*
X-18658337Y661194D01*
X-18658335Y661197D01*
X-18570077Y826318D01*
X-18515726Y1005487D01*
X-18515725Y1005489D01*
X-18497374Y1191821D01*
X-18515725Y1378152D01*
X-18515726Y1378154D01*
X-18570077Y1557323D01*
X-18658335Y1722444D01*
X-18658337Y1722447D01*
X-18777115Y1867178D01*
X-18921846Y1985956D01*
X-18921849Y1985958D01*
X-19086970Y2074216D01*
X-19086972Y2074217D01*
X-19266139Y2128567D01*
X-19266141Y2128568D01*
X-19452473Y2146920D01*
X-19638804Y2128568D01*
X-19817974Y2074217D01*
X-19983098Y1985957D01*
X-20127830Y1867178D01*
X-20246609Y1722446D01*
X-20311283Y1601447D01*
X-20360243Y1551605D01*
X-20428381Y1536144D01*
X-20494061Y1559975D01*
X-20536430Y1615532D01*
X-20543580Y1676078D01*
X-20542956Y1680820D01*
X-20542956Y1680829D01*
X-20563593Y1837588D01*
X-20563594Y1837590D01*
X-20624101Y1983667D01*
X-20624102Y1983669D01*
X-20720356Y2109110D01*
X-20845797Y2205364D01*
X-20991876Y2265872D01*
X-21070257Y2276191D01*
X-21148637Y2286510D01*
X-21148639Y2286510D01*
X-21200891Y2279630D01*
X-21305400Y2265872D01*
X-21451479Y2205364D01*
X-21576920Y2109110D01*
X-21673174Y1983669D01*
X-21733682Y1837590D01*
X-21754320Y1680828D01*
X-21753947Y1677998D01*
X-21754320Y1675608D01*
X-21754320Y1672700D01*
X-21754773Y1672700D01*
X-21764707Y1608966D01*
X-21789201Y1574129D01*
X-22055928Y1307404D01*
X-22136214Y1227118D01*
X-22197537Y1193633D01*
X-22223895Y1190799D01*
X-22390776Y1190799D01*
X-22395753Y1189808D01*
X-22399912Y1188981D01*
X-22469503Y1195202D01*
X-22472965Y1197013D01*
X-22472980Y1196979D01*
X-22484257Y1201650D01*
X-22484260Y1201652D01*
X-22484263Y1201652D01*
X-22484264Y1201653D01*
X-22557323Y1216186D01*
X-22557326Y1216186D01*
X-22563100Y1216186D01*
X-22630139Y1235871D01*
X-22675894Y1288675D01*
X-22687100Y1340186D01*
X-22687100Y7854591D01*
X-22667415Y7921630D01*
X-22650781Y7942272D01*
X-22462882Y8130170D01*
X-22401559Y8163655D01*
X-22331867Y8158671D01*
X-22313201Y8149876D01*
X-20043775Y6839623D01*
X-20043773Y6839622D01*
X-20043771Y6839621D01*
X-20043765Y6839619D01*
X-19973228Y6815675D01*
X-19973227Y6815675D01*
X-19923505Y6818933D01*
X-19873784Y6822192D01*
X-19784407Y6866269D01*
X-19784406Y6866269D01*
X-19735285Y6922281D01*
X-18605715Y8878754D01*
X-18605711Y8878764D01*
X-18581767Y8949300D01*
X-18588284Y9048745D01*
X-18594522Y9061395D01*
X-18632361Y9138123D01*
X-18669717Y9170884D01*
X-18707140Y9229886D01*
X-18706724Y9299755D01*
X-18695344Y9326111D01*
X-17424321Y11527588D01*
X-17373754Y11575804D01*
X-17305147Y11589027D01*
X-17277077Y11583008D01*
X-17230027Y11567037D01*
X-17148381Y11572387D01*
X-17080198Y11557127D01*
X-17031089Y11507428D01*
X-17016645Y11439068D01*
X-17041452Y11373750D01*
X-17044397Y11370017D01*
X-17122236Y11275171D01*
X-17210496Y11110047D01*
X-17264847Y10930877D01*
X-17283199Y10744546D01*
X-17264847Y10558215D01*
X-17257483Y10533938D01*
X-17210495Y10379043D01*
X-17122237Y10213922D01*
X-17122235Y10213919D01*
X-17003457Y10069188D01*
X-16858726Y9950410D01*
X-16858723Y9950408D01*
X-16693602Y9862150D01*
X-16514433Y9807799D01*
X-16514431Y9807798D01*
X-16328100Y9789447D01*
X-16141768Y9807798D01*
X-16141766Y9807799D01*
X-15962597Y9862150D01*
X-15797476Y9950408D01*
X-15797473Y9950410D01*
X-15652742Y10069188D01*
X-15533964Y10213919D01*
X-15533962Y10213922D01*
X-15445704Y10379043D01*
X-15391353Y10558212D01*
X-15391352Y10558214D01*
X-15373001Y10744546D01*
X-15391352Y10930877D01*
X-15391353Y10930879D01*
X-15445704Y11110048D01*
X-15533962Y11275169D01*
X-15533964Y11275172D01*
X-15652742Y11419903D01*
X-15797473Y11538681D01*
X-15797476Y11538683D01*
X-15962597Y11626941D01*
X-15962599Y11626942D01*
X-16141766Y11681292D01*
X-16141768Y11681293D01*
X-16328100Y11699645D01*
X-16514431Y11681293D01*
X-16693601Y11626942D01*
X-16781358Y11580035D01*
X-16849756Y11565794D01*
X-16915000Y11590793D01*
X-16956371Y11647098D01*
X-16960734Y11716831D01*
X-16947195Y11751394D01*
X-15862515Y13630116D01*
X-15862511Y13630126D01*
X-15838567Y13700662D01*
X-15840860Y13735644D01*
X-15845084Y13800107D01*
X-15889161Y13889485D01*
X-15945171Y13938605D01*
X-16871431Y14473381D01*
X-17528008Y14852456D01*
X-17576224Y14903023D01*
X-17589447Y14971630D01*
X-17578089Y15000000D01*
X-1859237Y15000000D01*
X-1840313Y14735403D01*
X-1840312Y14735399D01*
X-1840312Y14735397D01*
X-1797765Y14539812D01*
X-1783925Y14476192D01*
X-1691221Y14227645D01*
X-1691218Y14227638D01*
X-1564093Y13994826D01*
X-1564088Y13994818D01*
X-1405124Y13782466D01*
X-1405108Y13782448D01*
X-1217551Y13594891D01*
X-1217533Y13594875D01*
X-1005181Y13435911D01*
X-1005173Y13435906D01*
X-772360Y13308781D01*
X-772361Y13308781D01*
X-672936Y13271697D01*
X-523808Y13216075D01*
X-523805Y13216074D01*
X-523799Y13216072D01*
X-264602Y13159687D01*
X-1Y13140763D01*
X0Y13140763D01*
X1Y13140763D01*
X264602Y13159687D01*
X523799Y13216072D01*
X523805Y13216074D01*
X523808Y13216075D01*
X672936Y13271697D01*
X772361Y13308781D01*
X1005173Y13435906D01*
X1005181Y13435911D01*
X1217533Y13594875D01*
X1217551Y13594891D01*
X1405108Y13782448D01*
X1405124Y13782466D01*
X1564088Y13994818D01*
X1564093Y13994826D01*
X1691218Y14227638D01*
X1691221Y14227645D01*
X1783925Y14476192D01*
X1797765Y14539812D01*
X1840312Y14735397D01*
X1840312Y14735399D01*
X1840313Y14735403D01*
X1859237Y15000000D01*
X1840313Y15264597D01*
X1834796Y15289956D01*
X1783927Y15523799D01*
X1783926Y15523799D01*
X1783925Y15523808D01*
X1691221Y15772355D01*
X1658076Y15833055D01*
X1564093Y16005173D01*
X1564090Y16005179D01*
X1405118Y16217541D01*
X1221259Y16401400D01*
X9586947Y16401400D01*
X9605298Y16215068D01*
X9605299Y16215066D01*
X9659650Y16035897D01*
X9747908Y15870776D01*
X9747910Y15870773D01*
X9866688Y15726042D01*
X10011419Y15607264D01*
X10011422Y15607262D01*
X10176543Y15519004D01*
X10355712Y15464653D01*
X10355714Y15464652D01*
X10542045Y15446301D01*
X10542046Y15446301D01*
X10558751Y15447946D01*
X10728377Y15464652D01*
X10728379Y15464653D01*
X10907548Y15519004D01*
X11022334Y15580358D01*
X11090737Y15594600D01*
X11155981Y15569600D01*
X11179161Y15546488D01*
X11241956Y15464653D01*
X11255718Y15446718D01*
X11381160Y15350463D01*
X11527237Y15289956D01*
X11527239Y15289955D01*
X11683999Y15269318D01*
X11684000Y15269318D01*
X11684001Y15269318D01*
X11840760Y15289955D01*
X11840762Y15289956D01*
X11986839Y15350463D01*
X11986841Y15350464D01*
X12112282Y15446718D01*
X12208536Y15572159D01*
X12261413Y15699814D01*
X14072152Y15699814D01*
X14137699Y15661971D01*
X14224028Y15628832D01*
X14347397Y15622366D01*
X14466729Y15654342D01*
X14466731Y15654343D01*
X14570336Y15721623D01*
X14628531Y15793489D01*
X14651373Y15833054D01*
X14651373Y15833055D01*
X14274653Y16050554D01*
X14274652Y16050554D01*
X14072152Y15699814D01*
X12261413Y15699814D01*
X12269044Y15718238D01*
X12284160Y15833055D01*
X12289682Y15874998D01*
X12289682Y15875001D01*
X12269044Y16031760D01*
X12269044Y16031762D01*
X12208536Y16177841D01*
X12185537Y16207814D01*
X13192252Y16207814D01*
X13257799Y16169971D01*
X13344128Y16136832D01*
X13467497Y16130366D01*
X13467501Y16130367D01*
X13492413Y16137042D01*
X13562263Y16135379D01*
X13620125Y16096216D01*
X13644279Y16049364D01*
X13650952Y16024461D01*
X13718236Y15920852D01*
X13718238Y15920850D01*
X13790092Y15862662D01*
X13790096Y15862659D01*
X13855645Y15824814D01*
X13855646Y15824814D01*
X14058145Y16175553D01*
X14058145Y16175554D01*
X13934252Y16247084D01*
X13934215Y16247096D01*
X13394753Y16558554D01*
X13394752Y16558554D01*
X13192252Y16207814D01*
X12185537Y16207814D01*
X12112282Y16303282D01*
X12110013Y16305022D01*
X12108585Y16306978D01*
X12106535Y16309029D01*
X12106854Y16309348D01*
X12068811Y16361450D01*
X12061500Y16403398D01*
X12061500Y16651791D01*
X12739077Y16651791D01*
X12771053Y16532460D01*
X12838336Y16428852D01*
X12838338Y16428850D01*
X12910192Y16370662D01*
X12910196Y16370659D01*
X12975745Y16332814D01*
X12975746Y16332814D01*
X13178245Y16683553D01*
X13178245Y16683554D01*
X12801526Y16901054D01*
X12801525Y16901053D01*
X12778681Y16861484D01*
X12778677Y16861476D01*
X12745544Y16775165D01*
X12745543Y16775158D01*
X12739077Y16651791D01*
X12061500Y16651791D01*
X12061500Y16825953D01*
X12081185Y16892992D01*
X12097819Y16913634D01*
X12526845Y17342660D01*
X12588168Y17376145D01*
X12657860Y17371161D01*
X12676525Y17362366D01*
X12787126Y17298510D01*
X12787135Y17298506D01*
X12847960Y17277859D01*
X12905114Y17237669D01*
X12931466Y17172960D01*
X12923344Y17129431D01*
X12926525Y17117559D01*
X13303247Y16900061D01*
X13640124Y16705564D01*
X13640167Y16705550D01*
X14183147Y16392061D01*
X14776372Y16049561D01*
X14776373Y16049561D01*
X14799216Y16089126D01*
X14832355Y16175453D01*
X14832356Y16175457D01*
X14838822Y16298824D01*
X14838822Y16298825D01*
X14831549Y16325967D01*
X14833210Y16395817D01*
X14872371Y16453680D01*
X14919228Y16477837D01*
X14946933Y16485261D01*
X14946934Y16485261D01*
X15050675Y16552631D01*
X15055472Y16558554D01*
X15108940Y16624581D01*
X15175372Y16739646D01*
X15225937Y16787860D01*
X15294544Y16801084D01*
X15359409Y16775116D01*
X15370439Y16765326D01*
X17258612Y14877152D01*
X17292097Y14815829D01*
X17287113Y14746137D01*
X17245241Y14690204D01*
X17232931Y14682084D01*
X15945187Y13938605D01*
X15889177Y13889485D01*
X15845100Y13800107D01*
X15840876Y13735644D01*
X15838583Y13700662D01*
X15862527Y13630126D01*
X15862531Y13630116D01*
X16992101Y11673643D01*
X17041223Y11617631D01*
X17130600Y11573554D01*
X17230043Y11567037D01*
X17277093Y11583008D01*
X17346902Y11585916D01*
X17407202Y11550621D01*
X17424337Y11527588D01*
X18695360Y9326111D01*
X18711833Y9258211D01*
X18688980Y9192184D01*
X18669733Y9170884D01*
X18632377Y9138123D01*
X18594538Y9061395D01*
X18588300Y9048745D01*
X18581783Y8949300D01*
X18605727Y8878764D01*
X18605731Y8878754D01*
X19735301Y6922281D01*
X19784423Y6866269D01*
X19873800Y6822192D01*
X19906948Y6820019D01*
X19973243Y6815675D01*
X19973245Y6815675D01*
X20043781Y6839619D01*
X20043787Y6839621D01*
X20043789Y6839622D01*
X20043791Y6839623D01*
X21861563Y7889113D01*
X21929463Y7905586D01*
X21995490Y7882733D01*
X22011244Y7869407D01*
X22521581Y7359071D01*
X22555066Y7297748D01*
X22557900Y7271390D01*
X22557900Y1340186D01*
X22538215Y1273147D01*
X22485411Y1227392D01*
X22433900Y1216186D01*
X22428123Y1216186D01*
X22355064Y1201653D01*
X22355063Y1201652D01*
X22355060Y1201652D01*
X22355057Y1201650D01*
X22343780Y1196979D01*
X22342222Y1200737D01*
X22297138Y1186616D01*
X22270714Y1188980D01*
X22266553Y1189808D01*
X22261576Y1190799D01*
X22261574Y1190799D01*
X21551826Y1190799D01*
X21551823Y1190799D01*
X21478764Y1176266D01*
X21478760Y1176265D01*
X21395899Y1120900D01*
X21358905Y1065533D01*
X21340533Y1038038D01*
X21340532Y1038034D01*
X21326000Y964977D01*
X21326000Y639400D01*
X21306315Y572361D01*
X21253511Y526606D01*
X21202000Y515400D01*
X21153829Y515400D01*
X21086790Y535085D01*
X21066148Y551718D01*
X21005819Y612046D01*
X20972334Y673369D01*
X20969500Y699728D01*
X20969500Y856576D01*
X20969500Y856582D01*
X20958582Y931518D01*
X20930329Y989310D01*
X20902078Y1047099D01*
X20902076Y1047102D01*
X20811102Y1138076D01*
X20811099Y1138078D01*
X20695522Y1194580D01*
X20695518Y1194582D01*
X20623945Y1205009D01*
X20560449Y1234152D01*
X20522785Y1293001D01*
X20522053Y1359808D01*
X20524042Y1367234D01*
X20524044Y1367238D01*
X20544682Y1524000D01*
X20524044Y1680762D01*
X20463536Y1826841D01*
X20367282Y1952282D01*
X20241841Y2048536D01*
X20095762Y2109044D01*
X19991254Y2122802D01*
X19939001Y2129682D01*
X19938999Y2129682D01*
X19860619Y2119363D01*
X19782238Y2109044D01*
X19636159Y2048536D01*
X19510718Y1952282D01*
X19414464Y1826841D01*
X19414463Y1826839D01*
X19353956Y1680762D01*
X19353955Y1680760D01*
X19333318Y1524001D01*
X19333318Y1523998D01*
X19353956Y1367234D01*
X19355948Y1359801D01*
X19354282Y1289951D01*
X19315117Y1232090D01*
X19254052Y1205009D01*
X19182482Y1194582D01*
X19182478Y1194580D01*
X19066900Y1138078D01*
X19066897Y1138076D01*
X18975926Y1047105D01*
X18975925Y1047103D01*
X18975924Y1047102D01*
X18960545Y1015644D01*
X18959732Y1013981D01*
X18912603Y962399D01*
X18880428Y948669D01*
X18857581Y942547D01*
X18852310Y941378D01*
X18813949Y934615D01*
X18813947Y934614D01*
X18813946Y934614D01*
X18807473Y932258D01*
X18794511Y926890D01*
X18788253Y923971D01*
X18788251Y923971D01*
X18773120Y913376D01*
X18756343Y901629D01*
X18751779Y898722D01*
X18734780Y888907D01*
X18718051Y879249D01*
X18718049Y879246D01*
X18718048Y879246D01*
X18693004Y849400D01*
X18689349Y845412D01*
X18077581Y233644D01*
X18073591Y229988D01*
X18043750Y204948D01*
X18043749Y204946D01*
X18024273Y171212D01*
X18021366Y166649D01*
X17999029Y134749D01*
X17996131Y128535D01*
X17990730Y115494D01*
X17988385Y109053D01*
X17981622Y70698D01*
X17980451Y65415D01*
X17970369Y27789D01*
X17973566Y-8757D01*
X17973764Y-11012D01*
X17974000Y-16419D01*
X17974000Y-156742D01*
X17954315Y-223781D01*
X17901511Y-269536D01*
X17832353Y-279480D01*
X17768797Y-250455D01*
X17754458Y-235784D01*
X17753693Y-234859D01*
X17638985Y-127142D01*
X17638980Y-127138D01*
X17606179Y-109106D01*
X17556915Y-59559D01*
X17542259Y8756D01*
X17566863Y74150D01*
X17593027Y99869D01*
X17678120Y161694D01*
X17699723Y177389D01*
X17735504Y220641D01*
X17800027Y298635D01*
X17867026Y441015D01*
X17896511Y595583D01*
X17886631Y752629D01*
X17838005Y902283D01*
X17811066Y944730D01*
X17791766Y1011878D01*
X17811832Y1078804D01*
X17812661Y1080061D01*
X17818899Y1089398D01*
X17818901Y1089399D01*
X17874266Y1172260D01*
X17875599Y1178958D01*
X17888799Y1245321D01*
X17888800Y1245323D01*
X17888800Y2628176D01*
X17888799Y2628178D01*
X17886719Y2638633D01*
X17874266Y2701240D01*
X17818901Y2784101D01*
X17736040Y2839466D01*
X17662974Y2854000D01*
X17662964Y2854000D01*
X17659678Y2854324D01*
X17658055Y2854979D01*
X17657000Y2855189D01*
X17657039Y2855389D01*
X17594889Y2880480D01*
X17573961Y2901575D01*
X17572025Y2904061D01*
X17572020Y2904071D01*
X17532313Y2940622D01*
X17530540Y2942323D01*
X17404563Y3068300D01*
X17371081Y3129620D01*
X17369309Y3172168D01*
X17369682Y3175000D01*
X17349044Y3331762D01*
X17288536Y3477841D01*
X17192282Y3603282D01*
X17066841Y3699536D01*
X16920762Y3760044D01*
X16816253Y3773802D01*
X16764001Y3780682D01*
X16763999Y3780682D01*
X16695569Y3771673D01*
X16607238Y3760044D01*
X16522327Y3724872D01*
X16452860Y3717404D01*
X16390380Y3748679D01*
X16354728Y3808768D01*
X16351939Y3823236D01*
X16333044Y3966762D01*
X16272536Y4112841D01*
X16176282Y4238282D01*
X16050841Y4334536D01*
X15904762Y4395044D01*
X15800254Y4408802D01*
X15748001Y4415682D01*
X15747999Y4415682D01*
X15669618Y4405363D01*
X15591238Y4395044D01*
X15445159Y4334536D01*
X15319718Y4238282D01*
X15223464Y4112841D01*
X15223463Y4112839D01*
X15162956Y3966762D01*
X15162955Y3966760D01*
X15142318Y3810001D01*
X15142318Y3809998D01*
X15162955Y3653239D01*
X15162956Y3653237D01*
X15223463Y3507160D01*
X15319718Y3381718D01*
X15445160Y3285463D01*
X15591239Y3224955D01*
X15594097Y3224190D01*
X15596236Y3222886D01*
X15598747Y3221846D01*
X15598584Y3221454D01*
X15653756Y3187823D01*
X15684284Y3124975D01*
X15686000Y3104416D01*
X15686000Y2971473D01*
X15666315Y2904434D01*
X15613511Y2858679D01*
X15586191Y2849856D01*
X15533964Y2839467D01*
X15533960Y2839466D01*
X15451099Y2784101D01*
X15451098Y2784099D01*
X15440944Y2777315D01*
X15439984Y2778750D01*
X15391358Y2752198D01*
X15321666Y2757182D01*
X15289441Y2777892D01*
X15289056Y2777315D01*
X15278901Y2784099D01*
X15278901Y2784101D01*
X15196040Y2839466D01*
X15196035Y2839467D01*
X15122977Y2854000D01*
X15122974Y2854000D01*
X14337026Y2854000D01*
X14337023Y2854000D01*
X14263964Y2839467D01*
X14263960Y2839466D01*
X14181099Y2784101D01*
X14156121Y2746718D01*
X14125733Y2701239D01*
X14125732Y2701235D01*
X14111200Y2628178D01*
X14111200Y1245321D01*
X14125732Y1172264D01*
X14125733Y1172260D01*
X14160051Y1120900D01*
X14179775Y1091380D01*
X14185828Y1082322D01*
X14206705Y1015644D01*
X14194924Y960636D01*
X14175904Y920216D01*
X14132974Y828985D01*
X14103489Y674417D01*
X14103489Y674413D01*
X14113369Y517371D01*
X14113369Y517368D01*
X14161995Y367716D01*
X14246310Y234856D01*
X14361014Y127142D01*
X14361022Y127136D01*
X14393821Y109105D01*
X14443084Y59558D01*
X14457740Y-8757D01*
X14433135Y-74151D01*
X14406972Y-99869D01*
X14300276Y-177390D01*
X14300275Y-177391D01*
X14199971Y-298637D01*
X14135834Y-434937D01*
X14132974Y-441015D01*
X14103489Y-595583D01*
X14103489Y-595585D01*
X14103489Y-595586D01*
X14113369Y-752628D01*
X14113369Y-752631D01*
X14161995Y-902283D01*
X14188932Y-944729D01*
X14208233Y-1011880D01*
X14188166Y-1078806D01*
X14187338Y-1080060D01*
X14125735Y-1172257D01*
X14125732Y-1172264D01*
X14111200Y-1245321D01*
X14111200Y-2542332D01*
X14091515Y-2609371D01*
X14038711Y-2655126D01*
X13969553Y-2665070D01*
X13905997Y-2636045D01*
X13896017Y-2625453D01*
X13890286Y-2619722D01*
X13890283Y-2619720D01*
X13890282Y-2619718D01*
X13764841Y-2523464D01*
X13618762Y-2462956D01*
X13618760Y-2462955D01*
X13462001Y-2442318D01*
X13461999Y-2442318D01*
X13305239Y-2462955D01*
X13305237Y-2462956D01*
X13159160Y-2523463D01*
X13033718Y-2619718D01*
X12937463Y-2745160D01*
X12876956Y-2891237D01*
X12876955Y-2891239D01*
X12856318Y-3047998D01*
X12856318Y-3048001D01*
X12876955Y-3204760D01*
X12876956Y-3204762D01*
X12935145Y-3345244D01*
X12937464Y-3350841D01*
X13033718Y-3476282D01*
X13159159Y-3572536D01*
X13305238Y-3633044D01*
X13383618Y-3643363D01*
X13461999Y-3653682D01*
X13462000Y-3653682D01*
X13462001Y-3653682D01*
X13514254Y-3646802D01*
X13618762Y-3633044D01*
X13764841Y-3572536D01*
X13890282Y-3476282D01*
X13940747Y-3410513D01*
X13997175Y-3369311D01*
X14039123Y-3362000D01*
X14872330Y-3362000D01*
X14877730Y-3362235D01*
X14916539Y-3365631D01*
X14954185Y-3355542D01*
X14959417Y-3354382D01*
X14997801Y-3347615D01*
X14997805Y-3347612D01*
X15004312Y-3345244D01*
X15017220Y-3339897D01*
X15023491Y-3336971D01*
X15023499Y-3336970D01*
X15055408Y-3314625D01*
X15059961Y-3311726D01*
X15093699Y-3292249D01*
X15118754Y-3262388D01*
X15122384Y-3258427D01*
X15493255Y-2887556D01*
X15554576Y-2854073D01*
X15600933Y-2853661D01*
X15600959Y-2853403D01*
X15603363Y-2853639D01*
X15605135Y-2853624D01*
X15607026Y-2854000D01*
X16392974Y-2854000D01*
X16392976Y-2854000D01*
X16392977Y-2853999D01*
X16466040Y-2839466D01*
X16548901Y-2784101D01*
X16548901Y-2784099D01*
X16559056Y-2777315D01*
X16559934Y-2778630D01*
X16609003Y-2751837D01*
X16678695Y-2756821D01*
X16710920Y-2777531D01*
X16711306Y-2776955D01*
X16804155Y-2838994D01*
X16804159Y-2838996D01*
X16877071Y-2853499D01*
X16877074Y-2853500D01*
X17145000Y-2853500D01*
X17145000Y-1935750D01*
X17164685Y-1868711D01*
X17217489Y-1822956D01*
X17269000Y-1811750D01*
X17271000Y-1811750D01*
X17338039Y-1831435D01*
X17383794Y-1884239D01*
X17395000Y-1935750D01*
X17395000Y-2853500D01*
X17662926Y-2853500D01*
X17662928Y-2853499D01*
X17735840Y-2838996D01*
X17735841Y-2838996D01*
X17758271Y-2824009D01*
X17824949Y-2803131D01*
X17892329Y-2821615D01*
X17939020Y-2873594D01*
X17950196Y-2942563D01*
X17950102Y-2943296D01*
X17936318Y-3047998D01*
X17936318Y-3048001D01*
X17956955Y-3204760D01*
X17956956Y-3204762D01*
X18015145Y-3345244D01*
X18017464Y-3350841D01*
X18113718Y-3476282D01*
X18239159Y-3572536D01*
X18385238Y-3633044D01*
X18463619Y-3643363D01*
X18541999Y-3653682D01*
X18542000Y-3653682D01*
X18542001Y-3653682D01*
X18594254Y-3646802D01*
X18698762Y-3633044D01*
X18844841Y-3572536D01*
X18970282Y-3476282D01*
X19066536Y-3350841D01*
X19127044Y-3204762D01*
X19147682Y-3048000D01*
X19127044Y-2891238D01*
X19066536Y-2745159D01*
X18970282Y-2619718D01*
X18942027Y-2598037D01*
X18904512Y-2569250D01*
X18863310Y-2512821D01*
X18856000Y-2470875D01*
X18856000Y-2302416D01*
X18856236Y-2297008D01*
X18857021Y-2288044D01*
X18859631Y-2258211D01*
X18849545Y-2220575D01*
X18848379Y-2215314D01*
X18841615Y-2176949D01*
X18841614Y-2176947D01*
X18839260Y-2170480D01*
X18833886Y-2157505D01*
X18830969Y-2151249D01*
X18808634Y-2119353D01*
X18805731Y-2114797D01*
X18786249Y-2081051D01*
X18786248Y-2081049D01*
X18756407Y-2056010D01*
X18752418Y-2052354D01*
X18638318Y-1938254D01*
X18604834Y-1876931D01*
X18602000Y-1850573D01*
X18602000Y-1814657D01*
X18621685Y-1747618D01*
X18674489Y-1701863D01*
X18743647Y-1691919D01*
X18786630Y-1708393D01*
X18787276Y-1707186D01*
X18862920Y-1747618D01*
X18957772Y-1798317D01*
X19066947Y-1831435D01*
X19136939Y-1852667D01*
X19136941Y-1852668D01*
X19155293Y-1854475D01*
X19323273Y-1871020D01*
X19509604Y-1852668D01*
X19688774Y-1798317D01*
X19853898Y-1710057D01*
X19998630Y-1591278D01*
X20117409Y-1446546D01*
X20205669Y-1281422D01*
X20260020Y-1102252D01*
X20278372Y-915921D01*
X20260020Y-729590D01*
X20205669Y-550420D01*
X20188004Y-517371D01*
X20117410Y-385297D01*
X20117408Y-385294D01*
X19998630Y-240563D01*
X19866252Y-131924D01*
X19853898Y-121785D01*
X19789795Y-87521D01*
X19739952Y-38561D01*
X19724491Y29577D01*
X19748322Y95257D01*
X19783608Y124733D01*
X19782739Y125952D01*
X19791102Y131923D01*
X19851319Y192140D01*
X19912642Y225625D01*
X19982334Y220641D01*
X20026681Y192140D01*
X20086897Y131923D01*
X20086900Y131921D01*
X20202478Y75419D01*
X20202480Y75418D01*
X20202482Y75418D01*
X20277418Y64500D01*
X20434273Y64500D01*
X20501312Y44815D01*
X20521954Y28181D01*
X20642388Y-92253D01*
X20658512Y-112108D01*
X20664524Y-121309D01*
X20692704Y-143242D01*
X20698456Y-148321D01*
X20701287Y-151152D01*
X20701288Y-151153D01*
X20719336Y-164038D01*
X20721392Y-165571D01*
X20763943Y-198691D01*
X20770915Y-202463D01*
X20778008Y-205931D01*
X20778010Y-205931D01*
X20778011Y-205932D01*
X20829701Y-221320D01*
X20832111Y-222093D01*
X20847846Y-227495D01*
X20883106Y-239600D01*
X20883108Y-239600D01*
X20890899Y-240900D01*
X20898757Y-241880D01*
X20898760Y-241881D01*
X20898762Y-241880D01*
X20898763Y-241881D01*
X20934887Y-240386D01*
X20952633Y-239652D01*
X20955193Y-239600D01*
X21202000Y-239600D01*
X21269039Y-259285D01*
X21314794Y-312089D01*
X21326000Y-363600D01*
X21326000Y-540318D01*
X21306315Y-607357D01*
X21253511Y-653112D01*
X21216773Y-661104D01*
X21217057Y-663257D01*
X21052239Y-684955D01*
X21052237Y-684956D01*
X20906160Y-745463D01*
X20780718Y-841718D01*
X20684463Y-967160D01*
X20623956Y-1113237D01*
X20623955Y-1113239D01*
X20603318Y-1269998D01*
X20603318Y-1270001D01*
X20623955Y-1426760D01*
X20623956Y-1426762D01*
X20684464Y-1572841D01*
X20780718Y-1698282D01*
X20906159Y-1794536D01*
X21052238Y-1855044D01*
X21112184Y-1862936D01*
X21208999Y-1875682D01*
X21209000Y-1875682D01*
X21209001Y-1875682D01*
X21261950Y-1868711D01*
X21365762Y-1855044D01*
X21511841Y-1794536D01*
X21637282Y-1698282D01*
X21733536Y-1572841D01*
X21794044Y-1426762D01*
X21814682Y-1270000D01*
X21814309Y-1267170D01*
X21814682Y-1264780D01*
X21814682Y-1261872D01*
X21815135Y-1261872D01*
X21825069Y-1198138D01*
X21849560Y-1163304D01*
X22061549Y-951315D01*
X22122871Y-917833D01*
X22149229Y-914999D01*
X22261576Y-914999D01*
X22266553Y-914008D01*
X22270712Y-913181D01*
X22340303Y-919402D01*
X22343765Y-921213D01*
X22343780Y-921179D01*
X22355057Y-925850D01*
X22355060Y-925852D01*
X22355063Y-925852D01*
X22355064Y-925853D01*
X22428121Y-940385D01*
X22428124Y-940386D01*
X22428126Y-940386D01*
X22433900Y-940386D01*
X22500939Y-960071D01*
X22546694Y-1012875D01*
X22557900Y-1064386D01*
X22557900Y-7271374D01*
X22538215Y-7338413D01*
X22521581Y-7359055D01*
X22011228Y-7869407D01*
X21949905Y-7902892D01*
X21880213Y-7897908D01*
X21861547Y-7889113D01*
X20043775Y-6839623D01*
X20043773Y-6839622D01*
X20043771Y-6839621D01*
X20007327Y-6827250D01*
X19973228Y-6815675D01*
X19973227Y-6815675D01*
X19923505Y-6818933D01*
X19873784Y-6822192D01*
X19784407Y-6866269D01*
X19784406Y-6866269D01*
X19735285Y-6922281D01*
X18605715Y-8878754D01*
X18605711Y-8878764D01*
X18581767Y-8949300D01*
X18581767Y-8949302D01*
X18581767Y-8949303D01*
X18588284Y-9048745D01*
X18632361Y-9138123D01*
X18659128Y-9161597D01*
X18669717Y-9170884D01*
X18707140Y-9229886D01*
X18706724Y-9299755D01*
X18695344Y-9326111D01*
X17424321Y-11527588D01*
X17373754Y-11575804D01*
X17305147Y-11589027D01*
X17277077Y-11583008D01*
X17230027Y-11567037D01*
X17130584Y-11573554D01*
X17041207Y-11617631D01*
X17041206Y-11617631D01*
X16992085Y-11673643D01*
X15862515Y-13630116D01*
X15862511Y-13630126D01*
X15838567Y-13700662D01*
X15838567Y-13700664D01*
X15838567Y-13700665D01*
X15845084Y-13800107D01*
X15889161Y-13889485D01*
X15945171Y-13938605D01*
X16387097Y-14193751D01*
X17076354Y-14591694D01*
X17124570Y-14642261D01*
X17137793Y-14710868D01*
X17111825Y-14775733D01*
X17102035Y-14786762D01*
X13726721Y-18162077D01*
X13665398Y-18195562D01*
X13595706Y-18190578D01*
X13539773Y-18148706D01*
X13531662Y-18136411D01*
X13495621Y-18073985D01*
X13495041Y-18073324D01*
X13446503Y-18017976D01*
X13446502Y-18017975D01*
X13383538Y-17986924D01*
X13332120Y-17939619D01*
X13314439Y-17872024D01*
X13314645Y-17867674D01*
X13319241Y-17797554D01*
X13295294Y-17727010D01*
X13285500Y-17710047D01*
X13206539Y-17573282D01*
X13095620Y-17381164D01*
X13095617Y-17381161D01*
X13095617Y-17381160D01*
X13046502Y-17325155D01*
X13046501Y-17325154D01*
X12957123Y-17281077D01*
X12857680Y-17274560D01*
X12857679Y-17274560D01*
X12857677Y-17274560D01*
X12787141Y-17298504D01*
X12787131Y-17298508D01*
X11921678Y-17798178D01*
X11910500Y-17807981D01*
X11847117Y-17837381D01*
X11777900Y-17827847D01*
X11773903Y-17825964D01*
X11768600Y-17823349D01*
X11669354Y-17816845D01*
X11598954Y-17840743D01*
X11523198Y-17884481D01*
X11455298Y-17900953D01*
X11445014Y-17900032D01*
X11414927Y-17896071D01*
X11414925Y-17896071D01*
X11258295Y-17916692D01*
X11258291Y-17916693D01*
X11112338Y-17977148D01*
X10987001Y-18073323D01*
X10890827Y-18198658D01*
X10879211Y-18226701D01*
X10835368Y-18281102D01*
X10826652Y-18286630D01*
X10733253Y-18340553D01*
X10733252Y-18340555D01*
X11670753Y-19964353D01*
X12483251Y-21371642D01*
X12576650Y-21317719D01*
X12644550Y-21301246D01*
X12654838Y-21302167D01*
X12684927Y-21306128D01*
X12841556Y-21285507D01*
X12841560Y-21285506D01*
X12987512Y-21225052D01*
X13112850Y-21128876D01*
X13209024Y-21003540D01*
X13220637Y-20975504D01*
X13264476Y-20921100D01*
X13273201Y-20915566D01*
X13348952Y-20871832D01*
X13404852Y-20822810D01*
X13404853Y-20822808D01*
X13448838Y-20733614D01*
X13448839Y-20733611D01*
X13449226Y-20727716D01*
X13473253Y-20662107D01*
X13528936Y-20619903D01*
X13533051Y-20618422D01*
X13547176Y-20613628D01*
X13613834Y-20575143D01*
X14899725Y-20575143D01*
X14922570Y-20614710D01*
X14922575Y-20614717D01*
X14980760Y-20686573D01*
X14980760Y-20686574D01*
X15084368Y-20753856D01*
X15084370Y-20753857D01*
X15203702Y-20785832D01*
X15327072Y-20779367D01*
X15413390Y-20746233D01*
X15478945Y-20708384D01*
X15276447Y-20357645D01*
X15276446Y-20357645D01*
X14899725Y-20575143D01*
X13613834Y-20575143D01*
X13935532Y-20389409D01*
X13997532Y-20372797D01*
X14150400Y-20372797D01*
X14175845Y-20375436D01*
X14186595Y-20377690D01*
X14206275Y-20375236D01*
X14222028Y-20373274D01*
X14229704Y-20372797D01*
X14233689Y-20372797D01*
X14233692Y-20372797D01*
X14255634Y-20369134D01*
X14258074Y-20368780D01*
X14311614Y-20362107D01*
X14311621Y-20362103D01*
X14319191Y-20359850D01*
X14326674Y-20357280D01*
X14326680Y-20357280D01*
X14374125Y-20331602D01*
X14376340Y-20330462D01*
X14424800Y-20306773D01*
X14424802Y-20306770D01*
X14424804Y-20306770D01*
X14431234Y-20302179D01*
X14437476Y-20297320D01*
X14437482Y-20297317D01*
X14474033Y-20257610D01*
X14475734Y-20255837D01*
X14522726Y-20208845D01*
X14584047Y-20175362D01*
X14653739Y-20180346D01*
X14709672Y-20222218D01*
X14726169Y-20252090D01*
X14751878Y-20319065D01*
X14774725Y-20358637D01*
X14992951Y-20232645D01*
X15492953Y-20232645D01*
X15695451Y-20583384D01*
X15695452Y-20583384D01*
X15760996Y-20545543D01*
X15761006Y-20545536D01*
X15832863Y-20487348D01*
X15900147Y-20383738D01*
X15906819Y-20358839D01*
X15943184Y-20299178D01*
X16006031Y-20268649D01*
X16058689Y-20271158D01*
X16083598Y-20277832D01*
X16083602Y-20277833D01*
X16206972Y-20271367D01*
X16293290Y-20238233D01*
X16358845Y-20200384D01*
X16156347Y-19849645D01*
X16156346Y-19849645D01*
X15616884Y-20161103D01*
X15616855Y-20161109D01*
X15492953Y-20232644D01*
X15492953Y-20232645D01*
X14992951Y-20232645D01*
X15367953Y-20016139D01*
X15872835Y-19724645D01*
X16372853Y-19724645D01*
X16575351Y-20075384D01*
X16575352Y-20075384D01*
X16640896Y-20037543D01*
X16640906Y-20037536D01*
X16712763Y-19979348D01*
X16780047Y-19875738D01*
X16812022Y-19756408D01*
X16805556Y-19633039D01*
X16772422Y-19546719D01*
X16772416Y-19546707D01*
X16749574Y-19507145D01*
X16749573Y-19507145D01*
X16372853Y-19724644D01*
X16372853Y-19724645D01*
X15872835Y-19724645D01*
X15907415Y-19704680D01*
X15907445Y-19704672D01*
X16247853Y-19508139D01*
X16624572Y-19290639D01*
X16601727Y-19251070D01*
X16601722Y-19251064D01*
X16543539Y-19179210D01*
X16543539Y-19179209D01*
X16439931Y-19111927D01*
X16439925Y-19111924D01*
X16412782Y-19104651D01*
X16353122Y-19068286D01*
X16322594Y-19005438D01*
X16325103Y-18952780D01*
X16332526Y-18925079D01*
X16332319Y-18921134D01*
X16326052Y-18801550D01*
X16292875Y-18715119D01*
X16122139Y-18419399D01*
X16063877Y-18347449D01*
X16063876Y-18347448D01*
X15960135Y-18280078D01*
X15840651Y-18248062D01*
X15717122Y-18254537D01*
X15717121Y-18254537D01*
X15630696Y-18287712D01*
X15630687Y-18287716D01*
X15612370Y-18298292D01*
X15544470Y-18314765D01*
X15478443Y-18291912D01*
X15435809Y-18238358D01*
X15434858Y-18236063D01*
X15383536Y-18112159D01*
X15287282Y-17986718D01*
X15287280Y-17986717D01*
X15287280Y-17986716D01*
X15219824Y-17934956D01*
X15178621Y-17878528D01*
X15174466Y-17808782D01*
X15207627Y-17748901D01*
X17825940Y-15130588D01*
X17887261Y-15097105D01*
X17956953Y-15102089D01*
X17975619Y-15110884D01*
X19006485Y-15706055D01*
X19793397Y-16160379D01*
X19863941Y-16184325D01*
X19963383Y-16177808D01*
X20052761Y-16133731D01*
X20101881Y-16077721D01*
X20698411Y-15044499D01*
X20748978Y-14996284D01*
X20805798Y-14982500D01*
X21791989Y-14982500D01*
X21817434Y-14985139D01*
X21828184Y-14987393D01*
X21847864Y-14984939D01*
X21863617Y-14982977D01*
X21871293Y-14982500D01*
X21875278Y-14982500D01*
X21875281Y-14982500D01*
X21897223Y-14978837D01*
X21899663Y-14978483D01*
X21953203Y-14971810D01*
X21953210Y-14971806D01*
X21960780Y-14969553D01*
X21968263Y-14966983D01*
X21968269Y-14966983D01*
X22015714Y-14941305D01*
X22017929Y-14940165D01*
X22066389Y-14916476D01*
X22066391Y-14916473D01*
X22066393Y-14916473D01*
X22072823Y-14911882D01*
X22079065Y-14907023D01*
X22079071Y-14907020D01*
X22115623Y-14867312D01*
X22117324Y-14865539D01*
X23344157Y-13638707D01*
X23364016Y-13622582D01*
X23373206Y-13616578D01*
X23373206Y-13616577D01*
X23373209Y-13616576D01*
X23395159Y-13588373D01*
X23400219Y-13582645D01*
X23403052Y-13579814D01*
X23415957Y-13561739D01*
X23417490Y-13559683D01*
X23450592Y-13517155D01*
X23450592Y-13517152D01*
X23454344Y-13510219D01*
X23457828Y-13503093D01*
X23457832Y-13503089D01*
X23473219Y-13451402D01*
X23473996Y-13448977D01*
X23479521Y-13432886D01*
X23491500Y-13397994D01*
X23491500Y-13397993D01*
X23492800Y-13390201D01*
X23493781Y-13382338D01*
X23491553Y-13328478D01*
X23491500Y-13325915D01*
X23491500Y-12272727D01*
X23511185Y-12205688D01*
X23527819Y-12185046D01*
X23710860Y-12002005D01*
X23979157Y-11733707D01*
X23999016Y-11717582D01*
X24008206Y-11711578D01*
X24008206Y-11711577D01*
X24008209Y-11711576D01*
X24030159Y-11683373D01*
X24035219Y-11677645D01*
X24038052Y-11674814D01*
X24050957Y-11656739D01*
X24052490Y-11654683D01*
X24085592Y-11612155D01*
X24085592Y-11612152D01*
X24089344Y-11605219D01*
X24092828Y-11598093D01*
X24092832Y-11598089D01*
X24108219Y-11546402D01*
X24108996Y-11543977D01*
X24121343Y-11508016D01*
X24126500Y-11492994D01*
X24126500Y-11492990D01*
X24127920Y-11484481D01*
X24158369Y-11421595D01*
X24217983Y-11385154D01*
X24287834Y-11386728D01*
X24328894Y-11409035D01*
X24449500Y-11508014D01*
X24449503Y-11508016D01*
X24601066Y-11589027D01*
X24614626Y-11596275D01*
X24793793Y-11650625D01*
X24793795Y-11650626D01*
X24810501Y-11652271D01*
X24980127Y-11668978D01*
X25166458Y-11650626D01*
X25345628Y-11596275D01*
X25510752Y-11508015D01*
X25655484Y-11389236D01*
X25774263Y-11244504D01*
X25862523Y-11079380D01*
X25916874Y-10900210D01*
X25935226Y-10713879D01*
X25916874Y-10527548D01*
X25862523Y-10348378D01*
X25827212Y-10282315D01*
X25774264Y-10183255D01*
X25774262Y-10183252D01*
X25655484Y-10038521D01*
X25510753Y-9919743D01*
X25510750Y-9919741D01*
X25345629Y-9831483D01*
X25166460Y-9777132D01*
X25166458Y-9777131D01*
X24974065Y-9758183D01*
X24974271Y-9756085D01*
X24916408Y-9739095D01*
X24870653Y-9686291D01*
X24860709Y-9617133D01*
X24889734Y-9553577D01*
X24895766Y-9547099D01*
X25005403Y-9437462D01*
X25249157Y-9193707D01*
X25269016Y-9177582D01*
X25278206Y-9171578D01*
X25278206Y-9171577D01*
X25278209Y-9171576D01*
X25300159Y-9143373D01*
X25305219Y-9137645D01*
X25308052Y-9134814D01*
X25320957Y-9116739D01*
X25322490Y-9114683D01*
X25355592Y-9072155D01*
X25355592Y-9072152D01*
X25359344Y-9065219D01*
X25362828Y-9058093D01*
X25362832Y-9058089D01*
X25378219Y-9006402D01*
X25378996Y-9003977D01*
X25396500Y-8952993D01*
X25397800Y-8945201D01*
X25398781Y-8937339D01*
X25398117Y-8921285D01*
X25396550Y-8883427D01*
X25396500Y-8880963D01*
X25396500Y-4338398D01*
X25416185Y-4271359D01*
X25445014Y-4240022D01*
X25447282Y-4238282D01*
X25543536Y-4112841D01*
X25604044Y-3966762D01*
X25624682Y-3810000D01*
X25620812Y-3780608D01*
X25604044Y-3653239D01*
X25604044Y-3653238D01*
X25543536Y-3507159D01*
X25447282Y-3381718D01*
X25321841Y-3285464D01*
X25261174Y-3260335D01*
X25175762Y-3224956D01*
X25175760Y-3224955D01*
X25019001Y-3204318D01*
X25018999Y-3204318D01*
X24862239Y-3224955D01*
X24862237Y-3224956D01*
X24716160Y-3285463D01*
X24590718Y-3381718D01*
X24494463Y-3507160D01*
X24433956Y-3653237D01*
X24433955Y-3653239D01*
X24413318Y-3809998D01*
X24413318Y-3810001D01*
X24433955Y-3966760D01*
X24433956Y-3966762D01*
X24484915Y-4089789D01*
X24494464Y-4112841D01*
X24586839Y-4233227D01*
X24590719Y-4238283D01*
X24592986Y-4240022D01*
X24594414Y-4241978D01*
X24596465Y-4244029D01*
X24596145Y-4244348D01*
X24634189Y-4296450D01*
X24641500Y-4338398D01*
X24641500Y-8682272D01*
X24621815Y-8749311D01*
X24605181Y-8769953D01*
X24174934Y-9200199D01*
X24113611Y-9233684D01*
X24043919Y-9228700D01*
X23987986Y-9186828D01*
X23976041Y-9167362D01*
X23974073Y-9163372D01*
X23948007Y-9110515D01*
X23891997Y-9061395D01*
X23886271Y-9058089D01*
X22760812Y-8408304D01*
X22712596Y-8357737D01*
X22699373Y-8289130D01*
X22725341Y-8224265D01*
X22735123Y-8213244D01*
X23165557Y-7782810D01*
X23185416Y-7766685D01*
X23194606Y-7760681D01*
X23194606Y-7760680D01*
X23194609Y-7760679D01*
X23216559Y-7732476D01*
X23221619Y-7726748D01*
X23224452Y-7723917D01*
X23237357Y-7705842D01*
X23238890Y-7703786D01*
X23271992Y-7661258D01*
X23271992Y-7661255D01*
X23275744Y-7654322D01*
X23279228Y-7647196D01*
X23279232Y-7647192D01*
X23294619Y-7595505D01*
X23295396Y-7593080D01*
X23300325Y-7578726D01*
X23312900Y-7542097D01*
X23312900Y-7542096D01*
X23314200Y-7534304D01*
X23315181Y-7526441D01*
X23312953Y-7472581D01*
X23312900Y-7470018D01*
X23312900Y-1064386D01*
X23332585Y-997347D01*
X23385389Y-951592D01*
X23436900Y-940386D01*
X23442676Y-940386D01*
X23442677Y-940385D01*
X23461188Y-936703D01*
X23515738Y-925853D01*
X23527022Y-921179D01*
X23528581Y-924944D01*
X23573579Y-910817D01*
X23600079Y-913179D01*
X23609226Y-914999D01*
X23609227Y-914999D01*
X24318974Y-914999D01*
X24318976Y-914999D01*
X24318977Y-914998D01*
X24392040Y-900465D01*
X24474901Y-845100D01*
X24530266Y-762239D01*
X24544800Y-689173D01*
X24544800Y-565339D01*
X24564485Y-498301D01*
X24617289Y-452546D01*
X24686447Y-442602D01*
X24750003Y-471627D01*
X24756468Y-477646D01*
X24772053Y-493231D01*
X24781900Y-503078D01*
X24858077Y-540318D01*
X24897482Y-559582D01*
X24972418Y-570500D01*
X25315577Y-570500D01*
X25315582Y-570500D01*
X25390518Y-559582D01*
X25462205Y-524536D01*
X25506099Y-503078D01*
X25506100Y-503076D01*
X25506102Y-503076D01*
X25566320Y-442857D01*
X25627641Y-409374D01*
X25697333Y-414358D01*
X25741679Y-442857D01*
X25772769Y-473947D01*
X25801900Y-503078D01*
X25878077Y-540318D01*
X25917482Y-559582D01*
X25992418Y-570500D01*
X26335577Y-570500D01*
X26335582Y-570500D01*
X26410518Y-559582D01*
X26498150Y-516740D01*
X26567022Y-504981D01*
X26614616Y-520757D01*
X26621154Y-524532D01*
X26621159Y-524536D01*
X26767238Y-585044D01*
X26845618Y-595363D01*
X26923999Y-605682D01*
X26924000Y-605682D01*
X26924001Y-605682D01*
X27000687Y-595586D01*
X27080762Y-585044D01*
X27226841Y-524536D01*
X27352282Y-428282D01*
X27448536Y-302841D01*
X27509044Y-156762D01*
X27529085Y-4536D01*
X27529682Y-1D01*
X27529682Y1D01*
X27513726Y121200D01*
X27509044Y156762D01*
X27448536Y302841D01*
X27352282Y428282D01*
X27226841Y524536D01*
X27080762Y585044D01*
X26976254Y598802D01*
X26924001Y605682D01*
X26923999Y605682D01*
X26847313Y595586D01*
X26767238Y585044D01*
X26621159Y524536D01*
X26621154Y524532D01*
X26614616Y520757D01*
X26546716Y504281D01*
X26498151Y516740D01*
X26410518Y559582D01*
X26335582Y570500D01*
X26335577Y570500D01*
X25992423Y570500D01*
X25992418Y570500D01*
X25917482Y559582D01*
X25917478Y559580D01*
X25801900Y503078D01*
X25801898Y503076D01*
X25741679Y442857D01*
X25680359Y409374D01*
X25610667Y414358D01*
X25566320Y442857D01*
X25506102Y503076D01*
X25506100Y503076D01*
X25506099Y503078D01*
X25435157Y537759D01*
X25390518Y559582D01*
X25315582Y570500D01*
X25315577Y570500D01*
X24972423Y570500D01*
X24972418Y570500D01*
X24897482Y559582D01*
X24897480Y559581D01*
X24897479Y559581D01*
X24832880Y528000D01*
X24778419Y515400D01*
X24668800Y515400D01*
X24601761Y535085D01*
X24556006Y587889D01*
X24544800Y639400D01*
X24544800Y783370D01*
X24564485Y850409D01*
X24581117Y871050D01*
X24589316Y879249D01*
X24614158Y904091D01*
X24634010Y920212D01*
X24643209Y926223D01*
X24665137Y954396D01*
X24670228Y960161D01*
X24673052Y962985D01*
X24685949Y981047D01*
X24687480Y983101D01*
X24720591Y1025642D01*
X24724356Y1032600D01*
X24727832Y1039710D01*
X24743215Y1091380D01*
X24743997Y1093822D01*
X24759190Y1138076D01*
X24761500Y1144805D01*
X24761499Y1144808D01*
X24762799Y1152596D01*
X24763780Y1160461D01*
X24761553Y1214305D01*
X24761500Y1216867D01*
X24761500Y1293001D01*
X24761500Y1376603D01*
X24781183Y1443640D01*
X24810017Y1474980D01*
X24812279Y1476715D01*
X24812280Y1476716D01*
X24812282Y1476718D01*
X24908536Y1602159D01*
X24969044Y1748238D01*
X24989682Y1905000D01*
X24969044Y2061762D01*
X24908536Y2207841D01*
X24812282Y2333282D01*
X24686841Y2429536D01*
X24540762Y2490044D01*
X24436253Y2503802D01*
X24384001Y2510682D01*
X24383999Y2510682D01*
X24305619Y2500363D01*
X24227238Y2490044D01*
X24081159Y2429536D01*
X23955718Y2333282D01*
X23859464Y2207841D01*
X23859463Y2207839D01*
X23798956Y2061762D01*
X23798955Y2061760D01*
X23778318Y1905001D01*
X23778318Y1904998D01*
X23798955Y1748239D01*
X23798956Y1748237D01*
X23859464Y1602157D01*
X23960434Y1470571D01*
X23985628Y1405402D01*
X23971589Y1336957D01*
X23949739Y1307404D01*
X23869453Y1227118D01*
X23808130Y1193633D01*
X23781772Y1190799D01*
X23609226Y1190799D01*
X23600083Y1188980D01*
X23530493Y1195203D01*
X23527036Y1197012D01*
X23527022Y1196979D01*
X23515738Y1201653D01*
X23442677Y1216186D01*
X23442674Y1216186D01*
X23436900Y1216186D01*
X23369861Y1235871D01*
X23324106Y1288675D01*
X23312900Y1340186D01*
X23312900Y3262373D01*
X26095580Y3262373D01*
X26113931Y3076041D01*
X26113932Y3076039D01*
X26168283Y2896870D01*
X26256541Y2731749D01*
X26256543Y2731746D01*
X26375321Y2587015D01*
X26520052Y2468237D01*
X26520055Y2468235D01*
X26685176Y2379977D01*
X26864345Y2325626D01*
X26864347Y2325625D01*
X27050679Y2307274D01*
X27237010Y2325625D01*
X27237012Y2325626D01*
X27416181Y2379977D01*
X27581302Y2468235D01*
X27581305Y2468237D01*
X27726036Y2587015D01*
X27844814Y2731746D01*
X27844816Y2731749D01*
X27933074Y2896870D01*
X27934502Y2901575D01*
X27987426Y3076042D01*
X28005778Y3262373D01*
X27987426Y3448704D01*
X27933075Y3627874D01*
X27844815Y3792998D01*
X27726036Y3937730D01*
X27581304Y4056509D01*
X27416180Y4144769D01*
X27237010Y4199120D01*
X27050679Y4217472D01*
X26864347Y4199120D01*
X26864345Y4199119D01*
X26685178Y4144769D01*
X26685176Y4144768D01*
X26520055Y4056510D01*
X26520052Y4056508D01*
X26375321Y3937730D01*
X26256543Y3792999D01*
X26256541Y3792996D01*
X26168283Y3627875D01*
X26113932Y3448706D01*
X26113931Y3448704D01*
X26095580Y3262373D01*
X23312900Y3262373D01*
X23312900Y7427106D01*
X23315539Y7452553D01*
X23317793Y7463303D01*
X23313377Y7498734D01*
X23312900Y7506410D01*
X23312900Y7510396D01*
X23312899Y7510404D01*
X23309238Y7532340D01*
X23308877Y7534822D01*
X23302209Y7588323D01*
X23302205Y7588330D01*
X23299946Y7595919D01*
X23297384Y7603380D01*
X23297383Y7603388D01*
X23271714Y7650818D01*
X23270546Y7653088D01*
X23246876Y7701508D01*
X23246873Y7701510D01*
X23246873Y7701512D01*
X23242282Y7707942D01*
X23237423Y7714184D01*
X23237420Y7714190D01*
X23197712Y7750742D01*
X23195939Y7752443D01*
X22735144Y8213238D01*
X22701661Y8274559D01*
X22706645Y8344251D01*
X22748517Y8400184D01*
X22760827Y8408304D01*
X23892010Y9061393D01*
X23892013Y9061395D01*
X23948023Y9110515D01*
X23992100Y9199893D01*
X23998617Y9299335D01*
X23974671Y9369879D01*
X23536401Y10128984D01*
X23519929Y10196882D01*
X23542782Y10262909D01*
X23597703Y10306100D01*
X23667256Y10312741D01*
X23729359Y10280725D01*
X23731470Y10278663D01*
X24605181Y9404952D01*
X24638666Y9343629D01*
X24641500Y9317271D01*
X24641499Y5608398D01*
X24621814Y5541359D01*
X24592991Y5510026D01*
X24590718Y5508282D01*
X24494464Y5382841D01*
X24494463Y5382839D01*
X24433956Y5236762D01*
X24433955Y5236760D01*
X24413318Y5080001D01*
X24413318Y5079998D01*
X24433955Y4923239D01*
X24433956Y4923237D01*
X24494463Y4777160D01*
X24590718Y4651718D01*
X24716160Y4555463D01*
X24862237Y4494956D01*
X24862239Y4494955D01*
X25018999Y4474318D01*
X25019000Y4474318D01*
X25019001Y4474318D01*
X25175760Y4494955D01*
X25175762Y4494956D01*
X25321839Y4555463D01*
X25321841Y4555464D01*
X25447282Y4651718D01*
X25543536Y4777159D01*
X25604044Y4923238D01*
X25624682Y5080000D01*
X25604044Y5236762D01*
X25543536Y5382841D01*
X25447282Y5508282D01*
X25445013Y5510022D01*
X25443585Y5511978D01*
X25441535Y5514029D01*
X25441854Y5514348D01*
X25403811Y5566450D01*
X25396500Y5608398D01*
X25396500Y9472987D01*
X25399139Y9498434D01*
X25401393Y9509184D01*
X25396977Y9544615D01*
X25396500Y9552291D01*
X25396500Y9556277D01*
X25396499Y9556285D01*
X25392838Y9578221D01*
X25392477Y9580703D01*
X25387507Y9620580D01*
X25385809Y9634204D01*
X25385805Y9634211D01*
X25383546Y9641800D01*
X25380984Y9649261D01*
X25380983Y9649269D01*
X25355314Y9696699D01*
X25354146Y9698969D01*
X25347110Y9713362D01*
X25330476Y9747389D01*
X25330473Y9747391D01*
X25330473Y9747393D01*
X25325882Y9753823D01*
X25321023Y9760065D01*
X25321020Y9760071D01*
X25281312Y9796623D01*
X25279539Y9798324D01*
X24162817Y10915047D01*
X24129334Y10976368D01*
X24126500Y11002726D01*
X24126500Y11507428D01*
X24126500Y12012996D01*
X24129139Y12038435D01*
X24131393Y12049184D01*
X24126977Y12084616D01*
X24126500Y12092292D01*
X24126500Y12096277D01*
X24126499Y12096285D01*
X24122837Y12118223D01*
X24122483Y12120663D01*
X24115810Y12174203D01*
X24115809Y12174204D01*
X24113560Y12181760D01*
X24110984Y12189261D01*
X24110983Y12189269D01*
X24085303Y12236717D01*
X24084187Y12238886D01*
X24060477Y12287389D01*
X24060472Y12287393D01*
X24055877Y12293829D01*
X24051022Y12300069D01*
X24011353Y12336586D01*
X24009550Y12338314D01*
X23527817Y12820048D01*
X23494334Y12881369D01*
X23491500Y12907727D01*
X23491500Y13917987D01*
X23494139Y13943435D01*
X23496393Y13954184D01*
X23491977Y13989616D01*
X23491500Y13997292D01*
X23491500Y14001277D01*
X23491499Y14001285D01*
X23487837Y14023223D01*
X23487483Y14025663D01*
X23480810Y14079203D01*
X23480809Y14079204D01*
X23478560Y14086760D01*
X23475984Y14094261D01*
X23475983Y14094269D01*
X23450303Y14141717D01*
X23449187Y14143886D01*
X23425477Y14192389D01*
X23425472Y14192393D01*
X23420877Y14198829D01*
X23416022Y14205069D01*
X23393939Y14225397D01*
X23376349Y14241589D01*
X23374550Y14243314D01*
X22782705Y14835159D01*
X22766583Y14855013D01*
X22760576Y14864209D01*
X22732387Y14886147D01*
X22726642Y14891222D01*
X22723814Y14894052D01*
X22705739Y14906957D01*
X22703697Y14908479D01*
X22661155Y14941592D01*
X22661152Y14941592D01*
X22654219Y14945344D01*
X22647093Y14948828D01*
X22647089Y14948832D01*
X22595402Y14964219D01*
X22592997Y14964989D01*
X22541994Y14982500D01*
X22541993Y14982500D01*
X22534200Y14983800D01*
X22526342Y14984780D01*
X22526340Y14984781D01*
X22526336Y14984780D01*
X22526336Y14984781D01*
X22480556Y14982887D01*
X22472476Y14982552D01*
X22469915Y14982500D01*
X20805814Y14982500D01*
X20738775Y15002185D01*
X20698427Y15044500D01*
X20607913Y15201275D01*
X20101897Y16077721D01*
X20052777Y16133731D01*
X19963399Y16177808D01*
X19863957Y16184325D01*
X19793413Y16160379D01*
X19568825Y16030713D01*
X18132196Y15201275D01*
X18064296Y15184802D01*
X17998269Y15207655D01*
X17982521Y15220975D01*
X16802096Y16401400D01*
X20900655Y16401400D01*
X20919006Y16215068D01*
X20919007Y16215066D01*
X20973358Y16035897D01*
X21061616Y15870776D01*
X21061618Y15870773D01*
X21180396Y15726042D01*
X21325127Y15607264D01*
X21325130Y15607262D01*
X21490251Y15519004D01*
X21669420Y15464653D01*
X21669422Y15464652D01*
X21855754Y15446301D01*
X22042085Y15464652D01*
X22042087Y15464653D01*
X22221256Y15519004D01*
X22386377Y15607262D01*
X22386380Y15607264D01*
X22531111Y15726042D01*
X22649889Y15870773D01*
X22649891Y15870776D01*
X22738149Y16035897D01*
X22742235Y16049364D01*
X22792501Y16215069D01*
X22792745Y16217541D01*
X22801189Y16303283D01*
X22810853Y16401400D01*
X22792501Y16587731D01*
X22738150Y16766901D01*
X22649890Y16932025D01*
X22531111Y17076757D01*
X22386379Y17195536D01*
X22221255Y17283796D01*
X22042085Y17338147D01*
X21855754Y17356499D01*
X21669422Y17338147D01*
X21669420Y17338146D01*
X21490253Y17283796D01*
X21490251Y17283795D01*
X21325130Y17195537D01*
X21325127Y17195535D01*
X21180396Y17076757D01*
X21061618Y16932026D01*
X21061616Y16932023D01*
X20973358Y16766902D01*
X20919007Y16587733D01*
X20919006Y16587731D01*
X20900655Y16401400D01*
X16802096Y16401400D01*
X14148689Y19054807D01*
X14115206Y19116128D01*
X14118312Y19170994D01*
X14117647Y19171082D01*
X14118822Y19180012D01*
X14118955Y19182350D01*
X14119240Y19183190D01*
X14119239Y19183190D01*
X14119241Y19183193D01*
X14114649Y19253246D01*
X14129907Y19321425D01*
X14179606Y19370536D01*
X14183539Y19372564D01*
X14195683Y19378553D01*
X14246501Y19403614D01*
X14285242Y19447790D01*
X14295617Y19459620D01*
X14295617Y19459621D01*
X14295620Y19459624D01*
X14495294Y19805470D01*
X14519241Y19876014D01*
X14512724Y19975456D01*
X14468646Y20064834D01*
X14412636Y20113954D01*
X13547176Y20613628D01*
X13533100Y20618406D01*
X13475949Y20658593D01*
X13449595Y20723302D01*
X13449226Y20727716D01*
X13448839Y20733611D01*
X13448838Y20733614D01*
X13404853Y20822808D01*
X13404852Y20822810D01*
X13348952Y20871832D01*
X13273201Y20915566D01*
X13224985Y20966132D01*
X13220637Y20975504D01*
X13209024Y21003540D01*
X13112852Y21128875D01*
X12987512Y21225052D01*
X12841560Y21285506D01*
X12841556Y21285507D01*
X12684927Y21306128D01*
X12654838Y21302167D01*
X12585802Y21312932D01*
X12576650Y21317719D01*
X12483251Y21371642D01*
X11634957Y19902354D01*
X11634956Y19902351D01*
X10733252Y18340555D01*
X10733253Y18340553D01*
X10826652Y18286630D01*
X10874868Y18236063D01*
X10879213Y18226697D01*
X10890826Y18198661D01*
X10987001Y18073323D01*
X11112339Y17977147D01*
X11258291Y17916693D01*
X11258295Y17916692D01*
X11414925Y17896071D01*
X11414927Y17896071D01*
X11445014Y17900032D01*
X11514049Y17889266D01*
X11523198Y17884481D01*
X11598955Y17840743D01*
X11677583Y17814052D01*
X11734737Y17773863D01*
X11761090Y17709153D01*
X11748275Y17640469D01*
X11725405Y17608952D01*
X11453844Y17337391D01*
X11433987Y17321265D01*
X11424791Y17315257D01*
X11424790Y17315256D01*
X11402859Y17287079D01*
X11397768Y17281315D01*
X11394944Y17278491D01*
X11382052Y17260435D01*
X11380521Y17258382D01*
X11347410Y17215839D01*
X11343642Y17208875D01*
X11340166Y17201767D01*
X11339401Y17199195D01*
X11337399Y17196106D01*
X11335656Y17192540D01*
X11335224Y17192750D01*
X11301404Y17140560D01*
X11237739Y17111776D01*
X11168619Y17121982D01*
X11141898Y17138722D01*
X11072671Y17195536D01*
X10907547Y17283796D01*
X10728377Y17338147D01*
X10542046Y17356499D01*
X10355714Y17338147D01*
X10355712Y17338146D01*
X10176545Y17283796D01*
X10176543Y17283795D01*
X10011422Y17195537D01*
X10011419Y17195535D01*
X9866688Y17076757D01*
X9747910Y16932026D01*
X9747908Y16932023D01*
X9659650Y16766902D01*
X9605299Y16587733D01*
X9605298Y16587731D01*
X9586947Y16401400D01*
X1221259Y16401400D01*
X1217541Y16405118D01*
X1005179Y16564090D01*
X772360Y16691218D01*
X772359Y16691218D01*
X772355Y16691221D01*
X523808Y16783925D01*
X479871Y16793483D01*
X264602Y16840312D01*
X264601Y16840312D01*
X264597Y16840313D01*
X26508Y16857341D01*
X1Y16859237D01*
X-1Y16859237D01*
X-26508Y16857341D01*
X-264597Y16840313D01*
X-264601Y16840312D01*
X-264602Y16840312D01*
X-479871Y16793483D01*
X-523808Y16783925D01*
X-772355Y16691221D01*
X-772359Y16691218D01*
X-772361Y16691218D01*
X-786398Y16683553D01*
X-1005179Y16564090D01*
X-1217541Y16405118D01*
X-1405118Y16217541D01*
X-1564090Y16005179D01*
X-1564093Y16005173D01*
X-1658076Y15833055D01*
X-1691221Y15772355D01*
X-1783925Y15523808D01*
X-1783926Y15523799D01*
X-1783927Y15523799D01*
X-1834796Y15289956D01*
X-1840313Y15264597D01*
X-1859237Y15000000D01*
X-17578089Y15000000D01*
X-17563479Y15036495D01*
X-17553689Y15047524D01*
X-15870034Y16731181D01*
X-15808711Y16764666D01*
X-15782353Y16767500D01*
X-15038011Y16767500D01*
X-15012566Y16764861D01*
X-15001816Y16762607D01*
X-15001813Y16762607D01*
X-14966383Y16767023D01*
X-14958707Y16767500D01*
X-14954721Y16767500D01*
X-14954719Y16767500D01*
X-14944625Y16769184D01*
X-14932851Y16771148D01*
X-14930319Y16771517D01*
X-14876797Y16778189D01*
X-14869246Y16780437D01*
X-14861728Y16783018D01*
X-14814322Y16808672D01*
X-14812046Y16809844D01*
X-14763610Y16833524D01*
X-14757182Y16838113D01*
X-14750926Y16842982D01*
X-14714401Y16882657D01*
X-14712628Y16884506D01*
X-13598177Y17998956D01*
X-13536854Y18032441D01*
X-13467162Y18027457D01*
X-13455652Y18022487D01*
X-13383540Y17986925D01*
X-13332120Y17939620D01*
X-13314439Y17872024D01*
X-13314645Y17867674D01*
X-13319241Y17797554D01*
X-13319239Y17797550D01*
X-13319240Y17797550D01*
X-13295294Y17727011D01*
X-13295293Y17727008D01*
X-13281406Y17702955D01*
X-13095620Y17381164D01*
X-13095617Y17381161D01*
X-13095617Y17381160D01*
X-13049257Y17328297D01*
X-13046501Y17325154D01*
X-12957123Y17281077D01*
X-12857680Y17274560D01*
X-12857679Y17274560D01*
X-12857677Y17274560D01*
X-12787141Y17298504D01*
X-12787131Y17298508D01*
X-12515696Y17455221D01*
X-9800926Y17455221D01*
X-9787732Y17321261D01*
X-9783133Y17274560D01*
X-9782574Y17268890D01*
X-9730333Y17096675D01*
X-9728222Y17089718D01*
X-9639964Y16924597D01*
X-9639962Y16924594D01*
X-9521184Y16779863D01*
X-9376453Y16661085D01*
X-9376450Y16661083D01*
X-9211329Y16572825D01*
X-9032160Y16518474D01*
X-9032158Y16518473D01*
X-8862532Y16501767D01*
X-8845827Y16500122D01*
X-8845826Y16500122D01*
X-8659495Y16518473D01*
X-8659493Y16518474D01*
X-8480324Y16572825D01*
X-8315203Y16661083D01*
X-8315200Y16661085D01*
X-8170469Y16779863D01*
X-8051691Y16924594D01*
X-8051689Y16924597D01*
X-7963431Y17089718D01*
X-7909080Y17268887D01*
X-7909079Y17268889D01*
X-7890728Y17455220D01*
X-7909079Y17641552D01*
X-7909080Y17641554D01*
X-7963431Y17820723D01*
X-8051689Y17985844D01*
X-8051691Y17985847D01*
X-8170469Y18130578D01*
X-8315200Y18249356D01*
X-8315203Y18249358D01*
X-8480324Y18337616D01*
X-8480326Y18337617D01*
X-8659493Y18391967D01*
X-8659495Y18391968D01*
X-8845827Y18410320D01*
X-9032158Y18391968D01*
X-9211328Y18337617D01*
X-9376452Y18249357D01*
X-9521184Y18130578D01*
X-9639963Y17985846D01*
X-9728223Y17820722D01*
X-9782574Y17641552D01*
X-9800926Y17455221D01*
X-12515696Y17455221D01*
X-11921678Y17798178D01*
X-11910500Y17807981D01*
X-11847117Y17837381D01*
X-11777900Y17827847D01*
X-11773903Y17825964D01*
X-11768600Y17823349D01*
X-11669354Y17816845D01*
X-11598954Y17840743D01*
X-11523198Y17884481D01*
X-11455298Y17900953D01*
X-11445014Y17900032D01*
X-11414927Y17896071D01*
X-11414925Y17896071D01*
X-11258295Y17916692D01*
X-11258291Y17916693D01*
X-11112339Y17977147D01*
X-10987001Y18073323D01*
X-10890826Y18198661D01*
X-10879213Y18226697D01*
X-10835371Y18281100D01*
X-10826652Y18286630D01*
X-10733253Y18340553D01*
X-10733252Y18340555D01*
X-11634956Y19902351D01*
X-11634957Y19902354D01*
X-12483251Y21371642D01*
X-12576650Y21317719D01*
X-12644550Y21301246D01*
X-12654838Y21302167D01*
X-12684927Y21306128D01*
X-12841556Y21285507D01*
X-12841560Y21285506D01*
X-12987513Y21225051D01*
X-13112850Y21128876D01*
X-13209024Y21003540D01*
X-13220637Y20975504D01*
X-13264476Y20921100D01*
X-13273201Y20915566D01*
X-13348952Y20871832D01*
X-13404852Y20822810D01*
X-13404853Y20822808D01*
X-13448838Y20733614D01*
X-13448839Y20733611D01*
X-13449226Y20727716D01*
X-13473253Y20662107D01*
X-13528936Y20619903D01*
X-13533051Y20618422D01*
X-13547176Y20613628D01*
X-14412636Y20113954D01*
X-14426554Y20101748D01*
X-14489933Y20072346D01*
X-14559149Y20081876D01*
X-14612226Y20127315D01*
X-14624076Y20150538D01*
X-14655678Y20232865D01*
X-14678525Y20272437D01*
X-15271753Y19929939D01*
X-15811215Y19618480D01*
X-15811245Y19618472D01*
X-16044265Y19483938D01*
X-16112165Y19467465D01*
X-16178192Y19490317D01*
X-16213652Y19529324D01*
X-16240856Y19576442D01*
X-16240857Y19576447D01*
X-16479151Y19989184D01*
X-16479152Y19989184D01*
X-16544696Y19951343D01*
X-16544706Y19951336D01*
X-16616563Y19893148D01*
X-16683847Y19789538D01*
X-16697405Y19738940D01*
X-16733770Y19679279D01*
X-16796617Y19648750D01*
X-16833363Y19648094D01*
X-16891000Y19655682D01*
X-16891001Y19655682D01*
X-16943254Y19648802D01*
X-17047762Y19635044D01*
X-17193841Y19574536D01*
X-17319282Y19478282D01*
X-17415536Y19352841D01*
X-17476044Y19206762D01*
X-17484990Y19138808D01*
X-17496682Y19050001D01*
X-17496682Y19049998D01*
X-17489461Y18995149D01*
X-17476044Y18893238D01*
X-17415536Y18747159D01*
X-17319282Y18621718D01*
X-17193841Y18525464D01*
X-17193839Y18525463D01*
X-17047762Y18464956D01*
X-17047760Y18464955D01*
X-16891002Y18444318D01*
X-16891000Y18444318D01*
X-16890998Y18444318D01*
X-16872830Y18446709D01*
X-16803795Y18435940D01*
X-16793371Y18429536D01*
X-16777508Y18420953D01*
X-16770399Y18417477D01*
X-16770397Y18417476D01*
X-16751386Y18411816D01*
X-16718722Y18402091D01*
X-16716281Y18401309D01*
X-16665303Y18383807D01*
X-16657507Y18382506D01*
X-16649644Y18381526D01*
X-16597102Y18383700D01*
X-16595784Y18383755D01*
X-16593223Y18383808D01*
X-16125961Y18383808D01*
X-16058922Y18364123D01*
X-16030053Y18336135D01*
X-16029004Y18336985D01*
X-16025940Y18333202D01*
X-16025939Y18333199D01*
X-15989337Y18287998D01*
X-15967676Y18261248D01*
X-15863935Y18193878D01*
X-15744451Y18161862D01*
X-15620922Y18168337D01*
X-15620921Y18168337D01*
X-15534496Y18201512D01*
X-15534487Y18201516D01*
X-15237245Y18373129D01*
X-15190585Y18388789D01*
X-15144798Y18394497D01*
X-15137246Y18396745D01*
X-15129728Y18399326D01*
X-15082322Y18424980D01*
X-15080046Y18426152D01*
X-15031610Y18449832D01*
X-15025182Y18454421D01*
X-15018926Y18459290D01*
X-14982401Y18498965D01*
X-14980628Y18500814D01*
X-14842307Y18639134D01*
X-14780984Y18672619D01*
X-14761120Y18675283D01*
X-14741022Y18676337D01*
X-14741021Y18676337D01*
X-14654596Y18709512D01*
X-14654587Y18709516D01*
X-14306916Y18910245D01*
X-14306909Y18910250D01*
X-14234961Y18968511D01*
X-14227179Y18980495D01*
X-14174157Y19025997D01*
X-14104952Y19035610D01*
X-14041536Y19006282D01*
X-14015798Y18974958D01*
X-13944087Y18850751D01*
X-13927614Y18782851D01*
X-13950467Y18716824D01*
X-13963786Y18701077D01*
X-14937855Y17727011D01*
X-15106047Y17558819D01*
X-15167370Y17525334D01*
X-15193728Y17522500D01*
X-15938070Y17522500D01*
X-15963515Y17525139D01*
X-15964445Y17525334D01*
X-15974265Y17527393D01*
X-15992347Y17525139D01*
X-16009697Y17522977D01*
X-16017373Y17522500D01*
X-16021362Y17522500D01*
X-16043302Y17518838D01*
X-16045762Y17518480D01*
X-16099285Y17511809D01*
X-16099292Y17511805D01*
X-16106881Y17509546D01*
X-16114342Y17506984D01*
X-16114350Y17506983D01*
X-16161780Y17481314D01*
X-16164034Y17480153D01*
X-16212470Y17456476D01*
X-16212472Y17456473D01*
X-16212474Y17456473D01*
X-16218904Y17451882D01*
X-16225146Y17447023D01*
X-16225152Y17447020D01*
X-16261704Y17407312D01*
X-16263405Y17405539D01*
X-18277594Y15391351D01*
X-18338915Y15357868D01*
X-18408607Y15362852D01*
X-18427273Y15371647D01*
X-19568809Y16030713D01*
X-19793397Y16160379D01*
X-19863941Y16184325D01*
X-19963383Y16177808D01*
X-20052761Y16133731D01*
X-20101881Y16077721D01*
X-20304923Y15726042D01*
X-20331794Y15679500D01*
X-20382361Y15631284D01*
X-20439181Y15617500D01*
X-21283989Y15617500D01*
X-21309434Y15620139D01*
X-21309665Y15620187D01*
X-21320184Y15622393D01*
X-21338267Y15620139D01*
X-21355617Y15617977D01*
X-21363293Y15617500D01*
X-21367281Y15617500D01*
X-21389223Y15613837D01*
X-21391663Y15613483D01*
X-21445203Y15606810D01*
X-21445210Y15606806D01*
X-21452780Y15604553D01*
X-21460263Y15601983D01*
X-21460269Y15601983D01*
X-21507714Y15576305D01*
X-21509929Y15575165D01*
X-21558389Y15551476D01*
X-21558391Y15551473D01*
X-21558393Y15551473D01*
X-21564823Y15546882D01*
X-21571065Y15542023D01*
X-21571071Y15542020D01*
X-21607623Y15502312D01*
X-21609324Y15500539D01*
X-23471158Y13638706D01*
X-23491015Y13622581D01*
X-23500209Y13616576D01*
X-23522140Y13588396D01*
X-23527230Y13582634D01*
X-23530052Y13579814D01*
X-23530054Y13579810D01*
X-23530055Y13579810D01*
X-23542957Y13561740D01*
X-23544479Y13559697D01*
X-23577592Y13517155D01*
X-23577592Y13517154D01*
X-23581344Y13510219D01*
X-23584828Y13503093D01*
X-23584832Y13503089D01*
X-23600213Y13451421D01*
X-23600994Y13448983D01*
X-23618500Y13397994D01*
X-23618499Y13397986D01*
X-23619803Y13390176D01*
X-23620781Y13382339D01*
X-23618553Y13328477D01*
X-23618500Y13325915D01*
X-23618500Y12907727D01*
X-23638185Y12840688D01*
X-23654815Y12820050D01*
X-24106159Y12368705D01*
X-24126013Y12352583D01*
X-24135209Y12346576D01*
X-24157147Y12318387D01*
X-24162222Y12312642D01*
X-24165052Y12309814D01*
X-24165056Y12309807D01*
X-24165058Y12309806D01*
X-24177957Y12291739D01*
X-24179479Y12289697D01*
X-24212592Y12247155D01*
X-24212592Y12247154D01*
X-24216344Y12240219D01*
X-24219828Y12233093D01*
X-24219832Y12233089D01*
X-24235213Y12181421D01*
X-24235989Y12178997D01*
X-24253500Y12127994D01*
X-24253500Y12127993D01*
X-24254800Y12120201D01*
X-24255781Y12112338D01*
X-24253553Y12058478D01*
X-24253500Y12055915D01*
X-24253500Y11779204D01*
X-24273185Y11712165D01*
X-24325989Y11666410D01*
X-24395147Y11656466D01*
X-24456165Y11683351D01*
X-24578700Y11783914D01*
X-24578703Y11783916D01*
X-24743824Y11872174D01*
X-24743826Y11872175D01*
X-24922993Y11926525D01*
X-24922995Y11926526D01*
X-25109327Y11944878D01*
X-25295658Y11926526D01*
X-25474828Y11872175D01*
X-25639952Y11783915D01*
X-25784684Y11665136D01*
X-25903463Y11520404D01*
X-25991723Y11355280D01*
X-26046074Y11176110D01*
X-26064426Y10989779D01*
X-26046074Y10803448D01*
X-26001764Y10657377D01*
X-25991722Y10624276D01*
X-25903464Y10459155D01*
X-25903462Y10459152D01*
X-25784684Y10314421D01*
X-25639953Y10195643D01*
X-25639950Y10195641D01*
X-25474829Y10107383D01*
X-25295660Y10053032D01*
X-25295658Y10053031D01*
X-25109327Y10034680D01*
X-24922997Y10053031D01*
X-24813693Y10086189D01*
X-24743826Y10086812D01*
X-24684714Y10049564D01*
X-24655123Y9986270D01*
X-24664448Y9917025D01*
X-24690014Y9879850D01*
X-25376157Y9193707D01*
X-25396016Y9177582D01*
X-25405209Y9171576D01*
X-25427159Y9143373D01*
X-25432219Y9137645D01*
X-25435052Y9134814D01*
X-25445528Y9120139D01*
X-25447957Y9116739D01*
X-25449479Y9114697D01*
X-25482592Y9072155D01*
X-25482592Y9072154D01*
X-25486344Y9065219D01*
X-25489828Y9058093D01*
X-25489832Y9058089D01*
X-25505213Y9006421D01*
X-25505996Y9003977D01*
X-25523500Y8952993D01*
X-25524800Y8945201D01*
X-25525781Y8937338D01*
X-25523553Y8883478D01*
X-25523500Y8880915D01*
X-25523500Y5608398D01*
X-25543185Y5541359D01*
X-25572013Y5510022D01*
X-25574282Y5508282D01*
X-25670536Y5382841D01*
X-25731044Y5236762D01*
X-25751682Y5080000D01*
X-25731044Y4923238D01*
X-25670536Y4777159D01*
X-25574282Y4651718D01*
X-25448841Y4555464D01*
X-25448839Y4555463D01*
X-25302762Y4494956D01*
X-25302760Y4494955D01*
X-25146001Y4474318D01*
X-25146000Y4474318D01*
X-25145999Y4474318D01*
X-24989239Y4494955D01*
X-24989237Y4494956D01*
X-24843160Y4555463D01*
X-24717718Y4651718D01*
X-24621463Y4777160D01*
X-24560956Y4923237D01*
X-24560955Y4923239D01*
X-24540318Y5079998D01*
X-24540318Y5080001D01*
X-24560955Y5236760D01*
X-24560956Y5236762D01*
X-24621463Y5382839D01*
X-24621464Y5382841D01*
X-24717718Y5508282D01*
X-24719986Y5510022D01*
X-24721414Y5511978D01*
X-24723465Y5514029D01*
X-24723145Y5514348D01*
X-24761189Y5566450D01*
X-24768500Y5608398D01*
X-24768500Y8682271D01*
X-24748815Y8749310D01*
X-24732181Y8769952D01*
X-24204678Y9297454D01*
X-24143355Y9330939D01*
X-24073663Y9325955D01*
X-24017730Y9284083D01*
X-23993313Y9218619D01*
X-23993277Y9218107D01*
X-23992084Y9199893D01*
X-23948007Y9110515D01*
X-23891997Y9061395D01*
X-23891994Y9061393D01*
X-23212465Y8669066D01*
X-23164249Y8618499D01*
X-23151026Y8549892D01*
X-23176994Y8485027D01*
X-23186764Y8474019D01*
X-23294762Y8366021D01*
X-23314616Y8349901D01*
X-23323809Y8343895D01*
X-23345759Y8315692D01*
X-23350819Y8309964D01*
X-23353652Y8307133D01*
X-23364128Y8292458D01*
X-23366557Y8289058D01*
X-23368079Y8287016D01*
X-23401192Y8244474D01*
X-23401192Y8244473D01*
X-23404944Y8237538D01*
X-23408428Y8230412D01*
X-23408432Y8230408D01*
X-23413544Y8213236D01*
X-23423813Y8178740D01*
X-23424589Y8176316D01*
X-23433667Y8149876D01*
X-23442100Y8125312D01*
X-23443400Y8117520D01*
X-23444381Y8109657D01*
X-23442153Y8055797D01*
X-23442100Y8053234D01*
X-23442100Y1340186D01*
X-23461785Y1273147D01*
X-23514589Y1227392D01*
X-23566100Y1216186D01*
X-23571877Y1216186D01*
X-23644938Y1201653D01*
X-23656222Y1196979D01*
X-23657781Y1200744D01*
X-23702779Y1186617D01*
X-23729279Y1188979D01*
X-23738426Y1190799D01*
X-23738427Y1190799D01*
X-24448177Y1190799D01*
X-24507702Y1178958D01*
X-24521240Y1176265D01*
X-24604101Y1120900D01*
X-24659466Y1038039D01*
X-24672728Y971365D01*
X-24673999Y964977D01*
X-24674000Y964975D01*
X-24674000Y639400D01*
X-24693685Y572361D01*
X-24746489Y526606D01*
X-24798000Y515400D01*
X-24905419Y515400D01*
X-24959880Y528000D01*
X-25024479Y559581D01*
X-25024480Y559581D01*
X-25024482Y559582D01*
X-25099418Y570500D01*
X-25099423Y570500D01*
X-25442577Y570500D01*
X-25442582Y570500D01*
X-25517518Y559582D01*
X-25562157Y537759D01*
X-25633099Y503078D01*
X-25633102Y503076D01*
X-25693319Y442860D01*
X-25754642Y409375D01*
X-25824334Y414359D01*
X-25868681Y442860D01*
X-25928897Y503076D01*
X-25928900Y503078D01*
X-26044478Y559580D01*
X-26044482Y559582D01*
X-26119418Y570500D01*
X-26119423Y570500D01*
X-26462577Y570500D01*
X-26462582Y570500D01*
X-26537518Y559582D01*
X-26625150Y516740D01*
X-26694022Y504981D01*
X-26741616Y520757D01*
X-26748154Y524532D01*
X-26748159Y524536D01*
X-26894238Y585044D01*
X-26974313Y595586D01*
X-27050999Y605682D01*
X-27051001Y605682D01*
X-27103254Y598802D01*
X-27207762Y585044D01*
X-27353841Y524536D01*
X-27479282Y428282D01*
X-27575536Y302841D01*
X-27636044Y156762D01*
X-27640726Y121200D01*
X-27656682Y1D01*
X-27656682Y-1D01*
X-28745478Y-1D01*
X-28745478Y1159D01*
X-28726188Y1032600D01*
X-28725419Y1073663D01*
X-28725333Y1075975D01*
X-28665186Y2147008D01*
X-28665013Y2149321D01*
X-28659757Y2205364D01*
X-28623835Y2588433D01*
X-28564862Y3217315D01*
X-28564603Y3219619D01*
X-28424589Y4283138D01*
X-28424243Y4285431D01*
X-28244559Y5342977D01*
X-28244128Y5345255D01*
X-28025026Y6395343D01*
X-28024510Y6397604D01*
X-27766302Y7438747D01*
X-27765702Y7440986D01*
X-27468737Y8471776D01*
X-27468053Y8473992D01*
X-27132756Y9492945D01*
X-27131991Y9495134D01*
X-26758837Y10500815D01*
X-26757990Y10502974D01*
X-26347485Y11494018D01*
X-26346558Y11496143D01*
X-25899284Y12471150D01*
X-25898278Y12473239D01*
X-25414860Y13430836D01*
X-25413777Y13432886D01*
X-24894889Y14371742D01*
X-24893729Y14373750D01*
X-24340114Y15292524D01*
X-24338880Y15294488D01*
X-23751269Y16191966D01*
X-23749962Y16193882D01*
X-23495416Y16552631D01*
X-23129226Y17068725D01*
X-23127867Y17070568D01*
X-23113967Y17088682D01*
X-22964251Y17283796D01*
X-22474838Y17921611D01*
X-22473392Y17923424D01*
X-22017176Y18474056D01*
X-21789014Y18749436D01*
X-21787515Y18751178D01*
X-21072699Y19551058D01*
X-21071122Y19552757D01*
X-20530309Y20114184D01*
X-16262645Y20114184D01*
X-16060146Y19763444D01*
X-16060145Y19763444D01*
X-15517166Y20076934D01*
X-15517135Y20076941D01*
X-15396753Y20146444D01*
X-15396753Y20146445D01*
X-15599251Y20497184D01*
X-15599252Y20497184D01*
X-15664796Y20459343D01*
X-15664806Y20459336D01*
X-15736663Y20401148D01*
X-15803947Y20297538D01*
X-15810619Y20272639D01*
X-15846984Y20212978D01*
X-15909831Y20182449D01*
X-15962489Y20184958D01*
X-15987398Y20191632D01*
X-15987402Y20191633D01*
X-16110772Y20185167D01*
X-16197090Y20152033D01*
X-16262645Y20114184D01*
X-20530309Y20114184D01*
X-20326942Y20325302D01*
X-20325302Y20326942D01*
X-20018807Y20622184D01*
X-15382745Y20622184D01*
X-15180247Y20271445D01*
X-15180246Y20271445D01*
X-14803525Y20488943D01*
X-14826370Y20528510D01*
X-14826375Y20528517D01*
X-14884560Y20600373D01*
X-14884560Y20600374D01*
X-14988168Y20667656D01*
X-14988170Y20667657D01*
X-15107502Y20699632D01*
X-15230872Y20693167D01*
X-15317190Y20660033D01*
X-15382745Y20622184D01*
X-20018807Y20622184D01*
X-19552757Y21071122D01*
X-19551058Y21072699D01*
X-18751178Y21787515D01*
X-18749436Y21789014D01*
X-18424477Y22058254D01*
X-17283199Y22058254D01*
X-17264847Y21871923D01*
X-17212177Y21698293D01*
X-17210495Y21692751D01*
X-17122237Y21527630D01*
X-17122235Y21527627D01*
X-17003457Y21382896D01*
X-16858726Y21264118D01*
X-16858723Y21264116D01*
X-16693602Y21175858D01*
X-16514433Y21121507D01*
X-16514431Y21121506D01*
X-16328100Y21103155D01*
X-16141768Y21121506D01*
X-16141766Y21121507D01*
X-15962597Y21175858D01*
X-15797476Y21264116D01*
X-15797473Y21264118D01*
X-15652742Y21382896D01*
X-15559393Y21496642D01*
X-12266744Y21496642D01*
X-11329247Y19872847D01*
X-10516746Y18465555D01*
X-10516745Y18465555D01*
X-10423344Y18519480D01*
X-10355444Y18535952D01*
X-10345162Y18535031D01*
X-10315078Y18531071D01*
X-10315073Y18531071D01*
X-10158443Y18551692D01*
X-10158439Y18551693D01*
X-10012487Y18612147D01*
X-9887149Y18708323D01*
X-9790972Y18833662D01*
X-9790972Y18833663D01*
X-9779359Y18861699D01*
X-9735517Y18916102D01*
X-9726800Y18921630D01*
X-9651052Y18965363D01*
X-9651042Y18965371D01*
X-9595147Y19014389D01*
X-9595146Y19014391D01*
X-9551159Y19103588D01*
X-9551158Y19103590D01*
X-9550772Y19109490D01*
X-9526742Y19175098D01*
X-9471057Y19217299D01*
X-9466903Y19218792D01*
X-9452829Y19223570D01*
X-9452819Y19223574D01*
X-9140981Y19403615D01*
X-9064467Y19447790D01*
X-9002468Y19464403D01*
X-6512697Y19464403D01*
X-6487252Y19461764D01*
X-6476502Y19459510D01*
X-6476499Y19459510D01*
X-6441069Y19463926D01*
X-6433393Y19464403D01*
X-6429407Y19464403D01*
X-6429405Y19464403D01*
X-6417663Y19466362D01*
X-6407537Y19468051D01*
X-6405005Y19468420D01*
X-6351483Y19475092D01*
X-6343932Y19477340D01*
X-6336414Y19479921D01*
X-6289008Y19505575D01*
X-6286732Y19506747D01*
X-6247815Y19525773D01*
X34122Y19525773D01*
X52473Y19339441D01*
X52474Y19339439D01*
X106825Y19160270D01*
X195083Y18995149D01*
X195085Y18995146D01*
X313863Y18850415D01*
X458594Y18731637D01*
X458597Y18731635D01*
X623718Y18643377D01*
X802887Y18589026D01*
X802889Y18589025D01*
X989221Y18570674D01*
X1175552Y18589025D01*
X1175554Y18589026D01*
X1354723Y18643377D01*
X1519844Y18731635D01*
X1519847Y18731637D01*
X1664578Y18850415D01*
X1783356Y18995146D01*
X1783358Y18995149D01*
X1871616Y19160270D01*
X1874870Y19170994D01*
X1925968Y19339442D01*
X1926701Y19346879D01*
X1932288Y19403615D01*
X1944320Y19525773D01*
X1925968Y19712104D01*
X1871617Y19891274D01*
X1850578Y19930635D01*
X5469768Y19930635D01*
X6219258Y19729811D01*
X6293442Y19724948D01*
X6387622Y19756919D01*
X6387623Y19756920D01*
X6462396Y19822493D01*
X6495281Y19889180D01*
X6613929Y20331980D01*
X5646748Y20591135D01*
X5469768Y19930635D01*
X1850578Y19930635D01*
X1783357Y20056398D01*
X1664578Y20201130D01*
X1519846Y20319909D01*
X1354722Y20408169D01*
X1175552Y20462520D01*
X989221Y20480872D01*
X802889Y20462520D01*
X802887Y20462519D01*
X623720Y20408169D01*
X623718Y20408168D01*
X458597Y20319910D01*
X458594Y20319908D01*
X313863Y20201130D01*
X195085Y20056399D01*
X195083Y20056396D01*
X106825Y19891275D01*
X52474Y19712106D01*
X52473Y19712104D01*
X34122Y19525773D01*
X-6247815Y19525773D01*
X-6238296Y19530427D01*
X-6231868Y19535016D01*
X-6225612Y19539885D01*
X-6189087Y19579560D01*
X-6187314Y19581409D01*
X-5997103Y19771619D01*
X-5941516Y19803713D01*
X-4478625Y20195693D01*
X-4478619Y20195696D01*
X-4411811Y20228642D01*
X-4411808Y20228644D01*
X-4346100Y20303570D01*
X-4345429Y20304733D01*
X-4343303Y20306759D01*
X-4338049Y20312751D01*
X-4337512Y20312280D01*
X-4294860Y20352947D01*
X-4238044Y20366729D01*
X-3857271Y20366729D01*
X-3831826Y20364090D01*
X-3821076Y20361836D01*
X-3821073Y20361836D01*
X-3785643Y20366252D01*
X-3777967Y20366729D01*
X-3773981Y20366729D01*
X-3773979Y20366729D01*
X-3764615Y20368291D01*
X-3752111Y20370377D01*
X-3749579Y20370746D01*
X-3696057Y20377418D01*
X-3688506Y20379666D01*
X-3680988Y20382247D01*
X-3633582Y20407901D01*
X-3631306Y20409073D01*
X-3596745Y20425970D01*
X-3582871Y20432753D01*
X-3582870Y20432753D01*
X-3573645Y20437264D01*
X-3572880Y20435701D01*
X-3551240Y20445664D01*
X-3071034Y20574335D01*
X2945968Y20574335D01*
X3695458Y20373511D01*
X3769642Y20368648D01*
X3856101Y20397998D01*
X4314574Y20397998D01*
X4346541Y20303826D01*
X4346543Y20303822D01*
X4412117Y20229050D01*
X4478801Y20196164D01*
X4478802Y20196163D01*
X5228285Y19995340D01*
X5405266Y20655839D01*
X4438085Y20914995D01*
X4319436Y20472196D01*
X4314574Y20397998D01*
X3856101Y20397998D01*
X3863822Y20400619D01*
X3863823Y20400620D01*
X3938596Y20466193D01*
X3971481Y20532880D01*
X4090129Y20975680D01*
X3122948Y21234835D01*
X2945968Y20574335D01*
X-3071034Y20574335D01*
X-2081825Y20839393D01*
X-2081819Y20839396D01*
X-2015011Y20872342D01*
X-2015008Y20872345D01*
X-1949301Y20947267D01*
X-1917267Y21041638D01*
X-1917271Y21041698D01*
X1790774Y21041698D01*
X1822741Y20947526D01*
X1822743Y20947522D01*
X1888317Y20872750D01*
X1955001Y20839864D01*
X1955002Y20839863D01*
X2704485Y20639040D01*
X2881466Y21299539D01*
X1914285Y21558695D01*
X1795636Y21115896D01*
X1790774Y21041698D01*
X-1917271Y21041698D01*
X-1922140Y21115966D01*
X-1922140Y21115971D01*
X-1967858Y21286594D01*
X-1966195Y21356444D01*
X-1935764Y21406368D01*
X-1420843Y21921289D01*
X-1400990Y21937412D01*
X-1391794Y21943420D01*
X-1391789Y21943425D01*
X-1369855Y21971603D01*
X-1364778Y21977354D01*
X-1361956Y21980177D01*
X-1361943Y21980192D01*
X-1349052Y21998245D01*
X-1347524Y22000294D01*
X-1314407Y22042846D01*
X-1310647Y22049793D01*
X-1307168Y22056909D01*
X-1291785Y22108578D01*
X-1291004Y22111016D01*
X-1273499Y22162005D01*
X-1272198Y22169805D01*
X-1271218Y22177662D01*
X-1273447Y22231520D01*
X-1273500Y22234083D01*
X-1273500Y22966601D01*
X-1253815Y23033640D01*
X-1224988Y23064976D01*
X-1222720Y23066715D01*
X-1126463Y23192160D01*
X-1065956Y23338237D01*
X-1065955Y23338239D01*
X-1045318Y23494998D01*
X918318Y23494998D01*
X938955Y23338239D01*
X938956Y23338237D01*
X999463Y23192160D01*
X1095718Y23066718D01*
X1221160Y22970463D01*
X1367237Y22909956D01*
X1367239Y22909955D01*
X1523999Y22889318D01*
X1524000Y22889318D01*
X1524001Y22889318D01*
X1680760Y22909955D01*
X1680762Y22909956D01*
X1826839Y22970463D01*
X1826841Y22970464D01*
X1952282Y23066718D01*
X2048536Y23192159D01*
X2109044Y23338238D01*
X2129682Y23495000D01*
X2129310Y23497823D01*
X2129682Y23500208D01*
X2129682Y23503128D01*
X2130137Y23503128D01*
X2140068Y23566857D01*
X2164566Y23601700D01*
X2444255Y23881389D01*
X2505578Y23914874D01*
X2575270Y23909890D01*
X2625164Y23875467D01*
X2676888Y23816486D01*
X2676893Y23816483D01*
X2721451Y23794509D01*
X2772870Y23747203D01*
X2790551Y23679608D01*
X2786381Y23651204D01*
X2476741Y22495612D01*
X2440376Y22435952D01*
X2377529Y22405423D01*
X2348855Y22403972D01*
X2299476Y22407209D01*
X2205297Y22375238D01*
X2205296Y22375237D01*
X2130523Y22309664D01*
X2097638Y22242978D01*
X1978989Y21800176D01*
X2978262Y21532422D01*
X2978266Y21532422D01*
X4154833Y21217161D01*
X4273483Y21659966D01*
X4278345Y21734159D01*
X4246378Y21828331D01*
X4246376Y21828335D01*
X4180801Y21903108D01*
X4180802Y21903108D01*
X4136416Y21924997D01*
X4084997Y21972302D01*
X4067315Y22039897D01*
X4071483Y22068293D01*
X4381125Y23223895D01*
X4417490Y23283555D01*
X4480337Y23314084D01*
X4509004Y23315535D01*
X4558590Y23312286D01*
X4652957Y23344318D01*
X4698816Y23384536D01*
X4727879Y23410023D01*
X4727880Y23410025D01*
X4727881Y23410026D01*
X4760831Y23476841D01*
X4854007Y23824580D01*
X4864212Y23862665D01*
X4900577Y23922325D01*
X4963424Y23952854D01*
X4983987Y23954571D01*
X5090419Y23954571D01*
X5157458Y23934886D01*
X5203213Y23882082D01*
X5213157Y23812924D01*
X5210194Y23798478D01*
X5204374Y23776759D01*
X5128878Y23495000D01*
X5107820Y23416412D01*
X5102947Y23342080D01*
X5134981Y23247709D01*
X5200688Y23172787D01*
X5200693Y23172783D01*
X5245251Y23150809D01*
X5296670Y23103503D01*
X5314351Y23035908D01*
X5310181Y23007504D01*
X5292267Y22940649D01*
X5000541Y21851912D01*
X4964176Y21792252D01*
X4901329Y21761723D01*
X4872655Y21760272D01*
X4823276Y21763509D01*
X4729097Y21731538D01*
X4729096Y21731537D01*
X4654323Y21665964D01*
X4621438Y21599278D01*
X4502789Y21156476D01*
X5502062Y20888722D01*
X5502066Y20888722D01*
X6678633Y20573461D01*
X6797283Y21016266D01*
X6802145Y21090459D01*
X6770178Y21184631D01*
X6770176Y21184635D01*
X6704601Y21259408D01*
X6704602Y21259408D01*
X6660216Y21281297D01*
X6608797Y21328602D01*
X6591115Y21396197D01*
X6595283Y21424593D01*
X6904925Y22580195D01*
X6941290Y22639855D01*
X7004137Y22670384D01*
X7032804Y22671835D01*
X7082390Y22668586D01*
X7176757Y22700618D01*
X7210114Y22729872D01*
X7251679Y22766323D01*
X7251680Y22766325D01*
X7251681Y22766326D01*
X7284631Y22833141D01*
X7388012Y23218965D01*
X7424377Y23278625D01*
X7487224Y23309154D01*
X7507787Y23310871D01*
X8457109Y23310871D01*
X8524148Y23291186D01*
X8544790Y23274552D01*
X9651308Y22168032D01*
X9684793Y22106709D01*
X9681687Y22051844D01*
X9682353Y22051757D01*
X9681177Y22042825D01*
X9681045Y22040489D01*
X9680759Y22039647D01*
X9685385Y21969053D01*
X9670126Y21900870D01*
X9620426Y21851760D01*
X9616494Y21849733D01*
X9553808Y21818819D01*
X9504790Y21762925D01*
X9504785Y21762918D01*
X9467474Y21698294D01*
X9467474Y21698293D01*
X10096208Y21335294D01*
X10144424Y21284727D01*
X10157647Y21216120D01*
X10141594Y21165906D01*
X10140594Y21164174D01*
X10090027Y21115959D01*
X10021419Y21102737D01*
X9971208Y21118788D01*
X9342474Y21481787D01*
X9342473Y21481787D01*
X9305163Y21417164D01*
X9305162Y21417161D01*
X9281264Y21346760D01*
X9285835Y21277016D01*
X9270576Y21208832D01*
X9220877Y21159722D01*
X9216947Y21157696D01*
X9153499Y21126407D01*
X9153498Y21126406D01*
X9104382Y21070400D01*
X9104380Y21070397D01*
X9073083Y21016189D01*
X8904706Y20724552D01*
X8904705Y20724549D01*
X8880759Y20654009D01*
X8880759Y20654007D01*
X8883695Y20609211D01*
X8885350Y20583955D01*
X8870091Y20515772D01*
X8820392Y20466662D01*
X8816477Y20464643D01*
X8753499Y20433586D01*
X8753497Y20433584D01*
X8704382Y20377579D01*
X8704380Y20377576D01*
X8661798Y20303822D01*
X8504706Y20031731D01*
X8504705Y20031728D01*
X8480759Y19961188D01*
X8487276Y19861742D01*
X8531354Y19772365D01*
X8531353Y19772365D01*
X8587364Y19723246D01*
X8623547Y19702355D01*
X8671761Y19651786D01*
X8684982Y19583179D01*
X8659013Y19518315D01*
X8649225Y19507288D01*
X8060056Y18918119D01*
X7998733Y18884634D01*
X7956189Y18882861D01*
X7923897Y18887112D01*
X7874001Y18893682D01*
X7873999Y18893682D01*
X7805273Y18884634D01*
X7717238Y18873044D01*
X7571159Y18812536D01*
X7445718Y18716282D01*
X7349464Y18590841D01*
X7349463Y18590839D01*
X7288956Y18444762D01*
X7288955Y18444760D01*
X7268318Y18288001D01*
X7268318Y18287998D01*
X7288955Y18131239D01*
X7288956Y18131237D01*
X7349463Y17985160D01*
X7445718Y17859718D01*
X7571160Y17763463D01*
X7717237Y17702956D01*
X7717239Y17702955D01*
X7873999Y17682318D01*
X7874000Y17682318D01*
X7874001Y17682318D01*
X8030760Y17702955D01*
X8030762Y17702956D01*
X8176839Y17763463D01*
X8176841Y17763464D01*
X8302282Y17859718D01*
X8398536Y17985159D01*
X8459044Y18131238D01*
X8471611Y18226697D01*
X8479682Y18287998D01*
X8479682Y18288000D01*
X8468861Y18370189D01*
X8479626Y18439224D01*
X8504119Y18474056D01*
X9259263Y19229200D01*
X9320586Y19262685D01*
X9390278Y19257701D01*
X9408944Y19248906D01*
X9452819Y19223574D01*
X9452829Y19223570D01*
X9466903Y19218792D01*
X9524055Y19178600D01*
X9550405Y19113889D01*
X9550772Y19109490D01*
X9551158Y19103590D01*
X9551159Y19103588D01*
X9595146Y19014391D01*
X9595147Y19014389D01*
X9651042Y18965371D01*
X9651052Y18965363D01*
X9726800Y18921630D01*
X9775015Y18871063D01*
X9779359Y18861699D01*
X9790972Y18833663D01*
X9790972Y18833662D01*
X9887149Y18708323D01*
X10012487Y18612147D01*
X10158439Y18551693D01*
X10158443Y18551692D01*
X10315073Y18531071D01*
X10315078Y18531071D01*
X10345162Y18535031D01*
X10414197Y18524264D01*
X10423344Y18519480D01*
X10516745Y18465555D01*
X10516746Y18465555D01*
X11329247Y19872847D01*
X12266744Y21496642D01*
X12173346Y21550567D01*
X12125131Y21601134D01*
X12120785Y21610504D01*
X12109172Y21638540D01*
X12013000Y21763875D01*
X11887660Y21860052D01*
X11741708Y21920506D01*
X11741704Y21920507D01*
X11585075Y21941128D01*
X11554988Y21937167D01*
X11485953Y21947931D01*
X11476799Y21952720D01*
X11401054Y21996452D01*
X11401045Y21996456D01*
X11330645Y22020354D01*
X11231398Y22013850D01*
X11226101Y22011238D01*
X11157269Y21999240D01*
X11092878Y22026360D01*
X11089555Y22029170D01*
X11078324Y22039020D01*
X10547626Y22345417D01*
X10521953Y22365117D01*
X8968543Y23918528D01*
X8952418Y23938387D01*
X8946414Y23947577D01*
X8946413Y23947577D01*
X8946412Y23947580D01*
X8918209Y23969530D01*
X8912481Y23974590D01*
X8909650Y23977423D01*
X8891575Y23990328D01*
X8889533Y23991850D01*
X8846991Y24024963D01*
X8846988Y24024963D01*
X8840055Y24028715D01*
X8832929Y24032199D01*
X8832925Y24032203D01*
X8781238Y24047590D01*
X8778833Y24048360D01*
X8727830Y24065871D01*
X8727829Y24065871D01*
X8720036Y24067171D01*
X8712178Y24068151D01*
X8712176Y24068152D01*
X8712172Y24068151D01*
X8712172Y24068152D01*
X8666392Y24066258D01*
X8658312Y24065923D01*
X8655751Y24065871D01*
X7667556Y24065871D01*
X7600517Y24085556D01*
X7567695Y24119975D01*
X7567551Y24119849D01*
X7564508Y24123317D01*
X7560171Y24127867D01*
X7559500Y24129026D01*
X7559499Y24129031D01*
X7493791Y24203956D01*
X7426976Y24236906D01*
X5946728Y24633536D01*
X5902660Y24655457D01*
X5885695Y24668663D01*
X5885690Y24668664D01*
X5885690Y24668665D01*
X5878759Y24672415D01*
X5871633Y24675899D01*
X5871629Y24675903D01*
X5819942Y24691290D01*
X5817537Y24692060D01*
X5766534Y24709571D01*
X5766533Y24709571D01*
X5758740Y24710871D01*
X5750882Y24711851D01*
X5750880Y24711852D01*
X5750876Y24711851D01*
X5750876Y24711852D01*
X5705096Y24709958D01*
X5697016Y24709623D01*
X5694455Y24709571D01*
X5143756Y24709571D01*
X5076717Y24729256D01*
X5043895Y24763675D01*
X5043751Y24763549D01*
X5040708Y24767017D01*
X5036371Y24771567D01*
X5035700Y24772726D01*
X5035699Y24772731D01*
X4969991Y24847656D01*
X4903176Y24880606D01*
X3776017Y25182627D01*
X9832080Y25182627D01*
X9850431Y24996295D01*
X9850432Y24996293D01*
X9904783Y24817124D01*
X9993041Y24652003D01*
X9993043Y24652000D01*
X10111821Y24507269D01*
X10256552Y24388491D01*
X10256555Y24388489D01*
X10421676Y24300231D01*
X10600845Y24245880D01*
X10600847Y24245879D01*
X10787178Y24227528D01*
X10787179Y24227528D01*
X10803884Y24229173D01*
X10973510Y24245879D01*
X10973512Y24245880D01*
X11152681Y24300231D01*
X11317802Y24388489D01*
X11317805Y24388491D01*
X11462536Y24507269D01*
X11581314Y24652000D01*
X11581316Y24652003D01*
X11669574Y24817124D01*
X11678713Y24847249D01*
X11723926Y24996296D01*
X11742278Y25182627D01*
X11723926Y25368958D01*
X11669575Y25548128D01*
X11581315Y25713252D01*
X11462536Y25857984D01*
X11317804Y25976763D01*
X11152680Y26065023D01*
X10973510Y26119374D01*
X10787179Y26137726D01*
X10600847Y26119374D01*
X10600845Y26119373D01*
X10421678Y26065023D01*
X10421676Y26065022D01*
X10256555Y25976764D01*
X10256552Y25976762D01*
X10111821Y25857984D01*
X9993043Y25713253D01*
X9993041Y25713250D01*
X9904783Y25548129D01*
X9850432Y25368960D01*
X9850431Y25368958D01*
X9832080Y25182627D01*
X3776017Y25182627D01*
X3162628Y25346984D01*
X3088290Y25351856D01*
X2993923Y25319824D01*
X2956460Y25286970D01*
X2919000Y25254118D01*
X2918999Y25254116D01*
X2905942Y25227638D01*
X2886049Y25187300D01*
X2886048Y25187299D01*
X2782668Y24801477D01*
X2746303Y24741817D01*
X2683456Y24711288D01*
X2662893Y24709571D01*
X2413082Y24709571D01*
X2387637Y24712210D01*
X2387453Y24712248D01*
X2376887Y24714464D01*
X2360173Y24712380D01*
X2341455Y24710048D01*
X2333779Y24709571D01*
X2329790Y24709571D01*
X2307888Y24705915D01*
X2305370Y24705549D01*
X2251866Y24698880D01*
X2244289Y24696623D01*
X2236803Y24694054D01*
X2236802Y24694054D01*
X2236800Y24694053D01*
X2189400Y24668401D01*
X2187121Y24667227D01*
X2138682Y24643547D01*
X2132258Y24638961D01*
X2125997Y24634089D01*
X2089472Y24594412D01*
X2087697Y24592562D01*
X1630698Y24135564D01*
X1569378Y24102081D01*
X1526830Y24100309D01*
X1524000Y24100682D01*
X1367238Y24080044D01*
X1221159Y24019536D01*
X1095718Y23923282D01*
X999464Y23797841D01*
X999463Y23797839D01*
X938956Y23651762D01*
X938955Y23651760D01*
X918318Y23495001D01*
X918318Y23494998D01*
X-1045318Y23494998D01*
X-1045318Y23495001D01*
X-1065955Y23651760D01*
X-1065956Y23651762D01*
X-1126463Y23797839D01*
X-1126464Y23797841D01*
X-1222718Y23923282D01*
X-1348159Y24019536D01*
X-1494238Y24080044D01*
X-1587537Y24092327D01*
X-1650999Y24100682D01*
X-1651001Y24100682D01*
X-1703253Y24093802D01*
X-1807762Y24080044D01*
X-1953841Y24019536D01*
X-2079282Y23923282D01*
X-2175536Y23797841D01*
X-2236044Y23651762D01*
X-2236117Y23651204D01*
X-2256682Y23495001D01*
X-2256682Y23494998D01*
X-2252822Y23465682D01*
X-2236044Y23338238D01*
X-2175536Y23192159D01*
X-2079282Y23066718D01*
X-2079280Y23066716D01*
X-2079279Y23066715D01*
X-2077017Y23064980D01*
X-2075587Y23063023D01*
X-2073532Y23060967D01*
X-2073852Y23060646D01*
X-2035811Y23008554D01*
X-2028499Y22966606D01*
X-2028499Y22703239D01*
X-2028499Y22432726D01*
X-2048184Y22365687D01*
X-2064813Y22345050D01*
X-2091231Y22318632D01*
X-2152552Y22285149D01*
X-2222244Y22290133D01*
X-2260670Y22313088D01*
X-2332041Y22375680D01*
X-2332043Y22375682D01*
X-2426410Y22407714D01*
X-2475992Y22404464D01*
X-2544173Y22419723D01*
X-2593283Y22469421D01*
X-2603874Y22496106D01*
X-2913513Y23651697D01*
X-2911850Y23721546D01*
X-2872688Y23779409D01*
X-2848585Y23795001D01*
X-2804197Y23816891D01*
X-2738623Y23891664D01*
X-2738621Y23891668D01*
X-2706654Y23985840D01*
X-2711516Y24060038D01*
X-2830165Y24502837D01*
X-4038822Y24178979D01*
X-4038828Y24178977D01*
X-5006009Y23919822D01*
X-5025525Y23886020D01*
X-5076092Y23837804D01*
X-5144699Y23824580D01*
X-5194914Y23840632D01*
X-5226965Y23859137D01*
X-6435622Y23535279D01*
X-6435628Y23535277D01*
X-7402809Y23276122D01*
X-7284161Y22833322D01*
X-7251276Y22766635D01*
X-7176503Y22701062D01*
X-7176502Y22701061D01*
X-7082324Y22669091D01*
X-7032941Y22672328D01*
X-6964758Y22657069D01*
X-6915648Y22607371D01*
X-6905059Y22580691D01*
X-6668621Y21698293D01*
X-6595418Y21425094D01*
X-6597081Y21355245D01*
X-6636243Y21297382D01*
X-6660341Y21281793D01*
X-6704911Y21259814D01*
X-6770619Y21184889D01*
X-6802652Y21090522D01*
X-6797779Y21016184D01*
X-6627563Y20380930D01*
X-6626107Y20375497D01*
X-6627770Y20305647D01*
X-6666932Y20247784D01*
X-6731161Y20220280D01*
X-6745882Y20219403D01*
X-8541468Y20219403D01*
X-8608507Y20239088D01*
X-8648855Y20281403D01*
X-8658171Y20297538D01*
X-8704380Y20377576D01*
X-8704382Y20377579D01*
X-8753498Y20433585D01*
X-8753499Y20433586D01*
X-8816946Y20464875D01*
X-8868364Y20512179D01*
X-8886046Y20579774D01*
X-8885836Y20584194D01*
X-8881265Y20653942D01*
X-8905163Y20724343D01*
X-8905164Y20724346D01*
X-8942474Y20788969D01*
X-8942475Y20788969D01*
X-9571209Y20425970D01*
X-9639109Y20409497D01*
X-9705136Y20432350D01*
X-9740595Y20471356D01*
X-9741595Y20473088D01*
X-9758069Y20540988D01*
X-9735217Y20607015D01*
X-9696209Y20642476D01*
X-9067475Y21005475D01*
X-9067475Y21005476D01*
X-9104786Y21070100D01*
X-9104791Y21070107D01*
X-9153809Y21126001D01*
X-9153808Y21126001D01*
X-9216493Y21156914D01*
X-9267913Y21204219D01*
X-9285594Y21271815D01*
X-9285384Y21276234D01*
X-9280758Y21346827D01*
X-9304704Y21417367D01*
X-9304705Y21417370D01*
X-9486090Y21731538D01*
X-9504379Y21763215D01*
X-9504381Y21763218D01*
X-9553497Y21819224D01*
X-9553498Y21819225D01*
X-9616459Y21850274D01*
X-9667879Y21897579D01*
X-9685560Y21965175D01*
X-9685350Y21969594D01*
X-9685218Y21971603D01*
X-9680759Y22039646D01*
X-9680759Y22039647D01*
X-9680759Y22039648D01*
X-9682353Y22051754D01*
X-9680326Y22052020D01*
X-9682584Y22106274D01*
X-9649938Y22163997D01*
X-9584055Y22229880D01*
X-9522732Y22263365D01*
X-9480189Y22265138D01*
X-9398001Y22254318D01*
X-9398000Y22254318D01*
X-9397999Y22254318D01*
X-9241239Y22274955D01*
X-9241237Y22274956D01*
X-9095160Y22335463D01*
X-8969718Y22431718D01*
X-8873463Y22557160D01*
X-8812956Y22703237D01*
X-8812955Y22703239D01*
X-8792318Y22859998D01*
X-8792318Y22860001D01*
X-8812955Y23016760D01*
X-8812956Y23016762D01*
X-8873463Y23162839D01*
X-8873464Y23162841D01*
X-8969718Y23288282D01*
X-9095159Y23384536D01*
X-9241238Y23445044D01*
X-9319619Y23455363D01*
X-9397999Y23465682D01*
X-9398001Y23465682D01*
X-9450254Y23458802D01*
X-9554762Y23445044D01*
X-9700841Y23384536D01*
X-9826282Y23288282D01*
X-9922536Y23162841D01*
X-9983044Y23016762D01*
X-9984198Y23007997D01*
X-10003682Y22860001D01*
X-10003682Y22859999D01*
X-9992861Y22777809D01*
X-10003626Y22708774D01*
X-10028116Y22673945D01*
X-10117489Y22584572D01*
X-10165306Y22554837D01*
X-10212864Y22538694D01*
X-11078324Y22039020D01*
X-11089497Y22029220D01*
X-11152874Y21999819D01*
X-11222091Y22009349D01*
X-11226101Y22011238D01*
X-11231398Y22013850D01*
X-11330645Y22020354D01*
X-11401045Y21996456D01*
X-11401054Y21996452D01*
X-11476799Y21952720D01*
X-11544698Y21936246D01*
X-11554988Y21937167D01*
X-11585075Y21941128D01*
X-11741704Y21920507D01*
X-11741708Y21920506D01*
X-11887661Y21860051D01*
X-12012998Y21763876D01*
X-12109172Y21638540D01*
X-12120785Y21610504D01*
X-12164624Y21556100D01*
X-12173346Y21550567D01*
X-12266744Y21496642D01*
X-15559393Y21496642D01*
X-15533964Y21527627D01*
X-15533962Y21527630D01*
X-15445704Y21692751D01*
X-15391353Y21871920D01*
X-15391352Y21871922D01*
X-15373001Y22058253D01*
X-15391352Y22244585D01*
X-15391353Y22244587D01*
X-15445704Y22423756D01*
X-15533962Y22588877D01*
X-15533964Y22588880D01*
X-15652742Y22733611D01*
X-15797473Y22852389D01*
X-15797476Y22852391D01*
X-15962597Y22940649D01*
X-15962599Y22940650D01*
X-16141766Y22995000D01*
X-16141768Y22995001D01*
X-16328100Y23013353D01*
X-16514431Y22995001D01*
X-16693601Y22940650D01*
X-16858725Y22852390D01*
X-17003457Y22733611D01*
X-17122236Y22588879D01*
X-17210496Y22423755D01*
X-17264847Y22244585D01*
X-17283199Y22058254D01*
X-18424477Y22058254D01*
X-17923424Y22473392D01*
X-17921611Y22474838D01*
X-17215363Y23016762D01*
X-17070558Y23127873D01*
X-17068725Y23129226D01*
X-16402838Y23601700D01*
X-16193882Y23749962D01*
X-16191966Y23751269D01*
X-15759224Y24034601D01*
X-7591025Y24034601D01*
X-7586163Y23960408D01*
X-7467513Y23517603D01*
X-6500332Y23776759D01*
X-6677313Y24437258D01*
X-7426794Y24236436D01*
X-7426798Y24236435D01*
X-7493482Y24203549D01*
X-7559056Y24128777D01*
X-7559058Y24128773D01*
X-7591025Y24034601D01*
X-15759224Y24034601D01*
X-15294488Y24338880D01*
X-15292524Y24340114D01*
X-15023921Y24501963D01*
X-6435830Y24501963D01*
X-6258850Y23841463D01*
X-5291668Y24100618D01*
X-5272152Y24134422D01*
X-5221584Y24182637D01*
X-5152977Y24195859D01*
X-5102765Y24179808D01*
X-5070714Y24161303D01*
X-4103532Y24420459D01*
X-4280513Y25080958D01*
X-5029994Y24880136D01*
X-5029998Y24880135D01*
X-5096682Y24847249D01*
X-5162256Y24772477D01*
X-5162258Y24772473D01*
X-5194225Y24678301D01*
X-5191679Y24639443D01*
X-5206938Y24571260D01*
X-5256637Y24522150D01*
X-5324997Y24507705D01*
X-5390315Y24532511D01*
X-5426627Y24576491D01*
X-5443203Y24610106D01*
X-5517976Y24675679D01*
X-5517977Y24675680D01*
X-5612157Y24707651D01*
X-5686341Y24702788D01*
X-6435830Y24501963D01*
X-15023921Y24501963D01*
X-14373750Y24893729D01*
X-14371742Y24894889D01*
X-13918001Y25145663D01*
X-4039030Y25145663D01*
X-3862050Y24485163D01*
X-2894869Y24744318D01*
X-3013518Y25187120D01*
X-3046403Y25253806D01*
X-3121176Y25319379D01*
X-3121177Y25319380D01*
X-3215357Y25351351D01*
X-3289541Y25346488D01*
X-4039030Y25145663D01*
X-13918001Y25145663D01*
X-13432886Y25413777D01*
X-13430836Y25414860D01*
X-12473239Y25898278D01*
X-12471150Y25899284D01*
X-12251600Y26000000D01*
X-1859237Y26000000D01*
X-1840313Y25735403D01*
X-1840312Y25735399D01*
X-1840312Y25735397D01*
X-1835494Y25713250D01*
X-1783925Y25476192D01*
X-1691221Y25227645D01*
X-1691218Y25227638D01*
X-1564093Y24994826D01*
X-1564088Y24994818D01*
X-1405124Y24782466D01*
X-1405108Y24782448D01*
X-1217551Y24594891D01*
X-1217533Y24594875D01*
X-1005181Y24435911D01*
X-1005173Y24435906D01*
X-772360Y24308781D01*
X-772361Y24308781D01*
X-672936Y24271697D01*
X-523808Y24216075D01*
X-523805Y24216074D01*
X-523799Y24216072D01*
X-264602Y24159687D01*
X-1Y24140763D01*
X0Y24140763D01*
X1Y24140763D01*
X264602Y24159687D01*
X523799Y24216072D01*
X523805Y24216074D01*
X523808Y24216075D01*
X672936Y24271697D01*
X772361Y24308781D01*
X1005173Y24435906D01*
X1005181Y24435911D01*
X1217533Y24594875D01*
X1217551Y24594891D01*
X1405108Y24782448D01*
X1405124Y24782466D01*
X1564088Y24994818D01*
X1564093Y24994826D01*
X1691218Y25227638D01*
X1691221Y25227645D01*
X1783925Y25476192D01*
X1835494Y25713250D01*
X1840312Y25735397D01*
X1840312Y25735399D01*
X1840313Y25735403D01*
X1859237Y26000000D01*
X1840313Y26264597D01*
X1822483Y26346558D01*
X1783927Y26523799D01*
X1783926Y26523799D01*
X1783925Y26523808D01*
X1691221Y26772355D01*
X1564090Y27005179D01*
X1405118Y27217541D01*
X1217541Y27405118D01*
X1005179Y27564090D01*
X772360Y27691218D01*
X772359Y27691218D01*
X772355Y27691221D01*
X523808Y27783925D01*
X264597Y27840313D01*
X26508Y27857341D01*
X1Y27859237D01*
X-1Y27859237D01*
X-26508Y27857341D01*
X-264597Y27840313D01*
X-523808Y27783925D01*
X-772355Y27691221D01*
X-772359Y27691218D01*
X-772361Y27691218D01*
X-888767Y27627655D01*
X-1005179Y27564090D01*
X-1217541Y27405118D01*
X-1405118Y27217541D01*
X-1564090Y27005179D01*
X-1691221Y26772355D01*
X-1783925Y26523808D01*
X-1783926Y26523799D01*
X-1783927Y26523799D01*
X-1822483Y26346558D01*
X-1840313Y26264597D01*
X-1859237Y26000000D01*
X-12251600Y26000000D01*
X-11496143Y26346558D01*
X-11494018Y26347485D01*
X-10502974Y26757990D01*
X-10500815Y26758837D01*
X-9495134Y27131991D01*
X-9492945Y27132756D01*
X-9126985Y27253179D01*
X-4144072Y27253179D01*
X-4135410Y27165237D01*
X-4125720Y27066847D01*
X-4125719Y27066845D01*
X-4071368Y26887676D01*
X-3983110Y26722555D01*
X-3983108Y26722552D01*
X-3864330Y26577821D01*
X-3719599Y26459043D01*
X-3719596Y26459041D01*
X-3554475Y26370783D01*
X-3375306Y26316432D01*
X-3375304Y26316431D01*
X-3188973Y26298080D01*
X-3002641Y26316431D01*
X-3002639Y26316432D01*
X-2823470Y26370783D01*
X-2658349Y26459041D01*
X-2658346Y26459043D01*
X-2513615Y26577821D01*
X-2394837Y26722552D01*
X-2394835Y26722555D01*
X-2306577Y26887676D01*
X-2252226Y27066845D01*
X-2252225Y27066847D01*
X-2233874Y27253179D01*
X-2252225Y27439510D01*
X-2252226Y27439512D01*
X-2306577Y27618681D01*
X-2394835Y27783802D01*
X-2394837Y27783805D01*
X-2513615Y27928536D01*
X-2658346Y28047314D01*
X-2658349Y28047316D01*
X-2823470Y28135574D01*
X-2823472Y28135575D01*
X-3002639Y28189925D01*
X-3002641Y28189926D01*
X-3188973Y28208278D01*
X-3375304Y28189926D01*
X-3554474Y28135575D01*
X-3719598Y28047315D01*
X-3864330Y27928536D01*
X-3983109Y27783804D01*
X-4071369Y27618680D01*
X-4125720Y27439510D01*
X-4144072Y27253179D01*
X-9126985Y27253179D01*
X-8473992Y27468053D01*
X-8471776Y27468737D01*
X-7440986Y27765702D01*
X-7438747Y27766302D01*
X-6397604Y28024510D01*
X-6395343Y28025026D01*
X-5345255Y28244128D01*
X-5342977Y28244559D01*
X-4285431Y28424243D01*
X-4283138Y28424589D01*
X-3219619Y28564603D01*
X-3217315Y28564862D01*
X-2531873Y28629139D01*
X-2149298Y28665014D01*
X-2147008Y28665186D01*
X-1075975Y28725333D01*
X-1073663Y28725419D01*
X-821822Y28730129D01*
X-1159Y28745478D01*
X1159Y28745478D01*
X821822Y28730129D01*
G37*
%TD.AperFunction*%
%TD*%
M02*
