%TF.GenerationSoftware,KiCad,Pcbnew,7.0.5*%
%TF.CreationDate,2023-06-26T09:34:37-04:00*%
%TF.ProjectId,ESP32Sensor-LED_board,45535033-3253-4656-9e73-6f722d4c4544,rev?*%
%TF.SameCoordinates,Original*%
%TF.FileFunction,Paste,Top*%
%TF.FilePolarity,Positive*%
%FSLAX46Y46*%
G04 Gerber Fmt 4.6, Leading zero omitted, Abs format (unit mm)*
G04 Created by KiCad (PCBNEW 7.0.5) date 2023-06-26 09:34:37*
%MOMM*%
%LPD*%
G01*
G04 APERTURE LIST*
G04 Aperture macros list*
%AMRoundRect*
0 Rectangle with rounded corners*
0 $1 Rounding radius*
0 $2 $3 $4 $5 $6 $7 $8 $9 X,Y pos of 4 corners*
0 Add a 4 corners polygon primitive as box body*
4,1,4,$2,$3,$4,$5,$6,$7,$8,$9,$2,$3,0*
0 Add four circle primitives for the rounded corners*
1,1,$1+$1,$2,$3*
1,1,$1+$1,$4,$5*
1,1,$1+$1,$6,$7*
1,1,$1+$1,$8,$9*
0 Add four rect primitives between the rounded corners*
20,1,$1+$1,$2,$3,$4,$5,0*
20,1,$1+$1,$4,$5,$6,$7,0*
20,1,$1+$1,$6,$7,$8,$9,0*
20,1,$1+$1,$8,$9,$2,$3,0*%
%AMRotRect*
0 Rectangle, with rotation*
0 The origin of the aperture is its center*
0 $1 length*
0 $2 width*
0 $3 Rotation angle, in degrees counterclockwise*
0 Add horizontal line*
21,1,$1,$2,0,0,$3*%
G04 Aperture macros list end*
%ADD10RotRect,1.500000X3.300000X345.000000*%
%ADD11RotRect,0.500000X3.300000X345.000000*%
%ADD12RotRect,1.500000X3.300000X165.000000*%
%ADD13RotRect,0.500000X3.300000X165.000000*%
%ADD14RotRect,1.500000X3.300000X105.000000*%
%ADD15RotRect,0.500000X3.300000X105.000000*%
%ADD16RotRect,1.500000X3.300000X225.000000*%
%ADD17RotRect,0.500000X3.300000X225.000000*%
%ADD18RotRect,1.500000X3.300000X285.000000*%
%ADD19RotRect,0.500000X3.300000X285.000000*%
%ADD20RotRect,1.500000X3.300000X15.000000*%
%ADD21RotRect,0.500000X3.300000X15.000000*%
%ADD22RotRect,1.500000X3.300000X255.000000*%
%ADD23RotRect,0.500000X3.300000X255.000000*%
%ADD24RotRect,1.500000X3.300000X45.000000*%
%ADD25RotRect,0.500000X3.300000X45.000000*%
%ADD26RoundRect,0.140000X0.170000X-0.140000X0.170000X0.140000X-0.170000X0.140000X-0.170000X-0.140000X0*%
%ADD27RotRect,1.500000X3.300000X75.000000*%
%ADD28RotRect,0.500000X3.300000X75.000000*%
%ADD29RotRect,1.500000X3.300000X195.000000*%
%ADD30RotRect,0.500000X3.300000X195.000000*%
%ADD31RoundRect,0.135000X0.185000X-0.135000X0.185000X0.135000X-0.185000X0.135000X-0.185000X-0.135000X0*%
%ADD32RotRect,1.500000X3.300000X135.000000*%
%ADD33RotRect,0.500000X3.300000X135.000000*%
%ADD34RotRect,1.500000X3.300000X315.000000*%
%ADD35RotRect,0.500000X3.300000X315.000000*%
%ADD36R,0.500000X0.500000*%
G04 APERTURE END LIST*
D10*
%TO.C,LED1*%
X5888200Y22354200D03*
D11*
X7237598Y21992630D03*
X4538802Y22715770D03*
%TD*%
D12*
%TO.C,LED12*%
X-6017400Y-22078400D03*
D13*
X-7366798Y-21716830D03*
X-4668002Y-22439970D03*
%TD*%
D14*
%TO.C,LED10*%
X-22280900Y-5814900D03*
D15*
X-22642470Y-4465502D03*
X-21919330Y-7164298D03*
%TD*%
D16*
%TO.C,LED8*%
X-16328100Y16401400D03*
D17*
X-17315928Y15413572D03*
X-15340272Y17389228D03*
%TD*%
D18*
%TO.C,LED3*%
X22151700Y6090800D03*
D19*
X22513270Y4741402D03*
X21790130Y7440198D03*
%TD*%
D20*
%TO.C,LED6*%
X5888200Y-22078400D03*
D21*
X7237598Y-21716830D03*
X4538802Y-22439970D03*
%TD*%
D22*
%TO.C,LED9*%
X-22280900Y6090800D03*
D23*
X-22642470Y4741402D03*
X-21919330Y7440198D03*
%TD*%
D24*
%TO.C,LED5*%
X16198900Y-16125500D03*
D25*
X17186728Y-15137672D03*
X15211072Y-17113328D03*
%TD*%
D26*
%TO.C,C9*%
X-3391000Y-15720000D03*
X-3391000Y-14760000D03*
%TD*%
D27*
%TO.C,LED4*%
X22151700Y-5814900D03*
D28*
X22513270Y-4465502D03*
X21790130Y-7164298D03*
%TD*%
D29*
%TO.C,LED7*%
X-6017400Y22354200D03*
D30*
X-7366798Y21992630D03*
X-4668002Y22715770D03*
%TD*%
D26*
%TO.C,C10*%
X-4407000Y-15692000D03*
X-4407000Y-14732000D03*
%TD*%
D31*
%TO.C,R13*%
X3429000Y-15242000D03*
X3429000Y-14222000D03*
%TD*%
D32*
%TO.C,LED11*%
X-16328000Y-16125500D03*
D33*
X-17315828Y-15137672D03*
X-15340172Y-17113328D03*
%TD*%
D34*
%TO.C,LED2*%
X16198900Y16401400D03*
D35*
X17186728Y15413572D03*
X15211072Y17389228D03*
%TD*%
D36*
%TO.C,U5*%
X-1599999Y-14439999D03*
X-800001Y-14439999D03*
X0Y-14439999D03*
X800001Y-14439999D03*
X1599999Y-14439999D03*
X1599999Y-15240000D03*
X1599999Y-16040001D03*
X800001Y-16040001D03*
X0Y-16040001D03*
X-800001Y-16040001D03*
X-1599999Y-16040001D03*
X-1599999Y-15240000D03*
%TD*%
M02*
