%TF.GenerationSoftware,KiCad,Pcbnew,7.0.5*%
%TF.CreationDate,2023-06-26T09:37:40-04:00*%
%TF.ProjectId,ESP32Sensor-Sensor_board,45535033-3253-4656-9e73-6f722d53656e,rev?*%
%TF.SameCoordinates,Original*%
%TF.FileFunction,Paste,Top*%
%TF.FilePolarity,Positive*%
%FSLAX46Y46*%
G04 Gerber Fmt 4.6, Leading zero omitted, Abs format (unit mm)*
G04 Created by KiCad (PCBNEW 7.0.5) date 2023-06-26 09:37:40*
%MOMM*%
%LPD*%
G01*
G04 APERTURE LIST*
G04 Aperture macros list*
%AMRoundRect*
0 Rectangle with rounded corners*
0 $1 Rounding radius*
0 $2 $3 $4 $5 $6 $7 $8 $9 X,Y pos of 4 corners*
0 Add a 4 corners polygon primitive as box body*
4,1,4,$2,$3,$4,$5,$6,$7,$8,$9,$2,$3,0*
0 Add four circle primitives for the rounded corners*
1,1,$1+$1,$2,$3*
1,1,$1+$1,$4,$5*
1,1,$1+$1,$6,$7*
1,1,$1+$1,$8,$9*
0 Add four rect primitives between the rounded corners*
20,1,$1+$1,$2,$3,$4,$5,0*
20,1,$1+$1,$4,$5,$6,$7,0*
20,1,$1+$1,$6,$7,$8,$9,0*
20,1,$1+$1,$8,$9,$2,$3,0*%
G04 Aperture macros list end*
%ADD10RoundRect,0.140000X0.140000X0.170000X-0.140000X0.170000X-0.140000X-0.170000X0.140000X-0.170000X0*%
%ADD11RoundRect,0.135000X0.135000X0.185000X-0.135000X0.185000X-0.135000X-0.185000X0.135000X-0.185000X0*%
%ADD12R,0.700000X0.300000*%
%ADD13R,0.782500X0.355600*%
%ADD14RoundRect,0.172500X-0.262500X-0.172500X0.262500X-0.172500X0.262500X0.172500X-0.262500X0.172500X0*%
%ADD15RoundRect,0.093750X-0.093750X-0.106250X0.093750X-0.106250X0.093750X0.106250X-0.093750X0.106250X0*%
%ADD16RoundRect,0.135000X-0.135000X-0.185000X0.135000X-0.185000X0.135000X0.185000X-0.135000X0.185000X0*%
%ADD17R,0.760000X2.030000*%
%ADD18RoundRect,0.145000X0.145000X0.145000X-0.145000X0.145000X-0.145000X-0.145000X0.145000X-0.145000X0*%
%ADD19RoundRect,0.062500X0.275000X0.062500X-0.275000X0.062500X-0.275000X-0.062500X0.275000X-0.062500X0*%
%ADD20RoundRect,0.062500X0.062500X0.275000X-0.062500X0.275000X-0.062500X-0.275000X0.062500X-0.275000X0*%
%ADD21RoundRect,0.140000X-0.170000X0.140000X-0.170000X-0.140000X0.170000X-0.140000X0.170000X0.140000X0*%
%ADD22R,0.863600X0.508000*%
%ADD23RoundRect,0.225000X-0.225000X-0.225000X0.225000X-0.225000X0.225000X0.225000X-0.225000X0.225000X0*%
%ADD24RoundRect,0.062500X-0.337500X-0.062500X0.337500X-0.062500X0.337500X0.062500X-0.337500X0.062500X0*%
%ADD25RoundRect,0.062500X-0.062500X-0.337500X0.062500X-0.337500X0.062500X0.337500X-0.062500X0.337500X0*%
%ADD26R,4.400000X3.300000*%
%ADD27R,6.200000X3.900000*%
%ADD28R,1.130000X2.440000*%
%ADD29R,0.889000X1.498600*%
%ADD30R,0.711200X0.711200*%
G04 APERTURE END LIST*
%TO.C,U6*%
G36*
X-12042920Y-11309109D02*
G01*
X-12543107Y-11309109D01*
X-12543107Y-11058893D01*
X-12042920Y-11058893D01*
X-12042920Y-11309109D01*
G37*
G36*
X-12072892Y-11809108D02*
G01*
X-12543107Y-11809108D01*
X-12543107Y-11558892D01*
X-12072892Y-11558892D01*
X-12072892Y-11809108D01*
G37*
G36*
X-12072892Y-12309107D02*
G01*
X-12543107Y-12309107D01*
X-12543107Y-12058891D01*
X-12072892Y-12058891D01*
X-12072892Y-12309107D01*
G37*
G36*
X-11332893Y-11309109D02*
G01*
X-11803108Y-11309109D01*
X-11803108Y-11058893D01*
X-11332893Y-11058893D01*
X-11332893Y-11309109D01*
G37*
G36*
X-11332893Y-11809108D02*
G01*
X-11803108Y-11809108D01*
X-11803108Y-11558892D01*
X-11332893Y-11558892D01*
X-11332893Y-11809108D01*
G37*
G36*
X-11332893Y-12309107D02*
G01*
X-11803108Y-12309107D01*
X-11803108Y-12058891D01*
X-11332893Y-12058891D01*
X-11332893Y-12309107D01*
G37*
%TD*%
D10*
%TO.C,C1*%
X-7414300Y-33195100D03*
X-8374300Y-33195100D03*
%TD*%
D11*
%TO.C,R1*%
X-5380300Y-33195100D03*
X-6400300Y-33195100D03*
%TD*%
D12*
%TO.C,J2*%
X8396000Y-50838000D03*
X8396000Y-50338000D03*
X8396000Y-49838000D03*
X8396000Y-49338000D03*
X8396000Y-48838000D03*
X8396000Y-48338000D03*
X8396000Y-47838000D03*
X8396000Y-47338000D03*
X8396000Y-46838000D03*
X8396000Y-46338000D03*
X8396000Y-45838000D03*
X8396000Y-45338000D03*
X10096000Y-45588000D03*
X10096000Y-46088000D03*
X10096000Y-46588000D03*
X10096000Y-47088000D03*
X10096000Y-47588000D03*
X10096000Y-48088000D03*
X10096000Y-48588000D03*
X10096000Y-49088000D03*
X10096000Y-49588000D03*
X10096000Y-50088000D03*
X10096000Y-50588000D03*
X10096000Y-51088000D03*
%TD*%
D13*
%TO.C,U4*%
X1699349Y-33034999D03*
X1699349Y-32385000D03*
X1699349Y-31735001D03*
X-429349Y-31735001D03*
X-429349Y-32385000D03*
X-429349Y-33034999D03*
%TD*%
D14*
%TO.C,U5*%
X4827500Y-45940000D03*
X4827500Y-46740000D03*
D15*
X3940000Y-45690000D03*
X3940000Y-46340000D03*
X3940000Y-46990000D03*
X5715000Y-46990000D03*
X5715000Y-46340000D03*
X5715000Y-45690000D03*
%TD*%
D16*
%TO.C,R2*%
X0Y-30480000D03*
X1020000Y-30480000D03*
%TD*%
D17*
%TO.C,J4*%
X-14730000Y-4180000D03*
X-14730000Y-7230000D03*
X-16000000Y-4180000D03*
X-16000000Y-7230000D03*
X-17270000Y-4180000D03*
X-17270000Y-7230000D03*
%TD*%
%TO.C,J3*%
X17270000Y-4180000D03*
X17270000Y-7230000D03*
X16000000Y-4180000D03*
X16000000Y-7230000D03*
X14730000Y-4180000D03*
X14730000Y-7230000D03*
%TD*%
D10*
%TO.C,C4*%
X5589500Y-48330000D03*
X4629500Y-48330000D03*
%TD*%
D18*
%TO.C,U3*%
X15240000Y-40005000D03*
X15240000Y-39285000D03*
X14520000Y-40005000D03*
X14520000Y-39285000D03*
D19*
X16142500Y-40145000D03*
X16142500Y-39645000D03*
X16142500Y-39145000D03*
D20*
X15630000Y-38382500D03*
X15130000Y-38382500D03*
X14630000Y-38382500D03*
X14130000Y-38382500D03*
D19*
X13617500Y-39145000D03*
X13617500Y-39645000D03*
X13617500Y-40145000D03*
D20*
X14130000Y-40907500D03*
X14630000Y-40907500D03*
X15130000Y-40907500D03*
X15630000Y-40907500D03*
%TD*%
D21*
%TO.C,C3*%
X17420000Y-39525000D03*
X17420000Y-40485000D03*
%TD*%
D16*
%TO.C,R3*%
X125000Y-34290000D03*
X1145000Y-34290000D03*
%TD*%
D22*
%TO.C,U13*%
X4710999Y-53119000D03*
X4710999Y-54069000D03*
X5957001Y-54069000D03*
X5957001Y-53119000D03*
%TD*%
D23*
%TO.C,U2*%
X-5830300Y-28265100D03*
X-5830300Y-29385100D03*
X-5830300Y-30505100D03*
X-4710300Y-28265100D03*
X-4710300Y-29385100D03*
X-4710300Y-30505100D03*
X-3590300Y-28265100D03*
X-3590300Y-29385100D03*
X-3590300Y-30505100D03*
D24*
X-7160300Y-27885100D03*
X-7160300Y-28385100D03*
X-7160300Y-28885100D03*
X-7160300Y-29385100D03*
X-7160300Y-29885100D03*
X-7160300Y-30385100D03*
X-7160300Y-30885100D03*
D25*
X-6210300Y-31835100D03*
X-5710300Y-31835100D03*
X-5210300Y-31835100D03*
X-4710300Y-31835100D03*
X-4210300Y-31835100D03*
X-3710300Y-31835100D03*
X-3210300Y-31835100D03*
D24*
X-2260300Y-30885100D03*
X-2260300Y-30385100D03*
X-2260300Y-29885100D03*
X-2260300Y-29385100D03*
X-2260300Y-28885100D03*
X-2260300Y-28385100D03*
X-2260300Y-27885100D03*
D25*
X-3210300Y-26935100D03*
X-3710300Y-26935100D03*
X-4210300Y-26935100D03*
X-4710300Y-26935100D03*
X-5210300Y-26935100D03*
X-5710300Y-26935100D03*
X-6210300Y-26935100D03*
%TD*%
D26*
%TO.C,J1*%
X2988000Y-26628000D03*
D27*
X11938000Y-33728000D03*
X11938000Y-20828000D03*
%TD*%
D28*
%TO.C,S1*%
X-13970000Y-29065000D03*
X-13970000Y-20465000D03*
X-11430000Y-29065000D03*
X-11430000Y-20465000D03*
%TD*%
D21*
%TO.C,C2*%
X12340000Y-39137000D03*
X12340000Y-40097000D03*
%TD*%
%TO.C,C5*%
X2795500Y-46100000D03*
X2795500Y-47060000D03*
%TD*%
D29*
%TO.C,U1*%
X-11405087Y-54356000D03*
X-9905087Y-54356000D03*
X-8405085Y-54356000D03*
X-6905086Y-54356000D03*
X-5405086Y-54356000D03*
X-3905087Y-54356000D03*
X-2405087Y-54356000D03*
X-905085Y-54356000D03*
X594915Y-54356000D03*
X594915Y-36856000D03*
X-905085Y-36856000D03*
X-2405087Y-36856000D03*
X-3905087Y-36856000D03*
X-5405086Y-36856000D03*
X-6905086Y-36856000D03*
X-8405085Y-36856000D03*
X-9905087Y-36856000D03*
X-11405087Y-36856000D03*
D30*
X-6305110Y-45750198D03*
X-6305110Y-44650198D03*
X-6305110Y-43550198D03*
X-5205112Y-45750300D03*
X-5205112Y-44650300D03*
X-5205112Y-43550299D03*
X-4105114Y-45750198D03*
X-4105114Y-44650198D03*
X-4105114Y-43550198D03*
%TD*%
M02*
