M48
; DRILL file {KiCad 7.0.5} date Mon Jun 26 09:37:42 2023
; FORMAT={-:-/ absolute / inch / decimal}
; #@! TF.CreationDate,2023-06-26T09:37:42-04:00
; #@! TF.GenerationSoftware,Kicad,Pcbnew,7.0.5
; #@! TF.FileFunction,Plated,1,4,PTH
FMAT,2
INCH
; #@! TA.AperFunction,Plated,PTH,ViaDrill
T1C0.0080
; #@! TA.AperFunction,Plated,PTH,ComponentDrill
T2C0.0087
; #@! TA.AperFunction,Plated,PTH,ComponentDrill
T3C0.0087
; #@! TA.AperFunction,Plated,PTH,ComponentDrill
T4C0.0197
; #@! TA.AperFunction,Plated,PTH,ComponentDrill
T5C0.0300
%
G90
G05
T1
X-0.67Y-0.705
X-0.63Y-0.705
X-0.61Y-1.38
X-0.58Y-0.43
X-0.58Y-1.06
X-0.575Y-0.66
X-0.52Y-1.21
X-0.5Y-0.75
X-0.48Y-0.92
X-0.48Y-0.97
X-0.48Y-1.21
X-0.475Y-0.42
X-0.475Y-0.505
X-0.475Y-1.025
X-0.45Y-2.09
X-0.41Y-0.27
X-0.4Y-0.505
X-0.39Y-1.56
X-0.39Y-2.09
X-0.36Y-0.6
X-0.35Y-0.31
X-0.35Y-1.56
X-0.35Y-1.9
X-0.33Y-2.09
X-0.31Y-1.56
X-0.3Y-0.26
X-0.29Y-0.54
X-0.27Y-2.09
X-0.24Y-0.75
X-0.21Y-0.43
X-0.18Y-1.56
X-0.15Y-1.38
X-0.15Y-2.09
X-0.12Y-0.6
X-0.11Y-0.43
X-0.1Y-0.94
X-0.1Y-1.24
X-0.065Y-0.775
X-0.04Y-0.63
X-0.04Y-0.95
X-0.035Y-2.195
X-0.005Y-2.03
X0.0Y-1.75
X0.015Y-1.315
X0.03Y-1.265
X0.03Y-1.85
X0.04Y-0.52
X0.04Y-0.61
X0.06Y-0.91
X0.07Y-1.39
X0.07Y-1.425
X0.07Y-1.48
X0.08Y-1.14
X0.12Y-1.27
X0.1245Y-1.3796
X0.13Y-1.42
X0.13Y-1.51
X0.16Y-1.28
X0.16Y-1.41
X0.18Y-0.96
X0.19Y-0.645
X0.19Y-2.03
X0.2Y-1.66
X0.2Y-1.71
X0.21Y-0.895
X0.22Y-0.59
X0.24Y-1.3
X0.27Y-0.26
X0.27Y-0.56
X0.27Y-0.655
X0.28Y-0.9
X0.28Y-1.42
X0.29Y-1.66
X0.295Y-1.88
X0.295Y-1.92
X0.3Y-1.75
X0.31Y-0.52
X0.31Y-0.56
X0.31Y-0.76
X0.31Y-1.29
X0.32Y-2.04
X0.335Y-1.075
X0.36Y-0.92
X0.365Y-1.855
X0.365Y-1.89
X0.365Y-1.925
X0.39Y-1.095
X0.4Y-1.77
X0.41Y-1.48
X0.43Y-0.6
X0.43Y-1.19
X0.44Y-0.94
X0.45Y-0.55
X0.45Y-1.07
X0.45Y-1.675
X0.47Y-1.51
X0.49Y-0.65
X0.49Y-0.705
X0.5Y-0.92
X0.51Y-1.47
X0.525Y-1.645
X0.55Y-1.47
X0.59Y-0.36
X0.59Y-0.55
X0.59Y-0.61
X0.595Y-1.47
X0.63Y-0.83
X0.64Y-1.37
X0.65Y-1.22
X0.655Y-1.645
X0.69Y-1.51
X0.695Y-1.435
X0.7Y-1.64
X0.7045Y-0.36
X0.72Y-0.2
T2
X0.1901Y-1.8461
X0.25Y-1.4783
X0.25Y-1.5217
T3
X0.1901Y-1.8028
T5
X-0.4Y-2.275
X-0.3Y-2.275
X-0.2Y-2.275
X-0.1475Y-0.35
X-0.1Y-2.275
X0.0Y-0.35
X0.1Y-2.275
X0.15Y-0.35
X0.2Y-2.275
X0.3Y-2.275
X0.4Y-2.275
T4
G00X0.3939Y-2.0558
M15
G01X0.4176Y-2.0558
M16
G05
G00X0.6282Y-1.7165
M15
G01X0.6518Y-1.7165
M16
G05
G00X0.6282Y-2.07
M15
G01X0.6518Y-2.07
M16
G05
T0
M30
