%TF.GenerationSoftware,KiCad,Pcbnew,7.0.5*%
%TF.CreationDate,2023-06-16T17:12:54-04:00*%
%TF.ProjectId,ESP32Sensor-Sensor_board,45535033-3253-4656-9e73-6f722d53656e,rev?*%
%TF.SameCoordinates,Original*%
%TF.FileFunction,Copper,L3,Inr*%
%TF.FilePolarity,Positive*%
%FSLAX46Y46*%
G04 Gerber Fmt 4.6, Leading zero omitted, Abs format (unit mm)*
G04 Created by KiCad (PCBNEW 7.0.5) date 2023-06-16 17:12:54*
%MOMM*%
%LPD*%
G01*
G04 APERTURE LIST*
%TA.AperFunction,ComponentPad*%
%ADD10O,1.600000X1.000000*%
%TD*%
%TA.AperFunction,ComponentPad*%
%ADD11C,0.700000*%
%TD*%
%TA.AperFunction,ComponentPad*%
%ADD12C,1.270000*%
%TD*%
%TA.AperFunction,ComponentPad*%
%ADD13C,1.524000*%
%TD*%
%TA.AperFunction,ViaPad*%
%ADD14C,0.700000*%
%TD*%
%TA.AperFunction,Conductor*%
%ADD15C,0.254000*%
%TD*%
%TA.AperFunction,Conductor*%
%ADD16C,0.127000*%
%TD*%
G04 APERTURE END LIST*
D10*
%TO.N,N/C*%
%TO.C,J2*%
X10306000Y-52218000D03*
X16256000Y-52578000D03*
X16256000Y-43598000D03*
%TD*%
D11*
%TO.N,GND*%
%TO.C,U5*%
X4827500Y-45790000D03*
X4827500Y-46890000D03*
%TD*%
D12*
%TO.N,GND*%
%TO.C,J5*%
X-10160000Y-57785000D03*
%TO.N,3.3V*%
X-7620000Y-57785000D03*
%TO.N,SCL*%
X-5080000Y-57785000D03*
%TO.N,SDA*%
X-2540000Y-57785000D03*
%TD*%
D13*
%TO.N,Net-(PD1-An)*%
%TO.C,PD1*%
X3810000Y-8890000D03*
%TO.N,The_better_5V*%
X-3746500Y-8890000D03*
X0Y-8890000D03*
%TD*%
D12*
%TO.N,GND*%
%TO.C,J6*%
X2540000Y-57785000D03*
%TO.N,GPIO1*%
X5080000Y-57785000D03*
%TO.N,GPIO2*%
X7620000Y-57785000D03*
%TO.N,GPIO3*%
X10160000Y-57785000D03*
%TD*%
D11*
%TO.N,Sensor_GND*%
%TO.C,U12*%
X6350000Y-37550000D03*
X6350000Y-38650000D03*
%TD*%
D14*
%TO.N,3.3V*%
X13766100Y-41653200D03*
X1704900Y-46100000D03*
%TO.N,GND*%
X13970000Y-55372000D03*
X-9398000Y-32258000D03*
X-16256000Y-13462000D03*
X11430000Y-57912000D03*
X-15494000Y-20320000D03*
X13208000Y-36322000D03*
X17272000Y-38608000D03*
X-8890000Y-52832000D03*
X6350000Y-57912000D03*
X6350000Y-55372000D03*
X1270000Y-42672000D03*
X-9144000Y-28194000D03*
X-11430000Y-57912000D03*
X-13970000Y-55372000D03*
X8890000Y-57912000D03*
X-11430000Y-50292000D03*
X-1270000Y-40132000D03*
X11430000Y-55372000D03*
X-6350000Y-57912000D03*
X11430000Y-42672000D03*
X3810000Y-55372000D03*
X-3810000Y-47752000D03*
X8890000Y-52832000D03*
X1270000Y-50292000D03*
X13970000Y-52832000D03*
X16256000Y-32512000D03*
X-11430000Y-47752000D03*
%TO.N,CC1*%
X8007100Y-44690700D03*
X6997100Y-48928300D03*
%TO.N,D+*%
X-5405100Y-38070000D03*
X7584600Y-48379200D03*
%TO.N,D-*%
X6875300Y-46758800D03*
X-3905100Y-38059500D03*
X9278600Y-48660000D03*
%TO.N,CC2*%
X16168900Y-41549600D03*
X9292000Y-47184100D03*
%TO.N,ESP_RXD*%
X-911500Y-35639200D03*
X-8419400Y-34801800D03*
%TO.N,GPIO9*%
X-6858000Y-47752000D03*
X-986600Y-34017200D03*
X-14848900Y-34800100D03*
%TO.N,ESP_EN*%
X-2286000Y-34798000D03*
X-10812300Y-35077200D03*
%TO.N,INT*%
X1501700Y-36392900D03*
X18227600Y-28237100D03*
X15322900Y-37587500D03*
%TO.N,SCL*%
X14510800Y-37576300D03*
%TO.N,SDA*%
X12078400Y-38106200D03*
%TO.N,LED_REF*%
X13276000Y-28023900D03*
X-10000900Y-34802700D03*
%TO.N,5V*%
X-4369750Y-34222050D03*
X3099100Y-37619500D03*
X-2346300Y-32811400D03*
%TO.N,Sensor_Analog*%
X13673100Y-31282800D03*
X13165200Y-28863000D03*
%TO.N,The_better_5V*%
X-1542700Y-32758700D03*
%TO.N,ESP_ADC*%
X14656300Y-29510800D03*
X-11405100Y-35634600D03*
%TO.N,GPIO3*%
X-6624500Y-38069500D03*
%TO.N,NeopixelLED*%
X-15811800Y-34785000D03*
X-8128000Y-47498000D03*
%TO.N,VBUS*%
X-9398000Y-16002000D03*
X16374900Y-40731700D03*
X6222900Y-45182100D03*
X8860100Y-37229900D03*
%TO.N,Sensor_GND*%
X6350000Y-25654000D03*
X-11430000Y-5588000D03*
X-5588000Y-20828000D03*
X11176000Y-23876000D03*
X-10160000Y-10160000D03*
X13970000Y-14732000D03*
X7874000Y-28448000D03*
X5080000Y-33782000D03*
X-10160000Y-11938000D03*
%TD*%
D15*
%TO.N,3.3V*%
X1704900Y-46100000D02*
X3127900Y-47523000D01*
X-7620000Y-57785000D02*
X-7620000Y-55424900D01*
X6997600Y-45555800D02*
X6997600Y-44835800D01*
X6997600Y-44835800D02*
X10180200Y-41653200D01*
X10180200Y-41653200D02*
X13766100Y-41653200D01*
X5030400Y-47523000D02*
X6997600Y-45555800D01*
X-7620000Y-55424900D02*
X1704900Y-46100000D01*
X3127900Y-47523000D02*
X5030400Y-47523000D01*
D16*
%TO.N,CC1*%
X6997100Y-47820700D02*
X8007100Y-46810700D01*
X6997100Y-48928300D02*
X6997100Y-47820700D01*
X8007100Y-46810700D02*
X8007100Y-44690700D01*
%TO.N,ESP_RXD*%
X-911500Y-35639200D02*
X-7582000Y-35639200D01*
X-7582000Y-35639200D02*
X-8419400Y-34801800D01*
%TO.N,INT*%
X14797100Y-37061700D02*
X14797100Y-36392900D01*
X14797100Y-37061700D02*
X12606800Y-37061700D01*
X18227600Y-32962400D02*
X18227600Y-28237100D01*
X12606800Y-37061700D02*
X11938000Y-36392900D01*
X15322900Y-37587500D02*
X14797100Y-37061700D01*
X14797100Y-36392900D02*
X18227600Y-32962400D01*
X11938000Y-36392900D02*
X1501700Y-36392900D01*
%TO.N,LED_REF*%
X-10000900Y-34802700D02*
X-8537700Y-33339500D01*
X-8537700Y-33339500D02*
X-1392400Y-33339500D01*
X-790450Y-32737550D02*
X10442450Y-32737550D01*
X-1392400Y-33339500D02*
X-790450Y-32737550D01*
X10442450Y-32737550D02*
X13970000Y-29210000D01*
X13970000Y-29210000D02*
X13970000Y-28717900D01*
X13970000Y-28717900D02*
X13276000Y-28023900D01*
%TO.N,The_better_5V*%
X-1545100Y-10435100D02*
X-1545100Y-32756300D01*
X-1545100Y-32756300D02*
X-1542700Y-32758700D01*
X-3746500Y-8890000D02*
X-2201400Y-10435100D01*
X-1545100Y-10435100D02*
X0Y-8890000D01*
X-2201400Y-10435100D02*
X-1545100Y-10435100D01*
%TO.N,ESP_ADC*%
X-8050100Y-33653800D02*
X-10030800Y-35634500D01*
X14431200Y-29510800D02*
X10922000Y-33020000D01*
X-1354400Y-33653800D02*
X-8050100Y-33653800D01*
X10922000Y-33020000D02*
X-720600Y-33020000D01*
X14656300Y-29510800D02*
X14431200Y-29510800D01*
X-720600Y-33020000D02*
X-1354400Y-33653800D01*
X-11405100Y-35634500D02*
X-11405100Y-35634600D01*
X-10030800Y-35634500D02*
X-11405100Y-35634500D01*
%TD*%
%TA.AperFunction,Conductor*%
%TO.N,GND*%
G36*
X18706357Y-33073065D02*
G01*
X18741770Y-33133295D01*
X18745500Y-33163482D01*
X18745500Y-59621500D01*
X18725815Y-59688539D01*
X18673011Y-59734294D01*
X18621500Y-59745500D01*
X-18621500Y-59745500D01*
X-18688539Y-59725815D01*
X-18734294Y-59673011D01*
X-18745500Y-59621500D01*
X-18745500Y-57000000D01*
X-17859237Y-57000000D01*
X-17840313Y-57264597D01*
X-17783925Y-57523808D01*
X-17691221Y-57772355D01*
X-17691218Y-57772359D01*
X-17691218Y-57772361D01*
X-17640704Y-57864871D01*
X-17564090Y-58005179D01*
X-17405118Y-58217541D01*
X-17217541Y-58405118D01*
X-17005179Y-58564090D01*
X-16772360Y-58691218D01*
X-16772359Y-58691218D01*
X-16772355Y-58691221D01*
X-16523808Y-58783925D01*
X-16264597Y-58840313D01*
X-16026508Y-58857341D01*
X-16000001Y-58859237D01*
X-16000000Y-58859237D01*
X-15999999Y-58859237D01*
X-15970540Y-58857130D01*
X-15735403Y-58840313D01*
X-15735399Y-58840312D01*
X-15735397Y-58840312D01*
X-15476200Y-58783927D01*
X-15476198Y-58783926D01*
X-15476192Y-58783925D01*
X-15227645Y-58691221D01*
X-15227642Y-58691219D01*
X-15227638Y-58691218D01*
X-14994826Y-58564093D01*
X-14994818Y-58564088D01*
X-14782466Y-58405124D01*
X-14782448Y-58405108D01*
X-14594891Y-58217551D01*
X-14594875Y-58217533D01*
X-14435911Y-58005181D01*
X-14435906Y-58005173D01*
X-14308781Y-57772361D01*
X-14216072Y-57523799D01*
X-14159687Y-57264602D01*
X-14140763Y-57000001D01*
X-14140763Y-56999998D01*
X-14159687Y-56735397D01*
X-14216072Y-56476200D01*
X-14308781Y-56227638D01*
X-14435906Y-55994826D01*
X-14435911Y-55994818D01*
X-14594875Y-55782466D01*
X-14594891Y-55782448D01*
X-14782448Y-55594891D01*
X-14782466Y-55594875D01*
X-14994818Y-55435911D01*
X-14994826Y-55435906D01*
X-15227639Y-55308781D01*
X-15227638Y-55308781D01*
X-15476200Y-55216072D01*
X-15735397Y-55159687D01*
X-15999999Y-55140763D01*
X-16000001Y-55140763D01*
X-16264602Y-55159687D01*
X-16523799Y-55216072D01*
X-16523805Y-55216074D01*
X-16523808Y-55216075D01*
X-16672936Y-55271697D01*
X-16772361Y-55308781D01*
X-17005173Y-55435906D01*
X-17005181Y-55435911D01*
X-17217533Y-55594875D01*
X-17217551Y-55594891D01*
X-17405108Y-55782448D01*
X-17405124Y-55782466D01*
X-17564088Y-55994818D01*
X-17564093Y-55994826D01*
X-17691218Y-56227638D01*
X-17691219Y-56227642D01*
X-17691221Y-56227645D01*
X-17783925Y-56476192D01*
X-17840313Y-56735403D01*
X-17859237Y-57000000D01*
X-18745500Y-57000000D01*
X-18745500Y-54378500D01*
X-18725815Y-54311461D01*
X-18673011Y-54265706D01*
X-18621500Y-54254500D01*
X-13037282Y-54254500D01*
X-13013093Y-54256882D01*
X-13000000Y-54259486D01*
X-12999998Y-54259486D01*
X-12900701Y-54239735D01*
X-12900700Y-54239734D01*
X-12900699Y-54239734D01*
X-12858607Y-54211608D01*
X-12816515Y-54183484D01*
X-12782796Y-54133019D01*
X-12760266Y-54099301D01*
X-12760265Y-54099299D01*
X-12760264Y-54099296D01*
X-12744647Y-54020782D01*
X-12744642Y-54020755D01*
X-12740514Y-54000000D01*
X-12743118Y-53986906D01*
X-12745500Y-53962718D01*
X-12745500Y-47498000D01*
X-8733682Y-47498000D01*
X-8713044Y-47654762D01*
X-8652536Y-47800841D01*
X-8556282Y-47926282D01*
X-8430841Y-48022536D01*
X-8284762Y-48083044D01*
X-8180254Y-48096802D01*
X-8128001Y-48103682D01*
X-8128000Y-48103682D01*
X-8127999Y-48103682D01*
X-8049619Y-48093363D01*
X-7971238Y-48083044D01*
X-7825159Y-48022536D01*
X-7699718Y-47926282D01*
X-7699716Y-47926280D01*
X-7699715Y-47926279D01*
X-7659058Y-47873294D01*
X-7602630Y-47832091D01*
X-7532884Y-47827937D01*
X-7471964Y-47862150D01*
X-7446122Y-47901329D01*
X-7443044Y-47908759D01*
X-7443044Y-47908762D01*
X-7382536Y-48054841D01*
X-7286282Y-48180282D01*
X-7160841Y-48276536D01*
X-7014762Y-48337044D01*
X-6910254Y-48350802D01*
X-6858001Y-48357682D01*
X-6858000Y-48357682D01*
X-6857999Y-48357682D01*
X-6779618Y-48347363D01*
X-6701238Y-48337044D01*
X-6555159Y-48276536D01*
X-6429718Y-48180282D01*
X-6333464Y-48054841D01*
X-6272956Y-47908762D01*
X-6272955Y-47908760D01*
X-6252318Y-47752001D01*
X-6252318Y-47751998D01*
X-6272955Y-47595239D01*
X-6272956Y-47595237D01*
X-6333463Y-47449160D01*
X-6429718Y-47323718D01*
X-6555160Y-47227463D01*
X-6701237Y-47166956D01*
X-6701239Y-47166955D01*
X-6857999Y-47146318D01*
X-6858001Y-47146318D01*
X-7014760Y-47166955D01*
X-7014762Y-47166956D01*
X-7082852Y-47195160D01*
X-7160841Y-47227464D01*
X-7286282Y-47323718D01*
X-7299726Y-47341239D01*
X-7326941Y-47376705D01*
X-7383369Y-47417908D01*
X-7453115Y-47422062D01*
X-7514035Y-47387849D01*
X-7539877Y-47348671D01*
X-7603463Y-47195160D01*
X-7699718Y-47069718D01*
X-7825160Y-46973463D01*
X-7971237Y-46912956D01*
X-7971239Y-46912955D01*
X-8127999Y-46892318D01*
X-8128001Y-46892318D01*
X-8284760Y-46912955D01*
X-8284762Y-46912956D01*
X-8405472Y-46962956D01*
X-8430841Y-46973464D01*
X-8556282Y-47069718D01*
X-8652536Y-47195159D01*
X-8713044Y-47341238D01*
X-8733682Y-47498000D01*
X-12745500Y-47498000D01*
X-12745500Y-38069501D01*
X-7230182Y-38069501D01*
X-7230116Y-38070000D01*
X-7209544Y-38226262D01*
X-7149036Y-38372341D01*
X-7052782Y-38497782D01*
X-6927341Y-38594036D01*
X-6781262Y-38654544D01*
X-6676754Y-38668302D01*
X-6624501Y-38675182D01*
X-6624500Y-38675182D01*
X-6624499Y-38675182D01*
X-6546119Y-38664863D01*
X-6467738Y-38654544D01*
X-6321659Y-38594036D01*
X-6196218Y-38497782D01*
X-6113366Y-38389807D01*
X-6056939Y-38348606D01*
X-5987192Y-38344451D01*
X-5926272Y-38378664D01*
X-5916624Y-38389798D01*
X-5833382Y-38498282D01*
X-5707941Y-38594536D01*
X-5561862Y-38655044D01*
X-5457353Y-38668802D01*
X-5405101Y-38675682D01*
X-5405100Y-38675682D01*
X-5405099Y-38675682D01*
X-5325344Y-38665182D01*
X-5248338Y-38655044D01*
X-5102259Y-38594536D01*
X-4976818Y-38498282D01*
X-4880564Y-38372841D01*
X-4870525Y-38348606D01*
X-4820056Y-38226762D01*
X-4820055Y-38226760D01*
X-4799418Y-38070001D01*
X-4799418Y-38069998D01*
X-4800800Y-38059501D01*
X-4510782Y-38059501D01*
X-4507403Y-38085163D01*
X-4490144Y-38216262D01*
X-4429636Y-38362341D01*
X-4333382Y-38487782D01*
X-4207941Y-38584036D01*
X-4061862Y-38644544D01*
X-3982106Y-38655044D01*
X-3905101Y-38665182D01*
X-3905100Y-38665182D01*
X-3905099Y-38665182D01*
X-3789781Y-38650000D01*
X-3748338Y-38644544D01*
X-3602259Y-38584036D01*
X-3476818Y-38487782D01*
X-3380564Y-38362341D01*
X-3320056Y-38216262D01*
X-3320055Y-38216260D01*
X-3299418Y-38059501D01*
X-3299418Y-38059498D01*
X-3320055Y-37902739D01*
X-3320056Y-37902737D01*
X-3380563Y-37756660D01*
X-3476818Y-37631218D01*
X-3602260Y-37534963D01*
X-3748337Y-37474456D01*
X-3748339Y-37474455D01*
X-3905099Y-37453818D01*
X-3905101Y-37453818D01*
X-4061860Y-37474455D01*
X-4061862Y-37474456D01*
X-4202574Y-37532741D01*
X-4207941Y-37534964D01*
X-4333382Y-37631218D01*
X-4429636Y-37756659D01*
X-4490144Y-37902738D01*
X-4491461Y-37912739D01*
X-4510782Y-38059498D01*
X-4510782Y-38059501D01*
X-4800800Y-38059501D01*
X-4820055Y-37913239D01*
X-4820056Y-37913237D01*
X-4880563Y-37767160D01*
X-4976818Y-37641718D01*
X-5102260Y-37545463D01*
X-5248337Y-37484956D01*
X-5248339Y-37484955D01*
X-5405099Y-37464318D01*
X-5405101Y-37464318D01*
X-5561860Y-37484955D01*
X-5561862Y-37484956D01*
X-5706731Y-37544963D01*
X-5707941Y-37545464D01*
X-5833382Y-37641718D01*
X-5916232Y-37749691D01*
X-5972660Y-37790893D01*
X-6042406Y-37795048D01*
X-6103327Y-37760835D01*
X-6112983Y-37749691D01*
X-6196216Y-37641220D01*
X-6196217Y-37641219D01*
X-6196218Y-37641218D01*
X-6321007Y-37545464D01*
X-6321660Y-37544963D01*
X-6467737Y-37484456D01*
X-6467739Y-37484455D01*
X-6624499Y-37463818D01*
X-6624501Y-37463818D01*
X-6781260Y-37484455D01*
X-6781262Y-37484456D01*
X-6903196Y-37534963D01*
X-6927341Y-37544964D01*
X-7052782Y-37641218D01*
X-7149036Y-37766659D01*
X-7209544Y-37912738D01*
X-7209544Y-37912739D01*
X-7230182Y-38069498D01*
X-7230182Y-38069501D01*
X-12745500Y-38069501D01*
X-12745500Y-37037277D01*
X-12743117Y-37013084D01*
X-12741002Y-37002455D01*
X-12740514Y-37000000D01*
X-12740514Y-36999999D01*
X-12740514Y-36999997D01*
X-12760264Y-36900701D01*
X-12760265Y-36900700D01*
X-12816515Y-36816515D01*
X-12900699Y-36760266D01*
X-12900699Y-36760265D01*
X-12974933Y-36745500D01*
X-12999999Y-36740514D01*
X-13000000Y-36740514D01*
X-13013093Y-36743118D01*
X-13037282Y-36745500D01*
X-18621500Y-36745500D01*
X-18688539Y-36725815D01*
X-18734294Y-36673011D01*
X-18745500Y-36621500D01*
X-18745500Y-35684000D01*
X-18725815Y-35616961D01*
X-18673011Y-35571206D01*
X-18621500Y-35560000D01*
X-12129348Y-35560000D01*
X-12062309Y-35579685D01*
X-12016554Y-35632489D01*
X-12006409Y-35667813D01*
X-11990144Y-35791362D01*
X-11929636Y-35937441D01*
X-11833382Y-36062882D01*
X-11707941Y-36159136D01*
X-11561862Y-36219644D01*
X-11457353Y-36233402D01*
X-11405101Y-36240282D01*
X-11405100Y-36240282D01*
X-11405099Y-36240282D01*
X-11283279Y-36224244D01*
X-11248338Y-36219644D01*
X-11102259Y-36159136D01*
X-10976818Y-36062882D01*
X-10926275Y-35997013D01*
X-10869848Y-35955811D01*
X-10827900Y-35948500D01*
X-10047220Y-35948500D01*
X-10041819Y-35948735D01*
X-10003011Y-35952131D01*
X-9965375Y-35942045D01*
X-9960119Y-35940880D01*
X-9921749Y-35934115D01*
X-9921747Y-35934114D01*
X-9915280Y-35931760D01*
X-9902305Y-35926386D01*
X-9896049Y-35923469D01*
X-9870866Y-35905835D01*
X-9864145Y-35901129D01*
X-9859597Y-35898231D01*
X-9825851Y-35878749D01*
X-9825849Y-35878748D01*
X-9800805Y-35848901D01*
X-9797149Y-35844912D01*
X-9548556Y-35596319D01*
X-9487233Y-35562834D01*
X-9460875Y-35560000D01*
X-8156624Y-35560000D01*
X-8089585Y-35579685D01*
X-8068943Y-35596318D01*
X-7815634Y-35849627D01*
X-7812004Y-35853588D01*
X-7786949Y-35883449D01*
X-7761354Y-35898225D01*
X-7753211Y-35902926D01*
X-7748658Y-35905825D01*
X-7716749Y-35928170D01*
X-7716741Y-35928171D01*
X-7710470Y-35931097D01*
X-7697555Y-35936447D01*
X-7691055Y-35938813D01*
X-7691054Y-35938813D01*
X-7691051Y-35938815D01*
X-7652667Y-35945582D01*
X-7647423Y-35946746D01*
X-7609790Y-35956831D01*
X-7570986Y-35953435D01*
X-7565583Y-35953200D01*
X-1488623Y-35953200D01*
X-1421584Y-35972885D01*
X-1390247Y-36001713D01*
X-1339782Y-36067482D01*
X-1214341Y-36163736D01*
X-1068262Y-36224244D01*
X-977910Y-36236139D01*
X-911501Y-36244882D01*
X-911500Y-36244882D01*
X-911499Y-36244882D01*
X-833118Y-36234562D01*
X-754738Y-36224244D01*
X-608659Y-36163736D01*
X-483218Y-36067482D01*
X-386964Y-35942041D01*
X-385058Y-35937441D01*
X-326456Y-35795962D01*
X-326455Y-35795960D01*
X-309585Y-35667815D01*
X-281318Y-35603918D01*
X-222994Y-35565447D01*
X-186646Y-35560000D01*
X892000Y-35560000D01*
X959039Y-35579685D01*
X1004794Y-35632489D01*
X1016000Y-35684000D01*
X1016000Y-35997354D01*
X996315Y-36064393D01*
X990376Y-36072840D01*
X977164Y-36090057D01*
X916656Y-36236137D01*
X916655Y-36236139D01*
X896018Y-36392898D01*
X896018Y-36392901D01*
X916655Y-36549660D01*
X916657Y-36549665D01*
X977161Y-36695736D01*
X977164Y-36695742D01*
X990375Y-36712958D01*
X1015570Y-36778127D01*
X1016000Y-36788445D01*
X1016000Y-41402000D01*
X2032000Y-42418000D01*
X8582172Y-42418000D01*
X8649211Y-42437685D01*
X8694966Y-42490489D01*
X8704910Y-42559647D01*
X8675885Y-42623203D01*
X8669858Y-42629675D01*
X8152755Y-43146778D01*
X6767443Y-44532089D01*
X6747590Y-44548212D01*
X6738394Y-44554220D01*
X6738391Y-44554223D01*
X6716460Y-44582398D01*
X6711383Y-44588149D01*
X6708556Y-44590977D01*
X6708544Y-44590991D01*
X6695652Y-44609046D01*
X6694124Y-44611095D01*
X6683296Y-44625008D01*
X6626586Y-44665822D01*
X6556813Y-44669498D01*
X6533440Y-44660210D01*
X6533249Y-44660674D01*
X6525738Y-44657563D01*
X6379662Y-44597056D01*
X6379660Y-44597055D01*
X6222901Y-44576418D01*
X6222899Y-44576418D01*
X6066139Y-44597055D01*
X6066137Y-44597056D01*
X5920060Y-44657563D01*
X5794618Y-44753818D01*
X5698363Y-44879260D01*
X5637856Y-45025337D01*
X5637855Y-45025339D01*
X5617218Y-45182098D01*
X5617218Y-45182101D01*
X5637855Y-45338860D01*
X5637856Y-45338862D01*
X5698364Y-45484941D01*
X5794618Y-45610382D01*
X5920059Y-45706636D01*
X6026384Y-45750677D01*
X6080788Y-45794518D01*
X6102853Y-45860812D01*
X6085574Y-45928511D01*
X6066613Y-45952919D01*
X4910353Y-47109181D01*
X4849030Y-47142666D01*
X4822672Y-47145500D01*
X3335627Y-47145500D01*
X3268588Y-47125815D01*
X3247946Y-47109181D01*
X2798328Y-46659563D01*
X2345464Y-46206698D01*
X2311981Y-46145378D01*
X2310209Y-46102830D01*
X2310582Y-46100000D01*
X2289944Y-45943238D01*
X2229436Y-45797159D01*
X2133182Y-45671718D01*
X2007741Y-45575464D01*
X1941427Y-45547996D01*
X1861662Y-45514956D01*
X1861660Y-45514955D01*
X1704901Y-45494318D01*
X1704899Y-45494318D01*
X1548139Y-45514955D01*
X1548137Y-45514956D01*
X1402060Y-45575463D01*
X1276618Y-45671718D01*
X1180363Y-45797160D01*
X1119856Y-45943237D01*
X1119855Y-45943239D01*
X1099218Y-46099998D01*
X1099218Y-46100001D01*
X1099591Y-46102835D01*
X1099218Y-46105226D01*
X1099218Y-46108126D01*
X1098766Y-46108126D01*
X1088825Y-46171870D01*
X1064333Y-46206700D01*
X-7850155Y-55121189D01*
X-7870010Y-55137313D01*
X-7875289Y-55140763D01*
X-7879209Y-55143324D01*
X-7901139Y-55171500D01*
X-7906228Y-55177262D01*
X-7909052Y-55180086D01*
X-7909054Y-55180088D01*
X-7921949Y-55198148D01*
X-7923480Y-55200202D01*
X-7956591Y-55242743D01*
X-7960365Y-55249717D01*
X-7963831Y-55256808D01*
X-7963831Y-55256810D01*
X-7963832Y-55256811D01*
X-7979220Y-55308501D01*
X-7979993Y-55310911D01*
X-7997500Y-55361906D01*
X-7997500Y-55361908D01*
X-7998800Y-55369699D01*
X-7999779Y-55377553D01*
X-7999781Y-55377560D01*
X-7997550Y-55431472D01*
X-7997499Y-55433934D01*
X-7997499Y-56227638D01*
X-7997499Y-56903245D01*
X-8017184Y-56970284D01*
X-8060925Y-57008301D01*
X-8059563Y-57010661D01*
X-8065182Y-57013905D01*
X-8065188Y-57013909D01*
X-8065189Y-57013910D01*
X-8215779Y-57123320D01*
X-8215780Y-57123321D01*
X-8215781Y-57123322D01*
X-8215784Y-57123324D01*
X-8291547Y-57207469D01*
X-8340331Y-57261649D01*
X-8433400Y-57422850D01*
X-8433403Y-57422856D01*
X-8462160Y-57511365D01*
X-8490921Y-57599880D01*
X-8510378Y-57785000D01*
X-8490921Y-57970120D01*
X-8433401Y-58147149D01*
X-8340331Y-58308351D01*
X-8215779Y-58446680D01*
X-8065189Y-58556090D01*
X-7952424Y-58606296D01*
X-7895147Y-58631798D01*
X-7895144Y-58631798D01*
X-7895142Y-58631800D01*
X-7713070Y-58670500D01*
X-7713069Y-58670500D01*
X-7526931Y-58670500D01*
X-7526930Y-58670500D01*
X-7344858Y-58631800D01*
X-7344852Y-58631798D01*
X-7174811Y-58556090D01*
X-7174810Y-58556089D01*
X-7024221Y-58446680D01*
X-7024218Y-58446677D01*
X-7024215Y-58446675D01*
X-6914713Y-58325059D01*
X-6899669Y-58308351D01*
X-6806599Y-58147149D01*
X-6806596Y-58147143D01*
X-6749080Y-57970124D01*
X-6749079Y-57970122D01*
X-6729622Y-57785000D01*
X-5970378Y-57785000D01*
X-5950921Y-57970120D01*
X-5893401Y-58147149D01*
X-5800331Y-58308351D01*
X-5675779Y-58446680D01*
X-5525189Y-58556090D01*
X-5412424Y-58606296D01*
X-5355147Y-58631798D01*
X-5355144Y-58631798D01*
X-5355142Y-58631800D01*
X-5173070Y-58670500D01*
X-5173069Y-58670500D01*
X-4986931Y-58670500D01*
X-4986930Y-58670500D01*
X-4804858Y-58631800D01*
X-4804852Y-58631798D01*
X-4634811Y-58556090D01*
X-4634810Y-58556089D01*
X-4484221Y-58446680D01*
X-4484218Y-58446677D01*
X-4484215Y-58446675D01*
X-4374713Y-58325059D01*
X-4359669Y-58308351D01*
X-4266599Y-58147149D01*
X-4266596Y-58147143D01*
X-4209080Y-57970124D01*
X-4209079Y-57970122D01*
X-4189622Y-57785000D01*
X-3430378Y-57785000D01*
X-3410921Y-57970120D01*
X-3353401Y-58147149D01*
X-3260331Y-58308351D01*
X-3135779Y-58446680D01*
X-2985189Y-58556090D01*
X-2872424Y-58606296D01*
X-2815147Y-58631798D01*
X-2815144Y-58631798D01*
X-2815142Y-58631800D01*
X-2633070Y-58670500D01*
X-2633069Y-58670500D01*
X-2446931Y-58670500D01*
X-2446930Y-58670500D01*
X-2264858Y-58631800D01*
X-2264852Y-58631798D01*
X-2094811Y-58556090D01*
X-2094811Y-58556089D01*
X-1944221Y-58446680D01*
X-1944218Y-58446677D01*
X-1944215Y-58446675D01*
X-1834713Y-58325059D01*
X-1819669Y-58308351D01*
X-1726599Y-58147149D01*
X-1726596Y-58147143D01*
X-1669080Y-57970124D01*
X-1669079Y-57970122D01*
X-1649622Y-57785000D01*
X4189622Y-57785000D01*
X4209079Y-57970122D01*
X4209080Y-57970124D01*
X4266596Y-58147143D01*
X4266599Y-58147149D01*
X4359669Y-58308351D01*
X4374713Y-58325059D01*
X4484215Y-58446675D01*
X4484218Y-58446677D01*
X4484221Y-58446680D01*
X4634810Y-58556089D01*
X4634811Y-58556090D01*
X4804852Y-58631798D01*
X4804858Y-58631800D01*
X4986930Y-58670500D01*
X4986931Y-58670500D01*
X5173069Y-58670500D01*
X5173070Y-58670500D01*
X5355142Y-58631800D01*
X5355144Y-58631798D01*
X5355147Y-58631798D01*
X5412424Y-58606296D01*
X5525189Y-58556090D01*
X5675779Y-58446680D01*
X5800331Y-58308351D01*
X5893401Y-58147149D01*
X5950921Y-57970120D01*
X5970378Y-57785000D01*
X6729622Y-57785000D01*
X6749079Y-57970122D01*
X6749080Y-57970124D01*
X6806596Y-58147143D01*
X6806599Y-58147149D01*
X6899669Y-58308351D01*
X6914713Y-58325059D01*
X7024215Y-58446675D01*
X7024218Y-58446677D01*
X7024221Y-58446680D01*
X7174810Y-58556089D01*
X7174811Y-58556090D01*
X7344852Y-58631798D01*
X7344858Y-58631800D01*
X7526930Y-58670500D01*
X7526931Y-58670500D01*
X7713069Y-58670500D01*
X7713070Y-58670500D01*
X7895142Y-58631800D01*
X7895144Y-58631798D01*
X7895147Y-58631798D01*
X7952424Y-58606296D01*
X8065189Y-58556090D01*
X8215779Y-58446680D01*
X8340331Y-58308351D01*
X8433401Y-58147149D01*
X8490921Y-57970120D01*
X8510378Y-57785000D01*
X9269622Y-57785000D01*
X9289079Y-57970122D01*
X9289080Y-57970124D01*
X9346596Y-58147143D01*
X9346599Y-58147149D01*
X9439669Y-58308351D01*
X9454713Y-58325059D01*
X9564215Y-58446675D01*
X9564218Y-58446677D01*
X9564221Y-58446680D01*
X9714810Y-58556089D01*
X9714811Y-58556090D01*
X9884852Y-58631798D01*
X9884858Y-58631800D01*
X10066930Y-58670500D01*
X10066931Y-58670500D01*
X10253069Y-58670500D01*
X10253070Y-58670500D01*
X10435142Y-58631800D01*
X10435144Y-58631798D01*
X10435147Y-58631798D01*
X10492424Y-58606296D01*
X10605189Y-58556090D01*
X10755779Y-58446680D01*
X10880331Y-58308351D01*
X10973401Y-58147149D01*
X11030921Y-57970120D01*
X11050378Y-57785000D01*
X11030921Y-57599880D01*
X11002160Y-57511365D01*
X10973403Y-57422856D01*
X10973400Y-57422850D01*
X10880331Y-57261649D01*
X10831547Y-57207469D01*
X10755784Y-57123324D01*
X10755781Y-57123322D01*
X10755780Y-57123321D01*
X10755779Y-57123320D01*
X10605189Y-57013910D01*
X10605188Y-57013909D01*
X10573950Y-57000001D01*
X14140763Y-57000001D01*
X14159687Y-57264602D01*
X14216072Y-57523799D01*
X14308781Y-57772361D01*
X14435906Y-58005173D01*
X14435911Y-58005181D01*
X14594875Y-58217533D01*
X14594891Y-58217551D01*
X14782448Y-58405108D01*
X14782466Y-58405124D01*
X14994818Y-58564088D01*
X14994826Y-58564093D01*
X15227639Y-58691218D01*
X15227638Y-58691218D01*
X15227642Y-58691219D01*
X15227645Y-58691221D01*
X15476192Y-58783925D01*
X15476198Y-58783926D01*
X15476200Y-58783927D01*
X15735397Y-58840312D01*
X15735399Y-58840312D01*
X15735403Y-58840313D01*
X15970540Y-58857130D01*
X15999999Y-58859237D01*
X16000000Y-58859237D01*
X16000001Y-58859237D01*
X16026508Y-58857341D01*
X16264597Y-58840313D01*
X16523808Y-58783925D01*
X16772355Y-58691221D01*
X16772359Y-58691218D01*
X16772361Y-58691218D01*
X16888766Y-58627655D01*
X17005179Y-58564090D01*
X17217541Y-58405118D01*
X17405118Y-58217541D01*
X17564090Y-58005179D01*
X17640704Y-57864871D01*
X17691218Y-57772361D01*
X17691218Y-57772359D01*
X17691221Y-57772355D01*
X17783925Y-57523808D01*
X17840313Y-57264597D01*
X17859237Y-57000000D01*
X17840313Y-56735403D01*
X17783925Y-56476192D01*
X17691221Y-56227645D01*
X17691219Y-56227642D01*
X17691218Y-56227638D01*
X17564093Y-55994826D01*
X17564088Y-55994818D01*
X17405124Y-55782466D01*
X17405108Y-55782448D01*
X17217551Y-55594891D01*
X17217533Y-55594875D01*
X17005181Y-55435911D01*
X17005173Y-55435906D01*
X16772360Y-55308781D01*
X16772361Y-55308781D01*
X16672936Y-55271697D01*
X16523808Y-55216075D01*
X16523805Y-55216074D01*
X16523799Y-55216072D01*
X16264602Y-55159687D01*
X16000001Y-55140763D01*
X15999999Y-55140763D01*
X15735397Y-55159687D01*
X15476200Y-55216072D01*
X15227638Y-55308781D01*
X14994826Y-55435906D01*
X14994818Y-55435911D01*
X14782466Y-55594875D01*
X14782448Y-55594891D01*
X14594891Y-55782448D01*
X14594875Y-55782466D01*
X14435911Y-55994818D01*
X14435906Y-55994826D01*
X14308781Y-56227638D01*
X14216072Y-56476200D01*
X14159687Y-56735397D01*
X14140763Y-56999998D01*
X14140763Y-57000001D01*
X10573950Y-57000001D01*
X10435147Y-56938201D01*
X10435141Y-56938199D01*
X10291769Y-56907725D01*
X10253070Y-56899500D01*
X10066930Y-56899500D01*
X10046855Y-56903767D01*
X9884858Y-56938199D01*
X9884852Y-56938201D01*
X9714811Y-57013909D01*
X9564218Y-57123322D01*
X9564215Y-57123324D01*
X9439668Y-57261650D01*
X9346599Y-57422850D01*
X9346596Y-57422856D01*
X9289080Y-57599875D01*
X9289079Y-57599877D01*
X9269622Y-57785000D01*
X8510378Y-57785000D01*
X8490921Y-57599880D01*
X8462160Y-57511365D01*
X8433403Y-57422856D01*
X8433400Y-57422850D01*
X8340331Y-57261649D01*
X8291547Y-57207469D01*
X8215784Y-57123324D01*
X8215781Y-57123322D01*
X8215780Y-57123321D01*
X8215779Y-57123320D01*
X8065189Y-57013910D01*
X8065188Y-57013909D01*
X7895147Y-56938201D01*
X7895141Y-56938199D01*
X7751769Y-56907725D01*
X7713070Y-56899500D01*
X7526930Y-56899500D01*
X7506855Y-56903767D01*
X7344858Y-56938199D01*
X7344852Y-56938201D01*
X7174811Y-57013909D01*
X7024218Y-57123322D01*
X7024215Y-57123324D01*
X6899668Y-57261650D01*
X6806599Y-57422850D01*
X6806596Y-57422856D01*
X6749080Y-57599875D01*
X6749079Y-57599877D01*
X6729622Y-57785000D01*
X5970378Y-57785000D01*
X5950921Y-57599880D01*
X5922160Y-57511365D01*
X5893403Y-57422856D01*
X5893400Y-57422850D01*
X5800331Y-57261649D01*
X5751547Y-57207469D01*
X5675784Y-57123324D01*
X5675781Y-57123322D01*
X5675780Y-57123321D01*
X5675779Y-57123320D01*
X5525189Y-57013910D01*
X5525188Y-57013909D01*
X5355147Y-56938201D01*
X5355141Y-56938199D01*
X5211769Y-56907725D01*
X5173070Y-56899500D01*
X4986930Y-56899500D01*
X4966855Y-56903767D01*
X4804858Y-56938199D01*
X4804852Y-56938201D01*
X4634811Y-57013909D01*
X4484218Y-57123322D01*
X4484215Y-57123324D01*
X4359668Y-57261650D01*
X4266599Y-57422850D01*
X4266596Y-57422856D01*
X4209080Y-57599875D01*
X4209079Y-57599877D01*
X4189622Y-57785000D01*
X-1649622Y-57785000D01*
X-1669079Y-57599877D01*
X-1669080Y-57599875D01*
X-1726596Y-57422856D01*
X-1726599Y-57422850D01*
X-1819668Y-57261650D01*
X-1944215Y-57123324D01*
X-1944218Y-57123322D01*
X-2094811Y-57013909D01*
X-2264852Y-56938201D01*
X-2264858Y-56938199D01*
X-2426855Y-56903767D01*
X-2446930Y-56899500D01*
X-2633070Y-56899500D01*
X-2671769Y-56907725D01*
X-2815141Y-56938199D01*
X-2815147Y-56938201D01*
X-2985188Y-57013909D01*
X-2985189Y-57013910D01*
X-3135779Y-57123320D01*
X-3135780Y-57123321D01*
X-3135781Y-57123322D01*
X-3135784Y-57123324D01*
X-3211547Y-57207469D01*
X-3260331Y-57261649D01*
X-3353400Y-57422850D01*
X-3353403Y-57422856D01*
X-3382161Y-57511365D01*
X-3410921Y-57599880D01*
X-3430378Y-57785000D01*
X-4189622Y-57785000D01*
X-4209079Y-57599877D01*
X-4209080Y-57599875D01*
X-4266596Y-57422856D01*
X-4266599Y-57422850D01*
X-4359668Y-57261650D01*
X-4484215Y-57123324D01*
X-4484218Y-57123322D01*
X-4634811Y-57013909D01*
X-4804852Y-56938201D01*
X-4804858Y-56938199D01*
X-4966855Y-56903767D01*
X-4986930Y-56899500D01*
X-5173070Y-56899500D01*
X-5211769Y-56907725D01*
X-5355141Y-56938199D01*
X-5355147Y-56938201D01*
X-5525188Y-57013909D01*
X-5525189Y-57013910D01*
X-5675779Y-57123320D01*
X-5675780Y-57123321D01*
X-5675781Y-57123322D01*
X-5675784Y-57123324D01*
X-5751547Y-57207469D01*
X-5800331Y-57261649D01*
X-5893400Y-57422850D01*
X-5893403Y-57422856D01*
X-5922160Y-57511365D01*
X-5950921Y-57599880D01*
X-5970378Y-57785000D01*
X-6729622Y-57785000D01*
X-6749079Y-57599877D01*
X-6749080Y-57599875D01*
X-6806596Y-57422856D01*
X-6806599Y-57422850D01*
X-6899668Y-57261650D01*
X-7024215Y-57123324D01*
X-7024218Y-57123322D01*
X-7174817Y-57013905D01*
X-7180437Y-57010661D01*
X-7178982Y-57008140D01*
X-7222533Y-56970723D01*
X-7242499Y-56903767D01*
X-7242500Y-56903246D01*
X-7242500Y-55632627D01*
X-7222815Y-55565588D01*
X-7206181Y-55544946D01*
X-3349236Y-51688001D01*
X8471500Y-51688001D01*
X8491415Y-51839278D01*
X8491416Y-51839280D01*
X8549806Y-51980247D01*
X8549807Y-51980249D01*
X8549808Y-51980250D01*
X8642696Y-52101304D01*
X8763750Y-52194192D01*
X8763751Y-52194192D01*
X8763752Y-52194193D01*
X8795686Y-52207420D01*
X8904720Y-52252584D01*
X8961370Y-52260042D01*
X9018019Y-52267500D01*
X9018020Y-52267500D01*
X9093978Y-52267500D01*
X9093980Y-52267500D01*
X9131363Y-52262578D01*
X9200395Y-52273343D01*
X9252652Y-52319722D01*
X9269663Y-52363983D01*
X9282135Y-52434711D01*
X9351623Y-52595804D01*
X9351624Y-52595806D01*
X9351626Y-52595809D01*
X9406278Y-52669218D01*
X9456390Y-52736530D01*
X9590786Y-52849302D01*
X9646497Y-52877281D01*
X9747562Y-52928038D01*
X9747563Y-52928038D01*
X9747567Y-52928040D01*
X9918279Y-52968500D01*
X9918282Y-52968500D01*
X10649701Y-52968500D01*
X10649709Y-52968500D01*
X10780255Y-52953241D01*
X10945117Y-52893237D01*
X11091696Y-52796830D01*
X11212092Y-52669218D01*
X11239392Y-52621933D01*
X15201668Y-52621933D01*
X15217058Y-52709210D01*
X15232135Y-52794711D01*
X15301623Y-52955804D01*
X15301624Y-52955806D01*
X15301626Y-52955809D01*
X15356278Y-53029218D01*
X15406390Y-53096530D01*
X15540786Y-53209302D01*
X15618488Y-53248325D01*
X15697562Y-53288038D01*
X15697563Y-53288038D01*
X15697567Y-53288040D01*
X15868279Y-53328500D01*
X15868282Y-53328500D01*
X16599701Y-53328500D01*
X16599709Y-53328500D01*
X16730255Y-53313241D01*
X16895117Y-53253237D01*
X17041696Y-53156830D01*
X17162092Y-53029218D01*
X17249812Y-52877281D01*
X17300130Y-52709210D01*
X17310331Y-52534065D01*
X17279865Y-52361289D01*
X17210377Y-52200196D01*
X17205907Y-52194192D01*
X17105609Y-52059469D01*
X16971214Y-51946698D01*
X16971212Y-51946697D01*
X16814437Y-51867961D01*
X16814433Y-51867960D01*
X16643721Y-51827500D01*
X15912291Y-51827500D01*
X15811526Y-51839278D01*
X15781743Y-51842759D01*
X15781740Y-51842760D01*
X15616884Y-51902762D01*
X15616880Y-51902764D01*
X15470306Y-51999167D01*
X15470305Y-51999168D01*
X15349910Y-52126778D01*
X15262188Y-52278718D01*
X15211870Y-52446789D01*
X15211869Y-52446794D01*
X15201668Y-52621933D01*
X11239392Y-52621933D01*
X11299812Y-52517281D01*
X11350130Y-52349210D01*
X11360331Y-52174065D01*
X11329865Y-52001289D01*
X11260377Y-51840196D01*
X11259695Y-51839280D01*
X11155609Y-51699469D01*
X11021214Y-51586698D01*
X11021212Y-51586697D01*
X10864437Y-51507961D01*
X10864433Y-51507960D01*
X10693721Y-51467500D01*
X9962291Y-51467500D01*
X9857854Y-51479707D01*
X9831743Y-51482759D01*
X9831737Y-51482761D01*
X9740368Y-51516016D01*
X9670639Y-51520447D01*
X9609584Y-51486476D01*
X9583399Y-51446948D01*
X9562192Y-51395750D01*
X9469304Y-51274696D01*
X9348250Y-51181808D01*
X9348249Y-51181807D01*
X9348247Y-51181806D01*
X9207280Y-51123416D01*
X9207278Y-51123415D01*
X9093981Y-51108500D01*
X9093980Y-51108500D01*
X9018020Y-51108500D01*
X9018019Y-51108500D01*
X8904721Y-51123415D01*
X8904719Y-51123416D01*
X8763752Y-51181806D01*
X8642696Y-51274696D01*
X8549806Y-51395752D01*
X8491416Y-51536719D01*
X8491415Y-51536721D01*
X8471500Y-51687998D01*
X8471500Y-51688001D01*
X-3349236Y-51688001D01*
X-2843041Y-51181806D01*
X1598200Y-46740564D01*
X1659521Y-46707081D01*
X1702068Y-46705309D01*
X1704900Y-46705682D01*
X1707723Y-46705310D01*
X1710108Y-46705682D01*
X1713028Y-46705682D01*
X1713028Y-46706136D01*
X1776757Y-46716068D01*
X1811600Y-46740566D01*
X2824189Y-47753155D01*
X2840313Y-47773010D01*
X2840646Y-47773518D01*
X2846325Y-47782210D01*
X2874497Y-47804137D01*
X2880262Y-47809228D01*
X2883086Y-47812052D01*
X2901148Y-47824949D01*
X2903202Y-47826480D01*
X2945743Y-47859591D01*
X2952717Y-47863365D01*
X2959808Y-47866831D01*
X2959810Y-47866831D01*
X2959811Y-47866832D01*
X3011501Y-47882220D01*
X3013911Y-47882993D01*
X3027194Y-47887553D01*
X3064906Y-47900500D01*
X3064908Y-47900500D01*
X3072699Y-47901800D01*
X3080557Y-47902780D01*
X3080560Y-47902781D01*
X3080562Y-47902780D01*
X3080563Y-47902781D01*
X3124163Y-47900977D01*
X3134423Y-47900552D01*
X3136985Y-47900500D01*
X4978389Y-47900500D01*
X5003834Y-47903139D01*
X5014584Y-47905393D01*
X5034264Y-47902939D01*
X5050017Y-47900977D01*
X5057693Y-47900500D01*
X5061678Y-47900500D01*
X5061681Y-47900500D01*
X5083623Y-47896837D01*
X5086063Y-47896483D01*
X5139603Y-47889810D01*
X5139610Y-47889806D01*
X5147180Y-47887553D01*
X5154663Y-47884983D01*
X5154669Y-47884983D01*
X5202114Y-47859305D01*
X5204329Y-47858165D01*
X5252789Y-47834476D01*
X5252791Y-47834473D01*
X5252793Y-47834473D01*
X5259223Y-47829882D01*
X5265465Y-47825023D01*
X5265471Y-47825020D01*
X5302023Y-47785312D01*
X5303724Y-47783539D01*
X6124309Y-46962954D01*
X6185631Y-46929471D01*
X6255323Y-46934455D01*
X6311256Y-46976327D01*
X6326550Y-47003184D01*
X6342085Y-47040688D01*
X6350764Y-47061641D01*
X6447018Y-47187082D01*
X6572459Y-47283336D01*
X6718538Y-47343844D01*
X6744373Y-47347245D01*
X6808270Y-47375511D01*
X6846742Y-47433835D01*
X6847574Y-47503700D01*
X6815870Y-47557865D01*
X6786680Y-47587056D01*
X6782691Y-47590711D01*
X6752851Y-47615750D01*
X6752849Y-47615753D01*
X6733373Y-47649486D01*
X6730467Y-47654048D01*
X6708130Y-47685949D01*
X6705236Y-47692155D01*
X6699824Y-47705221D01*
X6697484Y-47711652D01*
X6690721Y-47750004D01*
X6689550Y-47755284D01*
X6679468Y-47792909D01*
X6681936Y-47821117D01*
X6682533Y-47827937D01*
X6682864Y-47831712D01*
X6683100Y-47837119D01*
X6683100Y-48351175D01*
X6663415Y-48418214D01*
X6634588Y-48449550D01*
X6568819Y-48500017D01*
X6568818Y-48500018D01*
X6541239Y-48535960D01*
X6472563Y-48625460D01*
X6412056Y-48771537D01*
X6412055Y-48771539D01*
X6391418Y-48928298D01*
X6391418Y-48928301D01*
X6412055Y-49085060D01*
X6412056Y-49085062D01*
X6453259Y-49184536D01*
X6472564Y-49231141D01*
X6568818Y-49356582D01*
X6694259Y-49452836D01*
X6840338Y-49513344D01*
X6918718Y-49523662D01*
X6997099Y-49533982D01*
X6997100Y-49533982D01*
X6997101Y-49533982D01*
X7049353Y-49527102D01*
X7153862Y-49513344D01*
X7299941Y-49452836D01*
X7425382Y-49356582D01*
X7521636Y-49231141D01*
X7582144Y-49085062D01*
X7583102Y-49077780D01*
X7611364Y-49013886D01*
X7669687Y-48975412D01*
X7689848Y-48971025D01*
X7741362Y-48964244D01*
X7887441Y-48903736D01*
X8012882Y-48807482D01*
X8109136Y-48682041D01*
X8118265Y-48660001D01*
X8672918Y-48660001D01*
X8693555Y-48816760D01*
X8693556Y-48816762D01*
X8739756Y-48928300D01*
X8754064Y-48962841D01*
X8850318Y-49088282D01*
X8975759Y-49184536D01*
X9121838Y-49245044D01*
X9200218Y-49255363D01*
X9278599Y-49265682D01*
X9278600Y-49265682D01*
X9278601Y-49265682D01*
X9330853Y-49258802D01*
X9435362Y-49245044D01*
X9581441Y-49184536D01*
X9706882Y-49088282D01*
X9803136Y-48962841D01*
X9863644Y-48816762D01*
X9884282Y-48660000D01*
X9863644Y-48503238D01*
X9803136Y-48357159D01*
X9706882Y-48231718D01*
X9581441Y-48135464D01*
X9435362Y-48074956D01*
X9435360Y-48074955D01*
X9278601Y-48054318D01*
X9278599Y-48054318D01*
X9121839Y-48074955D01*
X9121837Y-48074956D01*
X8975760Y-48135463D01*
X8850318Y-48231718D01*
X8754063Y-48357160D01*
X8693556Y-48503237D01*
X8693555Y-48503239D01*
X8672918Y-48659998D01*
X8672918Y-48660001D01*
X8118265Y-48660001D01*
X8169644Y-48535962D01*
X8190282Y-48379200D01*
X8187380Y-48357160D01*
X8169644Y-48222439D01*
X8169644Y-48222438D01*
X8109136Y-48076359D01*
X8012882Y-47950918D01*
X7887441Y-47854664D01*
X7822916Y-47827937D01*
X7741362Y-47794156D01*
X7733512Y-47792053D01*
X7734394Y-47788759D01*
X7684901Y-47766840D01*
X7646454Y-47708500D01*
X7645652Y-47638635D01*
X7677339Y-47584522D01*
X8077760Y-47184101D01*
X8686318Y-47184101D01*
X8706955Y-47340860D01*
X8706956Y-47340862D01*
X8751814Y-47449160D01*
X8767464Y-47486941D01*
X8863718Y-47612382D01*
X8989159Y-47708636D01*
X9135238Y-47769144D01*
X9213619Y-47779462D01*
X9291999Y-47789782D01*
X9292000Y-47789782D01*
X9292001Y-47789782D01*
X9349523Y-47782209D01*
X9448762Y-47769144D01*
X9594841Y-47708636D01*
X9720282Y-47612382D01*
X9816536Y-47486941D01*
X9877044Y-47340862D01*
X9896226Y-47195159D01*
X9897682Y-47184101D01*
X9897682Y-47184098D01*
X9879030Y-47042427D01*
X9877044Y-47027338D01*
X9816536Y-46881259D01*
X9720282Y-46755818D01*
X9594841Y-46659564D01*
X9579875Y-46653365D01*
X9448762Y-46599056D01*
X9448760Y-46599055D01*
X9292001Y-46578418D01*
X9291999Y-46578418D01*
X9135239Y-46599055D01*
X9135237Y-46599056D01*
X8989160Y-46659563D01*
X8863718Y-46755818D01*
X8767463Y-46881260D01*
X8706956Y-47027337D01*
X8706955Y-47027339D01*
X8686318Y-47184098D01*
X8686318Y-47184101D01*
X8077760Y-47184101D01*
X8217527Y-47044334D01*
X8221489Y-47040703D01*
X8251349Y-47015649D01*
X8270825Y-46981914D01*
X8273734Y-46977348D01*
X8276454Y-46973464D01*
X8296071Y-46945449D01*
X8296072Y-46945443D01*
X8298993Y-46939181D01*
X8304352Y-46926242D01*
X8306714Y-46919752D01*
X8306715Y-46919751D01*
X8313477Y-46881392D01*
X8314645Y-46876122D01*
X8324731Y-46838489D01*
X8321335Y-46799682D01*
X8321100Y-46794279D01*
X8321100Y-45267823D01*
X8340785Y-45200784D01*
X8369614Y-45169447D01*
X8435382Y-45118982D01*
X8470197Y-45073610D01*
X8526620Y-45032409D01*
X8596366Y-45028254D01*
X8645883Y-45052151D01*
X8669853Y-45071266D01*
X8745736Y-45131782D01*
X8745739Y-45131783D01*
X8745741Y-45131785D01*
X8863392Y-45188442D01*
X8863390Y-45188442D01*
X8990699Y-45217499D01*
X8990704Y-45217499D01*
X8990706Y-45217500D01*
X8990708Y-45217500D01*
X9121292Y-45217500D01*
X9121294Y-45217500D01*
X9121296Y-45217499D01*
X9121300Y-45217499D01*
X9248608Y-45188442D01*
X9366258Y-45131785D01*
X9366258Y-45131784D01*
X9366264Y-45131782D01*
X9468361Y-45050361D01*
X9549782Y-44948264D01*
X9583013Y-44879260D01*
X9606442Y-44830608D01*
X9635499Y-44703300D01*
X9635500Y-44703292D01*
X9635500Y-44536366D01*
X9655185Y-44469327D01*
X9707989Y-44423572D01*
X9777147Y-44413628D01*
X9811012Y-44423572D01*
X9862401Y-44447041D01*
X9862404Y-44447042D01*
X9969917Y-44462500D01*
X9969920Y-44462500D01*
X10642080Y-44462500D01*
X10642083Y-44462500D01*
X10749596Y-44447042D01*
X10749597Y-44447041D01*
X10749599Y-44447041D01*
X10822762Y-44413628D01*
X10881558Y-44386777D01*
X10991196Y-44291775D01*
X11069629Y-44169732D01*
X11110500Y-44030536D01*
X11110500Y-43885464D01*
X11089726Y-43814712D01*
X11069630Y-43746270D01*
X11069630Y-43746269D01*
X11017333Y-43664895D01*
X11002576Y-43641933D01*
X15201668Y-43641933D01*
X15227347Y-43787557D01*
X15232135Y-43814711D01*
X15301623Y-43975804D01*
X15301624Y-43975806D01*
X15301626Y-43975809D01*
X15342370Y-44030537D01*
X15406390Y-44116530D01*
X15540786Y-44229302D01*
X15606726Y-44262418D01*
X15697562Y-44308038D01*
X15697563Y-44308038D01*
X15697567Y-44308040D01*
X15868279Y-44348500D01*
X15868282Y-44348500D01*
X16599701Y-44348500D01*
X16599709Y-44348500D01*
X16730255Y-44333241D01*
X16895117Y-44273237D01*
X17041696Y-44176830D01*
X17162092Y-44049218D01*
X17249812Y-43897281D01*
X17300130Y-43729210D01*
X17310331Y-43554065D01*
X17279865Y-43381289D01*
X17210377Y-43220196D01*
X17105610Y-43079470D01*
X17033747Y-43019170D01*
X16971214Y-42966698D01*
X16971212Y-42966697D01*
X16814437Y-42887961D01*
X16814433Y-42887960D01*
X16643721Y-42847500D01*
X15912291Y-42847500D01*
X15807854Y-42859707D01*
X15781743Y-42862759D01*
X15781740Y-42862760D01*
X15616884Y-42922762D01*
X15616880Y-42922764D01*
X15470306Y-43019167D01*
X15470305Y-43019168D01*
X15349910Y-43146778D01*
X15262188Y-43298718D01*
X15211870Y-43466789D01*
X15211869Y-43466794D01*
X15201668Y-43641933D01*
X11002576Y-43641933D01*
X10991196Y-43624225D01*
X10881558Y-43529223D01*
X10881556Y-43529222D01*
X10749599Y-43468958D01*
X10749595Y-43468957D01*
X10669110Y-43457386D01*
X10642083Y-43453500D01*
X9969917Y-43453500D01*
X9956403Y-43455443D01*
X9862404Y-43468957D01*
X9862400Y-43468958D01*
X9730443Y-43529222D01*
X9730442Y-43529223D01*
X9686721Y-43567108D01*
X9620803Y-43624226D01*
X9542369Y-43746269D01*
X9542369Y-43746270D01*
X9536512Y-43766217D01*
X9498736Y-43824994D01*
X9435180Y-43854017D01*
X9366021Y-43844072D01*
X9363735Y-43842999D01*
X9248607Y-43787557D01*
X9248609Y-43787557D01*
X9121300Y-43758500D01*
X9121294Y-43758500D01*
X9100875Y-43758500D01*
X9056000Y-43758500D01*
X8990706Y-43758500D01*
X8990704Y-43758500D01*
X8990697Y-43758501D01*
X8915428Y-43775680D01*
X8845689Y-43771406D01*
X8789332Y-43730107D01*
X8764249Y-43664895D01*
X8778405Y-43596474D01*
X8800154Y-43567110D01*
X9519765Y-42847500D01*
X9912947Y-42454319D01*
X9974270Y-42420834D01*
X10000628Y-42418000D01*
X10414000Y-42418000D01*
X10414000Y-42154700D01*
X10433685Y-42087661D01*
X10486489Y-42041906D01*
X10538000Y-42030700D01*
X13237702Y-42030700D01*
X13304741Y-42050385D01*
X13336077Y-42079213D01*
X13337818Y-42081482D01*
X13463259Y-42177736D01*
X13609338Y-42238244D01*
X13687718Y-42248562D01*
X13766099Y-42258882D01*
X13766100Y-42258882D01*
X13766101Y-42258882D01*
X13818353Y-42252002D01*
X13922862Y-42238244D01*
X14068941Y-42177736D01*
X14194382Y-42081482D01*
X14290636Y-41956041D01*
X14351144Y-41809962D01*
X14371782Y-41653200D01*
X14358143Y-41549601D01*
X15563218Y-41549601D01*
X15583855Y-41706360D01*
X15583856Y-41706362D01*
X15626768Y-41809962D01*
X15644364Y-41852441D01*
X15740618Y-41977882D01*
X15866059Y-42074136D01*
X16012138Y-42134644D01*
X16090519Y-42144962D01*
X16168899Y-42155282D01*
X16168900Y-42155282D01*
X16168901Y-42155282D01*
X16221154Y-42148402D01*
X16325662Y-42134644D01*
X16471741Y-42074136D01*
X16597182Y-41977882D01*
X16693436Y-41852441D01*
X16753944Y-41706362D01*
X16774582Y-41549600D01*
X16753944Y-41392838D01*
X16729041Y-41332716D01*
X16721572Y-41263247D01*
X16752847Y-41200768D01*
X16768110Y-41186892D01*
X16803182Y-41159982D01*
X16899436Y-41034541D01*
X16959944Y-40888462D01*
X16980582Y-40731700D01*
X16959944Y-40574938D01*
X16899436Y-40428859D01*
X16803182Y-40303418D01*
X16677741Y-40207164D01*
X16531662Y-40146656D01*
X16531660Y-40146655D01*
X16374901Y-40126018D01*
X16374899Y-40126018D01*
X16218139Y-40146655D01*
X16218137Y-40146656D01*
X16072060Y-40207163D01*
X15946618Y-40303418D01*
X15850363Y-40428860D01*
X15789856Y-40574937D01*
X15789855Y-40574939D01*
X15769218Y-40731698D01*
X15769218Y-40731701D01*
X15789855Y-40888460D01*
X15789857Y-40888465D01*
X15814758Y-40948582D01*
X15822227Y-41018051D01*
X15790951Y-41080530D01*
X15775686Y-41094408D01*
X15740619Y-41121316D01*
X15644363Y-41246760D01*
X15583856Y-41392837D01*
X15583855Y-41392839D01*
X15563218Y-41549598D01*
X15563218Y-41549601D01*
X14358143Y-41549601D01*
X14351144Y-41496438D01*
X14290636Y-41350359D01*
X14194382Y-41224918D01*
X14068941Y-41128664D01*
X14051206Y-41121318D01*
X13922862Y-41068156D01*
X13922860Y-41068155D01*
X13766101Y-41047518D01*
X13766099Y-41047518D01*
X13609339Y-41068155D01*
X13609337Y-41068156D01*
X13463260Y-41128663D01*
X13337816Y-41224919D01*
X13336078Y-41227186D01*
X13334121Y-41228614D01*
X13332071Y-41230665D01*
X13331751Y-41230345D01*
X13279650Y-41268389D01*
X13237702Y-41275700D01*
X10538000Y-41275700D01*
X10470961Y-41256015D01*
X10425206Y-41203211D01*
X10414000Y-41151700D01*
X10414000Y-38106201D01*
X11472718Y-38106201D01*
X11493355Y-38262960D01*
X11493356Y-38262962D01*
X11538868Y-38372839D01*
X11553864Y-38409041D01*
X11650118Y-38534482D01*
X11775559Y-38630736D01*
X11921638Y-38691244D01*
X12000019Y-38701563D01*
X12078399Y-38711882D01*
X12078400Y-38711882D01*
X12078401Y-38711882D01*
X12130653Y-38705002D01*
X12235162Y-38691244D01*
X12381241Y-38630736D01*
X12506682Y-38534482D01*
X12602936Y-38409041D01*
X12663444Y-38262962D01*
X12684082Y-38106200D01*
X12681312Y-38085163D01*
X12663444Y-37949439D01*
X12663444Y-37949438D01*
X12602936Y-37803359D01*
X12506682Y-37677918D01*
X12381241Y-37581664D01*
X12381236Y-37581660D01*
X12379777Y-37580818D01*
X12378020Y-37580329D01*
X12235165Y-37521157D01*
X12235160Y-37521155D01*
X12078401Y-37500518D01*
X12078399Y-37500518D01*
X11921639Y-37521155D01*
X11921637Y-37521156D01*
X11775560Y-37581663D01*
X11650118Y-37677918D01*
X11553863Y-37803360D01*
X11493356Y-37949437D01*
X11493355Y-37949439D01*
X11472718Y-38106198D01*
X11472718Y-38106201D01*
X10414000Y-38106201D01*
X10414000Y-37389361D01*
X10433685Y-37322322D01*
X10450314Y-37301685D01*
X10921241Y-36830758D01*
X10922784Y-36829271D01*
X11018889Y-36740031D01*
X11081407Y-36708841D01*
X11103262Y-36706900D01*
X11756575Y-36706900D01*
X11823614Y-36726585D01*
X11844256Y-36743219D01*
X12373149Y-37272112D01*
X12376805Y-37276101D01*
X12401849Y-37305948D01*
X12401851Y-37305949D01*
X12435597Y-37325431D01*
X12440145Y-37328329D01*
X12472051Y-37350670D01*
X12472053Y-37350670D01*
X12477874Y-37353385D01*
X12477920Y-37353426D01*
X12491286Y-37358962D01*
X12497747Y-37361314D01*
X12497749Y-37361315D01*
X12536119Y-37368080D01*
X12541375Y-37369245D01*
X12579011Y-37379331D01*
X12617819Y-37375935D01*
X12623220Y-37375700D01*
X13790133Y-37375700D01*
X13857172Y-37395385D01*
X13902927Y-37448189D01*
X13913071Y-37515884D01*
X13905118Y-37576300D01*
X13905118Y-37576301D01*
X13925755Y-37733060D01*
X13925756Y-37733062D01*
X13986264Y-37879141D01*
X14082518Y-38004582D01*
X14207959Y-38100836D01*
X14354038Y-38161344D01*
X14432418Y-38171662D01*
X14510799Y-38181982D01*
X14510800Y-38181982D01*
X14510801Y-38181982D01*
X14582489Y-38172544D01*
X14667562Y-38161344D01*
X14813641Y-38100836D01*
X14834065Y-38085163D01*
X14899230Y-38059969D01*
X14967676Y-38074006D01*
X14985037Y-38085163D01*
X15020057Y-38112035D01*
X15020058Y-38112035D01*
X15020059Y-38112036D01*
X15166138Y-38172544D01*
X15237827Y-38181982D01*
X15322899Y-38193182D01*
X15322900Y-38193182D01*
X15322901Y-38193182D01*
X15375153Y-38186302D01*
X15479662Y-38172544D01*
X15625741Y-38112036D01*
X15751182Y-38015782D01*
X15847436Y-37890341D01*
X15907944Y-37744262D01*
X15928582Y-37587500D01*
X15927702Y-37580818D01*
X15912157Y-37462738D01*
X15907944Y-37430738D01*
X15847436Y-37284659D01*
X15751182Y-37159218D01*
X15625741Y-37062964D01*
X15479662Y-37002456D01*
X15479660Y-37002455D01*
X15322901Y-36981818D01*
X15322899Y-36981818D01*
X15251285Y-36991246D01*
X15182250Y-36980480D01*
X15129994Y-36934100D01*
X15111100Y-36868307D01*
X15111100Y-36574324D01*
X15130785Y-36507285D01*
X15147414Y-36486648D01*
X18438027Y-33196034D01*
X18441989Y-33192403D01*
X18471849Y-33167349D01*
X18491325Y-33133614D01*
X18494234Y-33129048D01*
X18495554Y-33127164D01*
X18516571Y-33097149D01*
X18516571Y-33097148D01*
X18519927Y-33092356D01*
X18574504Y-33048733D01*
X18644003Y-33041541D01*
X18706357Y-33073065D01*
G37*
%TD.AperFunction*%
%TA.AperFunction,Conductor*%
G36*
X17586676Y-27959685D02*
G01*
X17632431Y-28012489D01*
X17642576Y-28080185D01*
X17621918Y-28237098D01*
X17621918Y-28237101D01*
X17642555Y-28393860D01*
X17642556Y-28393862D01*
X17668815Y-28457258D01*
X17703064Y-28539941D01*
X17746616Y-28596699D01*
X17799319Y-28665383D01*
X17865086Y-28715847D01*
X17906289Y-28772275D01*
X17913600Y-28814223D01*
X17913600Y-32780974D01*
X17893915Y-32848013D01*
X17877281Y-32868655D01*
X14586680Y-36159256D01*
X14582691Y-36162911D01*
X14552851Y-36187950D01*
X14552849Y-36187953D01*
X14533373Y-36221686D01*
X14530467Y-36226248D01*
X14508130Y-36258149D01*
X14505236Y-36264355D01*
X14499824Y-36277421D01*
X14497484Y-36283852D01*
X14490721Y-36322204D01*
X14489550Y-36327484D01*
X14479468Y-36365109D01*
X14482864Y-36403912D01*
X14483100Y-36409319D01*
X14483100Y-36623700D01*
X14463415Y-36690739D01*
X14410611Y-36736494D01*
X14359100Y-36747700D01*
X12788225Y-36747700D01*
X12721186Y-36728015D01*
X12700544Y-36711381D01*
X12171644Y-36182481D01*
X12167988Y-36178491D01*
X12142948Y-36148650D01*
X12142946Y-36148649D01*
X12109212Y-36129173D01*
X12104649Y-36126266D01*
X12072749Y-36103929D01*
X12066535Y-36101031D01*
X12053494Y-36095630D01*
X12047053Y-36093285D01*
X12013888Y-36087437D01*
X11951286Y-36056408D01*
X11915397Y-35996460D01*
X11917615Y-35926626D01*
X11951044Y-35874458D01*
X14478000Y-33528000D01*
X14478000Y-30234403D01*
X14497685Y-30167364D01*
X14550489Y-30121609D01*
X14618185Y-30111464D01*
X14656300Y-30116482D01*
X14656301Y-30116482D01*
X14708553Y-30109602D01*
X14813062Y-30095844D01*
X14959141Y-30035336D01*
X15084582Y-29939082D01*
X15180836Y-29813641D01*
X15241344Y-29667562D01*
X15261982Y-29510800D01*
X15241344Y-29354038D01*
X15180836Y-29207959D01*
X15084582Y-29082518D01*
X14959141Y-28986264D01*
X14813062Y-28925756D01*
X14813060Y-28925755D01*
X14656301Y-28905118D01*
X14656296Y-28905118D01*
X14618183Y-28910135D01*
X14549148Y-28899369D01*
X14496893Y-28852988D01*
X14478000Y-28787196D01*
X14478000Y-28753361D01*
X14497685Y-28686322D01*
X14514314Y-28665685D01*
X14857544Y-28322455D01*
X14918863Y-28288973D01*
X14988554Y-28293957D01*
X15008816Y-28303689D01*
X15191493Y-28412834D01*
X15386900Y-28486172D01*
X15402908Y-28492180D01*
X15625090Y-28532500D01*
X15625093Y-28532500D01*
X15794337Y-28532500D01*
X15794343Y-28532500D01*
X15952443Y-28518270D01*
X15962906Y-28517329D01*
X16180570Y-28457258D01*
X16180575Y-28457255D01*
X16180582Y-28457254D01*
X16384033Y-28359277D01*
X16566721Y-28226547D01*
X16722772Y-28063330D01*
X16767422Y-27995687D01*
X16820782Y-27950583D01*
X16870909Y-27940000D01*
X17519637Y-27940000D01*
X17586676Y-27959685D01*
G37*
%TD.AperFunction*%
%TD*%
%TA.AperFunction,Conductor*%
%TO.N,Sensor_GND*%
G36*
X8320090Y-36726585D02*
G01*
X8365845Y-36779389D01*
X8375789Y-36848547D01*
X8351426Y-36906387D01*
X8335564Y-36927057D01*
X8275056Y-37073137D01*
X8275055Y-37073139D01*
X8254418Y-37229898D01*
X8254418Y-37229901D01*
X8275055Y-37386660D01*
X8275056Y-37386662D01*
X8335564Y-37532741D01*
X8431818Y-37658182D01*
X8557259Y-37754436D01*
X8559448Y-37755342D01*
X8561013Y-37756603D01*
X8564296Y-37758499D01*
X8564000Y-37759010D01*
X8613852Y-37799179D01*
X8635921Y-37865472D01*
X8636000Y-37869905D01*
X8636000Y-41024000D01*
X8616315Y-41091039D01*
X8563511Y-41136794D01*
X8512000Y-41148000D01*
X2410000Y-41148000D01*
X2342961Y-41128315D01*
X2297206Y-41075511D01*
X2286000Y-41024000D01*
X2286000Y-37849075D01*
X2305685Y-37782036D01*
X2358489Y-37736281D01*
X2427647Y-37726337D01*
X2491203Y-37755362D01*
X2524561Y-37801623D01*
X2574562Y-37922338D01*
X2574563Y-37922339D01*
X2574564Y-37922341D01*
X2670818Y-38047782D01*
X2796259Y-38144036D01*
X2942338Y-38204544D01*
X3020718Y-38214863D01*
X3099099Y-38225182D01*
X3099100Y-38225182D01*
X3099101Y-38225182D01*
X3151354Y-38218302D01*
X3255862Y-38204544D01*
X3401941Y-38144036D01*
X3527382Y-38047782D01*
X3623636Y-37922341D01*
X3684144Y-37776262D01*
X3704782Y-37619500D01*
X3684144Y-37462738D01*
X3623636Y-37316659D01*
X3527382Y-37191218D01*
X3401941Y-37094964D01*
X3349248Y-37073138D01*
X3255862Y-37034456D01*
X3255860Y-37034455D01*
X3099101Y-37013818D01*
X3099099Y-37013818D01*
X2942339Y-37034455D01*
X2942337Y-37034456D01*
X2796260Y-37094963D01*
X2670818Y-37191218D01*
X2574563Y-37316660D01*
X2524561Y-37437377D01*
X2480720Y-37491780D01*
X2414426Y-37513845D01*
X2346726Y-37496566D01*
X2299116Y-37445428D01*
X2286000Y-37389924D01*
X2286000Y-36830900D01*
X2305685Y-36763861D01*
X2358489Y-36718106D01*
X2410000Y-36706900D01*
X8253051Y-36706900D01*
X8320090Y-36726585D01*
G37*
%TD.AperFunction*%
%TA.AperFunction,Conductor*%
G36*
X13046386Y-31442189D02*
G01*
X13102319Y-31484061D01*
X13117613Y-31510919D01*
X13148561Y-31585636D01*
X13148564Y-31585642D01*
X13182375Y-31629704D01*
X13207570Y-31694873D01*
X13208000Y-31705191D01*
X13208000Y-34304546D01*
X13188315Y-34371585D01*
X13168376Y-34395412D01*
X12287594Y-35213282D01*
X12016328Y-35465172D01*
X11949888Y-35526866D01*
X11887368Y-35558059D01*
X11865512Y-35560000D01*
X8381999Y-35560000D01*
X8599681Y-35777681D01*
X8633166Y-35839004D01*
X8636000Y-35865362D01*
X8636000Y-35954900D01*
X8616315Y-36021939D01*
X8563511Y-36067694D01*
X8512000Y-36078900D01*
X2410000Y-36078900D01*
X2342961Y-36059215D01*
X2297206Y-36006411D01*
X2286000Y-35954900D01*
X2286000Y-34036000D01*
X2285999Y-34035999D01*
X2068319Y-34253681D01*
X2006996Y-34287166D01*
X1980638Y-34290000D01*
X-275438Y-34290000D01*
X-342477Y-34270315D01*
X-388232Y-34217511D01*
X-398377Y-34149815D01*
X-380918Y-34017201D01*
X-380918Y-34017198D01*
X-401555Y-33860439D01*
X-401556Y-33860437D01*
X-462063Y-33714360D01*
X-558319Y-33588916D01*
X-600728Y-33556376D01*
X-641931Y-33499948D01*
X-646086Y-33430202D01*
X-611874Y-33369282D01*
X-550156Y-33336529D01*
X-525242Y-33334000D01*
X10905580Y-33334000D01*
X10910980Y-33334235D01*
X10949789Y-33337631D01*
X10987435Y-33327542D01*
X10992667Y-33326382D01*
X11031051Y-33319615D01*
X11031055Y-33319612D01*
X11037562Y-33317244D01*
X11050470Y-33311897D01*
X11056741Y-33308971D01*
X11056749Y-33308970D01*
X11088658Y-33286625D01*
X11093211Y-33283726D01*
X11126949Y-33264249D01*
X11152004Y-33234388D01*
X11155634Y-33230427D01*
X12915373Y-31470688D01*
X12976694Y-31437205D01*
X13046386Y-31442189D01*
G37*
%TD.AperFunction*%
%TA.AperFunction,Conductor*%
G36*
X-7423461Y-274185D02*
G01*
X-7377706Y-326989D01*
X-7366500Y-378500D01*
X-7366500Y-2502718D01*
X-7368882Y-2526906D01*
X-7371486Y-2540000D01*
X-7367689Y-2559086D01*
X-7367689Y-2559092D01*
X-7360568Y-2594891D01*
X-7351734Y-2639301D01*
X-7295484Y-2723484D01*
X-7211301Y-2779734D01*
X-7211298Y-2779734D01*
X-7211298Y-2779735D01*
X-7112002Y-2799486D01*
X-7112000Y-2799486D01*
X-7098907Y-2796882D01*
X-7074718Y-2794500D01*
X7074718Y-2794500D01*
X7098907Y-2796882D01*
X7112000Y-2799486D01*
X7112002Y-2799486D01*
X7211298Y-2779735D01*
X7211298Y-2779734D01*
X7211301Y-2779734D01*
X7295484Y-2723484D01*
X7351734Y-2639301D01*
X7360568Y-2594891D01*
X7367689Y-2559092D01*
X7367689Y-2559086D01*
X7371486Y-2540000D01*
X7368882Y-2526906D01*
X7366500Y-2502718D01*
X7366500Y-378500D01*
X7386185Y-311461D01*
X7438989Y-265706D01*
X7490500Y-254500D01*
X18621500Y-254500D01*
X18688539Y-274185D01*
X18734294Y-326989D01*
X18745500Y-378500D01*
X18745500Y-26800000D01*
X18725815Y-26867039D01*
X18673011Y-26912794D01*
X18621500Y-26924000D01*
X17032129Y-26924000D01*
X16965090Y-26904315D01*
X16919335Y-26851511D01*
X16914198Y-26838317D01*
X16901748Y-26800000D01*
X16896211Y-26782957D01*
X16789204Y-26584106D01*
X16648411Y-26407558D01*
X16559007Y-26329448D01*
X16478360Y-26258988D01*
X16374146Y-26196723D01*
X16284507Y-26143166D01*
X16166154Y-26098747D01*
X16073091Y-26063819D01*
X15850910Y-26023500D01*
X15850907Y-26023500D01*
X15681657Y-26023500D01*
X15650271Y-26026324D01*
X15513093Y-26038670D01*
X15295429Y-26098741D01*
X15295414Y-26098747D01*
X15091973Y-26196719D01*
X15091965Y-26196723D01*
X14909284Y-26329448D01*
X14909282Y-26329449D01*
X14753226Y-26492671D01*
X14628825Y-26681130D01*
X14555001Y-26853852D01*
X14510553Y-26907760D01*
X14488435Y-26919677D01*
X14478000Y-26923999D01*
X13838946Y-27563052D01*
X13777623Y-27596537D01*
X13707931Y-27591553D01*
X13675779Y-27573747D01*
X13578842Y-27499364D01*
X13432762Y-27438856D01*
X13432760Y-27438855D01*
X13276001Y-27418218D01*
X13275999Y-27418218D01*
X13119239Y-27438855D01*
X13119237Y-27438856D01*
X12973160Y-27499363D01*
X12847718Y-27595618D01*
X12751463Y-27721060D01*
X12690956Y-27867137D01*
X12690955Y-27867139D01*
X12670318Y-28023898D01*
X12670318Y-28023901D01*
X12690955Y-28180660D01*
X12690957Y-28180665D01*
X12748013Y-28318412D01*
X12755482Y-28387881D01*
X12731828Y-28441350D01*
X12640664Y-28560157D01*
X12580156Y-28706237D01*
X12580155Y-28706239D01*
X12559518Y-28862998D01*
X12559518Y-28863001D01*
X12580155Y-29019760D01*
X12580156Y-29019762D01*
X12640664Y-29165841D01*
X12736918Y-29291282D01*
X12862359Y-29387536D01*
X13008438Y-29448044D01*
X13008443Y-29448044D01*
X13016288Y-29450147D01*
X13015784Y-29452025D01*
X13069981Y-29475999D01*
X13108453Y-29534323D01*
X13109285Y-29604188D01*
X13077581Y-29658354D01*
X10348706Y-32387231D01*
X10287383Y-32420716D01*
X10261025Y-32423550D01*
X-774029Y-32423550D01*
X-779431Y-32423314D01*
X-786345Y-32422709D01*
X-818239Y-32419918D01*
X-855869Y-32430001D01*
X-861150Y-32431172D01*
X-899503Y-32437935D01*
X-909698Y-32441646D01*
X-910381Y-32439766D01*
X-964983Y-32453015D01*
X-1031011Y-32430165D01*
X-1057463Y-32404642D01*
X-1114418Y-32330417D01*
X-1182588Y-32278108D01*
X-1223790Y-32221680D01*
X-1231100Y-32179733D01*
X-1231100Y-10616524D01*
X-1211415Y-10549485D01*
X-1194781Y-10528843D01*
X-523270Y-9857333D01*
X-461947Y-9823848D01*
X-395301Y-9828614D01*
X-395171Y-9828185D01*
X-393279Y-9828758D01*
X-392255Y-9828832D01*
X-389622Y-9829868D01*
X-389346Y-9829951D01*
X-389342Y-9829954D01*
X-198485Y-9887850D01*
X0Y-9907399D01*
X198485Y-9887850D01*
X389342Y-9829954D01*
X402392Y-9822979D01*
X565231Y-9735939D01*
X565229Y-9735939D01*
X565237Y-9735936D01*
X719410Y-9609410D01*
X845936Y-9455237D01*
X936769Y-9285301D01*
X939951Y-9279348D01*
X939951Y-9279347D01*
X939954Y-9279342D01*
X997850Y-9088485D01*
X1017399Y-8890000D01*
X2792601Y-8890000D01*
X2812149Y-9088481D01*
X2870048Y-9279348D01*
X2964060Y-9455231D01*
X2964065Y-9455238D01*
X3090589Y-9609410D01*
X3197875Y-9697456D01*
X3244763Y-9735936D01*
X3244766Y-9735937D01*
X3244768Y-9735939D01*
X3420651Y-9829951D01*
X3420654Y-9829951D01*
X3420658Y-9829954D01*
X3611515Y-9887850D01*
X3810000Y-9907399D01*
X4008485Y-9887850D01*
X4199342Y-9829954D01*
X4212392Y-9822979D01*
X4375231Y-9735939D01*
X4375229Y-9735939D01*
X4375237Y-9735936D01*
X4529410Y-9609410D01*
X4655936Y-9455237D01*
X4746769Y-9285301D01*
X4749951Y-9279348D01*
X4749951Y-9279347D01*
X4749954Y-9279342D01*
X4807850Y-9088485D01*
X4827399Y-8890000D01*
X4807850Y-8691515D01*
X4749954Y-8500658D01*
X4749951Y-8500654D01*
X4749951Y-8500651D01*
X4655939Y-8324768D01*
X4655937Y-8324766D01*
X4655936Y-8324763D01*
X4617456Y-8277875D01*
X4529410Y-8170589D01*
X4375238Y-8044065D01*
X4375231Y-8044060D01*
X4199348Y-7950048D01*
X4199342Y-7950046D01*
X4008485Y-7892150D01*
X4008483Y-7892149D01*
X4008481Y-7892149D01*
X3810000Y-7872601D01*
X3611518Y-7892149D01*
X3420651Y-7950048D01*
X3244768Y-8044060D01*
X3244761Y-8044065D01*
X3090589Y-8170589D01*
X2964065Y-8324761D01*
X2964060Y-8324768D01*
X2870048Y-8500651D01*
X2812149Y-8691518D01*
X2792601Y-8890000D01*
X1017399Y-8890000D01*
X997850Y-8691515D01*
X939954Y-8500658D01*
X939951Y-8500654D01*
X939951Y-8500651D01*
X845939Y-8324768D01*
X845937Y-8324766D01*
X845936Y-8324763D01*
X807456Y-8277875D01*
X719410Y-8170589D01*
X565238Y-8044065D01*
X565231Y-8044060D01*
X389348Y-7950048D01*
X389342Y-7950046D01*
X198485Y-7892150D01*
X198483Y-7892149D01*
X198481Y-7892149D01*
X0Y-7872601D01*
X-198481Y-7892149D01*
X-198483Y-7892149D01*
X-198485Y-7892150D01*
X-389342Y-7950046D01*
X-389348Y-7950048D01*
X-565231Y-8044060D01*
X-565238Y-8044065D01*
X-719410Y-8170589D01*
X-807456Y-8277875D01*
X-845936Y-8324763D01*
X-845937Y-8324766D01*
X-845939Y-8324768D01*
X-939951Y-8500651D01*
X-939951Y-8500654D01*
X-939954Y-8500658D01*
X-997850Y-8691515D01*
X-1017399Y-8890000D01*
X-997850Y-9088485D01*
X-939954Y-9279342D01*
X-939952Y-9279345D01*
X-938185Y-9285171D01*
X-939650Y-9285615D01*
X-932983Y-9347597D01*
X-964253Y-9410079D01*
X-967333Y-9413270D01*
X-1638844Y-10084781D01*
X-1700167Y-10118266D01*
X-1726525Y-10121100D01*
X-2019975Y-10121100D01*
X-2087014Y-10101415D01*
X-2107656Y-10084781D01*
X-2779166Y-9413269D01*
X-2812651Y-9351946D01*
X-2807884Y-9285301D01*
X-2808315Y-9285171D01*
X-2807740Y-9283275D01*
X-2807667Y-9282254D01*
X-2806634Y-9279630D01*
X-2806547Y-9279344D01*
X-2806546Y-9279342D01*
X-2748650Y-9088485D01*
X-2748649Y-9088483D01*
X-2748649Y-9088481D01*
X-2729101Y-8890000D01*
X-2748649Y-8691518D01*
X-2806548Y-8500651D01*
X-2900560Y-8324768D01*
X-2900565Y-8324761D01*
X-3027089Y-8170589D01*
X-3181261Y-8044065D01*
X-3181268Y-8044060D01*
X-3357151Y-7950048D01*
X-3548018Y-7892149D01*
X-3746500Y-7872601D01*
X-3944981Y-7892149D01*
X-3944983Y-7892149D01*
X-3944985Y-7892150D01*
X-4135842Y-7950046D01*
X-4135848Y-7950048D01*
X-4311731Y-8044060D01*
X-4311738Y-8044065D01*
X-4465910Y-8170589D01*
X-4553956Y-8277875D01*
X-4592436Y-8324763D01*
X-4592437Y-8324766D01*
X-4592439Y-8324768D01*
X-4686451Y-8500651D01*
X-4686451Y-8500654D01*
X-4686454Y-8500658D01*
X-4744350Y-8691515D01*
X-4763899Y-8890000D01*
X-4744350Y-9088485D01*
X-4686454Y-9279342D01*
X-4686451Y-9279347D01*
X-4686451Y-9279348D01*
X-4683269Y-9285301D01*
X-4592436Y-9455237D01*
X-4465910Y-9609410D01*
X-4311737Y-9735936D01*
X-4311729Y-9735939D01*
X-4311731Y-9735939D01*
X-4148892Y-9822979D01*
X-4135842Y-9829954D01*
X-3944985Y-9887850D01*
X-3746500Y-9907399D01*
X-3548015Y-9887850D01*
X-3357158Y-9829954D01*
X-3357154Y-9829952D01*
X-3351329Y-9828185D01*
X-3350883Y-9829652D01*
X-3288915Y-9822979D01*
X-3226431Y-9854243D01*
X-3223257Y-9857304D01*
X-2435034Y-10645527D01*
X-2431404Y-10649488D01*
X-2406349Y-10679349D01*
X-2372611Y-10698826D01*
X-2368058Y-10701725D01*
X-2336149Y-10724070D01*
X-2336141Y-10724071D01*
X-2329870Y-10726997D01*
X-2316955Y-10732347D01*
X-2310455Y-10734713D01*
X-2310454Y-10734713D01*
X-2310451Y-10734715D01*
X-2272067Y-10741482D01*
X-2266823Y-10742646D01*
X-2229190Y-10752731D01*
X-2190386Y-10749335D01*
X-2184983Y-10749100D01*
X-1983100Y-10749100D01*
X-1916061Y-10768785D01*
X-1870306Y-10821589D01*
X-1859100Y-10873100D01*
X-1859100Y-32178529D01*
X-1878785Y-32245568D01*
X-1931589Y-32291323D01*
X-2000747Y-32301267D01*
X-2035628Y-32289195D01*
X-2035951Y-32289974D01*
X-2043462Y-32286863D01*
X-2113140Y-32258001D01*
X-2189537Y-32226356D01*
X-2189539Y-32226355D01*
X-2346299Y-32205718D01*
X-2346301Y-32205718D01*
X-2503060Y-32226355D01*
X-2503062Y-32226356D01*
X-2628002Y-32278108D01*
X-2649141Y-32286864D01*
X-2774582Y-32383118D01*
X-2870836Y-32508559D01*
X-2931344Y-32654638D01*
X-2931344Y-32654639D01*
X-2951982Y-32811398D01*
X-2951982Y-32811401D01*
X-2942251Y-32885315D01*
X-2953017Y-32954350D01*
X-2999397Y-33006606D01*
X-3065190Y-33025500D01*
X-8521283Y-33025500D01*
X-8526685Y-33025264D01*
X-8533827Y-33024639D01*
X-8565488Y-33021868D01*
X-8603115Y-33031951D01*
X-8608398Y-33033122D01*
X-8646753Y-33039885D01*
X-8653194Y-33042230D01*
X-8666235Y-33047631D01*
X-8672449Y-33050529D01*
X-8704349Y-33072866D01*
X-8708912Y-33075773D01*
X-8742646Y-33095249D01*
X-8742648Y-33095250D01*
X-8767688Y-33125091D01*
X-8771344Y-33129081D01*
X-9814843Y-34172580D01*
X-9876166Y-34206065D01*
X-9918709Y-34207838D01*
X-10000899Y-34197018D01*
X-10000901Y-34197018D01*
X-10157660Y-34217655D01*
X-10157662Y-34217656D01*
X-10309528Y-34280561D01*
X-10356981Y-34290000D01*
X-14487829Y-34290000D01*
X-14537704Y-34276634D01*
X-14538549Y-34278674D01*
X-14692134Y-34215057D01*
X-14692139Y-34215055D01*
X-14848899Y-34194418D01*
X-14848901Y-34194418D01*
X-15005660Y-34215055D01*
X-15005665Y-34215057D01*
X-15159251Y-34278674D01*
X-15160095Y-34276634D01*
X-15209971Y-34290000D01*
X-15428375Y-34290000D01*
X-15495414Y-34270315D01*
X-15503851Y-34264382D01*
X-15508959Y-34260464D01*
X-15508959Y-34260463D01*
X-15508962Y-34260462D01*
X-15508963Y-34260461D01*
X-15655034Y-34199957D01*
X-15655039Y-34199955D01*
X-15811799Y-34179318D01*
X-15811801Y-34179318D01*
X-15968560Y-34199955D01*
X-15968565Y-34199957D01*
X-16114636Y-34260461D01*
X-16114637Y-34260462D01*
X-16114641Y-34260464D01*
X-16119738Y-34264375D01*
X-16184906Y-34289570D01*
X-16195225Y-34290000D01*
X-18621500Y-34290000D01*
X-18688539Y-34270315D01*
X-18734294Y-34217511D01*
X-18745500Y-34166000D01*
X-18745500Y-32258000D01*
X-10003682Y-32258000D01*
X-9983044Y-32414762D01*
X-9922536Y-32560841D01*
X-9826282Y-32686282D01*
X-9700841Y-32782536D01*
X-9554762Y-32843044D01*
X-9450254Y-32856802D01*
X-9398001Y-32863682D01*
X-9398000Y-32863682D01*
X-9397999Y-32863682D01*
X-9319619Y-32853363D01*
X-9241238Y-32843044D01*
X-9095159Y-32782536D01*
X-8969718Y-32686282D01*
X-8873464Y-32560841D01*
X-8812956Y-32414762D01*
X-8812955Y-32414760D01*
X-8792318Y-32258001D01*
X-8792318Y-32257998D01*
X-8812955Y-32101239D01*
X-8812956Y-32101237D01*
X-8873463Y-31955160D01*
X-8969718Y-31829718D01*
X-9095160Y-31733463D01*
X-9241237Y-31672956D01*
X-9241239Y-31672955D01*
X-9397999Y-31652318D01*
X-9398001Y-31652318D01*
X-9554760Y-31672955D01*
X-9554762Y-31672956D01*
X-9700841Y-31733464D01*
X-9826282Y-31829718D01*
X-9922536Y-31955159D01*
X-9983044Y-32101238D01*
X-9983044Y-32101239D01*
X-10002045Y-32245568D01*
X-10003682Y-32258000D01*
X-18745500Y-32258000D01*
X-18745500Y-28194000D01*
X-9749682Y-28194000D01*
X-9729044Y-28350762D01*
X-9668536Y-28496841D01*
X-9572282Y-28622282D01*
X-9446841Y-28718536D01*
X-9300762Y-28779044D01*
X-9196253Y-28792802D01*
X-9144001Y-28799682D01*
X-9144000Y-28799682D01*
X-9143999Y-28799682D01*
X-9065619Y-28789363D01*
X-8987238Y-28779044D01*
X-8841159Y-28718536D01*
X-8715718Y-28622282D01*
X-8619464Y-28496841D01*
X-8558956Y-28350762D01*
X-8558955Y-28350760D01*
X-8538318Y-28194001D01*
X-8538318Y-28193998D01*
X-8558955Y-28037239D01*
X-8558956Y-28037237D01*
X-8619463Y-27891160D01*
X-8715718Y-27765718D01*
X-8841160Y-27669463D01*
X-8987237Y-27608956D01*
X-8987239Y-27608955D01*
X-9143999Y-27588318D01*
X-9144001Y-27588318D01*
X-9300760Y-27608955D01*
X-9300762Y-27608956D01*
X-9441445Y-27667229D01*
X-9446841Y-27669464D01*
X-9572282Y-27765718D01*
X-9668536Y-27891159D01*
X-9729044Y-28037238D01*
X-9729044Y-28037239D01*
X-9747926Y-28180665D01*
X-9749682Y-28194000D01*
X-18745500Y-28194000D01*
X-18745500Y-20320000D01*
X-16099682Y-20320000D01*
X-16079044Y-20476762D01*
X-16018536Y-20622841D01*
X-15922282Y-20748282D01*
X-15796841Y-20844536D01*
X-15650762Y-20905044D01*
X-15546253Y-20918802D01*
X-15494001Y-20925682D01*
X-15494000Y-20925682D01*
X-15493999Y-20925682D01*
X-15415619Y-20915363D01*
X-15337238Y-20905044D01*
X-15191159Y-20844536D01*
X-15065718Y-20748282D01*
X-14969464Y-20622841D01*
X-14908956Y-20476762D01*
X-14908955Y-20476760D01*
X-14888318Y-20320001D01*
X-14888318Y-20319998D01*
X-14908955Y-20163239D01*
X-14908956Y-20163237D01*
X-14969463Y-20017160D01*
X-15065718Y-19891718D01*
X-15191160Y-19795463D01*
X-15337237Y-19734956D01*
X-15337239Y-19734955D01*
X-15493999Y-19714318D01*
X-15494001Y-19714318D01*
X-15650760Y-19734955D01*
X-15650762Y-19734956D01*
X-15796841Y-19795464D01*
X-15922282Y-19891718D01*
X-16018536Y-20017159D01*
X-16079044Y-20163238D01*
X-16099682Y-20320000D01*
X-18745500Y-20320000D01*
X-18745500Y-16002000D01*
X-10003682Y-16002000D01*
X-9983044Y-16158762D01*
X-9922536Y-16304841D01*
X-9826282Y-16430282D01*
X-9700841Y-16526536D01*
X-9554762Y-16587044D01*
X-9450254Y-16600802D01*
X-9398001Y-16607682D01*
X-9398000Y-16607682D01*
X-9397999Y-16607682D01*
X-9319619Y-16597363D01*
X-9241238Y-16587044D01*
X-9095159Y-16526536D01*
X-8969718Y-16430282D01*
X-8873464Y-16304841D01*
X-8812956Y-16158762D01*
X-8812955Y-16158760D01*
X-8792318Y-16002001D01*
X-8792318Y-16001998D01*
X-8812955Y-15845239D01*
X-8812956Y-15845237D01*
X-8873463Y-15699160D01*
X-8969718Y-15573718D01*
X-9095160Y-15477463D01*
X-9241237Y-15416956D01*
X-9241239Y-15416955D01*
X-9397999Y-15396318D01*
X-9398001Y-15396318D01*
X-9554760Y-15416955D01*
X-9554762Y-15416956D01*
X-9700841Y-15477464D01*
X-9826282Y-15573718D01*
X-9922536Y-15699159D01*
X-9983044Y-15845238D01*
X-10003682Y-16002000D01*
X-18745500Y-16002000D01*
X-18745500Y-13462000D01*
X-16861682Y-13462000D01*
X-16841044Y-13618762D01*
X-16780536Y-13764841D01*
X-16684282Y-13890282D01*
X-16558841Y-13986536D01*
X-16412762Y-14047044D01*
X-16308253Y-14060802D01*
X-16256001Y-14067682D01*
X-16256000Y-14067682D01*
X-16255999Y-14067682D01*
X-16177619Y-14057363D01*
X-16099238Y-14047044D01*
X-15953159Y-13986536D01*
X-15827718Y-13890282D01*
X-15731464Y-13764841D01*
X-15670956Y-13618762D01*
X-15670955Y-13618760D01*
X-15650318Y-13462001D01*
X-15650318Y-13461998D01*
X-15670955Y-13305239D01*
X-15670956Y-13305237D01*
X-15731463Y-13159160D01*
X-15827718Y-13033718D01*
X-15953160Y-12937463D01*
X-16099237Y-12876956D01*
X-16099239Y-12876955D01*
X-16255999Y-12856318D01*
X-16256001Y-12856318D01*
X-16412760Y-12876955D01*
X-16412762Y-12876956D01*
X-16558841Y-12937464D01*
X-16684282Y-13033718D01*
X-16780536Y-13159159D01*
X-16841044Y-13305238D01*
X-16861682Y-13462000D01*
X-18745500Y-13462000D01*
X-18745500Y-4000000D01*
X-10859237Y-4000000D01*
X-10840313Y-4264597D01*
X-10783925Y-4523808D01*
X-10691221Y-4772355D01*
X-10564090Y-5005179D01*
X-10405118Y-5217541D01*
X-10217541Y-5405118D01*
X-10005179Y-5564090D01*
X-9772360Y-5691218D01*
X-9772359Y-5691218D01*
X-9772355Y-5691221D01*
X-9523808Y-5783925D01*
X-9264597Y-5840313D01*
X-9026508Y-5857341D01*
X-9000001Y-5859237D01*
X-9000000Y-5859237D01*
X-8999999Y-5859237D01*
X-8970540Y-5857130D01*
X-8735403Y-5840313D01*
X-8735399Y-5840312D01*
X-8735397Y-5840312D01*
X-8476200Y-5783927D01*
X-8476198Y-5783926D01*
X-8476192Y-5783925D01*
X-8227645Y-5691221D01*
X-8227642Y-5691219D01*
X-8227638Y-5691218D01*
X-7994826Y-5564093D01*
X-7994818Y-5564088D01*
X-7782466Y-5405124D01*
X-7782448Y-5405108D01*
X-7594891Y-5217551D01*
X-7594875Y-5217533D01*
X-7435911Y-5005181D01*
X-7435906Y-5005173D01*
X-7308781Y-4772361D01*
X-7216072Y-4523799D01*
X-7159687Y-4264602D01*
X-7140763Y-4000001D01*
X7140763Y-4000001D01*
X7159687Y-4264602D01*
X7216072Y-4523799D01*
X7308781Y-4772361D01*
X7435906Y-5005173D01*
X7435911Y-5005181D01*
X7594875Y-5217533D01*
X7594891Y-5217551D01*
X7782448Y-5405108D01*
X7782466Y-5405124D01*
X7994818Y-5564088D01*
X7994826Y-5564093D01*
X8227639Y-5691218D01*
X8227638Y-5691218D01*
X8227642Y-5691219D01*
X8227645Y-5691221D01*
X8476192Y-5783925D01*
X8476198Y-5783926D01*
X8476200Y-5783927D01*
X8735397Y-5840312D01*
X8735399Y-5840312D01*
X8735403Y-5840313D01*
X8970540Y-5857130D01*
X8999999Y-5859237D01*
X9000000Y-5859237D01*
X9000001Y-5859237D01*
X9026508Y-5857341D01*
X9264597Y-5840313D01*
X9523808Y-5783925D01*
X9772355Y-5691221D01*
X9772359Y-5691218D01*
X9772361Y-5691218D01*
X9888766Y-5627655D01*
X10005179Y-5564090D01*
X10217541Y-5405118D01*
X10405118Y-5217541D01*
X10564090Y-5005179D01*
X10691221Y-4772355D01*
X10783925Y-4523808D01*
X10840313Y-4264597D01*
X10859237Y-4000000D01*
X10840313Y-3735403D01*
X10783925Y-3476192D01*
X10691221Y-3227645D01*
X10691219Y-3227642D01*
X10691218Y-3227638D01*
X10564093Y-2994826D01*
X10564088Y-2994818D01*
X10405124Y-2782466D01*
X10405108Y-2782448D01*
X10217551Y-2594891D01*
X10217533Y-2594875D01*
X10005181Y-2435911D01*
X10005173Y-2435906D01*
X9772360Y-2308781D01*
X9772361Y-2308781D01*
X9672936Y-2271697D01*
X9523808Y-2216075D01*
X9523805Y-2216074D01*
X9523799Y-2216072D01*
X9264602Y-2159687D01*
X9000001Y-2140763D01*
X8999999Y-2140763D01*
X8735397Y-2159687D01*
X8476200Y-2216072D01*
X8227638Y-2308781D01*
X7994826Y-2435906D01*
X7994818Y-2435911D01*
X7782466Y-2594875D01*
X7782448Y-2594891D01*
X7594891Y-2782448D01*
X7594875Y-2782466D01*
X7435911Y-2994818D01*
X7435906Y-2994826D01*
X7308781Y-3227638D01*
X7216072Y-3476200D01*
X7159687Y-3735397D01*
X7140763Y-3999998D01*
X7140763Y-4000001D01*
X-7140763Y-4000001D01*
X-7140763Y-3999998D01*
X-7159687Y-3735397D01*
X-7216072Y-3476200D01*
X-7308781Y-3227638D01*
X-7435906Y-2994826D01*
X-7435911Y-2994818D01*
X-7594875Y-2782466D01*
X-7594891Y-2782448D01*
X-7782448Y-2594891D01*
X-7782466Y-2594875D01*
X-7994818Y-2435911D01*
X-7994826Y-2435906D01*
X-8227639Y-2308781D01*
X-8227638Y-2308781D01*
X-8476200Y-2216072D01*
X-8735397Y-2159687D01*
X-8999999Y-2140763D01*
X-9000001Y-2140763D01*
X-9264602Y-2159687D01*
X-9523799Y-2216072D01*
X-9523805Y-2216074D01*
X-9523808Y-2216075D01*
X-9672936Y-2271697D01*
X-9772361Y-2308781D01*
X-10005173Y-2435906D01*
X-10005181Y-2435911D01*
X-10217533Y-2594875D01*
X-10217551Y-2594891D01*
X-10405108Y-2782448D01*
X-10405124Y-2782466D01*
X-10564088Y-2994818D01*
X-10564093Y-2994826D01*
X-10691218Y-3227638D01*
X-10691219Y-3227642D01*
X-10691221Y-3227645D01*
X-10783925Y-3476192D01*
X-10840313Y-3735403D01*
X-10859237Y-4000000D01*
X-18745500Y-4000000D01*
X-18745500Y-378500D01*
X-18725815Y-311461D01*
X-18673011Y-265706D01*
X-18621500Y-254500D01*
X-7490500Y-254500D01*
X-7423461Y-274185D01*
G37*
%TD.AperFunction*%
%TD*%
M02*
