M48
; DRILL file {KiCad 7.0.5} date Fri Jun 16 17:13:36 2023
; FORMAT={-:-/ absolute / metric / decimal}
; #@! TF.CreationDate,2023-06-16T17:13:36-04:00
; #@! TF.GenerationSoftware,Kicad,Pcbnew,7.0.5
; #@! TF.FileFunction,Plated,1,4,PTH
FMAT,2
METRIC
; #@! TA.AperFunction,Plated,PTH,ViaDrill
T1C0.203
; #@! TA.AperFunction,Plated,PTH,ComponentDrill
T2C0.220
; #@! TA.AperFunction,Plated,PTH,ComponentDrill
T3C0.220
; #@! TA.AperFunction,Plated,PTH,ComponentDrill
T4C0.500
; #@! TA.AperFunction,Plated,PTH,ComponentDrill
T5C0.762
%
G90
G05
T1
X-16.256Y-13.462
X-15.812Y-34.785
X-15.494Y-20.32
X-14.849Y-34.8
X-13.97Y-55.372
X-11.43Y-5.588
X-11.43Y-47.752
X-11.43Y-50.292
X-11.43Y-57.912
X-11.405Y-35.635
X-10.812Y-35.077
X-10.16Y-10.16
X-10.16Y-11.938
X-10.001Y-34.803
X-9.398Y-16.002
X-9.398Y-32.258
X-9.144Y-28.194
X-8.89Y-52.832
X-8.419Y-34.802
X-8.128Y-47.498
X-6.858Y-47.752
X-6.624Y-38.069
X-6.35Y-57.912
X-5.588Y-20.828
X-5.405Y-38.07
X-4.37Y-34.222
X-3.905Y-38.059
X-3.81Y-47.752
X-2.346Y-32.811
X-2.286Y-34.798
X-1.543Y-32.759
X-1.27Y-40.132
X-0.987Y-34.017
X-0.911Y-35.639
X1.27Y-42.672
X1.27Y-50.292
X1.502Y-36.393
X1.705Y-46.1
X3.099Y-37.619
X3.81Y-55.372
X5.08Y-33.782
X6.223Y-45.182
X6.35Y-25.654
X6.35Y-55.372
X6.35Y-57.912
X6.875Y-46.759
X6.997Y-48.928
X7.585Y-48.379
X7.874Y-28.448
X8.007Y-44.691
X8.86Y-37.23
X8.89Y-52.832
X8.89Y-57.912
X9.279Y-48.66
X9.292Y-47.184
X11.176Y-23.876
X11.43Y-42.672
X11.43Y-55.372
X11.43Y-57.912
X12.078Y-38.106
X13.165Y-28.863
X13.208Y-36.322
X13.276Y-28.024
X13.673Y-31.283
X13.766Y-41.653
X13.97Y-14.732
X13.97Y-52.832
X13.97Y-55.372
X14.511Y-37.576
X14.656Y-29.511
X15.323Y-37.587
X16.169Y-41.55
X16.256Y-32.512
X16.375Y-40.732
X17.272Y-38.608
X18.228Y-28.237
T2
X4.827Y-46.89
X6.35Y-37.55
X6.35Y-38.65
T3
X4.827Y-45.79
T5
X-10.16Y-57.785
X-7.62Y-57.785
X-5.08Y-57.785
X-3.746Y-8.89
X-2.54Y-57.785
X0.0Y-8.89
X2.54Y-57.785
X3.81Y-8.89
X5.08Y-57.785
X7.62Y-57.785
X10.16Y-57.785
T4
G00X10.006Y-52.218
M15
G01X10.606Y-52.218
M16
G05
G00X15.956Y-43.598
M15
G01X16.556Y-43.598
M16
G05
G00X15.956Y-52.578
M15
G01X16.556Y-52.578
M16
G05
T0
M30
