%TF.GenerationSoftware,KiCad,Pcbnew,7.0.5*%
%TF.CreationDate,2023-06-16T17:12:54-04:00*%
%TF.ProjectId,ESP32Sensor-Sensor_board,45535033-3253-4656-9e73-6f722d53656e,rev?*%
%TF.SameCoordinates,Original*%
%TF.FileFunction,Legend,Bot*%
%TF.FilePolarity,Positive*%
%FSLAX46Y46*%
G04 Gerber Fmt 4.6, Leading zero omitted, Abs format (unit mm)*
G04 Created by KiCad (PCBNEW 7.0.5) date 2023-06-16 17:12:54*
%MOMM*%
%LPD*%
G01*
G04 APERTURE LIST*
%ADD10C,0.150000*%
%ADD11C,0.508000*%
%ADD12C,0.127000*%
%ADD13C,0.200000*%
%ADD14C,0.120000*%
%ADD15C,0.152400*%
G04 APERTURE END LIST*
D10*
%TO.C,FB1*%
X-10228990Y-19740666D02*
X-10228990Y-19407333D01*
X-9705180Y-19407333D02*
X-10705180Y-19407333D01*
X-10705180Y-19407333D02*
X-10705180Y-19883523D01*
X-10228990Y-20597809D02*
X-10181371Y-20740666D01*
X-10181371Y-20740666D02*
X-10133752Y-20788285D01*
X-10133752Y-20788285D02*
X-10038514Y-20835904D01*
X-10038514Y-20835904D02*
X-9895657Y-20835904D01*
X-9895657Y-20835904D02*
X-9800419Y-20788285D01*
X-9800419Y-20788285D02*
X-9752800Y-20740666D01*
X-9752800Y-20740666D02*
X-9705180Y-20645428D01*
X-9705180Y-20645428D02*
X-9705180Y-20264476D01*
X-9705180Y-20264476D02*
X-10705180Y-20264476D01*
X-10705180Y-20264476D02*
X-10705180Y-20597809D01*
X-10705180Y-20597809D02*
X-10657561Y-20693047D01*
X-10657561Y-20693047D02*
X-10609942Y-20740666D01*
X-10609942Y-20740666D02*
X-10514704Y-20788285D01*
X-10514704Y-20788285D02*
X-10419466Y-20788285D01*
X-10419466Y-20788285D02*
X-10324228Y-20740666D01*
X-10324228Y-20740666D02*
X-10276609Y-20693047D01*
X-10276609Y-20693047D02*
X-10228990Y-20597809D01*
X-10228990Y-20597809D02*
X-10228990Y-20264476D01*
X-9705180Y-21788285D02*
X-9705180Y-21216857D01*
X-9705180Y-21502571D02*
X-10705180Y-21502571D01*
X-10705180Y-21502571D02*
X-10562323Y-21407333D01*
X-10562323Y-21407333D02*
X-10467085Y-21312095D01*
X-10467085Y-21312095D02*
X-10419466Y-21216857D01*
%TO.C,S3*%
X12853200Y-5842095D02*
X12900819Y-5984952D01*
X12900819Y-5984952D02*
X12900819Y-6223047D01*
X12900819Y-6223047D02*
X12853200Y-6318285D01*
X12853200Y-6318285D02*
X12805580Y-6365904D01*
X12805580Y-6365904D02*
X12710342Y-6413523D01*
X12710342Y-6413523D02*
X12615104Y-6413523D01*
X12615104Y-6413523D02*
X12519866Y-6365904D01*
X12519866Y-6365904D02*
X12472247Y-6318285D01*
X12472247Y-6318285D02*
X12424628Y-6223047D01*
X12424628Y-6223047D02*
X12377009Y-6032571D01*
X12377009Y-6032571D02*
X12329390Y-5937333D01*
X12329390Y-5937333D02*
X12281771Y-5889714D01*
X12281771Y-5889714D02*
X12186533Y-5842095D01*
X12186533Y-5842095D02*
X12091295Y-5842095D01*
X12091295Y-5842095D02*
X11996057Y-5889714D01*
X11996057Y-5889714D02*
X11948438Y-5937333D01*
X11948438Y-5937333D02*
X11900819Y-6032571D01*
X11900819Y-6032571D02*
X11900819Y-6270666D01*
X11900819Y-6270666D02*
X11948438Y-6413523D01*
X11900819Y-6746857D02*
X11900819Y-7365904D01*
X11900819Y-7365904D02*
X12281771Y-7032571D01*
X12281771Y-7032571D02*
X12281771Y-7175428D01*
X12281771Y-7175428D02*
X12329390Y-7270666D01*
X12329390Y-7270666D02*
X12377009Y-7318285D01*
X12377009Y-7318285D02*
X12472247Y-7365904D01*
X12472247Y-7365904D02*
X12710342Y-7365904D01*
X12710342Y-7365904D02*
X12805580Y-7318285D01*
X12805580Y-7318285D02*
X12853200Y-7270666D01*
X12853200Y-7270666D02*
X12900819Y-7175428D01*
X12900819Y-7175428D02*
X12900819Y-6889714D01*
X12900819Y-6889714D02*
X12853200Y-6794476D01*
X12853200Y-6794476D02*
X12805580Y-6746857D01*
%TO.C,R10*%
X13662819Y-29837142D02*
X13186628Y-29503809D01*
X13662819Y-29265714D02*
X12662819Y-29265714D01*
X12662819Y-29265714D02*
X12662819Y-29646666D01*
X12662819Y-29646666D02*
X12710438Y-29741904D01*
X12710438Y-29741904D02*
X12758057Y-29789523D01*
X12758057Y-29789523D02*
X12853295Y-29837142D01*
X12853295Y-29837142D02*
X12996152Y-29837142D01*
X12996152Y-29837142D02*
X13091390Y-29789523D01*
X13091390Y-29789523D02*
X13139009Y-29741904D01*
X13139009Y-29741904D02*
X13186628Y-29646666D01*
X13186628Y-29646666D02*
X13186628Y-29265714D01*
X13662819Y-30789523D02*
X13662819Y-30218095D01*
X13662819Y-30503809D02*
X12662819Y-30503809D01*
X12662819Y-30503809D02*
X12805676Y-30408571D01*
X12805676Y-30408571D02*
X12900914Y-30313333D01*
X12900914Y-30313333D02*
X12948533Y-30218095D01*
X12662819Y-31408571D02*
X12662819Y-31503809D01*
X12662819Y-31503809D02*
X12710438Y-31599047D01*
X12710438Y-31599047D02*
X12758057Y-31646666D01*
X12758057Y-31646666D02*
X12853295Y-31694285D01*
X12853295Y-31694285D02*
X13043771Y-31741904D01*
X13043771Y-31741904D02*
X13281866Y-31741904D01*
X13281866Y-31741904D02*
X13472342Y-31694285D01*
X13472342Y-31694285D02*
X13567580Y-31646666D01*
X13567580Y-31646666D02*
X13615200Y-31599047D01*
X13615200Y-31599047D02*
X13662819Y-31503809D01*
X13662819Y-31503809D02*
X13662819Y-31408571D01*
X13662819Y-31408571D02*
X13615200Y-31313333D01*
X13615200Y-31313333D02*
X13567580Y-31265714D01*
X13567580Y-31265714D02*
X13472342Y-31218095D01*
X13472342Y-31218095D02*
X13281866Y-31170476D01*
X13281866Y-31170476D02*
X13043771Y-31170476D01*
X13043771Y-31170476D02*
X12853295Y-31218095D01*
X12853295Y-31218095D02*
X12758057Y-31265714D01*
X12758057Y-31265714D02*
X12710438Y-31313333D01*
X12710438Y-31313333D02*
X12662819Y-31408571D01*
%TO.C,R8*%
X5754666Y-10106819D02*
X6087999Y-9630628D01*
X6326094Y-10106819D02*
X6326094Y-9106819D01*
X6326094Y-9106819D02*
X5945142Y-9106819D01*
X5945142Y-9106819D02*
X5849904Y-9154438D01*
X5849904Y-9154438D02*
X5802285Y-9202057D01*
X5802285Y-9202057D02*
X5754666Y-9297295D01*
X5754666Y-9297295D02*
X5754666Y-9440152D01*
X5754666Y-9440152D02*
X5802285Y-9535390D01*
X5802285Y-9535390D02*
X5849904Y-9583009D01*
X5849904Y-9583009D02*
X5945142Y-9630628D01*
X5945142Y-9630628D02*
X6326094Y-9630628D01*
X5183237Y-9535390D02*
X5278475Y-9487771D01*
X5278475Y-9487771D02*
X5326094Y-9440152D01*
X5326094Y-9440152D02*
X5373713Y-9344914D01*
X5373713Y-9344914D02*
X5373713Y-9297295D01*
X5373713Y-9297295D02*
X5326094Y-9202057D01*
X5326094Y-9202057D02*
X5278475Y-9154438D01*
X5278475Y-9154438D02*
X5183237Y-9106819D01*
X5183237Y-9106819D02*
X4992761Y-9106819D01*
X4992761Y-9106819D02*
X4897523Y-9154438D01*
X4897523Y-9154438D02*
X4849904Y-9202057D01*
X4849904Y-9202057D02*
X4802285Y-9297295D01*
X4802285Y-9297295D02*
X4802285Y-9344914D01*
X4802285Y-9344914D02*
X4849904Y-9440152D01*
X4849904Y-9440152D02*
X4897523Y-9487771D01*
X4897523Y-9487771D02*
X4992761Y-9535390D01*
X4992761Y-9535390D02*
X5183237Y-9535390D01*
X5183237Y-9535390D02*
X5278475Y-9583009D01*
X5278475Y-9583009D02*
X5326094Y-9630628D01*
X5326094Y-9630628D02*
X5373713Y-9725866D01*
X5373713Y-9725866D02*
X5373713Y-9916342D01*
X5373713Y-9916342D02*
X5326094Y-10011580D01*
X5326094Y-10011580D02*
X5278475Y-10059200D01*
X5278475Y-10059200D02*
X5183237Y-10106819D01*
X5183237Y-10106819D02*
X4992761Y-10106819D01*
X4992761Y-10106819D02*
X4897523Y-10059200D01*
X4897523Y-10059200D02*
X4849904Y-10011580D01*
X4849904Y-10011580D02*
X4802285Y-9916342D01*
X4802285Y-9916342D02*
X4802285Y-9725866D01*
X4802285Y-9725866D02*
X4849904Y-9630628D01*
X4849904Y-9630628D02*
X4897523Y-9583009D01*
X4897523Y-9583009D02*
X4992761Y-9535390D01*
%TO.C,FB3*%
X-5770666Y-9583009D02*
X-5437333Y-9583009D01*
X-5437333Y-10106819D02*
X-5437333Y-9106819D01*
X-5437333Y-9106819D02*
X-5913523Y-9106819D01*
X-6627809Y-9583009D02*
X-6770666Y-9630628D01*
X-6770666Y-9630628D02*
X-6818285Y-9678247D01*
X-6818285Y-9678247D02*
X-6865904Y-9773485D01*
X-6865904Y-9773485D02*
X-6865904Y-9916342D01*
X-6865904Y-9916342D02*
X-6818285Y-10011580D01*
X-6818285Y-10011580D02*
X-6770666Y-10059200D01*
X-6770666Y-10059200D02*
X-6675428Y-10106819D01*
X-6675428Y-10106819D02*
X-6294476Y-10106819D01*
X-6294476Y-10106819D02*
X-6294476Y-9106819D01*
X-6294476Y-9106819D02*
X-6627809Y-9106819D01*
X-6627809Y-9106819D02*
X-6723047Y-9154438D01*
X-6723047Y-9154438D02*
X-6770666Y-9202057D01*
X-6770666Y-9202057D02*
X-6818285Y-9297295D01*
X-6818285Y-9297295D02*
X-6818285Y-9392533D01*
X-6818285Y-9392533D02*
X-6770666Y-9487771D01*
X-6770666Y-9487771D02*
X-6723047Y-9535390D01*
X-6723047Y-9535390D02*
X-6627809Y-9583009D01*
X-6627809Y-9583009D02*
X-6294476Y-9583009D01*
X-7199238Y-9106819D02*
X-7818285Y-9106819D01*
X-7818285Y-9106819D02*
X-7484952Y-9487771D01*
X-7484952Y-9487771D02*
X-7627809Y-9487771D01*
X-7627809Y-9487771D02*
X-7723047Y-9535390D01*
X-7723047Y-9535390D02*
X-7770666Y-9583009D01*
X-7770666Y-9583009D02*
X-7818285Y-9678247D01*
X-7818285Y-9678247D02*
X-7818285Y-9916342D01*
X-7818285Y-9916342D02*
X-7770666Y-10011580D01*
X-7770666Y-10011580D02*
X-7723047Y-10059200D01*
X-7723047Y-10059200D02*
X-7627809Y-10106819D01*
X-7627809Y-10106819D02*
X-7342095Y-10106819D01*
X-7342095Y-10106819D02*
X-7246857Y-10059200D01*
X-7246857Y-10059200D02*
X-7199238Y-10011580D01*
%TO.C,C8*%
X11103780Y-33869333D02*
X11151400Y-33821714D01*
X11151400Y-33821714D02*
X11199019Y-33678857D01*
X11199019Y-33678857D02*
X11199019Y-33583619D01*
X11199019Y-33583619D02*
X11151400Y-33440762D01*
X11151400Y-33440762D02*
X11056161Y-33345524D01*
X11056161Y-33345524D02*
X10960923Y-33297905D01*
X10960923Y-33297905D02*
X10770447Y-33250286D01*
X10770447Y-33250286D02*
X10627590Y-33250286D01*
X10627590Y-33250286D02*
X10437114Y-33297905D01*
X10437114Y-33297905D02*
X10341876Y-33345524D01*
X10341876Y-33345524D02*
X10246638Y-33440762D01*
X10246638Y-33440762D02*
X10199019Y-33583619D01*
X10199019Y-33583619D02*
X10199019Y-33678857D01*
X10199019Y-33678857D02*
X10246638Y-33821714D01*
X10246638Y-33821714D02*
X10294257Y-33869333D01*
X10627590Y-34440762D02*
X10579971Y-34345524D01*
X10579971Y-34345524D02*
X10532352Y-34297905D01*
X10532352Y-34297905D02*
X10437114Y-34250286D01*
X10437114Y-34250286D02*
X10389495Y-34250286D01*
X10389495Y-34250286D02*
X10294257Y-34297905D01*
X10294257Y-34297905D02*
X10246638Y-34345524D01*
X10246638Y-34345524D02*
X10199019Y-34440762D01*
X10199019Y-34440762D02*
X10199019Y-34631238D01*
X10199019Y-34631238D02*
X10246638Y-34726476D01*
X10246638Y-34726476D02*
X10294257Y-34774095D01*
X10294257Y-34774095D02*
X10389495Y-34821714D01*
X10389495Y-34821714D02*
X10437114Y-34821714D01*
X10437114Y-34821714D02*
X10532352Y-34774095D01*
X10532352Y-34774095D02*
X10579971Y-34726476D01*
X10579971Y-34726476D02*
X10627590Y-34631238D01*
X10627590Y-34631238D02*
X10627590Y-34440762D01*
X10627590Y-34440762D02*
X10675209Y-34345524D01*
X10675209Y-34345524D02*
X10722828Y-34297905D01*
X10722828Y-34297905D02*
X10818066Y-34250286D01*
X10818066Y-34250286D02*
X11008542Y-34250286D01*
X11008542Y-34250286D02*
X11103780Y-34297905D01*
X11103780Y-34297905D02*
X11151400Y-34345524D01*
X11151400Y-34345524D02*
X11199019Y-34440762D01*
X11199019Y-34440762D02*
X11199019Y-34631238D01*
X11199019Y-34631238D02*
X11151400Y-34726476D01*
X11151400Y-34726476D02*
X11103780Y-34774095D01*
X11103780Y-34774095D02*
X11008542Y-34821714D01*
X11008542Y-34821714D02*
X10818066Y-34821714D01*
X10818066Y-34821714D02*
X10722828Y-34774095D01*
X10722828Y-34774095D02*
X10675209Y-34726476D01*
X10675209Y-34726476D02*
X10627590Y-34631238D01*
%TO.C,CR1*%
X11535580Y-7207333D02*
X11583200Y-7159714D01*
X11583200Y-7159714D02*
X11630819Y-7016857D01*
X11630819Y-7016857D02*
X11630819Y-6921619D01*
X11630819Y-6921619D02*
X11583200Y-6778762D01*
X11583200Y-6778762D02*
X11487961Y-6683524D01*
X11487961Y-6683524D02*
X11392723Y-6635905D01*
X11392723Y-6635905D02*
X11202247Y-6588286D01*
X11202247Y-6588286D02*
X11059390Y-6588286D01*
X11059390Y-6588286D02*
X10868914Y-6635905D01*
X10868914Y-6635905D02*
X10773676Y-6683524D01*
X10773676Y-6683524D02*
X10678438Y-6778762D01*
X10678438Y-6778762D02*
X10630819Y-6921619D01*
X10630819Y-6921619D02*
X10630819Y-7016857D01*
X10630819Y-7016857D02*
X10678438Y-7159714D01*
X10678438Y-7159714D02*
X10726057Y-7207333D01*
X11630819Y-8207333D02*
X11154628Y-7874000D01*
X11630819Y-7635905D02*
X10630819Y-7635905D01*
X10630819Y-7635905D02*
X10630819Y-8016857D01*
X10630819Y-8016857D02*
X10678438Y-8112095D01*
X10678438Y-8112095D02*
X10726057Y-8159714D01*
X10726057Y-8159714D02*
X10821295Y-8207333D01*
X10821295Y-8207333D02*
X10964152Y-8207333D01*
X10964152Y-8207333D02*
X11059390Y-8159714D01*
X11059390Y-8159714D02*
X11107009Y-8112095D01*
X11107009Y-8112095D02*
X11154628Y-8016857D01*
X11154628Y-8016857D02*
X11154628Y-7635905D01*
X11630819Y-9159714D02*
X11630819Y-8588286D01*
X11630819Y-8874000D02*
X10630819Y-8874000D01*
X10630819Y-8874000D02*
X10773676Y-8778762D01*
X10773676Y-8778762D02*
X10868914Y-8683524D01*
X10868914Y-8683524D02*
X10916533Y-8588286D01*
X9106819Y-8514400D02*
X9344914Y-8514400D01*
X9249676Y-8276305D02*
X9344914Y-8514400D01*
X9344914Y-8514400D02*
X9249676Y-8752495D01*
X9535390Y-8371543D02*
X9344914Y-8514400D01*
X9344914Y-8514400D02*
X9535390Y-8657257D01*
X9106819Y-8514400D02*
X9344914Y-8514400D01*
X9249676Y-8276305D02*
X9344914Y-8514400D01*
X9344914Y-8514400D02*
X9249676Y-8752495D01*
X9535390Y-8371543D02*
X9344914Y-8514400D01*
X9344914Y-8514400D02*
X9535390Y-8657257D01*
%TO.C,S2*%
X-12292800Y-6096095D02*
X-12245180Y-6238952D01*
X-12245180Y-6238952D02*
X-12245180Y-6477047D01*
X-12245180Y-6477047D02*
X-12292800Y-6572285D01*
X-12292800Y-6572285D02*
X-12340419Y-6619904D01*
X-12340419Y-6619904D02*
X-12435657Y-6667523D01*
X-12435657Y-6667523D02*
X-12530895Y-6667523D01*
X-12530895Y-6667523D02*
X-12626133Y-6619904D01*
X-12626133Y-6619904D02*
X-12673752Y-6572285D01*
X-12673752Y-6572285D02*
X-12721371Y-6477047D01*
X-12721371Y-6477047D02*
X-12768990Y-6286571D01*
X-12768990Y-6286571D02*
X-12816609Y-6191333D01*
X-12816609Y-6191333D02*
X-12864228Y-6143714D01*
X-12864228Y-6143714D02*
X-12959466Y-6096095D01*
X-12959466Y-6096095D02*
X-13054704Y-6096095D01*
X-13054704Y-6096095D02*
X-13149942Y-6143714D01*
X-13149942Y-6143714D02*
X-13197561Y-6191333D01*
X-13197561Y-6191333D02*
X-13245180Y-6286571D01*
X-13245180Y-6286571D02*
X-13245180Y-6524666D01*
X-13245180Y-6524666D02*
X-13197561Y-6667523D01*
X-13149942Y-7048476D02*
X-13197561Y-7096095D01*
X-13197561Y-7096095D02*
X-13245180Y-7191333D01*
X-13245180Y-7191333D02*
X-13245180Y-7429428D01*
X-13245180Y-7429428D02*
X-13197561Y-7524666D01*
X-13197561Y-7524666D02*
X-13149942Y-7572285D01*
X-13149942Y-7572285D02*
X-13054704Y-7619904D01*
X-13054704Y-7619904D02*
X-12959466Y-7619904D01*
X-12959466Y-7619904D02*
X-12816609Y-7572285D01*
X-12816609Y-7572285D02*
X-12245180Y-7000857D01*
X-12245180Y-7000857D02*
X-12245180Y-7619904D01*
%TO.C,U7*%
X-6133180Y-15240095D02*
X-5323657Y-15240095D01*
X-5323657Y-15240095D02*
X-5228419Y-15287714D01*
X-5228419Y-15287714D02*
X-5180800Y-15335333D01*
X-5180800Y-15335333D02*
X-5133180Y-15430571D01*
X-5133180Y-15430571D02*
X-5133180Y-15621047D01*
X-5133180Y-15621047D02*
X-5180800Y-15716285D01*
X-5180800Y-15716285D02*
X-5228419Y-15763904D01*
X-5228419Y-15763904D02*
X-5323657Y-15811523D01*
X-5323657Y-15811523D02*
X-6133180Y-15811523D01*
X-6133180Y-16192476D02*
X-6133180Y-16859142D01*
X-6133180Y-16859142D02*
X-5133180Y-16430571D01*
X-6437980Y-12776200D02*
X-6199885Y-12776200D01*
X-6295123Y-12538105D02*
X-6199885Y-12776200D01*
X-6199885Y-12776200D02*
X-6295123Y-13014295D01*
X-6009409Y-12633343D02*
X-6199885Y-12776200D01*
X-6199885Y-12776200D02*
X-6009409Y-12919057D01*
X-6437980Y-12776200D02*
X-6199885Y-12776200D01*
X-6295123Y-12538105D02*
X-6199885Y-12776200D01*
X-6199885Y-12776200D02*
X-6295123Y-13014295D01*
X-6009409Y-12633343D02*
X-6199885Y-12776200D01*
X-6199885Y-12776200D02*
X-6009409Y-12919057D01*
%TO.C,R11*%
X11376819Y-14343142D02*
X10900628Y-14009809D01*
X11376819Y-13771714D02*
X10376819Y-13771714D01*
X10376819Y-13771714D02*
X10376819Y-14152666D01*
X10376819Y-14152666D02*
X10424438Y-14247904D01*
X10424438Y-14247904D02*
X10472057Y-14295523D01*
X10472057Y-14295523D02*
X10567295Y-14343142D01*
X10567295Y-14343142D02*
X10710152Y-14343142D01*
X10710152Y-14343142D02*
X10805390Y-14295523D01*
X10805390Y-14295523D02*
X10853009Y-14247904D01*
X10853009Y-14247904D02*
X10900628Y-14152666D01*
X10900628Y-14152666D02*
X10900628Y-13771714D01*
X11376819Y-15295523D02*
X11376819Y-14724095D01*
X11376819Y-15009809D02*
X10376819Y-15009809D01*
X10376819Y-15009809D02*
X10519676Y-14914571D01*
X10519676Y-14914571D02*
X10614914Y-14819333D01*
X10614914Y-14819333D02*
X10662533Y-14724095D01*
X11376819Y-16247904D02*
X11376819Y-15676476D01*
X11376819Y-15962190D02*
X10376819Y-15962190D01*
X10376819Y-15962190D02*
X10519676Y-15866952D01*
X10519676Y-15866952D02*
X10614914Y-15771714D01*
X10614914Y-15771714D02*
X10662533Y-15676476D01*
%TO.C,U10*%
X6413694Y-31178820D02*
X6413694Y-31988343D01*
X6413694Y-31988343D02*
X6366075Y-32083581D01*
X6366075Y-32083581D02*
X6318456Y-32131201D01*
X6318456Y-32131201D02*
X6223218Y-32178820D01*
X6223218Y-32178820D02*
X6032742Y-32178820D01*
X6032742Y-32178820D02*
X5937504Y-32131201D01*
X5937504Y-32131201D02*
X5889885Y-32083581D01*
X5889885Y-32083581D02*
X5842266Y-31988343D01*
X5842266Y-31988343D02*
X5842266Y-31178820D01*
X4842266Y-32178820D02*
X5413694Y-32178820D01*
X5127980Y-32178820D02*
X5127980Y-31178820D01*
X5127980Y-31178820D02*
X5223218Y-31321677D01*
X5223218Y-31321677D02*
X5318456Y-31416915D01*
X5318456Y-31416915D02*
X5413694Y-31464534D01*
X4223218Y-31178820D02*
X4127980Y-31178820D01*
X4127980Y-31178820D02*
X4032742Y-31226439D01*
X4032742Y-31226439D02*
X3985123Y-31274058D01*
X3985123Y-31274058D02*
X3937504Y-31369296D01*
X3937504Y-31369296D02*
X3889885Y-31559772D01*
X3889885Y-31559772D02*
X3889885Y-31797867D01*
X3889885Y-31797867D02*
X3937504Y-31988343D01*
X3937504Y-31988343D02*
X3985123Y-32083581D01*
X3985123Y-32083581D02*
X4032742Y-32131201D01*
X4032742Y-32131201D02*
X4127980Y-32178820D01*
X4127980Y-32178820D02*
X4223218Y-32178820D01*
X4223218Y-32178820D02*
X4318456Y-32131201D01*
X4318456Y-32131201D02*
X4366075Y-32083581D01*
X4366075Y-32083581D02*
X4413694Y-31988343D01*
X4413694Y-31988343D02*
X4461313Y-31797867D01*
X4461313Y-31797867D02*
X4461313Y-31559772D01*
X4461313Y-31559772D02*
X4413694Y-31369296D01*
X4413694Y-31369296D02*
X4366075Y-31274058D01*
X4366075Y-31274058D02*
X4318456Y-31226439D01*
X4318456Y-31226439D02*
X4223218Y-31178820D01*
%TO.C,R12*%
X8074819Y-14089142D02*
X7598628Y-13755809D01*
X8074819Y-13517714D02*
X7074819Y-13517714D01*
X7074819Y-13517714D02*
X7074819Y-13898666D01*
X7074819Y-13898666D02*
X7122438Y-13993904D01*
X7122438Y-13993904D02*
X7170057Y-14041523D01*
X7170057Y-14041523D02*
X7265295Y-14089142D01*
X7265295Y-14089142D02*
X7408152Y-14089142D01*
X7408152Y-14089142D02*
X7503390Y-14041523D01*
X7503390Y-14041523D02*
X7551009Y-13993904D01*
X7551009Y-13993904D02*
X7598628Y-13898666D01*
X7598628Y-13898666D02*
X7598628Y-13517714D01*
X8074819Y-15041523D02*
X8074819Y-14470095D01*
X8074819Y-14755809D02*
X7074819Y-14755809D01*
X7074819Y-14755809D02*
X7217676Y-14660571D01*
X7217676Y-14660571D02*
X7312914Y-14565333D01*
X7312914Y-14565333D02*
X7360533Y-14470095D01*
X7170057Y-15422476D02*
X7122438Y-15470095D01*
X7122438Y-15470095D02*
X7074819Y-15565333D01*
X7074819Y-15565333D02*
X7074819Y-15803428D01*
X7074819Y-15803428D02*
X7122438Y-15898666D01*
X7122438Y-15898666D02*
X7170057Y-15946285D01*
X7170057Y-15946285D02*
X7265295Y-15993904D01*
X7265295Y-15993904D02*
X7360533Y-15993904D01*
X7360533Y-15993904D02*
X7503390Y-15946285D01*
X7503390Y-15946285D02*
X8074819Y-15374857D01*
X8074819Y-15374857D02*
X8074819Y-15993904D01*
%TO.C,R13*%
X16418857Y-23414819D02*
X16752190Y-22938628D01*
X16990285Y-23414819D02*
X16990285Y-22414819D01*
X16990285Y-22414819D02*
X16609333Y-22414819D01*
X16609333Y-22414819D02*
X16514095Y-22462438D01*
X16514095Y-22462438D02*
X16466476Y-22510057D01*
X16466476Y-22510057D02*
X16418857Y-22605295D01*
X16418857Y-22605295D02*
X16418857Y-22748152D01*
X16418857Y-22748152D02*
X16466476Y-22843390D01*
X16466476Y-22843390D02*
X16514095Y-22891009D01*
X16514095Y-22891009D02*
X16609333Y-22938628D01*
X16609333Y-22938628D02*
X16990285Y-22938628D01*
X15466476Y-23414819D02*
X16037904Y-23414819D01*
X15752190Y-23414819D02*
X15752190Y-22414819D01*
X15752190Y-22414819D02*
X15847428Y-22557676D01*
X15847428Y-22557676D02*
X15942666Y-22652914D01*
X15942666Y-22652914D02*
X16037904Y-22700533D01*
X15133142Y-22414819D02*
X14514095Y-22414819D01*
X14514095Y-22414819D02*
X14847428Y-22795771D01*
X14847428Y-22795771D02*
X14704571Y-22795771D01*
X14704571Y-22795771D02*
X14609333Y-22843390D01*
X14609333Y-22843390D02*
X14561714Y-22891009D01*
X14561714Y-22891009D02*
X14514095Y-22986247D01*
X14514095Y-22986247D02*
X14514095Y-23224342D01*
X14514095Y-23224342D02*
X14561714Y-23319580D01*
X14561714Y-23319580D02*
X14609333Y-23367200D01*
X14609333Y-23367200D02*
X14704571Y-23414819D01*
X14704571Y-23414819D02*
X14990285Y-23414819D01*
X14990285Y-23414819D02*
X15085523Y-23367200D01*
X15085523Y-23367200D02*
X15133142Y-23319580D01*
%TO.C,U9*%
X470819Y-15240095D02*
X1280342Y-15240095D01*
X1280342Y-15240095D02*
X1375580Y-15287714D01*
X1375580Y-15287714D02*
X1423200Y-15335333D01*
X1423200Y-15335333D02*
X1470819Y-15430571D01*
X1470819Y-15430571D02*
X1470819Y-15621047D01*
X1470819Y-15621047D02*
X1423200Y-15716285D01*
X1423200Y-15716285D02*
X1375580Y-15763904D01*
X1375580Y-15763904D02*
X1280342Y-15811523D01*
X1280342Y-15811523D02*
X470819Y-15811523D01*
X1470819Y-16335333D02*
X1470819Y-16525809D01*
X1470819Y-16525809D02*
X1423200Y-16621047D01*
X1423200Y-16621047D02*
X1375580Y-16668666D01*
X1375580Y-16668666D02*
X1232723Y-16763904D01*
X1232723Y-16763904D02*
X1042247Y-16811523D01*
X1042247Y-16811523D02*
X661295Y-16811523D01*
X661295Y-16811523D02*
X566057Y-16763904D01*
X566057Y-16763904D02*
X518438Y-16716285D01*
X518438Y-16716285D02*
X470819Y-16621047D01*
X470819Y-16621047D02*
X470819Y-16430571D01*
X470819Y-16430571D02*
X518438Y-16335333D01*
X518438Y-16335333D02*
X566057Y-16287714D01*
X566057Y-16287714D02*
X661295Y-16240095D01*
X661295Y-16240095D02*
X899390Y-16240095D01*
X899390Y-16240095D02*
X994628Y-16287714D01*
X994628Y-16287714D02*
X1042247Y-16335333D01*
X1042247Y-16335333D02*
X1089866Y-16430571D01*
X1089866Y-16430571D02*
X1089866Y-16621047D01*
X1089866Y-16621047D02*
X1042247Y-16716285D01*
X1042247Y-16716285D02*
X994628Y-16763904D01*
X994628Y-16763904D02*
X899390Y-16811523D01*
X166019Y-12776200D02*
X404114Y-12776200D01*
X308876Y-12538105D02*
X404114Y-12776200D01*
X404114Y-12776200D02*
X308876Y-13014295D01*
X594590Y-12633343D02*
X404114Y-12776200D01*
X404114Y-12776200D02*
X594590Y-12919057D01*
X166019Y-12776200D02*
X404114Y-12776200D01*
X308876Y-12538105D02*
X404114Y-12776200D01*
X404114Y-12776200D02*
X308876Y-13014295D01*
X594590Y-12633343D02*
X404114Y-12776200D01*
X404114Y-12776200D02*
X594590Y-12919057D01*
%TO.C,R14*%
X16418857Y-26870819D02*
X16752190Y-26394628D01*
X16990285Y-26870819D02*
X16990285Y-25870819D01*
X16990285Y-25870819D02*
X16609333Y-25870819D01*
X16609333Y-25870819D02*
X16514095Y-25918438D01*
X16514095Y-25918438D02*
X16466476Y-25966057D01*
X16466476Y-25966057D02*
X16418857Y-26061295D01*
X16418857Y-26061295D02*
X16418857Y-26204152D01*
X16418857Y-26204152D02*
X16466476Y-26299390D01*
X16466476Y-26299390D02*
X16514095Y-26347009D01*
X16514095Y-26347009D02*
X16609333Y-26394628D01*
X16609333Y-26394628D02*
X16990285Y-26394628D01*
X15466476Y-26870819D02*
X16037904Y-26870819D01*
X15752190Y-26870819D02*
X15752190Y-25870819D01*
X15752190Y-25870819D02*
X15847428Y-26013676D01*
X15847428Y-26013676D02*
X15942666Y-26108914D01*
X15942666Y-26108914D02*
X16037904Y-26156533D01*
X14609333Y-26204152D02*
X14609333Y-26870819D01*
X14847428Y-25823200D02*
X15085523Y-26537485D01*
X15085523Y-26537485D02*
X14466476Y-26537485D01*
%TO.C,U12*%
X5810094Y-39440819D02*
X5810094Y-40250342D01*
X5810094Y-40250342D02*
X5762475Y-40345580D01*
X5762475Y-40345580D02*
X5714856Y-40393200D01*
X5714856Y-40393200D02*
X5619618Y-40440819D01*
X5619618Y-40440819D02*
X5429142Y-40440819D01*
X5429142Y-40440819D02*
X5333904Y-40393200D01*
X5333904Y-40393200D02*
X5286285Y-40345580D01*
X5286285Y-40345580D02*
X5238666Y-40250342D01*
X5238666Y-40250342D02*
X5238666Y-39440819D01*
X4238666Y-40440819D02*
X4810094Y-40440819D01*
X4524380Y-40440819D02*
X4524380Y-39440819D01*
X4524380Y-39440819D02*
X4619618Y-39583676D01*
X4619618Y-39583676D02*
X4714856Y-39678914D01*
X4714856Y-39678914D02*
X4810094Y-39726533D01*
X3857713Y-39536057D02*
X3810094Y-39488438D01*
X3810094Y-39488438D02*
X3714856Y-39440819D01*
X3714856Y-39440819D02*
X3476761Y-39440819D01*
X3476761Y-39440819D02*
X3381523Y-39488438D01*
X3381523Y-39488438D02*
X3333904Y-39536057D01*
X3333904Y-39536057D02*
X3286285Y-39631295D01*
X3286285Y-39631295D02*
X3286285Y-39726533D01*
X3286285Y-39726533D02*
X3333904Y-39869390D01*
X3333904Y-39869390D02*
X3905332Y-40440819D01*
X3905332Y-40440819D02*
X3286285Y-40440819D01*
%TO.C,R15*%
X-1133142Y-27124819D02*
X-799809Y-26648628D01*
X-561714Y-27124819D02*
X-561714Y-26124819D01*
X-561714Y-26124819D02*
X-942666Y-26124819D01*
X-942666Y-26124819D02*
X-1037904Y-26172438D01*
X-1037904Y-26172438D02*
X-1085523Y-26220057D01*
X-1085523Y-26220057D02*
X-1133142Y-26315295D01*
X-1133142Y-26315295D02*
X-1133142Y-26458152D01*
X-1133142Y-26458152D02*
X-1085523Y-26553390D01*
X-1085523Y-26553390D02*
X-1037904Y-26601009D01*
X-1037904Y-26601009D02*
X-942666Y-26648628D01*
X-942666Y-26648628D02*
X-561714Y-26648628D01*
X-2085523Y-27124819D02*
X-1514095Y-27124819D01*
X-1799809Y-27124819D02*
X-1799809Y-26124819D01*
X-1799809Y-26124819D02*
X-1704571Y-26267676D01*
X-1704571Y-26267676D02*
X-1609333Y-26362914D01*
X-1609333Y-26362914D02*
X-1514095Y-26410533D01*
X-2990285Y-26124819D02*
X-2514095Y-26124819D01*
X-2514095Y-26124819D02*
X-2466476Y-26601009D01*
X-2466476Y-26601009D02*
X-2514095Y-26553390D01*
X-2514095Y-26553390D02*
X-2609333Y-26505771D01*
X-2609333Y-26505771D02*
X-2847428Y-26505771D01*
X-2847428Y-26505771D02*
X-2942666Y-26553390D01*
X-2942666Y-26553390D02*
X-2990285Y-26601009D01*
X-2990285Y-26601009D02*
X-3037904Y-26696247D01*
X-3037904Y-26696247D02*
X-3037904Y-26934342D01*
X-3037904Y-26934342D02*
X-2990285Y-27029580D01*
X-2990285Y-27029580D02*
X-2942666Y-27077200D01*
X-2942666Y-27077200D02*
X-2847428Y-27124819D01*
X-2847428Y-27124819D02*
X-2609333Y-27124819D01*
X-2609333Y-27124819D02*
X-2514095Y-27077200D01*
X-2514095Y-27077200D02*
X-2466476Y-27029580D01*
%TO.C,CR3*%
X14329580Y-47593333D02*
X14377200Y-47545714D01*
X14377200Y-47545714D02*
X14424819Y-47402857D01*
X14424819Y-47402857D02*
X14424819Y-47307619D01*
X14424819Y-47307619D02*
X14377200Y-47164762D01*
X14377200Y-47164762D02*
X14281961Y-47069524D01*
X14281961Y-47069524D02*
X14186723Y-47021905D01*
X14186723Y-47021905D02*
X13996247Y-46974286D01*
X13996247Y-46974286D02*
X13853390Y-46974286D01*
X13853390Y-46974286D02*
X13662914Y-47021905D01*
X13662914Y-47021905D02*
X13567676Y-47069524D01*
X13567676Y-47069524D02*
X13472438Y-47164762D01*
X13472438Y-47164762D02*
X13424819Y-47307619D01*
X13424819Y-47307619D02*
X13424819Y-47402857D01*
X13424819Y-47402857D02*
X13472438Y-47545714D01*
X13472438Y-47545714D02*
X13520057Y-47593333D01*
X14424819Y-48593333D02*
X13948628Y-48260000D01*
X14424819Y-48021905D02*
X13424819Y-48021905D01*
X13424819Y-48021905D02*
X13424819Y-48402857D01*
X13424819Y-48402857D02*
X13472438Y-48498095D01*
X13472438Y-48498095D02*
X13520057Y-48545714D01*
X13520057Y-48545714D02*
X13615295Y-48593333D01*
X13615295Y-48593333D02*
X13758152Y-48593333D01*
X13758152Y-48593333D02*
X13853390Y-48545714D01*
X13853390Y-48545714D02*
X13901009Y-48498095D01*
X13901009Y-48498095D02*
X13948628Y-48402857D01*
X13948628Y-48402857D02*
X13948628Y-48021905D01*
X13424819Y-48926667D02*
X13424819Y-49545714D01*
X13424819Y-49545714D02*
X13805771Y-49212381D01*
X13805771Y-49212381D02*
X13805771Y-49355238D01*
X13805771Y-49355238D02*
X13853390Y-49450476D01*
X13853390Y-49450476D02*
X13901009Y-49498095D01*
X13901009Y-49498095D02*
X13996247Y-49545714D01*
X13996247Y-49545714D02*
X14234342Y-49545714D01*
X14234342Y-49545714D02*
X14329580Y-49498095D01*
X14329580Y-49498095D02*
X14377200Y-49450476D01*
X14377200Y-49450476D02*
X14424819Y-49355238D01*
X14424819Y-49355238D02*
X14424819Y-49069524D01*
X14424819Y-49069524D02*
X14377200Y-48974286D01*
X14377200Y-48974286D02*
X14329580Y-48926667D01*
X10783219Y-46583600D02*
X11021314Y-46583600D01*
X10926076Y-46345505D02*
X11021314Y-46583600D01*
X11021314Y-46583600D02*
X10926076Y-46821695D01*
X11211790Y-46440743D02*
X11021314Y-46583600D01*
X11021314Y-46583600D02*
X11211790Y-46726457D01*
X10783219Y-46583600D02*
X11021314Y-46583600D01*
X10926076Y-46345505D02*
X11021314Y-46583600D01*
X11021314Y-46583600D02*
X10926076Y-46821695D01*
X11211790Y-46440743D02*
X11021314Y-46583600D01*
X11021314Y-46583600D02*
X11211790Y-46726457D01*
%TO.C,R5*%
X-8435180Y-16085333D02*
X-8911371Y-15752000D01*
X-8435180Y-15513905D02*
X-9435180Y-15513905D01*
X-9435180Y-15513905D02*
X-9435180Y-15894857D01*
X-9435180Y-15894857D02*
X-9387561Y-15990095D01*
X-9387561Y-15990095D02*
X-9339942Y-16037714D01*
X-9339942Y-16037714D02*
X-9244704Y-16085333D01*
X-9244704Y-16085333D02*
X-9101847Y-16085333D01*
X-9101847Y-16085333D02*
X-9006609Y-16037714D01*
X-9006609Y-16037714D02*
X-8958990Y-15990095D01*
X-8958990Y-15990095D02*
X-8911371Y-15894857D01*
X-8911371Y-15894857D02*
X-8911371Y-15513905D01*
X-9435180Y-16990095D02*
X-9435180Y-16513905D01*
X-9435180Y-16513905D02*
X-8958990Y-16466286D01*
X-8958990Y-16466286D02*
X-9006609Y-16513905D01*
X-9006609Y-16513905D02*
X-9054228Y-16609143D01*
X-9054228Y-16609143D02*
X-9054228Y-16847238D01*
X-9054228Y-16847238D02*
X-9006609Y-16942476D01*
X-9006609Y-16942476D02*
X-8958990Y-16990095D01*
X-8958990Y-16990095D02*
X-8863752Y-17037714D01*
X-8863752Y-17037714D02*
X-8625657Y-17037714D01*
X-8625657Y-17037714D02*
X-8530419Y-16990095D01*
X-8530419Y-16990095D02*
X-8482800Y-16942476D01*
X-8482800Y-16942476D02*
X-8435180Y-16847238D01*
X-8435180Y-16847238D02*
X-8435180Y-16609143D01*
X-8435180Y-16609143D02*
X-8482800Y-16513905D01*
X-8482800Y-16513905D02*
X-8530419Y-16466286D01*
%TO.C,CR2*%
X12236666Y-19569580D02*
X12284285Y-19617200D01*
X12284285Y-19617200D02*
X12427142Y-19664819D01*
X12427142Y-19664819D02*
X12522380Y-19664819D01*
X12522380Y-19664819D02*
X12665237Y-19617200D01*
X12665237Y-19617200D02*
X12760475Y-19521961D01*
X12760475Y-19521961D02*
X12808094Y-19426723D01*
X12808094Y-19426723D02*
X12855713Y-19236247D01*
X12855713Y-19236247D02*
X12855713Y-19093390D01*
X12855713Y-19093390D02*
X12808094Y-18902914D01*
X12808094Y-18902914D02*
X12760475Y-18807676D01*
X12760475Y-18807676D02*
X12665237Y-18712438D01*
X12665237Y-18712438D02*
X12522380Y-18664819D01*
X12522380Y-18664819D02*
X12427142Y-18664819D01*
X12427142Y-18664819D02*
X12284285Y-18712438D01*
X12284285Y-18712438D02*
X12236666Y-18760057D01*
X11236666Y-19664819D02*
X11569999Y-19188628D01*
X11808094Y-19664819D02*
X11808094Y-18664819D01*
X11808094Y-18664819D02*
X11427142Y-18664819D01*
X11427142Y-18664819D02*
X11331904Y-18712438D01*
X11331904Y-18712438D02*
X11284285Y-18760057D01*
X11284285Y-18760057D02*
X11236666Y-18855295D01*
X11236666Y-18855295D02*
X11236666Y-18998152D01*
X11236666Y-18998152D02*
X11284285Y-19093390D01*
X11284285Y-19093390D02*
X11331904Y-19141009D01*
X11331904Y-19141009D02*
X11427142Y-19188628D01*
X11427142Y-19188628D02*
X11808094Y-19188628D01*
X10855713Y-18760057D02*
X10808094Y-18712438D01*
X10808094Y-18712438D02*
X10712856Y-18664819D01*
X10712856Y-18664819D02*
X10474761Y-18664819D01*
X10474761Y-18664819D02*
X10379523Y-18712438D01*
X10379523Y-18712438D02*
X10331904Y-18760057D01*
X10331904Y-18760057D02*
X10284285Y-18855295D01*
X10284285Y-18855295D02*
X10284285Y-18950533D01*
X10284285Y-18950533D02*
X10331904Y-19093390D01*
X10331904Y-19093390D02*
X10903332Y-19664819D01*
X10903332Y-19664819D02*
X10284285Y-19664819D01*
X12578399Y-20536819D02*
X12578399Y-20774914D01*
X12816494Y-20679676D02*
X12578399Y-20774914D01*
X12578399Y-20774914D02*
X12340304Y-20679676D01*
X12721256Y-20965390D02*
X12578399Y-20774914D01*
X12578399Y-20774914D02*
X12435542Y-20965390D01*
X12578400Y-21627180D02*
X12578400Y-21389085D01*
X12340305Y-21484323D02*
X12578400Y-21389085D01*
X12578400Y-21389085D02*
X12816495Y-21484323D01*
X12435543Y-21198609D02*
X12578400Y-21389085D01*
X12578400Y-21389085D02*
X12721257Y-21198609D01*
%TO.C,FB4*%
X7691333Y-8059009D02*
X8024666Y-8059009D01*
X8024666Y-8582819D02*
X8024666Y-7582819D01*
X8024666Y-7582819D02*
X7548476Y-7582819D01*
X6834190Y-8059009D02*
X6691333Y-8106628D01*
X6691333Y-8106628D02*
X6643714Y-8154247D01*
X6643714Y-8154247D02*
X6596095Y-8249485D01*
X6596095Y-8249485D02*
X6596095Y-8392342D01*
X6596095Y-8392342D02*
X6643714Y-8487580D01*
X6643714Y-8487580D02*
X6691333Y-8535200D01*
X6691333Y-8535200D02*
X6786571Y-8582819D01*
X6786571Y-8582819D02*
X7167523Y-8582819D01*
X7167523Y-8582819D02*
X7167523Y-7582819D01*
X7167523Y-7582819D02*
X6834190Y-7582819D01*
X6834190Y-7582819D02*
X6738952Y-7630438D01*
X6738952Y-7630438D02*
X6691333Y-7678057D01*
X6691333Y-7678057D02*
X6643714Y-7773295D01*
X6643714Y-7773295D02*
X6643714Y-7868533D01*
X6643714Y-7868533D02*
X6691333Y-7963771D01*
X6691333Y-7963771D02*
X6738952Y-8011390D01*
X6738952Y-8011390D02*
X6834190Y-8059009D01*
X6834190Y-8059009D02*
X7167523Y-8059009D01*
X5738952Y-7916152D02*
X5738952Y-8582819D01*
X5977047Y-7535200D02*
X6215142Y-8249485D01*
X6215142Y-8249485D02*
X5596095Y-8249485D01*
%TO.C,C14*%
X9786857Y-38943580D02*
X9834476Y-38991200D01*
X9834476Y-38991200D02*
X9977333Y-39038819D01*
X9977333Y-39038819D02*
X10072571Y-39038819D01*
X10072571Y-39038819D02*
X10215428Y-38991200D01*
X10215428Y-38991200D02*
X10310666Y-38895961D01*
X10310666Y-38895961D02*
X10358285Y-38800723D01*
X10358285Y-38800723D02*
X10405904Y-38610247D01*
X10405904Y-38610247D02*
X10405904Y-38467390D01*
X10405904Y-38467390D02*
X10358285Y-38276914D01*
X10358285Y-38276914D02*
X10310666Y-38181676D01*
X10310666Y-38181676D02*
X10215428Y-38086438D01*
X10215428Y-38086438D02*
X10072571Y-38038819D01*
X10072571Y-38038819D02*
X9977333Y-38038819D01*
X9977333Y-38038819D02*
X9834476Y-38086438D01*
X9834476Y-38086438D02*
X9786857Y-38134057D01*
X8834476Y-39038819D02*
X9405904Y-39038819D01*
X9120190Y-39038819D02*
X9120190Y-38038819D01*
X9120190Y-38038819D02*
X9215428Y-38181676D01*
X9215428Y-38181676D02*
X9310666Y-38276914D01*
X9310666Y-38276914D02*
X9405904Y-38324533D01*
X7977333Y-38372152D02*
X7977333Y-39038819D01*
X8215428Y-37991200D02*
X8453523Y-38705485D01*
X8453523Y-38705485D02*
X7834476Y-38705485D01*
%TO.C,C6*%
X13656666Y-23329580D02*
X13704285Y-23377200D01*
X13704285Y-23377200D02*
X13847142Y-23424819D01*
X13847142Y-23424819D02*
X13942380Y-23424819D01*
X13942380Y-23424819D02*
X14085237Y-23377200D01*
X14085237Y-23377200D02*
X14180475Y-23281961D01*
X14180475Y-23281961D02*
X14228094Y-23186723D01*
X14228094Y-23186723D02*
X14275713Y-22996247D01*
X14275713Y-22996247D02*
X14275713Y-22853390D01*
X14275713Y-22853390D02*
X14228094Y-22662914D01*
X14228094Y-22662914D02*
X14180475Y-22567676D01*
X14180475Y-22567676D02*
X14085237Y-22472438D01*
X14085237Y-22472438D02*
X13942380Y-22424819D01*
X13942380Y-22424819D02*
X13847142Y-22424819D01*
X13847142Y-22424819D02*
X13704285Y-22472438D01*
X13704285Y-22472438D02*
X13656666Y-22520057D01*
X12799523Y-22424819D02*
X12989999Y-22424819D01*
X12989999Y-22424819D02*
X13085237Y-22472438D01*
X13085237Y-22472438D02*
X13132856Y-22520057D01*
X13132856Y-22520057D02*
X13228094Y-22662914D01*
X13228094Y-22662914D02*
X13275713Y-22853390D01*
X13275713Y-22853390D02*
X13275713Y-23234342D01*
X13275713Y-23234342D02*
X13228094Y-23329580D01*
X13228094Y-23329580D02*
X13180475Y-23377200D01*
X13180475Y-23377200D02*
X13085237Y-23424819D01*
X13085237Y-23424819D02*
X12894761Y-23424819D01*
X12894761Y-23424819D02*
X12799523Y-23377200D01*
X12799523Y-23377200D02*
X12751904Y-23329580D01*
X12751904Y-23329580D02*
X12704285Y-23234342D01*
X12704285Y-23234342D02*
X12704285Y-22996247D01*
X12704285Y-22996247D02*
X12751904Y-22901009D01*
X12751904Y-22901009D02*
X12799523Y-22853390D01*
X12799523Y-22853390D02*
X12894761Y-22805771D01*
X12894761Y-22805771D02*
X13085237Y-22805771D01*
X13085237Y-22805771D02*
X13180475Y-22853390D01*
X13180475Y-22853390D02*
X13228094Y-22901009D01*
X13228094Y-22901009D02*
X13275713Y-22996247D01*
%TO.C,R17*%
X16136857Y-33220819D02*
X16470190Y-32744628D01*
X16708285Y-33220819D02*
X16708285Y-32220819D01*
X16708285Y-32220819D02*
X16327333Y-32220819D01*
X16327333Y-32220819D02*
X16232095Y-32268438D01*
X16232095Y-32268438D02*
X16184476Y-32316057D01*
X16184476Y-32316057D02*
X16136857Y-32411295D01*
X16136857Y-32411295D02*
X16136857Y-32554152D01*
X16136857Y-32554152D02*
X16184476Y-32649390D01*
X16184476Y-32649390D02*
X16232095Y-32697009D01*
X16232095Y-32697009D02*
X16327333Y-32744628D01*
X16327333Y-32744628D02*
X16708285Y-32744628D01*
X15184476Y-33220819D02*
X15755904Y-33220819D01*
X15470190Y-33220819D02*
X15470190Y-32220819D01*
X15470190Y-32220819D02*
X15565428Y-32363676D01*
X15565428Y-32363676D02*
X15660666Y-32458914D01*
X15660666Y-32458914D02*
X15755904Y-32506533D01*
X14851142Y-32220819D02*
X14184476Y-32220819D01*
X14184476Y-32220819D02*
X14613047Y-33220819D01*
%TO.C,R4*%
X-10213180Y-16087333D02*
X-10689371Y-15754000D01*
X-10213180Y-15515905D02*
X-11213180Y-15515905D01*
X-11213180Y-15515905D02*
X-11213180Y-15896857D01*
X-11213180Y-15896857D02*
X-11165561Y-15992095D01*
X-11165561Y-15992095D02*
X-11117942Y-16039714D01*
X-11117942Y-16039714D02*
X-11022704Y-16087333D01*
X-11022704Y-16087333D02*
X-10879847Y-16087333D01*
X-10879847Y-16087333D02*
X-10784609Y-16039714D01*
X-10784609Y-16039714D02*
X-10736990Y-15992095D01*
X-10736990Y-15992095D02*
X-10689371Y-15896857D01*
X-10689371Y-15896857D02*
X-10689371Y-15515905D01*
X-10879847Y-16944476D02*
X-10213180Y-16944476D01*
X-11260800Y-16706381D02*
X-10546514Y-16468286D01*
X-10546514Y-16468286D02*
X-10546514Y-17087333D01*
%TO.C,FB2*%
X-8958990Y-19740666D02*
X-8958990Y-19407333D01*
X-8435180Y-19407333D02*
X-9435180Y-19407333D01*
X-9435180Y-19407333D02*
X-9435180Y-19883523D01*
X-8958990Y-20597809D02*
X-8911371Y-20740666D01*
X-8911371Y-20740666D02*
X-8863752Y-20788285D01*
X-8863752Y-20788285D02*
X-8768514Y-20835904D01*
X-8768514Y-20835904D02*
X-8625657Y-20835904D01*
X-8625657Y-20835904D02*
X-8530419Y-20788285D01*
X-8530419Y-20788285D02*
X-8482800Y-20740666D01*
X-8482800Y-20740666D02*
X-8435180Y-20645428D01*
X-8435180Y-20645428D02*
X-8435180Y-20264476D01*
X-8435180Y-20264476D02*
X-9435180Y-20264476D01*
X-9435180Y-20264476D02*
X-9435180Y-20597809D01*
X-9435180Y-20597809D02*
X-9387561Y-20693047D01*
X-9387561Y-20693047D02*
X-9339942Y-20740666D01*
X-9339942Y-20740666D02*
X-9244704Y-20788285D01*
X-9244704Y-20788285D02*
X-9149466Y-20788285D01*
X-9149466Y-20788285D02*
X-9054228Y-20740666D01*
X-9054228Y-20740666D02*
X-9006609Y-20693047D01*
X-9006609Y-20693047D02*
X-8958990Y-20597809D01*
X-8958990Y-20597809D02*
X-8958990Y-20264476D01*
X-9339942Y-21216857D02*
X-9387561Y-21264476D01*
X-9387561Y-21264476D02*
X-9435180Y-21359714D01*
X-9435180Y-21359714D02*
X-9435180Y-21597809D01*
X-9435180Y-21597809D02*
X-9387561Y-21693047D01*
X-9387561Y-21693047D02*
X-9339942Y-21740666D01*
X-9339942Y-21740666D02*
X-9244704Y-21788285D01*
X-9244704Y-21788285D02*
X-9149466Y-21788285D01*
X-9149466Y-21788285D02*
X-9006609Y-21740666D01*
X-9006609Y-21740666D02*
X-8435180Y-21169238D01*
X-8435180Y-21169238D02*
X-8435180Y-21788285D01*
%TO.C,C12*%
X-1077142Y-25505580D02*
X-1029523Y-25553200D01*
X-1029523Y-25553200D02*
X-886666Y-25600819D01*
X-886666Y-25600819D02*
X-791428Y-25600819D01*
X-791428Y-25600819D02*
X-648571Y-25553200D01*
X-648571Y-25553200D02*
X-553333Y-25457961D01*
X-553333Y-25457961D02*
X-505714Y-25362723D01*
X-505714Y-25362723D02*
X-458095Y-25172247D01*
X-458095Y-25172247D02*
X-458095Y-25029390D01*
X-458095Y-25029390D02*
X-505714Y-24838914D01*
X-505714Y-24838914D02*
X-553333Y-24743676D01*
X-553333Y-24743676D02*
X-648571Y-24648438D01*
X-648571Y-24648438D02*
X-791428Y-24600819D01*
X-791428Y-24600819D02*
X-886666Y-24600819D01*
X-886666Y-24600819D02*
X-1029523Y-24648438D01*
X-1029523Y-24648438D02*
X-1077142Y-24696057D01*
X-2029523Y-25600819D02*
X-1458095Y-25600819D01*
X-1743809Y-25600819D02*
X-1743809Y-24600819D01*
X-1743809Y-24600819D02*
X-1648571Y-24743676D01*
X-1648571Y-24743676D02*
X-1553333Y-24838914D01*
X-1553333Y-24838914D02*
X-1458095Y-24886533D01*
X-2410476Y-24696057D02*
X-2458095Y-24648438D01*
X-2458095Y-24648438D02*
X-2553333Y-24600819D01*
X-2553333Y-24600819D02*
X-2791428Y-24600819D01*
X-2791428Y-24600819D02*
X-2886666Y-24648438D01*
X-2886666Y-24648438D02*
X-2934285Y-24696057D01*
X-2934285Y-24696057D02*
X-2981904Y-24791295D01*
X-2981904Y-24791295D02*
X-2981904Y-24886533D01*
X-2981904Y-24886533D02*
X-2934285Y-25029390D01*
X-2934285Y-25029390D02*
X-2362857Y-25600819D01*
X-2362857Y-25600819D02*
X-2981904Y-25600819D01*
%TO.C,U8*%
X1232819Y-32336095D02*
X2042342Y-32336095D01*
X2042342Y-32336095D02*
X2137580Y-32383714D01*
X2137580Y-32383714D02*
X2185200Y-32431333D01*
X2185200Y-32431333D02*
X2232819Y-32526571D01*
X2232819Y-32526571D02*
X2232819Y-32717047D01*
X2232819Y-32717047D02*
X2185200Y-32812285D01*
X2185200Y-32812285D02*
X2137580Y-32859904D01*
X2137580Y-32859904D02*
X2042342Y-32907523D01*
X2042342Y-32907523D02*
X1232819Y-32907523D01*
X1661390Y-33526571D02*
X1613771Y-33431333D01*
X1613771Y-33431333D02*
X1566152Y-33383714D01*
X1566152Y-33383714D02*
X1470914Y-33336095D01*
X1470914Y-33336095D02*
X1423295Y-33336095D01*
X1423295Y-33336095D02*
X1328057Y-33383714D01*
X1328057Y-33383714D02*
X1280438Y-33431333D01*
X1280438Y-33431333D02*
X1232819Y-33526571D01*
X1232819Y-33526571D02*
X1232819Y-33717047D01*
X1232819Y-33717047D02*
X1280438Y-33812285D01*
X1280438Y-33812285D02*
X1328057Y-33859904D01*
X1328057Y-33859904D02*
X1423295Y-33907523D01*
X1423295Y-33907523D02*
X1470914Y-33907523D01*
X1470914Y-33907523D02*
X1566152Y-33859904D01*
X1566152Y-33859904D02*
X1613771Y-33812285D01*
X1613771Y-33812285D02*
X1661390Y-33717047D01*
X1661390Y-33717047D02*
X1661390Y-33526571D01*
X1661390Y-33526571D02*
X1709009Y-33431333D01*
X1709009Y-33431333D02*
X1756628Y-33383714D01*
X1756628Y-33383714D02*
X1851866Y-33336095D01*
X1851866Y-33336095D02*
X2042342Y-33336095D01*
X2042342Y-33336095D02*
X2137580Y-33383714D01*
X2137580Y-33383714D02*
X2185200Y-33431333D01*
X2185200Y-33431333D02*
X2232819Y-33526571D01*
X2232819Y-33526571D02*
X2232819Y-33717047D01*
X2232819Y-33717047D02*
X2185200Y-33812285D01*
X2185200Y-33812285D02*
X2137580Y-33859904D01*
X2137580Y-33859904D02*
X2042342Y-33907523D01*
X2042342Y-33907523D02*
X1851866Y-33907523D01*
X1851866Y-33907523D02*
X1756628Y-33859904D01*
X1756628Y-33859904D02*
X1709009Y-33812285D01*
X1709009Y-33812285D02*
X1661390Y-33717047D01*
%TO.C,R9*%
X13662819Y-28027333D02*
X13186628Y-27694000D01*
X13662819Y-27455905D02*
X12662819Y-27455905D01*
X12662819Y-27455905D02*
X12662819Y-27836857D01*
X12662819Y-27836857D02*
X12710438Y-27932095D01*
X12710438Y-27932095D02*
X12758057Y-27979714D01*
X12758057Y-27979714D02*
X12853295Y-28027333D01*
X12853295Y-28027333D02*
X12996152Y-28027333D01*
X12996152Y-28027333D02*
X13091390Y-27979714D01*
X13091390Y-27979714D02*
X13139009Y-27932095D01*
X13139009Y-27932095D02*
X13186628Y-27836857D01*
X13186628Y-27836857D02*
X13186628Y-27455905D01*
X13662819Y-28503524D02*
X13662819Y-28694000D01*
X13662819Y-28694000D02*
X13615200Y-28789238D01*
X13615200Y-28789238D02*
X13567580Y-28836857D01*
X13567580Y-28836857D02*
X13424723Y-28932095D01*
X13424723Y-28932095D02*
X13234247Y-28979714D01*
X13234247Y-28979714D02*
X12853295Y-28979714D01*
X12853295Y-28979714D02*
X12758057Y-28932095D01*
X12758057Y-28932095D02*
X12710438Y-28884476D01*
X12710438Y-28884476D02*
X12662819Y-28789238D01*
X12662819Y-28789238D02*
X12662819Y-28598762D01*
X12662819Y-28598762D02*
X12710438Y-28503524D01*
X12710438Y-28503524D02*
X12758057Y-28455905D01*
X12758057Y-28455905D02*
X12853295Y-28408286D01*
X12853295Y-28408286D02*
X13091390Y-28408286D01*
X13091390Y-28408286D02*
X13186628Y-28455905D01*
X13186628Y-28455905D02*
X13234247Y-28503524D01*
X13234247Y-28503524D02*
X13281866Y-28598762D01*
X13281866Y-28598762D02*
X13281866Y-28789238D01*
X13281866Y-28789238D02*
X13234247Y-28884476D01*
X13234247Y-28884476D02*
X13186628Y-28932095D01*
X13186628Y-28932095D02*
X13091390Y-28979714D01*
%TO.C,C10*%
X-1133142Y-28299580D02*
X-1085523Y-28347200D01*
X-1085523Y-28347200D02*
X-942666Y-28394819D01*
X-942666Y-28394819D02*
X-847428Y-28394819D01*
X-847428Y-28394819D02*
X-704571Y-28347200D01*
X-704571Y-28347200D02*
X-609333Y-28251961D01*
X-609333Y-28251961D02*
X-561714Y-28156723D01*
X-561714Y-28156723D02*
X-514095Y-27966247D01*
X-514095Y-27966247D02*
X-514095Y-27823390D01*
X-514095Y-27823390D02*
X-561714Y-27632914D01*
X-561714Y-27632914D02*
X-609333Y-27537676D01*
X-609333Y-27537676D02*
X-704571Y-27442438D01*
X-704571Y-27442438D02*
X-847428Y-27394819D01*
X-847428Y-27394819D02*
X-942666Y-27394819D01*
X-942666Y-27394819D02*
X-1085523Y-27442438D01*
X-1085523Y-27442438D02*
X-1133142Y-27490057D01*
X-2085523Y-28394819D02*
X-1514095Y-28394819D01*
X-1799809Y-28394819D02*
X-1799809Y-27394819D01*
X-1799809Y-27394819D02*
X-1704571Y-27537676D01*
X-1704571Y-27537676D02*
X-1609333Y-27632914D01*
X-1609333Y-27632914D02*
X-1514095Y-27680533D01*
X-2704571Y-27394819D02*
X-2799809Y-27394819D01*
X-2799809Y-27394819D02*
X-2895047Y-27442438D01*
X-2895047Y-27442438D02*
X-2942666Y-27490057D01*
X-2942666Y-27490057D02*
X-2990285Y-27585295D01*
X-2990285Y-27585295D02*
X-3037904Y-27775771D01*
X-3037904Y-27775771D02*
X-3037904Y-28013866D01*
X-3037904Y-28013866D02*
X-2990285Y-28204342D01*
X-2990285Y-28204342D02*
X-2942666Y-28299580D01*
X-2942666Y-28299580D02*
X-2895047Y-28347200D01*
X-2895047Y-28347200D02*
X-2799809Y-28394819D01*
X-2799809Y-28394819D02*
X-2704571Y-28394819D01*
X-2704571Y-28394819D02*
X-2609333Y-28347200D01*
X-2609333Y-28347200D02*
X-2561714Y-28299580D01*
X-2561714Y-28299580D02*
X-2514095Y-28204342D01*
X-2514095Y-28204342D02*
X-2466476Y-28013866D01*
X-2466476Y-28013866D02*
X-2466476Y-27775771D01*
X-2466476Y-27775771D02*
X-2514095Y-27585295D01*
X-2514095Y-27585295D02*
X-2561714Y-27490057D01*
X-2561714Y-27490057D02*
X-2609333Y-27442438D01*
X-2609333Y-27442438D02*
X-2704571Y-27394819D01*
%TO.C,C11*%
X-15387142Y-21949580D02*
X-15339523Y-21997200D01*
X-15339523Y-21997200D02*
X-15196666Y-22044819D01*
X-15196666Y-22044819D02*
X-15101428Y-22044819D01*
X-15101428Y-22044819D02*
X-14958571Y-21997200D01*
X-14958571Y-21997200D02*
X-14863333Y-21901961D01*
X-14863333Y-21901961D02*
X-14815714Y-21806723D01*
X-14815714Y-21806723D02*
X-14768095Y-21616247D01*
X-14768095Y-21616247D02*
X-14768095Y-21473390D01*
X-14768095Y-21473390D02*
X-14815714Y-21282914D01*
X-14815714Y-21282914D02*
X-14863333Y-21187676D01*
X-14863333Y-21187676D02*
X-14958571Y-21092438D01*
X-14958571Y-21092438D02*
X-15101428Y-21044819D01*
X-15101428Y-21044819D02*
X-15196666Y-21044819D01*
X-15196666Y-21044819D02*
X-15339523Y-21092438D01*
X-15339523Y-21092438D02*
X-15387142Y-21140057D01*
X-16339523Y-22044819D02*
X-15768095Y-22044819D01*
X-16053809Y-22044819D02*
X-16053809Y-21044819D01*
X-16053809Y-21044819D02*
X-15958571Y-21187676D01*
X-15958571Y-21187676D02*
X-15863333Y-21282914D01*
X-15863333Y-21282914D02*
X-15768095Y-21330533D01*
X-17291904Y-22044819D02*
X-16720476Y-22044819D01*
X-17006190Y-22044819D02*
X-17006190Y-21044819D01*
X-17006190Y-21044819D02*
X-16910952Y-21187676D01*
X-16910952Y-21187676D02*
X-16815714Y-21282914D01*
X-16815714Y-21282914D02*
X-16720476Y-21330533D01*
%TO.C,C13*%
X9786857Y-40345580D02*
X9834476Y-40393200D01*
X9834476Y-40393200D02*
X9977333Y-40440819D01*
X9977333Y-40440819D02*
X10072571Y-40440819D01*
X10072571Y-40440819D02*
X10215428Y-40393200D01*
X10215428Y-40393200D02*
X10310666Y-40297961D01*
X10310666Y-40297961D02*
X10358285Y-40202723D01*
X10358285Y-40202723D02*
X10405904Y-40012247D01*
X10405904Y-40012247D02*
X10405904Y-39869390D01*
X10405904Y-39869390D02*
X10358285Y-39678914D01*
X10358285Y-39678914D02*
X10310666Y-39583676D01*
X10310666Y-39583676D02*
X10215428Y-39488438D01*
X10215428Y-39488438D02*
X10072571Y-39440819D01*
X10072571Y-39440819D02*
X9977333Y-39440819D01*
X9977333Y-39440819D02*
X9834476Y-39488438D01*
X9834476Y-39488438D02*
X9786857Y-39536057D01*
X8834476Y-40440819D02*
X9405904Y-40440819D01*
X9120190Y-40440819D02*
X9120190Y-39440819D01*
X9120190Y-39440819D02*
X9215428Y-39583676D01*
X9215428Y-39583676D02*
X9310666Y-39678914D01*
X9310666Y-39678914D02*
X9405904Y-39726533D01*
X8501142Y-39440819D02*
X7882095Y-39440819D01*
X7882095Y-39440819D02*
X8215428Y-39821771D01*
X8215428Y-39821771D02*
X8072571Y-39821771D01*
X8072571Y-39821771D02*
X7977333Y-39869390D01*
X7977333Y-39869390D02*
X7929714Y-39917009D01*
X7929714Y-39917009D02*
X7882095Y-40012247D01*
X7882095Y-40012247D02*
X7882095Y-40250342D01*
X7882095Y-40250342D02*
X7929714Y-40345580D01*
X7929714Y-40345580D02*
X7977333Y-40393200D01*
X7977333Y-40393200D02*
X8072571Y-40440819D01*
X8072571Y-40440819D02*
X8358285Y-40440819D01*
X8358285Y-40440819D02*
X8453523Y-40393200D01*
X8453523Y-40393200D02*
X8501142Y-40345580D01*
%TO.C,R7*%
X2198666Y-10106819D02*
X2531999Y-9630628D01*
X2770094Y-10106819D02*
X2770094Y-9106819D01*
X2770094Y-9106819D02*
X2389142Y-9106819D01*
X2389142Y-9106819D02*
X2293904Y-9154438D01*
X2293904Y-9154438D02*
X2246285Y-9202057D01*
X2246285Y-9202057D02*
X2198666Y-9297295D01*
X2198666Y-9297295D02*
X2198666Y-9440152D01*
X2198666Y-9440152D02*
X2246285Y-9535390D01*
X2246285Y-9535390D02*
X2293904Y-9583009D01*
X2293904Y-9583009D02*
X2389142Y-9630628D01*
X2389142Y-9630628D02*
X2770094Y-9630628D01*
X1865332Y-9106819D02*
X1198666Y-9106819D01*
X1198666Y-9106819D02*
X1627237Y-10106819D01*
%TO.C,R6*%
X-6657180Y-16087333D02*
X-7133371Y-15754000D01*
X-6657180Y-15515905D02*
X-7657180Y-15515905D01*
X-7657180Y-15515905D02*
X-7657180Y-15896857D01*
X-7657180Y-15896857D02*
X-7609561Y-15992095D01*
X-7609561Y-15992095D02*
X-7561942Y-16039714D01*
X-7561942Y-16039714D02*
X-7466704Y-16087333D01*
X-7466704Y-16087333D02*
X-7323847Y-16087333D01*
X-7323847Y-16087333D02*
X-7228609Y-16039714D01*
X-7228609Y-16039714D02*
X-7180990Y-15992095D01*
X-7180990Y-15992095D02*
X-7133371Y-15896857D01*
X-7133371Y-15896857D02*
X-7133371Y-15515905D01*
X-7657180Y-16944476D02*
X-7657180Y-16754000D01*
X-7657180Y-16754000D02*
X-7609561Y-16658762D01*
X-7609561Y-16658762D02*
X-7561942Y-16611143D01*
X-7561942Y-16611143D02*
X-7419085Y-16515905D01*
X-7419085Y-16515905D02*
X-7228609Y-16468286D01*
X-7228609Y-16468286D02*
X-6847657Y-16468286D01*
X-6847657Y-16468286D02*
X-6752419Y-16515905D01*
X-6752419Y-16515905D02*
X-6704800Y-16563524D01*
X-6704800Y-16563524D02*
X-6657180Y-16658762D01*
X-6657180Y-16658762D02*
X-6657180Y-16849238D01*
X-6657180Y-16849238D02*
X-6704800Y-16944476D01*
X-6704800Y-16944476D02*
X-6752419Y-16992095D01*
X-6752419Y-16992095D02*
X-6847657Y-17039714D01*
X-6847657Y-17039714D02*
X-7085752Y-17039714D01*
X-7085752Y-17039714D02*
X-7180990Y-16992095D01*
X-7180990Y-16992095D02*
X-7228609Y-16944476D01*
X-7228609Y-16944476D02*
X-7276228Y-16849238D01*
X-7276228Y-16849238D02*
X-7276228Y-16658762D01*
X-7276228Y-16658762D02*
X-7228609Y-16563524D01*
X-7228609Y-16563524D02*
X-7180990Y-16515905D01*
X-7180990Y-16515905D02*
X-7085752Y-16468286D01*
%TO.C,U11*%
X-9175905Y-33998819D02*
X-9175905Y-34808342D01*
X-9175905Y-34808342D02*
X-9223524Y-34903580D01*
X-9223524Y-34903580D02*
X-9271143Y-34951200D01*
X-9271143Y-34951200D02*
X-9366381Y-34998819D01*
X-9366381Y-34998819D02*
X-9556857Y-34998819D01*
X-9556857Y-34998819D02*
X-9652095Y-34951200D01*
X-9652095Y-34951200D02*
X-9699714Y-34903580D01*
X-9699714Y-34903580D02*
X-9747333Y-34808342D01*
X-9747333Y-34808342D02*
X-9747333Y-33998819D01*
X-10747333Y-34998819D02*
X-10175905Y-34998819D01*
X-10461619Y-34998819D02*
X-10461619Y-33998819D01*
X-10461619Y-33998819D02*
X-10366381Y-34141676D01*
X-10366381Y-34141676D02*
X-10271143Y-34236914D01*
X-10271143Y-34236914D02*
X-10175905Y-34284533D01*
X-11699714Y-34998819D02*
X-11128286Y-34998819D01*
X-11414000Y-34998819D02*
X-11414000Y-33998819D01*
X-11414000Y-33998819D02*
X-11318762Y-34141676D01*
X-11318762Y-34141676D02*
X-11223524Y-34236914D01*
X-11223524Y-34236914D02*
X-11128286Y-34284533D01*
X-16713199Y-34631980D02*
X-16713199Y-34393885D01*
X-16951294Y-34489123D02*
X-16713199Y-34393885D01*
X-16713199Y-34393885D02*
X-16475104Y-34489123D01*
X-16856056Y-34203409D02*
X-16713199Y-34393885D01*
X-16713199Y-34393885D02*
X-16570342Y-34203409D01*
X-16713200Y-33541619D02*
X-16713200Y-33779714D01*
X-16475105Y-33684476D02*
X-16713200Y-33779714D01*
X-16713200Y-33779714D02*
X-16951295Y-33684476D01*
X-16570343Y-33970190D02*
X-16713200Y-33779714D01*
X-16713200Y-33779714D02*
X-16856057Y-33970190D01*
%TO.C,C15*%
X-1133142Y-23727580D02*
X-1085523Y-23775200D01*
X-1085523Y-23775200D02*
X-942666Y-23822819D01*
X-942666Y-23822819D02*
X-847428Y-23822819D01*
X-847428Y-23822819D02*
X-704571Y-23775200D01*
X-704571Y-23775200D02*
X-609333Y-23679961D01*
X-609333Y-23679961D02*
X-561714Y-23584723D01*
X-561714Y-23584723D02*
X-514095Y-23394247D01*
X-514095Y-23394247D02*
X-514095Y-23251390D01*
X-514095Y-23251390D02*
X-561714Y-23060914D01*
X-561714Y-23060914D02*
X-609333Y-22965676D01*
X-609333Y-22965676D02*
X-704571Y-22870438D01*
X-704571Y-22870438D02*
X-847428Y-22822819D01*
X-847428Y-22822819D02*
X-942666Y-22822819D01*
X-942666Y-22822819D02*
X-1085523Y-22870438D01*
X-1085523Y-22870438D02*
X-1133142Y-22918057D01*
X-2085523Y-23822819D02*
X-1514095Y-23822819D01*
X-1799809Y-23822819D02*
X-1799809Y-22822819D01*
X-1799809Y-22822819D02*
X-1704571Y-22965676D01*
X-1704571Y-22965676D02*
X-1609333Y-23060914D01*
X-1609333Y-23060914D02*
X-1514095Y-23108533D01*
X-2990285Y-22822819D02*
X-2514095Y-22822819D01*
X-2514095Y-22822819D02*
X-2466476Y-23299009D01*
X-2466476Y-23299009D02*
X-2514095Y-23251390D01*
X-2514095Y-23251390D02*
X-2609333Y-23203771D01*
X-2609333Y-23203771D02*
X-2847428Y-23203771D01*
X-2847428Y-23203771D02*
X-2942666Y-23251390D01*
X-2942666Y-23251390D02*
X-2990285Y-23299009D01*
X-2990285Y-23299009D02*
X-3037904Y-23394247D01*
X-3037904Y-23394247D02*
X-3037904Y-23632342D01*
X-3037904Y-23632342D02*
X-2990285Y-23727580D01*
X-2990285Y-23727580D02*
X-2942666Y-23775200D01*
X-2942666Y-23775200D02*
X-2847428Y-23822819D01*
X-2847428Y-23822819D02*
X-2609333Y-23822819D01*
X-2609333Y-23822819D02*
X-2514095Y-23775200D01*
X-2514095Y-23775200D02*
X-2466476Y-23727580D01*
%TO.C,C9*%
X12373780Y-34123333D02*
X12421400Y-34075714D01*
X12421400Y-34075714D02*
X12469019Y-33932857D01*
X12469019Y-33932857D02*
X12469019Y-33837619D01*
X12469019Y-33837619D02*
X12421400Y-33694762D01*
X12421400Y-33694762D02*
X12326161Y-33599524D01*
X12326161Y-33599524D02*
X12230923Y-33551905D01*
X12230923Y-33551905D02*
X12040447Y-33504286D01*
X12040447Y-33504286D02*
X11897590Y-33504286D01*
X11897590Y-33504286D02*
X11707114Y-33551905D01*
X11707114Y-33551905D02*
X11611876Y-33599524D01*
X11611876Y-33599524D02*
X11516638Y-33694762D01*
X11516638Y-33694762D02*
X11469019Y-33837619D01*
X11469019Y-33837619D02*
X11469019Y-33932857D01*
X11469019Y-33932857D02*
X11516638Y-34075714D01*
X11516638Y-34075714D02*
X11564257Y-34123333D01*
X12469019Y-34599524D02*
X12469019Y-34790000D01*
X12469019Y-34790000D02*
X12421400Y-34885238D01*
X12421400Y-34885238D02*
X12373780Y-34932857D01*
X12373780Y-34932857D02*
X12230923Y-35028095D01*
X12230923Y-35028095D02*
X12040447Y-35075714D01*
X12040447Y-35075714D02*
X11659495Y-35075714D01*
X11659495Y-35075714D02*
X11564257Y-35028095D01*
X11564257Y-35028095D02*
X11516638Y-34980476D01*
X11516638Y-34980476D02*
X11469019Y-34885238D01*
X11469019Y-34885238D02*
X11469019Y-34694762D01*
X11469019Y-34694762D02*
X11516638Y-34599524D01*
X11516638Y-34599524D02*
X11564257Y-34551905D01*
X11564257Y-34551905D02*
X11659495Y-34504286D01*
X11659495Y-34504286D02*
X11897590Y-34504286D01*
X11897590Y-34504286D02*
X11992828Y-34551905D01*
X11992828Y-34551905D02*
X12040447Y-34599524D01*
X12040447Y-34599524D02*
X12088066Y-34694762D01*
X12088066Y-34694762D02*
X12088066Y-34885238D01*
X12088066Y-34885238D02*
X12040447Y-34980476D01*
X12040447Y-34980476D02*
X11992828Y-35028095D01*
X11992828Y-35028095D02*
X11897590Y-35075714D01*
%TO.C,R16*%
X-1133142Y-29664819D02*
X-799809Y-29188628D01*
X-561714Y-29664819D02*
X-561714Y-28664819D01*
X-561714Y-28664819D02*
X-942666Y-28664819D01*
X-942666Y-28664819D02*
X-1037904Y-28712438D01*
X-1037904Y-28712438D02*
X-1085523Y-28760057D01*
X-1085523Y-28760057D02*
X-1133142Y-28855295D01*
X-1133142Y-28855295D02*
X-1133142Y-28998152D01*
X-1133142Y-28998152D02*
X-1085523Y-29093390D01*
X-1085523Y-29093390D02*
X-1037904Y-29141009D01*
X-1037904Y-29141009D02*
X-942666Y-29188628D01*
X-942666Y-29188628D02*
X-561714Y-29188628D01*
X-2085523Y-29664819D02*
X-1514095Y-29664819D01*
X-1799809Y-29664819D02*
X-1799809Y-28664819D01*
X-1799809Y-28664819D02*
X-1704571Y-28807676D01*
X-1704571Y-28807676D02*
X-1609333Y-28902914D01*
X-1609333Y-28902914D02*
X-1514095Y-28950533D01*
X-2942666Y-28664819D02*
X-2752190Y-28664819D01*
X-2752190Y-28664819D02*
X-2656952Y-28712438D01*
X-2656952Y-28712438D02*
X-2609333Y-28760057D01*
X-2609333Y-28760057D02*
X-2514095Y-28902914D01*
X-2514095Y-28902914D02*
X-2466476Y-29093390D01*
X-2466476Y-29093390D02*
X-2466476Y-29474342D01*
X-2466476Y-29474342D02*
X-2514095Y-29569580D01*
X-2514095Y-29569580D02*
X-2561714Y-29617200D01*
X-2561714Y-29617200D02*
X-2656952Y-29664819D01*
X-2656952Y-29664819D02*
X-2847428Y-29664819D01*
X-2847428Y-29664819D02*
X-2942666Y-29617200D01*
X-2942666Y-29617200D02*
X-2990285Y-29569580D01*
X-2990285Y-29569580D02*
X-3037904Y-29474342D01*
X-3037904Y-29474342D02*
X-3037904Y-29236247D01*
X-3037904Y-29236247D02*
X-2990285Y-29141009D01*
X-2990285Y-29141009D02*
X-2942666Y-29093390D01*
X-2942666Y-29093390D02*
X-2847428Y-29045771D01*
X-2847428Y-29045771D02*
X-2656952Y-29045771D01*
X-2656952Y-29045771D02*
X-2561714Y-29093390D01*
X-2561714Y-29093390D02*
X-2514095Y-29141009D01*
X-2514095Y-29141009D02*
X-2466476Y-29236247D01*
%TO.C,C7*%
X13656666Y-26775580D02*
X13704285Y-26823200D01*
X13704285Y-26823200D02*
X13847142Y-26870819D01*
X13847142Y-26870819D02*
X13942380Y-26870819D01*
X13942380Y-26870819D02*
X14085237Y-26823200D01*
X14085237Y-26823200D02*
X14180475Y-26727961D01*
X14180475Y-26727961D02*
X14228094Y-26632723D01*
X14228094Y-26632723D02*
X14275713Y-26442247D01*
X14275713Y-26442247D02*
X14275713Y-26299390D01*
X14275713Y-26299390D02*
X14228094Y-26108914D01*
X14228094Y-26108914D02*
X14180475Y-26013676D01*
X14180475Y-26013676D02*
X14085237Y-25918438D01*
X14085237Y-25918438D02*
X13942380Y-25870819D01*
X13942380Y-25870819D02*
X13847142Y-25870819D01*
X13847142Y-25870819D02*
X13704285Y-25918438D01*
X13704285Y-25918438D02*
X13656666Y-25966057D01*
X13323332Y-25870819D02*
X12656666Y-25870819D01*
X12656666Y-25870819D02*
X13085237Y-26870819D01*
D11*
%TO.C,U1*%
X-11024087Y-56515300D02*
G75*
G03*
X-11024087Y-56515300I-381000J0D01*
G01*
D12*
%TO.C,S3*%
X11711000Y-17320000D02*
X11711000Y-10620000D01*
X12831000Y-17320000D02*
X11711000Y-17320000D01*
X18261000Y-17320000D02*
X17141000Y-17320000D01*
X12831000Y-10620000D02*
X11711000Y-10620000D01*
X18261000Y-10620000D02*
X18261000Y-17320000D01*
X18261000Y-10620000D02*
X17141000Y-10620000D01*
D13*
X16356000Y-20320000D02*
G75*
G03*
X16356000Y-20320000I-100000J0D01*
G01*
D14*
%TO.C,R10*%
X12064000Y-30582359D02*
X12064000Y-30889641D01*
X11304000Y-30582359D02*
X11304000Y-30889641D01*
%TO.C,R8*%
X4471641Y-11302000D02*
X4164359Y-11302000D01*
X4471641Y-10542000D02*
X4164359Y-10542000D01*
%TO.C,C8*%
X8488000Y-34182164D02*
X8488000Y-34397836D01*
X7768000Y-34182164D02*
X7768000Y-34397836D01*
D15*
%TO.C,CR1*%
X10454000Y-9624000D02*
X10454000Y-12728000D01*
X8850000Y-12728000D02*
X8850000Y-9624000D01*
D12*
%TO.C,S2*%
X-11711000Y-10620000D02*
X-11711000Y-17320000D01*
X-12831000Y-10620000D02*
X-11711000Y-10620000D01*
X-18261000Y-10620000D02*
X-17141000Y-10620000D01*
X-12831000Y-17320000D02*
X-11711000Y-17320000D01*
X-18261000Y-17320000D02*
X-18261000Y-10620000D01*
X-18261000Y-17320000D02*
X-17141000Y-17320000D01*
D13*
X-16156000Y-7620000D02*
G75*
G03*
X-16156000Y-7620000I-100000J0D01*
G01*
D15*
%TO.C,U7*%
X342900Y-13373100D02*
X342900Y-17614900D01*
X-4914900Y-17614900D02*
X-4914900Y-13373100D01*
D14*
%TO.C,R11*%
X10286000Y-15086359D02*
X10286000Y-15393641D01*
X9526000Y-15086359D02*
X9526000Y-15393641D01*
D15*
%TO.C,U10*%
X6674200Y-35956400D02*
X3321400Y-35956400D01*
X6674200Y-35739741D02*
X6674200Y-35956400D01*
X6674200Y-32603600D02*
X6674200Y-32820259D01*
X3321400Y-35956400D02*
X3321400Y-35739741D01*
X3321400Y-32820259D02*
X3321400Y-32603600D01*
X3321400Y-32603600D02*
X6674200Y-32603600D01*
X7184740Y-33353828D02*
G75*
G03*
X7184740Y-33206172I18860J73828D01*
G01*
D14*
%TO.C,R12*%
X9016000Y-15086359D02*
X9016000Y-15393641D01*
X8256000Y-15086359D02*
X8256000Y-15393641D01*
%TO.C,R13*%
X15675641Y-24510000D02*
X15368359Y-24510000D01*
X15675641Y-23750000D02*
X15368359Y-23750000D01*
D15*
%TO.C,U9*%
X6946900Y-13373100D02*
X6946900Y-17614900D01*
X1689100Y-17614900D02*
X1689100Y-13373100D01*
D14*
%TO.C,R14*%
X15675641Y-25526000D02*
X15368359Y-25526000D01*
X15675641Y-24766000D02*
X15368359Y-24766000D01*
%TO.C,U12*%
X5350000Y-36990000D02*
X7350000Y-36990000D01*
X6350000Y-39210000D02*
X7350000Y-39210000D01*
%TO.C,R15*%
X-4469641Y-26290000D02*
X-4162359Y-26290000D01*
X-4469641Y-27050000D02*
X-4162359Y-27050000D01*
D15*
%TO.C,CR3*%
X15646400Y-47244000D02*
X15646400Y-49276000D01*
X12293600Y-49276000D02*
X12293600Y-47244000D01*
D14*
%TO.C,R5*%
X-8510000Y-14066359D02*
X-8510000Y-14373641D01*
X-9270000Y-14066359D02*
X-9270000Y-14373641D01*
D15*
%TO.C,CR2*%
X13688000Y-20280000D02*
X16792000Y-20280000D01*
X16792000Y-21884000D02*
X13688000Y-21884000D01*
D14*
%TO.C,C14*%
X3958000Y-38249836D02*
X3958000Y-38034164D01*
X4678000Y-38249836D02*
X4678000Y-38034164D01*
%TO.C,C6*%
X13597836Y-24490000D02*
X13382164Y-24490000D01*
X13597836Y-23770000D02*
X13382164Y-23770000D01*
%TO.C,R17*%
X12853641Y-32892000D02*
X12546359Y-32892000D01*
X12853641Y-32132000D02*
X12546359Y-32132000D01*
%TO.C,R4*%
X-10288000Y-14068359D02*
X-10288000Y-14375641D01*
X-11048000Y-14068359D02*
X-11048000Y-14375641D01*
%TO.C,C12*%
X-4395836Y-25040000D02*
X-4180164Y-25040000D01*
X-4395836Y-25760000D02*
X-4180164Y-25760000D01*
%TO.C,U8*%
X10574000Y-22126000D02*
X10339000Y-22126000D01*
X-2211000Y-22126000D02*
X-2211000Y-20311000D01*
X-2446000Y-22126000D02*
X-2211000Y-22126000D01*
X10574000Y-25986000D02*
X10574000Y-22126000D01*
X10574000Y-25986000D02*
X10574000Y-29846000D01*
X-2446000Y-25986000D02*
X-2446000Y-22126000D01*
X-2446000Y-25986000D02*
X-2446000Y-29846000D01*
X10574000Y-29846000D02*
X10339000Y-29846000D01*
X-2446000Y-29846000D02*
X-2211000Y-29846000D01*
%TO.C,R9*%
X12064000Y-28550359D02*
X12064000Y-28857641D01*
X11304000Y-28550359D02*
X11304000Y-28857641D01*
%TO.C,C10*%
X-4208164Y-28300000D02*
X-4423836Y-28300000D01*
X-4208164Y-27580000D02*
X-4423836Y-27580000D01*
%TO.C,C11*%
X-13569836Y-20976000D02*
X-13354164Y-20976000D01*
X-13569836Y-21696000D02*
X-13354164Y-21696000D01*
%TO.C,C13*%
X6965836Y-40346000D02*
X6750164Y-40346000D01*
X6965836Y-39626000D02*
X6750164Y-39626000D01*
%TO.C,R7*%
X1878359Y-10542000D02*
X2185641Y-10542000D01*
X1878359Y-11302000D02*
X2185641Y-11302000D01*
%TO.C,R6*%
X-7492000Y-14375641D02*
X-7492000Y-14068359D01*
X-6732000Y-14375641D02*
X-6732000Y-14068359D01*
D15*
%TO.C,U11*%
X-15735300Y-22694900D02*
X-8140700Y-22694900D01*
X-8140700Y-33185100D02*
X-15735300Y-33185100D01*
X-11633200Y-33185100D02*
G75*
G03*
X-12242800Y-33185100I-304800J0D01*
G01*
G36*
X-5753100Y-24955500D02*
G01*
X-6007100Y-24955500D01*
X-6007100Y-24574500D01*
X-5753100Y-24574500D01*
X-5753100Y-24955500D01*
G37*
D14*
%TO.C,C15*%
X-5184000Y-23729836D02*
X-5184000Y-23514164D01*
X-4464000Y-23729836D02*
X-4464000Y-23514164D01*
%TO.C,C9*%
X9696000Y-34182164D02*
X9696000Y-34397836D01*
X8976000Y-34182164D02*
X8976000Y-34397836D01*
%TO.C,R16*%
X-4469641Y-28830000D02*
X-4162359Y-28830000D01*
X-4469641Y-29590000D02*
X-4162359Y-29590000D01*
%TO.C,C7*%
X13597836Y-25506000D02*
X13382164Y-25506000D01*
X13597836Y-24786000D02*
X13382164Y-24786000D01*
%TD*%
M02*
