  0
SECTION
  2
HEADER
  9
$ANGBASE
  50
0.0
  9
$ANGDIR
  70
1
  9
$MEASUREMENT
  70
1
  0
ENDSEC
  0
SECTION
  2
TABLES
  0
TABLE
  2
LTYPE
  70
4
  0
LTYPE
  5
40F
  2
CONTINUOUS
  70
0
  3
Solid line
  72
65
  73
0
  40
0.0
  0
LTYPE
  5
410
  2
DASHDOT
 70
0
  3
Dash Dot ____ _ ____ _
 72
65
 73
4
 40
2.0
 49
1.25
 49
-0.25
 49
0.25
 49
-0.25
  0
LTYPE
  5
411
  2
DASHED
 70
0
  3
Dashed __ __ __ __ __
 72
65
 73
2
 40
0.75
 49
0.5
 49
-0.25
  0
LTYPE
  5
43B
  2
DOTTED
 70
0
  3
Dotted .  .  .  .
 72
65
 73
2
 40
0.2
 49
0.0
 49
-0.2
  0
ENDTAB
  0
TABLE
  2
STYLE
  70
4
  0
STYLE
  2
KICAD
  70
0
  40
0
  41
1
  42
1
  50
0
  71
0
  3
isocp.shx
  0
STYLE
  2
KICADB
  70
0
  40
0
  41
1
  42
1
  50
0
  71
0
  3
isocp.shx
  0
STYLE
  2
KICADI
  70
0
  40
0
  41
1
  42
1
  50
15
  71
0
  3
isocp.shx
  0
STYLE
  2
KICADBI
  70
0
  40
0
  41
1
  42
1
  50
15
  71
0
  3
isocp.shx
  0
ENDTAB
  0
TABLE
  2
LAYER
  70
1
  0
LAYER
  2
BLACK
  70
0
  62
7
  6
CONTINUOUS
  0
ENDTAB
  0
ENDSEC
  0
SECTION
  2
ENTITIES
0
ARC
8
BLACK
10
28.5
20
-20.3163
40
5.99999
50
144.517
51
180
0
LINE
8
BLACK
6
CONTINUOUS
10
22.5
20
-29.5
11
22.5
21
-20.3163
0
LINE
8
BLACK
6
CONTINUOUS
10
-22.5
20
-20.3163
11
-22.5
21
-29.5
0
CIRCLE
8
BLACK
10
0
20
26
40
1.6
0
LINE
8
BLACK
6
CONTINUOUS
10
-22.5
20
-29.5
11
22.5
21
-29.5
0
ARC
8
BLACK
10
0
20
0
40
29
50
-35.4832
51
215.483
0
ARC
8
BLACK
10
-28.5
20
-20.3162
40
5.99997
50
-8.59441e-05
51
35.4833
0
LINE
8
BLACK
6
CONTINUOUS
10
13.785
20
-22.885
11
14.435
21
-23.535
0
LINE
8
BLACK
6
CONTINUOUS
10
14.435
20
-22.885
11
13.785
21
-23.535
0
LINE
8
BLACK
6
CONTINUOUS
10
19.565
20
-22.885
11
20.215
21
-23.535
0
LINE
8
BLACK
6
CONTINUOUS
10
20.215
20
-22.885
11
19.565
21
-23.535
0
LINE
8
BLACK
6
CONTINUOUS
10
-26.4922
20
-32.7148
11
-26.4922
21
-30.7148
0
LINE
8
BLACK
6
CONTINUOUS
10
-26.4922
20
-30.7148
11
-26.016
21
-30.7148
0
LINE
8
BLACK
6
CONTINUOUS
10
-26.016
20
-30.7148
11
-25.7303
21
-30.8101
0
LINE
8
BLACK
6
CONTINUOUS
10
-25.7303
20
-30.8101
11
-25.5398
21
-31.0006
0
LINE
8
BLACK
6
CONTINUOUS
10
-25.5398
20
-31.0006
11
-25.4446
21
-31.191
0
LINE
8
BLACK
6
CONTINUOUS
10
-25.4446
20
-31.191
11
-25.3494
21
-31.572
0
LINE
8
BLACK
6
CONTINUOUS
10
-25.3494
20
-31.572
11
-25.3494
21
-31.8577
0
LINE
8
BLACK
6
CONTINUOUS
10
-25.3494
20
-31.8577
11
-25.4446
21
-32.2386
0
LINE
8
BLACK
6
CONTINUOUS
10
-25.4446
20
-32.2386
11
-25.5398
21
-32.4291
0
LINE
8
BLACK
6
CONTINUOUS
10
-25.5398
20
-32.4291
11
-25.7303
21
-32.6196
0
LINE
8
BLACK
6
CONTINUOUS
10
-25.7303
20
-32.6196
11
-26.016
21
-32.7148
0
LINE
8
BLACK
6
CONTINUOUS
10
-26.016
20
-32.7148
11
-26.4922
21
-32.7148
0
LINE
8
BLACK
6
CONTINUOUS
10
-24.4922
20
-32.7148
11
-24.4922
21
-31.3815
0
LINE
8
BLACK
6
CONTINUOUS
10
-24.4922
20
-31.7625
11
-24.397
21
-31.572
0
LINE
8
BLACK
6
CONTINUOUS
10
-24.397
20
-31.572
11
-24.3018
21
-31.4767
0
LINE
8
BLACK
6
CONTINUOUS
10
-24.3018
20
-31.4767
11
-24.1113
21
-31.3815
0
LINE
8
BLACK
6
CONTINUOUS
10
-24.1113
20
-31.3815
11
-23.9208
21
-31.3815
0
LINE
8
BLACK
6
CONTINUOUS
10
-23.2541
20
-32.7148
11
-23.2541
21
-31.3815
0
LINE
8
BLACK
6
CONTINUOUS
10
-23.2541
20
-30.7148
11
-23.3494
21
-30.8101
0
LINE
8
BLACK
6
CONTINUOUS
10
-23.3494
20
-30.8101
11
-23.2541
21
-30.9053
0
LINE
8
BLACK
6
CONTINUOUS
10
-23.2541
20
-30.9053
11
-23.1589
21
-30.8101
0
LINE
8
BLACK
6
CONTINUOUS
10
-23.1589
20
-30.8101
11
-23.2541
21
-30.7148
0
LINE
8
BLACK
6
CONTINUOUS
10
-23.2541
20
-30.7148
11
-23.2541
21
-30.9053
0
LINE
8
BLACK
6
CONTINUOUS
10
-22.016
20
-32.7148
11
-22.2065
21
-32.6196
0
LINE
8
BLACK
6
CONTINUOUS
10
-22.2065
20
-32.6196
11
-22.3018
21
-32.4291
0
LINE
8
BLACK
6
CONTINUOUS
10
-22.3018
20
-32.4291
11
-22.3018
21
-30.7148
0
LINE
8
BLACK
6
CONTINUOUS
10
-20.9684
20
-32.7148
11
-21.1589
21
-32.6196
0
LINE
8
BLACK
6
CONTINUOUS
10
-21.1589
20
-32.6196
11
-21.2541
21
-32.4291
0
LINE
8
BLACK
6
CONTINUOUS
10
-21.2541
20
-32.4291
11
-21.2541
21
-30.7148
0
LINE
8
BLACK
6
CONTINUOUS
10
-18.6827
20
-32.7148
11
-18.6827
21
-30.7148
0
LINE
8
BLACK
6
CONTINUOUS
10
-18.6827
20
-30.7148
11
-18.016
21
-32.1434
0
LINE
8
BLACK
6
CONTINUOUS
10
-18.016
20
-32.1434
11
-17.3494
21
-30.7148
0
LINE
8
BLACK
6
CONTINUOUS
10
-17.3494
20
-30.7148
11
-17.3494
21
-32.7148
0
LINE
8
BLACK
6
CONTINUOUS
10
-15.5398
20
-32.7148
11
-15.5398
21
-31.6672
0
LINE
8
BLACK
6
CONTINUOUS
10
-15.5398
20
-31.6672
11
-15.6351
21
-31.4767
0
LINE
8
BLACK
6
CONTINUOUS
10
-15.6351
20
-31.4767
11
-15.8256
21
-31.3815
0
LINE
8
BLACK
6
CONTINUOUS
10
-15.8256
20
-31.3815
11
-16.2065
21
-31.3815
0
LINE
8
BLACK
6
CONTINUOUS
10
-16.2065
20
-31.3815
11
-16.397
21
-31.4767
0
LINE
8
BLACK
6
CONTINUOUS
10
-15.5398
20
-32.6196
11
-15.7303
21
-32.7148
0
LINE
8
BLACK
6
CONTINUOUS
10
-15.7303
20
-32.7148
11
-16.2065
21
-32.7148
0
LINE
8
BLACK
6
CONTINUOUS
10
-16.2065
20
-32.7148
11
-16.397
21
-32.6196
0
LINE
8
BLACK
6
CONTINUOUS
10
-16.397
20
-32.6196
11
-16.4922
21
-32.4291
0
LINE
8
BLACK
6
CONTINUOUS
10
-16.4922
20
-32.4291
11
-16.4922
21
-32.2386
0
LINE
8
BLACK
6
CONTINUOUS
10
-16.4922
20
-32.2386
11
-16.397
21
-32.0482
0
LINE
8
BLACK
6
CONTINUOUS
10
-16.397
20
-32.0482
11
-16.2065
21
-31.9529
0
LINE
8
BLACK
6
CONTINUOUS
10
-16.2065
20
-31.9529
11
-15.7303
21
-31.9529
0
LINE
8
BLACK
6
CONTINUOUS
10
-15.7303
20
-31.9529
11
-15.5398
21
-31.8577
0
LINE
8
BLACK
6
CONTINUOUS
10
-14.5875
20
-31.3815
11
-14.5875
21
-33.3815
0
LINE
8
BLACK
6
CONTINUOUS
10
-14.5875
20
-31.4767
11
-14.397
21
-31.3815
0
LINE
8
BLACK
6
CONTINUOUS
10
-14.397
20
-31.3815
11
-14.016
21
-31.3815
0
LINE
8
BLACK
6
CONTINUOUS
10
-14.016
20
-31.3815
11
-13.8256
21
-31.4767
0
LINE
8
BLACK
6
CONTINUOUS
10
-13.8256
20
-31.4767
11
-13.7303
21
-31.572
0
LINE
8
BLACK
6
CONTINUOUS
10
-13.7303
20
-31.572
11
-13.6351
21
-31.7625
0
LINE
8
BLACK
6
CONTINUOUS
10
-13.6351
20
-31.7625
11
-13.6351
21
-32.3339
0
LINE
8
BLACK
6
CONTINUOUS
10
-13.6351
20
-32.3339
11
-13.7303
21
-32.5244
0
LINE
8
BLACK
6
CONTINUOUS
10
-13.7303
20
-32.5244
11
-13.8256
21
-32.6196
0
LINE
8
BLACK
6
CONTINUOUS
10
-13.8256
20
-32.6196
11
-14.016
21
-32.7148
0
LINE
8
BLACK
6
CONTINUOUS
10
-14.016
20
-32.7148
11
-14.397
21
-32.7148
0
LINE
8
BLACK
6
CONTINUOUS
10
-14.397
20
-32.7148
11
-14.5875
21
-32.6196
0
LINE
8
BLACK
6
CONTINUOUS
10
-12.7779
20
-32.5244
11
-12.6827
21
-32.6196
0
LINE
8
BLACK
6
CONTINUOUS
10
-12.6827
20
-32.6196
11
-12.7779
21
-32.7148
0
LINE
8
BLACK
6
CONTINUOUS
10
-12.7779
20
-32.7148
11
-12.8732
21
-32.6196
0
LINE
8
BLACK
6
CONTINUOUS
10
-12.8732
20
-32.6196
11
-12.7779
21
-32.5244
0
LINE
8
BLACK
6
CONTINUOUS
10
-12.7779
20
-32.5244
11
-12.7779
21
-32.7148
0
LINE
8
BLACK
6
CONTINUOUS
10
-12.7779
20
-31.4767
11
-12.6827
21
-31.572
0
LINE
8
BLACK
6
CONTINUOUS
10
-12.6827
20
-31.572
11
-12.7779
21
-31.6672
0
LINE
8
BLACK
6
CONTINUOUS
10
-12.7779
20
-31.6672
11
-12.8732
21
-31.572
0
LINE
8
BLACK
6
CONTINUOUS
10
-12.8732
20
-31.572
11
-12.7779
21
-31.4767
0
LINE
8
BLACK
6
CONTINUOUS
10
-12.7779
20
-31.4767
11
-12.7779
21
-31.6672
0
LINE
8
BLACK
6
CONTINUOUS
10
-29.75
20
-35.675
11
-29.1
21
-36.325
0
LINE
8
BLACK
6
CONTINUOUS
10
-29.1
20
-35.675
11
-29.75
21
-36.325
0
LINE
8
BLACK
6
CONTINUOUS
10
-26.1113
20
-34.9148
11
-25.9208
21
-34.9148
0
LINE
8
BLACK
6
CONTINUOUS
10
-25.9208
20
-34.9148
11
-25.7303
21
-35.0101
0
LINE
8
BLACK
6
CONTINUOUS
10
-25.7303
20
-35.0101
11
-25.6351
21
-35.1053
0
LINE
8
BLACK
6
CONTINUOUS
10
-25.6351
20
-35.1053
11
-25.5398
21
-35.2958
0
LINE
8
BLACK
6
CONTINUOUS
10
-25.5398
20
-35.2958
11
-25.4446
21
-35.6767
0
LINE
8
BLACK
6
CONTINUOUS
10
-25.4446
20
-35.6767
11
-25.4446
21
-36.1529
0
LINE
8
BLACK
6
CONTINUOUS
10
-25.4446
20
-36.1529
11
-25.5398
21
-36.5339
0
LINE
8
BLACK
6
CONTINUOUS
10
-25.5398
20
-36.5339
11
-25.6351
21
-36.7244
0
LINE
8
BLACK
6
CONTINUOUS
10
-25.6351
20
-36.7244
11
-25.7303
21
-36.8196
0
LINE
8
BLACK
6
CONTINUOUS
10
-25.7303
20
-36.8196
11
-25.9208
21
-36.9148
0
LINE
8
BLACK
6
CONTINUOUS
10
-25.9208
20
-36.9148
11
-26.1113
21
-36.9148
0
LINE
8
BLACK
6
CONTINUOUS
10
-26.1113
20
-36.9148
11
-26.3018
21
-36.8196
0
LINE
8
BLACK
6
CONTINUOUS
10
-26.3018
20
-36.8196
11
-26.397
21
-36.7244
0
LINE
8
BLACK
6
CONTINUOUS
10
-26.397
20
-36.7244
11
-26.4922
21
-36.5339
0
LINE
8
BLACK
6
CONTINUOUS
10
-26.4922
20
-36.5339
11
-26.5875
21
-36.1529
0
LINE
8
BLACK
6
CONTINUOUS
10
-26.5875
20
-36.1529
11
-26.5875
21
-35.6767
0
LINE
8
BLACK
6
CONTINUOUS
10
-26.5875
20
-35.6767
11
-26.4922
21
-35.2958
0
LINE
8
BLACK
6
CONTINUOUS
10
-26.4922
20
-35.2958
11
-26.397
21
-35.1053
0
LINE
8
BLACK
6
CONTINUOUS
10
-26.397
20
-35.1053
11
-26.3018
21
-35.0101
0
LINE
8
BLACK
6
CONTINUOUS
10
-26.3018
20
-35.0101
11
-26.1113
21
-34.9148
0
LINE
8
BLACK
6
CONTINUOUS
10
-24.5875
20
-36.7244
11
-24.4922
21
-36.8196
0
LINE
8
BLACK
6
CONTINUOUS
10
-24.4922
20
-36.8196
11
-24.5875
21
-36.9148
0
LINE
8
BLACK
6
CONTINUOUS
10
-24.5875
20
-36.9148
11
-24.6827
21
-36.8196
0
LINE
8
BLACK
6
CONTINUOUS
10
-24.6827
20
-36.8196
11
-24.5875
21
-36.7244
0
LINE
8
BLACK
6
CONTINUOUS
10
-24.5875
20
-36.7244
11
-24.5875
21
-36.9148
0
LINE
8
BLACK
6
CONTINUOUS
10
-22.7779
20
-34.9148
11
-23.1589
21
-34.9148
0
LINE
8
BLACK
6
CONTINUOUS
10
-23.1589
20
-34.9148
11
-23.3494
21
-35.0101
0
LINE
8
BLACK
6
CONTINUOUS
10
-23.3494
20
-35.0101
11
-23.4446
21
-35.1053
0
LINE
8
BLACK
6
CONTINUOUS
10
-23.4446
20
-35.1053
11
-23.6351
21
-35.391
0
LINE
8
BLACK
6
CONTINUOUS
10
-23.6351
20
-35.391
11
-23.7303
21
-35.772
0
LINE
8
BLACK
6
CONTINUOUS
10
-23.7303
20
-35.772
11
-23.7303
21
-36.5339
0
LINE
8
BLACK
6
CONTINUOUS
10
-23.7303
20
-36.5339
11
-23.6351
21
-36.7244
0
LINE
8
BLACK
6
CONTINUOUS
10
-23.6351
20
-36.7244
11
-23.5398
21
-36.8196
0
LINE
8
BLACK
6
CONTINUOUS
10
-23.5398
20
-36.8196
11
-23.3494
21
-36.9148
0
LINE
8
BLACK
6
CONTINUOUS
10
-23.3494
20
-36.9148
11
-22.9684
21
-36.9148
0
LINE
8
BLACK
6
CONTINUOUS
10
-22.9684
20
-36.9148
11
-22.7779
21
-36.8196
0
LINE
8
BLACK
6
CONTINUOUS
10
-22.7779
20
-36.8196
11
-22.6827
21
-36.7244
0
LINE
8
BLACK
6
CONTINUOUS
10
-22.6827
20
-36.7244
11
-22.5875
21
-36.5339
0
LINE
8
BLACK
6
CONTINUOUS
10
-22.5875
20
-36.5339
11
-22.5875
21
-36.0577
0
LINE
8
BLACK
6
CONTINUOUS
10
-22.5875
20
-36.0577
11
-22.6827
21
-35.8672
0
LINE
8
BLACK
6
CONTINUOUS
10
-22.6827
20
-35.8672
11
-22.7779
21
-35.772
0
LINE
8
BLACK
6
CONTINUOUS
10
-22.7779
20
-35.772
11
-22.9684
21
-35.6767
0
LINE
8
BLACK
6
CONTINUOUS
10
-22.9684
20
-35.6767
11
-23.3494
21
-35.6767
0
LINE
8
BLACK
6
CONTINUOUS
10
-23.3494
20
-35.6767
11
-23.5398
21
-35.772
0
LINE
8
BLACK
6
CONTINUOUS
10
-23.5398
20
-35.772
11
-23.6351
21
-35.8672
0
LINE
8
BLACK
6
CONTINUOUS
10
-23.6351
20
-35.8672
11
-23.7303
21
-36.0577
0
LINE
8
BLACK
6
CONTINUOUS
10
-20.7779
20
-34.9148
11
-21.7303
21
-34.9148
0
LINE
8
BLACK
6
CONTINUOUS
10
-21.7303
20
-34.9148
11
-21.8256
21
-35.8672
0
LINE
8
BLACK
6
CONTINUOUS
10
-21.8256
20
-35.8672
11
-21.7303
21
-35.772
0
LINE
8
BLACK
6
CONTINUOUS
10
-21.7303
20
-35.772
11
-21.5398
21
-35.6767
0
LINE
8
BLACK
6
CONTINUOUS
10
-21.5398
20
-35.6767
11
-21.0637
21
-35.6767
0
LINE
8
BLACK
6
CONTINUOUS
10
-21.0637
20
-35.6767
11
-20.8732
21
-35.772
0
LINE
8
BLACK
6
CONTINUOUS
10
-20.8732
20
-35.772
11
-20.7779
21
-35.8672
0
LINE
8
BLACK
6
CONTINUOUS
10
-20.7779
20
-35.8672
11
-20.6827
21
-36.0577
0
LINE
8
BLACK
6
CONTINUOUS
10
-20.6827
20
-36.0577
11
-20.6827
21
-36.5339
0
LINE
8
BLACK
6
CONTINUOUS
10
-20.6827
20
-36.5339
11
-20.7779
21
-36.7244
0
LINE
8
BLACK
6
CONTINUOUS
10
-20.7779
20
-36.7244
11
-20.8732
21
-36.8196
0
LINE
8
BLACK
6
CONTINUOUS
10
-20.8732
20
-36.8196
11
-21.0637
21
-36.9148
0
LINE
8
BLACK
6
CONTINUOUS
10
-21.0637
20
-36.9148
11
-21.5398
21
-36.9148
0
LINE
8
BLACK
6
CONTINUOUS
10
-21.5398
20
-36.9148
11
-21.7303
21
-36.8196
0
LINE
8
BLACK
6
CONTINUOUS
10
-21.7303
20
-36.8196
11
-21.8256
21
-36.7244
0
LINE
8
BLACK
6
CONTINUOUS
10
-19.4446
20
-34.9148
11
-19.2541
21
-34.9148
0
LINE
8
BLACK
6
CONTINUOUS
10
-19.2541
20
-34.9148
11
-19.0637
21
-35.0101
0
LINE
8
BLACK
6
CONTINUOUS
10
-19.0637
20
-35.0101
11
-18.9684
21
-35.1053
0
LINE
8
BLACK
6
CONTINUOUS
10
-18.9684
20
-35.1053
11
-18.8732
21
-35.2958
0
LINE
8
BLACK
6
CONTINUOUS
10
-18.8732
20
-35.2958
11
-18.7779
21
-35.6767
0
LINE
8
BLACK
6
CONTINUOUS
10
-18.7779
20
-35.6767
11
-18.7779
21
-36.1529
0
LINE
8
BLACK
6
CONTINUOUS
10
-18.7779
20
-36.1529
11
-18.8732
21
-36.5339
0
LINE
8
BLACK
6
CONTINUOUS
10
-18.8732
20
-36.5339
11
-18.9684
21
-36.7244
0
LINE
8
BLACK
6
CONTINUOUS
10
-18.9684
20
-36.7244
11
-19.0637
21
-36.8196
0
LINE
8
BLACK
6
CONTINUOUS
10
-19.0637
20
-36.8196
11
-19.2541
21
-36.9148
0
LINE
8
BLACK
6
CONTINUOUS
10
-19.2541
20
-36.9148
11
-19.4446
21
-36.9148
0
LINE
8
BLACK
6
CONTINUOUS
10
-19.4446
20
-36.9148
11
-19.6351
21
-36.8196
0
LINE
8
BLACK
6
CONTINUOUS
10
-19.6351
20
-36.8196
11
-19.7303
21
-36.7244
0
LINE
8
BLACK
6
CONTINUOUS
10
-19.7303
20
-36.7244
11
-19.8256
21
-36.5339
0
LINE
8
BLACK
6
CONTINUOUS
10
-19.8256
20
-36.5339
11
-19.9208
21
-36.1529
0
LINE
8
BLACK
6
CONTINUOUS
10
-19.9208
20
-36.1529
11
-19.9208
21
-35.6767
0
LINE
8
BLACK
6
CONTINUOUS
10
-19.9208
20
-35.6767
11
-19.8256
21
-35.2958
0
LINE
8
BLACK
6
CONTINUOUS
10
-19.8256
20
-35.2958
11
-19.7303
21
-35.1053
0
LINE
8
BLACK
6
CONTINUOUS
10
-19.7303
20
-35.1053
11
-19.6351
21
-35.0101
0
LINE
8
BLACK
6
CONTINUOUS
10
-19.6351
20
-35.0101
11
-19.4446
21
-34.9148
0
LINE
8
BLACK
6
CONTINUOUS
10
-17.9208
20
-36.9148
11
-17.9208
21
-35.5815
0
LINE
8
BLACK
6
CONTINUOUS
10
-17.9208
20
-35.772
11
-17.8256
21
-35.6767
0
LINE
8
BLACK
6
CONTINUOUS
10
-17.8256
20
-35.6767
11
-17.6351
21
-35.5815
0
LINE
8
BLACK
6
CONTINUOUS
10
-17.6351
20
-35.5815
11
-17.3494
21
-35.5815
0
LINE
8
BLACK
6
CONTINUOUS
10
-17.3494
20
-35.5815
11
-17.1589
21
-35.6767
0
LINE
8
BLACK
6
CONTINUOUS
10
-17.1589
20
-35.6767
11
-17.0637
21
-35.8672
0
LINE
8
BLACK
6
CONTINUOUS
10
-17.0637
20
-35.8672
11
-17.0637
21
-36.9148
0
LINE
8
BLACK
6
CONTINUOUS
10
-17.0637
20
-35.8672
11
-16.9684
21
-35.6767
0
LINE
8
BLACK
6
CONTINUOUS
10
-16.9684
20
-35.6767
11
-16.7779
21
-35.5815
0
LINE
8
BLACK
6
CONTINUOUS
10
-16.7779
20
-35.5815
11
-16.4922
21
-35.5815
0
LINE
8
BLACK
6
CONTINUOUS
10
-16.4922
20
-35.5815
11
-16.3018
21
-35.6767
0
LINE
8
BLACK
6
CONTINUOUS
10
-16.3018
20
-35.6767
11
-16.2065
21
-35.8672
0
LINE
8
BLACK
6
CONTINUOUS
10
-16.2065
20
-35.8672
11
-16.2065
21
-36.9148
0
LINE
8
BLACK
6
CONTINUOUS
10
-15.2541
20
-36.9148
11
-15.2541
21
-35.5815
0
LINE
8
BLACK
6
CONTINUOUS
10
-15.2541
20
-35.772
11
-15.1589
21
-35.6767
0
LINE
8
BLACK
6
CONTINUOUS
10
-15.1589
20
-35.6767
11
-14.9684
21
-35.5815
0
LINE
8
BLACK
6
CONTINUOUS
10
-14.9684
20
-35.5815
11
-14.6827
21
-35.5815
0
LINE
8
BLACK
6
CONTINUOUS
10
-14.6827
20
-35.5815
11
-14.4922
21
-35.6767
0
LINE
8
BLACK
6
CONTINUOUS
10
-14.4922
20
-35.6767
11
-14.397
21
-35.8672
0
LINE
8
BLACK
6
CONTINUOUS
10
-14.397
20
-35.8672
11
-14.397
21
-36.9148
0
LINE
8
BLACK
6
CONTINUOUS
10
-14.397
20
-35.8672
11
-14.3018
21
-35.6767
0
LINE
8
BLACK
6
CONTINUOUS
10
-14.3018
20
-35.6767
11
-14.1113
21
-35.5815
0
LINE
8
BLACK
6
CONTINUOUS
10
-14.1113
20
-35.5815
11
-13.8256
21
-35.5815
0
LINE
8
BLACK
6
CONTINUOUS
10
-13.8256
20
-35.5815
11
-13.6351
21
-35.6767
0
LINE
8
BLACK
6
CONTINUOUS
10
-13.6351
20
-35.6767
11
-13.5398
21
-35.8672
0
LINE
8
BLACK
6
CONTINUOUS
10
-13.5398
20
-35.8672
11
-13.5398
21
-36.9148
0
LINE
8
BLACK
6
CONTINUOUS
10
-9.63509
20
-34.8196
11
-11.3494
21
-37.391
0
LINE
8
BLACK
6
CONTINUOUS
10
-7.06366
20
-34.9148
11
-6.87318
21
-34.9148
0
LINE
8
BLACK
6
CONTINUOUS
10
-6.87318
20
-34.9148
11
-6.6827
21
-35.0101
0
LINE
8
BLACK
6
CONTINUOUS
10
-6.6827
20
-35.0101
11
-6.58747
21
-35.1053
0
LINE
8
BLACK
6
CONTINUOUS
10
-6.58747
20
-35.1053
11
-6.49223
21
-35.2958
0
LINE
8
BLACK
6
CONTINUOUS
10
-6.49223
20
-35.2958
11
-6.39699
21
-35.6767
0
LINE
8
BLACK
6
CONTINUOUS
10
-6.39699
20
-35.6767
11
-6.39699
21
-36.1529
0
LINE
8
BLACK
6
CONTINUOUS
10
-6.39699
20
-36.1529
11
-6.49223
21
-36.5339
0
LINE
8
BLACK
6
CONTINUOUS
10
-6.49223
20
-36.5339
11
-6.58747
21
-36.7244
0
LINE
8
BLACK
6
CONTINUOUS
10
-6.58747
20
-36.7244
11
-6.6827
21
-36.8196
0
LINE
8
BLACK
6
CONTINUOUS
10
-6.6827
20
-36.8196
11
-6.87318
21
-36.9148
0
LINE
8
BLACK
6
CONTINUOUS
10
-6.87318
20
-36.9148
11
-7.06366
21
-36.9148
0
LINE
8
BLACK
6
CONTINUOUS
10
-7.06366
20
-36.9148
11
-7.25413
21
-36.8196
0
LINE
8
BLACK
6
CONTINUOUS
10
-7.25413
20
-36.8196
11
-7.34937
21
-36.7244
0
LINE
8
BLACK
6
CONTINUOUS
10
-7.34937
20
-36.7244
11
-7.44461
21
-36.5339
0
LINE
8
BLACK
6
CONTINUOUS
10
-7.44461
20
-36.5339
11
-7.53985
21
-36.1529
0
LINE
8
BLACK
6
CONTINUOUS
10
-7.53985
20
-36.1529
11
-7.53985
21
-35.6767
0
LINE
8
BLACK
6
CONTINUOUS
10
-7.53985
20
-35.6767
11
-7.44461
21
-35.2958
0
LINE
8
BLACK
6
CONTINUOUS
10
-7.44461
20
-35.2958
11
-7.34937
21
-35.1053
0
LINE
8
BLACK
6
CONTINUOUS
10
-7.34937
20
-35.1053
11
-7.25413
21
-35.0101
0
LINE
8
BLACK
6
CONTINUOUS
10
-7.25413
20
-35.0101
11
-7.06366
21
-34.9148
0
LINE
8
BLACK
6
CONTINUOUS
10
-5.53985
20
-36.7244
11
-5.44461
21
-36.8196
0
LINE
8
BLACK
6
CONTINUOUS
10
-5.44461
20
-36.8196
11
-5.53985
21
-36.9148
0
LINE
8
BLACK
6
CONTINUOUS
10
-5.53985
20
-36.9148
11
-5.63509
21
-36.8196
0
LINE
8
BLACK
6
CONTINUOUS
10
-5.63509
20
-36.8196
11
-5.53985
21
-36.7244
0
LINE
8
BLACK
6
CONTINUOUS
10
-5.53985
20
-36.7244
11
-5.53985
21
-36.9148
0
LINE
8
BLACK
6
CONTINUOUS
10
-4.20651
20
-34.9148
11
-4.01604
21
-34.9148
0
LINE
8
BLACK
6
CONTINUOUS
10
-4.01604
20
-34.9148
11
-3.82556
21
-35.0101
0
LINE
8
BLACK
6
CONTINUOUS
10
-3.82556
20
-35.0101
11
-3.73032
21
-35.1053
0
LINE
8
BLACK
6
CONTINUOUS
10
-3.73032
20
-35.1053
11
-3.63509
21
-35.2958
0
LINE
8
BLACK
6
CONTINUOUS
10
-3.63509
20
-35.2958
11
-3.53985
21
-35.6767
0
LINE
8
BLACK
6
CONTINUOUS
10
-3.53985
20
-35.6767
11
-3.53985
21
-36.1529
0
LINE
8
BLACK
6
CONTINUOUS
10
-3.53985
20
-36.1529
11
-3.63509
21
-36.5339
0
LINE
8
BLACK
6
CONTINUOUS
10
-3.63509
20
-36.5339
11
-3.73032
21
-36.7244
0
LINE
8
BLACK
6
CONTINUOUS
10
-3.73032
20
-36.7244
11
-3.82556
21
-36.8196
0
LINE
8
BLACK
6
CONTINUOUS
10
-3.82556
20
-36.8196
11
-4.01604
21
-36.9148
0
LINE
8
BLACK
6
CONTINUOUS
10
-4.01604
20
-36.9148
11
-4.20651
21
-36.9148
0
LINE
8
BLACK
6
CONTINUOUS
10
-4.20651
20
-36.9148
11
-4.39699
21
-36.8196
0
LINE
8
BLACK
6
CONTINUOUS
10
-4.39699
20
-36.8196
11
-4.49223
21
-36.7244
0
LINE
8
BLACK
6
CONTINUOUS
10
-4.49223
20
-36.7244
11
-4.58747
21
-36.5339
0
LINE
8
BLACK
6
CONTINUOUS
10
-4.58747
20
-36.5339
11
-4.6827
21
-36.1529
0
LINE
8
BLACK
6
CONTINUOUS
10
-4.6827
20
-36.1529
11
-4.6827
21
-35.6767
0
LINE
8
BLACK
6
CONTINUOUS
10
-4.6827
20
-35.6767
11
-4.58747
21
-35.2958
0
LINE
8
BLACK
6
CONTINUOUS
10
-4.58747
20
-35.2958
11
-4.49223
21
-35.1053
0
LINE
8
BLACK
6
CONTINUOUS
10
-4.49223
20
-35.1053
11
-4.39699
21
-35.0101
0
LINE
8
BLACK
6
CONTINUOUS
10
-4.39699
20
-35.0101
11
-4.20651
21
-34.9148
0
LINE
8
BLACK
6
CONTINUOUS
10
-2.77794
20
-35.1053
11
-2.6827
21
-35.0101
0
LINE
8
BLACK
6
CONTINUOUS
10
-2.6827
20
-35.0101
11
-2.49223
21
-34.9148
0
LINE
8
BLACK
6
CONTINUOUS
10
-2.49223
20
-34.9148
11
-2.01604
21
-34.9148
0
LINE
8
BLACK
6
CONTINUOUS
10
-2.01604
20
-34.9148
11
-1.82556
21
-35.0101
0
LINE
8
BLACK
6
CONTINUOUS
10
-1.82556
20
-35.0101
11
-1.73032
21
-35.1053
0
LINE
8
BLACK
6
CONTINUOUS
10
-1.73032
20
-35.1053
11
-1.63509
21
-35.2958
0
LINE
8
BLACK
6
CONTINUOUS
10
-1.63509
20
-35.2958
11
-1.63509
21
-35.4863
0
LINE
8
BLACK
6
CONTINUOUS
10
-1.63509
20
-35.4863
11
-1.73032
21
-35.772
0
LINE
8
BLACK
6
CONTINUOUS
10
-1.73032
20
-35.772
11
-2.87318
21
-36.9148
0
LINE
8
BLACK
6
CONTINUOUS
10
-2.87318
20
-36.9148
11
-1.63509
21
-36.9148
0
LINE
8
BLACK
6
CONTINUOUS
10
0.174437
20
-34.9148
11
-0.777943
21
-34.9148
0
LINE
8
BLACK
6
CONTINUOUS
10
-0.777943
20
-34.9148
11
-0.873181
21
-35.8672
0
LINE
8
BLACK
6
CONTINUOUS
10
-0.873181
20
-35.8672
11
-0.777943
21
-35.772
0
LINE
8
BLACK
6
CONTINUOUS
10
-0.777943
20
-35.772
11
-0.587467
21
-35.6767
0
LINE
8
BLACK
6
CONTINUOUS
10
-0.587467
20
-35.6767
11
-0.111276
21
-35.6767
0
LINE
8
BLACK
6
CONTINUOUS
10
-0.111276
20
-35.6767
11
0.079199
21
-35.772
0
LINE
8
BLACK
6
CONTINUOUS
10
0.079199
20
-35.772
11
0.174437
21
-35.8672
0
LINE
8
BLACK
6
CONTINUOUS
10
0.174437
20
-35.8672
11
0.269675
21
-36.0577
0
LINE
8
BLACK
6
CONTINUOUS
10
0.269675
20
-36.0577
11
0.269675
21
-36.5339
0
LINE
8
BLACK
6
CONTINUOUS
10
0.269675
20
-36.5339
11
0.174437
21
-36.7244
0
LINE
8
BLACK
6
CONTINUOUS
10
0.174437
20
-36.7244
11
0.079199
21
-36.8196
0
LINE
8
BLACK
6
CONTINUOUS
10
0.079199
20
-36.8196
11
-0.111276
21
-36.9148
0
LINE
8
BLACK
6
CONTINUOUS
10
-0.111276
20
-36.9148
11
-0.587467
21
-36.9148
0
LINE
8
BLACK
6
CONTINUOUS
10
-0.587467
20
-36.9148
11
-0.777943
21
-36.8196
0
LINE
8
BLACK
6
CONTINUOUS
10
-0.777943
20
-36.8196
11
-0.873181
21
-36.7244
0
LINE
8
BLACK
6
CONTINUOUS
10
1.98396
20
-34.9148
11
1.60301
21
-34.9148
0
LINE
8
BLACK
6
CONTINUOUS
10
1.60301
20
-34.9148
11
1.41253
21
-35.0101
0
LINE
8
BLACK
6
CONTINUOUS
10
1.41253
20
-35.0101
11
1.31729
21
-35.1053
0
LINE
8
BLACK
6
CONTINUOUS
10
1.31729
20
-35.1053
11
1.12682
21
-35.391
0
LINE
8
BLACK
6
CONTINUOUS
10
1.12682
20
-35.391
11
1.03158
21
-35.772
0
LINE
8
BLACK
6
CONTINUOUS
10
1.03158
20
-35.772
11
1.03158
21
-36.5339
0
LINE
8
BLACK
6
CONTINUOUS
10
1.03158
20
-36.5339
11
1.12682
21
-36.7244
0
LINE
8
BLACK
6
CONTINUOUS
10
1.12682
20
-36.7244
11
1.22206
21
-36.8196
0
LINE
8
BLACK
6
CONTINUOUS
10
1.22206
20
-36.8196
11
1.41253
21
-36.9148
0
LINE
8
BLACK
6
CONTINUOUS
10
1.41253
20
-36.9148
11
1.79348
21
-36.9148
0
LINE
8
BLACK
6
CONTINUOUS
10
1.79348
20
-36.9148
11
1.98396
21
-36.8196
0
LINE
8
BLACK
6
CONTINUOUS
10
1.98396
20
-36.8196
11
2.0792
21
-36.7244
0
LINE
8
BLACK
6
CONTINUOUS
10
2.0792
20
-36.7244
11
2.17444
21
-36.5339
0
LINE
8
BLACK
6
CONTINUOUS
10
2.17444
20
-36.5339
11
2.17444
21
-36.0577
0
LINE
8
BLACK
6
CONTINUOUS
10
2.17444
20
-36.0577
11
2.0792
21
-35.8672
0
LINE
8
BLACK
6
CONTINUOUS
10
2.0792
20
-35.8672
11
1.98396
21
-35.772
0
LINE
8
BLACK
6
CONTINUOUS
10
1.98396
20
-35.772
11
1.79348
21
-35.6767
0
LINE
8
BLACK
6
CONTINUOUS
10
1.79348
20
-35.6767
11
1.41253
21
-35.6767
0
LINE
8
BLACK
6
CONTINUOUS
10
1.41253
20
-35.6767
11
1.22206
21
-35.772
0
LINE
8
BLACK
6
CONTINUOUS
10
1.22206
20
-35.772
11
1.12682
21
-35.8672
0
LINE
8
BLACK
6
CONTINUOUS
10
1.12682
20
-35.8672
11
1.03158
21
-36.0577
0
LINE
8
BLACK
6
CONTINUOUS
10
2.93634
20
-34.9148
11
2.93634
21
-35.2958
0
LINE
8
BLACK
6
CONTINUOUS
10
3.69825
20
-34.9148
11
3.69825
21
-35.2958
0
LINE
8
BLACK
6
CONTINUOUS
10
6.65063
20
-37.6767
11
6.55539
21
-37.5815
0
LINE
8
BLACK
6
CONTINUOUS
10
6.55539
20
-37.5815
11
6.36491
21
-37.2958
0
LINE
8
BLACK
6
CONTINUOUS
10
6.36491
20
-37.2958
11
6.26968
21
-37.1053
0
LINE
8
BLACK
6
CONTINUOUS
10
6.26968
20
-37.1053
11
6.17444
21
-36.8196
0
LINE
8
BLACK
6
CONTINUOUS
10
6.17444
20
-36.8196
11
6.0792
21
-36.3434
0
LINE
8
BLACK
6
CONTINUOUS
10
6.0792
20
-36.3434
11
6.0792
21
-35.9625
0
LINE
8
BLACK
6
CONTINUOUS
10
6.0792
20
-35.9625
11
6.17444
21
-35.4863
0
LINE
8
BLACK
6
CONTINUOUS
10
6.17444
20
-35.4863
11
6.26968
21
-35.2006
0
LINE
8
BLACK
6
CONTINUOUS
10
6.26968
20
-35.2006
11
6.36491
21
-35.0101
0
LINE
8
BLACK
6
CONTINUOUS
10
6.36491
20
-35.0101
11
6.55539
21
-34.7244
0
LINE
8
BLACK
6
CONTINUOUS
10
6.55539
20
-34.7244
11
6.65063
21
-34.6291
0
LINE
8
BLACK
6
CONTINUOUS
10
7.31729
20
-35.1053
11
7.41253
21
-35.0101
0
LINE
8
BLACK
6
CONTINUOUS
10
7.41253
20
-35.0101
11
7.60301
21
-34.9148
0
LINE
8
BLACK
6
CONTINUOUS
10
7.60301
20
-34.9148
11
8.0792
21
-34.9148
0
LINE
8
BLACK
6
CONTINUOUS
10
8.0792
20
-34.9148
11
8.26968
21
-35.0101
0
LINE
8
BLACK
6
CONTINUOUS
10
8.26968
20
-35.0101
11
8.36491
21
-35.1053
0
LINE
8
BLACK
6
CONTINUOUS
10
8.36491
20
-35.1053
11
8.46015
21
-35.2958
0
LINE
8
BLACK
6
CONTINUOUS
10
8.46015
20
-35.2958
11
8.46015
21
-35.4863
0
LINE
8
BLACK
6
CONTINUOUS
10
8.46015
20
-35.4863
11
8.36491
21
-35.772
0
LINE
8
BLACK
6
CONTINUOUS
10
8.36491
20
-35.772
11
7.22206
21
-36.9148
0
LINE
8
BLACK
6
CONTINUOUS
10
7.22206
20
-36.9148
11
8.46015
21
-36.9148
0
LINE
8
BLACK
6
CONTINUOUS
10
10.8411
20
-36.9148
11
10.8411
21
-34.9148
0
LINE
8
BLACK
6
CONTINUOUS
10
11.6982
20
-36.9148
11
11.6982
21
-35.8672
0
LINE
8
BLACK
6
CONTINUOUS
10
11.6982
20
-35.8672
11
11.603
21
-35.6767
0
LINE
8
BLACK
6
CONTINUOUS
10
11.603
20
-35.6767
11
11.4125
21
-35.5815
0
LINE
8
BLACK
6
CONTINUOUS
10
11.4125
20
-35.5815
11
11.1268
21
-35.5815
0
LINE
8
BLACK
6
CONTINUOUS
10
11.1268
20
-35.5815
11
10.9363
21
-35.6767
0
LINE
8
BLACK
6
CONTINUOUS
10
10.9363
20
-35.6767
11
10.8411
21
-35.772
0
LINE
8
BLACK
6
CONTINUOUS
10
12.9363
20
-36.9148
11
12.7459
21
-36.8196
0
LINE
8
BLACK
6
CONTINUOUS
10
12.7459
20
-36.8196
11
12.6506
21
-36.7244
0
LINE
8
BLACK
6
CONTINUOUS
10
12.6506
20
-36.7244
11
12.5554
21
-36.5339
0
LINE
8
BLACK
6
CONTINUOUS
10
12.5554
20
-36.5339
11
12.5554
21
-35.9625
0
LINE
8
BLACK
6
CONTINUOUS
10
12.5554
20
-35.9625
11
12.6506
21
-35.772
0
LINE
8
BLACK
6
CONTINUOUS
10
12.6506
20
-35.772
11
12.7459
21
-35.6767
0
LINE
8
BLACK
6
CONTINUOUS
10
12.7459
20
-35.6767
11
12.9363
21
-35.5815
0
LINE
8
BLACK
6
CONTINUOUS
10
12.9363
20
-35.5815
11
13.2221
21
-35.5815
0
LINE
8
BLACK
6
CONTINUOUS
10
13.2221
20
-35.5815
11
13.4125
21
-35.6767
0
LINE
8
BLACK
6
CONTINUOUS
10
13.4125
20
-35.6767
11
13.5078
21
-35.772
0
LINE
8
BLACK
6
CONTINUOUS
10
13.5078
20
-35.772
11
13.603
21
-35.9625
0
LINE
8
BLACK
6
CONTINUOUS
10
13.603
20
-35.9625
11
13.603
21
-36.5339
0
LINE
8
BLACK
6
CONTINUOUS
10
13.603
20
-36.5339
11
13.5078
21
-36.7244
0
LINE
8
BLACK
6
CONTINUOUS
10
13.5078
20
-36.7244
11
13.4125
21
-36.8196
0
LINE
8
BLACK
6
CONTINUOUS
10
13.4125
20
-36.8196
11
13.2221
21
-36.9148
0
LINE
8
BLACK
6
CONTINUOUS
10
13.2221
20
-36.9148
11
12.9363
21
-36.9148
0
LINE
8
BLACK
6
CONTINUOUS
10
14.7459
20
-36.9148
11
14.5554
21
-36.8196
0
LINE
8
BLACK
6
CONTINUOUS
10
14.5554
20
-36.8196
11
14.4602
21
-36.6291
0
LINE
8
BLACK
6
CONTINUOUS
10
14.4602
20
-36.6291
11
14.4602
21
-34.9148
0
LINE
8
BLACK
6
CONTINUOUS
10
16.2697
20
-36.8196
11
16.0792
21
-36.9148
0
LINE
8
BLACK
6
CONTINUOUS
10
16.0792
20
-36.9148
11
15.6982
21
-36.9148
0
LINE
8
BLACK
6
CONTINUOUS
10
15.6982
20
-36.9148
11
15.5078
21
-36.8196
0
LINE
8
BLACK
6
CONTINUOUS
10
15.5078
20
-36.8196
11
15.4125
21
-36.6291
0
LINE
8
BLACK
6
CONTINUOUS
10
15.4125
20
-36.6291
11
15.4125
21
-35.8672
0
LINE
8
BLACK
6
CONTINUOUS
10
15.4125
20
-35.8672
11
15.5078
21
-35.6767
0
LINE
8
BLACK
6
CONTINUOUS
10
15.5078
20
-35.6767
11
15.6982
21
-35.5815
0
LINE
8
BLACK
6
CONTINUOUS
10
15.6982
20
-35.5815
11
16.0792
21
-35.5815
0
LINE
8
BLACK
6
CONTINUOUS
10
16.0792
20
-35.5815
11
16.2697
21
-35.6767
0
LINE
8
BLACK
6
CONTINUOUS
10
16.2697
20
-35.6767
11
16.3649
21
-35.8672
0
LINE
8
BLACK
6
CONTINUOUS
10
16.3649
20
-35.8672
11
16.3649
21
-36.0577
0
LINE
8
BLACK
6
CONTINUOUS
10
16.3649
20
-36.0577
11
15.4125
21
-36.2482
0
LINE
8
BLACK
6
CONTINUOUS
10
17.1268
20
-36.8196
11
17.3173
21
-36.9148
0
LINE
8
BLACK
6
CONTINUOUS
10
17.3173
20
-36.9148
11
17.6982
21
-36.9148
0
LINE
8
BLACK
6
CONTINUOUS
10
17.6982
20
-36.9148
11
17.8887
21
-36.8196
0
LINE
8
BLACK
6
CONTINUOUS
10
17.8887
20
-36.8196
11
17.984
21
-36.6291
0
LINE
8
BLACK
6
CONTINUOUS
10
17.984
20
-36.6291
11
17.984
21
-36.5339
0
LINE
8
BLACK
6
CONTINUOUS
10
17.984
20
-36.5339
11
17.8887
21
-36.3434
0
LINE
8
BLACK
6
CONTINUOUS
10
17.8887
20
-36.3434
11
17.6982
21
-36.2482
0
LINE
8
BLACK
6
CONTINUOUS
10
17.6982
20
-36.2482
11
17.4125
21
-36.2482
0
LINE
8
BLACK
6
CONTINUOUS
10
17.4125
20
-36.2482
11
17.2221
21
-36.1529
0
LINE
8
BLACK
6
CONTINUOUS
10
17.2221
20
-36.1529
11
17.1268
21
-35.9625
0
LINE
8
BLACK
6
CONTINUOUS
10
17.1268
20
-35.9625
11
17.1268
21
-35.8672
0
LINE
8
BLACK
6
CONTINUOUS
10
17.1268
20
-35.8672
11
17.2221
21
-35.6767
0
LINE
8
BLACK
6
CONTINUOUS
10
17.2221
20
-35.6767
11
17.4125
21
-35.5815
0
LINE
8
BLACK
6
CONTINUOUS
10
17.4125
20
-35.5815
11
17.6982
21
-35.5815
0
LINE
8
BLACK
6
CONTINUOUS
10
17.6982
20
-35.5815
11
17.8887
21
-35.6767
0
LINE
8
BLACK
6
CONTINUOUS
10
18.6506
20
-37.6767
11
18.7459
21
-37.5815
0
LINE
8
BLACK
6
CONTINUOUS
10
18.7459
20
-37.5815
11
18.9363
21
-37.2958
0
LINE
8
BLACK
6
CONTINUOUS
10
18.9363
20
-37.2958
11
19.0316
21
-37.1053
0
LINE
8
BLACK
6
CONTINUOUS
10
19.0316
20
-37.1053
11
19.1268
21
-36.8196
0
LINE
8
BLACK
6
CONTINUOUS
10
19.1268
20
-36.8196
11
19.2221
21
-36.3434
0
LINE
8
BLACK
6
CONTINUOUS
10
19.2221
20
-36.3434
11
19.2221
21
-35.9625
0
LINE
8
BLACK
6
CONTINUOUS
10
19.2221
20
-35.9625
11
19.1268
21
-35.4863
0
LINE
8
BLACK
6
CONTINUOUS
10
19.1268
20
-35.4863
11
19.0316
21
-35.2006
0
LINE
8
BLACK
6
CONTINUOUS
10
19.0316
20
-35.2006
11
18.9363
21
-35.0101
0
LINE
8
BLACK
6
CONTINUOUS
10
18.9363
20
-35.0101
11
18.7459
21
-34.7244
0
LINE
8
BLACK
6
CONTINUOUS
10
18.7459
20
-34.7244
11
18.6506
21
-34.6291
0
LINE
8
BLACK
6
CONTINUOUS
10
22.2697
20
-37.6767
11
22.1744
21
-37.5815
0
LINE
8
BLACK
6
CONTINUOUS
10
22.1744
20
-37.5815
11
21.984
21
-37.2958
0
LINE
8
BLACK
6
CONTINUOUS
10
21.984
20
-37.2958
11
21.8887
21
-37.1053
0
LINE
8
BLACK
6
CONTINUOUS
10
21.8887
20
-37.1053
11
21.7935
21
-36.8196
0
LINE
8
BLACK
6
CONTINUOUS
10
21.7935
20
-36.8196
11
21.6982
21
-36.3434
0
LINE
8
BLACK
6
CONTINUOUS
10
21.6982
20
-36.3434
11
21.6982
21
-35.9625
0
LINE
8
BLACK
6
CONTINUOUS
10
21.6982
20
-35.9625
11
21.7935
21
-35.4863
0
LINE
8
BLACK
6
CONTINUOUS
10
21.7935
20
-35.4863
11
21.8887
21
-35.2006
0
LINE
8
BLACK
6
CONTINUOUS
10
21.8887
20
-35.2006
11
21.984
21
-35.0101
0
LINE
8
BLACK
6
CONTINUOUS
10
21.984
20
-35.0101
11
22.1744
21
-34.7244
0
LINE
8
BLACK
6
CONTINUOUS
10
22.1744
20
-34.7244
11
22.2697
21
-34.6291
0
LINE
8
BLACK
6
CONTINUOUS
10
23.0316
20
-35.5815
11
23.0316
21
-36.9148
0
LINE
8
BLACK
6
CONTINUOUS
10
23.0316
20
-35.772
11
23.1268
21
-35.6767
0
LINE
8
BLACK
6
CONTINUOUS
10
23.1268
20
-35.6767
11
23.3173
21
-35.5815
0
LINE
8
BLACK
6
CONTINUOUS
10
23.3173
20
-35.5815
11
23.603
21
-35.5815
0
LINE
8
BLACK
6
CONTINUOUS
10
23.603
20
-35.5815
11
23.7935
21
-35.6767
0
LINE
8
BLACK
6
CONTINUOUS
10
23.7935
20
-35.6767
11
23.8887
21
-35.8672
0
LINE
8
BLACK
6
CONTINUOUS
10
23.8887
20
-35.8672
11
23.8887
21
-36.9148
0
LINE
8
BLACK
6
CONTINUOUS
10
25.1268
20
-36.9148
11
24.9363
21
-36.8196
0
LINE
8
BLACK
6
CONTINUOUS
10
24.9363
20
-36.8196
11
24.8411
21
-36.7244
0
LINE
8
BLACK
6
CONTINUOUS
10
24.8411
20
-36.7244
11
24.7459
21
-36.5339
0
LINE
8
BLACK
6
CONTINUOUS
10
24.7459
20
-36.5339
11
24.7459
21
-35.9625
0
LINE
8
BLACK
6
CONTINUOUS
10
24.7459
20
-35.9625
11
24.8411
21
-35.772
0
LINE
8
BLACK
6
CONTINUOUS
10
24.8411
20
-35.772
11
24.9363
21
-35.6767
0
LINE
8
BLACK
6
CONTINUOUS
10
24.9363
20
-35.6767
11
25.1268
21
-35.5815
0
LINE
8
BLACK
6
CONTINUOUS
10
25.1268
20
-35.5815
11
25.4125
21
-35.5815
0
LINE
8
BLACK
6
CONTINUOUS
10
25.4125
20
-35.5815
11
25.603
21
-35.6767
0
LINE
8
BLACK
6
CONTINUOUS
10
25.603
20
-35.6767
11
25.6982
21
-35.772
0
LINE
8
BLACK
6
CONTINUOUS
10
25.6982
20
-35.772
11
25.7935
21
-35.9625
0
LINE
8
BLACK
6
CONTINUOUS
10
25.7935
20
-35.9625
11
25.7935
21
-36.5339
0
LINE
8
BLACK
6
CONTINUOUS
10
25.7935
20
-36.5339
11
25.6982
21
-36.7244
0
LINE
8
BLACK
6
CONTINUOUS
10
25.6982
20
-36.7244
11
25.603
21
-36.8196
0
LINE
8
BLACK
6
CONTINUOUS
10
25.603
20
-36.8196
11
25.4125
21
-36.9148
0
LINE
8
BLACK
6
CONTINUOUS
10
25.4125
20
-36.9148
11
25.1268
21
-36.9148
0
LINE
8
BLACK
6
CONTINUOUS
10
26.3649
20
-35.5815
11
27.1268
21
-35.5815
0
LINE
8
BLACK
6
CONTINUOUS
10
26.6506
20
-34.9148
11
26.6506
21
-36.6291
0
LINE
8
BLACK
6
CONTINUOUS
10
26.6506
20
-36.6291
11
26.7459
21
-36.8196
0
LINE
8
BLACK
6
CONTINUOUS
10
26.7459
20
-36.8196
11
26.9363
21
-36.9148
0
LINE
8
BLACK
6
CONTINUOUS
10
26.9363
20
-36.9148
11
27.1268
21
-36.9148
0
LINE
8
BLACK
6
CONTINUOUS
10
29.3173
20
-35.5815
11
29.3173
21
-37.5815
0
LINE
8
BLACK
6
CONTINUOUS
10
29.3173
20
-35.6767
11
29.5078
21
-35.5815
0
LINE
8
BLACK
6
CONTINUOUS
10
29.5078
20
-35.5815
11
29.8887
21
-35.5815
0
LINE
8
BLACK
6
CONTINUOUS
10
29.8887
20
-35.5815
11
30.0792
21
-35.6767
0
LINE
8
BLACK
6
CONTINUOUS
10
30.0792
20
-35.6767
11
30.1744
21
-35.772
0
LINE
8
BLACK
6
CONTINUOUS
10
30.1744
20
-35.772
11
30.2697
21
-35.9625
0
LINE
8
BLACK
6
CONTINUOUS
10
30.2697
20
-35.9625
11
30.2697
21
-36.5339
0
LINE
8
BLACK
6
CONTINUOUS
10
30.2697
20
-36.5339
11
30.1744
21
-36.7244
0
LINE
8
BLACK
6
CONTINUOUS
10
30.1744
20
-36.7244
11
30.0792
21
-36.8196
0
LINE
8
BLACK
6
CONTINUOUS
10
30.0792
20
-36.8196
11
29.8887
21
-36.9148
0
LINE
8
BLACK
6
CONTINUOUS
10
29.8887
20
-36.9148
11
29.5078
21
-36.9148
0
LINE
8
BLACK
6
CONTINUOUS
10
29.5078
20
-36.9148
11
29.3173
21
-36.8196
0
LINE
8
BLACK
6
CONTINUOUS
10
31.4125
20
-36.9148
11
31.2221
21
-36.8196
0
LINE
8
BLACK
6
CONTINUOUS
10
31.2221
20
-36.8196
11
31.1268
21
-36.6291
0
LINE
8
BLACK
6
CONTINUOUS
10
31.1268
20
-36.6291
11
31.1268
21
-34.9148
0
LINE
8
BLACK
6
CONTINUOUS
10
33.0316
20
-36.9148
11
33.0316
21
-35.8672
0
LINE
8
BLACK
6
CONTINUOUS
10
33.0316
20
-35.8672
11
32.9363
21
-35.6767
0
LINE
8
BLACK
6
CONTINUOUS
10
32.9363
20
-35.6767
11
32.7459
21
-35.5815
0
LINE
8
BLACK
6
CONTINUOUS
10
32.7459
20
-35.5815
11
32.3649
21
-35.5815
0
LINE
8
BLACK
6
CONTINUOUS
10
32.3649
20
-35.5815
11
32.1744
21
-35.6767
0
LINE
8
BLACK
6
CONTINUOUS
10
33.0316
20
-36.8196
11
32.8411
21
-36.9148
0
LINE
8
BLACK
6
CONTINUOUS
10
32.8411
20
-36.9148
11
32.3649
21
-36.9148
0
LINE
8
BLACK
6
CONTINUOUS
10
32.3649
20
-36.9148
11
32.1744
21
-36.8196
0
LINE
8
BLACK
6
CONTINUOUS
10
32.1744
20
-36.8196
11
32.0792
21
-36.6291
0
LINE
8
BLACK
6
CONTINUOUS
10
32.0792
20
-36.6291
11
32.0792
21
-36.4386
0
LINE
8
BLACK
6
CONTINUOUS
10
32.0792
20
-36.4386
11
32.1744
21
-36.2482
0
LINE
8
BLACK
6
CONTINUOUS
10
32.1744
20
-36.2482
11
32.3649
21
-36.1529
0
LINE
8
BLACK
6
CONTINUOUS
10
32.3649
20
-36.1529
11
32.8411
21
-36.1529
0
LINE
8
BLACK
6
CONTINUOUS
10
32.8411
20
-36.1529
11
33.0316
21
-36.0577
0
LINE
8
BLACK
6
CONTINUOUS
10
33.6983
20
-35.5815
11
34.4602
21
-35.5815
0
LINE
8
BLACK
6
CONTINUOUS
10
33.984
20
-34.9148
11
33.984
21
-36.6291
0
LINE
8
BLACK
6
CONTINUOUS
10
33.984
20
-36.6291
11
34.0792
21
-36.8196
0
LINE
8
BLACK
6
CONTINUOUS
10
34.0792
20
-36.8196
11
34.2697
21
-36.9148
0
LINE
8
BLACK
6
CONTINUOUS
10
34.2697
20
-36.9148
11
34.4602
21
-36.9148
0
LINE
8
BLACK
6
CONTINUOUS
10
35.8887
20
-36.8196
11
35.6983
21
-36.9148
0
LINE
8
BLACK
6
CONTINUOUS
10
35.6983
20
-36.9148
11
35.3173
21
-36.9148
0
LINE
8
BLACK
6
CONTINUOUS
10
35.3173
20
-36.9148
11
35.1268
21
-36.8196
0
LINE
8
BLACK
6
CONTINUOUS
10
35.1268
20
-36.8196
11
35.0316
21
-36.6291
0
LINE
8
BLACK
6
CONTINUOUS
10
35.0316
20
-36.6291
11
35.0316
21
-35.8672
0
LINE
8
BLACK
6
CONTINUOUS
10
35.0316
20
-35.8672
11
35.1268
21
-35.6767
0
LINE
8
BLACK
6
CONTINUOUS
10
35.1268
20
-35.6767
11
35.3173
21
-35.5815
0
LINE
8
BLACK
6
CONTINUOUS
10
35.3173
20
-35.5815
11
35.6983
21
-35.5815
0
LINE
8
BLACK
6
CONTINUOUS
10
35.6983
20
-35.5815
11
35.8887
21
-35.6767
0
LINE
8
BLACK
6
CONTINUOUS
10
35.8887
20
-35.6767
11
35.984
21
-35.8672
0
LINE
8
BLACK
6
CONTINUOUS
10
35.984
20
-35.8672
11
35.984
21
-36.0577
0
LINE
8
BLACK
6
CONTINUOUS
10
35.984
20
-36.0577
11
35.0316
21
-36.2482
0
LINE
8
BLACK
6
CONTINUOUS
10
37.6983
20
-36.9148
11
37.6983
21
-34.9148
0
LINE
8
BLACK
6
CONTINUOUS
10
37.6983
20
-36.8196
11
37.5078
21
-36.9148
0
LINE
8
BLACK
6
CONTINUOUS
10
37.5078
20
-36.9148
11
37.1268
21
-36.9148
0
LINE
8
BLACK
6
CONTINUOUS
10
37.1268
20
-36.9148
11
36.9363
21
-36.8196
0
LINE
8
BLACK
6
CONTINUOUS
10
36.9363
20
-36.8196
11
36.8411
21
-36.7244
0
LINE
8
BLACK
6
CONTINUOUS
10
36.8411
20
-36.7244
11
36.7459
21
-36.5339
0
LINE
8
BLACK
6
CONTINUOUS
10
36.7459
20
-36.5339
11
36.7459
21
-35.9625
0
LINE
8
BLACK
6
CONTINUOUS
10
36.7459
20
-35.9625
11
36.8411
21
-35.772
0
LINE
8
BLACK
6
CONTINUOUS
10
36.8411
20
-35.772
11
36.9363
21
-35.6767
0
LINE
8
BLACK
6
CONTINUOUS
10
36.9363
20
-35.6767
11
37.1268
21
-35.5815
0
LINE
8
BLACK
6
CONTINUOUS
10
37.1268
20
-35.5815
11
37.5078
21
-35.5815
0
LINE
8
BLACK
6
CONTINUOUS
10
37.5078
20
-35.5815
11
37.6983
21
-35.6767
0
LINE
8
BLACK
6
CONTINUOUS
10
38.4602
20
-37.6767
11
38.5554
21
-37.5815
0
LINE
8
BLACK
6
CONTINUOUS
10
38.5554
20
-37.5815
11
38.7459
21
-37.2958
0
LINE
8
BLACK
6
CONTINUOUS
10
38.7459
20
-37.2958
11
38.8411
21
-37.1053
0
LINE
8
BLACK
6
CONTINUOUS
10
38.8411
20
-37.1053
11
38.9363
21
-36.8196
0
LINE
8
BLACK
6
CONTINUOUS
10
38.9363
20
-36.8196
11
39.0316
21
-36.3434
0
LINE
8
BLACK
6
CONTINUOUS
10
39.0316
20
-36.3434
11
39.0316
21
-35.9625
0
LINE
8
BLACK
6
CONTINUOUS
10
39.0316
20
-35.9625
11
38.9363
21
-35.4863
0
LINE
8
BLACK
6
CONTINUOUS
10
38.9363
20
-35.4863
11
38.8411
21
-35.2006
0
LINE
8
BLACK
6
CONTINUOUS
10
38.8411
20
-35.2006
11
38.7459
21
-35.0101
0
LINE
8
BLACK
6
CONTINUOUS
10
38.7459
20
-35.0101
11
38.5554
21
-34.7244
0
LINE
8
BLACK
6
CONTINUOUS
10
38.5554
20
-34.7244
11
38.4602
21
-34.6291
  0
ENDSEC
  0
EOF
