M48
; DRILL file {KiCad 7.0.7} date Fri Mar  8 01:12:24 2024
; FORMAT={-:-/ absolute / metric / decimal}
; #@! TF.CreationDate,2024-03-08T01:12:24-05:00
; #@! TF.GenerationSoftware,Kicad,Pcbnew,7.0.7
; #@! TF.FileFunction,Plated,1,4,PTH
FMAT,2
METRIC
; #@! TA.AperFunction,Plated,PTH,ViaDrill
T1C0.300
; #@! TA.AperFunction,Plated,PTH,ComponentDrill
T2C0.300
; #@! TA.AperFunction,Plated,PTH,ViaDrill
T3C0.305
; #@! TA.AperFunction,Plated,PTH,ViaDrill
T4C0.508
; #@! TA.AperFunction,Plated,PTH,ComponentDrill
T5C0.600
; #@! TA.AperFunction,Plated,PTH,ComponentDrill
T6C0.650
; #@! TA.AperFunction,Plated,PTH,ComponentDrill
T7C1.000
; #@! TA.AperFunction,Plated,PTH,ComponentDrill
T8C1.100
%
G90
G05
T1
X-27.4Y2.4
X-27.4Y-3.2
X-24.0Y-13.2
X-22.3Y13.0
X-21.9Y9.0
X-21.8Y7.7
X-21.4Y11.9
X-20.875Y-4.175
X-20.6Y-18.7
X-20.5Y0.8
X-20.325Y-3.425
X-19.8Y-2.6
X-19.3Y14.1
X-18.4Y3.5
X-17.7Y2.9
X-16.2Y13.4
X-16.2Y7.1
X-15.0Y-2.15
X-13.3Y-8.2
X-12.75Y12.0
X-12.5Y10.75
X-11.5Y5.3
X-11.4Y17.5
X-10.85Y-8.65
X-10.6Y-6.7
X-10.5Y23.75
X-10.4Y-21.1
X-10.2Y-13.15
X-9.95Y-8.65
X-9.5Y11.25
X-8.4Y17.5
X-8.25Y11.25
X-8.2Y1.4
X-7.8Y21.4
X-7.7Y-3.2
X-7.5Y-10.15
X-7.4Y-11.6
X-7.4Y-12.5
X-7.0Y11.25
X-6.7Y-13.3
X-6.3Y-19.4
X-6.2Y-15.2
X-5.5Y2.3
X-4.7Y23.8
X-3.1Y11.9
X-2.1Y-8.7
X-2.0Y-21.75
X-1.9Y-17.8
X-0.75Y-8.1
X0.0Y-10.2
X0.0Y-21.75
X1.95Y-21.75
X3.1Y18.3
X3.1Y14.5
X4.0Y-16.4
X4.5Y7.1
X4.8Y25.1
X5.4Y-8.0
X7.2Y-15.2
X8.1Y17.6
X8.1Y9.9
X9.0Y23.8
X9.1Y1.5
X9.7Y-8.4
X10.1Y-12.3
X10.2Y9.9
X10.3Y-20.9
X10.351Y-14.415
X11.1Y-8.6
X11.201Y-14.415
X11.4Y-23.5
X11.8Y-18.9
X11.8Y-19.7
X11.9Y-20.9
X12.1Y-13.7
X12.3Y-2.5
X12.7Y-20.9
X13.4Y12.9
X13.5Y14.0
X13.75Y2.9
X14.5Y-16.0
X14.6Y22.0
X15.07Y-19.5
X15.099Y-8.001
X15.4Y-2.65
X15.701Y-7.399
X16.0Y-19.1
X16.4Y19.1
X16.4Y15.9
X16.5Y16.7
X16.8Y5.15
X16.8Y4.0
X17.1Y19.6
X17.5Y-5.2
X17.9Y11.4
X18.0Y8.7
X18.3Y15.4
X18.4Y18.5
X18.6Y-2.6
X19.4Y-11.5
X19.7Y-5.2
X19.7Y-15.1
X20.8Y-9.15
X20.875Y-7.275
X20.95Y-14.3
X21.0Y15.7
X21.3Y-17.9
X21.3Y-20.9
X22.7Y-15.5
X22.9Y11.4
X23.3Y8.7
X23.5Y0.75
X23.7Y-7.9
X24.1Y-7.1
X24.4Y-1.8
X25.4Y-3.1
X26.8Y6.0
X27.6Y-4.1
T2
X-13.25Y-10.356
X13.75Y4.65
X15.0Y-10.6
X15.0Y-12.0
X16.4Y-10.6
X16.4Y-12.0
T3
X-22.2Y15.7
X-18.6Y13.4
X-16.4Y-8.2
X-16.2Y14.3
X-16.2Y11.7
X-13.3Y15.6
X-12.0Y7.7
X-11.4Y22.0
X-10.3Y2.15
X-8.2Y9.2
X-6.6Y13.9
X-6.3Y-20.7
X6.0Y-22.75
X6.5Y10.7
X8.1Y22.0
X8.3Y6.55
X11.6Y11.7
X12.35Y-14.6
X17.0Y-7.5
X18.85Y5.4
X23.8Y5.4
X23.9Y-9.2
X26.55Y-2.4
T4
X-17.5Y-13.1
X6.85Y-10.177
X11.5Y0.7
X14.2Y-20.7
X19.8Y-20.7
T6
X-17.265Y0.645
X-17.265Y-0.625
X-15.995Y0.645
X-15.995Y-0.625
X-14.725Y0.645
X-14.725Y-0.625
X14.735Y0.645
X14.735Y-0.625
X16.005Y0.645
X16.005Y-0.625
X17.275Y0.645
X17.275Y-0.625
T7
X-24.825Y8.905
X-24.825Y6.365
X-24.825Y3.825
X-24.825Y1.285
X-24.825Y-1.255
X-24.825Y-3.795
X-24.825Y-6.335
X-24.825Y-8.875
T8
X-2.517Y2.517
X-2.517Y-2.503
X2.503Y2.517
T5
X12.68Y-22.16G85X12.68Y-23.26
G05
X12.68Y-26.49G85X12.68Y-27.29
G05
X21.32Y-22.16G85X21.32Y-23.26
G05
X21.32Y-26.49G85X21.32Y-27.29
G05
T7
X-18.25Y-15.7G85X-15.75Y-15.7
G05
X-18.0Y-21.7G85X-16.0Y-21.7
G05
X-12.3Y-17.7G85X-12.3Y-19.7
G05
T0
M30
