%TF.GenerationSoftware,KiCad,Pcbnew,7.0.7*%
%TF.CreationDate,2024-03-08T01:12:17-05:00*%
%TF.ProjectId,ESP32Sensor-Sensor_board,45535033-3253-4656-9e73-6f722d53656e,rev?*%
%TF.SameCoordinates,Original*%
%TF.FileFunction,Soldermask,Top*%
%TF.FilePolarity,Negative*%
%FSLAX46Y46*%
G04 Gerber Fmt 4.6, Leading zero omitted, Abs format (unit mm)*
G04 Created by KiCad (PCBNEW 7.0.7) date 2024-03-08 01:12:17*
%MOMM*%
%LPD*%
G01*
G04 APERTURE LIST*
G04 Aperture macros list*
%AMRoundRect*
0 Rectangle with rounded corners*
0 $1 Rounding radius*
0 $2 $3 $4 $5 $6 $7 $8 $9 X,Y pos of 4 corners*
0 Add a 4 corners polygon primitive as box body*
4,1,4,$2,$3,$4,$5,$6,$7,$8,$9,$2,$3,0*
0 Add four circle primitives for the rounded corners*
1,1,$1+$1,$2,$3*
1,1,$1+$1,$4,$5*
1,1,$1+$1,$6,$7*
1,1,$1+$1,$8,$9*
0 Add four rect primitives between the rounded corners*
20,1,$1+$1,$2,$3,$4,$5,0*
20,1,$1+$1,$4,$5,$6,$7,0*
20,1,$1+$1,$6,$7,$8,$9,0*
20,1,$1+$1,$8,$9,$2,$3,0*%
%AMHorizOval*
0 Thick line with rounded ends*
0 $1 width*
0 $2 $3 position (X,Y) of the first rounded end (center of the circle)*
0 $4 $5 position (X,Y) of the second rounded end (center of the circle)*
0 Add line between two ends*
20,1,$1,$2,$3,$4,$5,0*
0 Add two circle primitives to create the rounded ends*
1,1,$1,$2,$3*
1,1,$1,$4,$5*%
G04 Aperture macros list end*
%ADD10RoundRect,0.147500X0.172500X-0.147500X0.172500X0.147500X-0.172500X0.147500X-0.172500X-0.147500X0*%
%ADD11RoundRect,0.113000X1.107000X0.452000X-1.107000X0.452000X-1.107000X-0.452000X1.107000X-0.452000X0*%
%ADD12RoundRect,0.100000X-0.637500X-0.100000X0.637500X-0.100000X0.637500X0.100000X-0.637500X0.100000X0*%
%ADD13RoundRect,0.135000X-0.185000X0.135000X-0.185000X-0.135000X0.185000X-0.135000X0.185000X0.135000X0*%
%ADD14RoundRect,0.140000X0.170000X-0.140000X0.170000X0.140000X-0.170000X0.140000X-0.170000X-0.140000X0*%
%ADD15RoundRect,0.250000X0.250000X0.475000X-0.250000X0.475000X-0.250000X-0.475000X0.250000X-0.475000X0*%
%ADD16RoundRect,0.140000X-0.140000X-0.170000X0.140000X-0.170000X0.140000X0.170000X-0.140000X0.170000X0*%
%ADD17RoundRect,0.150000X0.150000X-0.825000X0.150000X0.825000X-0.150000X0.825000X-0.150000X-0.825000X0*%
%ADD18C,0.650000*%
%ADD19R,0.600000X1.080000*%
%ADD20R,0.300000X1.140000*%
%ADD21O,1.000000X2.100000*%
%ADD22O,1.000000X1.800000*%
%ADD23RoundRect,0.218750X0.218750X0.256250X-0.218750X0.256250X-0.218750X-0.256250X0.218750X-0.256250X0*%
%ADD24RoundRect,0.135000X0.185000X-0.135000X0.185000X0.135000X-0.185000X0.135000X-0.185000X-0.135000X0*%
%ADD25RoundRect,0.135000X-0.135000X-0.185000X0.135000X-0.185000X0.135000X0.185000X-0.135000X0.185000X0*%
%ADD26RoundRect,0.140000X-0.170000X0.140000X-0.170000X-0.140000X0.170000X-0.140000X0.170000X0.140000X0*%
%ADD27C,1.000000*%
%ADD28R,1.560000X0.650000*%
%ADD29RoundRect,0.140000X0.140000X0.170000X-0.140000X0.170000X-0.140000X-0.170000X0.140000X-0.170000X0*%
%ADD30R,1.700000X1.700000*%
%ADD31O,1.700000X1.700000*%
%ADD32RoundRect,0.100000X0.637500X0.100000X-0.637500X0.100000X-0.637500X-0.100000X0.637500X-0.100000X0*%
%ADD33RoundRect,0.147500X0.147500X0.172500X-0.147500X0.172500X-0.147500X-0.172500X0.147500X-0.172500X0*%
%ADD34RoundRect,0.135000X0.135000X0.185000X-0.135000X0.185000X-0.135000X-0.185000X0.135000X-0.185000X0*%
%ADD35RoundRect,0.150000X-0.875000X-0.150000X0.875000X-0.150000X0.875000X0.150000X-0.875000X0.150000X0*%
%ADD36R,0.700000X0.250000*%
%ADD37R,0.610000X2.200000*%
%ADD38RoundRect,0.225000X-0.250000X0.225000X-0.250000X-0.225000X0.250000X-0.225000X0.250000X0.225000X0*%
%ADD39RoundRect,0.250000X-0.475000X0.250000X-0.475000X-0.250000X0.475000X-0.250000X0.475000X0.250000X0*%
%ADD40R,4.500000X2.000000*%
%ADD41O,4.000000X2.000000*%
%ADD42O,2.000000X4.200000*%
%ADD43R,0.900000X1.500000*%
%ADD44RoundRect,0.250000X0.325000X1.100000X-0.325000X1.100000X-0.325000X-1.100000X0.325000X-1.100000X0*%
%ADD45RoundRect,0.150000X0.875000X0.150000X-0.875000X0.150000X-0.875000X-0.150000X0.875000X-0.150000X0*%
%ADD46R,1.000000X1.000000*%
%ADD47O,1.000000X1.000000*%
%ADD48HorizOval,1.600000X0.176777X0.176777X-0.176777X-0.176777X0*%
%ADD49HorizOval,1.600000X0.000000X0.000000X0.000000X0.000000X0*%
G04 APERTURE END LIST*
D10*
%TO.C,FB2*%
X11600000Y9615000D03*
X11600000Y10585000D03*
%TD*%
D11*
%TO.C,S2*%
X22550000Y7430000D03*
X13950000Y7430000D03*
X22550000Y9970000D03*
X13950000Y9970000D03*
%TD*%
D12*
%TO.C,U1*%
X-20562500Y10350000D03*
X-20562500Y9700000D03*
X-20562500Y9050000D03*
X-20562500Y8400000D03*
X-20562500Y7750000D03*
X-20562500Y7100000D03*
X-20562500Y6450000D03*
X-14837500Y6450000D03*
X-14837500Y7100000D03*
X-14837500Y7750000D03*
X-14837500Y8400000D03*
X-14837500Y9050000D03*
X-14837500Y9700000D03*
X-14837500Y10350000D03*
%TD*%
D13*
%TO.C,R6*%
X-9500000Y10310000D03*
X-9500000Y9290000D03*
%TD*%
D14*
%TO.C,C9*%
X-7000000Y12020000D03*
X-7000000Y12980000D03*
%TD*%
D15*
%TO.C,C18*%
X-7650000Y-19200000D03*
X-9550000Y-19200000D03*
%TD*%
D14*
%TO.C,C6*%
X-22300000Y13720000D03*
X-22300000Y14680000D03*
%TD*%
D16*
%TO.C,C15*%
X17920000Y19600000D03*
X18880000Y19600000D03*
%TD*%
D17*
%TO.C,U4*%
X-11655000Y15025000D03*
X-10385000Y15025000D03*
X-9115000Y15025000D03*
X-7845000Y15025000D03*
X-7845000Y19975000D03*
X-9115000Y19975000D03*
X-10385000Y19975000D03*
X-11655000Y19975000D03*
%TD*%
D18*
%TO.C,J3*%
X14110000Y-23210000D03*
X19890000Y-23210000D03*
D19*
X13800000Y-22110000D03*
X14600000Y-22110000D03*
D20*
X15750000Y-22140000D03*
X16750000Y-22140000D03*
X17250000Y-22140000D03*
X18250000Y-22140000D03*
D19*
X20200000Y-22110000D03*
X19400000Y-22110000D03*
D20*
X18750000Y-22140000D03*
X17750000Y-22140000D03*
X16250000Y-22140000D03*
X15250000Y-22140000D03*
D21*
X12680000Y-22710000D03*
D22*
X12680000Y-26890000D03*
X21320000Y-26890000D03*
D21*
X21320000Y-22710000D03*
%TD*%
D23*
%TO.C,D3*%
X8687500Y-22600000D03*
X7112500Y-22600000D03*
%TD*%
D24*
%TO.C,R9*%
X-9500000Y11990000D03*
X-9500000Y13010000D03*
%TD*%
D25*
%TO.C,R24*%
X7090000Y-20000000D03*
X8110000Y-20000000D03*
%TD*%
D14*
%TO.C,C3*%
X4500000Y7920000D03*
X4500000Y8880000D03*
%TD*%
%TO.C,C8*%
X-10500000Y22020000D03*
X-10500000Y22980000D03*
%TD*%
D25*
%TO.C,R12*%
X7090000Y12900000D03*
X8110000Y12900000D03*
%TD*%
D13*
%TO.C,R2*%
X-14500000Y19810000D03*
X-14500000Y18790000D03*
%TD*%
D14*
%TO.C,C11*%
X9000000Y22020000D03*
X9000000Y22980000D03*
%TD*%
D26*
%TO.C,C12*%
X8100000Y11680000D03*
X8100000Y10720000D03*
%TD*%
D13*
%TO.C,R3*%
X-16900000Y19810000D03*
X-16900000Y18790000D03*
%TD*%
D27*
%TO.C,TP3*%
X-21600000Y-7350000D03*
%TD*%
D25*
%TO.C,R14*%
X14590000Y17900000D03*
X15610000Y17900000D03*
%TD*%
D17*
%TO.C,U6*%
X7845000Y15025000D03*
X9115000Y15025000D03*
X10385000Y15025000D03*
X11655000Y15025000D03*
X11655000Y19975000D03*
X10385000Y19975000D03*
X9115000Y19975000D03*
X7845000Y19975000D03*
%TD*%
D24*
%TO.C,R11*%
X13500000Y16890000D03*
X13500000Y17910000D03*
%TD*%
D25*
%TO.C,R22*%
X19790000Y-1600000D03*
X20810000Y-1600000D03*
%TD*%
D28*
%TO.C,CR1*%
X15650000Y-15050000D03*
X15650000Y-16000000D03*
X15650000Y-16950000D03*
X18350000Y-16950000D03*
X18350000Y-16000000D03*
X18350000Y-15050000D03*
%TD*%
D25*
%TO.C,R13*%
X9190000Y12900000D03*
X10210000Y12900000D03*
%TD*%
D11*
%TO.C,S1*%
X4300000Y-21520000D03*
X-4300000Y-21520000D03*
X4300000Y-18980000D03*
X-4300000Y-18980000D03*
%TD*%
D14*
%TO.C,C32*%
X-13000000Y6720000D03*
X-13000000Y7680000D03*
%TD*%
D29*
%TO.C,C22*%
X-7370000Y-15250000D03*
X-8330000Y-15250000D03*
%TD*%
D30*
%TO.C,J6*%
X-24825000Y-8875000D03*
D31*
X-24825000Y-6335000D03*
X-24825000Y-3795000D03*
X-24825000Y-1255000D03*
X-24825000Y1285000D03*
X-24825000Y3825000D03*
X-24825000Y6365000D03*
X-24825000Y8905000D03*
%TD*%
D13*
%TO.C,R4*%
X-18100000Y19810000D03*
X-18100000Y18790000D03*
%TD*%
D26*
%TO.C,C13*%
X10200000Y11680000D03*
X10200000Y10720000D03*
%TD*%
D32*
%TO.C,U2*%
X-14837500Y13450000D03*
X-14837500Y14100000D03*
X-14837500Y14750000D03*
X-14837500Y15400000D03*
X-14837500Y16050000D03*
X-14837500Y16700000D03*
X-14837500Y17350000D03*
X-20562500Y17350000D03*
X-20562500Y16700000D03*
X-20562500Y16050000D03*
X-20562500Y15400000D03*
X-20562500Y14750000D03*
X-20562500Y14100000D03*
X-20562500Y13450000D03*
%TD*%
D33*
%TO.C,FB4*%
X5485000Y2500000D03*
X4515000Y2500000D03*
%TD*%
D16*
%TO.C,C27*%
X19820000Y-400000D03*
X20780000Y-400000D03*
%TD*%
D14*
%TO.C,C7*%
X-10750000Y12020000D03*
X-10750000Y12980000D03*
%TD*%
D16*
%TO.C,C4*%
X-20680000Y11900000D03*
X-19720000Y11900000D03*
%TD*%
D29*
%TO.C,C14*%
X12580000Y12900000D03*
X11620000Y12900000D03*
%TD*%
D23*
%TO.C,D2*%
X8687500Y-18600000D03*
X7112500Y-18600000D03*
%TD*%
D27*
%TO.C,TP4*%
X-12800000Y9200000D03*
%TD*%
D26*
%TO.C,C10*%
X-8250000Y12980000D03*
X-8250000Y12020000D03*
%TD*%
D34*
%TO.C,R15*%
X15610000Y19100000D03*
X14590000Y19100000D03*
%TD*%
D14*
%TO.C,C33*%
X-13200000Y13620000D03*
X-13200000Y14580000D03*
%TD*%
D35*
%TO.C,U3*%
X-4650000Y22115000D03*
X-4650000Y20845000D03*
X-4650000Y19575000D03*
X-4650000Y18305000D03*
X-4650000Y17035000D03*
X-4650000Y15765000D03*
X-4650000Y14495000D03*
X-4650000Y13225000D03*
X-4650000Y11955000D03*
X-4650000Y10685000D03*
X4650000Y10685000D03*
X4650000Y11955000D03*
X4650000Y13225000D03*
X4650000Y14495000D03*
X4650000Y15765000D03*
X4650000Y17035000D03*
X4650000Y18305000D03*
X4650000Y19575000D03*
X4650000Y20845000D03*
X4650000Y22115000D03*
%TD*%
D24*
%TO.C,R16*%
X-7650000Y-17410000D03*
X-7650000Y-16390000D03*
%TD*%
D36*
%TO.C,U7*%
X19272599Y16199999D03*
X19272599Y16699999D03*
X19272599Y17199999D03*
X19272599Y17699999D03*
X17422599Y17699999D03*
X17422599Y17199999D03*
X17422599Y16699999D03*
X17422599Y16199999D03*
D37*
X18347599Y16949999D03*
%TD*%
D24*
%TO.C,R5*%
X-7000000Y9290000D03*
X-7000000Y10310000D03*
%TD*%
D38*
%TO.C,C23*%
X10400000Y-9825000D03*
X10400000Y-11375000D03*
%TD*%
D39*
%TO.C,C26*%
X25200000Y-6050000D03*
X25200000Y-7950000D03*
%TD*%
D40*
%TO.C,J1*%
X-17000000Y-15700000D03*
D41*
X-17000000Y-21700000D03*
D42*
X-12300000Y-18700000D03*
%TD*%
D34*
%TO.C,R8*%
X-10740000Y10750000D03*
X-11760000Y10750000D03*
%TD*%
D11*
%TO.C,S3*%
X4300000Y-13270000D03*
X-4300000Y-13270000D03*
X4300000Y-10730000D03*
X-4300000Y-10730000D03*
%TD*%
D43*
%TO.C,D1*%
X-15850000Y-5400000D03*
X-19150000Y-5400000D03*
X-19150000Y-10300000D03*
X-15850000Y-10300000D03*
%TD*%
D44*
%TO.C,C31*%
X9700000Y-6400000D03*
X6750000Y-6400000D03*
%TD*%
D45*
%TO.C,U13*%
X22250000Y-12345000D03*
X22250000Y-11075000D03*
X22250000Y-9805000D03*
X22250000Y-8535000D03*
X22250000Y-7265000D03*
X22250000Y-5995000D03*
X22250000Y-4725000D03*
X22250000Y-3455000D03*
X12950000Y-3455000D03*
X12950000Y-4725000D03*
X12950000Y-5995000D03*
X12950000Y-7265000D03*
X12950000Y-8535000D03*
X12950000Y-9805000D03*
X12950000Y-11075000D03*
X12950000Y-12345000D03*
%TD*%
D25*
%TO.C,R25*%
X7090000Y-21200000D03*
X8110000Y-21200000D03*
%TD*%
D44*
%TO.C,C28*%
X9700000Y-2900000D03*
X6750000Y-2900000D03*
%TD*%
D13*
%TO.C,R7*%
X-12000000Y13010000D03*
X-12000000Y11990000D03*
%TD*%
D24*
%TO.C,R10*%
X13500000Y14790000D03*
X13500000Y15810000D03*
%TD*%
D29*
%TO.C,C17*%
X-7420000Y-21000000D03*
X-8380000Y-21000000D03*
%TD*%
%TO.C,C5*%
X-14020000Y11900000D03*
X-14980000Y11900000D03*
%TD*%
D10*
%TO.C,FB1*%
X5800000Y7915000D03*
X5800000Y8885000D03*
%TD*%
D14*
%TO.C,C16*%
X21000000Y16420000D03*
X21000000Y17380000D03*
%TD*%
D25*
%TO.C,R23*%
X19790000Y800000D03*
X20810000Y800000D03*
%TD*%
D33*
%TO.C,FB3*%
X22285000Y14450000D03*
X21315000Y14450000D03*
%TD*%
D46*
%TO.C,J4*%
X17275000Y-625000D03*
D47*
X17275000Y645000D03*
X16005000Y-625000D03*
X16005000Y645000D03*
X14735000Y-625000D03*
X14735000Y645000D03*
%TD*%
D46*
%TO.C,J7*%
X-14725000Y-625000D03*
D47*
X-14725000Y645000D03*
X-15995000Y-625000D03*
X-15995000Y645000D03*
X-17265000Y-625000D03*
X-17265000Y645000D03*
%TD*%
D48*
%TO.C,PD1*%
X-2517300Y-2503158D03*
D49*
X-2517300Y2517300D03*
X2503158Y2517300D03*
%TD*%
M02*
