%TF.GenerationSoftware,KiCad,Pcbnew,7.0.7*%
%TF.CreationDate,2024-03-08T01:12:17-05:00*%
%TF.ProjectId,ESP32Sensor-Sensor_board,45535033-3253-4656-9e73-6f722d53656e,rev?*%
%TF.SameCoordinates,Original*%
%TF.FileFunction,Copper,L2,Inr*%
%TF.FilePolarity,Positive*%
%FSLAX46Y46*%
G04 Gerber Fmt 4.6, Leading zero omitted, Abs format (unit mm)*
G04 Created by KiCad (PCBNEW 7.0.7) date 2024-03-08 01:12:17*
%MOMM*%
%LPD*%
G01*
G04 APERTURE LIST*
G04 Aperture macros list*
%AMHorizOval*
0 Thick line with rounded ends*
0 $1 width*
0 $2 $3 position (X,Y) of the first rounded end (center of the circle)*
0 $4 $5 position (X,Y) of the second rounded end (center of the circle)*
0 Add line between two ends*
20,1,$1,$2,$3,$4,$5,0*
0 Add two circle primitives to create the rounded ends*
1,1,$1,$2,$3*
1,1,$1,$4,$5*%
G04 Aperture macros list end*
%TA.AperFunction,ComponentPad*%
%ADD10O,1.000000X2.100000*%
%TD*%
%TA.AperFunction,ComponentPad*%
%ADD11O,1.000000X1.800000*%
%TD*%
%TA.AperFunction,ComponentPad*%
%ADD12R,1.700000X1.700000*%
%TD*%
%TA.AperFunction,ComponentPad*%
%ADD13O,1.700000X1.700000*%
%TD*%
%TA.AperFunction,ComponentPad*%
%ADD14R,4.500000X2.000000*%
%TD*%
%TA.AperFunction,ComponentPad*%
%ADD15O,4.000000X2.000000*%
%TD*%
%TA.AperFunction,ComponentPad*%
%ADD16O,2.000000X4.200000*%
%TD*%
%TA.AperFunction,ComponentPad*%
%ADD17C,0.700000*%
%TD*%
%TA.AperFunction,ComponentPad*%
%ADD18R,1.000000X1.000000*%
%TD*%
%TA.AperFunction,ComponentPad*%
%ADD19O,1.000000X1.000000*%
%TD*%
%TA.AperFunction,ComponentPad*%
%ADD20HorizOval,1.600000X0.176777X0.176777X-0.176777X-0.176777X0*%
%TD*%
%TA.AperFunction,ComponentPad*%
%ADD21HorizOval,1.600000X0.000000X0.000000X0.000000X0.000000X0*%
%TD*%
%TA.AperFunction,ViaPad*%
%ADD22C,0.600000*%
%TD*%
%TA.AperFunction,ViaPad*%
%ADD23C,0.762000*%
%TD*%
%TA.AperFunction,ViaPad*%
%ADD24C,1.016000*%
%TD*%
%TA.AperFunction,Conductor*%
%ADD25C,0.200000*%
%TD*%
%TA.AperFunction,Conductor*%
%ADD26C,0.228600*%
%TD*%
G04 APERTURE END LIST*
D10*
%TO.N,N/C*%
%TO.C,J3*%
X12680000Y-22710000D03*
D11*
X12680000Y-26890000D03*
X21320000Y-26890000D03*
D10*
X21320000Y-22710000D03*
%TD*%
D12*
%TO.N,GND*%
%TO.C,J6*%
X-24825000Y-8875000D03*
D13*
%TO.N,+3.3V*%
X-24825000Y-6335000D03*
%TO.N,SCL*%
X-24825000Y-3795000D03*
%TO.N,SDA*%
X-24825000Y-1255000D03*
%TO.N,GND*%
X-24825000Y1285000D03*
%TO.N,GPIO1*%
X-24825000Y3825000D03*
%TO.N,Mux_Sel_A*%
X-24825000Y6365000D03*
%TO.N,Mux_Sel_B*%
X-24825000Y8905000D03*
%TD*%
D14*
%TO.N,+12V*%
%TO.C,J1*%
X-17000000Y-15700000D03*
D15*
%TO.N,GND*%
X-17000000Y-21700000D03*
D16*
X-12300000Y-18700000D03*
%TD*%
D17*
%TO.N,GND*%
%TO.C,U14*%
X-13250000Y-10356250D03*
%TD*%
%TO.N,GND*%
%TO.C,U11*%
X13750000Y4650000D03*
%TD*%
D18*
%TO.N,INT*%
%TO.C,J4*%
X17275000Y-625000D03*
D19*
%TO.N,+3.3V*%
X17275000Y645000D03*
%TO.N,SCL*%
X16005000Y-625000D03*
%TO.N,SDA*%
X16005000Y645000D03*
%TO.N,GND*%
X14735000Y-625000D03*
%TO.N,+12V*%
X14735000Y645000D03*
%TD*%
D18*
%TO.N,unconnected-(J7-Pin_1-Pad1)*%
%TO.C,J7*%
X-14725000Y-625000D03*
D19*
%TO.N,unconnected-(J7-Pin_2-Pad2)*%
X-14725000Y645000D03*
%TO.N,LED_REF*%
X-15995000Y-625000D03*
%TO.N,ESP_PWM_DIM*%
X-15995000Y645000D03*
%TO.N,GND*%
X-17265000Y-625000D03*
%TO.N,+12V*%
X-17265000Y645000D03*
%TD*%
D17*
%TO.N,GND*%
%TO.C,U15*%
X16400000Y-10600000D03*
X15000000Y-10600000D03*
X16400000Y-12000000D03*
X15000000Y-12000000D03*
%TD*%
D20*
%TO.N,Net-(PD1-An)*%
%TO.C,PD1*%
X-2517300Y-2503158D03*
D21*
%TO.N,+5VD*%
X-2517300Y2517300D03*
X2503158Y2517300D03*
%TD*%
D22*
%TO.N,GND*%
X-16200000Y7100000D03*
X9000000Y23800000D03*
X17900000Y11400000D03*
X-12750000Y12000000D03*
X16800000Y4000000D03*
X13500000Y14000000D03*
X7200000Y-15200000D03*
X-22300000Y13000000D03*
X11400000Y-23500000D03*
X20875000Y-7275000D03*
X4000000Y-16400000D03*
X17500000Y-5200000D03*
X10200000Y9900000D03*
X-8200000Y1400000D03*
X-5500000Y2300000D03*
X11900000Y-20900000D03*
X-27400000Y-3200000D03*
X16800000Y5150000D03*
X-2000000Y-21750000D03*
X-12500000Y10750000D03*
X-6200000Y-15200000D03*
X3100000Y18300000D03*
X4800000Y25100000D03*
X-19300000Y14100000D03*
X21300000Y-20900000D03*
X-21800000Y7700000D03*
X8100000Y9900000D03*
X-7000000Y11250000D03*
X-24000000Y-13200000D03*
X24400000Y-1800000D03*
X18300000Y15400000D03*
X19700000Y-5200000D03*
X16000000Y-19100000D03*
X4500000Y7100000D03*
X-10400000Y-21100000D03*
X3100000Y14500000D03*
X-8250000Y11250000D03*
X0Y-10200000D03*
X-1900000Y-17800000D03*
X27600000Y-4100000D03*
X14600000Y22000000D03*
X17100000Y19600000D03*
X-10600000Y-6700000D03*
X13400000Y12900000D03*
X0Y-21750000D03*
X22700000Y-15500000D03*
X8100000Y17600000D03*
X-20500000Y800000D03*
X16400000Y19100000D03*
X1950000Y-21750000D03*
X-13300000Y-8200000D03*
X19400000Y-11500000D03*
X-11500000Y5300000D03*
X-10500000Y23750000D03*
X10100000Y-12300000D03*
X-11400000Y17500000D03*
X9100000Y1500000D03*
X-7700000Y-3200000D03*
X24100000Y-7100000D03*
X-21400000Y11900000D03*
X13750000Y2900000D03*
X12700000Y-20900000D03*
X-4700000Y23800000D03*
X-21900000Y9000000D03*
X-20600000Y-18700000D03*
X14500000Y-16000000D03*
X18400000Y18500000D03*
X21300000Y-17900000D03*
X-15000000Y-2150000D03*
X23500000Y750000D03*
X-8400000Y17500000D03*
X-27400000Y2400000D03*
X-9500000Y11250000D03*
X-7800000Y21400000D03*
X-7500000Y-10150000D03*
X26800000Y6000000D03*
X-6700000Y-13300000D03*
X21000000Y15700000D03*
X18000000Y8700000D03*
%TO.N,CC1*%
X19700000Y-15100000D03*
X15070000Y-19500000D03*
%TO.N,D+*%
X11201223Y-14414739D03*
X15099479Y-8000521D03*
%TO.N,D-*%
X10351223Y-14414739D03*
X15700521Y-7399479D03*
%TO.N,CC2*%
X20800000Y-9150000D03*
X20950000Y-14300000D03*
%TO.N,RTS*%
X11100000Y-8600000D03*
X12100000Y-13700000D03*
%TO.N,Net-(D2-K)*%
X11800000Y-18900000D03*
%TO.N,GPIO9*%
X-7400000Y-11600000D03*
X5400000Y-8000000D03*
%TO.N,ESP_EN*%
X-6300000Y-19400000D03*
X9700000Y-8400000D03*
%TO.N,INT*%
X12300000Y-2500000D03*
%TO.N,SCL*%
X-750000Y-8100000D03*
X-10850000Y-8650000D03*
%TO.N,SDA*%
X-2100000Y-8700000D03*
X15400000Y-2650000D03*
X-9950000Y-8650000D03*
X18600000Y-2600000D03*
%TO.N,LED_REF*%
X-3100000Y11900000D03*
D23*
%TO.N,+3.3V*%
X26550000Y-2400000D03*
X12350000Y-14600000D03*
X-6300000Y-20700000D03*
X-16400000Y-8200000D03*
X17000000Y-7500000D03*
X6000000Y-22750000D03*
X23900000Y-9200000D03*
D22*
%TO.N,Sensor_Analog*%
X22900000Y11400000D03*
D23*
%TO.N,+12VA*%
X-22200000Y15700000D03*
X6500000Y10700000D03*
X-16200000Y11700000D03*
X8100000Y22000000D03*
X-11400000Y22000000D03*
X-8200000Y9200000D03*
%TO.N,+5V*%
X-18600000Y13400000D03*
X18850000Y5400000D03*
X23800000Y5400000D03*
X-10300000Y2150000D03*
X-16200000Y14300000D03*
X8300000Y6550000D03*
%TO.N,-12VA*%
X11600000Y11700000D03*
X-12000000Y7700000D03*
X-13300000Y15600000D03*
X-6600000Y13900000D03*
D22*
%TO.N,ESP_ADC*%
X10300000Y-20900000D03*
X23300000Y8700000D03*
X25400000Y-3100000D03*
%TO.N,GPIO1*%
X-20875000Y-4175000D03*
%TO.N,Mux_Sel_A*%
X-20325000Y-3425000D03*
X-16200000Y13400000D03*
%TO.N,ESP_PWM_DIM*%
X-7400000Y-12500000D03*
%TO.N,NeopixelLED*%
X-10200000Y-13150000D03*
D24*
%TO.N,+12V*%
X-17500000Y-13100000D03*
X6850000Y-10176600D03*
D22*
X23700000Y-7900000D03*
D24*
X11500000Y700000D03*
D22*
%TO.N,Mux_Sel_B*%
X-19800000Y-2600000D03*
%TO.N,5V_SDA*%
X16400000Y15900000D03*
X-18400000Y3500000D03*
%TO.N,5V_SCL*%
X-17700000Y2900000D03*
X16500000Y16700000D03*
%TO.N,Net-(D3-K)*%
X11800000Y-19700000D03*
D24*
%TO.N,USBC_VBUS*%
X14200000Y-20700000D03*
X19800000Y-20700000D03*
%TD*%
D25*
%TO.N,D+*%
X14468720Y-7849480D02*
X12625000Y-9693200D01*
X15099479Y-8000521D02*
X14948438Y-7849480D01*
X11001224Y-14214740D02*
X11201223Y-14414739D01*
X12625000Y-9693200D02*
X12625000Y-11593200D01*
X14948438Y-7849480D02*
X14468720Y-7849480D01*
X12625000Y-11593200D02*
X11001224Y-13216976D01*
X11001224Y-13216976D02*
X11001224Y-14214740D01*
%TO.N,D-*%
X12175000Y-9506800D02*
X12175000Y-11406800D01*
X10551222Y-14214740D02*
X10351223Y-14414739D01*
X12175000Y-11406800D02*
X10551222Y-13030578D01*
X10551222Y-13030578D02*
X10551222Y-14214740D01*
X15700521Y-7399479D02*
X14282321Y-7399479D01*
X14282321Y-7399479D02*
X12175000Y-9506800D01*
D26*
%TO.N,CC2*%
X20800000Y-9150000D02*
X20950000Y-9300000D01*
X20950000Y-9300000D02*
X20950000Y-14300000D01*
%TO.N,ESP_ADC*%
X11500000Y-17200000D02*
X16300000Y-17200000D01*
X18500000Y-15000000D02*
X18500000Y-5400000D01*
X19600000Y-4300000D02*
X24200000Y-4300000D01*
X10300000Y-20900000D02*
X10300000Y-18400000D01*
X16300000Y-17200000D02*
G75*
G03*
X18500000Y-15000000I0J2200000D01*
G01*
X24200000Y-4300000D02*
G75*
G03*
X25400000Y-3100000I0J1200000D01*
G01*
X19600000Y-4300000D02*
G75*
G03*
X18500000Y-5400000I0J-1100000D01*
G01*
X11500000Y-17200000D02*
G75*
G03*
X10300000Y-18400000I0J-1200000D01*
G01*
%TD*%
%TA.AperFunction,Conductor*%
%TO.N,GND*%
G36*
X1066795Y28725698D02*
G01*
X2132121Y28666319D01*
X3194509Y28567444D01*
X4252495Y28429211D01*
X5304623Y28251810D01*
X6349443Y28035484D01*
X7385514Y27780532D01*
X8411410Y27487305D01*
X9425717Y27156208D01*
X10427038Y26787696D01*
X11413992Y26382277D01*
X12385221Y25940510D01*
X13339387Y25463003D01*
X14275174Y24950415D01*
X15191293Y24403450D01*
X16086481Y23822864D01*
X16959508Y23209456D01*
X17809168Y22564071D01*
X18634292Y21887598D01*
X19433742Y21180969D01*
X20206417Y20445158D01*
X20951252Y19681179D01*
X21667222Y18890084D01*
X22353340Y18072963D01*
X23008660Y17230941D01*
X23632280Y16365180D01*
X24223340Y15476872D01*
X24781027Y14567240D01*
X25304571Y13637538D01*
X25793252Y12689047D01*
X26246396Y11723074D01*
X26663379Y10740949D01*
X27043627Y9744025D01*
X27386613Y8733677D01*
X27630855Y7915651D01*
X27691870Y7711296D01*
X27958974Y6678291D01*
X28187556Y5636084D01*
X28377303Y4586113D01*
X28527953Y3529823D01*
X28639299Y2468669D01*
X28711187Y1404115D01*
X28743517Y337626D01*
X28736246Y-729329D01*
X28689384Y-1795278D01*
X28602995Y-2858754D01*
X28477197Y-3918291D01*
X28312165Y-4972430D01*
X28108126Y-6019718D01*
X27865361Y-7058713D01*
X27584204Y-8087982D01*
X27265043Y-9106108D01*
X26908317Y-10111688D01*
X26514519Y-11103336D01*
X26084189Y-12079687D01*
X25617922Y-13039395D01*
X25116360Y-13981138D01*
X24580194Y-14903618D01*
X24010162Y-15805565D01*
X23407050Y-16685736D01*
X23396733Y-16700207D01*
X23344502Y-16773460D01*
X23282069Y-16861021D01*
X23182593Y-17023093D01*
X23068248Y-17209391D01*
X23056846Y-17227967D01*
X23009657Y-17318239D01*
X22857390Y-17609523D01*
X22684638Y-18003896D01*
X22539410Y-18409213D01*
X22422394Y-18823556D01*
X22422393Y-18823559D01*
X22334145Y-19244959D01*
X22334144Y-19244965D01*
X22327951Y-19289683D01*
X22275077Y-19671450D01*
X22257264Y-19929917D01*
X22247722Y-20068379D01*
X22245475Y-20100978D01*
X22245500Y-20316250D01*
X22245500Y-21805235D01*
X22225815Y-21872274D01*
X22173011Y-21918029D01*
X22103853Y-21927973D01*
X22040297Y-21898948D01*
X22004978Y-21847646D01*
X21995237Y-21820884D01*
X21995237Y-21820883D01*
X21963013Y-21771889D01*
X21898832Y-21674306D01*
X21898831Y-21674305D01*
X21771221Y-21553910D01*
X21619281Y-21466188D01*
X21619282Y-21466188D01*
X21451210Y-21415870D01*
X21451205Y-21415869D01*
X21276066Y-21405669D01*
X21276065Y-21405669D01*
X21218220Y-21415869D01*
X21103293Y-21436134D01*
X21103291Y-21436134D01*
X21103289Y-21436135D01*
X21102837Y-21436330D01*
X20942198Y-21505622D01*
X20942190Y-21505626D01*
X20801469Y-21610390D01*
X20688698Y-21744785D01*
X20688697Y-21744787D01*
X20609961Y-21901562D01*
X20598780Y-21948738D01*
X20579332Y-22030798D01*
X20569500Y-22072281D01*
X20569500Y-22778317D01*
X20549815Y-22845356D01*
X20497011Y-22891111D01*
X20427853Y-22901055D01*
X20364297Y-22872030D01*
X20347125Y-22853804D01*
X20308318Y-22803231D01*
X20303304Y-22796696D01*
X20182250Y-22703808D01*
X20182249Y-22703807D01*
X20182247Y-22703806D01*
X20041280Y-22645416D01*
X20041278Y-22645415D01*
X19927981Y-22630500D01*
X19927980Y-22630500D01*
X19852020Y-22630500D01*
X19852019Y-22630500D01*
X19738721Y-22645415D01*
X19738719Y-22645416D01*
X19597752Y-22703806D01*
X19476696Y-22796696D01*
X19383806Y-22917752D01*
X19325416Y-23058719D01*
X19325415Y-23058721D01*
X19305500Y-23209998D01*
X19305500Y-23210001D01*
X19325415Y-23361278D01*
X19325416Y-23361280D01*
X19383806Y-23502247D01*
X19383807Y-23502249D01*
X19383808Y-23502250D01*
X19476696Y-23623304D01*
X19597750Y-23716192D01*
X19597753Y-23716193D01*
X19597754Y-23716194D01*
X19706985Y-23761439D01*
X19761389Y-23805280D01*
X19783454Y-23871574D01*
X19766175Y-23939273D01*
X19715038Y-23986884D01*
X19659533Y-24000000D01*
X14340467Y-24000000D01*
X14273428Y-23980315D01*
X14227673Y-23927511D01*
X14217729Y-23858353D01*
X14246754Y-23794797D01*
X14293015Y-23761439D01*
X14402245Y-23716194D01*
X14402246Y-23716194D01*
X14402246Y-23716193D01*
X14402250Y-23716192D01*
X14523304Y-23623304D01*
X14616192Y-23502250D01*
X14674584Y-23361280D01*
X14694500Y-23210000D01*
X14674584Y-23058720D01*
X14616192Y-22917750D01*
X14523304Y-22796696D01*
X14402250Y-22703808D01*
X14402249Y-22703807D01*
X14402247Y-22703806D01*
X14261280Y-22645416D01*
X14261278Y-22645415D01*
X14147981Y-22630500D01*
X14147980Y-22630500D01*
X14072020Y-22630500D01*
X14072019Y-22630500D01*
X13958721Y-22645415D01*
X13958719Y-22645416D01*
X13817752Y-22703806D01*
X13797434Y-22719397D01*
X13696696Y-22796696D01*
X13696695Y-22796697D01*
X13696694Y-22796698D01*
X13652875Y-22853804D01*
X13596447Y-22895006D01*
X13526701Y-22899161D01*
X13465781Y-22864948D01*
X13433029Y-22803231D01*
X13430500Y-22778317D01*
X13430500Y-22116298D01*
X13430500Y-22116297D01*
X13430500Y-22116291D01*
X13415241Y-21985745D01*
X13355237Y-21820883D01*
X13323013Y-21771889D01*
X13258832Y-21674306D01*
X13258831Y-21674305D01*
X13131221Y-21553910D01*
X12979281Y-21466188D01*
X12979282Y-21466188D01*
X12811210Y-21415870D01*
X12811205Y-21415869D01*
X12636066Y-21405669D01*
X12636065Y-21405669D01*
X12578220Y-21415869D01*
X12463293Y-21436134D01*
X12463291Y-21436134D01*
X12463289Y-21436135D01*
X12462837Y-21436330D01*
X12302198Y-21505622D01*
X12302190Y-21505626D01*
X12161469Y-21610390D01*
X12048698Y-21744785D01*
X12048697Y-21744787D01*
X11969961Y-21901562D01*
X11958780Y-21948738D01*
X11929500Y-22072279D01*
X11929500Y-23303709D01*
X11938593Y-23381500D01*
X11944759Y-23434256D01*
X11944760Y-23434259D01*
X12004762Y-23599115D01*
X12004764Y-23599119D01*
X12101167Y-23745693D01*
X12101168Y-23745694D01*
X12143684Y-23785806D01*
X12178938Y-23846129D01*
X12175983Y-23915936D01*
X12135756Y-23973064D01*
X12071029Y-23999374D01*
X12058590Y-24000000D01*
X-22121500Y-24000000D01*
X-22188539Y-23980315D01*
X-22234294Y-23927511D01*
X-22245500Y-23876000D01*
X-22245500Y-21950000D01*
X-19479023Y-21950000D01*
X-19459083Y-22069492D01*
X-19378369Y-22304603D01*
X-19378364Y-22304614D01*
X-19260057Y-22523228D01*
X-19260051Y-22523237D01*
X-19107373Y-22719397D01*
X-19107364Y-22719407D01*
X-18924477Y-22887767D01*
X-18924478Y-22887767D01*
X-18716367Y-23023732D01*
X-18488717Y-23123587D01*
X-18247738Y-23184612D01*
X-18247730Y-23184614D01*
X-18062041Y-23200000D01*
X-17250000Y-23200000D01*
X-17250000Y-22324000D01*
X-17230315Y-22256961D01*
X-17177511Y-22211206D01*
X-17126000Y-22200000D01*
X-16874000Y-22200000D01*
X-16806961Y-22219685D01*
X-16761206Y-22272489D01*
X-16750000Y-22324000D01*
X-16749999Y-23200000D01*
X-15937959Y-23200000D01*
X-15752269Y-23184614D01*
X-15752261Y-23184612D01*
X-15511282Y-23123587D01*
X-15283632Y-23023732D01*
X-15075521Y-22887767D01*
X-14925868Y-22750000D01*
X5363862Y-22750000D01*
X5382346Y-22902235D01*
X5382347Y-22902238D01*
X5436729Y-23045630D01*
X5523845Y-23171839D01*
X5638630Y-23273530D01*
X5638632Y-23273531D01*
X5774422Y-23344799D01*
X5873688Y-23369266D01*
X5923321Y-23381500D01*
X5923322Y-23381500D01*
X6076679Y-23381500D01*
X6113902Y-23372324D01*
X6225578Y-23344799D01*
X6361368Y-23273531D01*
X6476156Y-23171838D01*
X6563272Y-23045628D01*
X6617653Y-22902238D01*
X6636138Y-22750000D01*
X6617653Y-22597762D01*
X6563272Y-22454372D01*
X6476156Y-22328162D01*
X6449576Y-22304614D01*
X6361369Y-22226469D01*
X6296540Y-22192444D01*
X6225578Y-22155201D01*
X6225575Y-22155200D01*
X6076679Y-22118500D01*
X6076678Y-22118500D01*
X5923322Y-22118500D01*
X5923321Y-22118500D01*
X5774424Y-22155200D01*
X5638630Y-22226469D01*
X5523845Y-22328160D01*
X5436729Y-22454369D01*
X5382347Y-22597761D01*
X5382346Y-22597764D01*
X5363862Y-22749999D01*
X5363862Y-22750000D01*
X-14925868Y-22750000D01*
X-14892635Y-22719407D01*
X-14892626Y-22719397D01*
X-14739948Y-22523237D01*
X-14739942Y-22523228D01*
X-14621635Y-22304614D01*
X-14621630Y-22304603D01*
X-14540916Y-22069492D01*
X-14520977Y-21950000D01*
X-15386653Y-21950000D01*
X-15453692Y-21930315D01*
X-15499447Y-21877511D01*
X-15509391Y-21808353D01*
X-15505631Y-21791067D01*
X-15500000Y-21771888D01*
X-15500000Y-21628111D01*
X-15505631Y-21608933D01*
X-15505630Y-21539064D01*
X-15467855Y-21480286D01*
X-15404299Y-21451262D01*
X-15386653Y-21450000D01*
X-14520978Y-21450000D01*
X-14520976Y-21449999D01*
X-14540916Y-21330507D01*
X-14621630Y-21095396D01*
X-14621635Y-21095385D01*
X-14739944Y-20876770D01*
X-14739948Y-20876762D01*
X-14892626Y-20680602D01*
X-14892635Y-20680592D01*
X-15075522Y-20512232D01*
X-15075521Y-20512232D01*
X-15283632Y-20376267D01*
X-15511282Y-20276412D01*
X-15752261Y-20215387D01*
X-15752269Y-20215385D01*
X-15937959Y-20200000D01*
X-16750000Y-20200000D01*
X-16750000Y-21076000D01*
X-16769685Y-21143039D01*
X-16822489Y-21188794D01*
X-16874000Y-21200000D01*
X-17126000Y-21200000D01*
X-17193039Y-21180315D01*
X-17238794Y-21127511D01*
X-17250000Y-21076000D01*
X-17250000Y-20200000D01*
X-18062041Y-20200000D01*
X-18247730Y-20215385D01*
X-18247738Y-20215387D01*
X-18488717Y-20276412D01*
X-18716367Y-20376267D01*
X-18924478Y-20512232D01*
X-19107364Y-20680592D01*
X-19107373Y-20680602D01*
X-19260051Y-20876762D01*
X-19260056Y-20876770D01*
X-19378364Y-21095385D01*
X-19378369Y-21095396D01*
X-19459083Y-21330507D01*
X-19479023Y-21449999D01*
X-19479022Y-21450000D01*
X-18613347Y-21450000D01*
X-18546308Y-21469685D01*
X-18500553Y-21522489D01*
X-18490609Y-21591647D01*
X-18494369Y-21608933D01*
X-18500000Y-21628111D01*
X-18500000Y-21771888D01*
X-18494369Y-21791067D01*
X-18494370Y-21860936D01*
X-18532145Y-21919714D01*
X-18595701Y-21948738D01*
X-18613347Y-21950000D01*
X-19479023Y-21950000D01*
X-22245500Y-21950000D01*
X-22245500Y-20307970D01*
X-22245475Y-20100978D01*
X-22247722Y-20068379D01*
X-22257264Y-19929917D01*
X-22261942Y-19862041D01*
X-13800000Y-19862041D01*
X-13784614Y-20047730D01*
X-13784612Y-20047738D01*
X-13723587Y-20288717D01*
X-13623732Y-20516367D01*
X-13487767Y-20724478D01*
X-13319407Y-20907364D01*
X-13319397Y-20907373D01*
X-13123237Y-21060051D01*
X-13123228Y-21060057D01*
X-12904614Y-21178364D01*
X-12904603Y-21178369D01*
X-12669492Y-21259083D01*
X-12550000Y-21279023D01*
X-12550000Y-20313346D01*
X-12530315Y-20246307D01*
X-12477511Y-20200552D01*
X-12408353Y-20190608D01*
X-12391063Y-20194369D01*
X-12371890Y-20199999D01*
X-12371890Y-20200000D01*
X-12371889Y-20200000D01*
X-12228110Y-20200000D01*
X-12228108Y-20199999D01*
X-12208937Y-20194370D01*
X-12139068Y-20194368D01*
X-12080289Y-20232141D01*
X-12051263Y-20295696D01*
X-12050000Y-20313346D01*
X-12050000Y-21279022D01*
X-12049999Y-21279023D01*
X-11930507Y-21259083D01*
X-11695396Y-21178369D01*
X-11695385Y-21178364D01*
X-11476771Y-21060057D01*
X-11476762Y-21060051D01*
X-11280602Y-20907373D01*
X-11280592Y-20907364D01*
X-11112232Y-20724478D01*
X-11096240Y-20700000D01*
X-6936138Y-20700000D01*
X-6917653Y-20852238D01*
X-6863272Y-20995628D01*
X-6776156Y-21121838D01*
X-6661368Y-21223531D01*
X-6525578Y-21294799D01*
X-6413902Y-21322324D01*
X-6376679Y-21331500D01*
X-6376678Y-21331500D01*
X-6223321Y-21331500D01*
X-6173688Y-21319266D01*
X-6074422Y-21294799D01*
X-5938632Y-21223531D01*
X-5938630Y-21223530D01*
X-5823845Y-21121839D01*
X-5792204Y-21076000D01*
X-5736728Y-20995628D01*
X-5700461Y-20900000D01*
X9744750Y-20900000D01*
X9763670Y-21043708D01*
X9763671Y-21043712D01*
X9819137Y-21177622D01*
X9819138Y-21177624D01*
X9819139Y-21177625D01*
X9907379Y-21292621D01*
X10022375Y-21380861D01*
X10156291Y-21436330D01*
X10283280Y-21453048D01*
X10299999Y-21455250D01*
X10300000Y-21455250D01*
X10300001Y-21455250D01*
X10314977Y-21453278D01*
X10443709Y-21436330D01*
X10577625Y-21380861D01*
X10692621Y-21292621D01*
X10780861Y-21177625D01*
X10836330Y-21043709D01*
X10855250Y-20900000D01*
X10851280Y-20869849D01*
X10836330Y-20756293D01*
X10836330Y-20756291D01*
X10824740Y-20728310D01*
X10817207Y-20700003D01*
X13436701Y-20700003D01*
X13455836Y-20869844D01*
X13455837Y-20869849D01*
X13512291Y-21031183D01*
X13569253Y-21121838D01*
X13603229Y-21175909D01*
X13724091Y-21296771D01*
X13868817Y-21387709D01*
X14030149Y-21444162D01*
X14030150Y-21444162D01*
X14030155Y-21444163D01*
X14199996Y-21463299D01*
X14200000Y-21463299D01*
X14200004Y-21463299D01*
X14369844Y-21444163D01*
X14369847Y-21444162D01*
X14369850Y-21444162D01*
X14531183Y-21387709D01*
X14675909Y-21296771D01*
X14796771Y-21175909D01*
X14887709Y-21031183D01*
X14944162Y-20869850D01*
X14944163Y-20869844D01*
X14963299Y-20700003D01*
X19036701Y-20700003D01*
X19055836Y-20869844D01*
X19055837Y-20869849D01*
X19112291Y-21031183D01*
X19169253Y-21121838D01*
X19203229Y-21175909D01*
X19324091Y-21296771D01*
X19468817Y-21387709D01*
X19630149Y-21444162D01*
X19630150Y-21444162D01*
X19630155Y-21444163D01*
X19799996Y-21463299D01*
X19800000Y-21463299D01*
X19800004Y-21463299D01*
X19969844Y-21444163D01*
X19969847Y-21444162D01*
X19969850Y-21444162D01*
X20131183Y-21387709D01*
X20275909Y-21296771D01*
X20396771Y-21175909D01*
X20487709Y-21031183D01*
X20544162Y-20869850D01*
X20544163Y-20869844D01*
X20563299Y-20700003D01*
X20563299Y-20699996D01*
X20544163Y-20530155D01*
X20544162Y-20530150D01*
X20500149Y-20404369D01*
X20487709Y-20368817D01*
X20396771Y-20224091D01*
X20275909Y-20103229D01*
X20275908Y-20103228D01*
X20131183Y-20012291D01*
X19969849Y-19955837D01*
X19969844Y-19955836D01*
X19800004Y-19936701D01*
X19799996Y-19936701D01*
X19630155Y-19955836D01*
X19630150Y-19955837D01*
X19468816Y-20012291D01*
X19324091Y-20103228D01*
X19203228Y-20224091D01*
X19112291Y-20368816D01*
X19055837Y-20530150D01*
X19055836Y-20530155D01*
X19036701Y-20699996D01*
X19036701Y-20700003D01*
X14963299Y-20700003D01*
X14963299Y-20699996D01*
X14944163Y-20530155D01*
X14944162Y-20530150D01*
X14887708Y-20368815D01*
X14796781Y-20224106D01*
X14777781Y-20156869D01*
X14798149Y-20090034D01*
X14851417Y-20044820D01*
X14918148Y-20035918D01*
X14918234Y-20035269D01*
X14920642Y-20035586D01*
X14920673Y-20035582D01*
X14920773Y-20035603D01*
X14926289Y-20036329D01*
X14926291Y-20036330D01*
X15040217Y-20051329D01*
X15069999Y-20055250D01*
X15070000Y-20055250D01*
X15070001Y-20055250D01*
X15084977Y-20053278D01*
X15213709Y-20036330D01*
X15347625Y-19980861D01*
X15462621Y-19892621D01*
X15550861Y-19777625D01*
X15606330Y-19643709D01*
X15625250Y-19500000D01*
X15606330Y-19356291D01*
X15560218Y-19244965D01*
X15550862Y-19222377D01*
X15550861Y-19222376D01*
X15550861Y-19222375D01*
X15462621Y-19107379D01*
X15347625Y-19019139D01*
X15347624Y-19019138D01*
X15347622Y-19019137D01*
X15213712Y-18963671D01*
X15213710Y-18963670D01*
X15213709Y-18963670D01*
X15109877Y-18950000D01*
X15070001Y-18944750D01*
X15069999Y-18944750D01*
X14926291Y-18963670D01*
X14926287Y-18963671D01*
X14792377Y-19019137D01*
X14677379Y-19107379D01*
X14589137Y-19222377D01*
X14533671Y-19356287D01*
X14533670Y-19356291D01*
X14514750Y-19500000D01*
X14522160Y-19556287D01*
X14533670Y-19643708D01*
X14533671Y-19643712D01*
X14589138Y-19777623D01*
X14589139Y-19777625D01*
X14603471Y-19796303D01*
X14628665Y-19861472D01*
X14614627Y-19929917D01*
X14565812Y-19979906D01*
X14497721Y-19995570D01*
X14464141Y-19988831D01*
X14369852Y-19955838D01*
X14369844Y-19955836D01*
X14200004Y-19936701D01*
X14199996Y-19936701D01*
X14030155Y-19955836D01*
X14030150Y-19955837D01*
X13868816Y-20012291D01*
X13724091Y-20103228D01*
X13603228Y-20224091D01*
X13512291Y-20368816D01*
X13455837Y-20530150D01*
X13455836Y-20530155D01*
X13436701Y-20699996D01*
X13436701Y-20700003D01*
X10817207Y-20700003D01*
X10816309Y-20696627D01*
X10815918Y-20693569D01*
X10756437Y-20516367D01*
X10671246Y-20262568D01*
X10664800Y-20223109D01*
X10664800Y-19700000D01*
X11244750Y-19700000D01*
X11263486Y-19842315D01*
X11263670Y-19843708D01*
X11263671Y-19843712D01*
X11319137Y-19977622D01*
X11319138Y-19977624D01*
X11319139Y-19977625D01*
X11407379Y-20092621D01*
X11522375Y-20180861D01*
X11522376Y-20180861D01*
X11522377Y-20180862D01*
X11554984Y-20194368D01*
X11656291Y-20236330D01*
X11783280Y-20253048D01*
X11799999Y-20255250D01*
X11800000Y-20255250D01*
X11800001Y-20255250D01*
X11814977Y-20253278D01*
X11943709Y-20236330D01*
X12077625Y-20180861D01*
X12192621Y-20092621D01*
X12280861Y-19977625D01*
X12336330Y-19843709D01*
X12355250Y-19700000D01*
X12336330Y-19556291D01*
X12280861Y-19422375D01*
X12244881Y-19375485D01*
X12219687Y-19310318D01*
X12233725Y-19241873D01*
X12244880Y-19224516D01*
X12280861Y-19177625D01*
X12336330Y-19043709D01*
X12355250Y-18900000D01*
X12336330Y-18756291D01*
X12280861Y-18622375D01*
X12192621Y-18507379D01*
X12077625Y-18419139D01*
X12077624Y-18419138D01*
X12077622Y-18419137D01*
X11943712Y-18363671D01*
X11943710Y-18363670D01*
X11943709Y-18363670D01*
X11871854Y-18354210D01*
X11800001Y-18344750D01*
X11799999Y-18344750D01*
X11656291Y-18363670D01*
X11656287Y-18363671D01*
X11522377Y-18419137D01*
X11407379Y-18507379D01*
X11319137Y-18622377D01*
X11263671Y-18756287D01*
X11263670Y-18756291D01*
X11244750Y-18900000D01*
X11253132Y-18963670D01*
X11263670Y-19043708D01*
X11263671Y-19043712D01*
X11319138Y-19177623D01*
X11319139Y-19177625D01*
X11355118Y-19224514D01*
X11380312Y-19289683D01*
X11366274Y-19358128D01*
X11355118Y-19375486D01*
X11319139Y-19422374D01*
X11319138Y-19422376D01*
X11263671Y-19556287D01*
X11263670Y-19556291D01*
X11248510Y-19671444D01*
X11244750Y-19700000D01*
X10664800Y-19700000D01*
X10664800Y-18403048D01*
X10665099Y-18396968D01*
X10670242Y-18344750D01*
X10679651Y-18249209D01*
X10684393Y-18225374D01*
X10724832Y-18092066D01*
X10734129Y-18069619D01*
X10799802Y-17946753D01*
X10813303Y-17926549D01*
X10901680Y-17818859D01*
X10918859Y-17801680D01*
X11026550Y-17713301D01*
X11046753Y-17699802D01*
X11169619Y-17634129D01*
X11192066Y-17624832D01*
X11242506Y-17609531D01*
X11325376Y-17584392D01*
X11349209Y-17579651D01*
X11439511Y-17570757D01*
X11496969Y-17565099D01*
X11503049Y-17564800D01*
X16444039Y-17564800D01*
X16444039Y-17564799D01*
X16730297Y-17532546D01*
X17011146Y-17468444D01*
X17283053Y-17373300D01*
X17542597Y-17248310D01*
X17786515Y-17095046D01*
X18011738Y-16915436D01*
X18215436Y-16711738D01*
X18395046Y-16486515D01*
X18548310Y-16242597D01*
X18673300Y-15983053D01*
X18768444Y-15711146D01*
X18832546Y-15430297D01*
X18864800Y-15144036D01*
X18864800Y-15100000D01*
X19144750Y-15100000D01*
X19163647Y-15243538D01*
X19163670Y-15243708D01*
X19163671Y-15243712D01*
X19219137Y-15377622D01*
X19219138Y-15377624D01*
X19219139Y-15377625D01*
X19307379Y-15492621D01*
X19422375Y-15580861D01*
X19556291Y-15636330D01*
X19683280Y-15653048D01*
X19699999Y-15655250D01*
X19700000Y-15655250D01*
X19700001Y-15655250D01*
X19714977Y-15653278D01*
X19843709Y-15636330D01*
X19977625Y-15580861D01*
X20092621Y-15492621D01*
X20180861Y-15377625D01*
X20236330Y-15243709D01*
X20255250Y-15100000D01*
X20236330Y-14956291D01*
X20186641Y-14836329D01*
X20180862Y-14822377D01*
X20180861Y-14822376D01*
X20180861Y-14822375D01*
X20092621Y-14707379D01*
X19977625Y-14619139D01*
X19977624Y-14619138D01*
X19977622Y-14619137D01*
X19843712Y-14563671D01*
X19843710Y-14563670D01*
X19843709Y-14563670D01*
X19771854Y-14554210D01*
X19700001Y-14544750D01*
X19699999Y-14544750D01*
X19556291Y-14563670D01*
X19556287Y-14563671D01*
X19422377Y-14619137D01*
X19307379Y-14707379D01*
X19219137Y-14822377D01*
X19163671Y-14956287D01*
X19163670Y-14956291D01*
X19144750Y-15100000D01*
X18864800Y-15100000D01*
X18864800Y-15000000D01*
X18864800Y-14942221D01*
X18864800Y-14942220D01*
X18864800Y-9150000D01*
X20244750Y-9150000D01*
X20261798Y-9279493D01*
X20263670Y-9293708D01*
X20263671Y-9293712D01*
X20319138Y-9427623D01*
X20319139Y-9427625D01*
X20373548Y-9498533D01*
X20383581Y-9515157D01*
X20383853Y-9514999D01*
X20386931Y-9520257D01*
X20386932Y-9520259D01*
X20523999Y-9709139D01*
X20561559Y-9760897D01*
X20585002Y-9826717D01*
X20585200Y-9833726D01*
X20585200Y-13623108D01*
X20578754Y-13662567D01*
X20434082Y-14093566D01*
X20434080Y-14093574D01*
X20433267Y-14099127D01*
X20425139Y-14128600D01*
X20413671Y-14156286D01*
X20413670Y-14156291D01*
X20394750Y-14299999D01*
X20394750Y-14300000D01*
X20413670Y-14443708D01*
X20413671Y-14443712D01*
X20469137Y-14577622D01*
X20469138Y-14577624D01*
X20469139Y-14577625D01*
X20557379Y-14692621D01*
X20672375Y-14780861D01*
X20806291Y-14836330D01*
X20923674Y-14851784D01*
X20949999Y-14855250D01*
X20950000Y-14855250D01*
X20950001Y-14855250D01*
X20976326Y-14851784D01*
X21093709Y-14836330D01*
X21227625Y-14780861D01*
X21342621Y-14692621D01*
X21430861Y-14577625D01*
X21486330Y-14443709D01*
X21505250Y-14300000D01*
X21486330Y-14156291D01*
X21474740Y-14128310D01*
X21466309Y-14096627D01*
X21465918Y-14093569D01*
X21439228Y-14014055D01*
X21321246Y-13662568D01*
X21314800Y-13623109D01*
X21314800Y-9744801D01*
X21318991Y-9712835D01*
X21319977Y-9709139D01*
X21354423Y-9174930D01*
X21354444Y-9174284D01*
X21354579Y-9170280D01*
X21354722Y-9162561D01*
X21354721Y-9162557D01*
X21354841Y-9156102D01*
X21355250Y-9150645D01*
X21355250Y-9150001D01*
X21352730Y-9130861D01*
X21336330Y-9006291D01*
X21294113Y-8904369D01*
X21280862Y-8872377D01*
X21280861Y-8872376D01*
X21280861Y-8872375D01*
X21192621Y-8757379D01*
X21077625Y-8669139D01*
X21077624Y-8669138D01*
X21077622Y-8669137D01*
X20943712Y-8613671D01*
X20943710Y-8613670D01*
X20943709Y-8613670D01*
X20839877Y-8600000D01*
X20800001Y-8594750D01*
X20799999Y-8594750D01*
X20656291Y-8613670D01*
X20656287Y-8613671D01*
X20522377Y-8669137D01*
X20407379Y-8757379D01*
X20319137Y-8872377D01*
X20263671Y-9006287D01*
X20263670Y-9006291D01*
X20247270Y-9130862D01*
X20244750Y-9150000D01*
X18864800Y-9150000D01*
X18864800Y-7900000D01*
X23144750Y-7900000D01*
X23161013Y-8023531D01*
X23163670Y-8043708D01*
X23163671Y-8043712D01*
X23219137Y-8177622D01*
X23219138Y-8177624D01*
X23219139Y-8177625D01*
X23307379Y-8292621D01*
X23422375Y-8380861D01*
X23422376Y-8380861D01*
X23422377Y-8380862D01*
X23452022Y-8393141D01*
X23556291Y-8436330D01*
X23556292Y-8436330D01*
X23557540Y-8436847D01*
X23611944Y-8480687D01*
X23634009Y-8546981D01*
X23616730Y-8614681D01*
X23567716Y-8661203D01*
X23538633Y-8676467D01*
X23538631Y-8676469D01*
X23423845Y-8778160D01*
X23336729Y-8904369D01*
X23282347Y-9047761D01*
X23282346Y-9047764D01*
X23263862Y-9199999D01*
X23263862Y-9200000D01*
X23282346Y-9352235D01*
X23282347Y-9352238D01*
X23324295Y-9462846D01*
X23336729Y-9495630D01*
X23350208Y-9515157D01*
X23394847Y-9579829D01*
X23423845Y-9621839D01*
X23538630Y-9723530D01*
X23538632Y-9723531D01*
X23674422Y-9794799D01*
X23773688Y-9819266D01*
X23823321Y-9831500D01*
X23823322Y-9831500D01*
X23976679Y-9831500D01*
X24013902Y-9822324D01*
X24125578Y-9794799D01*
X24261368Y-9723531D01*
X24376156Y-9621838D01*
X24463272Y-9495628D01*
X24517653Y-9352238D01*
X24536138Y-9200000D01*
X24533093Y-9174926D01*
X24523100Y-9092620D01*
X24517653Y-9047762D01*
X24463272Y-8904372D01*
X24376156Y-8778162D01*
X24376154Y-8778160D01*
X24261369Y-8676469D01*
X24125576Y-8605200D01*
X24042776Y-8584792D01*
X23982396Y-8549635D01*
X23950608Y-8487416D01*
X23957504Y-8417887D01*
X23996964Y-8366021D01*
X24092621Y-8292621D01*
X24180861Y-8177625D01*
X24236330Y-8043709D01*
X24255250Y-7900000D01*
X24236330Y-7756291D01*
X24199350Y-7667013D01*
X24180862Y-7622377D01*
X24180861Y-7622376D01*
X24180861Y-7622375D01*
X24092621Y-7507379D01*
X23977625Y-7419139D01*
X23977624Y-7419138D01*
X23977622Y-7419137D01*
X23843712Y-7363671D01*
X23843710Y-7363670D01*
X23843709Y-7363670D01*
X23771854Y-7354210D01*
X23700001Y-7344750D01*
X23699999Y-7344750D01*
X23556291Y-7363670D01*
X23556287Y-7363671D01*
X23422377Y-7419137D01*
X23307379Y-7507379D01*
X23219137Y-7622377D01*
X23163671Y-7756287D01*
X23163670Y-7756291D01*
X23150505Y-7856291D01*
X23144750Y-7900000D01*
X18864800Y-7900000D01*
X18864800Y-5403047D01*
X18865099Y-5396968D01*
X18870796Y-5339125D01*
X18877730Y-5268716D01*
X18882469Y-5244892D01*
X18917221Y-5130328D01*
X18926517Y-5107887D01*
X18982949Y-5002310D01*
X18996450Y-4982106D01*
X19004391Y-4972430D01*
X19072391Y-4889570D01*
X19089570Y-4872391D01*
X19182108Y-4796448D01*
X19202310Y-4782949D01*
X19307887Y-4726517D01*
X19330328Y-4717221D01*
X19444892Y-4682469D01*
X19468716Y-4677730D01*
X19550039Y-4669720D01*
X19596969Y-4665099D01*
X19603049Y-4664800D01*
X24311916Y-4664800D01*
X24311917Y-4664800D01*
X24489758Y-4639230D01*
X24533467Y-4632946D01*
X24533468Y-4632945D01*
X24533472Y-4632945D01*
X24748238Y-4569884D01*
X24748241Y-4569882D01*
X24748243Y-4569882D01*
X24951832Y-4476906D01*
X24951836Y-4476903D01*
X24951844Y-4476900D01*
X25140145Y-4355887D01*
X25309307Y-4209307D01*
X25455887Y-4040145D01*
X25576900Y-3851844D01*
X25653700Y-3683672D01*
X25667953Y-3659916D01*
X25808961Y-3475357D01*
X25811202Y-3471154D01*
X25822236Y-3454026D01*
X25880861Y-3377625D01*
X25936330Y-3243709D01*
X25955250Y-3100000D01*
X25953129Y-3083893D01*
X25947696Y-3042620D01*
X25941469Y-2995325D01*
X25952234Y-2926291D01*
X25998614Y-2874035D01*
X26065883Y-2855149D01*
X26132684Y-2875629D01*
X26146628Y-2886319D01*
X26188632Y-2923531D01*
X26324422Y-2994799D01*
X26423688Y-3019266D01*
X26473321Y-3031500D01*
X26473322Y-3031500D01*
X26626679Y-3031500D01*
X26663902Y-3022324D01*
X26775578Y-2994799D01*
X26911368Y-2923531D01*
X27026156Y-2821838D01*
X27113272Y-2695628D01*
X27167653Y-2552238D01*
X27186138Y-2400000D01*
X27167653Y-2247762D01*
X27113272Y-2104372D01*
X27026156Y-1978162D01*
X27021020Y-1973612D01*
X26911369Y-1876469D01*
X26835825Y-1836821D01*
X26775578Y-1805201D01*
X26775575Y-1805200D01*
X26626679Y-1768500D01*
X26626678Y-1768500D01*
X26473322Y-1768500D01*
X26473321Y-1768500D01*
X26324424Y-1805200D01*
X26188630Y-1876469D01*
X26073845Y-1978160D01*
X25986729Y-2104369D01*
X25932347Y-2247761D01*
X25932346Y-2247764D01*
X25913862Y-2399999D01*
X25913862Y-2400000D01*
X25931899Y-2548551D01*
X25920438Y-2617474D01*
X25873535Y-2669260D01*
X25806079Y-2687467D01*
X25739488Y-2666314D01*
X25733317Y-2661873D01*
X25677625Y-2619139D01*
X25677623Y-2619138D01*
X25543712Y-2563671D01*
X25543710Y-2563670D01*
X25543709Y-2563670D01*
X25456853Y-2552235D01*
X25400001Y-2544750D01*
X25399999Y-2544750D01*
X25256291Y-2563670D01*
X25256287Y-2563671D01*
X25122377Y-2619137D01*
X25007379Y-2707379D01*
X24919137Y-2822377D01*
X24863671Y-2956287D01*
X24863670Y-2956291D01*
X24844750Y-3099999D01*
X24844750Y-3100000D01*
X24863670Y-3243710D01*
X24879271Y-3281375D01*
X24886873Y-3307569D01*
X24888598Y-3317482D01*
X24925851Y-3413939D01*
X24931641Y-3483567D01*
X24919535Y-3517067D01*
X24900199Y-3553241D01*
X24886696Y-3573450D01*
X24798324Y-3681134D01*
X24781134Y-3698324D01*
X24673450Y-3786696D01*
X24653240Y-3800200D01*
X24530391Y-3865865D01*
X24507933Y-3875167D01*
X24374625Y-3915606D01*
X24350783Y-3920349D01*
X24203032Y-3934901D01*
X24196951Y-3935200D01*
X19657779Y-3935200D01*
X19600000Y-3935200D01*
X19495235Y-3935200D01*
X19465417Y-3939487D01*
X19287840Y-3965018D01*
X19086794Y-4024051D01*
X18896209Y-4111088D01*
X18896198Y-4111094D01*
X18719936Y-4224371D01*
X18719928Y-4224377D01*
X18561584Y-4361582D01*
X18561582Y-4361584D01*
X18424377Y-4519928D01*
X18424371Y-4519936D01*
X18311094Y-4696198D01*
X18311088Y-4696209D01*
X18224051Y-4886794D01*
X18165018Y-5087840D01*
X18135200Y-5295236D01*
X18135200Y-14997962D01*
X18135067Y-15002018D01*
X18119765Y-15235489D01*
X18118705Y-15243538D01*
X18073460Y-15470996D01*
X18071359Y-15478838D01*
X17996813Y-15698445D01*
X17993706Y-15705946D01*
X17891129Y-15913951D01*
X17887070Y-15920981D01*
X17758222Y-16113816D01*
X17753279Y-16120257D01*
X17600363Y-16294623D01*
X17594623Y-16300363D01*
X17420257Y-16453279D01*
X17413816Y-16458222D01*
X17220981Y-16587070D01*
X17213951Y-16591129D01*
X17005946Y-16693706D01*
X16998445Y-16696812D01*
X16954480Y-16711737D01*
X16778838Y-16771359D01*
X16770996Y-16773460D01*
X16543538Y-16818705D01*
X16535489Y-16819765D01*
X16302018Y-16835067D01*
X16297962Y-16835200D01*
X11388083Y-16835200D01*
X11166532Y-16867053D01*
X11166522Y-16867056D01*
X10951756Y-16930117D01*
X10748167Y-17023093D01*
X10748144Y-17023106D01*
X10559861Y-17144108D01*
X10559855Y-17144112D01*
X10390692Y-17290692D01*
X10244112Y-17459855D01*
X10244108Y-17459861D01*
X10123106Y-17648144D01*
X10123093Y-17648167D01*
X10030117Y-17851756D01*
X9967056Y-18066522D01*
X9967053Y-18066532D01*
X9935200Y-18288083D01*
X9935200Y-20223108D01*
X9928754Y-20262567D01*
X9784082Y-20693566D01*
X9784080Y-20693574D01*
X9783267Y-20699127D01*
X9775139Y-20728600D01*
X9763671Y-20756286D01*
X9763670Y-20756291D01*
X9744750Y-20899999D01*
X9744750Y-20900000D01*
X-5700461Y-20900000D01*
X-5682347Y-20852238D01*
X-5682346Y-20852235D01*
X-5663862Y-20700000D01*
X-5663862Y-20699999D01*
X-5682346Y-20547764D01*
X-5682347Y-20547761D01*
X-5736729Y-20404369D01*
X-5823845Y-20278160D01*
X-5938631Y-20176469D01*
X-5938633Y-20176467D01*
X-6055933Y-20114904D01*
X-6106145Y-20066320D01*
X-6122120Y-19998301D01*
X-6098785Y-19932443D01*
X-6045759Y-19890547D01*
X-6022377Y-19880862D01*
X-6022376Y-19880861D01*
X-6022375Y-19880861D01*
X-5907379Y-19792621D01*
X-5819139Y-19677625D01*
X-5819138Y-19677624D01*
X-5819137Y-19677622D01*
X-5763671Y-19543712D01*
X-5763670Y-19543708D01*
X-5757915Y-19500000D01*
X-5744750Y-19400000D01*
X-5750505Y-19356291D01*
X-5763670Y-19256291D01*
X-5763671Y-19256287D01*
X-5819137Y-19122377D01*
X-5907379Y-19007379D01*
X-6022377Y-18919137D01*
X-6156287Y-18863671D01*
X-6156291Y-18863670D01*
X-6299999Y-18844750D01*
X-6300001Y-18844750D01*
X-6371854Y-18854210D01*
X-6443709Y-18863670D01*
X-6443710Y-18863670D01*
X-6443712Y-18863671D01*
X-6577622Y-18919137D01*
X-6577624Y-18919138D01*
X-6577625Y-18919139D01*
X-6692621Y-19007379D01*
X-6780861Y-19122375D01*
X-6836330Y-19256291D01*
X-6855250Y-19400000D01*
X-6836330Y-19543709D01*
X-6780861Y-19677625D01*
X-6692621Y-19792621D01*
X-6577625Y-19880861D01*
X-6554240Y-19890546D01*
X-6499837Y-19934386D01*
X-6477771Y-20000680D01*
X-6495049Y-20068379D01*
X-6544067Y-20114905D01*
X-6661369Y-20176469D01*
X-6750294Y-20255250D01*
X-6776156Y-20278162D01*
X-6863272Y-20404372D01*
X-6917653Y-20547762D01*
X-6917653Y-20547764D01*
X-6935356Y-20693563D01*
X-6936138Y-20700000D01*
X-11096240Y-20700000D01*
X-10976267Y-20516367D01*
X-10876412Y-20288717D01*
X-10815387Y-20047738D01*
X-10815385Y-20047730D01*
X-10800000Y-19862041D01*
X-10800000Y-18950000D01*
X-11676000Y-18950000D01*
X-11743039Y-18930315D01*
X-11788794Y-18877511D01*
X-11800000Y-18826000D01*
X-11800000Y-18574000D01*
X-11780315Y-18506961D01*
X-11727511Y-18461206D01*
X-11676000Y-18450000D01*
X-10800000Y-18450000D01*
X-10800000Y-17537959D01*
X-10815385Y-17352269D01*
X-10815387Y-17352261D01*
X-10876412Y-17111282D01*
X-10976267Y-16883632D01*
X-11112232Y-16675521D01*
X-11280592Y-16492635D01*
X-11280602Y-16492626D01*
X-11476762Y-16339948D01*
X-11476771Y-16339942D01*
X-11695385Y-16221635D01*
X-11695396Y-16221630D01*
X-11930507Y-16140916D01*
X-12049999Y-16120976D01*
X-12050000Y-16120976D01*
X-12050000Y-17086653D01*
X-12069685Y-17153692D01*
X-12122489Y-17199447D01*
X-12191647Y-17209391D01*
X-12208933Y-17205631D01*
X-12228111Y-17200000D01*
X-12371889Y-17200000D01*
X-12391067Y-17205631D01*
X-12460936Y-17205630D01*
X-12519714Y-17167855D01*
X-12548738Y-17104299D01*
X-12550000Y-17086653D01*
X-12550000Y-16120976D01*
X-12669492Y-16140916D01*
X-12904603Y-16221630D01*
X-12904614Y-16221635D01*
X-13123228Y-16339942D01*
X-13123237Y-16339948D01*
X-13319397Y-16492626D01*
X-13319407Y-16492635D01*
X-13487767Y-16675521D01*
X-13623732Y-16883632D01*
X-13723587Y-17111282D01*
X-13784612Y-17352261D01*
X-13784614Y-17352269D01*
X-13800000Y-17537959D01*
X-13800000Y-18450000D01*
X-12924000Y-18450000D01*
X-12856961Y-18469685D01*
X-12811206Y-18522489D01*
X-12800000Y-18574000D01*
X-12800000Y-18826000D01*
X-12819685Y-18893039D01*
X-12872489Y-18938794D01*
X-12924000Y-18950000D01*
X-13800000Y-18950000D01*
X-13800000Y-19862041D01*
X-22261942Y-19862041D01*
X-22275077Y-19671450D01*
X-22327951Y-19289683D01*
X-22334144Y-19244965D01*
X-22334145Y-19244959D01*
X-22422393Y-18823559D01*
X-22422394Y-18823556D01*
X-22539409Y-18409213D01*
X-22684637Y-18003895D01*
X-22857389Y-17609522D01*
X-23024055Y-17290693D01*
X-23056845Y-17227966D01*
X-23132749Y-17104299D01*
X-23282071Y-16861016D01*
X-23282075Y-16861010D01*
X-23379286Y-16724674D01*
X-19500500Y-16724674D01*
X-19485966Y-16797740D01*
X-19430601Y-16880601D01*
X-19347740Y-16935966D01*
X-19274677Y-16950499D01*
X-19274676Y-16950500D01*
X-19274674Y-16950500D01*
X-14725324Y-16950500D01*
X-14725321Y-16950499D01*
X-14652264Y-16935967D01*
X-14652260Y-16935966D01*
X-14643505Y-16930116D01*
X-14569399Y-16880601D01*
X-14514034Y-16797740D01*
X-14514033Y-16797739D01*
X-14514032Y-16797735D01*
X-14499500Y-16724678D01*
X-14499500Y-14675321D01*
X-14514032Y-14602264D01*
X-14514033Y-14602260D01*
X-14569399Y-14519399D01*
X-14652260Y-14464033D01*
X-14652264Y-14464032D01*
X-14725323Y-14449500D01*
X-14725326Y-14449500D01*
X-19274674Y-14449500D01*
X-19274677Y-14449500D01*
X-19347735Y-14464032D01*
X-19347739Y-14464033D01*
X-19347740Y-14464034D01*
X-19430601Y-14519399D01*
X-19484455Y-14599999D01*
X-19485966Y-14602260D01*
X-19485967Y-14602264D01*
X-19500499Y-14675321D01*
X-19500500Y-14675323D01*
X-19500499Y-14675326D01*
X-19500500Y-14675326D01*
X-19500500Y-16724674D01*
X-23379286Y-16724674D01*
X-23403251Y-16691064D01*
X-23407053Y-16685731D01*
X-23710698Y-16242597D01*
X-24010162Y-15805565D01*
X-24580194Y-14903618D01*
X-24864341Y-14414739D01*
X9795973Y-14414739D01*
X9814893Y-14558447D01*
X9814894Y-14558451D01*
X9870360Y-14692361D01*
X9870361Y-14692363D01*
X9870362Y-14692364D01*
X9958602Y-14807360D01*
X10073598Y-14895600D01*
X10073599Y-14895600D01*
X10073600Y-14895601D01*
X10073668Y-14895629D01*
X10207514Y-14951069D01*
X10334503Y-14967787D01*
X10351222Y-14969989D01*
X10351223Y-14969989D01*
X10351224Y-14969989D01*
X10366200Y-14968017D01*
X10494932Y-14951069D01*
X10628848Y-14895600D01*
X10700736Y-14840437D01*
X10765905Y-14815243D01*
X10834350Y-14829281D01*
X10851710Y-14840438D01*
X10923596Y-14895599D01*
X10923597Y-14895599D01*
X10923598Y-14895600D01*
X11057514Y-14951069D01*
X11184503Y-14967787D01*
X11201222Y-14969989D01*
X11201223Y-14969989D01*
X11201224Y-14969989D01*
X11216200Y-14968017D01*
X11344932Y-14951069D01*
X11478848Y-14895600D01*
X11585024Y-14814127D01*
X11650192Y-14788933D01*
X11718637Y-14802971D01*
X11768627Y-14851784D01*
X11776450Y-14868529D01*
X11786728Y-14895628D01*
X11860164Y-15002018D01*
X11873845Y-15021839D01*
X11988630Y-15123530D01*
X11988632Y-15123531D01*
X12124422Y-15194799D01*
X12223688Y-15219266D01*
X12273321Y-15231500D01*
X12273322Y-15231500D01*
X12426679Y-15231500D01*
X12463902Y-15222324D01*
X12575578Y-15194799D01*
X12711368Y-15123531D01*
X12826156Y-15021838D01*
X12913272Y-14895628D01*
X12967653Y-14752238D01*
X12986138Y-14600000D01*
X12967653Y-14447762D01*
X12913272Y-14304372D01*
X12826156Y-14178162D01*
X12779823Y-14137115D01*
X12711368Y-14076469D01*
X12711366Y-14076467D01*
X12670805Y-14055179D01*
X12620592Y-14006594D01*
X12604618Y-13938575D01*
X12613867Y-13897937D01*
X12636330Y-13843709D01*
X12655250Y-13700000D01*
X12636330Y-13556291D01*
X12580861Y-13422375D01*
X12492621Y-13307379D01*
X12377625Y-13219139D01*
X12377624Y-13219138D01*
X12377622Y-13219137D01*
X12243712Y-13163671D01*
X12243710Y-13163670D01*
X12243709Y-13163670D01*
X12139877Y-13150000D01*
X12100001Y-13144750D01*
X12099999Y-13144750D01*
X11956293Y-13163669D01*
X11910645Y-13182576D01*
X11839004Y-13212251D01*
X11769535Y-13219719D01*
X11707056Y-13188443D01*
X11671404Y-13128354D01*
X11673899Y-13058529D01*
X11703870Y-13010010D01*
X11961161Y-12752719D01*
X14600832Y-12752719D01*
X14600833Y-12752720D01*
X14735884Y-12812849D01*
X14735889Y-12812851D01*
X14910661Y-12850000D01*
X15089339Y-12850000D01*
X15264110Y-12812851D01*
X15264115Y-12812849D01*
X15399165Y-12752720D01*
X15399165Y-12752719D01*
X16000832Y-12752719D01*
X16000833Y-12752720D01*
X16135884Y-12812849D01*
X16135889Y-12812851D01*
X16310661Y-12850000D01*
X16489339Y-12850000D01*
X16664110Y-12812851D01*
X16664115Y-12812849D01*
X16799165Y-12752720D01*
X16799165Y-12752719D01*
X16399999Y-12353552D01*
X16000832Y-12752719D01*
X15399165Y-12752719D01*
X14999999Y-12353552D01*
X14600832Y-12752719D01*
X11961161Y-12752719D01*
X12713880Y-12000000D01*
X14145318Y-12000000D01*
X14163995Y-12177700D01*
X14163996Y-12177702D01*
X14219206Y-12347624D01*
X14219209Y-12347630D01*
X14248347Y-12398098D01*
X14645818Y-12000626D01*
X14826873Y-12000626D01*
X14837890Y-12008873D01*
X14858397Y-12051089D01*
X14865512Y-12077643D01*
X14865514Y-12077646D01*
X14922352Y-12134484D01*
X14922353Y-12134484D01*
X14922355Y-12134486D01*
X14948909Y-12141601D01*
X15000628Y-12173124D01*
X15008875Y-12162108D01*
X15051087Y-12141601D01*
X15077645Y-12134486D01*
X15134486Y-12077646D01*
X15141601Y-12051091D01*
X15172741Y-11999999D01*
X15353552Y-11999999D01*
X15700000Y-12346446D01*
X15700001Y-12346446D01*
X16045818Y-12000627D01*
X16226873Y-12000627D01*
X16237890Y-12008874D01*
X16258397Y-12051089D01*
X16265512Y-12077644D01*
X16322352Y-12134484D01*
X16322353Y-12134484D01*
X16322355Y-12134486D01*
X16348909Y-12141601D01*
X16400628Y-12173124D01*
X16408875Y-12162108D01*
X16451087Y-12141601D01*
X16477645Y-12134486D01*
X16534486Y-12077646D01*
X16541601Y-12051091D01*
X16572741Y-11999999D01*
X16753552Y-11999999D01*
X17151651Y-12398097D01*
X17180791Y-12347628D01*
X17236003Y-12177702D01*
X17236004Y-12177700D01*
X17254681Y-12000000D01*
X17236004Y-11822299D01*
X17236003Y-11822297D01*
X17180790Y-11652368D01*
X17151651Y-11601900D01*
X16753552Y-11999999D01*
X16572741Y-11999999D01*
X16573124Y-11999370D01*
X16562109Y-11991124D01*
X16541601Y-11948908D01*
X16540177Y-11943596D01*
X16534486Y-11922355D01*
X16534485Y-11922354D01*
X16534485Y-11922353D01*
X16477646Y-11865514D01*
X16451089Y-11858398D01*
X16399371Y-11826873D01*
X16391124Y-11837891D01*
X16348908Y-11858399D01*
X16322356Y-11865513D01*
X16265512Y-11922356D01*
X16265512Y-11922357D01*
X16258397Y-11948910D01*
X16226873Y-12000627D01*
X16045818Y-12000627D01*
X16046446Y-11999999D01*
X15700001Y-11653553D01*
X15700000Y-11653553D01*
X15353552Y-11999999D01*
X15172741Y-11999999D01*
X15173124Y-11999370D01*
X15162109Y-11991124D01*
X15141601Y-11948908D01*
X15140177Y-11943596D01*
X15134486Y-11922355D01*
X15134485Y-11922354D01*
X15134485Y-11922353D01*
X15077645Y-11865513D01*
X15051092Y-11858399D01*
X14999371Y-11826874D01*
X14991126Y-11837890D01*
X14948911Y-11858397D01*
X14922357Y-11865512D01*
X14865512Y-11922356D01*
X14865512Y-11922357D01*
X14858397Y-11948910D01*
X14826873Y-12000626D01*
X14645818Y-12000626D01*
X14646445Y-11999999D01*
X14248347Y-11601900D01*
X14248346Y-11601901D01*
X14219210Y-11652366D01*
X14219209Y-11652368D01*
X14163996Y-11822297D01*
X14163995Y-11822299D01*
X14145318Y-12000000D01*
X12713880Y-12000000D01*
X12838046Y-11875834D01*
X12857902Y-11859711D01*
X12865669Y-11854637D01*
X12885873Y-11828677D01*
X12890941Y-11822939D01*
X12893375Y-11820507D01*
X12906044Y-11802761D01*
X12937517Y-11762326D01*
X12937518Y-11762320D01*
X12941017Y-11755855D01*
X12944235Y-11749272D01*
X12944240Y-11749266D01*
X12958861Y-11700154D01*
X12975500Y-11651688D01*
X12975500Y-11651679D01*
X12976706Y-11644456D01*
X12977617Y-11637152D01*
X12975500Y-11585970D01*
X12975500Y-11300000D01*
X14653553Y-11300000D01*
X14999999Y-11646446D01*
X15346446Y-11300000D01*
X16053553Y-11300000D01*
X16399997Y-11646445D01*
X16746446Y-11299999D01*
X16399999Y-10953552D01*
X16053553Y-11299999D01*
X16053553Y-11300000D01*
X15346446Y-11300000D01*
X15346445Y-11299999D01*
X14999999Y-10953552D01*
X14653553Y-11299999D01*
X14653553Y-11300000D01*
X12975500Y-11300000D01*
X12975500Y-10600000D01*
X14145318Y-10600000D01*
X14163995Y-10777700D01*
X14163996Y-10777702D01*
X14219206Y-10947624D01*
X14219209Y-10947630D01*
X14248347Y-10998098D01*
X14645818Y-10600626D01*
X14826873Y-10600626D01*
X14837890Y-10608873D01*
X14858397Y-10651089D01*
X14865512Y-10677643D01*
X14865514Y-10677646D01*
X14922352Y-10734484D01*
X14922353Y-10734484D01*
X14922355Y-10734486D01*
X14948909Y-10741601D01*
X15000628Y-10773124D01*
X15008875Y-10762108D01*
X15051087Y-10741601D01*
X15077645Y-10734486D01*
X15134486Y-10677646D01*
X15141601Y-10651091D01*
X15172741Y-10599999D01*
X15353552Y-10599999D01*
X15700000Y-10946446D01*
X15700001Y-10946446D01*
X16045818Y-10600627D01*
X16226873Y-10600627D01*
X16237890Y-10608874D01*
X16258397Y-10651089D01*
X16265512Y-10677644D01*
X16322352Y-10734484D01*
X16322353Y-10734484D01*
X16322355Y-10734486D01*
X16348909Y-10741601D01*
X16400628Y-10773124D01*
X16408875Y-10762108D01*
X16451087Y-10741601D01*
X16477645Y-10734486D01*
X16534486Y-10677646D01*
X16541601Y-10651091D01*
X16572741Y-10599999D01*
X16753552Y-10599999D01*
X17151651Y-10998097D01*
X17180791Y-10947628D01*
X17236003Y-10777702D01*
X17236004Y-10777700D01*
X17254681Y-10600000D01*
X17236004Y-10422299D01*
X17236003Y-10422297D01*
X17180790Y-10252368D01*
X17151651Y-10201900D01*
X16753552Y-10599999D01*
X16572741Y-10599999D01*
X16573124Y-10599370D01*
X16562109Y-10591124D01*
X16541601Y-10548908D01*
X16537593Y-10533950D01*
X16534486Y-10522355D01*
X16534485Y-10522354D01*
X16534485Y-10522353D01*
X16477646Y-10465514D01*
X16451089Y-10458398D01*
X16399371Y-10426873D01*
X16391124Y-10437891D01*
X16348908Y-10458399D01*
X16322356Y-10465513D01*
X16265512Y-10522356D01*
X16265512Y-10522357D01*
X16258397Y-10548910D01*
X16226873Y-10600627D01*
X16045818Y-10600627D01*
X16046446Y-10599999D01*
X15700001Y-10253553D01*
X15700000Y-10253553D01*
X15353552Y-10599999D01*
X15172741Y-10599999D01*
X15173124Y-10599370D01*
X15162109Y-10591124D01*
X15141601Y-10548908D01*
X15137593Y-10533950D01*
X15134486Y-10522355D01*
X15134485Y-10522354D01*
X15134485Y-10522353D01*
X15077645Y-10465513D01*
X15051092Y-10458399D01*
X14999371Y-10426874D01*
X14991126Y-10437890D01*
X14948911Y-10458397D01*
X14922357Y-10465512D01*
X14865512Y-10522356D01*
X14865512Y-10522357D01*
X14858397Y-10548910D01*
X14826873Y-10600626D01*
X14645818Y-10600626D01*
X14646445Y-10599999D01*
X14248347Y-10201900D01*
X14248346Y-10201901D01*
X14219210Y-10252366D01*
X14219209Y-10252368D01*
X14163996Y-10422297D01*
X14163995Y-10422299D01*
X14145318Y-10600000D01*
X12975500Y-10600000D01*
X12975500Y-9889742D01*
X12987969Y-9847279D01*
X14600832Y-9847279D01*
X14999999Y-10246446D01*
X15399166Y-9847279D01*
X16000832Y-9847279D01*
X16399998Y-10246446D01*
X16799166Y-9847279D01*
X16799166Y-9847278D01*
X16664108Y-9787148D01*
X16664109Y-9787148D01*
X16489339Y-9750000D01*
X16310661Y-9750000D01*
X16135890Y-9787148D01*
X16135889Y-9787148D01*
X16000832Y-9847279D01*
X15399166Y-9847279D01*
X15264108Y-9787148D01*
X15264109Y-9787148D01*
X15089339Y-9750000D01*
X14910661Y-9750000D01*
X14735890Y-9787148D01*
X14735889Y-9787148D01*
X14600832Y-9847279D01*
X12987969Y-9847279D01*
X12995185Y-9822703D01*
X13011814Y-9802066D01*
X14466615Y-8347264D01*
X14527936Y-8313781D01*
X14597628Y-8318765D01*
X14630076Y-8336799D01*
X14723064Y-8408603D01*
X14723069Y-8408605D01*
X14723068Y-8408605D01*
X14727475Y-8410977D01*
X14744193Y-8421790D01*
X14821854Y-8481382D01*
X14955770Y-8536851D01*
X15082759Y-8553569D01*
X15099478Y-8555771D01*
X15099479Y-8555771D01*
X15099480Y-8555771D01*
X15114456Y-8553799D01*
X15243188Y-8536851D01*
X15377104Y-8481382D01*
X15492100Y-8393142D01*
X15580340Y-8278146D01*
X15635809Y-8144230D01*
X15647637Y-8054387D01*
X15675902Y-7990494D01*
X15734226Y-7952022D01*
X15754379Y-7947638D01*
X15844230Y-7935809D01*
X15978146Y-7880340D01*
X16093142Y-7792100D01*
X16181382Y-7677104D01*
X16181382Y-7677101D01*
X16186329Y-7670656D01*
X16189017Y-7672719D01*
X16228133Y-7635330D01*
X16296724Y-7622023D01*
X16361621Y-7647911D01*
X16401031Y-7701504D01*
X16408947Y-7722377D01*
X16436728Y-7795628D01*
X16520937Y-7917627D01*
X16523845Y-7921839D01*
X16638630Y-8023530D01*
X16638632Y-8023531D01*
X16774422Y-8094799D01*
X16850984Y-8113670D01*
X16923321Y-8131500D01*
X16923322Y-8131500D01*
X17076679Y-8131500D01*
X17126836Y-8119137D01*
X17225578Y-8094799D01*
X17361368Y-8023531D01*
X17476156Y-7921838D01*
X17563272Y-7795628D01*
X17617653Y-7652238D01*
X17636138Y-7500000D01*
X17633784Y-7480617D01*
X17626009Y-7416583D01*
X17617653Y-7347762D01*
X17563272Y-7204372D01*
X17476156Y-7078162D01*
X17476154Y-7078160D01*
X17361369Y-6976469D01*
X17296540Y-6942444D01*
X17225578Y-6905201D01*
X17225575Y-6905200D01*
X17076679Y-6868500D01*
X17076678Y-6868500D01*
X16923322Y-6868500D01*
X16923321Y-6868500D01*
X16774424Y-6905200D01*
X16638630Y-6976469D01*
X16523845Y-7078160D01*
X16436726Y-7204374D01*
X16436150Y-7205472D01*
X16435517Y-7206125D01*
X16432467Y-7210545D01*
X16431731Y-7210037D01*
X16387560Y-7255679D01*
X16319540Y-7271647D01*
X16253684Y-7248306D01*
X16211799Y-7195288D01*
X16181382Y-7121854D01*
X16093142Y-7006858D01*
X15978146Y-6918618D01*
X15978145Y-6918617D01*
X15978143Y-6918616D01*
X15844233Y-6863150D01*
X15844231Y-6863149D01*
X15844230Y-6863149D01*
X15772375Y-6853689D01*
X15700522Y-6844229D01*
X15700520Y-6844229D01*
X15556810Y-6863149D01*
X15523229Y-6877058D01*
X15494781Y-6885030D01*
X15487593Y-6886144D01*
X15487586Y-6886146D01*
X15062240Y-7041457D01*
X15019709Y-7048979D01*
X14331532Y-7048979D01*
X14306086Y-7046340D01*
X14297006Y-7044436D01*
X14297005Y-7044436D01*
X14297003Y-7044436D01*
X14264382Y-7048502D01*
X14256706Y-7048979D01*
X14253281Y-7048979D01*
X14231778Y-7052566D01*
X14180929Y-7058905D01*
X14173891Y-7061000D01*
X14166943Y-7063385D01*
X14121876Y-7087774D01*
X14075833Y-7110282D01*
X14069887Y-7114527D01*
X14064063Y-7119060D01*
X14029363Y-7156754D01*
X11961955Y-9224161D01*
X11942106Y-9240282D01*
X11934331Y-9245362D01*
X11914143Y-9271298D01*
X11909067Y-9277048D01*
X11906634Y-9279481D01*
X11906623Y-9279494D01*
X11893954Y-9297238D01*
X11862483Y-9337672D01*
X11858975Y-9344153D01*
X11855760Y-9350732D01*
X11841138Y-9399845D01*
X11824498Y-9448316D01*
X11823294Y-9455533D01*
X11822382Y-9462846D01*
X11824500Y-9514030D01*
X11824500Y-11210255D01*
X11804815Y-11277294D01*
X11788181Y-11297936D01*
X10338177Y-12747939D01*
X10318328Y-12764060D01*
X10310553Y-12769140D01*
X10290365Y-12795076D01*
X10285289Y-12800826D01*
X10282856Y-12803259D01*
X10282845Y-12803272D01*
X10270176Y-12821016D01*
X10238705Y-12861450D01*
X10235197Y-12867931D01*
X10231982Y-12874510D01*
X10217360Y-12923623D01*
X10200720Y-12972094D01*
X10199516Y-12979311D01*
X10198604Y-12986624D01*
X10200722Y-13037808D01*
X10200722Y-13730924D01*
X10181037Y-13797963D01*
X10163833Y-13819172D01*
X9967925Y-14012555D01*
X9967156Y-14013318D01*
X9966413Y-14014055D01*
X9963912Y-14016806D01*
X9958602Y-14022117D01*
X9870362Y-14137112D01*
X9870361Y-14137115D01*
X9814894Y-14271026D01*
X9814893Y-14271030D01*
X9795973Y-14414738D01*
X9795973Y-14414739D01*
X-24864341Y-14414739D01*
X-25116360Y-13981138D01*
X-25585643Y-13100003D01*
X-18263299Y-13100003D01*
X-18244163Y-13269844D01*
X-18244162Y-13269850D01*
X-18187709Y-13431183D01*
X-18096771Y-13575909D01*
X-17975909Y-13696771D01*
X-17831183Y-13787709D01*
X-17669850Y-13844162D01*
X-17669847Y-13844162D01*
X-17669844Y-13844163D01*
X-17500004Y-13863299D01*
X-17500000Y-13863299D01*
X-17499996Y-13863299D01*
X-17330155Y-13844163D01*
X-17330150Y-13844162D01*
X-17328847Y-13843706D01*
X-17168817Y-13787709D01*
X-17024091Y-13696771D01*
X-16903229Y-13575909D01*
X-16890899Y-13556287D01*
X-16812291Y-13431183D01*
X-16755837Y-13269849D01*
X-16755836Y-13269844D01*
X-16742334Y-13150000D01*
X-10755250Y-13150000D01*
X-10736330Y-13293709D01*
X-10680861Y-13427625D01*
X-10592621Y-13542621D01*
X-10477625Y-13630861D01*
X-10343709Y-13686330D01*
X-10214977Y-13703278D01*
X-10200001Y-13705250D01*
X-10200000Y-13705250D01*
X-10199999Y-13705250D01*
X-10183280Y-13703048D01*
X-10056291Y-13686330D01*
X-9922375Y-13630861D01*
X-9807379Y-13542621D01*
X-9719139Y-13427625D01*
X-9719138Y-13427624D01*
X-9719137Y-13427622D01*
X-9663671Y-13293712D01*
X-9663670Y-13293708D01*
X-9653852Y-13219139D01*
X-9644750Y-13150000D01*
X-9663670Y-13006291D01*
X-9663671Y-13006287D01*
X-9719137Y-12872377D01*
X-9807379Y-12757379D01*
X-9922377Y-12669137D01*
X-10056287Y-12613671D01*
X-10056291Y-12613670D01*
X-10199999Y-12594750D01*
X-10200001Y-12594750D01*
X-10271854Y-12604210D01*
X-10343709Y-12613670D01*
X-10343710Y-12613670D01*
X-10343712Y-12613671D01*
X-10477622Y-12669137D01*
X-10477624Y-12669138D01*
X-10477625Y-12669139D01*
X-10592621Y-12757379D01*
X-10680861Y-12872375D01*
X-10736330Y-13006291D01*
X-10755250Y-13150000D01*
X-16742334Y-13150000D01*
X-16736701Y-13100003D01*
X-16736701Y-13099996D01*
X-16755836Y-12930155D01*
X-16755837Y-12930150D01*
X-16812291Y-12768816D01*
X-16903228Y-12624091D01*
X-17024091Y-12503228D01*
X-17029228Y-12500000D01*
X-7955250Y-12500000D01*
X-7936330Y-12643709D01*
X-7880861Y-12777625D01*
X-7792621Y-12892621D01*
X-7677625Y-12980861D01*
X-7543709Y-13036330D01*
X-7414977Y-13053278D01*
X-7400001Y-13055250D01*
X-7400000Y-13055250D01*
X-7399999Y-13055250D01*
X-7383280Y-13053048D01*
X-7256291Y-13036330D01*
X-7122375Y-12980861D01*
X-7007379Y-12892621D01*
X-6919139Y-12777625D01*
X-6919138Y-12777624D01*
X-6919137Y-12777622D01*
X-6863671Y-12643712D01*
X-6863670Y-12643708D01*
X-6844750Y-12500000D01*
X-6844750Y-12499999D01*
X-6863670Y-12356291D01*
X-6863671Y-12356287D01*
X-6919138Y-12222376D01*
X-6919139Y-12222374D01*
X-6993485Y-12125485D01*
X-7018679Y-12060316D01*
X-7004641Y-11991871D01*
X-6993487Y-11974516D01*
X-6953460Y-11922353D01*
X-6919139Y-11877626D01*
X-6919138Y-11877623D01*
X-6863671Y-11743712D01*
X-6863670Y-11743708D01*
X-6844750Y-11600000D01*
X-6844750Y-11599999D01*
X-6863670Y-11456291D01*
X-6863671Y-11456287D01*
X-6919137Y-11322377D01*
X-7007379Y-11207379D01*
X-7122377Y-11119137D01*
X-7256287Y-11063671D01*
X-7256291Y-11063670D01*
X-7399999Y-11044750D01*
X-7400001Y-11044750D01*
X-7471854Y-11054210D01*
X-7543709Y-11063670D01*
X-7543710Y-11063670D01*
X-7543712Y-11063671D01*
X-7677622Y-11119137D01*
X-7677624Y-11119138D01*
X-7677625Y-11119139D01*
X-7792621Y-11207379D01*
X-7880861Y-11322375D01*
X-7936330Y-11456291D01*
X-7955250Y-11600000D01*
X-7936330Y-11743709D01*
X-7880861Y-11877625D01*
X-7806514Y-11974515D01*
X-7781321Y-12039682D01*
X-7795359Y-12108127D01*
X-7806510Y-12125480D01*
X-7880861Y-12222375D01*
X-7936330Y-12356291D01*
X-7955250Y-12500000D01*
X-17029228Y-12500000D01*
X-17168816Y-12412291D01*
X-17330150Y-12355837D01*
X-17330155Y-12355836D01*
X-17499996Y-12336701D01*
X-17500004Y-12336701D01*
X-17669844Y-12355836D01*
X-17669849Y-12355837D01*
X-17831183Y-12412291D01*
X-17975908Y-12503228D01*
X-17975909Y-12503229D01*
X-18096771Y-12624091D01*
X-18187709Y-12768817D01*
X-18224693Y-12874512D01*
X-18244162Y-12930150D01*
X-18244163Y-12930155D01*
X-18263299Y-13099996D01*
X-18263299Y-13100003D01*
X-25585643Y-13100003D01*
X-25617922Y-13039395D01*
X-26084189Y-12079687D01*
X-26512036Y-11108970D01*
X-13649165Y-11108970D01*
X-13514115Y-11169099D01*
X-13514110Y-11169101D01*
X-13339339Y-11206250D01*
X-13160661Y-11206250D01*
X-12985889Y-11169101D01*
X-12985884Y-11169099D01*
X-12850833Y-11108970D01*
X-12850832Y-11108969D01*
X-13249999Y-10709802D01*
X-13649165Y-11108969D01*
X-13649165Y-11108970D01*
X-26512036Y-11108970D01*
X-26514519Y-11103336D01*
X-26811198Y-10356250D01*
X-14104681Y-10356250D01*
X-14086004Y-10533950D01*
X-14086003Y-10533952D01*
X-14030791Y-10703878D01*
X-14001651Y-10754347D01*
X-13604180Y-10356877D01*
X-13423125Y-10356877D01*
X-13412108Y-10365125D01*
X-13391602Y-10407337D01*
X-13384486Y-10433895D01*
X-13327645Y-10490736D01*
X-13301090Y-10497851D01*
X-13249371Y-10529374D01*
X-13241125Y-10518358D01*
X-13198912Y-10497851D01*
X-13172355Y-10490736D01*
X-13115514Y-10433896D01*
X-13115513Y-10433894D01*
X-13115512Y-10433893D01*
X-13115512Y-10433892D01*
X-13108397Y-10407340D01*
X-13077255Y-10356249D01*
X-12896446Y-10356249D01*
X-12498347Y-10754348D01*
X-12469209Y-10703880D01*
X-12469206Y-10703874D01*
X-12413996Y-10533952D01*
X-12413995Y-10533950D01*
X-12395318Y-10356250D01*
X-12413995Y-10178549D01*
X-12413996Y-10178547D01*
X-12414628Y-10176603D01*
X6086701Y-10176603D01*
X6105836Y-10346444D01*
X6105837Y-10346449D01*
X6162291Y-10507783D01*
X6252340Y-10651095D01*
X6253229Y-10652509D01*
X6374091Y-10773371D01*
X6518817Y-10864309D01*
X6680150Y-10920762D01*
X6680155Y-10920763D01*
X6849996Y-10939899D01*
X6850000Y-10939899D01*
X6850004Y-10939899D01*
X7019844Y-10920763D01*
X7019847Y-10920762D01*
X7019850Y-10920762D01*
X7181183Y-10864309D01*
X7325909Y-10773371D01*
X7446771Y-10652509D01*
X7537709Y-10507783D01*
X7594162Y-10346450D01*
X7598814Y-10305161D01*
X7613299Y-10176603D01*
X7613299Y-10176596D01*
X7594163Y-10006755D01*
X7594162Y-10006750D01*
X7553219Y-9889742D01*
X7537709Y-9845417D01*
X7446771Y-9700691D01*
X7325909Y-9579829D01*
X7325908Y-9579829D01*
X7325908Y-9579828D01*
X7181183Y-9488891D01*
X7019849Y-9432437D01*
X7019844Y-9432436D01*
X6850004Y-9413301D01*
X6849996Y-9413301D01*
X6680155Y-9432436D01*
X6680150Y-9432437D01*
X6518816Y-9488891D01*
X6374091Y-9579828D01*
X6253228Y-9700691D01*
X6162291Y-9845416D01*
X6105837Y-10006750D01*
X6105836Y-10006755D01*
X6086701Y-10176596D01*
X6086701Y-10176603D01*
X-12414628Y-10176603D01*
X-12469209Y-10008618D01*
X-12469210Y-10008616D01*
X-12498346Y-9958151D01*
X-12498347Y-9958150D01*
X-12896446Y-10356249D01*
X-13077255Y-10356249D01*
X-13076873Y-10355622D01*
X-13087890Y-10347376D01*
X-13108397Y-10305161D01*
X-13115512Y-10278605D01*
X-13172355Y-10221762D01*
X-13198911Y-10214647D01*
X-13250626Y-10183123D01*
X-13258874Y-10194141D01*
X-13301092Y-10214649D01*
X-13327643Y-10221763D01*
X-13327645Y-10221764D01*
X-13384486Y-10278604D01*
X-13384486Y-10278605D01*
X-13391601Y-10305157D01*
X-13423125Y-10356877D01*
X-13604180Y-10356877D01*
X-13603552Y-10356249D01*
X-14001651Y-9958150D01*
X-14001652Y-9958150D01*
X-14030790Y-10008618D01*
X-14086003Y-10178547D01*
X-14086004Y-10178549D01*
X-14104681Y-10356250D01*
X-26811198Y-10356250D01*
X-26908317Y-10111688D01*
X-27028527Y-9772827D01*
X-26175000Y-9772827D01*
X-26174999Y-9772844D01*
X-26168598Y-9832372D01*
X-26168596Y-9832379D01*
X-26118354Y-9967086D01*
X-26118350Y-9967093D01*
X-26032190Y-10082187D01*
X-26032187Y-10082190D01*
X-25917093Y-10168350D01*
X-25917086Y-10168354D01*
X-25782379Y-10218596D01*
X-25782372Y-10218598D01*
X-25722844Y-10224999D01*
X-25722828Y-10225000D01*
X-25075000Y-10225000D01*
X-25075000Y-9487301D01*
X-25055315Y-9420262D01*
X-25002511Y-9374507D01*
X-24933353Y-9364563D01*
X-24860763Y-9375000D01*
X-24860762Y-9375000D01*
X-24789238Y-9375000D01*
X-24789237Y-9375000D01*
X-24716647Y-9364563D01*
X-24647488Y-9374507D01*
X-24594685Y-9420262D01*
X-24575000Y-9487301D01*
X-24575000Y-10225000D01*
X-23927172Y-10225000D01*
X-23927155Y-10224999D01*
X-23867627Y-10218598D01*
X-23867620Y-10218596D01*
X-23732913Y-10168354D01*
X-23732906Y-10168350D01*
X-23617812Y-10082190D01*
X-23617809Y-10082187D01*
X-23531649Y-9967093D01*
X-23531645Y-9967086D01*
X-23481403Y-9832379D01*
X-23481401Y-9832372D01*
X-23475000Y-9772844D01*
X-23475000Y-9603529D01*
X-13649166Y-9603529D01*
X-13249999Y-10002696D01*
X-12850832Y-9603529D01*
X-12985890Y-9543398D01*
X-13160661Y-9506250D01*
X-13339339Y-9506250D01*
X-13514108Y-9543398D01*
X-13649166Y-9603529D01*
X-23475000Y-9603529D01*
X-23475000Y-9125000D01*
X-24211653Y-9125000D01*
X-24278692Y-9105315D01*
X-24324447Y-9052511D01*
X-24334391Y-8983353D01*
X-24330631Y-8966067D01*
X-24325000Y-8946888D01*
X-24325000Y-8803111D01*
X-24330631Y-8783933D01*
X-24330630Y-8714064D01*
X-24292855Y-8655286D01*
X-24229299Y-8626262D01*
X-24211653Y-8625000D01*
X-23475000Y-8625000D01*
X-23474999Y-8624999D01*
X-23475000Y-8200000D01*
X-17036138Y-8200000D01*
X-17017653Y-8352238D01*
X-16963272Y-8495628D01*
X-16876156Y-8621838D01*
X-16761368Y-8723531D01*
X-16625578Y-8794799D01*
X-16513902Y-8822324D01*
X-16476679Y-8831500D01*
X-16476678Y-8831500D01*
X-16323321Y-8831500D01*
X-16273688Y-8819266D01*
X-16174422Y-8794799D01*
X-16038632Y-8723531D01*
X-16038630Y-8723530D01*
X-15955632Y-8650000D01*
X-11405250Y-8650000D01*
X-11386330Y-8793709D01*
X-11330861Y-8927625D01*
X-11242621Y-9042621D01*
X-11127625Y-9130861D01*
X-10993709Y-9186330D01*
X-10864977Y-9203278D01*
X-10850001Y-9205250D01*
X-10850000Y-9205250D01*
X-10849999Y-9205250D01*
X-10833280Y-9203048D01*
X-10706291Y-9186330D01*
X-10617013Y-9149350D01*
X-10572377Y-9130862D01*
X-10572376Y-9130861D01*
X-10572375Y-9130861D01*
X-10475484Y-9056514D01*
X-10410318Y-9031321D01*
X-10341873Y-9045359D01*
X-10324519Y-9056510D01*
X-10227625Y-9130861D01*
X-10093709Y-9186330D01*
X-9964977Y-9203278D01*
X-9950001Y-9205250D01*
X-9950000Y-9205250D01*
X-9949999Y-9205250D01*
X-9933280Y-9203048D01*
X-9806291Y-9186330D01*
X-9717013Y-9149350D01*
X-9672377Y-9130862D01*
X-9672376Y-9130861D01*
X-9672375Y-9130861D01*
X-9557379Y-9042621D01*
X-9469139Y-8927625D01*
X-9469138Y-8927624D01*
X-9469137Y-8927622D01*
X-9413671Y-8793712D01*
X-9413670Y-8793708D01*
X-9401333Y-8700000D01*
X-2655250Y-8700000D01*
X-2636330Y-8843709D01*
X-2580861Y-8977625D01*
X-2492621Y-9092621D01*
X-2377625Y-9180861D01*
X-2243709Y-9236330D01*
X-2114977Y-9253278D01*
X-2100001Y-9255250D01*
X-2100000Y-9255250D01*
X-2099999Y-9255250D01*
X-2083280Y-9253048D01*
X-1956291Y-9236330D01*
X-1867013Y-9199350D01*
X-1822377Y-9180862D01*
X-1822376Y-9180861D01*
X-1822375Y-9180861D01*
X-1707379Y-9092621D01*
X-1619139Y-8977625D01*
X-1619138Y-8977624D01*
X-1619137Y-8977622D01*
X-1563671Y-8843712D01*
X-1563670Y-8843708D01*
X-1544750Y-8700000D01*
X-1544750Y-8699999D01*
X-1563670Y-8556291D01*
X-1563671Y-8556287D01*
X-1619137Y-8422377D01*
X-1707379Y-8307379D01*
X-1822377Y-8219137D01*
X-1956287Y-8163671D01*
X-1956291Y-8163670D01*
X-2099999Y-8144750D01*
X-2100001Y-8144750D01*
X-2171854Y-8154210D01*
X-2243709Y-8163670D01*
X-2243710Y-8163670D01*
X-2243712Y-8163671D01*
X-2377622Y-8219137D01*
X-2377624Y-8219138D01*
X-2377625Y-8219139D01*
X-2492621Y-8307379D01*
X-2580861Y-8422375D01*
X-2580861Y-8422376D01*
X-2580862Y-8422377D01*
X-2592323Y-8450048D01*
X-2636330Y-8556291D01*
X-2651187Y-8669137D01*
X-2654919Y-8697489D01*
X-2655250Y-8700000D01*
X-9401333Y-8700000D01*
X-9394750Y-8650000D01*
X-9394750Y-8649999D01*
X-9413670Y-8506291D01*
X-9413671Y-8506287D01*
X-9469137Y-8372377D01*
X-9557379Y-8257379D01*
X-9672377Y-8169137D01*
X-9806287Y-8113671D01*
X-9806291Y-8113670D01*
X-9910122Y-8100000D01*
X-1305250Y-8100000D01*
X-1286330Y-8243709D01*
X-1230861Y-8377625D01*
X-1142621Y-8492621D01*
X-1027625Y-8580861D01*
X-893709Y-8636330D01*
X-764977Y-8653278D01*
X-750001Y-8655250D01*
X-750000Y-8655250D01*
X-749999Y-8655250D01*
X-733280Y-8653048D01*
X-606291Y-8636330D01*
X-517013Y-8599350D01*
X-472377Y-8580862D01*
X-472376Y-8580861D01*
X-472375Y-8580861D01*
X-357379Y-8492621D01*
X-269139Y-8377625D01*
X-269138Y-8377624D01*
X-269137Y-8377622D01*
X-213671Y-8243712D01*
X-213670Y-8243708D01*
X-207915Y-8200000D01*
X-194750Y-8100000D01*
X-201628Y-8047761D01*
X-207916Y-8000000D01*
X4844750Y-8000000D01*
X4857915Y-8100000D01*
X4863670Y-8143708D01*
X4863671Y-8143712D01*
X4919137Y-8277622D01*
X4919138Y-8277624D01*
X4919139Y-8277625D01*
X5007379Y-8392621D01*
X5122375Y-8480861D01*
X5122376Y-8480861D01*
X5122377Y-8480862D01*
X5158026Y-8495628D01*
X5256291Y-8536330D01*
X5383280Y-8553048D01*
X5399999Y-8555250D01*
X5400000Y-8555250D01*
X5400001Y-8555250D01*
X5414977Y-8553278D01*
X5543709Y-8536330D01*
X5677625Y-8480861D01*
X5783005Y-8400000D01*
X9144750Y-8400000D01*
X9162698Y-8536329D01*
X9163670Y-8543708D01*
X9163671Y-8543712D01*
X9219137Y-8677622D01*
X9219138Y-8677624D01*
X9219139Y-8677625D01*
X9307379Y-8792621D01*
X9422375Y-8880861D01*
X9556291Y-8936330D01*
X9683280Y-8953048D01*
X9699999Y-8955250D01*
X9700000Y-8955250D01*
X9700001Y-8955250D01*
X9714977Y-8953278D01*
X9843709Y-8936330D01*
X9977625Y-8880861D01*
X10092621Y-8792621D01*
X10180861Y-8677625D01*
X10213014Y-8600000D01*
X10544750Y-8600000D01*
X10561013Y-8723531D01*
X10563670Y-8743708D01*
X10563671Y-8743712D01*
X10619137Y-8877622D01*
X10619138Y-8877624D01*
X10619139Y-8877625D01*
X10707379Y-8992621D01*
X10822375Y-9080861D01*
X10822376Y-9080861D01*
X10822377Y-9080862D01*
X10867013Y-9099350D01*
X10956291Y-9136330D01*
X11083280Y-9153048D01*
X11099999Y-9155250D01*
X11100000Y-9155250D01*
X11100001Y-9155250D01*
X11114977Y-9153278D01*
X11243709Y-9136330D01*
X11377625Y-9080861D01*
X11492621Y-8992621D01*
X11580861Y-8877625D01*
X11636330Y-8743709D01*
X11655250Y-8600000D01*
X11636330Y-8456291D01*
X11598939Y-8366019D01*
X11580862Y-8322377D01*
X11580861Y-8322376D01*
X11580861Y-8322375D01*
X11492621Y-8207379D01*
X11377625Y-8119139D01*
X11377624Y-8119138D01*
X11377622Y-8119137D01*
X11243712Y-8063671D01*
X11243710Y-8063670D01*
X11243709Y-8063670D01*
X11171854Y-8054210D01*
X11100001Y-8044750D01*
X11099999Y-8044750D01*
X10956291Y-8063670D01*
X10956287Y-8063671D01*
X10822377Y-8119137D01*
X10707379Y-8207379D01*
X10619137Y-8322377D01*
X10563671Y-8456287D01*
X10563670Y-8456291D01*
X10547270Y-8580862D01*
X10544750Y-8600000D01*
X10213014Y-8600000D01*
X10236330Y-8543709D01*
X10255250Y-8400000D01*
X10236330Y-8256291D01*
X10180861Y-8122375D01*
X10092621Y-8007379D01*
X9977625Y-7919139D01*
X9977624Y-7919138D01*
X9977622Y-7919137D01*
X9843712Y-7863671D01*
X9843710Y-7863670D01*
X9843709Y-7863670D01*
X9771854Y-7854210D01*
X9700001Y-7844750D01*
X9699999Y-7844750D01*
X9556291Y-7863670D01*
X9556287Y-7863671D01*
X9422377Y-7919137D01*
X9307379Y-8007379D01*
X9219137Y-8122377D01*
X9163671Y-8256287D01*
X9163670Y-8256291D01*
X9145722Y-8392620D01*
X9144750Y-8400000D01*
X5783005Y-8400000D01*
X5792621Y-8392621D01*
X5880861Y-8277625D01*
X5936330Y-8143709D01*
X5955250Y-8000000D01*
X5953998Y-7990494D01*
X5948933Y-7952022D01*
X5936330Y-7856291D01*
X5880861Y-7722375D01*
X5792621Y-7607379D01*
X5677625Y-7519139D01*
X5677624Y-7519138D01*
X5677622Y-7519137D01*
X5543712Y-7463671D01*
X5543710Y-7463670D01*
X5543709Y-7463670D01*
X5458950Y-7452511D01*
X5400001Y-7444750D01*
X5399999Y-7444750D01*
X5256291Y-7463670D01*
X5256287Y-7463671D01*
X5122377Y-7519137D01*
X5007379Y-7607379D01*
X4919137Y-7722377D01*
X4863671Y-7856287D01*
X4863670Y-7856291D01*
X4846002Y-7990494D01*
X4844750Y-8000000D01*
X-207916Y-8000000D01*
X-213670Y-7956291D01*
X-213671Y-7956287D01*
X-269137Y-7822377D01*
X-357379Y-7707379D01*
X-472377Y-7619137D01*
X-606287Y-7563671D01*
X-606291Y-7563670D01*
X-749999Y-7544750D01*
X-750001Y-7544750D01*
X-821854Y-7554210D01*
X-893709Y-7563670D01*
X-893710Y-7563670D01*
X-893712Y-7563671D01*
X-1027622Y-7619137D01*
X-1027624Y-7619138D01*
X-1027625Y-7619139D01*
X-1142621Y-7707379D01*
X-1230861Y-7822375D01*
X-1286330Y-7956291D01*
X-1305250Y-8100000D01*
X-9910122Y-8100000D01*
X-9949999Y-8094750D01*
X-9950001Y-8094750D01*
X-9989877Y-8100000D01*
X-10093709Y-8113670D01*
X-10093710Y-8113670D01*
X-10093712Y-8113671D01*
X-10227622Y-8169137D01*
X-10227624Y-8169138D01*
X-10227625Y-8169139D01*
X-10324515Y-8243485D01*
X-10389682Y-8268679D01*
X-10458127Y-8254641D01*
X-10475480Y-8243489D01*
X-10537581Y-8195836D01*
X-10572377Y-8169137D01*
X-10706287Y-8113671D01*
X-10706291Y-8113670D01*
X-10849999Y-8094750D01*
X-10850001Y-8094750D01*
X-10889877Y-8100000D01*
X-10993709Y-8113670D01*
X-10993710Y-8113670D01*
X-10993712Y-8113671D01*
X-11127622Y-8169137D01*
X-11127624Y-8169138D01*
X-11127625Y-8169139D01*
X-11242621Y-8257379D01*
X-11330861Y-8372375D01*
X-11330861Y-8372376D01*
X-11330862Y-8372377D01*
X-11345865Y-8408599D01*
X-11386330Y-8506291D01*
X-11405250Y-8650000D01*
X-15955632Y-8650000D01*
X-15923845Y-8621839D01*
X-15912360Y-8605201D01*
X-15865181Y-8536850D01*
X-15836729Y-8495630D01*
X-15821809Y-8456291D01*
X-15782347Y-8352238D01*
X-15782346Y-8352235D01*
X-15763862Y-8200000D01*
X-15763862Y-8199999D01*
X-15782346Y-8047764D01*
X-15782347Y-8047761D01*
X-15836729Y-7904369D01*
X-15923845Y-7778160D01*
X-16038630Y-7676469D01*
X-16174424Y-7605200D01*
X-16323321Y-7568500D01*
X-16323322Y-7568500D01*
X-16476678Y-7568500D01*
X-16476679Y-7568500D01*
X-16625575Y-7605200D01*
X-16625578Y-7605201D01*
X-16658300Y-7622375D01*
X-16761369Y-7676469D01*
X-16851469Y-7756291D01*
X-16876156Y-7778162D01*
X-16963272Y-7904372D01*
X-17017653Y-8047762D01*
X-17036138Y-8200000D01*
X-23475000Y-8200000D01*
X-23475000Y-7977172D01*
X-23475000Y-7977155D01*
X-23481401Y-7917627D01*
X-23481403Y-7917620D01*
X-23531645Y-7782913D01*
X-23531649Y-7782906D01*
X-23617809Y-7667812D01*
X-23617812Y-7667809D01*
X-23732906Y-7581649D01*
X-23732913Y-7581645D01*
X-23867620Y-7531403D01*
X-23867627Y-7531401D01*
X-23927155Y-7525000D01*
X-24220612Y-7525000D01*
X-24287651Y-7505315D01*
X-24333406Y-7452511D01*
X-24343350Y-7383353D01*
X-24314325Y-7319797D01*
X-24285889Y-7295573D01*
X-24158960Y-7216982D01*
X-24158958Y-7216980D01*
X-24008237Y-7079581D01*
X-23885327Y-6916821D01*
X-23794422Y-6734260D01*
X-23794417Y-6734247D01*
X-23738602Y-6538082D01*
X-23719785Y-6335000D01*
X-23719785Y-6334999D01*
X-23738602Y-6131917D01*
X-23794417Y-5935752D01*
X-23794422Y-5935739D01*
X-23885327Y-5753178D01*
X-24008237Y-5590418D01*
X-24158958Y-5453019D01*
X-24158960Y-5453017D01*
X-24332357Y-5345655D01*
X-24332364Y-5345651D01*
X-24522541Y-5271977D01*
X-24522541Y-5271976D01*
X-24522544Y-5271976D01*
X-24723024Y-5234500D01*
X-24926976Y-5234500D01*
X-25127456Y-5271976D01*
X-25187495Y-5295235D01*
X-25317635Y-5345651D01*
X-25317642Y-5345655D01*
X-25491039Y-5453017D01*
X-25491041Y-5453019D01*
X-25641762Y-5590418D01*
X-25641764Y-5590421D01*
X-25764673Y-5753179D01*
X-25855582Y-5935750D01*
X-25911397Y-6131917D01*
X-25930215Y-6335000D01*
X-25911397Y-6538083D01*
X-25855582Y-6734250D01*
X-25764673Y-6916821D01*
X-25641764Y-7079579D01*
X-25491041Y-7216981D01*
X-25491038Y-7216982D01*
X-25491039Y-7216982D01*
X-25364111Y-7295573D01*
X-25317475Y-7347601D01*
X-25306371Y-7416583D01*
X-25334324Y-7480617D01*
X-25392459Y-7519373D01*
X-25429388Y-7525000D01*
X-25722844Y-7525000D01*
X-25782372Y-7531401D01*
X-25782379Y-7531403D01*
X-25917086Y-7581645D01*
X-25917093Y-7581649D01*
X-26032187Y-7667809D01*
X-26032190Y-7667812D01*
X-26118350Y-7782906D01*
X-26118354Y-7782913D01*
X-26168596Y-7917620D01*
X-26168598Y-7917627D01*
X-26174999Y-7977155D01*
X-26175000Y-7977172D01*
X-26175000Y-8625000D01*
X-25438347Y-8625000D01*
X-25371308Y-8644685D01*
X-25325553Y-8697489D01*
X-25315609Y-8766647D01*
X-25319369Y-8783933D01*
X-25325000Y-8803111D01*
X-25325000Y-8946888D01*
X-25319369Y-8966067D01*
X-25319370Y-9035936D01*
X-25357145Y-9094714D01*
X-25420701Y-9123738D01*
X-25438347Y-9125000D01*
X-26175000Y-9125000D01*
X-26175000Y-9772827D01*
X-27028527Y-9772827D01*
X-27265043Y-9106108D01*
X-27584204Y-8087982D01*
X-27865361Y-7058713D01*
X-28108126Y-6019718D01*
X-28312165Y-4972430D01*
X-28477197Y-3918291D01*
X-28491835Y-3795000D01*
X-25930215Y-3795000D01*
X-25911397Y-3998083D01*
X-25855582Y-4194250D01*
X-25764673Y-4376821D01*
X-25641764Y-4539579D01*
X-25491041Y-4676981D01*
X-25317637Y-4784348D01*
X-25127456Y-4858024D01*
X-24926976Y-4895500D01*
X-24926974Y-4895500D01*
X-24723026Y-4895500D01*
X-24723024Y-4895500D01*
X-24522544Y-4858024D01*
X-24332363Y-4784348D01*
X-24258141Y-4738392D01*
X-24158960Y-4676982D01*
X-24158958Y-4676980D01*
X-24008237Y-4539581D01*
X-23885327Y-4376821D01*
X-23794422Y-4194260D01*
X-23794417Y-4194247D01*
X-23788941Y-4175000D01*
X-21430250Y-4175000D01*
X-21411330Y-4318709D01*
X-21355861Y-4452625D01*
X-21267621Y-4567621D01*
X-21152625Y-4655861D01*
X-21018709Y-4711330D01*
X-20903316Y-4726522D01*
X-20875001Y-4730250D01*
X-20875000Y-4730250D01*
X-20874999Y-4730250D01*
X-20846684Y-4726522D01*
X-20731291Y-4711330D01*
X-20618956Y-4664800D01*
X-20597377Y-4655862D01*
X-20597376Y-4655861D01*
X-20597375Y-4655861D01*
X-20482379Y-4567621D01*
X-20394139Y-4452625D01*
X-20394138Y-4452624D01*
X-20394137Y-4452622D01*
X-20338671Y-4318712D01*
X-20338670Y-4318708D01*
X-20319750Y-4175000D01*
X-20319750Y-4174996D01*
X-20328856Y-4105826D01*
X-20318090Y-4036791D01*
X-20271710Y-3984536D01*
X-20222103Y-3966703D01*
X-20181291Y-3961330D01*
X-20047375Y-3905861D01*
X-19932379Y-3817621D01*
X-19844139Y-3702625D01*
X-19844138Y-3702624D01*
X-19844137Y-3702622D01*
X-19788671Y-3568712D01*
X-19788670Y-3568708D01*
X-19769750Y-3425000D01*
X-19769750Y-3424997D01*
X-19788988Y-3278869D01*
X-19778222Y-3209834D01*
X-19731842Y-3157578D01*
X-19682234Y-3139745D01*
X-19656291Y-3136330D01*
X-19529695Y-3083893D01*
X-19522377Y-3080862D01*
X-19522376Y-3080861D01*
X-19522375Y-3080861D01*
X-19407379Y-2992621D01*
X-19319139Y-2877625D01*
X-19319138Y-2877624D01*
X-19319137Y-2877622D01*
X-19263671Y-2743712D01*
X-19263670Y-2743708D01*
X-19262125Y-2731977D01*
X-19255274Y-2679935D01*
X-3749660Y-2679935D01*
X-3729377Y-2885869D01*
X-3669309Y-3083890D01*
X-3571762Y-3266385D01*
X-3440487Y-3426345D01*
X-3280527Y-3557620D01*
X-3098032Y-3655167D01*
X-2900011Y-3715235D01*
X-2694077Y-3735518D01*
X-2488143Y-3715235D01*
X-2290122Y-3655167D01*
X-2107627Y-3557620D01*
X-1987754Y-3459243D01*
X-1987753Y-3459242D01*
X-1987748Y-3459238D01*
X-1561219Y-3032709D01*
X-1462840Y-2912834D01*
X-1452035Y-2892621D01*
X-1365291Y-2730335D01*
X-1325754Y-2599999D01*
X-1305222Y-2532313D01*
X-1302040Y-2500000D01*
X11744750Y-2500000D01*
X11757915Y-2600000D01*
X11763670Y-2643708D01*
X11763671Y-2643712D01*
X11819137Y-2777622D01*
X11819138Y-2777624D01*
X11819139Y-2777625D01*
X11907379Y-2892621D01*
X12022375Y-2980861D01*
X12022376Y-2980861D01*
X12022377Y-2980862D01*
X12056025Y-2994799D01*
X12156291Y-3036330D01*
X12283280Y-3053048D01*
X12299999Y-3055250D01*
X12300000Y-3055250D01*
X12300001Y-3055250D01*
X12314977Y-3053278D01*
X12443709Y-3036330D01*
X12577625Y-2980861D01*
X12692621Y-2892621D01*
X12780861Y-2777625D01*
X12833724Y-2650000D01*
X14844750Y-2650000D01*
X14861552Y-2777625D01*
X14863670Y-2793708D01*
X14863671Y-2793712D01*
X14919137Y-2927622D01*
X14919138Y-2927624D01*
X14919139Y-2927625D01*
X15007379Y-3042621D01*
X15122375Y-3130861D01*
X15122376Y-3130861D01*
X15122377Y-3130862D01*
X15143823Y-3139745D01*
X15256291Y-3186330D01*
X15383280Y-3203048D01*
X15399999Y-3205250D01*
X15400000Y-3205250D01*
X15400001Y-3205250D01*
X15414977Y-3203278D01*
X15543709Y-3186330D01*
X15677625Y-3130861D01*
X15792621Y-3042621D01*
X15880861Y-2927625D01*
X15936330Y-2793709D01*
X15955250Y-2650000D01*
X15948667Y-2600000D01*
X18044750Y-2600000D01*
X18062125Y-2731977D01*
X18063670Y-2743708D01*
X18063671Y-2743712D01*
X18119137Y-2877622D01*
X18119138Y-2877624D01*
X18119139Y-2877625D01*
X18207379Y-2992621D01*
X18322375Y-3080861D01*
X18322376Y-3080861D01*
X18322377Y-3080862D01*
X18329695Y-3083893D01*
X18456291Y-3136330D01*
X18583280Y-3153048D01*
X18599999Y-3155250D01*
X18600000Y-3155250D01*
X18600001Y-3155250D01*
X18614977Y-3153278D01*
X18743709Y-3136330D01*
X18877625Y-3080861D01*
X18992621Y-2992621D01*
X19080861Y-2877625D01*
X19136330Y-2743709D01*
X19155250Y-2600000D01*
X19136330Y-2456291D01*
X19080861Y-2322375D01*
X18992621Y-2207379D01*
X18877625Y-2119139D01*
X18877624Y-2119138D01*
X18877622Y-2119137D01*
X18743712Y-2063671D01*
X18743710Y-2063670D01*
X18743709Y-2063670D01*
X18671854Y-2054210D01*
X18600001Y-2044750D01*
X18599999Y-2044750D01*
X18456291Y-2063670D01*
X18456287Y-2063671D01*
X18322377Y-2119137D01*
X18207379Y-2207379D01*
X18119137Y-2322377D01*
X18063671Y-2456287D01*
X18063670Y-2456291D01*
X18051524Y-2548551D01*
X18044750Y-2600000D01*
X15948667Y-2600000D01*
X15936330Y-2506291D01*
X15899350Y-2417013D01*
X15880862Y-2372377D01*
X15880861Y-2372376D01*
X15880861Y-2372375D01*
X15792621Y-2257379D01*
X15677625Y-2169139D01*
X15677624Y-2169138D01*
X15677622Y-2169137D01*
X15543712Y-2113671D01*
X15543710Y-2113670D01*
X15543709Y-2113670D01*
X15471854Y-2104210D01*
X15400001Y-2094750D01*
X15399999Y-2094750D01*
X15256291Y-2113670D01*
X15256287Y-2113671D01*
X15122377Y-2169137D01*
X15007379Y-2257379D01*
X14919137Y-2372377D01*
X14863671Y-2506287D01*
X14863670Y-2506291D01*
X14844750Y-2650000D01*
X12833724Y-2650000D01*
X12836330Y-2643709D01*
X12855250Y-2500000D01*
X12836330Y-2356291D01*
X12791377Y-2247764D01*
X12780862Y-2222377D01*
X12780861Y-2222376D01*
X12780861Y-2222375D01*
X12692621Y-2107379D01*
X12577625Y-2019139D01*
X12577624Y-2019138D01*
X12577622Y-2019137D01*
X12443712Y-1963671D01*
X12443710Y-1963670D01*
X12443709Y-1963670D01*
X12371854Y-1954210D01*
X12300001Y-1944750D01*
X12299999Y-1944750D01*
X12156291Y-1963670D01*
X12156287Y-1963671D01*
X12022377Y-2019137D01*
X11907379Y-2107379D01*
X11819137Y-2222377D01*
X11763671Y-2356287D01*
X11763670Y-2356291D01*
X11750505Y-2456291D01*
X11744750Y-2500000D01*
X-1302040Y-2500000D01*
X-1284940Y-2326381D01*
X-1305222Y-2120449D01*
X-1365292Y-1922422D01*
X-1462840Y-1739928D01*
X-1594112Y-1579970D01*
X-1754070Y-1448698D01*
X-1754071Y-1448697D01*
X-1754073Y-1448696D01*
X-1801217Y-1423496D01*
X-1936564Y-1351150D01*
X-2035578Y-1321114D01*
X-2134589Y-1291081D01*
X-2134590Y-1291080D01*
X-2134589Y-1291080D01*
X-2340523Y-1270798D01*
X-2546455Y-1291080D01*
X-2594324Y-1305601D01*
X-2744477Y-1351149D01*
X-2926973Y-1448696D01*
X-2926974Y-1448697D01*
X-2926976Y-1448698D01*
X-3046851Y-1547077D01*
X-3473380Y-1973606D01*
X-3547294Y-2063671D01*
X-3571762Y-2093485D01*
X-3669309Y-2275980D01*
X-3729377Y-2474001D01*
X-3749660Y-2679935D01*
X-19255274Y-2679935D01*
X-19244750Y-2600000D01*
X-19251524Y-2548551D01*
X-19263670Y-2456291D01*
X-19263671Y-2456287D01*
X-19319137Y-2322377D01*
X-19407379Y-2207379D01*
X-19522377Y-2119137D01*
X-19656287Y-2063671D01*
X-19656291Y-2063670D01*
X-19799999Y-2044750D01*
X-19800001Y-2044750D01*
X-19871854Y-2054210D01*
X-19943709Y-2063670D01*
X-19943710Y-2063670D01*
X-19943712Y-2063671D01*
X-20077622Y-2119137D01*
X-20077624Y-2119138D01*
X-20077625Y-2119139D01*
X-20192621Y-2207379D01*
X-20280861Y-2322375D01*
X-20336330Y-2456291D01*
X-20355250Y-2600000D01*
X-20337875Y-2731977D01*
X-20336011Y-2746129D01*
X-20346776Y-2815164D01*
X-20393156Y-2867420D01*
X-20442763Y-2885254D01*
X-20447411Y-2885866D01*
X-20468709Y-2888670D01*
X-20468710Y-2888670D01*
X-20468712Y-2888671D01*
X-20602622Y-2944137D01*
X-20602624Y-2944138D01*
X-20602625Y-2944139D01*
X-20717621Y-3032379D01*
X-20805861Y-3147375D01*
X-20861330Y-3281291D01*
X-20880250Y-3425000D01*
X-20873621Y-3475354D01*
X-20871143Y-3494171D01*
X-20881908Y-3563206D01*
X-20928288Y-3615462D01*
X-20977894Y-3633296D01*
X-21010248Y-3637556D01*
X-21018709Y-3638670D01*
X-21018710Y-3638670D01*
X-21018712Y-3638671D01*
X-21152622Y-3694137D01*
X-21152624Y-3694138D01*
X-21152625Y-3694139D01*
X-21267621Y-3782379D01*
X-21355861Y-3897375D01*
X-21355861Y-3897376D01*
X-21355862Y-3897377D01*
X-21364525Y-3918291D01*
X-21411330Y-4031291D01*
X-21421836Y-4111092D01*
X-21430249Y-4174996D01*
X-21430250Y-4175000D01*
X-23788941Y-4175000D01*
X-23738602Y-3998082D01*
X-23719785Y-3795000D01*
X-23719785Y-3794999D01*
X-23738602Y-3591917D01*
X-23794417Y-3395752D01*
X-23794422Y-3395739D01*
X-23885327Y-3213178D01*
X-24008237Y-3050418D01*
X-24158958Y-2913019D01*
X-24158960Y-2913017D01*
X-24332357Y-2805655D01*
X-24332364Y-2805651D01*
X-24522541Y-2731977D01*
X-24522541Y-2731976D01*
X-24522544Y-2731976D01*
X-24723024Y-2694500D01*
X-24926976Y-2694500D01*
X-25127456Y-2731976D01*
X-25157750Y-2743712D01*
X-25317635Y-2805651D01*
X-25317642Y-2805655D01*
X-25491039Y-2913017D01*
X-25491041Y-2913019D01*
X-25641762Y-3050418D01*
X-25641764Y-3050421D01*
X-25764673Y-3213179D01*
X-25798630Y-3281375D01*
X-25846557Y-3377626D01*
X-25855582Y-3395750D01*
X-25905737Y-3572025D01*
X-25911397Y-3591917D01*
X-25918724Y-3670995D01*
X-25930215Y-3795000D01*
X-28491835Y-3795000D01*
X-28602995Y-2858754D01*
X-28689384Y-1795278D01*
X-28736246Y-729329D01*
X-28743517Y337626D01*
X-28722377Y1035000D01*
X-26155636Y1035000D01*
X-26098432Y821513D01*
X-26098429Y821507D01*
X-25998600Y607421D01*
X-25863105Y413917D01*
X-25696082Y246894D01*
X-25502578Y111399D01*
X-25288492Y11570D01*
X-25288481Y11565D01*
X-25249417Y1099D01*
X-25189756Y-35265D01*
X-25159226Y-98112D01*
X-25167520Y-167487D01*
X-25212005Y-221366D01*
X-25236715Y-234303D01*
X-25317635Y-265651D01*
X-25317642Y-265655D01*
X-25491039Y-373017D01*
X-25491041Y-373019D01*
X-25641762Y-510418D01*
X-25641764Y-510421D01*
X-25764673Y-673179D01*
X-25782305Y-708590D01*
X-25847428Y-839375D01*
X-25855582Y-855750D01*
X-25894255Y-991670D01*
X-25911397Y-1051917D01*
X-25930106Y-1253829D01*
X-25930215Y-1255000D01*
X-25911397Y-1458083D01*
X-25855582Y-1654250D01*
X-25764673Y-1836821D01*
X-25641764Y-1999579D01*
X-25491041Y-2136981D01*
X-25317637Y-2244348D01*
X-25127456Y-2318024D01*
X-24926976Y-2355500D01*
X-24926974Y-2355500D01*
X-24723026Y-2355500D01*
X-24723024Y-2355500D01*
X-24522544Y-2318024D01*
X-24332363Y-2244348D01*
X-24210893Y-2169137D01*
X-24158960Y-2136982D01*
X-24158958Y-2136980D01*
X-24008237Y-1999581D01*
X-23885327Y-1836821D01*
X-23794422Y-1654260D01*
X-23794417Y-1654247D01*
X-23738602Y-1458082D01*
X-23719785Y-1255000D01*
X-23719785Y-1254999D01*
X-23738602Y-1051917D01*
X-23788940Y-875000D01*
X-18234160Y-875000D01*
X-18193347Y-1009541D01*
X-18100496Y-1183253D01*
X-18100492Y-1183260D01*
X-17975528Y-1335528D01*
X-17823260Y-1460491D01*
X-17649534Y-1553349D01*
X-17515000Y-1594159D01*
X-17515000Y-1058709D01*
X-17495315Y-991670D01*
X-17442511Y-945915D01*
X-17373353Y-935971D01*
X-17369518Y-936584D01*
X-17293436Y-950000D01*
X-17293432Y-950000D01*
X-17236568Y-950000D01*
X-17236564Y-950000D01*
X-17160530Y-936593D01*
X-17091094Y-944337D01*
X-17036864Y-988393D01*
X-17015062Y-1054774D01*
X-17015000Y-1058709D01*
X-17015000Y-1594159D01*
X-16880465Y-1553349D01*
X-16706739Y-1460491D01*
X-16554471Y-1335528D01*
X-16528643Y-1304056D01*
X-16470897Y-1264722D01*
X-16401053Y-1262851D01*
X-16366822Y-1277725D01*
X-16322690Y-1305456D01*
X-16163059Y-1361313D01*
X-16095835Y-1368887D01*
X-15995003Y-1380249D01*
X-15995000Y-1380249D01*
X-15994997Y-1380249D01*
X-15826943Y-1361314D01*
X-15773730Y-1342693D01*
X-15667310Y-1305456D01*
X-15667307Y-1305454D01*
X-15667306Y-1305454D01*
X-15585145Y-1253828D01*
X-15517908Y-1234827D01*
X-15451073Y-1255194D01*
X-15416071Y-1289930D01*
X-15405601Y-1305601D01*
X-15322740Y-1360966D01*
X-15249677Y-1375499D01*
X-15249676Y-1375500D01*
X-15249674Y-1375500D01*
X-14200324Y-1375500D01*
X-14200321Y-1375499D01*
X-14127264Y-1360967D01*
X-14127260Y-1360966D01*
X-14089186Y-1335526D01*
X-14044399Y-1305601D01*
X-13989034Y-1222740D01*
X-13989033Y-1222739D01*
X-13989032Y-1222735D01*
X-13974500Y-1149678D01*
X-13974500Y-374999D01*
X13765839Y-374999D01*
X13765840Y-375000D01*
X14303045Y-375000D01*
X14370084Y-394685D01*
X14415839Y-447489D01*
X14425783Y-516647D01*
X14419568Y-541404D01*
X14410000Y-567694D01*
X14410000Y-682306D01*
X14419567Y-708592D01*
X14423998Y-778319D01*
X14390027Y-839375D01*
X14328440Y-872372D01*
X14303045Y-875000D01*
X13765840Y-875000D01*
X13806652Y-1009541D01*
X13899503Y-1183253D01*
X13899507Y-1183260D01*
X14024471Y-1335528D01*
X14176739Y-1460491D01*
X14350465Y-1553349D01*
X14485000Y-1594159D01*
X14485000Y-1058709D01*
X14504685Y-991670D01*
X14557489Y-945915D01*
X14626647Y-935971D01*
X14630481Y-936584D01*
X14706564Y-950000D01*
X14706568Y-950000D01*
X14763432Y-950000D01*
X14763436Y-950000D01*
X14839469Y-936593D01*
X14908906Y-944337D01*
X14963136Y-988393D01*
X14984938Y-1054774D01*
X14985000Y-1058709D01*
X14985000Y-1594159D01*
X15119534Y-1553349D01*
X15293260Y-1460492D01*
X15445529Y-1335526D01*
X15471354Y-1304058D01*
X15529100Y-1264722D01*
X15598944Y-1262851D01*
X15633177Y-1277725D01*
X15677310Y-1305456D01*
X15786516Y-1343668D01*
X15836943Y-1361314D01*
X16004997Y-1380249D01*
X16005000Y-1380249D01*
X16005003Y-1380249D01*
X16173056Y-1361314D01*
X16202106Y-1351149D01*
X16332690Y-1305456D01*
X16332692Y-1305454D01*
X16332694Y-1305454D01*
X16332697Y-1305452D01*
X16414855Y-1253829D01*
X16482091Y-1234828D01*
X16548926Y-1255195D01*
X16583928Y-1289930D01*
X16584697Y-1291080D01*
X16594398Y-1305600D01*
X16677260Y-1360966D01*
X16677264Y-1360967D01*
X16750321Y-1375499D01*
X16750324Y-1375500D01*
X16750326Y-1375500D01*
X17799676Y-1375500D01*
X17799677Y-1375499D01*
X17872740Y-1360966D01*
X17955601Y-1305601D01*
X18010966Y-1222740D01*
X18025500Y-1149674D01*
X18025500Y-100326D01*
X18025500Y-100325D01*
X18025500Y-100323D01*
X18025499Y-100321D01*
X18010967Y-27264D01*
X18010966Y-27260D01*
X17992017Y1099D01*
X17955601Y55601D01*
X17939932Y66070D01*
X17895127Y119677D01*
X17886417Y189001D01*
X17903828Y235145D01*
X17955454Y317306D01*
X17955455Y317309D01*
X17955456Y317310D01*
X18011313Y476941D01*
X18011314Y476943D01*
X18030249Y644997D01*
X18030249Y645002D01*
X18011314Y813056D01*
X17961925Y954202D01*
X17955456Y972690D01*
X17955454Y972692D01*
X17955454Y972694D01*
X17955452Y972697D01*
X17865481Y1115884D01*
X17865480Y1115885D01*
X17865477Y1115890D01*
X17745890Y1235477D01*
X17648342Y1296771D01*
X17602697Y1325452D01*
X17602694Y1325454D01*
X17602692Y1325454D01*
X17602690Y1325456D01*
X17443059Y1381313D01*
X17443058Y1381313D01*
X17443056Y1381314D01*
X17275003Y1400249D01*
X17274997Y1400249D01*
X17106943Y1381314D01*
X17037141Y1356889D01*
X16947310Y1325456D01*
X16947309Y1325455D01*
X16947305Y1325454D01*
X16947302Y1325452D01*
X16804115Y1235481D01*
X16804109Y1235476D01*
X16727681Y1159048D01*
X16666358Y1125563D01*
X16596666Y1130547D01*
X16552319Y1159048D01*
X16517434Y1193933D01*
X16475890Y1235477D01*
X16378342Y1296771D01*
X16332697Y1325452D01*
X16332694Y1325454D01*
X16332692Y1325454D01*
X16332690Y1325456D01*
X16173059Y1381313D01*
X16173058Y1381313D01*
X16173056Y1381314D01*
X16005003Y1400249D01*
X16004997Y1400249D01*
X15836943Y1381314D01*
X15767141Y1356889D01*
X15677310Y1325456D01*
X15677309Y1325455D01*
X15677305Y1325454D01*
X15677302Y1325452D01*
X15534115Y1235481D01*
X15534113Y1235479D01*
X15534110Y1235477D01*
X15492566Y1193933D01*
X15457680Y1159047D01*
X15396356Y1125563D01*
X15326665Y1130548D01*
X15282322Y1159044D01*
X15205890Y1235477D01*
X15108342Y1296771D01*
X15062697Y1325452D01*
X15062694Y1325454D01*
X15062692Y1325454D01*
X15062690Y1325456D01*
X14903059Y1381313D01*
X14903058Y1381313D01*
X14903056Y1381314D01*
X14735003Y1400249D01*
X14734997Y1400249D01*
X14566943Y1381314D01*
X14497141Y1356889D01*
X14407310Y1325456D01*
X14407309Y1325455D01*
X14407305Y1325454D01*
X14407302Y1325452D01*
X14264115Y1235481D01*
X14264109Y1235476D01*
X14144523Y1115890D01*
X14144518Y1115884D01*
X14054547Y972697D01*
X14054545Y972694D01*
X13998685Y813056D01*
X13979751Y645002D01*
X13979751Y644997D01*
X13998685Y476943D01*
X14054545Y317306D01*
X14082272Y273178D01*
X14101271Y205941D01*
X14080902Y139106D01*
X14055941Y111354D01*
X14024471Y85527D01*
X13899507Y-66739D01*
X13899503Y-66746D01*
X13806652Y-240458D01*
X13765839Y-374999D01*
X-13974500Y-374999D01*
X-13974500Y-100321D01*
X-13989032Y-27264D01*
X-13989033Y-27260D01*
X-14043679Y54523D01*
X-14044399Y55601D01*
X-14060068Y66070D01*
X-14104872Y119679D01*
X-14113582Y189004D01*
X-14096172Y235144D01*
X-14044545Y317307D01*
X-13988685Y476943D01*
X-13969751Y644997D01*
X-13969751Y645002D01*
X-13975947Y699996D01*
X10736701Y699996D01*
X10755836Y530155D01*
X10755837Y530150D01*
X10812291Y368816D01*
X10903228Y224091D01*
X11024091Y103228D01*
X11168816Y12291D01*
X11330150Y-44162D01*
X11330155Y-44163D01*
X11499996Y-63299D01*
X11500000Y-63299D01*
X11500004Y-63299D01*
X11669844Y-44163D01*
X11669847Y-44162D01*
X11669850Y-44162D01*
X11831183Y12291D01*
X11975908Y103228D01*
X12096771Y224091D01*
X12111099Y246894D01*
X12187709Y368817D01*
X12244162Y530150D01*
X12244163Y530155D01*
X12263299Y699996D01*
X12263299Y700003D01*
X12244163Y869844D01*
X12244162Y869849D01*
X12244162Y869850D01*
X12187709Y1031183D01*
X12096771Y1175909D01*
X11975909Y1296771D01*
X11831183Y1387709D01*
X11669850Y1444162D01*
X11669847Y1444162D01*
X11669844Y1444163D01*
X11500004Y1463299D01*
X11499996Y1463299D01*
X11330155Y1444163D01*
X11330150Y1444162D01*
X11168817Y1387709D01*
X11069736Y1325452D01*
X11024091Y1296771D01*
X10903228Y1175908D01*
X10812291Y1031183D01*
X10755837Y869849D01*
X10755836Y869844D01*
X10736701Y700003D01*
X10736701Y699996D01*
X-13975947Y699996D01*
X-13988685Y813056D01*
X-14044545Y972694D01*
X-14044547Y972697D01*
X-14134518Y1115884D01*
X-14134523Y1115890D01*
X-14254109Y1235476D01*
X-14254115Y1235481D01*
X-14397302Y1325452D01*
X-14397305Y1325454D01*
X-14397309Y1325455D01*
X-14397310Y1325456D01*
X-14487141Y1356889D01*
X-14556943Y1381314D01*
X-14724997Y1400249D01*
X-14725003Y1400249D01*
X-14893056Y1381314D01*
X-14893058Y1381313D01*
X-14893059Y1381313D01*
X-15052690Y1325456D01*
X-15052692Y1325454D01*
X-15052694Y1325454D01*
X-15052697Y1325452D01*
X-15098342Y1296771D01*
X-15195890Y1235477D01*
X-15237434Y1193933D01*
X-15272319Y1159048D01*
X-15333642Y1125563D01*
X-15403334Y1130547D01*
X-15447681Y1159048D01*
X-15524109Y1235476D01*
X-15524115Y1235481D01*
X-15667302Y1325452D01*
X-15667305Y1325454D01*
X-15667309Y1325455D01*
X-15667310Y1325456D01*
X-15757141Y1356889D01*
X-15826943Y1381314D01*
X-15994997Y1400249D01*
X-15995003Y1400249D01*
X-16163056Y1381314D01*
X-16163058Y1381313D01*
X-16163059Y1381313D01*
X-16322690Y1325456D01*
X-16322692Y1325454D01*
X-16322694Y1325454D01*
X-16322697Y1325452D01*
X-16368342Y1296771D01*
X-16465890Y1235477D01*
X-16542321Y1159045D01*
X-16603640Y1125563D01*
X-16673332Y1130547D01*
X-16717680Y1159047D01*
X-16752566Y1193933D01*
X-16794110Y1235477D01*
X-16794113Y1235479D01*
X-16794115Y1235481D01*
X-16937302Y1325452D01*
X-16937305Y1325454D01*
X-16937309Y1325455D01*
X-16937310Y1325456D01*
X-17027141Y1356889D01*
X-17096943Y1381314D01*
X-17264997Y1400249D01*
X-17265003Y1400249D01*
X-17433056Y1381314D01*
X-17433058Y1381313D01*
X-17433059Y1381313D01*
X-17592690Y1325456D01*
X-17592692Y1325454D01*
X-17592694Y1325454D01*
X-17592697Y1325452D01*
X-17638342Y1296771D01*
X-17735890Y1235477D01*
X-17855477Y1115890D01*
X-17855480Y1115885D01*
X-17855481Y1115884D01*
X-17945452Y972697D01*
X-17945454Y972694D01*
X-17945454Y972692D01*
X-17945456Y972690D01*
X-17951925Y954202D01*
X-18001314Y813056D01*
X-18020249Y645002D01*
X-18020249Y644997D01*
X-18001314Y476943D01*
X-18001313Y476941D01*
X-17945456Y317310D01*
X-17917727Y273180D01*
X-17898727Y205946D01*
X-17919094Y139111D01*
X-17944058Y111354D01*
X-17975526Y85529D01*
X-18100492Y-66739D01*
X-18100496Y-66746D01*
X-18193347Y-240458D01*
X-18234160Y-374999D01*
X-18234160Y-375000D01*
X-17696955Y-375000D01*
X-17629916Y-394685D01*
X-17584161Y-447489D01*
X-17574217Y-516647D01*
X-17580431Y-541404D01*
X-17590000Y-567694D01*
X-17590000Y-682306D01*
X-17580432Y-708592D01*
X-17576002Y-778319D01*
X-17609973Y-839375D01*
X-17671560Y-872372D01*
X-17696955Y-875000D01*
X-18234160Y-875000D01*
X-23788940Y-875000D01*
X-23794417Y-855752D01*
X-23794422Y-855739D01*
X-23885327Y-673178D01*
X-24008237Y-510418D01*
X-24158958Y-373019D01*
X-24158960Y-373017D01*
X-24332357Y-265655D01*
X-24332373Y-265647D01*
X-24413284Y-234302D01*
X-24468686Y-191729D01*
X-24492276Y-125963D01*
X-24476565Y-57882D01*
X-24426540Y-9103D01*
X-24400583Y1099D01*
X-24361516Y11566D01*
X-24361507Y11570D01*
X-24147421Y111399D01*
X-23953917Y246894D01*
X-23786894Y413917D01*
X-23651399Y607421D01*
X-23551570Y821507D01*
X-23551567Y821513D01*
X-23494364Y1035000D01*
X-24211653Y1035000D01*
X-24278692Y1054685D01*
X-24324447Y1107489D01*
X-24334391Y1176647D01*
X-24330631Y1193933D01*
X-24325000Y1213111D01*
X-24325000Y1356888D01*
X-24330631Y1376067D01*
X-24330630Y1445936D01*
X-24292855Y1504714D01*
X-24229299Y1533738D01*
X-24211653Y1535000D01*
X-23494364Y1535000D01*
X-23551567Y1748486D01*
X-23551570Y1748492D01*
X-23651399Y1962577D01*
X-23651400Y1962579D01*
X-23782634Y2150000D01*
X-10936138Y2150000D01*
X-10917653Y1997762D01*
X-10863272Y1854372D01*
X-10776156Y1728162D01*
X-10776154Y1728160D01*
X-10661369Y1626469D01*
X-10596540Y1592444D01*
X-10525578Y1555201D01*
X-10525575Y1555200D01*
X-10376679Y1518500D01*
X-10376678Y1518500D01*
X-10223321Y1518500D01*
X-10074424Y1555200D01*
X-9938630Y1626469D01*
X-9823845Y1728160D01*
X-9736729Y1854369D01*
X-9682347Y1997761D01*
X-9682346Y1997764D01*
X-9663862Y2149999D01*
X-9663862Y2150000D01*
X-9682346Y2302235D01*
X-9682347Y2302238D01*
X-9736729Y2445630D01*
X-9786199Y2517300D01*
X-3572883Y2517300D01*
X-3552600Y2311366D01*
X-3492532Y2113346D01*
X-3394985Y1930850D01*
X-3343002Y1867509D01*
X-3263710Y1770889D01*
X-3145977Y1674269D01*
X-3103750Y1639615D01*
X-2921254Y1542068D01*
X-2723234Y1482000D01*
X-2723232Y1481999D01*
X-2723234Y1481999D01*
X-2517300Y1461717D01*
X-2311367Y1481999D01*
X-2113343Y1542069D01*
X-1975408Y1615798D01*
X-1930850Y1639615D01*
X-1930848Y1639616D01*
X-1930847Y1639617D01*
X-1770889Y1770889D01*
X-1639617Y1930847D01*
X-1622656Y1962577D01*
X-1600943Y2003198D01*
X-1542069Y2113343D01*
X-1481999Y2311367D01*
X-1461717Y2517300D01*
X1447575Y2517300D01*
X1467857Y2311367D01*
X1527927Y2113343D01*
X1586801Y2003198D01*
X1608514Y1962577D01*
X1625475Y1930847D01*
X1756747Y1770889D01*
X1916705Y1639617D01*
X1916706Y1639616D01*
X1916708Y1639615D01*
X1961266Y1615798D01*
X2099201Y1542069D01*
X2099203Y1542068D01*
X2099204Y1542068D01*
X2126665Y1533738D01*
X2297227Y1481999D01*
X2297223Y1481999D01*
X2503158Y1461717D01*
X2709090Y1481999D01*
X2829418Y1518500D01*
X2907112Y1542068D01*
X3089608Y1639615D01*
X3131835Y1674269D01*
X3249568Y1770889D01*
X3328860Y1867509D01*
X3380843Y1930850D01*
X3478390Y2113346D01*
X3538458Y2311366D01*
X3558741Y2517300D01*
X3538458Y2723234D01*
X3478390Y2921254D01*
X3380843Y3103750D01*
X3249568Y3263710D01*
X3089608Y3394985D01*
X2907112Y3492532D01*
X2709092Y3552600D01*
X2503158Y3572883D01*
X2297224Y3552600D01*
X2099204Y3492532D01*
X1916708Y3394985D01*
X1899499Y3380862D01*
X1756747Y3263710D01*
X1722825Y3222375D01*
X1625473Y3103750D01*
X1527926Y2921254D01*
X1514300Y2876334D01*
X1467857Y2723232D01*
X1447575Y2517300D01*
X-1461717Y2517300D01*
X-1481999Y2723232D01*
X-1528442Y2876334D01*
X-1542068Y2921254D01*
X-1639615Y3103750D01*
X-1736967Y3222375D01*
X-1770889Y3263710D01*
X-1913641Y3380862D01*
X-1930850Y3394985D01*
X-2113346Y3492532D01*
X-2311366Y3552600D01*
X-2311365Y3552600D01*
X-2329829Y3554418D01*
X-2517300Y3572883D01*
X-2723234Y3552600D01*
X-2921254Y3492532D01*
X-3103750Y3394985D01*
X-3263710Y3263710D01*
X-3394985Y3103750D01*
X-3492532Y2921254D01*
X-3552600Y2723234D01*
X-3572883Y2517300D01*
X-9786199Y2517300D01*
X-9823844Y2571838D01*
X-9823845Y2571839D01*
X-9938630Y2673530D01*
X-9981373Y2695963D01*
X-10074422Y2744799D01*
X-10173688Y2769266D01*
X-10223321Y2781500D01*
X-10223322Y2781500D01*
X-10376678Y2781500D01*
X-10376679Y2781500D01*
X-10413903Y2772324D01*
X-10525578Y2744799D01*
X-10661368Y2673531D01*
X-10776156Y2571838D01*
X-10863272Y2445628D01*
X-10917653Y2302238D01*
X-10936138Y2150000D01*
X-23782634Y2150000D01*
X-23786886Y2156073D01*
X-23786891Y2156079D01*
X-23953917Y2323105D01*
X-24147421Y2458600D01*
X-24361507Y2558429D01*
X-24361516Y2558433D01*
X-24400583Y2568901D01*
X-24460244Y2605266D01*
X-24490773Y2668113D01*
X-24482479Y2737488D01*
X-24437993Y2791366D01*
X-24413284Y2804302D01*
X-24332373Y2835647D01*
X-24332357Y2835655D01*
X-24158960Y2943017D01*
X-24158958Y2943019D01*
X-24008237Y3080418D01*
X-23885327Y3243178D01*
X-23794422Y3425739D01*
X-23794417Y3425752D01*
X-23773291Y3500000D01*
X-18955250Y3500000D01*
X-18936330Y3356291D01*
X-18880861Y3222375D01*
X-18792621Y3107379D01*
X-18677625Y3019139D01*
X-18677622Y3019137D01*
X-18543712Y2963671D01*
X-18543710Y2963670D01*
X-18543709Y2963670D01*
X-18471854Y2954210D01*
X-18400001Y2944750D01*
X-18400000Y2944750D01*
X-18399996Y2944750D01*
X-18386444Y2946534D01*
X-18317409Y2935768D01*
X-18265153Y2889387D01*
X-18247322Y2839783D01*
X-18236330Y2756291D01*
X-18222637Y2723232D01*
X-18183143Y2627883D01*
X-18180861Y2622375D01*
X-18092621Y2507379D01*
X-17977625Y2419139D01*
X-17977622Y2419137D01*
X-17843712Y2363671D01*
X-17843710Y2363670D01*
X-17843709Y2363670D01*
X-17771854Y2354210D01*
X-17700001Y2344750D01*
X-17700000Y2344750D01*
X-17699999Y2344750D01*
X-17556291Y2363670D01*
X-17556287Y2363671D01*
X-17422377Y2419137D01*
X-17307379Y2507379D01*
X-17219137Y2622377D01*
X-17163671Y2756287D01*
X-17163670Y2756291D01*
X-17144750Y2899999D01*
X-17144750Y2900000D01*
X-17150876Y2946534D01*
X-17163670Y3043709D01*
X-17188540Y3103752D01*
X-17219137Y3177622D01*
X-17219139Y3177625D01*
X-17307379Y3292621D01*
X-17422375Y3380861D01*
X-17556291Y3436330D01*
X-17700000Y3455250D01*
X-17713553Y3453465D01*
X-17782585Y3464229D01*
X-17834842Y3510607D01*
X-17852678Y3560218D01*
X-17863670Y3643708D01*
X-17863671Y3643712D01*
X-17919137Y3777622D01*
X-17955491Y3824999D01*
X-18007379Y3892621D01*
X-18013449Y3897279D01*
X13350832Y3897279D01*
X13485890Y3837148D01*
X13660661Y3800000D01*
X13839339Y3800000D01*
X14014108Y3837148D01*
X14149166Y3897279D01*
X13749999Y4296447D01*
X13350832Y3897279D01*
X-18013449Y3897279D01*
X-18122375Y3980861D01*
X-18256291Y4036330D01*
X-18383280Y4053048D01*
X-18399999Y4055250D01*
X-18400001Y4055250D01*
X-18414977Y4053278D01*
X-18543709Y4036330D01*
X-18677625Y3980861D01*
X-18792621Y3892621D01*
X-18880861Y3777625D01*
X-18936330Y3643709D01*
X-18955250Y3500000D01*
X-23773291Y3500000D01*
X-23738602Y3621917D01*
X-23719785Y3824999D01*
X-23719785Y3825000D01*
X-23738602Y4028082D01*
X-23794417Y4224247D01*
X-23794422Y4224260D01*
X-23885327Y4406821D01*
X-24008237Y4569581D01*
X-24096453Y4650000D01*
X12895318Y4650000D01*
X12913995Y4472299D01*
X12913996Y4472297D01*
X12969209Y4302368D01*
X12969210Y4302366D01*
X12998346Y4251901D01*
X12998347Y4251900D01*
X13395819Y4649372D01*
X13576873Y4649372D01*
X13587890Y4641126D01*
X13608397Y4598911D01*
X13615512Y4572355D01*
X13672353Y4515514D01*
X13698908Y4508399D01*
X13750627Y4476873D01*
X13758875Y4487891D01*
X13801092Y4508399D01*
X13827643Y4515513D01*
X13827645Y4515514D01*
X13884486Y4572354D01*
X13891601Y4598907D01*
X13922742Y4649999D01*
X14103552Y4649999D01*
X14501651Y4251900D01*
X14501652Y4251900D01*
X14530790Y4302368D01*
X14586003Y4472297D01*
X14586004Y4472299D01*
X14604681Y4650000D01*
X14586004Y4827700D01*
X14586003Y4827702D01*
X14530791Y4997628D01*
X14501651Y5048097D01*
X14103552Y4649999D01*
X13922742Y4649999D01*
X13923125Y4650627D01*
X13912108Y4658875D01*
X13891601Y4701090D01*
X13884486Y4727645D01*
X13827645Y4784486D01*
X13801090Y4791601D01*
X13749371Y4823124D01*
X13741125Y4812108D01*
X13698912Y4791601D01*
X13672355Y4784486D01*
X13615514Y4727646D01*
X13615514Y4727645D01*
X13615512Y4727643D01*
X13615512Y4727642D01*
X13608397Y4701090D01*
X13576873Y4649372D01*
X13395819Y4649372D01*
X13396446Y4649999D01*
X12998347Y5048098D01*
X12969209Y4997630D01*
X12969206Y4997624D01*
X12913996Y4827702D01*
X12913995Y4827700D01*
X12895318Y4650000D01*
X-24096453Y4650000D01*
X-24158958Y4706980D01*
X-24158960Y4706982D01*
X-24309190Y4800000D01*
X-24332363Y4814348D01*
X-24522544Y4888024D01*
X-24723024Y4925500D01*
X-24926976Y4925500D01*
X-25127456Y4888024D01*
X-25317637Y4814348D01*
X-25491041Y4706981D01*
X-25641764Y4569579D01*
X-25764673Y4406821D01*
X-25855582Y4224250D01*
X-25911397Y4028083D01*
X-25923949Y3892621D01*
X-25930215Y3825000D01*
X-25930215Y3824999D01*
X-25925825Y3777625D01*
X-25911397Y3621917D01*
X-25855582Y3425750D01*
X-25855578Y3425743D01*
X-25855577Y3425739D01*
X-25833231Y3380862D01*
X-25764673Y3243179D01*
X-25715169Y3177625D01*
X-25641762Y3080418D01*
X-25491041Y2943019D01*
X-25491039Y2943017D01*
X-25317642Y2835655D01*
X-25317635Y2835651D01*
X-25236715Y2804303D01*
X-25181313Y2761730D01*
X-25157723Y2695963D01*
X-25173434Y2627883D01*
X-25223458Y2579104D01*
X-25249417Y2568901D01*
X-25288481Y2558434D01*
X-25288492Y2558429D01*
X-25502577Y2458600D01*
X-25502579Y2458599D01*
X-25696073Y2323113D01*
X-25696079Y2323108D01*
X-25863108Y2156079D01*
X-25863113Y2156073D01*
X-25998599Y1962579D01*
X-25998600Y1962577D01*
X-26098429Y1748492D01*
X-26098432Y1748486D01*
X-26155635Y1535000D01*
X-25438347Y1535000D01*
X-25371308Y1515315D01*
X-25325553Y1462511D01*
X-25315609Y1393353D01*
X-25319369Y1376067D01*
X-25325000Y1356888D01*
X-25325000Y1213111D01*
X-25319369Y1193933D01*
X-25319370Y1124064D01*
X-25357145Y1065286D01*
X-25420701Y1036262D01*
X-25438347Y1035000D01*
X-26155636Y1035000D01*
X-28722377Y1035000D01*
X-28711187Y1404115D01*
X-28639299Y2468669D01*
X-28527953Y3529823D01*
X-28377303Y4586113D01*
X-28187556Y5636084D01*
X-28027687Y6365000D01*
X-25930215Y6365000D01*
X-25911397Y6161917D01*
X-25855582Y5965750D01*
X-25855578Y5965743D01*
X-25855577Y5965739D01*
X-25811272Y5876764D01*
X-25764673Y5783179D01*
X-25764672Y5783178D01*
X-25641762Y5620418D01*
X-25491041Y5483019D01*
X-25491039Y5483017D01*
X-25317642Y5375655D01*
X-25317635Y5375651D01*
X-25222546Y5338814D01*
X-25127456Y5301976D01*
X-24926976Y5264500D01*
X-24926974Y5264500D01*
X-24723026Y5264500D01*
X-24723024Y5264500D01*
X-24522544Y5301976D01*
X-24522541Y5301977D01*
X-24332364Y5375651D01*
X-24332357Y5375655D01*
X-24288647Y5402719D01*
X13350832Y5402719D01*
X13749999Y5003552D01*
X14146445Y5399999D01*
X18213862Y5399999D01*
X18232346Y5247764D01*
X18232347Y5247761D01*
X18286729Y5104369D01*
X18373845Y4978160D01*
X18488630Y4876469D01*
X18624424Y4805200D01*
X18773321Y4768500D01*
X18773322Y4768500D01*
X18926679Y4768500D01*
X19075575Y4805200D01*
X19075578Y4805201D01*
X19146540Y4842444D01*
X19211369Y4876469D01*
X19326154Y4978160D01*
X19326156Y4978162D01*
X19413272Y5104372D01*
X19467653Y5247762D01*
X19486138Y5399999D01*
X23163862Y5399999D01*
X23182346Y5247764D01*
X23182347Y5247761D01*
X23236729Y5104369D01*
X23323845Y4978160D01*
X23438630Y4876469D01*
X23574424Y4805200D01*
X23723321Y4768500D01*
X23723322Y4768500D01*
X23876679Y4768500D01*
X24025575Y4805200D01*
X24025578Y4805201D01*
X24096540Y4842444D01*
X24161369Y4876469D01*
X24276154Y4978160D01*
X24276156Y4978162D01*
X24363272Y5104372D01*
X24417653Y5247762D01*
X24436138Y5400000D01*
X24417653Y5552238D01*
X24363272Y5695628D01*
X24276156Y5821838D01*
X24161368Y5923531D01*
X24025578Y5994799D01*
X23913902Y6022324D01*
X23876679Y6031500D01*
X23876678Y6031500D01*
X23723322Y6031500D01*
X23723321Y6031500D01*
X23673688Y6019266D01*
X23574422Y5994799D01*
X23444766Y5926750D01*
X23438630Y5923530D01*
X23323845Y5821839D01*
X23323844Y5821838D01*
X23236728Y5695628D01*
X23182347Y5552238D01*
X23182346Y5552235D01*
X23163862Y5400000D01*
X23163862Y5399999D01*
X19486138Y5399999D01*
X19486138Y5400000D01*
X19467653Y5552238D01*
X19413272Y5695628D01*
X19326156Y5821838D01*
X19211368Y5923531D01*
X19075578Y5994799D01*
X18963902Y6022324D01*
X18926679Y6031500D01*
X18926678Y6031500D01*
X18773322Y6031500D01*
X18773321Y6031500D01*
X18723688Y6019266D01*
X18624422Y5994799D01*
X18494766Y5926750D01*
X18488630Y5923530D01*
X18373845Y5821839D01*
X18373844Y5821838D01*
X18286728Y5695628D01*
X18232347Y5552238D01*
X18232346Y5552235D01*
X18213862Y5400000D01*
X18213862Y5399999D01*
X14146445Y5399999D01*
X14149165Y5402719D01*
X14149165Y5402720D01*
X14014115Y5462849D01*
X14014110Y5462851D01*
X13839339Y5500000D01*
X13660661Y5500000D01*
X13485889Y5462851D01*
X13485884Y5462849D01*
X13350833Y5402720D01*
X13350832Y5402719D01*
X-24288647Y5402719D01*
X-24158960Y5483017D01*
X-24158958Y5483019D01*
X-24008237Y5620418D01*
X-23885327Y5783178D01*
X-23794422Y5965739D01*
X-23794417Y5965752D01*
X-23738602Y6161917D01*
X-23719785Y6364999D01*
X-23719785Y6365000D01*
X-23736926Y6549999D01*
X7663862Y6549999D01*
X7682346Y6397764D01*
X7682347Y6397761D01*
X7736729Y6254369D01*
X7823845Y6128160D01*
X7938630Y6026469D01*
X8074424Y5955200D01*
X8223321Y5918500D01*
X8223322Y5918500D01*
X8376679Y5918500D01*
X8525575Y5955200D01*
X8525578Y5955201D01*
X8601026Y5994799D01*
X8661369Y6026469D01*
X8776154Y6128160D01*
X8776156Y6128162D01*
X8863272Y6254372D01*
X8917653Y6397762D01*
X8936138Y6550000D01*
X8917653Y6702238D01*
X8863272Y6845628D01*
X8776156Y6971838D01*
X8661368Y7073531D01*
X8525578Y7144799D01*
X8413902Y7172324D01*
X8376679Y7181500D01*
X8376678Y7181500D01*
X8223322Y7181500D01*
X8223321Y7181500D01*
X8173688Y7169266D01*
X8074422Y7144799D01*
X7944766Y7076750D01*
X7938630Y7073530D01*
X7823845Y6971839D01*
X7736729Y6845630D01*
X7682347Y6702238D01*
X7682346Y6702235D01*
X7663862Y6550000D01*
X7663862Y6549999D01*
X-23736926Y6549999D01*
X-23738602Y6568082D01*
X-23794417Y6764247D01*
X-23794422Y6764260D01*
X-23885327Y6946821D01*
X-24008237Y7109581D01*
X-24158958Y7246980D01*
X-24158960Y7246982D01*
X-24332357Y7354344D01*
X-24332363Y7354348D01*
X-24522544Y7428024D01*
X-24723024Y7465500D01*
X-24926976Y7465500D01*
X-25127456Y7428024D01*
X-25317637Y7354348D01*
X-25491041Y7246981D01*
X-25641764Y7109579D01*
X-25764673Y6946821D01*
X-25855582Y6764250D01*
X-25911397Y6568083D01*
X-25930215Y6365000D01*
X-28027687Y6365000D01*
X-27958974Y6678291D01*
X-27694791Y7700000D01*
X-12636138Y7700000D01*
X-12617653Y7547762D01*
X-12563272Y7404372D01*
X-12476156Y7278162D01*
X-12476154Y7278160D01*
X-12361369Y7176469D01*
X-12301026Y7144799D01*
X-12225578Y7105201D01*
X-12225575Y7105200D01*
X-12076679Y7068500D01*
X-12076678Y7068500D01*
X-11923321Y7068500D01*
X-11774424Y7105200D01*
X-11638630Y7176469D01*
X-11523845Y7278160D01*
X-11436729Y7404369D01*
X-11382347Y7547761D01*
X-11382346Y7547764D01*
X-11363862Y7699999D01*
X-11363862Y7700000D01*
X-11382346Y7852235D01*
X-11382347Y7852238D01*
X-11436729Y7995630D01*
X-11523845Y8121839D01*
X-11638630Y8223530D01*
X-11644766Y8226750D01*
X-11774422Y8294799D01*
X-11873688Y8319266D01*
X-11923321Y8331500D01*
X-11923322Y8331500D01*
X-12076678Y8331500D01*
X-12076679Y8331500D01*
X-12110437Y8323179D01*
X-12225578Y8294799D01*
X-12361368Y8223531D01*
X-12476156Y8121838D01*
X-12563272Y7995628D01*
X-12617653Y7852238D01*
X-12636138Y7700000D01*
X-27694791Y7700000D01*
X-27691870Y7711296D01*
X-27630855Y7915651D01*
X-27386613Y8733677D01*
X-27328453Y8905000D01*
X-25930215Y8905000D01*
X-25911397Y8701917D01*
X-25855582Y8505750D01*
X-25764673Y8323179D01*
X-25764672Y8323178D01*
X-25641762Y8160418D01*
X-25491041Y8023019D01*
X-25491039Y8023017D01*
X-25317642Y7915655D01*
X-25317635Y7915651D01*
X-25222546Y7878814D01*
X-25127456Y7841976D01*
X-24926976Y7804500D01*
X-24926974Y7804500D01*
X-24723026Y7804500D01*
X-24723024Y7804500D01*
X-24522544Y7841976D01*
X-24496062Y7852235D01*
X-24332364Y7915651D01*
X-24332357Y7915655D01*
X-24158960Y8023017D01*
X-24158958Y8023019D01*
X-24008237Y8160418D01*
X-23885327Y8323178D01*
X-23794422Y8505739D01*
X-23794417Y8505752D01*
X-23738602Y8701917D01*
X-23719785Y8904999D01*
X-23719785Y8905000D01*
X-23738602Y9108082D01*
X-23764756Y9200000D01*
X-8836138Y9200000D01*
X-8817653Y9047762D01*
X-8763272Y8904372D01*
X-8676156Y8778162D01*
X-8676154Y8778160D01*
X-8561369Y8676469D01*
X-8496540Y8642444D01*
X-8425578Y8605201D01*
X-8425575Y8605200D01*
X-8276679Y8568500D01*
X-8276678Y8568500D01*
X-8123321Y8568500D01*
X-7974424Y8605200D01*
X-7838630Y8676469D01*
X-7812070Y8699999D01*
X22744750Y8699999D01*
X22763670Y8556291D01*
X22763671Y8556287D01*
X22819137Y8422377D01*
X22907379Y8307379D01*
X23022377Y8219137D01*
X23156287Y8163671D01*
X23156291Y8163670D01*
X23299999Y8144750D01*
X23300000Y8144750D01*
X23300001Y8144750D01*
X23388709Y8156429D01*
X23443709Y8163670D01*
X23443710Y8163670D01*
X23443712Y8163671D01*
X23577622Y8219137D01*
X23583347Y8223530D01*
X23692621Y8307379D01*
X23780861Y8422375D01*
X23836330Y8556291D01*
X23855250Y8700000D01*
X23836330Y8843709D01*
X23780861Y8977625D01*
X23692621Y9092621D01*
X23577625Y9180861D01*
X23443709Y9236330D01*
X23314977Y9253278D01*
X23300001Y9255250D01*
X23299999Y9255250D01*
X23283280Y9253048D01*
X23156291Y9236330D01*
X23022375Y9180861D01*
X22907379Y9092621D01*
X22872957Y9047761D01*
X22819137Y8977622D01*
X22763671Y8843712D01*
X22763670Y8843708D01*
X22744750Y8700000D01*
X22744750Y8699999D01*
X-7812070Y8699999D01*
X-7723845Y8778160D01*
X-7636729Y8904369D01*
X-7582347Y9047761D01*
X-7582346Y9047764D01*
X-7563862Y9199999D01*
X-7563862Y9200000D01*
X-7582346Y9352235D01*
X-7582347Y9352238D01*
X-7636729Y9495630D01*
X-7723845Y9621839D01*
X-7838630Y9723530D01*
X-7844766Y9726750D01*
X-7974422Y9794799D01*
X-8073688Y9819266D01*
X-8123321Y9831500D01*
X-8123322Y9831500D01*
X-8276678Y9831500D01*
X-8276679Y9831500D01*
X-8313902Y9822324D01*
X-8425578Y9794799D01*
X-8561368Y9723531D01*
X-8676156Y9621838D01*
X-8763272Y9495628D01*
X-8817653Y9352238D01*
X-8836138Y9200000D01*
X-23764756Y9200000D01*
X-23794417Y9304247D01*
X-23794422Y9304260D01*
X-23885327Y9486821D01*
X-24008237Y9649581D01*
X-24158958Y9786980D01*
X-24158960Y9786982D01*
X-24332357Y9894344D01*
X-24332363Y9894348D01*
X-24522544Y9968024D01*
X-24723024Y10005500D01*
X-24926976Y10005500D01*
X-25127456Y9968024D01*
X-25317637Y9894348D01*
X-25491041Y9786981D01*
X-25641764Y9649579D01*
X-25764673Y9486821D01*
X-25855582Y9304250D01*
X-25911397Y9108083D01*
X-25930215Y8905000D01*
X-27328453Y8905000D01*
X-27043627Y9744025D01*
X-26678998Y10699999D01*
X5863862Y10699999D01*
X5882346Y10547764D01*
X5882347Y10547761D01*
X5936729Y10404369D01*
X6023845Y10278160D01*
X6138630Y10176469D01*
X6274424Y10105200D01*
X6423321Y10068500D01*
X6423322Y10068500D01*
X6576679Y10068500D01*
X6725575Y10105200D01*
X6725578Y10105201D01*
X6796540Y10142444D01*
X6861369Y10176469D01*
X6976154Y10278160D01*
X6976156Y10278162D01*
X7063272Y10404372D01*
X7117653Y10547762D01*
X7136138Y10700000D01*
X7117653Y10852238D01*
X7063272Y10995628D01*
X6976156Y11121838D01*
X6861368Y11223531D01*
X6725578Y11294799D01*
X6613902Y11322324D01*
X6576679Y11331500D01*
X6576678Y11331500D01*
X6423322Y11331500D01*
X6423321Y11331500D01*
X6373688Y11319266D01*
X6274422Y11294799D01*
X6144766Y11226750D01*
X6138630Y11223530D01*
X6024452Y11122377D01*
X6023844Y11121838D01*
X6012360Y11105200D01*
X5936729Y10995630D01*
X5882347Y10852238D01*
X5882346Y10852235D01*
X5863862Y10700000D01*
X5863862Y10699999D01*
X-26678998Y10699999D01*
X-26663379Y10740949D01*
X-26256193Y11700000D01*
X-16836138Y11700000D01*
X-16817653Y11547762D01*
X-16763272Y11404372D01*
X-16676156Y11278162D01*
X-16676154Y11278160D01*
X-16561369Y11176469D01*
X-16496540Y11142444D01*
X-16425578Y11105201D01*
X-16425575Y11105200D01*
X-16276679Y11068500D01*
X-16276678Y11068500D01*
X-16123321Y11068500D01*
X-15974424Y11105200D01*
X-15838630Y11176469D01*
X-15723845Y11278160D01*
X-15636729Y11404369D01*
X-15582347Y11547761D01*
X-15582346Y11547764D01*
X-15563862Y11699999D01*
X-15563862Y11700000D01*
X-15582346Y11852235D01*
X-15582347Y11852238D01*
X-15593203Y11880862D01*
X-15600461Y11900000D01*
X-3655250Y11900000D01*
X-3636330Y11756291D01*
X-3580861Y11622375D01*
X-3492621Y11507379D01*
X-3377625Y11419139D01*
X-3377622Y11419137D01*
X-3243712Y11363671D01*
X-3243710Y11363670D01*
X-3243709Y11363670D01*
X-3171854Y11354210D01*
X-3100001Y11344750D01*
X-3100000Y11344750D01*
X-3099999Y11344750D01*
X-2956291Y11363670D01*
X-2956287Y11363671D01*
X-2822377Y11419137D01*
X-2707379Y11507379D01*
X-2619137Y11622377D01*
X-2586986Y11699999D01*
X10963862Y11699999D01*
X10982346Y11547764D01*
X10982347Y11547761D01*
X11036729Y11404369D01*
X11123845Y11278160D01*
X11238630Y11176469D01*
X11374424Y11105200D01*
X11523321Y11068500D01*
X11523322Y11068500D01*
X11676679Y11068500D01*
X11825575Y11105200D01*
X11825578Y11105201D01*
X11896540Y11142444D01*
X11961369Y11176469D01*
X12076154Y11278160D01*
X12076156Y11278162D01*
X12160254Y11399999D01*
X22344750Y11399999D01*
X22363670Y11256291D01*
X22363671Y11256287D01*
X22419137Y11122377D01*
X22507379Y11007379D01*
X22622377Y10919137D01*
X22756287Y10863671D01*
X22756291Y10863670D01*
X22899999Y10844750D01*
X22900000Y10844750D01*
X22900001Y10844750D01*
X22971854Y10854210D01*
X23043709Y10863670D01*
X23043710Y10863670D01*
X23043712Y10863671D01*
X23177622Y10919137D01*
X23177625Y10919139D01*
X23292621Y11007379D01*
X23380861Y11122375D01*
X23436330Y11256291D01*
X23455250Y11400000D01*
X23436330Y11543709D01*
X23380861Y11677625D01*
X23292621Y11792621D01*
X23177625Y11880861D01*
X23043709Y11936330D01*
X22914977Y11953278D01*
X22900001Y11955250D01*
X22899999Y11955250D01*
X22883280Y11953048D01*
X22756291Y11936330D01*
X22622375Y11880861D01*
X22507379Y11792621D01*
X22419139Y11677625D01*
X22419137Y11677622D01*
X22363671Y11543712D01*
X22363670Y11543708D01*
X22344750Y11400000D01*
X22344750Y11399999D01*
X12160254Y11399999D01*
X12163272Y11404372D01*
X12217653Y11547762D01*
X12236138Y11700000D01*
X12217653Y11852238D01*
X12163272Y11995628D01*
X12076156Y12121838D01*
X11961368Y12223531D01*
X11825578Y12294799D01*
X11713902Y12322324D01*
X11676679Y12331500D01*
X11676678Y12331500D01*
X11523322Y12331500D01*
X11523321Y12331500D01*
X11473688Y12319266D01*
X11374422Y12294799D01*
X11244766Y12226750D01*
X11238630Y12223530D01*
X11186811Y12177622D01*
X11123844Y12121838D01*
X11036728Y11995628D01*
X10993203Y11880862D01*
X10982347Y11852238D01*
X10982346Y11852235D01*
X10963862Y11700000D01*
X10963862Y11699999D01*
X-2586986Y11699999D01*
X-2563671Y11756287D01*
X-2563670Y11756291D01*
X-2544750Y11899999D01*
X-2544750Y11900000D01*
X-2563670Y12043708D01*
X-2563671Y12043712D01*
X-2619137Y12177622D01*
X-2628978Y12190447D01*
X-2707379Y12292621D01*
X-2822375Y12380861D01*
X-2956291Y12436330D01*
X-3083280Y12453048D01*
X-3099999Y12455250D01*
X-3100001Y12455250D01*
X-3114977Y12453278D01*
X-3243709Y12436330D01*
X-3377625Y12380861D01*
X-3492621Y12292621D01*
X-3580861Y12177625D01*
X-3636330Y12043709D01*
X-3655250Y11900000D01*
X-15600461Y11900000D01*
X-15636728Y11995628D01*
X-15723844Y12121838D01*
X-15786811Y12177622D01*
X-15838630Y12223530D01*
X-15844766Y12226750D01*
X-15974422Y12294799D01*
X-16073688Y12319266D01*
X-16123321Y12331500D01*
X-16123322Y12331500D01*
X-16276678Y12331500D01*
X-16276679Y12331500D01*
X-16313902Y12322324D01*
X-16425578Y12294799D01*
X-16561368Y12223531D01*
X-16676156Y12121838D01*
X-16763272Y11995628D01*
X-16817653Y11852238D01*
X-16836138Y11700000D01*
X-26256193Y11700000D01*
X-26246396Y11723074D01*
X-25793252Y12689047D01*
X-25426955Y13400000D01*
X-19236138Y13400000D01*
X-19217653Y13247762D01*
X-19163272Y13104372D01*
X-19076156Y12978162D01*
X-19076154Y12978160D01*
X-18961369Y12876469D01*
X-18936982Y12863670D01*
X-18825578Y12805201D01*
X-18825575Y12805200D01*
X-18676679Y12768500D01*
X-18676678Y12768500D01*
X-18523321Y12768500D01*
X-18374424Y12805200D01*
X-18238630Y12876469D01*
X-18123845Y12978160D01*
X-18036729Y13104369D01*
X-17982347Y13247761D01*
X-17982346Y13247764D01*
X-17963862Y13399999D01*
X-17963862Y13400000D01*
X-17982346Y13552235D01*
X-17982347Y13552238D01*
X-18029900Y13677623D01*
X-18036728Y13695628D01*
X-18045139Y13707813D01*
X-18123845Y13821839D01*
X-18238630Y13923530D01*
X-18244766Y13926750D01*
X-18374422Y13994799D01*
X-18473688Y14019266D01*
X-18523321Y14031500D01*
X-18523322Y14031500D01*
X-18676678Y14031500D01*
X-18676679Y14031500D01*
X-18713902Y14022324D01*
X-18825578Y13994799D01*
X-18961368Y13923531D01*
X-19076156Y13821838D01*
X-19163272Y13695628D01*
X-19217653Y13552238D01*
X-19236138Y13400000D01*
X-25426955Y13400000D01*
X-25304571Y13637538D01*
X-24931518Y14300000D01*
X-16836138Y14300000D01*
X-16817653Y14147762D01*
X-16763272Y14004372D01*
X-16763270Y14004369D01*
X-16676156Y13878162D01*
X-16673844Y13876114D01*
X-16672636Y13874188D01*
X-16671182Y13872547D01*
X-16671454Y13872305D01*
X-16636718Y13816924D01*
X-16637486Y13747059D01*
X-16657694Y13707816D01*
X-16680861Y13677625D01*
X-16736330Y13543709D01*
X-16755250Y13400000D01*
X-16736330Y13256291D01*
X-16680861Y13122375D01*
X-16592621Y13007379D01*
X-16477625Y12919139D01*
X-16477622Y12919137D01*
X-16343712Y12863671D01*
X-16343710Y12863670D01*
X-16343709Y12863670D01*
X-16271854Y12854210D01*
X-16200001Y12844750D01*
X-16200000Y12844750D01*
X-16199999Y12844750D01*
X-16056291Y12863670D01*
X-16056287Y12863671D01*
X-15922377Y12919137D01*
X-15807379Y13007379D01*
X-15719137Y13122377D01*
X-15663671Y13256287D01*
X-15663670Y13256291D01*
X-15644750Y13399999D01*
X-15644750Y13400000D01*
X-15663670Y13543708D01*
X-15663671Y13543712D01*
X-15719138Y13677623D01*
X-15719139Y13677625D01*
X-15742303Y13707813D01*
X-15767497Y13772982D01*
X-15753459Y13841427D01*
X-15726161Y13876108D01*
X-15723850Y13878155D01*
X-15723842Y13878164D01*
X-15708770Y13900000D01*
X-7236138Y13900000D01*
X-7217653Y13747762D01*
X-7163272Y13604372D01*
X-7076156Y13478162D01*
X-7076154Y13478160D01*
X-6961369Y13376469D01*
X-6896540Y13342444D01*
X-6825578Y13305201D01*
X-6825575Y13305200D01*
X-6676679Y13268500D01*
X-6676678Y13268500D01*
X-6523321Y13268500D01*
X-6374424Y13305200D01*
X-6238630Y13376469D01*
X-6123845Y13478160D01*
X-6036729Y13604369D01*
X-5982347Y13747761D01*
X-5982346Y13747764D01*
X-5963862Y13899999D01*
X-5963862Y13900000D01*
X-5982346Y14052235D01*
X-5982347Y14052238D01*
X-6018575Y14147762D01*
X-6036728Y14195628D01*
X-6123844Y14321838D01*
X-6123845Y14321839D01*
X-6238630Y14423530D01*
X-6244766Y14426750D01*
X-6374422Y14494799D01*
X-6473688Y14519266D01*
X-6523321Y14531500D01*
X-6523322Y14531500D01*
X-6676678Y14531500D01*
X-6676679Y14531500D01*
X-6713902Y14522324D01*
X-6825578Y14494799D01*
X-6961368Y14423531D01*
X-7076156Y14321838D01*
X-7163272Y14195628D01*
X-7217653Y14052238D01*
X-7236138Y13900000D01*
X-15708770Y13900000D01*
X-15636729Y14004369D01*
X-15582347Y14147761D01*
X-15582346Y14147764D01*
X-15563862Y14299999D01*
X-15563862Y14300000D01*
X-15582346Y14452235D01*
X-15582347Y14452238D01*
X-15636729Y14595630D01*
X-15723845Y14721839D01*
X-15838630Y14823530D01*
X-15844766Y14826750D01*
X-15974422Y14894799D01*
X-16073688Y14919266D01*
X-16123321Y14931500D01*
X-16123322Y14931500D01*
X-16276678Y14931500D01*
X-16276679Y14931500D01*
X-16313902Y14922324D01*
X-16425578Y14894799D01*
X-16561368Y14823531D01*
X-16676156Y14721838D01*
X-16763272Y14595628D01*
X-16817653Y14452238D01*
X-16836138Y14300000D01*
X-24931518Y14300000D01*
X-24781027Y14567240D01*
X-24223340Y15476872D01*
X-24074876Y15700000D01*
X-22836138Y15700000D01*
X-22817653Y15547762D01*
X-22763272Y15404372D01*
X-22676156Y15278162D01*
X-22676154Y15278160D01*
X-22561369Y15176469D01*
X-22496540Y15142444D01*
X-22425578Y15105201D01*
X-22425575Y15105200D01*
X-22276679Y15068500D01*
X-22276678Y15068500D01*
X-22123321Y15068500D01*
X-21974424Y15105200D01*
X-21838630Y15176469D01*
X-21723845Y15278160D01*
X-21636729Y15404369D01*
X-21582347Y15547761D01*
X-21582346Y15547764D01*
X-21576004Y15600000D01*
X-13936138Y15600000D01*
X-13917653Y15447762D01*
X-13863272Y15304372D01*
X-13776156Y15178162D01*
X-13776154Y15178160D01*
X-13661369Y15076469D01*
X-13606039Y15047430D01*
X-13525578Y15005201D01*
X-13525575Y15005200D01*
X-13376679Y14968500D01*
X-13376678Y14968500D01*
X-13223321Y14968500D01*
X-13074424Y15005200D01*
X-12938630Y15076469D01*
X-12823845Y15178160D01*
X-12736729Y15304369D01*
X-12682347Y15447761D01*
X-12682346Y15447764D01*
X-12663862Y15599999D01*
X-12663862Y15600000D01*
X-12682346Y15752235D01*
X-12682347Y15752238D01*
X-12736729Y15895630D01*
X-12739745Y15899999D01*
X15844750Y15899999D01*
X15863670Y15756291D01*
X15863671Y15756287D01*
X15919137Y15622377D01*
X16007379Y15507379D01*
X16122377Y15419137D01*
X16256287Y15363671D01*
X16256291Y15363670D01*
X16399999Y15344750D01*
X16400000Y15344750D01*
X16400001Y15344750D01*
X16471854Y15354210D01*
X16543709Y15363670D01*
X16543710Y15363670D01*
X16543712Y15363671D01*
X16677622Y15419137D01*
X16677625Y15419139D01*
X16792621Y15507379D01*
X16880861Y15622375D01*
X16936330Y15756291D01*
X16953048Y15883280D01*
X16955250Y15899999D01*
X16955250Y15900000D01*
X16955249Y15900000D01*
X16936330Y16043709D01*
X16880861Y16177625D01*
X16877751Y16185134D01*
X16880907Y16186441D01*
X16868108Y16238912D01*
X16890877Y16304967D01*
X16893600Y16308655D01*
X16980860Y16422373D01*
X16980861Y16422376D01*
X17036328Y16556287D01*
X17036330Y16556291D01*
X17055250Y16700000D01*
X17036330Y16843709D01*
X16980861Y16977625D01*
X16892621Y17092621D01*
X16777625Y17180861D01*
X16643709Y17236330D01*
X16514977Y17253278D01*
X16500001Y17255250D01*
X16499999Y17255250D01*
X16483280Y17253048D01*
X16356291Y17236330D01*
X16222375Y17180861D01*
X16107379Y17092621D01*
X16019139Y16977625D01*
X16019137Y16977622D01*
X15963671Y16843712D01*
X15963670Y16843708D01*
X15944750Y16700000D01*
X15944750Y16699999D01*
X15963670Y16556291D01*
X15963671Y16556287D01*
X16022249Y16414866D01*
X16019128Y16413573D01*
X16031879Y16360836D01*
X16008976Y16294827D01*
X16006423Y16291375D01*
X15925904Y16186441D01*
X15919137Y16177622D01*
X15863671Y16043712D01*
X15863670Y16043708D01*
X15844750Y15900000D01*
X15844750Y15899999D01*
X-12739745Y15899999D01*
X-12823845Y16021839D01*
X-12938630Y16123530D01*
X-12944766Y16126750D01*
X-13074422Y16194799D01*
X-13173688Y16219266D01*
X-13223321Y16231500D01*
X-13223322Y16231500D01*
X-13376678Y16231500D01*
X-13376679Y16231500D01*
X-13409009Y16223531D01*
X-13525578Y16194799D01*
X-13661368Y16123531D01*
X-13776156Y16021838D01*
X-13863272Y15895628D01*
X-13917653Y15752238D01*
X-13936138Y15600000D01*
X-21576004Y15600000D01*
X-21563862Y15699999D01*
X-21563862Y15700000D01*
X-21582346Y15852235D01*
X-21582347Y15852238D01*
X-21598804Y15895630D01*
X-21636728Y15995628D01*
X-21723844Y16121838D01*
X-21786811Y16177622D01*
X-21838630Y16223530D01*
X-21895949Y16253613D01*
X-21974422Y16294799D01*
X-22073688Y16319266D01*
X-22123321Y16331500D01*
X-22123322Y16331500D01*
X-22276678Y16331500D01*
X-22276679Y16331500D01*
X-22313902Y16322324D01*
X-22425578Y16294799D01*
X-22561368Y16223531D01*
X-22676156Y16121838D01*
X-22763272Y15995628D01*
X-22817653Y15852238D01*
X-22836138Y15700000D01*
X-24074876Y15700000D01*
X-23632280Y16365180D01*
X-23008660Y17230941D01*
X-22353340Y18072963D01*
X-21667222Y18890084D01*
X-20951252Y19681179D01*
X-20206417Y20445158D01*
X-19433742Y21180969D01*
X-18634292Y21887598D01*
X-18497190Y22000000D01*
X-12036138Y22000000D01*
X-12017653Y21847762D01*
X-11963272Y21704372D01*
X-11876156Y21578162D01*
X-11876154Y21578160D01*
X-11761369Y21476469D01*
X-11696540Y21442444D01*
X-11625578Y21405201D01*
X-11625575Y21405200D01*
X-11476679Y21368500D01*
X-11476678Y21368500D01*
X-11323321Y21368500D01*
X-11174424Y21405200D01*
X-11038630Y21476469D01*
X-10923845Y21578160D01*
X-10836729Y21704369D01*
X-10782347Y21847761D01*
X-10782346Y21847764D01*
X-10763862Y21999999D01*
X7463862Y21999999D01*
X7482346Y21847764D01*
X7482347Y21847761D01*
X7536729Y21704369D01*
X7623845Y21578160D01*
X7738630Y21476469D01*
X7874424Y21405200D01*
X8023321Y21368500D01*
X8023322Y21368500D01*
X8176679Y21368500D01*
X8325575Y21405200D01*
X8325578Y21405201D01*
X8396540Y21442444D01*
X8461369Y21476469D01*
X8576154Y21578160D01*
X8576156Y21578162D01*
X8663272Y21704372D01*
X8717653Y21847762D01*
X8736138Y22000000D01*
X8717653Y22152238D01*
X8663272Y22295628D01*
X8576156Y22421838D01*
X8461368Y22523531D01*
X8325578Y22594799D01*
X8213902Y22622324D01*
X8176679Y22631500D01*
X8176678Y22631500D01*
X8023322Y22631500D01*
X8023321Y22631500D01*
X7973688Y22619266D01*
X7874422Y22594799D01*
X7744766Y22526750D01*
X7738630Y22523530D01*
X7623845Y22421839D01*
X7536729Y22295630D01*
X7482347Y22152238D01*
X7482346Y22152235D01*
X7463862Y22000000D01*
X7463862Y21999999D01*
X-10763862Y21999999D01*
X-10763862Y22000000D01*
X-10782346Y22152235D01*
X-10782347Y22152238D01*
X-10836729Y22295630D01*
X-10923845Y22421839D01*
X-11038630Y22523530D01*
X-11044766Y22526750D01*
X-11174422Y22594799D01*
X-11273688Y22619266D01*
X-11323321Y22631500D01*
X-11323322Y22631500D01*
X-11476678Y22631500D01*
X-11476679Y22631500D01*
X-11513902Y22622324D01*
X-11625578Y22594799D01*
X-11761368Y22523531D01*
X-11876156Y22421838D01*
X-11963272Y22295628D01*
X-12017653Y22152238D01*
X-12036138Y22000000D01*
X-18497190Y22000000D01*
X-17809168Y22564071D01*
X-16959508Y23209456D01*
X-16086481Y23822864D01*
X-15191293Y24403450D01*
X-14275174Y24950415D01*
X-13339387Y25463003D01*
X-12385221Y25940510D01*
X-12254432Y26000000D01*
X-1859237Y26000000D01*
X-1840313Y25735403D01*
X-1783925Y25476192D01*
X-1691221Y25227645D01*
X-1691218Y25227638D01*
X-1564093Y24994826D01*
X-1564088Y24994818D01*
X-1405124Y24782466D01*
X-1405108Y24782448D01*
X-1217551Y24594891D01*
X-1217533Y24594875D01*
X-1005181Y24435911D01*
X-1005173Y24435906D01*
X-772360Y24308781D01*
X-772361Y24308781D01*
X-672936Y24271697D01*
X-523808Y24216075D01*
X-523805Y24216074D01*
X-523799Y24216072D01*
X-264602Y24159687D01*
X-1Y24140763D01*
X0Y24140763D01*
X1Y24140763D01*
X264602Y24159687D01*
X523799Y24216072D01*
X523805Y24216074D01*
X523808Y24216075D01*
X672936Y24271697D01*
X772361Y24308781D01*
X1005173Y24435906D01*
X1005181Y24435911D01*
X1217533Y24594875D01*
X1217551Y24594891D01*
X1405108Y24782448D01*
X1405124Y24782466D01*
X1564088Y24994818D01*
X1564093Y24994826D01*
X1691218Y25227638D01*
X1691221Y25227645D01*
X1783925Y25476192D01*
X1840313Y25735403D01*
X1859237Y26000000D01*
X1840313Y26264597D01*
X1783925Y26523808D01*
X1691221Y26772355D01*
X1564090Y27005179D01*
X1405118Y27217541D01*
X1217541Y27405118D01*
X1005179Y27564090D01*
X772360Y27691218D01*
X772359Y27691218D01*
X772355Y27691221D01*
X523808Y27783925D01*
X264597Y27840313D01*
X26508Y27857341D01*
X1Y27859237D01*
X-1Y27859237D01*
X-26508Y27857341D01*
X-264597Y27840313D01*
X-523808Y27783925D01*
X-772355Y27691221D01*
X-772359Y27691218D01*
X-772361Y27691218D01*
X-888767Y27627655D01*
X-1005179Y27564090D01*
X-1217541Y27405118D01*
X-1405118Y27217541D01*
X-1564090Y27005179D01*
X-1691221Y26772355D01*
X-1783925Y26523808D01*
X-1840313Y26264597D01*
X-1859237Y26000000D01*
X-12254432Y26000000D01*
X-11413992Y26382277D01*
X-10427038Y26787696D01*
X-9425717Y27156208D01*
X-8411410Y27487305D01*
X-7385514Y27780532D01*
X-6349443Y28035484D01*
X-5304623Y28251810D01*
X-4252495Y28429211D01*
X-3194509Y28567444D01*
X-2132121Y28666319D01*
X-1066795Y28725698D01*
X0Y28745500D01*
X1066795Y28725698D01*
G37*
%TD.AperFunction*%
%TD*%
%TA.AperFunction,Conductor*%
%TO.N,CC2*%
G36*
X21087563Y-9149958D02*
G01*
X21095824Y-9153412D01*
X21099223Y-9161697D01*
X21099199Y-9162411D01*
X21065006Y-9692700D01*
X21061054Y-9700735D01*
X21053330Y-9703647D01*
X20841665Y-9703647D01*
X20833392Y-9700220D01*
X20832196Y-9698819D01*
X20593720Y-9370196D01*
X20591634Y-9361487D01*
X20594895Y-9355071D01*
X20796555Y-9152461D01*
X20804817Y-9149016D01*
X21087563Y-9149958D01*
G37*
%TD.AperFunction*%
%TD*%
%TA.AperFunction,Conductor*%
%TO.N,D+*%
G36*
X11104641Y-13897873D02*
G01*
X11404993Y-14194353D01*
X11408474Y-14202603D01*
X11405101Y-14210898D01*
X11405067Y-14210933D01*
X11204669Y-14412276D01*
X11196404Y-14415722D01*
X11196337Y-14415722D01*
X10912884Y-14414777D01*
X10904622Y-14411323D01*
X10901223Y-14403077D01*
X10901224Y-13906200D01*
X10904651Y-13897927D01*
X10912924Y-13894500D01*
X11096422Y-13894500D01*
X11104641Y-13897873D01*
G37*
%TD.AperFunction*%
%TD*%
%TA.AperFunction,Conductor*%
%TO.N,D-*%
G36*
X10647795Y-13897927D02*
G01*
X10651222Y-13906200D01*
X10651222Y-14403077D01*
X10647795Y-14411350D01*
X10639561Y-14414777D01*
X10356108Y-14415722D01*
X10347823Y-14412323D01*
X10347776Y-14412276D01*
X10346854Y-14411350D01*
X10147378Y-14210933D01*
X10143971Y-14202651D01*
X10147415Y-14194389D01*
X10447804Y-13897873D01*
X10456024Y-13894500D01*
X10639522Y-13894500D01*
X10647795Y-13897927D01*
G37*
%TD.AperFunction*%
%TD*%
%TA.AperFunction,Conductor*%
%TO.N,ESP_ADC*%
G36*
X10414159Y-20303427D02*
G01*
X10416978Y-20307977D01*
X10573699Y-20774873D01*
X10573083Y-20783806D01*
X10567118Y-20789392D01*
X10304511Y-20899115D01*
X10295556Y-20899142D01*
X10295489Y-20899115D01*
X10032881Y-20789392D01*
X10026569Y-20783040D01*
X10026300Y-20774875D01*
X10183022Y-20307976D01*
X10188904Y-20301224D01*
X10194114Y-20300000D01*
X10405886Y-20300000D01*
X10414159Y-20303427D01*
G37*
%TD.AperFunction*%
%TD*%
%TA.AperFunction,Conductor*%
%TO.N,D+*%
G36*
X15095332Y-7704327D02*
G01*
X15099475Y-7712266D01*
X15099521Y-7713259D01*
X15100462Y-7995635D01*
X15097063Y-8003920D01*
X15097016Y-8003967D01*
X14894624Y-8205409D01*
X14886342Y-8208816D01*
X14879219Y-8206376D01*
X14551076Y-7952991D01*
X14546622Y-7945223D01*
X14546527Y-7943731D01*
X14546527Y-7760189D01*
X14549954Y-7751916D01*
X14557193Y-7748535D01*
X15086790Y-7701644D01*
X15095332Y-7704327D01*
G37*
%TD.AperFunction*%
%TD*%
%TA.AperFunction,Conductor*%
%TO.N,ESP_ADC*%
G36*
X25405885Y-3104638D02*
G01*
X25604935Y-3304892D01*
X25608337Y-3313175D01*
X25605934Y-3320243D01*
X25439942Y-3537507D01*
X25432196Y-3542001D01*
X25426643Y-3541398D01*
X25224906Y-3467971D01*
X25218304Y-3461922D01*
X25217994Y-3461192D01*
X25216350Y-3456935D01*
X25126940Y-3225431D01*
X25127156Y-3216480D01*
X25133348Y-3210420D01*
X25393084Y-3102087D01*
X25402038Y-3102066D01*
X25405885Y-3104638D01*
G37*
%TD.AperFunction*%
%TD*%
%TA.AperFunction,Conductor*%
%TO.N,D-*%
G36*
X15584162Y-7126529D02*
G01*
X15590024Y-7132627D01*
X15699636Y-7394967D01*
X15699663Y-7403922D01*
X15699636Y-7403989D01*
X15590024Y-7666330D01*
X15583672Y-7672642D01*
X15575215Y-7672808D01*
X15441468Y-7623972D01*
X15108208Y-7502285D01*
X15101612Y-7496229D01*
X15100521Y-7491295D01*
X15100521Y-7307662D01*
X15103948Y-7299389D01*
X15108208Y-7296672D01*
X15575218Y-7126148D01*
X15584162Y-7126529D01*
G37*
%TD.AperFunction*%
%TD*%
%TA.AperFunction,Conductor*%
%TO.N,CC2*%
G36*
X21064159Y-13703427D02*
G01*
X21066978Y-13707977D01*
X21223699Y-14174873D01*
X21223083Y-14183806D01*
X21217118Y-14189392D01*
X20954510Y-14299115D01*
X20945555Y-14299142D01*
X20945502Y-14299120D01*
X20682881Y-14189392D01*
X20676569Y-14183040D01*
X20676300Y-14174875D01*
X20833022Y-13707976D01*
X20838904Y-13701224D01*
X20844114Y-13700000D01*
X21055886Y-13700000D01*
X21064159Y-13703427D01*
G37*
%TD.AperFunction*%
%TD*%
M02*
