%TF.GenerationSoftware,KiCad,Pcbnew,7.0.5*%
%TF.CreationDate,2023-06-16T17:12:54-04:00*%
%TF.ProjectId,ESP32Sensor-Sensor_board,45535033-3253-4656-9e73-6f722d53656e,rev?*%
%TF.SameCoordinates,Original*%
%TF.FileFunction,Profile,NP*%
%FSLAX46Y46*%
G04 Gerber Fmt 4.6, Leading zero omitted, Abs format (unit mm)*
G04 Created by KiCad (PCBNEW 7.0.5) date 2023-06-16 17:12:54*
%MOMM*%
%LPD*%
G01*
G04 APERTURE LIST*
%TA.AperFunction,Profile*%
%ADD10C,0.100000*%
%TD*%
%TA.AperFunction,Profile*%
%ADD11C,0.010000*%
%TD*%
G04 APERTURE END LIST*
D10*
X-13000000Y-37000000D02*
X-13000000Y-54000000D01*
X19000000Y-60000000D02*
X-19000000Y-60000000D01*
X-19000000Y0D02*
X-7112000Y0D01*
X-7400000Y-4000000D02*
G75*
G03*
X-7400000Y-4000000I-1600000J0D01*
G01*
X17600000Y-57000000D02*
G75*
G03*
X17600000Y-57000000I-1600000J0D01*
G01*
X-19000000Y-37000000D02*
X-13000000Y-37000000D01*
X19000000Y0D02*
X19000000Y-60000000D01*
X-19000000Y-54000000D02*
X-13000000Y-54000000D01*
X-7112000Y-2540000D02*
X-7112000Y0D01*
X-19000000Y0D02*
X-19000000Y-37000000D01*
X7112000Y0D02*
X19000000Y0D01*
X-14400000Y-57000000D02*
G75*
G03*
X-14400000Y-57000000I-1600000J0D01*
G01*
X7112000Y0D02*
X7112000Y-2540000D01*
X7112000Y-2540000D02*
X-7112000Y-2540000D01*
X10600000Y-4000000D02*
G75*
G03*
X10600000Y-4000000I-1600000J0D01*
G01*
X-19000000Y-60000000D02*
X-19000000Y-54000000D01*
D11*
%TO.C,J2*%
X8731000Y-44638000D02*
X8731000Y-44338000D01*
X9381000Y-44338000D02*
X9381000Y-44638000D01*
X8731000Y-44638000D02*
G75*
G03*
X9056000Y-44963000I325000J0D01*
G01*
X9056000Y-44963000D02*
G75*
G03*
X9381000Y-44638000I0J325000D01*
G01*
X9056000Y-44013000D02*
G75*
G03*
X8731000Y-44338000I0J-325000D01*
G01*
X9381000Y-44338000D02*
G75*
G03*
X9056000Y-44013000I-325000J0D01*
G01*
%TD*%
M02*
