%TF.GenerationSoftware,KiCad,Pcbnew,7.0.10*%
%TF.CreationDate,2024-03-09T04:50:20+08:00*%
%TF.ProjectId,ESP32Sensor-Sensor_board,45535033-3253-4656-9e73-6f722d53656e,rev?*%
%TF.SameCoordinates,Original*%
%TF.FileFunction,Profile,NP*%
%FSLAX46Y46*%
G04 Gerber Fmt 4.6, Leading zero omitted, Abs format (unit mm)*
G04 Created by KiCad (PCBNEW 7.0.10) date 2024-03-09 04:50:20*
%MOMM*%
%LPD*%
G01*
G04 APERTURE LIST*
%TA.AperFunction,Profile*%
%ADD10C,0.100000*%
%TD*%
G04 APERTURE END LIST*
D10*
X175000000Y-134000000D02*
X127000000Y-134000000D01*
X127000000Y-82500000D02*
X133000000Y-82500000D01*
X142500000Y-77900000D02*
G75*
G03*
X139300000Y-77900000I-1600000J0D01*
G01*
X139300000Y-77900000D02*
G75*
G03*
X142500000Y-77900000I1600000J0D01*
G01*
X173000000Y-131000000D02*
G75*
G03*
X169800000Y-131000000I-1600000J0D01*
G01*
X169800000Y-131000000D02*
G75*
G03*
X173000000Y-131000000I1600000J0D01*
G01*
X175000000Y-74000000D02*
X175000000Y-134000000D01*
X133000000Y-112500000D02*
X127000000Y-112500000D01*
X143400000Y-76600000D02*
X143400000Y-74000000D01*
X127000000Y-112500000D02*
X127000000Y-134000000D01*
X132000000Y-130912000D02*
G75*
G03*
X128800000Y-130912000I-1600000J0D01*
G01*
X128800000Y-130912000D02*
G75*
G03*
X132000000Y-130912000I1600000J0D01*
G01*
X175000000Y-74000000D02*
X158400000Y-74000000D01*
X133000000Y-82500000D02*
X133000000Y-112500000D01*
X158400000Y-74000000D02*
X158400000Y-76600000D01*
X127000000Y-74000000D02*
X143400000Y-74000000D01*
X127000000Y-74000000D02*
X127000000Y-82500000D01*
X158400000Y-76600000D02*
X143400000Y-76600000D01*
X162500000Y-77900000D02*
G75*
G03*
X159300000Y-77900000I-1600000J0D01*
G01*
X159300000Y-77900000D02*
G75*
G03*
X162500000Y-77900000I1600000J0D01*
G01*
M02*
