%TF.GenerationSoftware,KiCad,Pcbnew,7.0.10*%
%TF.CreationDate,2024-03-09T04:50:20+08:00*%
%TF.ProjectId,ESP32Sensor-Sensor_board,45535033-3253-4656-9e73-6f722d53656e,rev?*%
%TF.SameCoordinates,Original*%
%TF.FileFunction,Soldermask,Bot*%
%TF.FilePolarity,Negative*%
%FSLAX46Y46*%
G04 Gerber Fmt 4.6, Leading zero omitted, Abs format (unit mm)*
G04 Created by KiCad (PCBNEW 7.0.10) date 2024-03-09 04:50:20*
%MOMM*%
%LPD*%
G01*
G04 APERTURE LIST*
G04 Aperture macros list*
%AMRoundRect*
0 Rectangle with rounded corners*
0 $1 Rounding radius*
0 $2 $3 $4 $5 $6 $7 $8 $9 X,Y pos of 4 corners*
0 Add a 4 corners polygon primitive as box body*
4,1,4,$2,$3,$4,$5,$6,$7,$8,$9,$2,$3,0*
0 Add four circle primitives for the rounded corners*
1,1,$1+$1,$2,$3*
1,1,$1+$1,$4,$5*
1,1,$1+$1,$6,$7*
1,1,$1+$1,$8,$9*
0 Add four rect primitives between the rounded corners*
20,1,$1+$1,$2,$3,$4,$5,0*
20,1,$1+$1,$4,$5,$6,$7,0*
20,1,$1+$1,$6,$7,$8,$9,0*
20,1,$1+$1,$8,$9,$2,$3,0*%
G04 Aperture macros list end*
%ADD10R,1.600000X1.000000*%
%ADD11C,1.524000*%
%ADD12RoundRect,0.381000X-0.381000X-2.794000X0.381000X-2.794000X0.381000X2.794000X-0.381000X2.794000X0*%
%ADD13C,0.650000*%
%ADD14O,1.000000X2.100000*%
%ADD15O,1.000000X1.800000*%
%ADD16R,4.500000X2.000000*%
%ADD17O,4.000000X2.000000*%
%ADD18O,2.000000X4.200000*%
%ADD19RoundRect,0.113000X-0.452000X1.107000X-0.452000X-1.107000X0.452000X-1.107000X0.452000X1.107000X0*%
%ADD20RoundRect,0.100000X-0.100000X0.637500X-0.100000X-0.637500X0.100000X-0.637500X0.100000X0.637500X0*%
%ADD21RoundRect,0.135000X-0.185000X0.135000X-0.185000X-0.135000X0.185000X-0.135000X0.185000X0.135000X0*%
%ADD22RoundRect,0.140000X-0.170000X0.140000X-0.170000X-0.140000X0.170000X-0.140000X0.170000X0.140000X0*%
%ADD23RoundRect,0.140000X0.170000X-0.140000X0.170000X0.140000X-0.170000X0.140000X-0.170000X-0.140000X0*%
%ADD24RoundRect,0.147500X0.147500X0.172500X-0.147500X0.172500X-0.147500X-0.172500X0.147500X-0.172500X0*%
%ADD25RoundRect,0.250000X0.300000X-0.300000X0.300000X0.300000X-0.300000X0.300000X-0.300000X-0.300000X0*%
%ADD26RoundRect,0.150000X-0.150000X0.825000X-0.150000X-0.825000X0.150000X-0.825000X0.150000X0.825000X0*%
%ADD27RoundRect,0.135000X0.185000X-0.135000X0.185000X0.135000X-0.185000X0.135000X-0.185000X-0.135000X0*%
%ADD28RoundRect,0.140000X0.140000X0.170000X-0.140000X0.170000X-0.140000X-0.170000X0.140000X-0.170000X0*%
%ADD29RoundRect,0.135000X0.135000X0.185000X-0.135000X0.185000X-0.135000X-0.185000X0.135000X-0.185000X0*%
%ADD30RoundRect,0.140000X-0.140000X-0.170000X0.140000X-0.170000X0.140000X0.170000X-0.140000X0.170000X0*%
%ADD31R,1.700000X1.700000*%
%ADD32O,1.700000X1.700000*%
%ADD33R,1.560000X0.650000*%
%ADD34RoundRect,0.225000X0.375000X-0.225000X0.375000X0.225000X-0.375000X0.225000X-0.375000X-0.225000X0*%
%ADD35RoundRect,0.113000X1.107000X0.452000X-1.107000X0.452000X-1.107000X-0.452000X1.107000X-0.452000X0*%
%ADD36RoundRect,0.147500X-0.147500X-0.172500X0.147500X-0.172500X0.147500X0.172500X-0.147500X0.172500X0*%
%ADD37R,0.300000X0.800000*%
%ADD38RoundRect,0.150000X-0.150000X0.875000X-0.150000X-0.875000X0.150000X-0.875000X0.150000X0.875000X0*%
%ADD39R,0.700000X0.250000*%
%ADD40R,0.610000X2.200000*%
%ADD41RoundRect,0.100000X0.100000X-0.637500X0.100000X0.637500X-0.100000X0.637500X-0.100000X-0.637500X0*%
%ADD42C,1.000000*%
%ADD43R,1.500000X0.900000*%
G04 APERTURE END LIST*
D10*
%TO.C,U14*%
X159300000Y-106012500D03*
%TD*%
%TO.C,U11*%
X166900000Y-106012500D03*
%TD*%
D11*
%TO.C,PD1*%
X154726500Y-82904500D03*
X147170000Y-82904500D03*
D12*
X150916500Y-79729500D03*
D11*
X150916500Y-82904500D03*
%TD*%
D13*
%TO.C,J3*%
X159210000Y-128710000D03*
X164990000Y-128710000D03*
D14*
X157780000Y-128210000D03*
D15*
X157780000Y-132390000D03*
X166420000Y-132390000D03*
D14*
X166420000Y-128210000D03*
%TD*%
D16*
%TO.C,J1*%
X137400000Y-121250000D03*
D17*
X137400000Y-127250000D03*
D18*
X142100000Y-124250000D03*
%TD*%
D19*
%TO.C,S2*%
X155230000Y-109800000D03*
X155230000Y-118400000D03*
X157770000Y-109800000D03*
X157770000Y-118400000D03*
%TD*%
D20*
%TO.C,U1*%
X162550000Y-86637500D03*
X163200000Y-86637500D03*
X163850000Y-86637500D03*
X164500000Y-86637500D03*
X165150000Y-86637500D03*
X165800000Y-86637500D03*
X166450000Y-86637500D03*
X166450000Y-92362500D03*
X165800000Y-92362500D03*
X165150000Y-92362500D03*
X164500000Y-92362500D03*
X163850000Y-92362500D03*
X163200000Y-92362500D03*
X162550000Y-92362500D03*
%TD*%
D21*
%TO.C,R6*%
X149600000Y-100090000D03*
X149600000Y-101110000D03*
%TD*%
D22*
%TO.C,C9*%
X149600000Y-102120000D03*
X149600000Y-103080000D03*
%TD*%
D23*
%TO.C,C33*%
X151700000Y-95180000D03*
X151700000Y-94220000D03*
%TD*%
%TO.C,C6*%
X147400000Y-89980000D03*
X147400000Y-89020000D03*
%TD*%
D24*
%TO.C,FB3*%
X170260000Y-108416000D03*
X169290000Y-108416000D03*
%TD*%
D23*
%TO.C,C15*%
X170375000Y-110496000D03*
X170375000Y-109536000D03*
%TD*%
D25*
%TO.C,CR2*%
X157600000Y-103100000D03*
X157600000Y-100300000D03*
%TD*%
D26*
%TO.C,U4*%
X138195000Y-85025000D03*
X139465000Y-85025000D03*
X140735000Y-85025000D03*
X142005000Y-85025000D03*
X142005000Y-89975000D03*
X140735000Y-89975000D03*
X139465000Y-89975000D03*
X138195000Y-89975000D03*
%TD*%
D27*
%TO.C,R9*%
X143600000Y-84810000D03*
X143600000Y-83790000D03*
%TD*%
%TO.C,R21*%
X161850000Y-114210000D03*
X161850000Y-113190000D03*
%TD*%
D22*
%TO.C,C3*%
X149600000Y-104120000D03*
X149600000Y-105080000D03*
%TD*%
D28*
%TO.C,C8*%
X140720000Y-92350000D03*
X139760000Y-92350000D03*
%TD*%
D27*
%TO.C,R12*%
X155800000Y-96720000D03*
X155800000Y-95700000D03*
%TD*%
D29*
%TO.C,R2*%
X156110000Y-88800000D03*
X155090000Y-88800000D03*
%TD*%
D30*
%TO.C,C11*%
X160520000Y-104400000D03*
X161480000Y-104400000D03*
%TD*%
D22*
%TO.C,C12*%
X157000000Y-95720000D03*
X157000000Y-96680000D03*
%TD*%
D29*
%TO.C,R3*%
X156110000Y-89800000D03*
X155090000Y-89800000D03*
%TD*%
D21*
%TO.C,R14*%
X162800000Y-104326200D03*
X162800000Y-105346200D03*
%TD*%
D31*
%TO.C,J6*%
X172900000Y-88280000D03*
D32*
X172900000Y-90820000D03*
X172900000Y-93360000D03*
X172900000Y-95900000D03*
X172900000Y-98440000D03*
X172900000Y-100980000D03*
X172900000Y-103520000D03*
X172900000Y-106060000D03*
%TD*%
D26*
%TO.C,U6*%
X160495000Y-96925000D03*
X161765000Y-96925000D03*
X163035000Y-96925000D03*
X164305000Y-96925000D03*
X164305000Y-101875000D03*
X163035000Y-101875000D03*
X161765000Y-101875000D03*
X160495000Y-101875000D03*
%TD*%
D21*
%TO.C,R11*%
X167400000Y-98910000D03*
X167400000Y-99930000D03*
%TD*%
D27*
%TO.C,R17*%
X165060000Y-114220000D03*
X165060000Y-113200000D03*
%TD*%
D33*
%TO.C,CR1*%
X162550000Y-124950000D03*
X162550000Y-124000000D03*
X162550000Y-123050000D03*
X165250000Y-123050000D03*
X165250000Y-124000000D03*
X165250000Y-124950000D03*
%TD*%
D21*
%TO.C,R13*%
X158300000Y-95690000D03*
X158300000Y-96710000D03*
%TD*%
D34*
%TO.C,CR3*%
X155000000Y-103350000D03*
X155000000Y-100050000D03*
%TD*%
D35*
%TO.C,S1*%
X156300000Y-122830000D03*
X147700000Y-122830000D03*
X156300000Y-125370000D03*
X147700000Y-125370000D03*
%TD*%
D36*
%TO.C,FB4*%
X153362600Y-98150000D03*
X154332600Y-98150000D03*
%TD*%
D37*
%TO.C,U12*%
X164750000Y-119050000D03*
X164250000Y-119050000D03*
X163750000Y-119050000D03*
X163250000Y-119050000D03*
X163250000Y-115950000D03*
X163750000Y-115950000D03*
X164250000Y-115950000D03*
X164750000Y-115950000D03*
%TD*%
D29*
%TO.C,R4*%
X156110000Y-90800000D03*
X155090000Y-90800000D03*
%TD*%
D22*
%TO.C,C13*%
X158300000Y-97720000D03*
X158300000Y-98680000D03*
%TD*%
D23*
%TO.C,C7*%
X143600000Y-88980000D03*
X143600000Y-88020000D03*
%TD*%
%TO.C,C4*%
X160800000Y-90091200D03*
X160800000Y-89131200D03*
%TD*%
D22*
%TO.C,C14*%
X166300000Y-98940000D03*
X166300000Y-99900000D03*
%TD*%
D28*
%TO.C,C10*%
X143580000Y-82700000D03*
X142620000Y-82700000D03*
%TD*%
D23*
%TO.C,C32*%
X166400000Y-95191200D03*
X166400000Y-94231200D03*
%TD*%
D21*
%TO.C,R15*%
X164200000Y-104326200D03*
X164200000Y-105346200D03*
%TD*%
D38*
%TO.C,U3*%
X135985000Y-96750000D03*
X137255000Y-96750000D03*
X138525000Y-96750000D03*
X139795000Y-96750000D03*
X141065000Y-96750000D03*
X142335000Y-96750000D03*
X143605000Y-96750000D03*
X144875000Y-96750000D03*
X146145000Y-96750000D03*
X147415000Y-96750000D03*
X147415000Y-106050000D03*
X146145000Y-106050000D03*
X144875000Y-106050000D03*
X143605000Y-106050000D03*
X142335000Y-106050000D03*
X141065000Y-106050000D03*
X139795000Y-106050000D03*
X138525000Y-106050000D03*
X137255000Y-106050000D03*
X135985000Y-106050000D03*
%TD*%
D39*
%TO.C,U7*%
X167500000Y-108800000D03*
X167500000Y-109300000D03*
X167500000Y-109800000D03*
X167500000Y-110300000D03*
X165650000Y-110300000D03*
X165650000Y-109800000D03*
X165650000Y-109300000D03*
X165650000Y-108800000D03*
D40*
X166575000Y-109550000D03*
%TD*%
D27*
%TO.C,R5*%
X149600000Y-99100000D03*
X149600000Y-98080000D03*
%TD*%
D23*
%TO.C,C21*%
X166270000Y-114190000D03*
X166270000Y-113230000D03*
%TD*%
D41*
%TO.C,U2*%
X153050000Y-92362500D03*
X152400000Y-92362500D03*
X151750000Y-92362500D03*
X151100000Y-92362500D03*
X150450000Y-92362500D03*
X149800000Y-92362500D03*
X149150000Y-92362500D03*
X149150000Y-86637500D03*
X149800000Y-86637500D03*
X150450000Y-86637500D03*
X151100000Y-86637500D03*
X151750000Y-86637500D03*
X152400000Y-86637500D03*
X153050000Y-86637500D03*
%TD*%
D27*
%TO.C,R8*%
X144800000Y-86910000D03*
X144800000Y-85890000D03*
%TD*%
D19*
%TO.C,S3*%
X146230000Y-109900000D03*
X146230000Y-118500000D03*
X148770000Y-109900000D03*
X148770000Y-118500000D03*
%TD*%
D27*
%TO.C,R7*%
X143600000Y-86910000D03*
X143600000Y-85890000D03*
%TD*%
D21*
%TO.C,R10*%
X157000000Y-97690000D03*
X157000000Y-98710000D03*
%TD*%
D42*
%TO.C,TP4*%
X169100000Y-89400000D03*
%TD*%
D27*
%TO.C,R20*%
X163100000Y-114210000D03*
X163100000Y-113190000D03*
%TD*%
D28*
%TO.C,C5*%
X164980000Y-94311200D03*
X164020000Y-94311200D03*
%TD*%
D43*
%TO.C,D1*%
X141750000Y-112450000D03*
X141750000Y-115750000D03*
X136850000Y-115750000D03*
X136850000Y-112450000D03*
%TD*%
D23*
%TO.C,C16*%
X169175000Y-110496000D03*
X169175000Y-109536000D03*
%TD*%
M02*
