%TF.GenerationSoftware,KiCad,Pcbnew,7.0.10*%
%TF.CreationDate,2024-03-09T04:50:20+08:00*%
%TF.ProjectId,ESP32Sensor-Sensor_board,45535033-3253-4656-9e73-6f722d53656e,rev?*%
%TF.SameCoordinates,Original*%
%TF.FileFunction,Legend,Bot*%
%TF.FilePolarity,Positive*%
%FSLAX46Y46*%
G04 Gerber Fmt 4.6, Leading zero omitted, Abs format (unit mm)*
G04 Created by KiCad (PCBNEW 7.0.10) date 2024-03-09 04:50:20*
%MOMM*%
%LPD*%
G01*
G04 APERTURE LIST*
%ADD10C,0.150000*%
%ADD11C,0.120000*%
G04 APERTURE END LIST*
D10*
X155161904Y-110007200D02*
X155019047Y-110054819D01*
X155019047Y-110054819D02*
X154780952Y-110054819D01*
X154780952Y-110054819D02*
X154685714Y-110007200D01*
X154685714Y-110007200D02*
X154638095Y-109959580D01*
X154638095Y-109959580D02*
X154590476Y-109864342D01*
X154590476Y-109864342D02*
X154590476Y-109769104D01*
X154590476Y-109769104D02*
X154638095Y-109673866D01*
X154638095Y-109673866D02*
X154685714Y-109626247D01*
X154685714Y-109626247D02*
X154780952Y-109578628D01*
X154780952Y-109578628D02*
X154971428Y-109531009D01*
X154971428Y-109531009D02*
X155066666Y-109483390D01*
X155066666Y-109483390D02*
X155114285Y-109435771D01*
X155114285Y-109435771D02*
X155161904Y-109340533D01*
X155161904Y-109340533D02*
X155161904Y-109245295D01*
X155161904Y-109245295D02*
X155114285Y-109150057D01*
X155114285Y-109150057D02*
X155066666Y-109102438D01*
X155066666Y-109102438D02*
X154971428Y-109054819D01*
X154971428Y-109054819D02*
X154733333Y-109054819D01*
X154733333Y-109054819D02*
X154590476Y-109102438D01*
X154209523Y-109150057D02*
X154161904Y-109102438D01*
X154161904Y-109102438D02*
X154066666Y-109054819D01*
X154066666Y-109054819D02*
X153828571Y-109054819D01*
X153828571Y-109054819D02*
X153733333Y-109102438D01*
X153733333Y-109102438D02*
X153685714Y-109150057D01*
X153685714Y-109150057D02*
X153638095Y-109245295D01*
X153638095Y-109245295D02*
X153638095Y-109340533D01*
X153638095Y-109340533D02*
X153685714Y-109483390D01*
X153685714Y-109483390D02*
X154257142Y-110054819D01*
X154257142Y-110054819D02*
X153638095Y-110054819D01*
X160354819Y-86038095D02*
X161164342Y-86038095D01*
X161164342Y-86038095D02*
X161259580Y-86085714D01*
X161259580Y-86085714D02*
X161307200Y-86133333D01*
X161307200Y-86133333D02*
X161354819Y-86228571D01*
X161354819Y-86228571D02*
X161354819Y-86419047D01*
X161354819Y-86419047D02*
X161307200Y-86514285D01*
X161307200Y-86514285D02*
X161259580Y-86561904D01*
X161259580Y-86561904D02*
X161164342Y-86609523D01*
X161164342Y-86609523D02*
X160354819Y-86609523D01*
X161354819Y-87609523D02*
X161354819Y-87038095D01*
X161354819Y-87323809D02*
X160354819Y-87323809D01*
X160354819Y-87323809D02*
X160497676Y-87228571D01*
X160497676Y-87228571D02*
X160592914Y-87133333D01*
X160592914Y-87133333D02*
X160640533Y-87038095D01*
X151354819Y-100533333D02*
X150878628Y-100200000D01*
X151354819Y-99961905D02*
X150354819Y-99961905D01*
X150354819Y-99961905D02*
X150354819Y-100342857D01*
X150354819Y-100342857D02*
X150402438Y-100438095D01*
X150402438Y-100438095D02*
X150450057Y-100485714D01*
X150450057Y-100485714D02*
X150545295Y-100533333D01*
X150545295Y-100533333D02*
X150688152Y-100533333D01*
X150688152Y-100533333D02*
X150783390Y-100485714D01*
X150783390Y-100485714D02*
X150831009Y-100438095D01*
X150831009Y-100438095D02*
X150878628Y-100342857D01*
X150878628Y-100342857D02*
X150878628Y-99961905D01*
X150354819Y-101390476D02*
X150354819Y-101200000D01*
X150354819Y-101200000D02*
X150402438Y-101104762D01*
X150402438Y-101104762D02*
X150450057Y-101057143D01*
X150450057Y-101057143D02*
X150592914Y-100961905D01*
X150592914Y-100961905D02*
X150783390Y-100914286D01*
X150783390Y-100914286D02*
X151164342Y-100914286D01*
X151164342Y-100914286D02*
X151259580Y-100961905D01*
X151259580Y-100961905D02*
X151307200Y-101009524D01*
X151307200Y-101009524D02*
X151354819Y-101104762D01*
X151354819Y-101104762D02*
X151354819Y-101295238D01*
X151354819Y-101295238D02*
X151307200Y-101390476D01*
X151307200Y-101390476D02*
X151259580Y-101438095D01*
X151259580Y-101438095D02*
X151164342Y-101485714D01*
X151164342Y-101485714D02*
X150926247Y-101485714D01*
X150926247Y-101485714D02*
X150831009Y-101438095D01*
X150831009Y-101438095D02*
X150783390Y-101390476D01*
X150783390Y-101390476D02*
X150735771Y-101295238D01*
X150735771Y-101295238D02*
X150735771Y-101104762D01*
X150735771Y-101104762D02*
X150783390Y-101009524D01*
X150783390Y-101009524D02*
X150831009Y-100961905D01*
X150831009Y-100961905D02*
X150926247Y-100914286D01*
X151259580Y-102418333D02*
X151307200Y-102370714D01*
X151307200Y-102370714D02*
X151354819Y-102227857D01*
X151354819Y-102227857D02*
X151354819Y-102132619D01*
X151354819Y-102132619D02*
X151307200Y-101989762D01*
X151307200Y-101989762D02*
X151211961Y-101894524D01*
X151211961Y-101894524D02*
X151116723Y-101846905D01*
X151116723Y-101846905D02*
X150926247Y-101799286D01*
X150926247Y-101799286D02*
X150783390Y-101799286D01*
X150783390Y-101799286D02*
X150592914Y-101846905D01*
X150592914Y-101846905D02*
X150497676Y-101894524D01*
X150497676Y-101894524D02*
X150402438Y-101989762D01*
X150402438Y-101989762D02*
X150354819Y-102132619D01*
X150354819Y-102132619D02*
X150354819Y-102227857D01*
X150354819Y-102227857D02*
X150402438Y-102370714D01*
X150402438Y-102370714D02*
X150450057Y-102418333D01*
X151354819Y-102894524D02*
X151354819Y-103085000D01*
X151354819Y-103085000D02*
X151307200Y-103180238D01*
X151307200Y-103180238D02*
X151259580Y-103227857D01*
X151259580Y-103227857D02*
X151116723Y-103323095D01*
X151116723Y-103323095D02*
X150926247Y-103370714D01*
X150926247Y-103370714D02*
X150545295Y-103370714D01*
X150545295Y-103370714D02*
X150450057Y-103323095D01*
X150450057Y-103323095D02*
X150402438Y-103275476D01*
X150402438Y-103275476D02*
X150354819Y-103180238D01*
X150354819Y-103180238D02*
X150354819Y-102989762D01*
X150354819Y-102989762D02*
X150402438Y-102894524D01*
X150402438Y-102894524D02*
X150450057Y-102846905D01*
X150450057Y-102846905D02*
X150545295Y-102799286D01*
X150545295Y-102799286D02*
X150783390Y-102799286D01*
X150783390Y-102799286D02*
X150878628Y-102846905D01*
X150878628Y-102846905D02*
X150926247Y-102894524D01*
X150926247Y-102894524D02*
X150973866Y-102989762D01*
X150973866Y-102989762D02*
X150973866Y-103180238D01*
X150973866Y-103180238D02*
X150926247Y-103275476D01*
X150926247Y-103275476D02*
X150878628Y-103323095D01*
X150878628Y-103323095D02*
X150783390Y-103370714D01*
X153259580Y-94057142D02*
X153307200Y-94009523D01*
X153307200Y-94009523D02*
X153354819Y-93866666D01*
X153354819Y-93866666D02*
X153354819Y-93771428D01*
X153354819Y-93771428D02*
X153307200Y-93628571D01*
X153307200Y-93628571D02*
X153211961Y-93533333D01*
X153211961Y-93533333D02*
X153116723Y-93485714D01*
X153116723Y-93485714D02*
X152926247Y-93438095D01*
X152926247Y-93438095D02*
X152783390Y-93438095D01*
X152783390Y-93438095D02*
X152592914Y-93485714D01*
X152592914Y-93485714D02*
X152497676Y-93533333D01*
X152497676Y-93533333D02*
X152402438Y-93628571D01*
X152402438Y-93628571D02*
X152354819Y-93771428D01*
X152354819Y-93771428D02*
X152354819Y-93866666D01*
X152354819Y-93866666D02*
X152402438Y-94009523D01*
X152402438Y-94009523D02*
X152450057Y-94057142D01*
X152354819Y-94390476D02*
X152354819Y-95009523D01*
X152354819Y-95009523D02*
X152735771Y-94676190D01*
X152735771Y-94676190D02*
X152735771Y-94819047D01*
X152735771Y-94819047D02*
X152783390Y-94914285D01*
X152783390Y-94914285D02*
X152831009Y-94961904D01*
X152831009Y-94961904D02*
X152926247Y-95009523D01*
X152926247Y-95009523D02*
X153164342Y-95009523D01*
X153164342Y-95009523D02*
X153259580Y-94961904D01*
X153259580Y-94961904D02*
X153307200Y-94914285D01*
X153307200Y-94914285D02*
X153354819Y-94819047D01*
X153354819Y-94819047D02*
X153354819Y-94533333D01*
X153354819Y-94533333D02*
X153307200Y-94438095D01*
X153307200Y-94438095D02*
X153259580Y-94390476D01*
X152354819Y-95342857D02*
X152354819Y-95961904D01*
X152354819Y-95961904D02*
X152735771Y-95628571D01*
X152735771Y-95628571D02*
X152735771Y-95771428D01*
X152735771Y-95771428D02*
X152783390Y-95866666D01*
X152783390Y-95866666D02*
X152831009Y-95914285D01*
X152831009Y-95914285D02*
X152926247Y-95961904D01*
X152926247Y-95961904D02*
X153164342Y-95961904D01*
X153164342Y-95961904D02*
X153259580Y-95914285D01*
X153259580Y-95914285D02*
X153307200Y-95866666D01*
X153307200Y-95866666D02*
X153354819Y-95771428D01*
X153354819Y-95771428D02*
X153354819Y-95485714D01*
X153354819Y-95485714D02*
X153307200Y-95390476D01*
X153307200Y-95390476D02*
X153259580Y-95342857D01*
X146659580Y-89333333D02*
X146707200Y-89285714D01*
X146707200Y-89285714D02*
X146754819Y-89142857D01*
X146754819Y-89142857D02*
X146754819Y-89047619D01*
X146754819Y-89047619D02*
X146707200Y-88904762D01*
X146707200Y-88904762D02*
X146611961Y-88809524D01*
X146611961Y-88809524D02*
X146516723Y-88761905D01*
X146516723Y-88761905D02*
X146326247Y-88714286D01*
X146326247Y-88714286D02*
X146183390Y-88714286D01*
X146183390Y-88714286D02*
X145992914Y-88761905D01*
X145992914Y-88761905D02*
X145897676Y-88809524D01*
X145897676Y-88809524D02*
X145802438Y-88904762D01*
X145802438Y-88904762D02*
X145754819Y-89047619D01*
X145754819Y-89047619D02*
X145754819Y-89142857D01*
X145754819Y-89142857D02*
X145802438Y-89285714D01*
X145802438Y-89285714D02*
X145850057Y-89333333D01*
X145754819Y-90190476D02*
X145754819Y-90000000D01*
X145754819Y-90000000D02*
X145802438Y-89904762D01*
X145802438Y-89904762D02*
X145850057Y-89857143D01*
X145850057Y-89857143D02*
X145992914Y-89761905D01*
X145992914Y-89761905D02*
X146183390Y-89714286D01*
X146183390Y-89714286D02*
X146564342Y-89714286D01*
X146564342Y-89714286D02*
X146659580Y-89761905D01*
X146659580Y-89761905D02*
X146707200Y-89809524D01*
X146707200Y-89809524D02*
X146754819Y-89904762D01*
X146754819Y-89904762D02*
X146754819Y-90095238D01*
X146754819Y-90095238D02*
X146707200Y-90190476D01*
X146707200Y-90190476D02*
X146659580Y-90238095D01*
X146659580Y-90238095D02*
X146564342Y-90285714D01*
X146564342Y-90285714D02*
X146326247Y-90285714D01*
X146326247Y-90285714D02*
X146231009Y-90238095D01*
X146231009Y-90238095D02*
X146183390Y-90190476D01*
X146183390Y-90190476D02*
X146135771Y-90095238D01*
X146135771Y-90095238D02*
X146135771Y-89904762D01*
X146135771Y-89904762D02*
X146183390Y-89809524D01*
X146183390Y-89809524D02*
X146231009Y-89761905D01*
X146231009Y-89761905D02*
X146326247Y-89714286D01*
X172608333Y-114847009D02*
X172941666Y-114847009D01*
X172941666Y-115370819D02*
X172941666Y-114370819D01*
X172941666Y-114370819D02*
X172465476Y-114370819D01*
X171751190Y-114847009D02*
X171608333Y-114894628D01*
X171608333Y-114894628D02*
X171560714Y-114942247D01*
X171560714Y-114942247D02*
X171513095Y-115037485D01*
X171513095Y-115037485D02*
X171513095Y-115180342D01*
X171513095Y-115180342D02*
X171560714Y-115275580D01*
X171560714Y-115275580D02*
X171608333Y-115323200D01*
X171608333Y-115323200D02*
X171703571Y-115370819D01*
X171703571Y-115370819D02*
X172084523Y-115370819D01*
X172084523Y-115370819D02*
X172084523Y-114370819D01*
X172084523Y-114370819D02*
X171751190Y-114370819D01*
X171751190Y-114370819D02*
X171655952Y-114418438D01*
X171655952Y-114418438D02*
X171608333Y-114466057D01*
X171608333Y-114466057D02*
X171560714Y-114561295D01*
X171560714Y-114561295D02*
X171560714Y-114656533D01*
X171560714Y-114656533D02*
X171608333Y-114751771D01*
X171608333Y-114751771D02*
X171655952Y-114799390D01*
X171655952Y-114799390D02*
X171751190Y-114847009D01*
X171751190Y-114847009D02*
X172084523Y-114847009D01*
X171179761Y-114370819D02*
X170560714Y-114370819D01*
X170560714Y-114370819D02*
X170894047Y-114751771D01*
X170894047Y-114751771D02*
X170751190Y-114751771D01*
X170751190Y-114751771D02*
X170655952Y-114799390D01*
X170655952Y-114799390D02*
X170608333Y-114847009D01*
X170608333Y-114847009D02*
X170560714Y-114942247D01*
X170560714Y-114942247D02*
X170560714Y-115180342D01*
X170560714Y-115180342D02*
X170608333Y-115275580D01*
X170608333Y-115275580D02*
X170655952Y-115323200D01*
X170655952Y-115323200D02*
X170751190Y-115370819D01*
X170751190Y-115370819D02*
X171036904Y-115370819D01*
X171036904Y-115370819D02*
X171132142Y-115323200D01*
X171132142Y-115323200D02*
X171179761Y-115275580D01*
X171404580Y-111823142D02*
X171452200Y-111775523D01*
X171452200Y-111775523D02*
X171499819Y-111632666D01*
X171499819Y-111632666D02*
X171499819Y-111537428D01*
X171499819Y-111537428D02*
X171452200Y-111394571D01*
X171452200Y-111394571D02*
X171356961Y-111299333D01*
X171356961Y-111299333D02*
X171261723Y-111251714D01*
X171261723Y-111251714D02*
X171071247Y-111204095D01*
X171071247Y-111204095D02*
X170928390Y-111204095D01*
X170928390Y-111204095D02*
X170737914Y-111251714D01*
X170737914Y-111251714D02*
X170642676Y-111299333D01*
X170642676Y-111299333D02*
X170547438Y-111394571D01*
X170547438Y-111394571D02*
X170499819Y-111537428D01*
X170499819Y-111537428D02*
X170499819Y-111632666D01*
X170499819Y-111632666D02*
X170547438Y-111775523D01*
X170547438Y-111775523D02*
X170595057Y-111823142D01*
X171499819Y-112775523D02*
X171499819Y-112204095D01*
X171499819Y-112489809D02*
X170499819Y-112489809D01*
X170499819Y-112489809D02*
X170642676Y-112394571D01*
X170642676Y-112394571D02*
X170737914Y-112299333D01*
X170737914Y-112299333D02*
X170785533Y-112204095D01*
X170499819Y-113680285D02*
X170499819Y-113204095D01*
X170499819Y-113204095D02*
X170976009Y-113156476D01*
X170976009Y-113156476D02*
X170928390Y-113204095D01*
X170928390Y-113204095D02*
X170880771Y-113299333D01*
X170880771Y-113299333D02*
X170880771Y-113537428D01*
X170880771Y-113537428D02*
X170928390Y-113632666D01*
X170928390Y-113632666D02*
X170976009Y-113680285D01*
X170976009Y-113680285D02*
X171071247Y-113727904D01*
X171071247Y-113727904D02*
X171309342Y-113727904D01*
X171309342Y-113727904D02*
X171404580Y-113680285D01*
X171404580Y-113680285D02*
X171452200Y-113632666D01*
X171452200Y-113632666D02*
X171499819Y-113537428D01*
X171499819Y-113537428D02*
X171499819Y-113299333D01*
X171499819Y-113299333D02*
X171452200Y-113204095D01*
X171452200Y-113204095D02*
X171404580Y-113156476D01*
X157959580Y-104833333D02*
X158007200Y-104785714D01*
X158007200Y-104785714D02*
X158054819Y-104642857D01*
X158054819Y-104642857D02*
X158054819Y-104547619D01*
X158054819Y-104547619D02*
X158007200Y-104404762D01*
X158007200Y-104404762D02*
X157911961Y-104309524D01*
X157911961Y-104309524D02*
X157816723Y-104261905D01*
X157816723Y-104261905D02*
X157626247Y-104214286D01*
X157626247Y-104214286D02*
X157483390Y-104214286D01*
X157483390Y-104214286D02*
X157292914Y-104261905D01*
X157292914Y-104261905D02*
X157197676Y-104309524D01*
X157197676Y-104309524D02*
X157102438Y-104404762D01*
X157102438Y-104404762D02*
X157054819Y-104547619D01*
X157054819Y-104547619D02*
X157054819Y-104642857D01*
X157054819Y-104642857D02*
X157102438Y-104785714D01*
X157102438Y-104785714D02*
X157150057Y-104833333D01*
X158054819Y-105833333D02*
X157578628Y-105500000D01*
X158054819Y-105261905D02*
X157054819Y-105261905D01*
X157054819Y-105261905D02*
X157054819Y-105642857D01*
X157054819Y-105642857D02*
X157102438Y-105738095D01*
X157102438Y-105738095D02*
X157150057Y-105785714D01*
X157150057Y-105785714D02*
X157245295Y-105833333D01*
X157245295Y-105833333D02*
X157388152Y-105833333D01*
X157388152Y-105833333D02*
X157483390Y-105785714D01*
X157483390Y-105785714D02*
X157531009Y-105738095D01*
X157531009Y-105738095D02*
X157578628Y-105642857D01*
X157578628Y-105642857D02*
X157578628Y-105261905D01*
X157150057Y-106214286D02*
X157102438Y-106261905D01*
X157102438Y-106261905D02*
X157054819Y-106357143D01*
X157054819Y-106357143D02*
X157054819Y-106595238D01*
X157054819Y-106595238D02*
X157102438Y-106690476D01*
X157102438Y-106690476D02*
X157150057Y-106738095D01*
X157150057Y-106738095D02*
X157245295Y-106785714D01*
X157245295Y-106785714D02*
X157340533Y-106785714D01*
X157340533Y-106785714D02*
X157483390Y-106738095D01*
X157483390Y-106738095D02*
X158054819Y-106166667D01*
X158054819Y-106166667D02*
X158054819Y-106785714D01*
X136154819Y-86738095D02*
X136964342Y-86738095D01*
X136964342Y-86738095D02*
X137059580Y-86785714D01*
X137059580Y-86785714D02*
X137107200Y-86833333D01*
X137107200Y-86833333D02*
X137154819Y-86928571D01*
X137154819Y-86928571D02*
X137154819Y-87119047D01*
X137154819Y-87119047D02*
X137107200Y-87214285D01*
X137107200Y-87214285D02*
X137059580Y-87261904D01*
X137059580Y-87261904D02*
X136964342Y-87309523D01*
X136964342Y-87309523D02*
X136154819Y-87309523D01*
X136488152Y-88214285D02*
X137154819Y-88214285D01*
X136107200Y-87976190D02*
X136821485Y-87738095D01*
X136821485Y-87738095D02*
X136821485Y-88357142D01*
X144954819Y-79533333D02*
X144478628Y-79200000D01*
X144954819Y-78961905D02*
X143954819Y-78961905D01*
X143954819Y-78961905D02*
X143954819Y-79342857D01*
X143954819Y-79342857D02*
X144002438Y-79438095D01*
X144002438Y-79438095D02*
X144050057Y-79485714D01*
X144050057Y-79485714D02*
X144145295Y-79533333D01*
X144145295Y-79533333D02*
X144288152Y-79533333D01*
X144288152Y-79533333D02*
X144383390Y-79485714D01*
X144383390Y-79485714D02*
X144431009Y-79438095D01*
X144431009Y-79438095D02*
X144478628Y-79342857D01*
X144478628Y-79342857D02*
X144478628Y-78961905D01*
X144954819Y-80009524D02*
X144954819Y-80200000D01*
X144954819Y-80200000D02*
X144907200Y-80295238D01*
X144907200Y-80295238D02*
X144859580Y-80342857D01*
X144859580Y-80342857D02*
X144716723Y-80438095D01*
X144716723Y-80438095D02*
X144526247Y-80485714D01*
X144526247Y-80485714D02*
X144145295Y-80485714D01*
X144145295Y-80485714D02*
X144050057Y-80438095D01*
X144050057Y-80438095D02*
X144002438Y-80390476D01*
X144002438Y-80390476D02*
X143954819Y-80295238D01*
X143954819Y-80295238D02*
X143954819Y-80104762D01*
X143954819Y-80104762D02*
X144002438Y-80009524D01*
X144002438Y-80009524D02*
X144050057Y-79961905D01*
X144050057Y-79961905D02*
X144145295Y-79914286D01*
X144145295Y-79914286D02*
X144383390Y-79914286D01*
X144383390Y-79914286D02*
X144478628Y-79961905D01*
X144478628Y-79961905D02*
X144526247Y-80009524D01*
X144526247Y-80009524D02*
X144573866Y-80104762D01*
X144573866Y-80104762D02*
X144573866Y-80295238D01*
X144573866Y-80295238D02*
X144526247Y-80390476D01*
X144526247Y-80390476D02*
X144478628Y-80438095D01*
X144478628Y-80438095D02*
X144383390Y-80485714D01*
X161954819Y-110597142D02*
X161478628Y-110263809D01*
X161954819Y-110025714D02*
X160954819Y-110025714D01*
X160954819Y-110025714D02*
X160954819Y-110406666D01*
X160954819Y-110406666D02*
X161002438Y-110501904D01*
X161002438Y-110501904D02*
X161050057Y-110549523D01*
X161050057Y-110549523D02*
X161145295Y-110597142D01*
X161145295Y-110597142D02*
X161288152Y-110597142D01*
X161288152Y-110597142D02*
X161383390Y-110549523D01*
X161383390Y-110549523D02*
X161431009Y-110501904D01*
X161431009Y-110501904D02*
X161478628Y-110406666D01*
X161478628Y-110406666D02*
X161478628Y-110025714D01*
X161050057Y-110978095D02*
X161002438Y-111025714D01*
X161002438Y-111025714D02*
X160954819Y-111120952D01*
X160954819Y-111120952D02*
X160954819Y-111359047D01*
X160954819Y-111359047D02*
X161002438Y-111454285D01*
X161002438Y-111454285D02*
X161050057Y-111501904D01*
X161050057Y-111501904D02*
X161145295Y-111549523D01*
X161145295Y-111549523D02*
X161240533Y-111549523D01*
X161240533Y-111549523D02*
X161383390Y-111501904D01*
X161383390Y-111501904D02*
X161954819Y-110930476D01*
X161954819Y-110930476D02*
X161954819Y-111549523D01*
X161954819Y-112501904D02*
X161954819Y-111930476D01*
X161954819Y-112216190D02*
X160954819Y-112216190D01*
X160954819Y-112216190D02*
X161097676Y-112120952D01*
X161097676Y-112120952D02*
X161192914Y-112025714D01*
X161192914Y-112025714D02*
X161240533Y-111930476D01*
X151259580Y-104433333D02*
X151307200Y-104385714D01*
X151307200Y-104385714D02*
X151354819Y-104242857D01*
X151354819Y-104242857D02*
X151354819Y-104147619D01*
X151354819Y-104147619D02*
X151307200Y-104004762D01*
X151307200Y-104004762D02*
X151211961Y-103909524D01*
X151211961Y-103909524D02*
X151116723Y-103861905D01*
X151116723Y-103861905D02*
X150926247Y-103814286D01*
X150926247Y-103814286D02*
X150783390Y-103814286D01*
X150783390Y-103814286D02*
X150592914Y-103861905D01*
X150592914Y-103861905D02*
X150497676Y-103909524D01*
X150497676Y-103909524D02*
X150402438Y-104004762D01*
X150402438Y-104004762D02*
X150354819Y-104147619D01*
X150354819Y-104147619D02*
X150354819Y-104242857D01*
X150354819Y-104242857D02*
X150402438Y-104385714D01*
X150402438Y-104385714D02*
X150450057Y-104433333D01*
X150354819Y-104766667D02*
X150354819Y-105385714D01*
X150354819Y-105385714D02*
X150735771Y-105052381D01*
X150735771Y-105052381D02*
X150735771Y-105195238D01*
X150735771Y-105195238D02*
X150783390Y-105290476D01*
X150783390Y-105290476D02*
X150831009Y-105338095D01*
X150831009Y-105338095D02*
X150926247Y-105385714D01*
X150926247Y-105385714D02*
X151164342Y-105385714D01*
X151164342Y-105385714D02*
X151259580Y-105338095D01*
X151259580Y-105338095D02*
X151307200Y-105290476D01*
X151307200Y-105290476D02*
X151354819Y-105195238D01*
X151354819Y-105195238D02*
X151354819Y-104909524D01*
X151354819Y-104909524D02*
X151307200Y-104814286D01*
X151307200Y-104814286D02*
X151259580Y-104766667D01*
X140496666Y-94109580D02*
X140544285Y-94157200D01*
X140544285Y-94157200D02*
X140687142Y-94204819D01*
X140687142Y-94204819D02*
X140782380Y-94204819D01*
X140782380Y-94204819D02*
X140925237Y-94157200D01*
X140925237Y-94157200D02*
X141020475Y-94061961D01*
X141020475Y-94061961D02*
X141068094Y-93966723D01*
X141068094Y-93966723D02*
X141115713Y-93776247D01*
X141115713Y-93776247D02*
X141115713Y-93633390D01*
X141115713Y-93633390D02*
X141068094Y-93442914D01*
X141068094Y-93442914D02*
X141020475Y-93347676D01*
X141020475Y-93347676D02*
X140925237Y-93252438D01*
X140925237Y-93252438D02*
X140782380Y-93204819D01*
X140782380Y-93204819D02*
X140687142Y-93204819D01*
X140687142Y-93204819D02*
X140544285Y-93252438D01*
X140544285Y-93252438D02*
X140496666Y-93300057D01*
X139925237Y-93633390D02*
X140020475Y-93585771D01*
X140020475Y-93585771D02*
X140068094Y-93538152D01*
X140068094Y-93538152D02*
X140115713Y-93442914D01*
X140115713Y-93442914D02*
X140115713Y-93395295D01*
X140115713Y-93395295D02*
X140068094Y-93300057D01*
X140068094Y-93300057D02*
X140020475Y-93252438D01*
X140020475Y-93252438D02*
X139925237Y-93204819D01*
X139925237Y-93204819D02*
X139734761Y-93204819D01*
X139734761Y-93204819D02*
X139639523Y-93252438D01*
X139639523Y-93252438D02*
X139591904Y-93300057D01*
X139591904Y-93300057D02*
X139544285Y-93395295D01*
X139544285Y-93395295D02*
X139544285Y-93442914D01*
X139544285Y-93442914D02*
X139591904Y-93538152D01*
X139591904Y-93538152D02*
X139639523Y-93585771D01*
X139639523Y-93585771D02*
X139734761Y-93633390D01*
X139734761Y-93633390D02*
X139925237Y-93633390D01*
X139925237Y-93633390D02*
X140020475Y-93681009D01*
X140020475Y-93681009D02*
X140068094Y-93728628D01*
X140068094Y-93728628D02*
X140115713Y-93823866D01*
X140115713Y-93823866D02*
X140115713Y-94014342D01*
X140115713Y-94014342D02*
X140068094Y-94109580D01*
X140068094Y-94109580D02*
X140020475Y-94157200D01*
X140020475Y-94157200D02*
X139925237Y-94204819D01*
X139925237Y-94204819D02*
X139734761Y-94204819D01*
X139734761Y-94204819D02*
X139639523Y-94157200D01*
X139639523Y-94157200D02*
X139591904Y-94109580D01*
X139591904Y-94109580D02*
X139544285Y-94014342D01*
X139544285Y-94014342D02*
X139544285Y-93823866D01*
X139544285Y-93823866D02*
X139591904Y-93728628D01*
X139591904Y-93728628D02*
X139639523Y-93681009D01*
X139639523Y-93681009D02*
X139734761Y-93633390D01*
X156254819Y-93257142D02*
X155778628Y-92923809D01*
X156254819Y-92685714D02*
X155254819Y-92685714D01*
X155254819Y-92685714D02*
X155254819Y-93066666D01*
X155254819Y-93066666D02*
X155302438Y-93161904D01*
X155302438Y-93161904D02*
X155350057Y-93209523D01*
X155350057Y-93209523D02*
X155445295Y-93257142D01*
X155445295Y-93257142D02*
X155588152Y-93257142D01*
X155588152Y-93257142D02*
X155683390Y-93209523D01*
X155683390Y-93209523D02*
X155731009Y-93161904D01*
X155731009Y-93161904D02*
X155778628Y-93066666D01*
X155778628Y-93066666D02*
X155778628Y-92685714D01*
X156254819Y-94209523D02*
X156254819Y-93638095D01*
X156254819Y-93923809D02*
X155254819Y-93923809D01*
X155254819Y-93923809D02*
X155397676Y-93828571D01*
X155397676Y-93828571D02*
X155492914Y-93733333D01*
X155492914Y-93733333D02*
X155540533Y-93638095D01*
X155350057Y-94590476D02*
X155302438Y-94638095D01*
X155302438Y-94638095D02*
X155254819Y-94733333D01*
X155254819Y-94733333D02*
X155254819Y-94971428D01*
X155254819Y-94971428D02*
X155302438Y-95066666D01*
X155302438Y-95066666D02*
X155350057Y-95114285D01*
X155350057Y-95114285D02*
X155445295Y-95161904D01*
X155445295Y-95161904D02*
X155540533Y-95161904D01*
X155540533Y-95161904D02*
X155683390Y-95114285D01*
X155683390Y-95114285D02*
X156254819Y-94542857D01*
X156254819Y-94542857D02*
X156254819Y-95161904D01*
X157716666Y-88944819D02*
X158049999Y-88468628D01*
X158288094Y-88944819D02*
X158288094Y-87944819D01*
X158288094Y-87944819D02*
X157907142Y-87944819D01*
X157907142Y-87944819D02*
X157811904Y-87992438D01*
X157811904Y-87992438D02*
X157764285Y-88040057D01*
X157764285Y-88040057D02*
X157716666Y-88135295D01*
X157716666Y-88135295D02*
X157716666Y-88278152D01*
X157716666Y-88278152D02*
X157764285Y-88373390D01*
X157764285Y-88373390D02*
X157811904Y-88421009D01*
X157811904Y-88421009D02*
X157907142Y-88468628D01*
X157907142Y-88468628D02*
X158288094Y-88468628D01*
X157335713Y-88040057D02*
X157288094Y-87992438D01*
X157288094Y-87992438D02*
X157192856Y-87944819D01*
X157192856Y-87944819D02*
X156954761Y-87944819D01*
X156954761Y-87944819D02*
X156859523Y-87992438D01*
X156859523Y-87992438D02*
X156811904Y-88040057D01*
X156811904Y-88040057D02*
X156764285Y-88135295D01*
X156764285Y-88135295D02*
X156764285Y-88230533D01*
X156764285Y-88230533D02*
X156811904Y-88373390D01*
X156811904Y-88373390D02*
X157383332Y-88944819D01*
X157383332Y-88944819D02*
X156764285Y-88944819D01*
X161142857Y-106059580D02*
X161190476Y-106107200D01*
X161190476Y-106107200D02*
X161333333Y-106154819D01*
X161333333Y-106154819D02*
X161428571Y-106154819D01*
X161428571Y-106154819D02*
X161571428Y-106107200D01*
X161571428Y-106107200D02*
X161666666Y-106011961D01*
X161666666Y-106011961D02*
X161714285Y-105916723D01*
X161714285Y-105916723D02*
X161761904Y-105726247D01*
X161761904Y-105726247D02*
X161761904Y-105583390D01*
X161761904Y-105583390D02*
X161714285Y-105392914D01*
X161714285Y-105392914D02*
X161666666Y-105297676D01*
X161666666Y-105297676D02*
X161571428Y-105202438D01*
X161571428Y-105202438D02*
X161428571Y-105154819D01*
X161428571Y-105154819D02*
X161333333Y-105154819D01*
X161333333Y-105154819D02*
X161190476Y-105202438D01*
X161190476Y-105202438D02*
X161142857Y-105250057D01*
X160190476Y-106154819D02*
X160761904Y-106154819D01*
X160476190Y-106154819D02*
X160476190Y-105154819D01*
X160476190Y-105154819D02*
X160571428Y-105297676D01*
X160571428Y-105297676D02*
X160666666Y-105392914D01*
X160666666Y-105392914D02*
X160761904Y-105440533D01*
X159238095Y-106154819D02*
X159809523Y-106154819D01*
X159523809Y-106154819D02*
X159523809Y-105154819D01*
X159523809Y-105154819D02*
X159619047Y-105297676D01*
X159619047Y-105297676D02*
X159714285Y-105392914D01*
X159714285Y-105392914D02*
X159809523Y-105440533D01*
X157359580Y-93257142D02*
X157407200Y-93209523D01*
X157407200Y-93209523D02*
X157454819Y-93066666D01*
X157454819Y-93066666D02*
X157454819Y-92971428D01*
X157454819Y-92971428D02*
X157407200Y-92828571D01*
X157407200Y-92828571D02*
X157311961Y-92733333D01*
X157311961Y-92733333D02*
X157216723Y-92685714D01*
X157216723Y-92685714D02*
X157026247Y-92638095D01*
X157026247Y-92638095D02*
X156883390Y-92638095D01*
X156883390Y-92638095D02*
X156692914Y-92685714D01*
X156692914Y-92685714D02*
X156597676Y-92733333D01*
X156597676Y-92733333D02*
X156502438Y-92828571D01*
X156502438Y-92828571D02*
X156454819Y-92971428D01*
X156454819Y-92971428D02*
X156454819Y-93066666D01*
X156454819Y-93066666D02*
X156502438Y-93209523D01*
X156502438Y-93209523D02*
X156550057Y-93257142D01*
X157454819Y-94209523D02*
X157454819Y-93638095D01*
X157454819Y-93923809D02*
X156454819Y-93923809D01*
X156454819Y-93923809D02*
X156597676Y-93828571D01*
X156597676Y-93828571D02*
X156692914Y-93733333D01*
X156692914Y-93733333D02*
X156740533Y-93638095D01*
X156550057Y-94590476D02*
X156502438Y-94638095D01*
X156502438Y-94638095D02*
X156454819Y-94733333D01*
X156454819Y-94733333D02*
X156454819Y-94971428D01*
X156454819Y-94971428D02*
X156502438Y-95066666D01*
X156502438Y-95066666D02*
X156550057Y-95114285D01*
X156550057Y-95114285D02*
X156645295Y-95161904D01*
X156645295Y-95161904D02*
X156740533Y-95161904D01*
X156740533Y-95161904D02*
X156883390Y-95114285D01*
X156883390Y-95114285D02*
X157454819Y-94542857D01*
X157454819Y-94542857D02*
X157454819Y-95161904D01*
X157766666Y-90304819D02*
X158099999Y-89828628D01*
X158338094Y-90304819D02*
X158338094Y-89304819D01*
X158338094Y-89304819D02*
X157957142Y-89304819D01*
X157957142Y-89304819D02*
X157861904Y-89352438D01*
X157861904Y-89352438D02*
X157814285Y-89400057D01*
X157814285Y-89400057D02*
X157766666Y-89495295D01*
X157766666Y-89495295D02*
X157766666Y-89638152D01*
X157766666Y-89638152D02*
X157814285Y-89733390D01*
X157814285Y-89733390D02*
X157861904Y-89781009D01*
X157861904Y-89781009D02*
X157957142Y-89828628D01*
X157957142Y-89828628D02*
X158338094Y-89828628D01*
X157433332Y-89304819D02*
X156814285Y-89304819D01*
X156814285Y-89304819D02*
X157147618Y-89685771D01*
X157147618Y-89685771D02*
X157004761Y-89685771D01*
X157004761Y-89685771D02*
X156909523Y-89733390D01*
X156909523Y-89733390D02*
X156861904Y-89781009D01*
X156861904Y-89781009D02*
X156814285Y-89876247D01*
X156814285Y-89876247D02*
X156814285Y-90114342D01*
X156814285Y-90114342D02*
X156861904Y-90209580D01*
X156861904Y-90209580D02*
X156909523Y-90257200D01*
X156909523Y-90257200D02*
X157004761Y-90304819D01*
X157004761Y-90304819D02*
X157290475Y-90304819D01*
X157290475Y-90304819D02*
X157385713Y-90257200D01*
X157385713Y-90257200D02*
X157433332Y-90209580D01*
X163054819Y-106457142D02*
X162578628Y-106123809D01*
X163054819Y-105885714D02*
X162054819Y-105885714D01*
X162054819Y-105885714D02*
X162054819Y-106266666D01*
X162054819Y-106266666D02*
X162102438Y-106361904D01*
X162102438Y-106361904D02*
X162150057Y-106409523D01*
X162150057Y-106409523D02*
X162245295Y-106457142D01*
X162245295Y-106457142D02*
X162388152Y-106457142D01*
X162388152Y-106457142D02*
X162483390Y-106409523D01*
X162483390Y-106409523D02*
X162531009Y-106361904D01*
X162531009Y-106361904D02*
X162578628Y-106266666D01*
X162578628Y-106266666D02*
X162578628Y-105885714D01*
X163054819Y-107409523D02*
X163054819Y-106838095D01*
X163054819Y-107123809D02*
X162054819Y-107123809D01*
X162054819Y-107123809D02*
X162197676Y-107028571D01*
X162197676Y-107028571D02*
X162292914Y-106933333D01*
X162292914Y-106933333D02*
X162340533Y-106838095D01*
X162388152Y-108266666D02*
X163054819Y-108266666D01*
X162007200Y-108028571D02*
X162721485Y-107790476D01*
X162721485Y-107790476D02*
X162721485Y-108409523D01*
X173233333Y-84964819D02*
X173233333Y-85679104D01*
X173233333Y-85679104D02*
X173280952Y-85821961D01*
X173280952Y-85821961D02*
X173376190Y-85917200D01*
X173376190Y-85917200D02*
X173519047Y-85964819D01*
X173519047Y-85964819D02*
X173614285Y-85964819D01*
X172328571Y-84964819D02*
X172519047Y-84964819D01*
X172519047Y-84964819D02*
X172614285Y-85012438D01*
X172614285Y-85012438D02*
X172661904Y-85060057D01*
X172661904Y-85060057D02*
X172757142Y-85202914D01*
X172757142Y-85202914D02*
X172804761Y-85393390D01*
X172804761Y-85393390D02*
X172804761Y-85774342D01*
X172804761Y-85774342D02*
X172757142Y-85869580D01*
X172757142Y-85869580D02*
X172709523Y-85917200D01*
X172709523Y-85917200D02*
X172614285Y-85964819D01*
X172614285Y-85964819D02*
X172423809Y-85964819D01*
X172423809Y-85964819D02*
X172328571Y-85917200D01*
X172328571Y-85917200D02*
X172280952Y-85869580D01*
X172280952Y-85869580D02*
X172233333Y-85774342D01*
X172233333Y-85774342D02*
X172233333Y-85536247D01*
X172233333Y-85536247D02*
X172280952Y-85441009D01*
X172280952Y-85441009D02*
X172328571Y-85393390D01*
X172328571Y-85393390D02*
X172423809Y-85345771D01*
X172423809Y-85345771D02*
X172614285Y-85345771D01*
X172614285Y-85345771D02*
X172709523Y-85393390D01*
X172709523Y-85393390D02*
X172757142Y-85441009D01*
X172757142Y-85441009D02*
X172804761Y-85536247D01*
X159754819Y-93638095D02*
X160564342Y-93638095D01*
X160564342Y-93638095D02*
X160659580Y-93685714D01*
X160659580Y-93685714D02*
X160707200Y-93733333D01*
X160707200Y-93733333D02*
X160754819Y-93828571D01*
X160754819Y-93828571D02*
X160754819Y-94019047D01*
X160754819Y-94019047D02*
X160707200Y-94114285D01*
X160707200Y-94114285D02*
X160659580Y-94161904D01*
X160659580Y-94161904D02*
X160564342Y-94209523D01*
X160564342Y-94209523D02*
X159754819Y-94209523D01*
X159754819Y-95114285D02*
X159754819Y-94923809D01*
X159754819Y-94923809D02*
X159802438Y-94828571D01*
X159802438Y-94828571D02*
X159850057Y-94780952D01*
X159850057Y-94780952D02*
X159992914Y-94685714D01*
X159992914Y-94685714D02*
X160183390Y-94638095D01*
X160183390Y-94638095D02*
X160564342Y-94638095D01*
X160564342Y-94638095D02*
X160659580Y-94685714D01*
X160659580Y-94685714D02*
X160707200Y-94733333D01*
X160707200Y-94733333D02*
X160754819Y-94828571D01*
X160754819Y-94828571D02*
X160754819Y-95019047D01*
X160754819Y-95019047D02*
X160707200Y-95114285D01*
X160707200Y-95114285D02*
X160659580Y-95161904D01*
X160659580Y-95161904D02*
X160564342Y-95209523D01*
X160564342Y-95209523D02*
X160326247Y-95209523D01*
X160326247Y-95209523D02*
X160231009Y-95161904D01*
X160231009Y-95161904D02*
X160183390Y-95114285D01*
X160183390Y-95114285D02*
X160135771Y-95019047D01*
X160135771Y-95019047D02*
X160135771Y-94828571D01*
X160135771Y-94828571D02*
X160183390Y-94733333D01*
X160183390Y-94733333D02*
X160231009Y-94685714D01*
X160231009Y-94685714D02*
X160326247Y-94638095D01*
X168054819Y-101357142D02*
X167578628Y-101023809D01*
X168054819Y-100785714D02*
X167054819Y-100785714D01*
X167054819Y-100785714D02*
X167054819Y-101166666D01*
X167054819Y-101166666D02*
X167102438Y-101261904D01*
X167102438Y-101261904D02*
X167150057Y-101309523D01*
X167150057Y-101309523D02*
X167245295Y-101357142D01*
X167245295Y-101357142D02*
X167388152Y-101357142D01*
X167388152Y-101357142D02*
X167483390Y-101309523D01*
X167483390Y-101309523D02*
X167531009Y-101261904D01*
X167531009Y-101261904D02*
X167578628Y-101166666D01*
X167578628Y-101166666D02*
X167578628Y-100785714D01*
X168054819Y-102309523D02*
X168054819Y-101738095D01*
X168054819Y-102023809D02*
X167054819Y-102023809D01*
X167054819Y-102023809D02*
X167197676Y-101928571D01*
X167197676Y-101928571D02*
X167292914Y-101833333D01*
X167292914Y-101833333D02*
X167340533Y-101738095D01*
X168054819Y-103261904D02*
X168054819Y-102690476D01*
X168054819Y-102976190D02*
X167054819Y-102976190D01*
X167054819Y-102976190D02*
X167197676Y-102880952D01*
X167197676Y-102880952D02*
X167292914Y-102785714D01*
X167292914Y-102785714D02*
X167340533Y-102690476D01*
X164754819Y-110567142D02*
X164278628Y-110233809D01*
X164754819Y-109995714D02*
X163754819Y-109995714D01*
X163754819Y-109995714D02*
X163754819Y-110376666D01*
X163754819Y-110376666D02*
X163802438Y-110471904D01*
X163802438Y-110471904D02*
X163850057Y-110519523D01*
X163850057Y-110519523D02*
X163945295Y-110567142D01*
X163945295Y-110567142D02*
X164088152Y-110567142D01*
X164088152Y-110567142D02*
X164183390Y-110519523D01*
X164183390Y-110519523D02*
X164231009Y-110471904D01*
X164231009Y-110471904D02*
X164278628Y-110376666D01*
X164278628Y-110376666D02*
X164278628Y-109995714D01*
X164754819Y-111519523D02*
X164754819Y-110948095D01*
X164754819Y-111233809D02*
X163754819Y-111233809D01*
X163754819Y-111233809D02*
X163897676Y-111138571D01*
X163897676Y-111138571D02*
X163992914Y-111043333D01*
X163992914Y-111043333D02*
X164040533Y-110948095D01*
X163754819Y-111852857D02*
X163754819Y-112519523D01*
X163754819Y-112519523D02*
X164754819Y-112090952D01*
X168566666Y-123959580D02*
X168614285Y-124007200D01*
X168614285Y-124007200D02*
X168757142Y-124054819D01*
X168757142Y-124054819D02*
X168852380Y-124054819D01*
X168852380Y-124054819D02*
X168995237Y-124007200D01*
X168995237Y-124007200D02*
X169090475Y-123911961D01*
X169090475Y-123911961D02*
X169138094Y-123816723D01*
X169138094Y-123816723D02*
X169185713Y-123626247D01*
X169185713Y-123626247D02*
X169185713Y-123483390D01*
X169185713Y-123483390D02*
X169138094Y-123292914D01*
X169138094Y-123292914D02*
X169090475Y-123197676D01*
X169090475Y-123197676D02*
X168995237Y-123102438D01*
X168995237Y-123102438D02*
X168852380Y-123054819D01*
X168852380Y-123054819D02*
X168757142Y-123054819D01*
X168757142Y-123054819D02*
X168614285Y-123102438D01*
X168614285Y-123102438D02*
X168566666Y-123150057D01*
X167566666Y-124054819D02*
X167899999Y-123578628D01*
X168138094Y-124054819D02*
X168138094Y-123054819D01*
X168138094Y-123054819D02*
X167757142Y-123054819D01*
X167757142Y-123054819D02*
X167661904Y-123102438D01*
X167661904Y-123102438D02*
X167614285Y-123150057D01*
X167614285Y-123150057D02*
X167566666Y-123245295D01*
X167566666Y-123245295D02*
X167566666Y-123388152D01*
X167566666Y-123388152D02*
X167614285Y-123483390D01*
X167614285Y-123483390D02*
X167661904Y-123531009D01*
X167661904Y-123531009D02*
X167757142Y-123578628D01*
X167757142Y-123578628D02*
X168138094Y-123578628D01*
X166614285Y-124054819D02*
X167185713Y-124054819D01*
X166899999Y-124054819D02*
X166899999Y-123054819D01*
X166899999Y-123054819D02*
X166995237Y-123197676D01*
X166995237Y-123197676D02*
X167090475Y-123292914D01*
X167090475Y-123292914D02*
X167185713Y-123340533D01*
X158754819Y-93257142D02*
X158278628Y-92923809D01*
X158754819Y-92685714D02*
X157754819Y-92685714D01*
X157754819Y-92685714D02*
X157754819Y-93066666D01*
X157754819Y-93066666D02*
X157802438Y-93161904D01*
X157802438Y-93161904D02*
X157850057Y-93209523D01*
X157850057Y-93209523D02*
X157945295Y-93257142D01*
X157945295Y-93257142D02*
X158088152Y-93257142D01*
X158088152Y-93257142D02*
X158183390Y-93209523D01*
X158183390Y-93209523D02*
X158231009Y-93161904D01*
X158231009Y-93161904D02*
X158278628Y-93066666D01*
X158278628Y-93066666D02*
X158278628Y-92685714D01*
X158754819Y-94209523D02*
X158754819Y-93638095D01*
X158754819Y-93923809D02*
X157754819Y-93923809D01*
X157754819Y-93923809D02*
X157897676Y-93828571D01*
X157897676Y-93828571D02*
X157992914Y-93733333D01*
X157992914Y-93733333D02*
X158040533Y-93638095D01*
X157754819Y-94542857D02*
X157754819Y-95161904D01*
X157754819Y-95161904D02*
X158135771Y-94828571D01*
X158135771Y-94828571D02*
X158135771Y-94971428D01*
X158135771Y-94971428D02*
X158183390Y-95066666D01*
X158183390Y-95066666D02*
X158231009Y-95114285D01*
X158231009Y-95114285D02*
X158326247Y-95161904D01*
X158326247Y-95161904D02*
X158564342Y-95161904D01*
X158564342Y-95161904D02*
X158659580Y-95114285D01*
X158659580Y-95114285D02*
X158707200Y-95066666D01*
X158707200Y-95066666D02*
X158754819Y-94971428D01*
X158754819Y-94971428D02*
X158754819Y-94685714D01*
X158754819Y-94685714D02*
X158707200Y-94590476D01*
X158707200Y-94590476D02*
X158659580Y-94542857D01*
X155359580Y-104933333D02*
X155407200Y-104885714D01*
X155407200Y-104885714D02*
X155454819Y-104742857D01*
X155454819Y-104742857D02*
X155454819Y-104647619D01*
X155454819Y-104647619D02*
X155407200Y-104504762D01*
X155407200Y-104504762D02*
X155311961Y-104409524D01*
X155311961Y-104409524D02*
X155216723Y-104361905D01*
X155216723Y-104361905D02*
X155026247Y-104314286D01*
X155026247Y-104314286D02*
X154883390Y-104314286D01*
X154883390Y-104314286D02*
X154692914Y-104361905D01*
X154692914Y-104361905D02*
X154597676Y-104409524D01*
X154597676Y-104409524D02*
X154502438Y-104504762D01*
X154502438Y-104504762D02*
X154454819Y-104647619D01*
X154454819Y-104647619D02*
X154454819Y-104742857D01*
X154454819Y-104742857D02*
X154502438Y-104885714D01*
X154502438Y-104885714D02*
X154550057Y-104933333D01*
X155454819Y-105933333D02*
X154978628Y-105600000D01*
X155454819Y-105361905D02*
X154454819Y-105361905D01*
X154454819Y-105361905D02*
X154454819Y-105742857D01*
X154454819Y-105742857D02*
X154502438Y-105838095D01*
X154502438Y-105838095D02*
X154550057Y-105885714D01*
X154550057Y-105885714D02*
X154645295Y-105933333D01*
X154645295Y-105933333D02*
X154788152Y-105933333D01*
X154788152Y-105933333D02*
X154883390Y-105885714D01*
X154883390Y-105885714D02*
X154931009Y-105838095D01*
X154931009Y-105838095D02*
X154978628Y-105742857D01*
X154978628Y-105742857D02*
X154978628Y-105361905D01*
X154454819Y-106266667D02*
X154454819Y-106885714D01*
X154454819Y-106885714D02*
X154835771Y-106552381D01*
X154835771Y-106552381D02*
X154835771Y-106695238D01*
X154835771Y-106695238D02*
X154883390Y-106790476D01*
X154883390Y-106790476D02*
X154931009Y-106838095D01*
X154931009Y-106838095D02*
X155026247Y-106885714D01*
X155026247Y-106885714D02*
X155264342Y-106885714D01*
X155264342Y-106885714D02*
X155359580Y-106838095D01*
X155359580Y-106838095D02*
X155407200Y-106790476D01*
X155407200Y-106790476D02*
X155454819Y-106695238D01*
X155454819Y-106695238D02*
X155454819Y-106409524D01*
X155454819Y-106409524D02*
X155407200Y-106314286D01*
X155407200Y-106314286D02*
X155359580Y-106266667D01*
X150561904Y-120207200D02*
X150419047Y-120254819D01*
X150419047Y-120254819D02*
X150180952Y-120254819D01*
X150180952Y-120254819D02*
X150085714Y-120207200D01*
X150085714Y-120207200D02*
X150038095Y-120159580D01*
X150038095Y-120159580D02*
X149990476Y-120064342D01*
X149990476Y-120064342D02*
X149990476Y-119969104D01*
X149990476Y-119969104D02*
X150038095Y-119873866D01*
X150038095Y-119873866D02*
X150085714Y-119826247D01*
X150085714Y-119826247D02*
X150180952Y-119778628D01*
X150180952Y-119778628D02*
X150371428Y-119731009D01*
X150371428Y-119731009D02*
X150466666Y-119683390D01*
X150466666Y-119683390D02*
X150514285Y-119635771D01*
X150514285Y-119635771D02*
X150561904Y-119540533D01*
X150561904Y-119540533D02*
X150561904Y-119445295D01*
X150561904Y-119445295D02*
X150514285Y-119350057D01*
X150514285Y-119350057D02*
X150466666Y-119302438D01*
X150466666Y-119302438D02*
X150371428Y-119254819D01*
X150371428Y-119254819D02*
X150133333Y-119254819D01*
X150133333Y-119254819D02*
X149990476Y-119302438D01*
X149038095Y-120254819D02*
X149609523Y-120254819D01*
X149323809Y-120254819D02*
X149323809Y-119254819D01*
X149323809Y-119254819D02*
X149419047Y-119397676D01*
X149419047Y-119397676D02*
X149514285Y-119492914D01*
X149514285Y-119492914D02*
X149609523Y-119540533D01*
X154633333Y-96931009D02*
X154966666Y-96931009D01*
X154966666Y-97454819D02*
X154966666Y-96454819D01*
X154966666Y-96454819D02*
X154490476Y-96454819D01*
X153776190Y-96931009D02*
X153633333Y-96978628D01*
X153633333Y-96978628D02*
X153585714Y-97026247D01*
X153585714Y-97026247D02*
X153538095Y-97121485D01*
X153538095Y-97121485D02*
X153538095Y-97264342D01*
X153538095Y-97264342D02*
X153585714Y-97359580D01*
X153585714Y-97359580D02*
X153633333Y-97407200D01*
X153633333Y-97407200D02*
X153728571Y-97454819D01*
X153728571Y-97454819D02*
X154109523Y-97454819D01*
X154109523Y-97454819D02*
X154109523Y-96454819D01*
X154109523Y-96454819D02*
X153776190Y-96454819D01*
X153776190Y-96454819D02*
X153680952Y-96502438D01*
X153680952Y-96502438D02*
X153633333Y-96550057D01*
X153633333Y-96550057D02*
X153585714Y-96645295D01*
X153585714Y-96645295D02*
X153585714Y-96740533D01*
X153585714Y-96740533D02*
X153633333Y-96835771D01*
X153633333Y-96835771D02*
X153680952Y-96883390D01*
X153680952Y-96883390D02*
X153776190Y-96931009D01*
X153776190Y-96931009D02*
X154109523Y-96931009D01*
X152680952Y-96788152D02*
X152680952Y-97454819D01*
X152919047Y-96407200D02*
X153157142Y-97121485D01*
X153157142Y-97121485D02*
X152538095Y-97121485D01*
X165754819Y-116261905D02*
X166564342Y-116261905D01*
X166564342Y-116261905D02*
X166659580Y-116309524D01*
X166659580Y-116309524D02*
X166707200Y-116357143D01*
X166707200Y-116357143D02*
X166754819Y-116452381D01*
X166754819Y-116452381D02*
X166754819Y-116642857D01*
X166754819Y-116642857D02*
X166707200Y-116738095D01*
X166707200Y-116738095D02*
X166659580Y-116785714D01*
X166659580Y-116785714D02*
X166564342Y-116833333D01*
X166564342Y-116833333D02*
X165754819Y-116833333D01*
X166754819Y-117833333D02*
X166754819Y-117261905D01*
X166754819Y-117547619D02*
X165754819Y-117547619D01*
X165754819Y-117547619D02*
X165897676Y-117452381D01*
X165897676Y-117452381D02*
X165992914Y-117357143D01*
X165992914Y-117357143D02*
X166040533Y-117261905D01*
X165850057Y-118214286D02*
X165802438Y-118261905D01*
X165802438Y-118261905D02*
X165754819Y-118357143D01*
X165754819Y-118357143D02*
X165754819Y-118595238D01*
X165754819Y-118595238D02*
X165802438Y-118690476D01*
X165802438Y-118690476D02*
X165850057Y-118738095D01*
X165850057Y-118738095D02*
X165945295Y-118785714D01*
X165945295Y-118785714D02*
X166040533Y-118785714D01*
X166040533Y-118785714D02*
X166183390Y-118738095D01*
X166183390Y-118738095D02*
X166754819Y-118166667D01*
X166754819Y-118166667D02*
X166754819Y-118785714D01*
X157746666Y-91714819D02*
X158079999Y-91238628D01*
X158318094Y-91714819D02*
X158318094Y-90714819D01*
X158318094Y-90714819D02*
X157937142Y-90714819D01*
X157937142Y-90714819D02*
X157841904Y-90762438D01*
X157841904Y-90762438D02*
X157794285Y-90810057D01*
X157794285Y-90810057D02*
X157746666Y-90905295D01*
X157746666Y-90905295D02*
X157746666Y-91048152D01*
X157746666Y-91048152D02*
X157794285Y-91143390D01*
X157794285Y-91143390D02*
X157841904Y-91191009D01*
X157841904Y-91191009D02*
X157937142Y-91238628D01*
X157937142Y-91238628D02*
X158318094Y-91238628D01*
X156889523Y-91048152D02*
X156889523Y-91714819D01*
X157127618Y-90667200D02*
X157365713Y-91381485D01*
X157365713Y-91381485D02*
X156746666Y-91381485D01*
X159859580Y-97457142D02*
X159907200Y-97409523D01*
X159907200Y-97409523D02*
X159954819Y-97266666D01*
X159954819Y-97266666D02*
X159954819Y-97171428D01*
X159954819Y-97171428D02*
X159907200Y-97028571D01*
X159907200Y-97028571D02*
X159811961Y-96933333D01*
X159811961Y-96933333D02*
X159716723Y-96885714D01*
X159716723Y-96885714D02*
X159526247Y-96838095D01*
X159526247Y-96838095D02*
X159383390Y-96838095D01*
X159383390Y-96838095D02*
X159192914Y-96885714D01*
X159192914Y-96885714D02*
X159097676Y-96933333D01*
X159097676Y-96933333D02*
X159002438Y-97028571D01*
X159002438Y-97028571D02*
X158954819Y-97171428D01*
X158954819Y-97171428D02*
X158954819Y-97266666D01*
X158954819Y-97266666D02*
X159002438Y-97409523D01*
X159002438Y-97409523D02*
X159050057Y-97457142D01*
X159954819Y-98409523D02*
X159954819Y-97838095D01*
X159954819Y-98123809D02*
X158954819Y-98123809D01*
X158954819Y-98123809D02*
X159097676Y-98028571D01*
X159097676Y-98028571D02*
X159192914Y-97933333D01*
X159192914Y-97933333D02*
X159240533Y-97838095D01*
X158954819Y-98742857D02*
X158954819Y-99361904D01*
X158954819Y-99361904D02*
X159335771Y-99028571D01*
X159335771Y-99028571D02*
X159335771Y-99171428D01*
X159335771Y-99171428D02*
X159383390Y-99266666D01*
X159383390Y-99266666D02*
X159431009Y-99314285D01*
X159431009Y-99314285D02*
X159526247Y-99361904D01*
X159526247Y-99361904D02*
X159764342Y-99361904D01*
X159764342Y-99361904D02*
X159859580Y-99314285D01*
X159859580Y-99314285D02*
X159907200Y-99266666D01*
X159907200Y-99266666D02*
X159954819Y-99171428D01*
X159954819Y-99171428D02*
X159954819Y-98885714D01*
X159954819Y-98885714D02*
X159907200Y-98790476D01*
X159907200Y-98790476D02*
X159859580Y-98742857D01*
X150459580Y-89833333D02*
X150507200Y-89785714D01*
X150507200Y-89785714D02*
X150554819Y-89642857D01*
X150554819Y-89642857D02*
X150554819Y-89547619D01*
X150554819Y-89547619D02*
X150507200Y-89404762D01*
X150507200Y-89404762D02*
X150411961Y-89309524D01*
X150411961Y-89309524D02*
X150316723Y-89261905D01*
X150316723Y-89261905D02*
X150126247Y-89214286D01*
X150126247Y-89214286D02*
X149983390Y-89214286D01*
X149983390Y-89214286D02*
X149792914Y-89261905D01*
X149792914Y-89261905D02*
X149697676Y-89309524D01*
X149697676Y-89309524D02*
X149602438Y-89404762D01*
X149602438Y-89404762D02*
X149554819Y-89547619D01*
X149554819Y-89547619D02*
X149554819Y-89642857D01*
X149554819Y-89642857D02*
X149602438Y-89785714D01*
X149602438Y-89785714D02*
X149650057Y-89833333D01*
X149554819Y-90166667D02*
X149554819Y-90833333D01*
X149554819Y-90833333D02*
X150554819Y-90404762D01*
X159959580Y-89333333D02*
X160007200Y-89285714D01*
X160007200Y-89285714D02*
X160054819Y-89142857D01*
X160054819Y-89142857D02*
X160054819Y-89047619D01*
X160054819Y-89047619D02*
X160007200Y-88904762D01*
X160007200Y-88904762D02*
X159911961Y-88809524D01*
X159911961Y-88809524D02*
X159816723Y-88761905D01*
X159816723Y-88761905D02*
X159626247Y-88714286D01*
X159626247Y-88714286D02*
X159483390Y-88714286D01*
X159483390Y-88714286D02*
X159292914Y-88761905D01*
X159292914Y-88761905D02*
X159197676Y-88809524D01*
X159197676Y-88809524D02*
X159102438Y-88904762D01*
X159102438Y-88904762D02*
X159054819Y-89047619D01*
X159054819Y-89047619D02*
X159054819Y-89142857D01*
X159054819Y-89142857D02*
X159102438Y-89285714D01*
X159102438Y-89285714D02*
X159150057Y-89333333D01*
X159388152Y-90190476D02*
X160054819Y-90190476D01*
X159007200Y-89952381D02*
X159721485Y-89714286D01*
X159721485Y-89714286D02*
X159721485Y-90333333D01*
X166659580Y-101257142D02*
X166707200Y-101209523D01*
X166707200Y-101209523D02*
X166754819Y-101066666D01*
X166754819Y-101066666D02*
X166754819Y-100971428D01*
X166754819Y-100971428D02*
X166707200Y-100828571D01*
X166707200Y-100828571D02*
X166611961Y-100733333D01*
X166611961Y-100733333D02*
X166516723Y-100685714D01*
X166516723Y-100685714D02*
X166326247Y-100638095D01*
X166326247Y-100638095D02*
X166183390Y-100638095D01*
X166183390Y-100638095D02*
X165992914Y-100685714D01*
X165992914Y-100685714D02*
X165897676Y-100733333D01*
X165897676Y-100733333D02*
X165802438Y-100828571D01*
X165802438Y-100828571D02*
X165754819Y-100971428D01*
X165754819Y-100971428D02*
X165754819Y-101066666D01*
X165754819Y-101066666D02*
X165802438Y-101209523D01*
X165802438Y-101209523D02*
X165850057Y-101257142D01*
X166754819Y-102209523D02*
X166754819Y-101638095D01*
X166754819Y-101923809D02*
X165754819Y-101923809D01*
X165754819Y-101923809D02*
X165897676Y-101828571D01*
X165897676Y-101828571D02*
X165992914Y-101733333D01*
X165992914Y-101733333D02*
X166040533Y-101638095D01*
X166088152Y-103066666D02*
X166754819Y-103066666D01*
X165707200Y-102828571D02*
X166421485Y-102590476D01*
X166421485Y-102590476D02*
X166421485Y-103209523D01*
X142642857Y-81559580D02*
X142690476Y-81607200D01*
X142690476Y-81607200D02*
X142833333Y-81654819D01*
X142833333Y-81654819D02*
X142928571Y-81654819D01*
X142928571Y-81654819D02*
X143071428Y-81607200D01*
X143071428Y-81607200D02*
X143166666Y-81511961D01*
X143166666Y-81511961D02*
X143214285Y-81416723D01*
X143214285Y-81416723D02*
X143261904Y-81226247D01*
X143261904Y-81226247D02*
X143261904Y-81083390D01*
X143261904Y-81083390D02*
X143214285Y-80892914D01*
X143214285Y-80892914D02*
X143166666Y-80797676D01*
X143166666Y-80797676D02*
X143071428Y-80702438D01*
X143071428Y-80702438D02*
X142928571Y-80654819D01*
X142928571Y-80654819D02*
X142833333Y-80654819D01*
X142833333Y-80654819D02*
X142690476Y-80702438D01*
X142690476Y-80702438D02*
X142642857Y-80750057D01*
X141690476Y-81654819D02*
X142261904Y-81654819D01*
X141976190Y-81654819D02*
X141976190Y-80654819D01*
X141976190Y-80654819D02*
X142071428Y-80797676D01*
X142071428Y-80797676D02*
X142166666Y-80892914D01*
X142166666Y-80892914D02*
X142261904Y-80940533D01*
X141071428Y-80654819D02*
X140976190Y-80654819D01*
X140976190Y-80654819D02*
X140880952Y-80702438D01*
X140880952Y-80702438D02*
X140833333Y-80750057D01*
X140833333Y-80750057D02*
X140785714Y-80845295D01*
X140785714Y-80845295D02*
X140738095Y-81035771D01*
X140738095Y-81035771D02*
X140738095Y-81273866D01*
X140738095Y-81273866D02*
X140785714Y-81464342D01*
X140785714Y-81464342D02*
X140833333Y-81559580D01*
X140833333Y-81559580D02*
X140880952Y-81607200D01*
X140880952Y-81607200D02*
X140976190Y-81654819D01*
X140976190Y-81654819D02*
X141071428Y-81654819D01*
X141071428Y-81654819D02*
X141166666Y-81607200D01*
X141166666Y-81607200D02*
X141214285Y-81559580D01*
X141214285Y-81559580D02*
X141261904Y-81464342D01*
X141261904Y-81464342D02*
X141309523Y-81273866D01*
X141309523Y-81273866D02*
X141309523Y-81035771D01*
X141309523Y-81035771D02*
X141261904Y-80845295D01*
X141261904Y-80845295D02*
X141214285Y-80750057D01*
X141214285Y-80750057D02*
X141166666Y-80702438D01*
X141166666Y-80702438D02*
X141071428Y-80654819D01*
X168559580Y-93557142D02*
X168607200Y-93509523D01*
X168607200Y-93509523D02*
X168654819Y-93366666D01*
X168654819Y-93366666D02*
X168654819Y-93271428D01*
X168654819Y-93271428D02*
X168607200Y-93128571D01*
X168607200Y-93128571D02*
X168511961Y-93033333D01*
X168511961Y-93033333D02*
X168416723Y-92985714D01*
X168416723Y-92985714D02*
X168226247Y-92938095D01*
X168226247Y-92938095D02*
X168083390Y-92938095D01*
X168083390Y-92938095D02*
X167892914Y-92985714D01*
X167892914Y-92985714D02*
X167797676Y-93033333D01*
X167797676Y-93033333D02*
X167702438Y-93128571D01*
X167702438Y-93128571D02*
X167654819Y-93271428D01*
X167654819Y-93271428D02*
X167654819Y-93366666D01*
X167654819Y-93366666D02*
X167702438Y-93509523D01*
X167702438Y-93509523D02*
X167750057Y-93557142D01*
X167654819Y-93890476D02*
X167654819Y-94509523D01*
X167654819Y-94509523D02*
X168035771Y-94176190D01*
X168035771Y-94176190D02*
X168035771Y-94319047D01*
X168035771Y-94319047D02*
X168083390Y-94414285D01*
X168083390Y-94414285D02*
X168131009Y-94461904D01*
X168131009Y-94461904D02*
X168226247Y-94509523D01*
X168226247Y-94509523D02*
X168464342Y-94509523D01*
X168464342Y-94509523D02*
X168559580Y-94461904D01*
X168559580Y-94461904D02*
X168607200Y-94414285D01*
X168607200Y-94414285D02*
X168654819Y-94319047D01*
X168654819Y-94319047D02*
X168654819Y-94033333D01*
X168654819Y-94033333D02*
X168607200Y-93938095D01*
X168607200Y-93938095D02*
X168559580Y-93890476D01*
X167750057Y-94890476D02*
X167702438Y-94938095D01*
X167702438Y-94938095D02*
X167654819Y-95033333D01*
X167654819Y-95033333D02*
X167654819Y-95271428D01*
X167654819Y-95271428D02*
X167702438Y-95366666D01*
X167702438Y-95366666D02*
X167750057Y-95414285D01*
X167750057Y-95414285D02*
X167845295Y-95461904D01*
X167845295Y-95461904D02*
X167940533Y-95461904D01*
X167940533Y-95461904D02*
X168083390Y-95414285D01*
X168083390Y-95414285D02*
X168654819Y-94842857D01*
X168654819Y-94842857D02*
X168654819Y-95461904D01*
X164454819Y-106557142D02*
X163978628Y-106223809D01*
X164454819Y-105985714D02*
X163454819Y-105985714D01*
X163454819Y-105985714D02*
X163454819Y-106366666D01*
X163454819Y-106366666D02*
X163502438Y-106461904D01*
X163502438Y-106461904D02*
X163550057Y-106509523D01*
X163550057Y-106509523D02*
X163645295Y-106557142D01*
X163645295Y-106557142D02*
X163788152Y-106557142D01*
X163788152Y-106557142D02*
X163883390Y-106509523D01*
X163883390Y-106509523D02*
X163931009Y-106461904D01*
X163931009Y-106461904D02*
X163978628Y-106366666D01*
X163978628Y-106366666D02*
X163978628Y-105985714D01*
X164454819Y-107509523D02*
X164454819Y-106938095D01*
X164454819Y-107223809D02*
X163454819Y-107223809D01*
X163454819Y-107223809D02*
X163597676Y-107128571D01*
X163597676Y-107128571D02*
X163692914Y-107033333D01*
X163692914Y-107033333D02*
X163740533Y-106938095D01*
X163454819Y-108414285D02*
X163454819Y-107938095D01*
X163454819Y-107938095D02*
X163931009Y-107890476D01*
X163931009Y-107890476D02*
X163883390Y-107938095D01*
X163883390Y-107938095D02*
X163835771Y-108033333D01*
X163835771Y-108033333D02*
X163835771Y-108271428D01*
X163835771Y-108271428D02*
X163883390Y-108366666D01*
X163883390Y-108366666D02*
X163931009Y-108414285D01*
X163931009Y-108414285D02*
X164026247Y-108461904D01*
X164026247Y-108461904D02*
X164264342Y-108461904D01*
X164264342Y-108461904D02*
X164359580Y-108414285D01*
X164359580Y-108414285D02*
X164407200Y-108366666D01*
X164407200Y-108366666D02*
X164454819Y-108271428D01*
X164454819Y-108271428D02*
X164454819Y-108033333D01*
X164454819Y-108033333D02*
X164407200Y-107938095D01*
X164407200Y-107938095D02*
X164359580Y-107890476D01*
X133554819Y-100668095D02*
X134364342Y-100668095D01*
X134364342Y-100668095D02*
X134459580Y-100715714D01*
X134459580Y-100715714D02*
X134507200Y-100763333D01*
X134507200Y-100763333D02*
X134554819Y-100858571D01*
X134554819Y-100858571D02*
X134554819Y-101049047D01*
X134554819Y-101049047D02*
X134507200Y-101144285D01*
X134507200Y-101144285D02*
X134459580Y-101191904D01*
X134459580Y-101191904D02*
X134364342Y-101239523D01*
X134364342Y-101239523D02*
X133554819Y-101239523D01*
X133554819Y-101620476D02*
X133554819Y-102239523D01*
X133554819Y-102239523D02*
X133935771Y-101906190D01*
X133935771Y-101906190D02*
X133935771Y-102049047D01*
X133935771Y-102049047D02*
X133983390Y-102144285D01*
X133983390Y-102144285D02*
X134031009Y-102191904D01*
X134031009Y-102191904D02*
X134126247Y-102239523D01*
X134126247Y-102239523D02*
X134364342Y-102239523D01*
X134364342Y-102239523D02*
X134459580Y-102191904D01*
X134459580Y-102191904D02*
X134507200Y-102144285D01*
X134507200Y-102144285D02*
X134554819Y-102049047D01*
X134554819Y-102049047D02*
X134554819Y-101763333D01*
X134554819Y-101763333D02*
X134507200Y-101668095D01*
X134507200Y-101668095D02*
X134459580Y-101620476D01*
X166561904Y-106554819D02*
X166561904Y-107364342D01*
X166561904Y-107364342D02*
X166514285Y-107459580D01*
X166514285Y-107459580D02*
X166466666Y-107507200D01*
X166466666Y-107507200D02*
X166371428Y-107554819D01*
X166371428Y-107554819D02*
X166180952Y-107554819D01*
X166180952Y-107554819D02*
X166085714Y-107507200D01*
X166085714Y-107507200D02*
X166038095Y-107459580D01*
X166038095Y-107459580D02*
X165990476Y-107364342D01*
X165990476Y-107364342D02*
X165990476Y-106554819D01*
X165609523Y-106554819D02*
X164942857Y-106554819D01*
X164942857Y-106554819D02*
X165371428Y-107554819D01*
X151354819Y-98433333D02*
X150878628Y-98100000D01*
X151354819Y-97861905D02*
X150354819Y-97861905D01*
X150354819Y-97861905D02*
X150354819Y-98242857D01*
X150354819Y-98242857D02*
X150402438Y-98338095D01*
X150402438Y-98338095D02*
X150450057Y-98385714D01*
X150450057Y-98385714D02*
X150545295Y-98433333D01*
X150545295Y-98433333D02*
X150688152Y-98433333D01*
X150688152Y-98433333D02*
X150783390Y-98385714D01*
X150783390Y-98385714D02*
X150831009Y-98338095D01*
X150831009Y-98338095D02*
X150878628Y-98242857D01*
X150878628Y-98242857D02*
X150878628Y-97861905D01*
X150354819Y-99338095D02*
X150354819Y-98861905D01*
X150354819Y-98861905D02*
X150831009Y-98814286D01*
X150831009Y-98814286D02*
X150783390Y-98861905D01*
X150783390Y-98861905D02*
X150735771Y-98957143D01*
X150735771Y-98957143D02*
X150735771Y-99195238D01*
X150735771Y-99195238D02*
X150783390Y-99290476D01*
X150783390Y-99290476D02*
X150831009Y-99338095D01*
X150831009Y-99338095D02*
X150926247Y-99385714D01*
X150926247Y-99385714D02*
X151164342Y-99385714D01*
X151164342Y-99385714D02*
X151259580Y-99338095D01*
X151259580Y-99338095D02*
X151307200Y-99290476D01*
X151307200Y-99290476D02*
X151354819Y-99195238D01*
X151354819Y-99195238D02*
X151354819Y-98957143D01*
X151354819Y-98957143D02*
X151307200Y-98861905D01*
X151307200Y-98861905D02*
X151259580Y-98814286D01*
X167959580Y-113157142D02*
X168007200Y-113109523D01*
X168007200Y-113109523D02*
X168054819Y-112966666D01*
X168054819Y-112966666D02*
X168054819Y-112871428D01*
X168054819Y-112871428D02*
X168007200Y-112728571D01*
X168007200Y-112728571D02*
X167911961Y-112633333D01*
X167911961Y-112633333D02*
X167816723Y-112585714D01*
X167816723Y-112585714D02*
X167626247Y-112538095D01*
X167626247Y-112538095D02*
X167483390Y-112538095D01*
X167483390Y-112538095D02*
X167292914Y-112585714D01*
X167292914Y-112585714D02*
X167197676Y-112633333D01*
X167197676Y-112633333D02*
X167102438Y-112728571D01*
X167102438Y-112728571D02*
X167054819Y-112871428D01*
X167054819Y-112871428D02*
X167054819Y-112966666D01*
X167054819Y-112966666D02*
X167102438Y-113109523D01*
X167102438Y-113109523D02*
X167150057Y-113157142D01*
X167150057Y-113538095D02*
X167102438Y-113585714D01*
X167102438Y-113585714D02*
X167054819Y-113680952D01*
X167054819Y-113680952D02*
X167054819Y-113919047D01*
X167054819Y-113919047D02*
X167102438Y-114014285D01*
X167102438Y-114014285D02*
X167150057Y-114061904D01*
X167150057Y-114061904D02*
X167245295Y-114109523D01*
X167245295Y-114109523D02*
X167340533Y-114109523D01*
X167340533Y-114109523D02*
X167483390Y-114061904D01*
X167483390Y-114061904D02*
X168054819Y-113490476D01*
X168054819Y-113490476D02*
X168054819Y-114109523D01*
X168054819Y-115061904D02*
X168054819Y-114490476D01*
X168054819Y-114776190D02*
X167054819Y-114776190D01*
X167054819Y-114776190D02*
X167197676Y-114680952D01*
X167197676Y-114680952D02*
X167292914Y-114585714D01*
X167292914Y-114585714D02*
X167340533Y-114490476D01*
X154004819Y-88738095D02*
X154814342Y-88738095D01*
X154814342Y-88738095D02*
X154909580Y-88785714D01*
X154909580Y-88785714D02*
X154957200Y-88833333D01*
X154957200Y-88833333D02*
X155004819Y-88928571D01*
X155004819Y-88928571D02*
X155004819Y-89119047D01*
X155004819Y-89119047D02*
X154957200Y-89214285D01*
X154957200Y-89214285D02*
X154909580Y-89261904D01*
X154909580Y-89261904D02*
X154814342Y-89309523D01*
X154814342Y-89309523D02*
X154004819Y-89309523D01*
X154100057Y-89738095D02*
X154052438Y-89785714D01*
X154052438Y-89785714D02*
X154004819Y-89880952D01*
X154004819Y-89880952D02*
X154004819Y-90119047D01*
X154004819Y-90119047D02*
X154052438Y-90214285D01*
X154052438Y-90214285D02*
X154100057Y-90261904D01*
X154100057Y-90261904D02*
X154195295Y-90309523D01*
X154195295Y-90309523D02*
X154290533Y-90309523D01*
X154290533Y-90309523D02*
X154433390Y-90261904D01*
X154433390Y-90261904D02*
X155004819Y-89690476D01*
X155004819Y-89690476D02*
X155004819Y-90309523D01*
X146354819Y-81233333D02*
X145878628Y-80900000D01*
X146354819Y-80661905D02*
X145354819Y-80661905D01*
X145354819Y-80661905D02*
X145354819Y-81042857D01*
X145354819Y-81042857D02*
X145402438Y-81138095D01*
X145402438Y-81138095D02*
X145450057Y-81185714D01*
X145450057Y-81185714D02*
X145545295Y-81233333D01*
X145545295Y-81233333D02*
X145688152Y-81233333D01*
X145688152Y-81233333D02*
X145783390Y-81185714D01*
X145783390Y-81185714D02*
X145831009Y-81138095D01*
X145831009Y-81138095D02*
X145878628Y-81042857D01*
X145878628Y-81042857D02*
X145878628Y-80661905D01*
X145783390Y-81804762D02*
X145735771Y-81709524D01*
X145735771Y-81709524D02*
X145688152Y-81661905D01*
X145688152Y-81661905D02*
X145592914Y-81614286D01*
X145592914Y-81614286D02*
X145545295Y-81614286D01*
X145545295Y-81614286D02*
X145450057Y-81661905D01*
X145450057Y-81661905D02*
X145402438Y-81709524D01*
X145402438Y-81709524D02*
X145354819Y-81804762D01*
X145354819Y-81804762D02*
X145354819Y-81995238D01*
X145354819Y-81995238D02*
X145402438Y-82090476D01*
X145402438Y-82090476D02*
X145450057Y-82138095D01*
X145450057Y-82138095D02*
X145545295Y-82185714D01*
X145545295Y-82185714D02*
X145592914Y-82185714D01*
X145592914Y-82185714D02*
X145688152Y-82138095D01*
X145688152Y-82138095D02*
X145735771Y-82090476D01*
X145735771Y-82090476D02*
X145783390Y-81995238D01*
X145783390Y-81995238D02*
X145783390Y-81804762D01*
X145783390Y-81804762D02*
X145831009Y-81709524D01*
X145831009Y-81709524D02*
X145878628Y-81661905D01*
X145878628Y-81661905D02*
X145973866Y-81614286D01*
X145973866Y-81614286D02*
X146164342Y-81614286D01*
X146164342Y-81614286D02*
X146259580Y-81661905D01*
X146259580Y-81661905D02*
X146307200Y-81709524D01*
X146307200Y-81709524D02*
X146354819Y-81804762D01*
X146354819Y-81804762D02*
X146354819Y-81995238D01*
X146354819Y-81995238D02*
X146307200Y-82090476D01*
X146307200Y-82090476D02*
X146259580Y-82138095D01*
X146259580Y-82138095D02*
X146164342Y-82185714D01*
X146164342Y-82185714D02*
X145973866Y-82185714D01*
X145973866Y-82185714D02*
X145878628Y-82138095D01*
X145878628Y-82138095D02*
X145831009Y-82090476D01*
X145831009Y-82090476D02*
X145783390Y-81995238D01*
X145961904Y-109907200D02*
X145819047Y-109954819D01*
X145819047Y-109954819D02*
X145580952Y-109954819D01*
X145580952Y-109954819D02*
X145485714Y-109907200D01*
X145485714Y-109907200D02*
X145438095Y-109859580D01*
X145438095Y-109859580D02*
X145390476Y-109764342D01*
X145390476Y-109764342D02*
X145390476Y-109669104D01*
X145390476Y-109669104D02*
X145438095Y-109573866D01*
X145438095Y-109573866D02*
X145485714Y-109526247D01*
X145485714Y-109526247D02*
X145580952Y-109478628D01*
X145580952Y-109478628D02*
X145771428Y-109431009D01*
X145771428Y-109431009D02*
X145866666Y-109383390D01*
X145866666Y-109383390D02*
X145914285Y-109335771D01*
X145914285Y-109335771D02*
X145961904Y-109240533D01*
X145961904Y-109240533D02*
X145961904Y-109145295D01*
X145961904Y-109145295D02*
X145914285Y-109050057D01*
X145914285Y-109050057D02*
X145866666Y-109002438D01*
X145866666Y-109002438D02*
X145771428Y-108954819D01*
X145771428Y-108954819D02*
X145533333Y-108954819D01*
X145533333Y-108954819D02*
X145390476Y-109002438D01*
X145057142Y-108954819D02*
X144438095Y-108954819D01*
X144438095Y-108954819D02*
X144771428Y-109335771D01*
X144771428Y-109335771D02*
X144628571Y-109335771D01*
X144628571Y-109335771D02*
X144533333Y-109383390D01*
X144533333Y-109383390D02*
X144485714Y-109431009D01*
X144485714Y-109431009D02*
X144438095Y-109526247D01*
X144438095Y-109526247D02*
X144438095Y-109764342D01*
X144438095Y-109764342D02*
X144485714Y-109859580D01*
X144485714Y-109859580D02*
X144533333Y-109907200D01*
X144533333Y-109907200D02*
X144628571Y-109954819D01*
X144628571Y-109954819D02*
X144914285Y-109954819D01*
X144914285Y-109954819D02*
X145009523Y-109907200D01*
X145009523Y-109907200D02*
X145057142Y-109859580D01*
X144954819Y-81333333D02*
X144478628Y-81000000D01*
X144954819Y-80761905D02*
X143954819Y-80761905D01*
X143954819Y-80761905D02*
X143954819Y-81142857D01*
X143954819Y-81142857D02*
X144002438Y-81238095D01*
X144002438Y-81238095D02*
X144050057Y-81285714D01*
X144050057Y-81285714D02*
X144145295Y-81333333D01*
X144145295Y-81333333D02*
X144288152Y-81333333D01*
X144288152Y-81333333D02*
X144383390Y-81285714D01*
X144383390Y-81285714D02*
X144431009Y-81238095D01*
X144431009Y-81238095D02*
X144478628Y-81142857D01*
X144478628Y-81142857D02*
X144478628Y-80761905D01*
X143954819Y-81666667D02*
X143954819Y-82333333D01*
X143954819Y-82333333D02*
X144954819Y-81904762D01*
X156254819Y-97757142D02*
X155778628Y-97423809D01*
X156254819Y-97185714D02*
X155254819Y-97185714D01*
X155254819Y-97185714D02*
X155254819Y-97566666D01*
X155254819Y-97566666D02*
X155302438Y-97661904D01*
X155302438Y-97661904D02*
X155350057Y-97709523D01*
X155350057Y-97709523D02*
X155445295Y-97757142D01*
X155445295Y-97757142D02*
X155588152Y-97757142D01*
X155588152Y-97757142D02*
X155683390Y-97709523D01*
X155683390Y-97709523D02*
X155731009Y-97661904D01*
X155731009Y-97661904D02*
X155778628Y-97566666D01*
X155778628Y-97566666D02*
X155778628Y-97185714D01*
X156254819Y-98709523D02*
X156254819Y-98138095D01*
X156254819Y-98423809D02*
X155254819Y-98423809D01*
X155254819Y-98423809D02*
X155397676Y-98328571D01*
X155397676Y-98328571D02*
X155492914Y-98233333D01*
X155492914Y-98233333D02*
X155540533Y-98138095D01*
X155254819Y-99328571D02*
X155254819Y-99423809D01*
X155254819Y-99423809D02*
X155302438Y-99519047D01*
X155302438Y-99519047D02*
X155350057Y-99566666D01*
X155350057Y-99566666D02*
X155445295Y-99614285D01*
X155445295Y-99614285D02*
X155635771Y-99661904D01*
X155635771Y-99661904D02*
X155873866Y-99661904D01*
X155873866Y-99661904D02*
X156064342Y-99614285D01*
X156064342Y-99614285D02*
X156159580Y-99566666D01*
X156159580Y-99566666D02*
X156207200Y-99519047D01*
X156207200Y-99519047D02*
X156254819Y-99423809D01*
X156254819Y-99423809D02*
X156254819Y-99328571D01*
X156254819Y-99328571D02*
X156207200Y-99233333D01*
X156207200Y-99233333D02*
X156159580Y-99185714D01*
X156159580Y-99185714D02*
X156064342Y-99138095D01*
X156064342Y-99138095D02*
X155873866Y-99090476D01*
X155873866Y-99090476D02*
X155635771Y-99090476D01*
X155635771Y-99090476D02*
X155445295Y-99138095D01*
X155445295Y-99138095D02*
X155350057Y-99185714D01*
X155350057Y-99185714D02*
X155302438Y-99233333D01*
X155302438Y-99233333D02*
X155254819Y-99328571D01*
X168654819Y-85438095D02*
X168654819Y-86009523D01*
X169654819Y-85723809D02*
X168654819Y-85723809D01*
X169654819Y-86342857D02*
X168654819Y-86342857D01*
X168654819Y-86342857D02*
X168654819Y-86723809D01*
X168654819Y-86723809D02*
X168702438Y-86819047D01*
X168702438Y-86819047D02*
X168750057Y-86866666D01*
X168750057Y-86866666D02*
X168845295Y-86914285D01*
X168845295Y-86914285D02*
X168988152Y-86914285D01*
X168988152Y-86914285D02*
X169083390Y-86866666D01*
X169083390Y-86866666D02*
X169131009Y-86819047D01*
X169131009Y-86819047D02*
X169178628Y-86723809D01*
X169178628Y-86723809D02*
X169178628Y-86342857D01*
X168988152Y-87771428D02*
X169654819Y-87771428D01*
X168607200Y-87533333D02*
X169321485Y-87295238D01*
X169321485Y-87295238D02*
X169321485Y-87914285D01*
X163354819Y-110557142D02*
X162878628Y-110223809D01*
X163354819Y-109985714D02*
X162354819Y-109985714D01*
X162354819Y-109985714D02*
X162354819Y-110366666D01*
X162354819Y-110366666D02*
X162402438Y-110461904D01*
X162402438Y-110461904D02*
X162450057Y-110509523D01*
X162450057Y-110509523D02*
X162545295Y-110557142D01*
X162545295Y-110557142D02*
X162688152Y-110557142D01*
X162688152Y-110557142D02*
X162783390Y-110509523D01*
X162783390Y-110509523D02*
X162831009Y-110461904D01*
X162831009Y-110461904D02*
X162878628Y-110366666D01*
X162878628Y-110366666D02*
X162878628Y-109985714D01*
X162450057Y-110938095D02*
X162402438Y-110985714D01*
X162402438Y-110985714D02*
X162354819Y-111080952D01*
X162354819Y-111080952D02*
X162354819Y-111319047D01*
X162354819Y-111319047D02*
X162402438Y-111414285D01*
X162402438Y-111414285D02*
X162450057Y-111461904D01*
X162450057Y-111461904D02*
X162545295Y-111509523D01*
X162545295Y-111509523D02*
X162640533Y-111509523D01*
X162640533Y-111509523D02*
X162783390Y-111461904D01*
X162783390Y-111461904D02*
X163354819Y-110890476D01*
X163354819Y-110890476D02*
X163354819Y-111509523D01*
X162354819Y-112128571D02*
X162354819Y-112223809D01*
X162354819Y-112223809D02*
X162402438Y-112319047D01*
X162402438Y-112319047D02*
X162450057Y-112366666D01*
X162450057Y-112366666D02*
X162545295Y-112414285D01*
X162545295Y-112414285D02*
X162735771Y-112461904D01*
X162735771Y-112461904D02*
X162973866Y-112461904D01*
X162973866Y-112461904D02*
X163164342Y-112414285D01*
X163164342Y-112414285D02*
X163259580Y-112366666D01*
X163259580Y-112366666D02*
X163307200Y-112319047D01*
X163307200Y-112319047D02*
X163354819Y-112223809D01*
X163354819Y-112223809D02*
X163354819Y-112128571D01*
X163354819Y-112128571D02*
X163307200Y-112033333D01*
X163307200Y-112033333D02*
X163259580Y-111985714D01*
X163259580Y-111985714D02*
X163164342Y-111938095D01*
X163164342Y-111938095D02*
X162973866Y-111890476D01*
X162973866Y-111890476D02*
X162735771Y-111890476D01*
X162735771Y-111890476D02*
X162545295Y-111938095D01*
X162545295Y-111938095D02*
X162450057Y-111985714D01*
X162450057Y-111985714D02*
X162402438Y-112033333D01*
X162402438Y-112033333D02*
X162354819Y-112128571D01*
X162666666Y-94659580D02*
X162714285Y-94707200D01*
X162714285Y-94707200D02*
X162857142Y-94754819D01*
X162857142Y-94754819D02*
X162952380Y-94754819D01*
X162952380Y-94754819D02*
X163095237Y-94707200D01*
X163095237Y-94707200D02*
X163190475Y-94611961D01*
X163190475Y-94611961D02*
X163238094Y-94516723D01*
X163238094Y-94516723D02*
X163285713Y-94326247D01*
X163285713Y-94326247D02*
X163285713Y-94183390D01*
X163285713Y-94183390D02*
X163238094Y-93992914D01*
X163238094Y-93992914D02*
X163190475Y-93897676D01*
X163190475Y-93897676D02*
X163095237Y-93802438D01*
X163095237Y-93802438D02*
X162952380Y-93754819D01*
X162952380Y-93754819D02*
X162857142Y-93754819D01*
X162857142Y-93754819D02*
X162714285Y-93802438D01*
X162714285Y-93802438D02*
X162666666Y-93850057D01*
X161761904Y-93754819D02*
X162238094Y-93754819D01*
X162238094Y-93754819D02*
X162285713Y-94231009D01*
X162285713Y-94231009D02*
X162238094Y-94183390D01*
X162238094Y-94183390D02*
X162142856Y-94135771D01*
X162142856Y-94135771D02*
X161904761Y-94135771D01*
X161904761Y-94135771D02*
X161809523Y-94183390D01*
X161809523Y-94183390D02*
X161761904Y-94231009D01*
X161761904Y-94231009D02*
X161714285Y-94326247D01*
X161714285Y-94326247D02*
X161714285Y-94564342D01*
X161714285Y-94564342D02*
X161761904Y-94659580D01*
X161761904Y-94659580D02*
X161809523Y-94707200D01*
X161809523Y-94707200D02*
X161904761Y-94754819D01*
X161904761Y-94754819D02*
X162142856Y-94754819D01*
X162142856Y-94754819D02*
X162238094Y-94707200D01*
X162238094Y-94707200D02*
X162285713Y-94659580D01*
X140038094Y-111054819D02*
X140038094Y-110054819D01*
X140038094Y-110054819D02*
X139799999Y-110054819D01*
X139799999Y-110054819D02*
X139657142Y-110102438D01*
X139657142Y-110102438D02*
X139561904Y-110197676D01*
X139561904Y-110197676D02*
X139514285Y-110292914D01*
X139514285Y-110292914D02*
X139466666Y-110483390D01*
X139466666Y-110483390D02*
X139466666Y-110626247D01*
X139466666Y-110626247D02*
X139514285Y-110816723D01*
X139514285Y-110816723D02*
X139561904Y-110911961D01*
X139561904Y-110911961D02*
X139657142Y-111007200D01*
X139657142Y-111007200D02*
X139799999Y-111054819D01*
X139799999Y-111054819D02*
X140038094Y-111054819D01*
X138514285Y-111054819D02*
X139085713Y-111054819D01*
X138799999Y-111054819D02*
X138799999Y-110054819D01*
X138799999Y-110054819D02*
X138895237Y-110197676D01*
X138895237Y-110197676D02*
X138990475Y-110292914D01*
X138990475Y-110292914D02*
X139085713Y-110340533D01*
X143164285Y-112954819D02*
X143735713Y-112954819D01*
X143449999Y-112954819D02*
X143449999Y-111954819D01*
X143449999Y-111954819D02*
X143545237Y-112097676D01*
X143545237Y-112097676D02*
X143640475Y-112192914D01*
X143640475Y-112192914D02*
X143735713Y-112240533D01*
X169674580Y-111843142D02*
X169722200Y-111795523D01*
X169722200Y-111795523D02*
X169769819Y-111652666D01*
X169769819Y-111652666D02*
X169769819Y-111557428D01*
X169769819Y-111557428D02*
X169722200Y-111414571D01*
X169722200Y-111414571D02*
X169626961Y-111319333D01*
X169626961Y-111319333D02*
X169531723Y-111271714D01*
X169531723Y-111271714D02*
X169341247Y-111224095D01*
X169341247Y-111224095D02*
X169198390Y-111224095D01*
X169198390Y-111224095D02*
X169007914Y-111271714D01*
X169007914Y-111271714D02*
X168912676Y-111319333D01*
X168912676Y-111319333D02*
X168817438Y-111414571D01*
X168817438Y-111414571D02*
X168769819Y-111557428D01*
X168769819Y-111557428D02*
X168769819Y-111652666D01*
X168769819Y-111652666D02*
X168817438Y-111795523D01*
X168817438Y-111795523D02*
X168865057Y-111843142D01*
X169769819Y-112795523D02*
X169769819Y-112224095D01*
X169769819Y-112509809D02*
X168769819Y-112509809D01*
X168769819Y-112509809D02*
X168912676Y-112414571D01*
X168912676Y-112414571D02*
X169007914Y-112319333D01*
X169007914Y-112319333D02*
X169055533Y-112224095D01*
X168769819Y-113652666D02*
X168769819Y-113462190D01*
X168769819Y-113462190D02*
X168817438Y-113366952D01*
X168817438Y-113366952D02*
X168865057Y-113319333D01*
X168865057Y-113319333D02*
X169007914Y-113224095D01*
X169007914Y-113224095D02*
X169198390Y-113176476D01*
X169198390Y-113176476D02*
X169579342Y-113176476D01*
X169579342Y-113176476D02*
X169674580Y-113224095D01*
X169674580Y-113224095D02*
X169722200Y-113271714D01*
X169722200Y-113271714D02*
X169769819Y-113366952D01*
X169769819Y-113366952D02*
X169769819Y-113557428D01*
X169769819Y-113557428D02*
X169722200Y-113652666D01*
X169722200Y-113652666D02*
X169674580Y-113700285D01*
X169674580Y-113700285D02*
X169579342Y-113747904D01*
X169579342Y-113747904D02*
X169341247Y-113747904D01*
X169341247Y-113747904D02*
X169246009Y-113700285D01*
X169246009Y-113700285D02*
X169198390Y-113652666D01*
X169198390Y-113652666D02*
X169150771Y-113557428D01*
X169150771Y-113557428D02*
X169150771Y-113366952D01*
X169150771Y-113366952D02*
X169198390Y-113271714D01*
X169198390Y-113271714D02*
X169246009Y-113224095D01*
X169246009Y-113224095D02*
X169341247Y-113176476D01*
D11*
%TO.C,S2*%
X159770000Y-110750000D02*
X159770000Y-117450000D01*
X158770000Y-110750000D02*
X159770000Y-110750000D01*
X156000000Y-110750000D02*
X157000000Y-110750000D01*
X153230000Y-110750000D02*
X154230000Y-110750000D01*
X153230000Y-110750000D02*
X153230000Y-117450000D01*
X157750000Y-111600000D02*
X157750000Y-113100000D01*
X155250000Y-111600000D02*
X155250000Y-113100000D01*
X157750000Y-113100000D02*
X157000000Y-115350000D01*
X155250000Y-113100000D02*
X154500000Y-115350000D01*
X157750000Y-115350000D02*
X157750000Y-116600000D01*
X155250000Y-115350000D02*
X155250000Y-116600000D01*
X158770000Y-117450000D02*
X159770000Y-117450000D01*
X156000000Y-117450000D02*
X157000000Y-117450000D01*
X153230000Y-117450000D02*
X154230000Y-117450000D01*
X158000000Y-113100000D02*
G75*
G03*
X157500000Y-113100000I-250000J0D01*
G01*
X157500000Y-113100000D02*
G75*
G03*
X158000000Y-113100000I250000J0D01*
G01*
X155500000Y-113100000D02*
G75*
G03*
X155000000Y-113100000I-250000J0D01*
G01*
X155000000Y-113100000D02*
G75*
G03*
X155500000Y-113100000I250000J0D01*
G01*
X158000000Y-115350000D02*
G75*
G03*
X157500000Y-115350000I-250000J0D01*
G01*
X157500000Y-115350000D02*
G75*
G03*
X158000000Y-115350000I250000J0D01*
G01*
X155500000Y-115350000D02*
G75*
G03*
X155000000Y-115350000I-250000J0D01*
G01*
X155000000Y-115350000D02*
G75*
G03*
X155500000Y-115350000I250000J0D01*
G01*
%TO.C,U1*%
X167110000Y-89500000D02*
X167110000Y-87300000D01*
X167110000Y-89500000D02*
X167110000Y-91700000D01*
X161890000Y-89500000D02*
X161890000Y-85900000D01*
X161890000Y-89500000D02*
X161890000Y-91700000D01*
%TO.C,R6*%
X149980000Y-100446359D02*
X149980000Y-100753641D01*
X149220000Y-100446359D02*
X149220000Y-100753641D01*
%TO.C,C9*%
X149960000Y-102492164D02*
X149960000Y-102707836D01*
X149240000Y-102492164D02*
X149240000Y-102707836D01*
%TO.C,C33*%
X151340000Y-94807836D02*
X151340000Y-94592164D01*
X152060000Y-94807836D02*
X152060000Y-94592164D01*
%TO.C,C6*%
X147040000Y-89607836D02*
X147040000Y-89392164D01*
X147760000Y-89607836D02*
X147760000Y-89392164D01*
%TO.C,C15*%
X170015000Y-110123836D02*
X170015000Y-109908164D01*
X170735000Y-110123836D02*
X170735000Y-109908164D01*
%TO.C,CR2*%
X156600000Y-103910000D02*
X156600000Y-100050000D01*
X158600000Y-103910000D02*
X156600000Y-103910000D01*
X158600000Y-103910000D02*
X158600000Y-100050000D01*
%TO.C,U4*%
X142660000Y-87500000D02*
X142660000Y-85550000D01*
X142660000Y-87500000D02*
X142660000Y-89450000D01*
X137540000Y-87500000D02*
X137540000Y-84050000D01*
X137540000Y-87500000D02*
X137540000Y-89450000D01*
%TO.C,R9*%
X143220000Y-84453641D02*
X143220000Y-84146359D01*
X143980000Y-84453641D02*
X143980000Y-84146359D01*
%TO.C,R21*%
X161470000Y-113853641D02*
X161470000Y-113546359D01*
X162230000Y-113853641D02*
X162230000Y-113546359D01*
%TO.C,C3*%
X149960000Y-104492164D02*
X149960000Y-104707836D01*
X149240000Y-104492164D02*
X149240000Y-104707836D01*
%TO.C,C8*%
X140347836Y-92710000D02*
X140132164Y-92710000D01*
X140347836Y-91990000D02*
X140132164Y-91990000D01*
%TO.C,R12*%
X155420000Y-96363641D02*
X155420000Y-96056359D01*
X156180000Y-96363641D02*
X156180000Y-96056359D01*
%TO.C,R2*%
X155753641Y-89180000D02*
X155446359Y-89180000D01*
X155753641Y-88420000D02*
X155446359Y-88420000D01*
%TO.C,C11*%
X160892164Y-104040000D02*
X161107836Y-104040000D01*
X160892164Y-104760000D02*
X161107836Y-104760000D01*
%TO.C,C12*%
X157360000Y-96092164D02*
X157360000Y-96307836D01*
X156640000Y-96092164D02*
X156640000Y-96307836D01*
%TO.C,R3*%
X155753641Y-90180000D02*
X155446359Y-90180000D01*
X155753641Y-89420000D02*
X155446359Y-89420000D01*
%TO.C,R14*%
X163180000Y-104682559D02*
X163180000Y-104989841D01*
X162420000Y-104682559D02*
X162420000Y-104989841D01*
%TO.C,J6*%
X174230000Y-107390000D02*
X171570000Y-107390000D01*
X174230000Y-89550000D02*
X174230000Y-107390000D01*
X174230000Y-89550000D02*
X171570000Y-89550000D01*
X172900000Y-86950000D02*
X171570000Y-86950000D01*
X171570000Y-89550000D02*
X171570000Y-107390000D01*
X171570000Y-86950000D02*
X171570000Y-88280000D01*
%TO.C,U6*%
X164960000Y-99400000D02*
X164960000Y-97450000D01*
X164960000Y-99400000D02*
X164960000Y-101350000D01*
X159840000Y-99400000D02*
X159840000Y-95950000D01*
X159840000Y-99400000D02*
X159840000Y-101350000D01*
%TO.C,R11*%
X167780000Y-99266359D02*
X167780000Y-99573641D01*
X167020000Y-99266359D02*
X167020000Y-99573641D01*
%TO.C,R17*%
X164680000Y-113863641D02*
X164680000Y-113556359D01*
X165440000Y-113863641D02*
X165440000Y-113556359D01*
%TO.C,CR1*%
X163000000Y-122390000D02*
X164800000Y-122390000D01*
X164800000Y-125610000D02*
X161850000Y-125610000D01*
%TO.C,R13*%
X158680000Y-96046359D02*
X158680000Y-96353641D01*
X157920000Y-96046359D02*
X157920000Y-96353641D01*
%TO.C,CR3*%
X154000000Y-104060000D02*
X154000000Y-100050000D01*
X156000000Y-104060000D02*
X154000000Y-104060000D01*
X156000000Y-104060000D02*
X156000000Y-100050000D01*
%TO.C,S1*%
X155350000Y-127370000D02*
X148650000Y-127370000D01*
X155350000Y-126370000D02*
X155350000Y-127370000D01*
X155350000Y-123600000D02*
X155350000Y-124600000D01*
X155350000Y-120830000D02*
X155350000Y-121830000D01*
X155350000Y-120830000D02*
X148650000Y-120830000D01*
X154500000Y-125350000D02*
X153000000Y-125350000D01*
X154500000Y-122850000D02*
X153000000Y-122850000D01*
X153000000Y-125350000D02*
X150750000Y-124600000D01*
X153000000Y-122850000D02*
X150750000Y-122100000D01*
X150750000Y-125350000D02*
X149500000Y-125350000D01*
X150750000Y-122850000D02*
X149500000Y-122850000D01*
X148650000Y-126370000D02*
X148650000Y-127370000D01*
X148650000Y-123600000D02*
X148650000Y-124600000D01*
X148650000Y-120830000D02*
X148650000Y-121830000D01*
X153250000Y-125350000D02*
G75*
G03*
X152750000Y-125350000I-250000J0D01*
G01*
X152750000Y-125350000D02*
G75*
G03*
X153250000Y-125350000I250000J0D01*
G01*
X153250000Y-122850000D02*
G75*
G03*
X152750000Y-122850000I-250000J0D01*
G01*
X152750000Y-122850000D02*
G75*
G03*
X153250000Y-122850000I250000J0D01*
G01*
X151000000Y-125350000D02*
G75*
G03*
X150500000Y-125350000I-250000J0D01*
G01*
X150500000Y-125350000D02*
G75*
G03*
X151000000Y-125350000I250000J0D01*
G01*
X151000000Y-122850000D02*
G75*
G03*
X150500000Y-122850000I-250000J0D01*
G01*
X150500000Y-122850000D02*
G75*
G03*
X151000000Y-122850000I250000J0D01*
G01*
%TO.C,U12*%
X162900000Y-116400000D02*
X162900000Y-118600000D01*
X165100000Y-116400000D02*
X165100000Y-119400000D01*
%TO.C,R4*%
X155753641Y-91180000D02*
X155446359Y-91180000D01*
X155753641Y-90420000D02*
X155446359Y-90420000D01*
%TO.C,C13*%
X158660000Y-98092164D02*
X158660000Y-98307836D01*
X157940000Y-98092164D02*
X157940000Y-98307836D01*
%TO.C,C7*%
X143240000Y-88607836D02*
X143240000Y-88392164D01*
X143960000Y-88607836D02*
X143960000Y-88392164D01*
%TO.C,C4*%
X160440000Y-89719036D02*
X160440000Y-89503364D01*
X161160000Y-89719036D02*
X161160000Y-89503364D01*
%TO.C,C14*%
X166660000Y-99312164D02*
X166660000Y-99527836D01*
X165940000Y-99312164D02*
X165940000Y-99527836D01*
%TO.C,C10*%
X143207836Y-83060000D02*
X142992164Y-83060000D01*
X143207836Y-82340000D02*
X142992164Y-82340000D01*
%TO.C,C32*%
X166040000Y-94819036D02*
X166040000Y-94603364D01*
X166760000Y-94819036D02*
X166760000Y-94603364D01*
%TO.C,R15*%
X164580000Y-104682559D02*
X164580000Y-104989841D01*
X163820000Y-104682559D02*
X163820000Y-104989841D01*
%TO.C,U3*%
X148210000Y-97540000D02*
X147975000Y-97540000D01*
X135425000Y-97540000D02*
X135425000Y-95725000D01*
X135190000Y-97540000D02*
X135425000Y-97540000D01*
X148210000Y-101400000D02*
X148210000Y-97540000D01*
X148210000Y-101400000D02*
X148210000Y-105260000D01*
X135190000Y-101400000D02*
X135190000Y-97540000D01*
X135190000Y-101400000D02*
X135190000Y-105260000D01*
X148210000Y-105260000D02*
X147975000Y-105260000D01*
X135190000Y-105260000D02*
X135425000Y-105260000D01*
D10*
%TO.C,U7*%
X167575000Y-111175000D02*
X165575000Y-111175000D01*
X166575000Y-107925000D02*
X165575000Y-107925000D01*
D11*
%TO.C,R5*%
X149220000Y-98743641D02*
X149220000Y-98436359D01*
X149980000Y-98743641D02*
X149980000Y-98436359D01*
%TO.C,C21*%
X165910000Y-113817836D02*
X165910000Y-113602164D01*
X166630000Y-113817836D02*
X166630000Y-113602164D01*
%TO.C,U2*%
X148490000Y-89500000D02*
X148490000Y-91700000D01*
X148490000Y-89500000D02*
X148490000Y-87300000D01*
X153710000Y-89500000D02*
X153710000Y-93100000D01*
X153710000Y-89500000D02*
X153710000Y-87300000D01*
%TO.C,R8*%
X144420000Y-86553641D02*
X144420000Y-86246359D01*
X145180000Y-86553641D02*
X145180000Y-86246359D01*
%TO.C,S3*%
X150770000Y-110850000D02*
X150770000Y-117550000D01*
X149770000Y-110850000D02*
X150770000Y-110850000D01*
X147000000Y-110850000D02*
X148000000Y-110850000D01*
X144230000Y-110850000D02*
X145230000Y-110850000D01*
X144230000Y-110850000D02*
X144230000Y-117550000D01*
X148750000Y-111700000D02*
X148750000Y-113200000D01*
X146250000Y-111700000D02*
X146250000Y-113200000D01*
X148750000Y-113200000D02*
X148000000Y-115450000D01*
X146250000Y-113200000D02*
X145500000Y-115450000D01*
X148750000Y-115450000D02*
X148750000Y-116700000D01*
X146250000Y-115450000D02*
X146250000Y-116700000D01*
X149770000Y-117550000D02*
X150770000Y-117550000D01*
X147000000Y-117550000D02*
X148000000Y-117550000D01*
X144230000Y-117550000D02*
X145230000Y-117550000D01*
X149000000Y-113200000D02*
G75*
G03*
X148500000Y-113200000I-250000J0D01*
G01*
X148500000Y-113200000D02*
G75*
G03*
X149000000Y-113200000I250000J0D01*
G01*
X146500000Y-113200000D02*
G75*
G03*
X146000000Y-113200000I-250000J0D01*
G01*
X146000000Y-113200000D02*
G75*
G03*
X146500000Y-113200000I250000J0D01*
G01*
X149000000Y-115450000D02*
G75*
G03*
X148500000Y-115450000I-250000J0D01*
G01*
X148500000Y-115450000D02*
G75*
G03*
X149000000Y-115450000I250000J0D01*
G01*
X146500000Y-115450000D02*
G75*
G03*
X146000000Y-115450000I-250000J0D01*
G01*
X146000000Y-115450000D02*
G75*
G03*
X146500000Y-115450000I250000J0D01*
G01*
%TO.C,R7*%
X143220000Y-86553641D02*
X143220000Y-86246359D01*
X143980000Y-86553641D02*
X143980000Y-86246359D01*
%TO.C,R10*%
X157380000Y-98046359D02*
X157380000Y-98353641D01*
X156620000Y-98046359D02*
X156620000Y-98353641D01*
%TO.C,TP4*%
X169800000Y-89400000D02*
G75*
G03*
X168400000Y-89400000I-700000J0D01*
G01*
X168400000Y-89400000D02*
G75*
G03*
X169800000Y-89400000I700000J0D01*
G01*
%TO.C,R20*%
X162720000Y-113853641D02*
X162720000Y-113546359D01*
X163480000Y-113853641D02*
X163480000Y-113546359D01*
%TO.C,C5*%
X164607836Y-94671200D02*
X164392164Y-94671200D01*
X164607836Y-93951200D02*
X164392164Y-93951200D01*
%TO.C,D1*%
X142950000Y-116850000D02*
X135650000Y-116850000D01*
X142950000Y-111350000D02*
X135650000Y-111350000D01*
X135650000Y-116850000D02*
X135650000Y-115700000D01*
%TO.C,C16*%
X168815000Y-110123836D02*
X168815000Y-109908164D01*
X169535000Y-110123836D02*
X169535000Y-109908164D01*
%TD*%
M02*
