%TF.GenerationSoftware,KiCad,Pcbnew,7.0.10*%
%TF.CreationDate,2024-03-09T04:50:20+08:00*%
%TF.ProjectId,ESP32Sensor-Sensor_board,45535033-3253-4656-9e73-6f722d53656e,rev?*%
%TF.SameCoordinates,Original*%
%TF.FileFunction,Copper,L3,Inr*%
%TF.FilePolarity,Positive*%
%FSLAX46Y46*%
G04 Gerber Fmt 4.6, Leading zero omitted, Abs format (unit mm)*
G04 Created by KiCad (PCBNEW 7.0.10) date 2024-03-09 04:50:20*
%MOMM*%
%LPD*%
G01*
G04 APERTURE LIST*
%TA.AperFunction,ComponentPad*%
%ADD10R,1.600000X1.000000*%
%TD*%
%TA.AperFunction,ComponentPad*%
%ADD11C,1.524000*%
%TD*%
%TA.AperFunction,ComponentPad*%
%ADD12O,1.000000X2.100000*%
%TD*%
%TA.AperFunction,ComponentPad*%
%ADD13O,1.000000X1.800000*%
%TD*%
%TA.AperFunction,ComponentPad*%
%ADD14R,4.500000X2.000000*%
%TD*%
%TA.AperFunction,ComponentPad*%
%ADD15O,4.000000X2.000000*%
%TD*%
%TA.AperFunction,ComponentPad*%
%ADD16O,2.000000X4.200000*%
%TD*%
%TA.AperFunction,ComponentPad*%
%ADD17R,1.700000X1.700000*%
%TD*%
%TA.AperFunction,ComponentPad*%
%ADD18O,1.700000X1.700000*%
%TD*%
%TA.AperFunction,ViaPad*%
%ADD19C,0.711200*%
%TD*%
%TA.AperFunction,ViaPad*%
%ADD20C,1.000000*%
%TD*%
%TA.AperFunction,ViaPad*%
%ADD21C,0.457200*%
%TD*%
%TA.AperFunction,Conductor*%
%ADD22C,0.558800*%
%TD*%
%TA.AperFunction,Conductor*%
%ADD23C,0.152400*%
%TD*%
G04 APERTURE END LIST*
D10*
%TO.N,GND*%
%TO.C,U14*%
X159300000Y-106012500D03*
%TD*%
%TO.N,GND*%
%TO.C,U11*%
X166900000Y-106012500D03*
%TD*%
D11*
%TO.N,Net-(PD1-An)*%
%TO.C,PD1*%
X154726500Y-82904500D03*
%TO.N,5V_PD*%
X147170000Y-82904500D03*
X150916500Y-82904500D03*
%TD*%
D12*
%TO.N,N/C*%
%TO.C,J3*%
X157780000Y-128210000D03*
D13*
X157780000Y-132390000D03*
X166420000Y-132390000D03*
D12*
X166420000Y-128210000D03*
%TD*%
D14*
%TO.N,VBUS*%
%TO.C,J1*%
X137400000Y-121250000D03*
D15*
%TO.N,GND*%
X137400000Y-127250000D03*
D16*
X142100000Y-124250000D03*
%TD*%
D17*
%TO.N,GND*%
%TO.C,J6*%
X172900000Y-88280000D03*
D18*
%TO.N,3.3V*%
X172900000Y-90820000D03*
%TO.N,SCL*%
X172900000Y-93360000D03*
%TO.N,SDA*%
X172900000Y-95900000D03*
%TO.N,GND*%
X172900000Y-98440000D03*
%TO.N,GPIO1*%
X172900000Y-100980000D03*
%TO.N,Mux_Sel_A*%
X172900000Y-103520000D03*
%TO.N,Mux_Sel_B*%
X172900000Y-106060000D03*
%TD*%
D19*
%TO.N,3.3V*%
X140620000Y-80440000D03*
X163196100Y-120530400D03*
X134401000Y-90620800D03*
D20*
%TO.N,GND*%
X169050000Y-120050000D03*
D21*
X162230000Y-119150000D03*
X159420000Y-103500000D03*
X167157400Y-97739200D03*
X161100000Y-98900000D03*
X167040000Y-126410000D03*
X167360600Y-90576400D03*
X160985200Y-86004400D03*
X171575000Y-94450000D03*
X157683200Y-83210400D03*
X158440000Y-104060000D03*
X142970000Y-94850000D03*
X164360000Y-93580000D03*
X159150000Y-87225000D03*
X140925000Y-91475000D03*
X150266400Y-115493800D03*
X145380000Y-102770000D03*
X147475000Y-87575000D03*
X166878000Y-102387400D03*
X166010000Y-121800000D03*
X167055800Y-88341200D03*
X147375000Y-91900000D03*
X163880800Y-89941400D03*
X165775000Y-117700000D03*
X157800000Y-126390000D03*
X148740000Y-90280000D03*
X160985200Y-93268800D03*
%TO.N,CC1*%
X161130400Y-128913700D03*
X151781000Y-127008200D03*
%TO.N,D+*%
X141803600Y-114308100D03*
X163789900Y-129339800D03*
X163831200Y-123788600D03*
X140026700Y-94529300D03*
%TO.N,D-*%
X141301100Y-94479200D03*
X143764000Y-122240400D03*
X168071900Y-123810100D03*
X162214800Y-128896700D03*
%TO.N,CC2*%
X163323500Y-128895100D03*
%TO.N,ESP_TXD*%
X166687200Y-116829100D03*
X145846900Y-111594500D03*
%TO.N,ESP_RXD*%
X144138400Y-87538700D03*
X145775200Y-113486900D03*
X165559000Y-119666200D03*
%TO.N,GPIO9*%
X145523500Y-108011600D03*
X172151200Y-111100000D03*
%TO.N,ESP_EN*%
X138090000Y-107742900D03*
X139750800Y-109194600D03*
X169624100Y-111309900D03*
%TO.N,INT*%
X137769600Y-78130400D03*
X145378800Y-87543900D03*
X155400000Y-126290600D03*
%TO.N,SCL*%
X132867400Y-77317600D03*
X159050200Y-119284200D03*
X168710600Y-113751000D03*
X137369800Y-107634600D03*
%TO.N,SDA*%
X157954700Y-120171100D03*
X139015800Y-111529500D03*
X134903000Y-80217300D03*
%TO.N,LED_REF*%
X145912000Y-98317600D03*
X164388800Y-77241400D03*
X156645200Y-94871600D03*
D19*
%TO.N,5V*%
X154501500Y-92999100D03*
X149905500Y-112917800D03*
X162080700Y-112394300D03*
X154501500Y-98967000D03*
%TO.N,+Vs_For_Lock_in*%
X158791300Y-92177500D03*
X148320000Y-88647300D03*
X156271200Y-101755200D03*
X142251500Y-93270400D03*
%TO.N,-Vs_For_Lock_in*%
X162520300Y-100133500D03*
X164723500Y-110745300D03*
D21*
%TO.N,Sensor_Second_stage*%
X156323400Y-100275300D03*
X147618900Y-103858700D03*
%TO.N,ESP_ADC*%
X133797300Y-89951700D03*
X150514400Y-104586400D03*
%TO.N,GPIO1*%
X136194000Y-90045700D03*
%TO.N,Mux_Sel_A*%
X136790400Y-90651700D03*
X154331600Y-91593900D03*
%TO.N,Net-(D1-DOUT)*%
X140690600Y-114579400D03*
%TO.N,ESP_PWM_DIM*%
X166369000Y-80796400D03*
X142998800Y-104889000D03*
X165680100Y-105192100D03*
%TO.N,NeopixelLED*%
X141142700Y-110888400D03*
D20*
%TO.N,VBUS*%
X154334689Y-128321700D03*
D21*
%TO.N,Mux_Sel_B*%
X154316700Y-86161400D03*
X138364700Y-87638100D03*
%TO.N,5V_SDA*%
X165210300Y-90340800D03*
X165210100Y-108009300D03*
X162475000Y-115025000D03*
%TO.N,5V_SCL*%
X163160700Y-88610600D03*
X163355000Y-109904300D03*
X164798100Y-109351900D03*
%TO.N,EPOT_w*%
X143181700Y-89918800D03*
X157066100Y-90635600D03*
%TO.N,Net-(U2-S2)*%
X149276700Y-89184600D03*
X153964400Y-88368300D03*
D20*
%TO.N,USBC_VBUS*%
X160740000Y-125950000D03*
D21*
%TO.N,Net-(U2-S4)*%
X153805000Y-85328500D03*
X153736300Y-86995000D03*
%TO.N,Net-(U13-FB{slash}SD)*%
X160819600Y-110612800D03*
X151610500Y-110186600D03*
%TO.N,Net-(PD1-An)*%
X145500900Y-85631500D03*
D19*
%TO.N,5V_PD*%
X154139650Y-96650350D03*
%TD*%
D22*
%TO.N,3.3V*%
X163196100Y-117091000D02*
X168289000Y-111998100D01*
X163196100Y-120530400D02*
X163196100Y-117091000D01*
X168289000Y-96138800D02*
X172349500Y-92078300D01*
X172900000Y-92078300D02*
X172900000Y-90820000D01*
X168289000Y-111998100D02*
X168289000Y-96138800D01*
X172349500Y-92078300D02*
X172900000Y-92078300D01*
D23*
%TO.N,D+*%
X163789900Y-129339800D02*
X163779700Y-129350000D01*
X162843200Y-124776600D02*
X163831200Y-123788600D01*
X141803600Y-114308100D02*
X141803600Y-96306200D01*
X162843200Y-129168200D02*
X162843200Y-124776600D01*
X141803600Y-96306200D02*
X140026700Y-94529300D01*
X163779700Y-129350000D02*
X163025000Y-129350000D01*
X163025000Y-129350000D02*
X162843200Y-129168200D01*
%TO.N,D-*%
X141301100Y-94479200D02*
X143764000Y-96942100D01*
X143764000Y-96942100D02*
X143764000Y-122240400D01*
%TO.N,ESP_RXD*%
X145775200Y-113486900D02*
X144430000Y-112141700D01*
X144430000Y-112141700D02*
X144430000Y-87830300D01*
X144430000Y-87830300D02*
X144138400Y-87538700D01*
%TO.N,INT*%
X153620000Y-124510600D02*
X153620000Y-103719100D01*
X145378800Y-95477900D02*
X145378800Y-87543900D01*
X137769600Y-78130400D02*
X137769600Y-79934700D01*
X137769600Y-79934700D02*
X145378800Y-87543900D01*
X155400000Y-126290600D02*
X153620000Y-124510600D01*
X153620000Y-103719100D02*
X145378800Y-95477900D01*
%TO.N,SCL*%
X137369800Y-92783600D02*
X137369800Y-107634600D01*
X168785600Y-113676000D02*
X168785600Y-111002300D01*
X132867400Y-77317600D02*
X132867400Y-78181200D01*
X134400000Y-79713800D02*
X134400000Y-89813800D01*
X168710600Y-113751000D02*
X168785600Y-113676000D01*
X134400000Y-89813800D02*
X137369800Y-92783600D01*
X172900000Y-93360000D02*
X172900000Y-94415100D01*
X168785600Y-98420200D02*
X172790700Y-94415100D01*
X172790700Y-94415100D02*
X172900000Y-94415100D01*
X132867400Y-78181200D02*
X134400000Y-79713800D01*
X168785600Y-111002300D02*
X168785600Y-98420200D01*
%TO.N,SDA*%
X172790700Y-96955100D02*
X172900000Y-96955100D01*
X171413600Y-113126300D02*
X171413600Y-98332200D01*
X163419400Y-121120500D02*
X171413600Y-113126300D01*
X139015800Y-84330100D02*
X139015800Y-111529500D01*
X157954700Y-120171100D02*
X158904100Y-121120500D01*
X158904100Y-121120500D02*
X163419400Y-121120500D01*
X134903000Y-80217300D02*
X139015800Y-84330100D01*
X171413600Y-98332200D02*
X172790700Y-96955100D01*
X172900000Y-95900000D02*
X172900000Y-96955100D01*
%TO.N,LED_REF*%
X164387700Y-77242500D02*
X164387700Y-84715000D01*
X164388800Y-77241400D02*
X164387700Y-77242500D01*
X156645200Y-92457500D02*
X156645200Y-94871600D01*
X164387700Y-84715000D02*
X156645200Y-92457500D01*
D22*
%TO.N,5V*%
X154986900Y-99452400D02*
X154986900Y-105726900D01*
X154501500Y-92999100D02*
X155266200Y-93763800D01*
X154501500Y-98967000D02*
X154986900Y-99452400D01*
X161654300Y-112394300D02*
X162080700Y-112394300D01*
X155266200Y-98202300D02*
X154501500Y-98967000D01*
X155266200Y-93763800D02*
X155266200Y-98202300D01*
X154986900Y-105726900D02*
X161654300Y-112394300D01*
%TO.N,+Vs_For_Lock_in*%
X156271200Y-101755200D02*
X158791300Y-99235100D01*
X158791300Y-99235100D02*
X158791300Y-92177500D01*
%TO.N,-Vs_For_Lock_in*%
X164723500Y-110745300D02*
X164723500Y-110372100D01*
X162520300Y-108168900D02*
X162520300Y-100133500D01*
X164723500Y-110372100D02*
X162520300Y-108168900D01*
D23*
%TO.N,ESP_PWM_DIM*%
X166369000Y-80796400D02*
X165680100Y-81485300D01*
X165680100Y-81485300D02*
X165680100Y-105192100D01*
%TO.N,5V_SDA*%
X165314400Y-110984700D02*
X165314400Y-108113600D01*
X165314400Y-108113600D02*
X165210100Y-108009300D01*
X162475000Y-115025000D02*
X162475000Y-113824100D01*
X165210300Y-90340800D02*
X165210300Y-108009100D01*
X162475000Y-113824100D02*
X165314400Y-110984700D01*
X165210300Y-108009100D02*
X165210100Y-108009300D01*
%TO.N,5V_SCL*%
X163160700Y-107714500D02*
X164798100Y-109351900D01*
X163160700Y-88610600D02*
X163160700Y-107714500D01*
%TO.N,Net-(U2-S4)*%
X153805000Y-86926300D02*
X153805000Y-85328500D01*
X153736300Y-86995000D02*
X153805000Y-86926300D01*
D22*
%TO.N,5V_PD*%
X154139650Y-96650350D02*
X150916500Y-93427200D01*
X150916500Y-93427200D02*
X150916500Y-82904500D01*
%TD*%
%TA.AperFunction,Conductor*%
%TO.N,GND*%
G36*
X171790268Y-95917728D02*
G01*
X171833533Y-95960993D01*
X171843846Y-95996234D01*
X171854843Y-96107888D01*
X171854844Y-96107894D01*
X171915485Y-96307799D01*
X171915487Y-96307804D01*
X172013952Y-96492021D01*
X172013958Y-96492030D01*
X172013960Y-96492033D01*
X172022606Y-96502568D01*
X172146480Y-96653510D01*
X172146489Y-96653519D01*
X172228037Y-96720443D01*
X172307967Y-96786040D01*
X172350773Y-96808920D01*
X172393180Y-96853025D01*
X172401563Y-96913633D01*
X172374109Y-96966234D01*
X171255210Y-98085133D01*
X171244870Y-98094130D01*
X171237832Y-98099444D01*
X171207732Y-98132462D01*
X171204580Y-98135763D01*
X171192090Y-98148254D01*
X171191710Y-98148711D01*
X171183692Y-98158833D01*
X171165623Y-98178654D01*
X171165622Y-98178656D01*
X171162424Y-98186910D01*
X171151789Y-98207086D01*
X171146785Y-98214390D01*
X171146784Y-98214393D01*
X171140642Y-98240503D01*
X171136590Y-98253587D01*
X171126900Y-98278604D01*
X171126900Y-98287453D01*
X171124270Y-98310121D01*
X171122245Y-98318729D01*
X171125951Y-98345297D01*
X171126900Y-98358974D01*
X171126900Y-112966537D01*
X171107993Y-113024728D01*
X171097904Y-113036541D01*
X167292603Y-116841841D01*
X167238086Y-116869618D01*
X167177654Y-116860047D01*
X167134389Y-116816782D01*
X167124607Y-116785925D01*
X167123838Y-116780579D01*
X167112845Y-116704119D01*
X167060393Y-116589264D01*
X167060391Y-116589262D01*
X167060391Y-116589261D01*
X167026577Y-116550239D01*
X166977706Y-116493838D01*
X166977703Y-116493836D01*
X166977702Y-116493835D01*
X166871485Y-116425574D01*
X166750334Y-116390000D01*
X166750333Y-116390000D01*
X166624067Y-116390000D01*
X166624065Y-116390000D01*
X166502914Y-116425574D01*
X166396697Y-116493835D01*
X166396693Y-116493839D01*
X166314008Y-116589261D01*
X166261554Y-116704121D01*
X166261553Y-116704124D01*
X166243585Y-116829097D01*
X166243585Y-116829102D01*
X166261553Y-116954075D01*
X166261554Y-116954078D01*
X166261554Y-116954079D01*
X166261555Y-116954081D01*
X166300148Y-117038589D01*
X166314008Y-117068938D01*
X166321022Y-117077032D01*
X166396694Y-117164362D01*
X166502916Y-117232626D01*
X166624067Y-117268200D01*
X166624068Y-117268200D01*
X166627236Y-117268200D01*
X166629749Y-117269016D01*
X166631073Y-117269207D01*
X166631040Y-117269435D01*
X166685427Y-117287107D01*
X166721391Y-117336607D01*
X166721391Y-117397793D01*
X166697240Y-117437204D01*
X163855004Y-120279440D01*
X163800487Y-120307217D01*
X163740055Y-120297646D01*
X163696790Y-120254381D01*
X163686000Y-120209436D01*
X163686000Y-117334931D01*
X163704907Y-117276740D01*
X163714996Y-117264927D01*
X168329896Y-112650027D01*
X168384413Y-112622250D01*
X168444845Y-112631821D01*
X168488110Y-112675086D01*
X168498900Y-112720031D01*
X168498900Y-113311034D01*
X168479993Y-113369225D01*
X168453424Y-113394318D01*
X168420095Y-113415737D01*
X168420093Y-113415739D01*
X168337408Y-113511161D01*
X168284954Y-113626021D01*
X168284953Y-113626024D01*
X168266985Y-113750997D01*
X168266985Y-113751002D01*
X168284953Y-113875975D01*
X168284954Y-113875978D01*
X168284954Y-113875979D01*
X168284955Y-113875981D01*
X168307797Y-113925999D01*
X168337408Y-113990838D01*
X168378750Y-114038549D01*
X168420094Y-114086262D01*
X168420096Y-114086263D01*
X168420097Y-114086264D01*
X168504179Y-114140300D01*
X168526316Y-114154526D01*
X168647467Y-114190100D01*
X168647468Y-114190100D01*
X168773732Y-114190100D01*
X168773733Y-114190100D01*
X168894884Y-114154526D01*
X169001106Y-114086262D01*
X169083793Y-113990836D01*
X169136245Y-113875981D01*
X169140843Y-113844001D01*
X169154215Y-113751002D01*
X169154215Y-113750997D01*
X169136246Y-113626024D01*
X169136245Y-113626021D01*
X169136245Y-113626019D01*
X169083793Y-113511164D01*
X169083791Y-113511162D01*
X169081246Y-113505588D01*
X169072300Y-113464462D01*
X169072300Y-111608981D01*
X169091207Y-111550790D01*
X169140707Y-111514826D01*
X169201893Y-111514826D01*
X169244585Y-111545844D01*
X169246270Y-111544385D01*
X169251820Y-111550790D01*
X169333594Y-111645162D01*
X169439816Y-111713426D01*
X169560967Y-111749000D01*
X169560968Y-111749000D01*
X169687232Y-111749000D01*
X169687233Y-111749000D01*
X169808384Y-111713426D01*
X169914606Y-111645162D01*
X169997293Y-111549736D01*
X170049745Y-111434881D01*
X170062591Y-111345538D01*
X170067715Y-111309902D01*
X170067715Y-111309897D01*
X170049746Y-111184924D01*
X170049745Y-111184921D01*
X170049745Y-111184919D01*
X169997293Y-111070064D01*
X169997291Y-111070062D01*
X169997291Y-111070061D01*
X169957560Y-111024210D01*
X169914606Y-110974638D01*
X169914603Y-110974636D01*
X169914602Y-110974635D01*
X169808385Y-110906374D01*
X169687234Y-110870800D01*
X169687233Y-110870800D01*
X169560967Y-110870800D01*
X169560965Y-110870800D01*
X169439814Y-110906374D01*
X169333597Y-110974635D01*
X169333593Y-110974639D01*
X169246270Y-111075415D01*
X169243755Y-111073236D01*
X169207046Y-111103139D01*
X169145954Y-111106518D01*
X169094543Y-111073343D01*
X169072451Y-111016285D01*
X169072300Y-111010818D01*
X169072300Y-98579962D01*
X169091207Y-98521771D01*
X169101290Y-98509964D01*
X171675321Y-95935932D01*
X171729836Y-95908157D01*
X171790268Y-95917728D01*
G37*
%TD.AperFunction*%
%TA.AperFunction,Conductor*%
G36*
X171794695Y-93422669D02*
G01*
X171837960Y-93465934D01*
X171848273Y-93501175D01*
X171854843Y-93567889D01*
X171854844Y-93567894D01*
X171915485Y-93767799D01*
X171915487Y-93767804D01*
X172013952Y-93952021D01*
X172013958Y-93952030D01*
X172013960Y-93952033D01*
X172059670Y-94007731D01*
X172146480Y-94113510D01*
X172146489Y-94113519D01*
X172231740Y-94183482D01*
X172307967Y-94246040D01*
X172350773Y-94268920D01*
X172393180Y-94313025D01*
X172401563Y-94373633D01*
X172374109Y-94426234D01*
X168947904Y-97852440D01*
X168893387Y-97880217D01*
X168832955Y-97870646D01*
X168789690Y-97827381D01*
X168778900Y-97782436D01*
X168778900Y-96382730D01*
X168797807Y-96324539D01*
X168807890Y-96312732D01*
X171679748Y-93440873D01*
X171734263Y-93413098D01*
X171794695Y-93422669D01*
G37*
%TD.AperFunction*%
%TA.AperFunction,Conductor*%
G36*
X143058691Y-74319407D02*
G01*
X143094655Y-74368907D01*
X143099500Y-74399500D01*
X143099500Y-76544272D01*
X143095722Y-76571361D01*
X143095599Y-76571790D01*
X143095599Y-76571794D01*
X143099078Y-76609337D01*
X143099500Y-76618471D01*
X143099500Y-76627844D01*
X143101222Y-76637060D01*
X143102483Y-76646105D01*
X143105964Y-76683656D01*
X143105965Y-76683661D01*
X143106167Y-76684066D01*
X143114855Y-76709987D01*
X143114937Y-76710428D01*
X143114940Y-76710436D01*
X143134786Y-76742489D01*
X143139235Y-76750475D01*
X143156042Y-76784228D01*
X143156369Y-76784526D01*
X143173842Y-76805567D01*
X143174079Y-76805950D01*
X143174080Y-76805952D01*
X143190110Y-76818056D01*
X143204170Y-76828674D01*
X143211195Y-76834507D01*
X143239067Y-76859916D01*
X143239483Y-76860077D01*
X143263377Y-76873385D01*
X143263736Y-76873656D01*
X143300015Y-76883977D01*
X143308657Y-76886874D01*
X143343827Y-76900500D01*
X143344273Y-76900500D01*
X143371364Y-76904279D01*
X143371793Y-76904401D01*
X143409338Y-76900921D01*
X143418471Y-76900500D01*
X158344273Y-76900500D01*
X158371364Y-76904279D01*
X158371793Y-76904401D01*
X158409338Y-76900921D01*
X158418471Y-76900500D01*
X158427844Y-76900500D01*
X158437058Y-76898777D01*
X158446101Y-76897515D01*
X158483660Y-76894035D01*
X158484054Y-76893838D01*
X158510000Y-76885141D01*
X158510433Y-76885061D01*
X158542498Y-76865205D01*
X158550462Y-76860770D01*
X158584228Y-76843958D01*
X158584519Y-76843638D01*
X158605576Y-76826151D01*
X158605952Y-76825919D01*
X158628671Y-76795831D01*
X158634515Y-76788795D01*
X158638407Y-76784526D01*
X158659916Y-76760933D01*
X158660076Y-76760521D01*
X158673395Y-76736609D01*
X158673656Y-76736264D01*
X158683976Y-76699989D01*
X158686869Y-76691354D01*
X158700500Y-76656173D01*
X158700500Y-76655726D01*
X158704279Y-76628635D01*
X158704401Y-76628207D01*
X158700922Y-76590662D01*
X158700500Y-76581528D01*
X158700500Y-74399500D01*
X158719407Y-74341309D01*
X158768907Y-74305345D01*
X158799500Y-74300500D01*
X174600500Y-74300500D01*
X174658691Y-74319407D01*
X174694655Y-74368907D01*
X174699500Y-74399500D01*
X174699500Y-133600500D01*
X174680593Y-133658691D01*
X174631093Y-133694655D01*
X174600500Y-133699500D01*
X133099000Y-133699500D01*
X133040809Y-133680593D01*
X133004845Y-133631093D01*
X133000000Y-133600500D01*
X133000000Y-132832969D01*
X157069500Y-132832969D01*
X157069501Y-132832986D01*
X157085078Y-132961281D01*
X157085079Y-132961282D01*
X157146263Y-133122611D01*
X157244275Y-133264607D01*
X157244276Y-133264608D01*
X157244277Y-133264609D01*
X157373426Y-133379024D01*
X157526203Y-133459208D01*
X157693730Y-133500500D01*
X157693733Y-133500500D01*
X157866267Y-133500500D01*
X157866270Y-133500500D01*
X158033797Y-133459208D01*
X158186574Y-133379024D01*
X158315723Y-133264609D01*
X158413737Y-133122611D01*
X158474921Y-132961283D01*
X158490500Y-132832975D01*
X158490500Y-132832969D01*
X165709500Y-132832969D01*
X165709501Y-132832986D01*
X165725078Y-132961281D01*
X165725079Y-132961282D01*
X165786263Y-133122611D01*
X165884275Y-133264607D01*
X165884276Y-133264608D01*
X165884277Y-133264609D01*
X166013426Y-133379024D01*
X166166203Y-133459208D01*
X166333730Y-133500500D01*
X166333733Y-133500500D01*
X166506267Y-133500500D01*
X166506270Y-133500500D01*
X166673797Y-133459208D01*
X166826574Y-133379024D01*
X166955723Y-133264609D01*
X167053737Y-133122611D01*
X167114921Y-132961283D01*
X167130500Y-132832975D01*
X167130500Y-131947025D01*
X167114921Y-131818717D01*
X167053737Y-131657389D01*
X166955723Y-131515391D01*
X166826574Y-131400976D01*
X166673797Y-131320792D01*
X166673796Y-131320791D01*
X166673795Y-131320791D01*
X166506272Y-131279500D01*
X166506270Y-131279500D01*
X166333730Y-131279500D01*
X166333727Y-131279500D01*
X166166204Y-131320791D01*
X166013424Y-131400977D01*
X165884275Y-131515392D01*
X165786263Y-131657388D01*
X165725079Y-131818717D01*
X165725078Y-131818718D01*
X165709501Y-131947013D01*
X165709500Y-131947030D01*
X165709500Y-132832969D01*
X158490500Y-132832969D01*
X158490500Y-131947025D01*
X158474921Y-131818717D01*
X158413737Y-131657389D01*
X158315723Y-131515391D01*
X158186574Y-131400976D01*
X158033797Y-131320792D01*
X158033796Y-131320791D01*
X158033795Y-131320791D01*
X157866272Y-131279500D01*
X157866270Y-131279500D01*
X157693730Y-131279500D01*
X157693727Y-131279500D01*
X157526204Y-131320791D01*
X157373424Y-131400977D01*
X157244275Y-131515392D01*
X157146263Y-131657388D01*
X157085079Y-131818717D01*
X157085078Y-131818718D01*
X157069501Y-131947013D01*
X157069500Y-131947030D01*
X157069500Y-132832969D01*
X133000000Y-132832969D01*
X133000000Y-131000000D01*
X169494645Y-131000000D01*
X169514038Y-131271154D01*
X169514038Y-131271157D01*
X169514039Y-131271160D01*
X169542279Y-131400977D01*
X169571826Y-131536805D01*
X169666828Y-131791514D01*
X169666832Y-131791522D01*
X169797106Y-132030102D01*
X169797109Y-132030106D01*
X169797113Y-132030113D01*
X169960029Y-132247742D01*
X170152258Y-132439971D01*
X170369887Y-132602887D01*
X170369894Y-132602891D01*
X170369897Y-132602893D01*
X170608477Y-132733167D01*
X170608485Y-132733171D01*
X170608487Y-132733172D01*
X170863199Y-132828175D01*
X171128840Y-132885961D01*
X171400000Y-132905355D01*
X171671160Y-132885961D01*
X171936801Y-132828175D01*
X172191513Y-132733172D01*
X172430113Y-132602887D01*
X172647742Y-132439971D01*
X172839971Y-132247742D01*
X173002887Y-132030113D01*
X173133172Y-131791513D01*
X173228175Y-131536801D01*
X173285961Y-131271160D01*
X173305355Y-131000000D01*
X173285961Y-130728840D01*
X173228175Y-130463199D01*
X173133172Y-130208487D01*
X173133167Y-130208477D01*
X173002893Y-129969897D01*
X173002891Y-129969894D01*
X173002887Y-129969887D01*
X172839971Y-129752258D01*
X172647742Y-129560029D01*
X172430113Y-129397113D01*
X172430106Y-129397109D01*
X172430102Y-129397106D01*
X172191522Y-129266832D01*
X172191514Y-129266828D01*
X171936805Y-129171826D01*
X171936801Y-129171825D01*
X171671160Y-129114039D01*
X171671157Y-129114038D01*
X171671154Y-129114038D01*
X171400000Y-129094645D01*
X171128845Y-129114038D01*
X170863194Y-129171826D01*
X170608485Y-129266828D01*
X170608477Y-129266832D01*
X170369897Y-129397106D01*
X170369889Y-129397111D01*
X170369887Y-129397113D01*
X170279502Y-129464775D01*
X170152260Y-129560027D01*
X169960027Y-129752260D01*
X169797106Y-129969897D01*
X169666832Y-130208477D01*
X169666828Y-130208485D01*
X169571826Y-130463194D01*
X169514038Y-130728845D01*
X169494645Y-131000000D01*
X133000000Y-131000000D01*
X133000000Y-127124999D01*
X135154354Y-127124999D01*
X135154355Y-127125000D01*
X135915595Y-127125000D01*
X135900000Y-127178111D01*
X135900000Y-127321889D01*
X135915595Y-127375000D01*
X135155517Y-127375000D01*
X135176415Y-127529275D01*
X135245945Y-127743269D01*
X135352565Y-127941401D01*
X135492855Y-128117320D01*
X135662299Y-128265358D01*
X135662303Y-128265361D01*
X135855443Y-128380758D01*
X135855457Y-128380765D01*
X136066101Y-128459820D01*
X136066118Y-128459825D01*
X136287491Y-128499998D01*
X136287504Y-128500000D01*
X137274999Y-128500000D01*
X137275000Y-128499999D01*
X137275000Y-127750000D01*
X137525000Y-127750000D01*
X137525000Y-128499999D01*
X137525001Y-128500000D01*
X138456129Y-128500000D01*
X138456154Y-128499998D01*
X138624090Y-128484884D01*
X138624101Y-128484882D01*
X138840992Y-128425023D01*
X138840999Y-128425020D01*
X139043712Y-128327399D01*
X139051555Y-128321701D01*
X153618971Y-128321701D01*
X153639767Y-128492981D01*
X153639768Y-128492983D01*
X153691849Y-128630308D01*
X153700952Y-128654311D01*
X153798964Y-128796307D01*
X153798965Y-128796308D01*
X153798966Y-128796309D01*
X153928115Y-128910724D01*
X154080892Y-128990908D01*
X154248419Y-129032200D01*
X154248422Y-129032200D01*
X154420956Y-129032200D01*
X154420959Y-129032200D01*
X154588486Y-128990908D01*
X154741263Y-128910724D01*
X154862894Y-128802969D01*
X157069500Y-128802969D01*
X157069501Y-128802986D01*
X157085078Y-128931281D01*
X157085079Y-128931283D01*
X157121584Y-129027537D01*
X157146263Y-129092611D01*
X157244275Y-129234607D01*
X157244276Y-129234608D01*
X157244277Y-129234609D01*
X157373426Y-129349024D01*
X157526203Y-129429208D01*
X157693730Y-129470500D01*
X157693733Y-129470500D01*
X157866267Y-129470500D01*
X157866270Y-129470500D01*
X158033797Y-129429208D01*
X158186574Y-129349024D01*
X158315723Y-129234609D01*
X158413737Y-129092611D01*
X158474921Y-128931283D01*
X158484877Y-128849286D01*
X158510660Y-128793799D01*
X158564134Y-128764063D01*
X158624874Y-128771438D01*
X158669678Y-128813107D01*
X158680084Y-128841077D01*
X158691162Y-128894388D01*
X158691163Y-128894393D01*
X158710278Y-128931283D01*
X158760153Y-129027537D01*
X158862505Y-129137129D01*
X158990629Y-129215043D01*
X159135023Y-129255500D01*
X159135024Y-129255500D01*
X159247310Y-129255500D01*
X159247316Y-129255500D01*
X159358558Y-129240210D01*
X159496098Y-129180468D01*
X159612419Y-129085834D01*
X159698895Y-128963325D01*
X159716531Y-128913702D01*
X160686785Y-128913702D01*
X160704753Y-129038675D01*
X160704754Y-129038678D01*
X160704754Y-129038679D01*
X160704755Y-129038681D01*
X160749444Y-129136538D01*
X160757208Y-129153538D01*
X160792932Y-129194765D01*
X160839894Y-129248962D01*
X160839896Y-129248963D01*
X160839897Y-129248964D01*
X160933491Y-129309113D01*
X160946116Y-129317226D01*
X161067267Y-129352800D01*
X161067268Y-129352800D01*
X161193532Y-129352800D01*
X161193533Y-129352800D01*
X161314684Y-129317226D01*
X161420906Y-129248962D01*
X161503593Y-129153536D01*
X161556045Y-129038681D01*
X161566880Y-128963325D01*
X161574015Y-128913702D01*
X161574015Y-128913696D01*
X161571572Y-128896702D01*
X161771185Y-128896702D01*
X161789153Y-129021675D01*
X161789154Y-129021678D01*
X161789154Y-129021679D01*
X161789155Y-129021681D01*
X161822476Y-129094645D01*
X161841608Y-129136538D01*
X161856339Y-129153538D01*
X161924294Y-129231962D01*
X161924296Y-129231963D01*
X161924297Y-129231964D01*
X161989025Y-129273562D01*
X162030516Y-129300226D01*
X162151667Y-129335800D01*
X162151668Y-129335800D01*
X162277932Y-129335800D01*
X162277933Y-129335800D01*
X162399084Y-129300226D01*
X162448967Y-129268168D01*
X162508141Y-129252614D01*
X162565157Y-129274813D01*
X162593053Y-129311464D01*
X162602575Y-129333029D01*
X162602576Y-129333030D01*
X162602577Y-129333032D01*
X162608835Y-129339290D01*
X162622997Y-129357169D01*
X162627656Y-129364694D01*
X162627657Y-129364695D01*
X162649059Y-129380857D01*
X162659401Y-129389856D01*
X162777927Y-129508382D01*
X162786925Y-129518722D01*
X162792246Y-129525768D01*
X162825250Y-129555855D01*
X162828555Y-129559011D01*
X162841055Y-129571511D01*
X162841550Y-129571921D01*
X162851641Y-129579913D01*
X162871458Y-129597979D01*
X162879705Y-129601174D01*
X162899890Y-129611813D01*
X162907190Y-129616814D01*
X162933307Y-129622956D01*
X162946388Y-129627007D01*
X162971407Y-129636700D01*
X162980253Y-129636700D01*
X163002919Y-129639329D01*
X163011530Y-129641355D01*
X163038099Y-129637649D01*
X163051775Y-129636700D01*
X163420941Y-129636700D01*
X163479132Y-129655607D01*
X163495759Y-129670868D01*
X163499392Y-129675060D01*
X163499393Y-129675062D01*
X163569696Y-129720242D01*
X163605616Y-129743326D01*
X163726767Y-129778900D01*
X163726768Y-129778900D01*
X163853032Y-129778900D01*
X163853033Y-129778900D01*
X163974184Y-129743326D01*
X164080406Y-129675062D01*
X164163093Y-129579636D01*
X164215545Y-129464781D01*
X164220660Y-129429208D01*
X164233515Y-129339802D01*
X164233515Y-129339797D01*
X164215546Y-129214824D01*
X164215545Y-129214821D01*
X164215545Y-129214819D01*
X164163093Y-129099964D01*
X164163091Y-129099962D01*
X164163091Y-129099961D01*
X164104374Y-129032199D01*
X164080406Y-129004538D01*
X164080403Y-129004536D01*
X164080402Y-129004535D01*
X163974185Y-128936274D01*
X163853034Y-128900700D01*
X163846027Y-128899693D01*
X163846231Y-128898272D01*
X163795513Y-128881793D01*
X163759549Y-128832293D01*
X163755712Y-128815789D01*
X163749146Y-128770124D01*
X163749145Y-128770121D01*
X163749145Y-128770119D01*
X163738850Y-128747576D01*
X164440655Y-128747576D01*
X164471162Y-128894388D01*
X164471163Y-128894393D01*
X164490278Y-128931283D01*
X164540153Y-129027537D01*
X164642505Y-129137129D01*
X164770629Y-129215043D01*
X164915023Y-129255500D01*
X164915024Y-129255500D01*
X165027310Y-129255500D01*
X165027316Y-129255500D01*
X165138558Y-129240210D01*
X165276098Y-129180468D01*
X165392419Y-129085834D01*
X165478895Y-128963325D01*
X165524428Y-128835207D01*
X165561731Y-128786709D01*
X165620416Y-128769398D01*
X165678069Y-128789888D01*
X165712667Y-128840352D01*
X165715990Y-128856428D01*
X165725078Y-128931281D01*
X165725079Y-128931283D01*
X165761584Y-129027537D01*
X165786263Y-129092611D01*
X165884275Y-129234607D01*
X165884276Y-129234608D01*
X165884277Y-129234609D01*
X166013426Y-129349024D01*
X166166203Y-129429208D01*
X166333730Y-129470500D01*
X166333733Y-129470500D01*
X166506267Y-129470500D01*
X166506270Y-129470500D01*
X166673797Y-129429208D01*
X166826574Y-129349024D01*
X166955723Y-129234609D01*
X167053737Y-129092611D01*
X167114921Y-128931283D01*
X167130500Y-128802975D01*
X167130500Y-127617025D01*
X167114921Y-127488717D01*
X167053737Y-127327389D01*
X166955723Y-127185391D01*
X166826574Y-127070976D01*
X166673797Y-126990792D01*
X166673796Y-126990791D01*
X166673795Y-126990791D01*
X166506272Y-126949500D01*
X166506270Y-126949500D01*
X166333730Y-126949500D01*
X166333727Y-126949500D01*
X166166204Y-126990791D01*
X166013424Y-127070977D01*
X165884275Y-127185392D01*
X165786263Y-127327388D01*
X165725079Y-127488717D01*
X165725078Y-127488718D01*
X165709501Y-127617013D01*
X165709500Y-127617030D01*
X165709500Y-128528247D01*
X165690593Y-128586438D01*
X165641093Y-128622402D01*
X165579907Y-128622402D01*
X165530407Y-128586438D01*
X165513571Y-128548389D01*
X165508837Y-128525611D01*
X165508836Y-128525606D01*
X165495568Y-128500000D01*
X165439847Y-128392463D01*
X165337495Y-128282871D01*
X165209371Y-128204957D01*
X165209370Y-128204956D01*
X165209369Y-128204956D01*
X165064977Y-128164500D01*
X164952684Y-128164500D01*
X164841441Y-128179789D01*
X164703903Y-128239531D01*
X164587578Y-128334168D01*
X164501105Y-128456674D01*
X164450887Y-128597970D01*
X164440655Y-128747576D01*
X163738850Y-128747576D01*
X163696693Y-128655264D01*
X163696691Y-128655262D01*
X163696691Y-128655261D01*
X163647048Y-128597971D01*
X163614006Y-128559838D01*
X163614003Y-128559836D01*
X163614002Y-128559835D01*
X163507785Y-128491574D01*
X163386634Y-128456000D01*
X163386633Y-128456000D01*
X163260367Y-128456000D01*
X163260366Y-128456000D01*
X163260357Y-128456001D01*
X163256786Y-128457050D01*
X163253681Y-128456961D01*
X163253356Y-128457008D01*
X163253347Y-128456951D01*
X163195626Y-128455300D01*
X163147175Y-128417934D01*
X163129900Y-128362059D01*
X163129900Y-124936363D01*
X163148807Y-124878172D01*
X163158896Y-124866359D01*
X163768559Y-124256696D01*
X163823076Y-124228919D01*
X163838563Y-124227700D01*
X163894332Y-124227700D01*
X163894333Y-124227700D01*
X164015484Y-124192126D01*
X164121706Y-124123862D01*
X164204393Y-124028436D01*
X164256845Y-123913581D01*
X164256846Y-123913575D01*
X164271724Y-123810102D01*
X167628285Y-123810102D01*
X167646253Y-123935075D01*
X167646254Y-123935078D01*
X167646254Y-123935079D01*
X167646255Y-123935081D01*
X167688889Y-124028438D01*
X167698708Y-124049938D01*
X167740050Y-124097649D01*
X167781394Y-124145362D01*
X167887616Y-124213626D01*
X168008767Y-124249200D01*
X168008768Y-124249200D01*
X168135032Y-124249200D01*
X168135033Y-124249200D01*
X168256184Y-124213626D01*
X168362406Y-124145362D01*
X168445093Y-124049936D01*
X168497545Y-123935081D01*
X168510649Y-123843942D01*
X168515515Y-123810102D01*
X168515515Y-123810097D01*
X168497546Y-123685124D01*
X168497545Y-123685121D01*
X168497545Y-123685119D01*
X168445093Y-123570264D01*
X168445091Y-123570262D01*
X168445091Y-123570261D01*
X168411277Y-123531239D01*
X168362406Y-123474838D01*
X168362403Y-123474836D01*
X168362402Y-123474835D01*
X168256185Y-123406574D01*
X168135034Y-123371000D01*
X168135033Y-123371000D01*
X168008767Y-123371000D01*
X168008765Y-123371000D01*
X167887614Y-123406574D01*
X167781397Y-123474835D01*
X167781393Y-123474839D01*
X167698708Y-123570261D01*
X167646254Y-123685121D01*
X167646253Y-123685124D01*
X167628285Y-123810097D01*
X167628285Y-123810102D01*
X164271724Y-123810102D01*
X164274815Y-123788602D01*
X164274815Y-123788597D01*
X164256846Y-123663624D01*
X164256845Y-123663621D01*
X164256845Y-123663619D01*
X164204393Y-123548764D01*
X164204391Y-123548762D01*
X164204391Y-123548761D01*
X164170577Y-123509739D01*
X164121706Y-123453338D01*
X164121703Y-123453336D01*
X164121702Y-123453335D01*
X164015485Y-123385074D01*
X163894334Y-123349500D01*
X163894333Y-123349500D01*
X163768067Y-123349500D01*
X163768065Y-123349500D01*
X163646914Y-123385074D01*
X163540697Y-123453335D01*
X163540693Y-123453339D01*
X163458008Y-123548761D01*
X163405554Y-123663621D01*
X163405553Y-123663624D01*
X163386577Y-123795607D01*
X163384480Y-123795305D01*
X163368678Y-123843942D01*
X163358589Y-123855755D01*
X162684810Y-124529533D01*
X162674470Y-124538530D01*
X162667432Y-124543844D01*
X162637332Y-124576862D01*
X162634180Y-124580163D01*
X162621690Y-124592654D01*
X162621310Y-124593111D01*
X162613292Y-124603233D01*
X162595223Y-124623054D01*
X162595222Y-124623056D01*
X162592024Y-124631310D01*
X162581389Y-124651486D01*
X162576385Y-124658790D01*
X162576384Y-124658793D01*
X162570242Y-124684903D01*
X162566190Y-124697987D01*
X162556500Y-124723004D01*
X162556500Y-124731853D01*
X162553870Y-124754521D01*
X162551845Y-124763129D01*
X162555551Y-124789697D01*
X162556500Y-124803374D01*
X162556500Y-128413034D01*
X162537593Y-128471225D01*
X162488093Y-128507189D01*
X162426907Y-128507189D01*
X162403978Y-128496319D01*
X162399084Y-128493174D01*
X162277934Y-128457600D01*
X162277933Y-128457600D01*
X162151667Y-128457600D01*
X162151665Y-128457600D01*
X162030514Y-128493174D01*
X161924297Y-128561435D01*
X161924293Y-128561439D01*
X161841608Y-128656861D01*
X161789154Y-128771721D01*
X161789153Y-128771724D01*
X161771185Y-128896697D01*
X161771185Y-128896702D01*
X161571572Y-128896702D01*
X161556046Y-128788724D01*
X161556045Y-128788721D01*
X161556045Y-128788719D01*
X161503593Y-128673864D01*
X161503591Y-128673862D01*
X161503591Y-128673861D01*
X161469777Y-128634839D01*
X161420906Y-128578438D01*
X161420903Y-128578436D01*
X161420902Y-128578435D01*
X161314685Y-128510174D01*
X161193534Y-128474600D01*
X161193533Y-128474600D01*
X161067267Y-128474600D01*
X161067265Y-128474600D01*
X160946114Y-128510174D01*
X160839897Y-128578435D01*
X160839893Y-128578439D01*
X160757208Y-128673861D01*
X160704754Y-128788721D01*
X160704753Y-128788724D01*
X160686785Y-128913697D01*
X160686785Y-128913702D01*
X159716531Y-128913702D01*
X159749112Y-128822029D01*
X159759345Y-128672424D01*
X159750593Y-128630308D01*
X159728837Y-128525611D01*
X159728836Y-128525606D01*
X159715568Y-128500000D01*
X159659847Y-128392463D01*
X159557495Y-128282871D01*
X159429371Y-128204957D01*
X159429370Y-128204956D01*
X159429369Y-128204956D01*
X159284977Y-128164500D01*
X159172684Y-128164500D01*
X159061441Y-128179789D01*
X158923903Y-128239531D01*
X158807578Y-128334168D01*
X158721106Y-128456673D01*
X158721105Y-128456675D01*
X158705708Y-128499998D01*
X158682784Y-128564499D01*
X158645481Y-128612998D01*
X158586795Y-128630308D01*
X158529143Y-128609818D01*
X158494545Y-128559354D01*
X158490500Y-128531345D01*
X158490500Y-127617030D01*
X158490500Y-127617025D01*
X158474921Y-127488717D01*
X158413737Y-127327389D01*
X158315723Y-127185391D01*
X158186574Y-127070976D01*
X158033797Y-126990792D01*
X158033796Y-126990791D01*
X158033795Y-126990791D01*
X157866272Y-126949500D01*
X157866270Y-126949500D01*
X157693730Y-126949500D01*
X157693727Y-126949500D01*
X157526204Y-126990791D01*
X157373424Y-127070977D01*
X157244275Y-127185392D01*
X157146263Y-127327388D01*
X157085079Y-127488717D01*
X157085078Y-127488718D01*
X157069501Y-127617013D01*
X157069500Y-127617030D01*
X157069500Y-128802969D01*
X154862894Y-128802969D01*
X154870412Y-128796309D01*
X154968426Y-128654311D01*
X155029610Y-128492983D01*
X155050407Y-128321700D01*
X155045692Y-128282871D01*
X155029610Y-128150418D01*
X155029610Y-128150417D01*
X154968426Y-127989089D01*
X154870412Y-127847091D01*
X154741263Y-127732676D01*
X154588486Y-127652492D01*
X154588485Y-127652491D01*
X154588484Y-127652491D01*
X154420961Y-127611200D01*
X154420959Y-127611200D01*
X154248419Y-127611200D01*
X154248416Y-127611200D01*
X154080893Y-127652491D01*
X153928113Y-127732677D01*
X153798964Y-127847092D01*
X153700952Y-127989088D01*
X153639768Y-128150417D01*
X153639767Y-128150418D01*
X153618971Y-128321698D01*
X153618971Y-128321701D01*
X139051555Y-128321701D01*
X139225748Y-128195142D01*
X139381235Y-128032516D01*
X139381235Y-128032515D01*
X139505194Y-127844726D01*
X139505197Y-127844722D01*
X139593624Y-127637833D01*
X139593625Y-127637832D01*
X139643691Y-127418473D01*
X139643693Y-127418458D01*
X139645645Y-127375000D01*
X138884405Y-127375000D01*
X138900000Y-127321889D01*
X138900000Y-127178111D01*
X138884405Y-127125000D01*
X139644482Y-127125000D01*
X139628661Y-127008202D01*
X151337385Y-127008202D01*
X151355353Y-127133175D01*
X151355354Y-127133178D01*
X151355354Y-127133179D01*
X151355355Y-127133181D01*
X151379199Y-127185392D01*
X151407808Y-127248038D01*
X151449150Y-127295749D01*
X151490494Y-127343462D01*
X151490496Y-127343463D01*
X151490497Y-127343464D01*
X151539568Y-127375000D01*
X151596716Y-127411726D01*
X151717867Y-127447300D01*
X151717868Y-127447300D01*
X151844132Y-127447300D01*
X151844133Y-127447300D01*
X151965284Y-127411726D01*
X152071506Y-127343462D01*
X152154193Y-127248036D01*
X152206645Y-127133181D01*
X152207821Y-127125000D01*
X152224615Y-127008202D01*
X152224615Y-127008197D01*
X152206646Y-126883224D01*
X152206645Y-126883221D01*
X152206645Y-126883219D01*
X152154193Y-126768364D01*
X152154191Y-126768362D01*
X152154191Y-126768361D01*
X152089865Y-126694126D01*
X152071506Y-126672938D01*
X152071503Y-126672936D01*
X152071502Y-126672935D01*
X151965285Y-126604674D01*
X151844134Y-126569100D01*
X151844133Y-126569100D01*
X151717867Y-126569100D01*
X151717865Y-126569100D01*
X151596714Y-126604674D01*
X151490497Y-126672935D01*
X151490493Y-126672939D01*
X151407808Y-126768361D01*
X151355354Y-126883221D01*
X151355353Y-126883224D01*
X151337385Y-127008197D01*
X151337385Y-127008202D01*
X139628661Y-127008202D01*
X139623584Y-126970724D01*
X139554054Y-126756730D01*
X139447434Y-126558598D01*
X139307144Y-126382679D01*
X139137700Y-126234641D01*
X139137696Y-126234638D01*
X138944556Y-126119241D01*
X138944542Y-126119234D01*
X138733898Y-126040179D01*
X138733881Y-126040174D01*
X138512508Y-126000001D01*
X138512496Y-126000000D01*
X137525001Y-126000000D01*
X137525000Y-126000001D01*
X137525000Y-126750000D01*
X137275000Y-126750000D01*
X137275000Y-126000001D01*
X137274999Y-126000000D01*
X136343871Y-126000000D01*
X136343845Y-126000001D01*
X136175909Y-126015115D01*
X136175898Y-126015117D01*
X135959007Y-126074976D01*
X135959000Y-126074979D01*
X135756287Y-126172600D01*
X135574251Y-126304857D01*
X135418764Y-126467483D01*
X135418764Y-126467484D01*
X135294805Y-126655273D01*
X135294802Y-126655277D01*
X135206375Y-126862166D01*
X135206374Y-126862167D01*
X135156308Y-127081526D01*
X135156306Y-127081541D01*
X135154354Y-127124999D01*
X133000000Y-127124999D01*
X133000000Y-125406129D01*
X140850000Y-125406129D01*
X140850001Y-125406154D01*
X140865115Y-125574090D01*
X140865117Y-125574101D01*
X140924976Y-125790992D01*
X140924979Y-125790999D01*
X141022600Y-125993712D01*
X141154857Y-126175748D01*
X141317484Y-126331235D01*
X141505273Y-126455194D01*
X141505277Y-126455197D01*
X141712166Y-126543624D01*
X141712167Y-126543625D01*
X141931526Y-126593691D01*
X141931541Y-126593693D01*
X141974999Y-126595645D01*
X141975000Y-126595645D01*
X141975000Y-125734405D01*
X142028111Y-125750000D01*
X142171889Y-125750000D01*
X142225000Y-125734405D01*
X142225000Y-126594482D01*
X142379275Y-126573584D01*
X142593269Y-126504054D01*
X142791401Y-126397434D01*
X142967320Y-126257144D01*
X143115358Y-126087700D01*
X143115361Y-126087696D01*
X143230758Y-125894556D01*
X143230765Y-125894542D01*
X143309820Y-125683898D01*
X143309825Y-125683881D01*
X143349998Y-125462508D01*
X143350000Y-125462496D01*
X143350000Y-124375001D01*
X143349999Y-124375000D01*
X142600000Y-124375000D01*
X142600000Y-124125000D01*
X143349999Y-124125000D01*
X143350000Y-124124999D01*
X143350000Y-123093870D01*
X143349998Y-123093845D01*
X143334884Y-122925909D01*
X143334882Y-122925898D01*
X143275023Y-122709007D01*
X143275020Y-122709000D01*
X143177399Y-122506287D01*
X143045142Y-122324251D01*
X142882515Y-122168764D01*
X142694726Y-122044805D01*
X142694722Y-122044802D01*
X142487833Y-121956375D01*
X142487832Y-121956374D01*
X142268465Y-121906306D01*
X142268466Y-121906306D01*
X142225000Y-121904353D01*
X142225000Y-122765594D01*
X142171889Y-122750000D01*
X142028111Y-122750000D01*
X141975000Y-122765594D01*
X141975000Y-121905516D01*
X141974999Y-121905516D01*
X141820727Y-121926414D01*
X141606732Y-121995945D01*
X141408598Y-122102565D01*
X141232679Y-122242855D01*
X141084641Y-122412299D01*
X141084638Y-122412303D01*
X140969241Y-122605443D01*
X140969234Y-122605457D01*
X140890179Y-122816101D01*
X140890174Y-122816118D01*
X140850001Y-123037491D01*
X140850000Y-123037503D01*
X140850000Y-124124999D01*
X140850001Y-124125000D01*
X141600000Y-124125000D01*
X141600000Y-124375000D01*
X140850001Y-124375000D01*
X140850000Y-124375001D01*
X140850000Y-125406129D01*
X133000000Y-125406129D01*
X133000000Y-122270728D01*
X134939500Y-122270728D01*
X134939501Y-122270738D01*
X134951712Y-122332131D01*
X134951713Y-122332134D01*
X134998235Y-122401758D01*
X134998238Y-122401762D01*
X134998241Y-122401764D01*
X135067866Y-122448287D01*
X135083111Y-122451319D01*
X135129267Y-122460500D01*
X139670732Y-122460499D01*
X139670736Y-122460498D01*
X139670738Y-122460498D01*
X139690817Y-122456504D01*
X139732133Y-122448287D01*
X139801762Y-122401762D01*
X139848287Y-122332133D01*
X139860500Y-122270733D01*
X139860499Y-120229268D01*
X139848287Y-120167867D01*
X139801762Y-120098238D01*
X139801758Y-120098235D01*
X139732133Y-120051712D01*
X139670734Y-120039500D01*
X135129271Y-120039500D01*
X135129261Y-120039501D01*
X135067868Y-120051712D01*
X135067865Y-120051713D01*
X134998241Y-120098235D01*
X134998235Y-120098241D01*
X134951712Y-120167866D01*
X134939500Y-120229264D01*
X134939500Y-122270728D01*
X133000000Y-122270728D01*
X133000000Y-114579402D01*
X140246985Y-114579402D01*
X140264953Y-114704375D01*
X140264954Y-114704378D01*
X140264954Y-114704379D01*
X140264955Y-114704381D01*
X140268264Y-114711626D01*
X140317408Y-114819238D01*
X140358750Y-114866949D01*
X140400094Y-114914662D01*
X140506316Y-114982926D01*
X140627467Y-115018500D01*
X140627468Y-115018500D01*
X140753732Y-115018500D01*
X140753733Y-115018500D01*
X140874884Y-114982926D01*
X140981106Y-114914662D01*
X141063793Y-114819236D01*
X141116245Y-114704381D01*
X141116246Y-114704375D01*
X141134215Y-114579402D01*
X141134215Y-114579397D01*
X141116246Y-114454424D01*
X141116245Y-114454421D01*
X141116245Y-114454419D01*
X141063793Y-114339564D01*
X141063791Y-114339562D01*
X141063791Y-114339561D01*
X141029977Y-114300539D01*
X140981106Y-114244138D01*
X140981103Y-114244136D01*
X140981102Y-114244135D01*
X140874885Y-114175874D01*
X140753734Y-114140300D01*
X140753733Y-114140300D01*
X140627467Y-114140300D01*
X140627465Y-114140300D01*
X140506314Y-114175874D01*
X140400097Y-114244135D01*
X140400093Y-114244139D01*
X140317408Y-114339561D01*
X140264954Y-114454421D01*
X140264953Y-114454424D01*
X140246985Y-114579397D01*
X140246985Y-114579402D01*
X133000000Y-114579402D01*
X133000000Y-112892037D01*
X133018907Y-112833846D01*
X133068407Y-112797882D01*
X133074841Y-112796556D01*
X133074838Y-112796545D01*
X133083656Y-112794036D01*
X133083657Y-112794035D01*
X133083660Y-112794035D01*
X133084054Y-112793838D01*
X133110000Y-112785141D01*
X133110433Y-112785061D01*
X133142498Y-112765205D01*
X133150462Y-112760770D01*
X133184228Y-112743958D01*
X133184519Y-112743638D01*
X133205576Y-112726151D01*
X133205952Y-112725919D01*
X133228671Y-112695831D01*
X133234515Y-112688795D01*
X133259916Y-112660933D01*
X133260076Y-112660521D01*
X133273395Y-112636609D01*
X133273656Y-112636264D01*
X133283976Y-112599989D01*
X133286869Y-112591354D01*
X133300500Y-112556173D01*
X133300500Y-112555726D01*
X133304279Y-112528635D01*
X133304401Y-112528207D01*
X133300922Y-112490662D01*
X133300500Y-112481528D01*
X133300500Y-90314314D01*
X133319407Y-90256123D01*
X133368907Y-90220159D01*
X133430093Y-90220159D01*
X133474316Y-90249480D01*
X133506794Y-90286962D01*
X133506796Y-90286963D01*
X133506797Y-90286964D01*
X133590571Y-90340802D01*
X133613016Y-90355226D01*
X133734167Y-90390800D01*
X133734168Y-90390800D01*
X133747407Y-90390800D01*
X133805598Y-90409707D01*
X133841562Y-90459207D01*
X133845560Y-90502722D01*
X133830015Y-90620799D01*
X133830015Y-90620800D01*
X133849470Y-90768581D01*
X133849471Y-90768582D01*
X133906510Y-90906289D01*
X133906512Y-90906293D01*
X133968412Y-90986962D01*
X133997253Y-91024547D01*
X134115507Y-91115288D01*
X134253218Y-91172329D01*
X134400999Y-91191785D01*
X134401000Y-91191785D01*
X134401001Y-91191785D01*
X134474891Y-91182057D01*
X134548782Y-91172329D01*
X134686493Y-91115288D01*
X134804747Y-91024547D01*
X134895488Y-90906293D01*
X134895490Y-90906286D01*
X134898731Y-90900675D01*
X134900199Y-90901522D01*
X134934616Y-90861214D01*
X134994109Y-90846922D01*
X135050640Y-90870329D01*
X135056359Y-90875614D01*
X137054104Y-92873359D01*
X137081881Y-92927876D01*
X137083100Y-92943363D01*
X137083100Y-107258020D01*
X137064193Y-107316211D01*
X137058920Y-107322851D01*
X136996607Y-107394764D01*
X136944154Y-107509621D01*
X136944153Y-107509624D01*
X136926185Y-107634597D01*
X136926185Y-107634602D01*
X136944153Y-107759575D01*
X136944154Y-107759578D01*
X136944154Y-107759579D01*
X136944155Y-107759581D01*
X136996607Y-107874436D01*
X136996608Y-107874438D01*
X137037950Y-107922149D01*
X137079294Y-107969862D01*
X137079296Y-107969863D01*
X137079297Y-107969864D01*
X137144235Y-108011597D01*
X137185516Y-108038126D01*
X137306667Y-108073700D01*
X137306668Y-108073700D01*
X137432932Y-108073700D01*
X137432933Y-108073700D01*
X137554084Y-108038126D01*
X137617268Y-107997519D01*
X137676440Y-107981966D01*
X137733457Y-108004165D01*
X137745607Y-108015973D01*
X137799494Y-108078162D01*
X137799496Y-108078163D01*
X137799497Y-108078164D01*
X137890396Y-108136581D01*
X137905716Y-108146426D01*
X138026867Y-108182000D01*
X138026868Y-108182000D01*
X138153132Y-108182000D01*
X138153133Y-108182000D01*
X138274284Y-108146426D01*
X138380506Y-108078162D01*
X138463193Y-107982736D01*
X138515645Y-107867881D01*
X138529465Y-107771764D01*
X138532108Y-107753384D01*
X138536769Y-107743901D01*
X138532108Y-107732415D01*
X138515646Y-107617924D01*
X138515645Y-107617921D01*
X138515645Y-107617919D01*
X138463193Y-107503064D01*
X138463191Y-107503062D01*
X138463191Y-107503061D01*
X138413656Y-107445895D01*
X138380506Y-107407638D01*
X138380503Y-107407636D01*
X138380502Y-107407635D01*
X138274285Y-107339374D01*
X138153134Y-107303800D01*
X138153133Y-107303800D01*
X138026867Y-107303800D01*
X138026865Y-107303800D01*
X137905717Y-107339373D01*
X137842533Y-107379979D01*
X137783357Y-107395532D01*
X137726341Y-107373333D01*
X137714190Y-107361524D01*
X137680680Y-107322850D01*
X137656863Y-107266490D01*
X137656500Y-107258020D01*
X137656500Y-92846308D01*
X137657449Y-92832630D01*
X137658666Y-92823898D01*
X137658668Y-92823895D01*
X137656606Y-92779291D01*
X137656500Y-92774719D01*
X137656500Y-92757039D01*
X137656441Y-92756404D01*
X137654956Y-92743620D01*
X137653718Y-92716823D01*
X137650144Y-92708729D01*
X137643395Y-92686934D01*
X137641770Y-92678238D01*
X137627644Y-92655424D01*
X137621258Y-92643309D01*
X137610423Y-92618768D01*
X137604161Y-92612506D01*
X137590001Y-92594628D01*
X137585344Y-92587106D01*
X137563940Y-92570942D01*
X137553598Y-92561943D01*
X135037357Y-90045702D01*
X135750385Y-90045702D01*
X135768353Y-90170675D01*
X135768354Y-90170678D01*
X135768354Y-90170679D01*
X135768355Y-90170681D01*
X135807375Y-90256123D01*
X135820808Y-90285538D01*
X135852685Y-90322325D01*
X135903494Y-90380962D01*
X135903496Y-90380963D01*
X135903497Y-90380964D01*
X135948222Y-90409707D01*
X136009716Y-90449226D01*
X136130867Y-90484800D01*
X136130868Y-90484800D01*
X136256529Y-90484800D01*
X136314720Y-90503707D01*
X136350684Y-90553207D01*
X136354521Y-90597888D01*
X136346785Y-90651695D01*
X136346785Y-90651702D01*
X136364753Y-90776675D01*
X136364754Y-90776678D01*
X136364754Y-90776679D01*
X136364755Y-90776681D01*
X136409855Y-90875438D01*
X136417208Y-90891538D01*
X136458550Y-90939249D01*
X136499894Y-90986962D01*
X136499896Y-90986963D01*
X136499897Y-90986964D01*
X136581063Y-91039126D01*
X136606116Y-91055226D01*
X136727267Y-91090800D01*
X136727268Y-91090800D01*
X136853532Y-91090800D01*
X136853533Y-91090800D01*
X136974684Y-91055226D01*
X137080906Y-90986962D01*
X137163593Y-90891536D01*
X137216045Y-90776681D01*
X137216884Y-90770846D01*
X137234015Y-90651702D01*
X137234015Y-90651697D01*
X137216046Y-90526724D01*
X137216045Y-90526721D01*
X137216045Y-90526719D01*
X137163593Y-90411864D01*
X137163591Y-90411862D01*
X137163591Y-90411861D01*
X137114515Y-90355225D01*
X137080906Y-90316438D01*
X137080903Y-90316436D01*
X137080902Y-90316435D01*
X136974685Y-90248174D01*
X136853534Y-90212600D01*
X136853533Y-90212600D01*
X136727871Y-90212600D01*
X136669680Y-90193693D01*
X136633716Y-90144193D01*
X136629879Y-90099512D01*
X136637615Y-90045704D01*
X136637615Y-90045697D01*
X136619646Y-89920724D01*
X136619645Y-89920721D01*
X136619645Y-89920719D01*
X136567193Y-89805864D01*
X136567191Y-89805862D01*
X136567191Y-89805861D01*
X136522572Y-89754369D01*
X136484506Y-89710438D01*
X136484503Y-89710436D01*
X136484502Y-89710435D01*
X136378285Y-89642174D01*
X136257134Y-89606600D01*
X136257133Y-89606600D01*
X136130867Y-89606600D01*
X136130865Y-89606600D01*
X136009714Y-89642174D01*
X135903497Y-89710435D01*
X135903493Y-89710439D01*
X135820808Y-89805861D01*
X135768354Y-89920721D01*
X135768353Y-89920724D01*
X135750385Y-90045697D01*
X135750385Y-90045702D01*
X135037357Y-90045702D01*
X134715696Y-89724041D01*
X134687919Y-89669524D01*
X134686700Y-89654037D01*
X134686700Y-80743674D01*
X134705607Y-80685483D01*
X134755107Y-80649519D01*
X134813592Y-80648685D01*
X134839867Y-80656400D01*
X134895637Y-80656400D01*
X134953828Y-80675307D01*
X134965641Y-80685396D01*
X138700104Y-84419859D01*
X138727881Y-84474376D01*
X138729100Y-84489863D01*
X138729100Y-87169022D01*
X138710193Y-87227213D01*
X138660693Y-87263177D01*
X138599507Y-87263177D01*
X138576578Y-87252307D01*
X138548984Y-87234574D01*
X138427834Y-87199000D01*
X138427833Y-87199000D01*
X138301567Y-87199000D01*
X138301565Y-87199000D01*
X138180414Y-87234574D01*
X138074197Y-87302835D01*
X138074193Y-87302839D01*
X137991508Y-87398261D01*
X137939054Y-87513121D01*
X137939053Y-87513124D01*
X137921085Y-87638097D01*
X137921085Y-87638102D01*
X137939053Y-87763075D01*
X137939054Y-87763078D01*
X137939054Y-87763079D01*
X137939055Y-87763081D01*
X137939257Y-87763523D01*
X137991508Y-87877938D01*
X138028371Y-87920479D01*
X138074194Y-87973362D01*
X138074196Y-87973363D01*
X138074197Y-87973364D01*
X138167052Y-88033038D01*
X138180416Y-88041626D01*
X138301567Y-88077200D01*
X138301568Y-88077200D01*
X138427832Y-88077200D01*
X138427833Y-88077200D01*
X138548984Y-88041626D01*
X138576578Y-88023892D01*
X138635751Y-88008338D01*
X138692768Y-88030536D01*
X138725847Y-88082009D01*
X138729100Y-88107177D01*
X138729100Y-107718326D01*
X138722193Y-107739583D01*
X138729100Y-107767473D01*
X138729100Y-111152920D01*
X138710193Y-111211111D01*
X138704920Y-111217751D01*
X138642607Y-111289664D01*
X138590154Y-111404521D01*
X138590153Y-111404524D01*
X138572185Y-111529497D01*
X138572185Y-111529502D01*
X138590153Y-111654475D01*
X138590154Y-111654478D01*
X138590154Y-111654479D01*
X138590155Y-111654481D01*
X138633320Y-111749000D01*
X138642608Y-111769338D01*
X138664998Y-111795177D01*
X138725294Y-111864762D01*
X138831516Y-111933026D01*
X138952667Y-111968600D01*
X138952668Y-111968600D01*
X139078932Y-111968600D01*
X139078933Y-111968600D01*
X139200084Y-111933026D01*
X139306306Y-111864762D01*
X139388993Y-111769336D01*
X139441445Y-111654481D01*
X139456505Y-111549738D01*
X139459415Y-111529502D01*
X139459415Y-111529497D01*
X139441446Y-111404524D01*
X139441445Y-111404521D01*
X139441445Y-111404519D01*
X139388993Y-111289664D01*
X139326679Y-111217750D01*
X139302863Y-111161391D01*
X139302500Y-111152920D01*
X139302500Y-109609758D01*
X139321407Y-109551567D01*
X139370907Y-109515603D01*
X139432093Y-109515603D01*
X139455023Y-109526474D01*
X139460292Y-109529860D01*
X139460294Y-109529862D01*
X139566516Y-109598126D01*
X139687667Y-109633700D01*
X139687668Y-109633700D01*
X139813932Y-109633700D01*
X139813933Y-109633700D01*
X139935084Y-109598126D01*
X140041306Y-109529862D01*
X140123993Y-109434436D01*
X140176445Y-109319581D01*
X140194415Y-109194600D01*
X140176445Y-109069619D01*
X140123993Y-108954764D01*
X140123991Y-108954762D01*
X140123991Y-108954761D01*
X140065813Y-108887621D01*
X140041306Y-108859338D01*
X140041303Y-108859336D01*
X140041302Y-108859335D01*
X139935085Y-108791074D01*
X139813934Y-108755500D01*
X139813933Y-108755500D01*
X139687667Y-108755500D01*
X139687665Y-108755500D01*
X139566514Y-108791074D01*
X139455023Y-108862725D01*
X139395848Y-108878280D01*
X139338831Y-108856081D01*
X139305752Y-108804608D01*
X139302500Y-108779441D01*
X139302500Y-94529302D01*
X139583085Y-94529302D01*
X139601053Y-94654275D01*
X139601054Y-94654278D01*
X139601054Y-94654279D01*
X139601055Y-94654281D01*
X139630628Y-94719038D01*
X139653508Y-94769138D01*
X139692780Y-94814460D01*
X139736194Y-94864562D01*
X139736196Y-94864563D01*
X139736197Y-94864564D01*
X139819812Y-94918300D01*
X139842416Y-94932826D01*
X139963567Y-94968400D01*
X140019337Y-94968400D01*
X140077528Y-94987307D01*
X140089341Y-94997396D01*
X141487904Y-96395959D01*
X141515681Y-96450476D01*
X141516900Y-96465963D01*
X141516900Y-110425620D01*
X141497993Y-110483811D01*
X141448493Y-110519775D01*
X141387307Y-110519775D01*
X141364378Y-110508905D01*
X141326984Y-110484874D01*
X141205834Y-110449300D01*
X141205833Y-110449300D01*
X141079567Y-110449300D01*
X141079565Y-110449300D01*
X140958414Y-110484874D01*
X140852197Y-110553135D01*
X140852193Y-110553139D01*
X140769508Y-110648561D01*
X140717054Y-110763421D01*
X140717053Y-110763424D01*
X140699085Y-110888397D01*
X140699085Y-110888402D01*
X140717053Y-111013375D01*
X140717054Y-111013378D01*
X140717054Y-111013379D01*
X140717055Y-111013381D01*
X140764277Y-111116784D01*
X140769508Y-111128238D01*
X140804105Y-111168164D01*
X140852194Y-111223662D01*
X140852196Y-111223663D01*
X140852197Y-111223664D01*
X140949261Y-111286043D01*
X140958416Y-111291926D01*
X141079567Y-111327500D01*
X141079568Y-111327500D01*
X141205832Y-111327500D01*
X141205833Y-111327500D01*
X141326984Y-111291926D01*
X141364378Y-111267894D01*
X141423551Y-111252340D01*
X141480568Y-111274539D01*
X141513647Y-111326011D01*
X141516900Y-111351179D01*
X141516900Y-113931520D01*
X141497993Y-113989711D01*
X141492720Y-113996351D01*
X141430407Y-114068264D01*
X141377954Y-114183121D01*
X141377953Y-114183124D01*
X141359985Y-114308097D01*
X141359985Y-114308102D01*
X141377953Y-114433075D01*
X141377954Y-114433078D01*
X141430408Y-114547938D01*
X141457672Y-114579402D01*
X141513094Y-114643362D01*
X141513096Y-114643363D01*
X141513097Y-114643364D01*
X141608037Y-114704378D01*
X141619316Y-114711626D01*
X141740467Y-114747200D01*
X141740468Y-114747200D01*
X141866732Y-114747200D01*
X141866733Y-114747200D01*
X141987884Y-114711626D01*
X142094106Y-114643362D01*
X142176793Y-114547936D01*
X142229245Y-114433081D01*
X142242691Y-114339564D01*
X142247215Y-114308102D01*
X142247215Y-114308097D01*
X142229246Y-114183124D01*
X142229245Y-114183121D01*
X142229245Y-114183119D01*
X142176793Y-114068264D01*
X142114479Y-113996350D01*
X142090663Y-113939991D01*
X142090300Y-113931520D01*
X142090300Y-96368914D01*
X142091250Y-96355235D01*
X142092469Y-96346495D01*
X142090406Y-96301879D01*
X142090300Y-96297306D01*
X142090300Y-96279632D01*
X142090248Y-96279073D01*
X142088757Y-96266226D01*
X142087518Y-96239423D01*
X142083945Y-96231332D01*
X142077195Y-96209534D01*
X142075570Y-96200838D01*
X142061444Y-96178024D01*
X142055058Y-96165909D01*
X142044223Y-96141368D01*
X142037961Y-96135106D01*
X142023801Y-96117228D01*
X142019144Y-96109706D01*
X141997740Y-96093542D01*
X141987398Y-96084543D01*
X140499311Y-94596456D01*
X140471534Y-94541939D01*
X140470809Y-94532739D01*
X140470314Y-94529297D01*
X140456574Y-94433734D01*
X140452346Y-94404324D01*
X140452345Y-94404321D01*
X140452345Y-94404319D01*
X140399893Y-94289464D01*
X140399891Y-94289462D01*
X140399891Y-94289461D01*
X140356481Y-94239364D01*
X140317206Y-94194038D01*
X140317203Y-94194036D01*
X140317202Y-94194035D01*
X140210985Y-94125774D01*
X140089834Y-94090200D01*
X140089833Y-94090200D01*
X139963567Y-94090200D01*
X139963565Y-94090200D01*
X139842414Y-94125774D01*
X139736197Y-94194035D01*
X139736193Y-94194039D01*
X139653508Y-94289461D01*
X139601054Y-94404321D01*
X139601053Y-94404324D01*
X139583085Y-94529297D01*
X139583085Y-94529302D01*
X139302500Y-94529302D01*
X139302500Y-93270400D01*
X141680515Y-93270400D01*
X141699970Y-93418181D01*
X141699971Y-93418182D01*
X141757010Y-93555889D01*
X141757012Y-93555893D01*
X141844649Y-93670103D01*
X141847753Y-93674147D01*
X141966007Y-93764888D01*
X142103718Y-93821929D01*
X142251499Y-93841385D01*
X142251500Y-93841385D01*
X142251501Y-93841385D01*
X142359913Y-93827112D01*
X142399282Y-93821929D01*
X142536993Y-93764888D01*
X142655247Y-93674147D01*
X142745988Y-93555893D01*
X142803029Y-93418182D01*
X142822485Y-93270400D01*
X142803029Y-93122618D01*
X142745988Y-92984908D01*
X142655247Y-92866653D01*
X142655245Y-92866652D01*
X142655245Y-92866651D01*
X142536993Y-92775912D01*
X142536989Y-92775910D01*
X142399282Y-92718871D01*
X142399281Y-92718870D01*
X142251501Y-92699415D01*
X142251499Y-92699415D01*
X142103721Y-92718870D01*
X142103713Y-92718872D01*
X141966011Y-92775910D01*
X141966007Y-92775912D01*
X141847755Y-92866651D01*
X141847751Y-92866655D01*
X141757012Y-92984907D01*
X141757010Y-92984911D01*
X141699972Y-93122613D01*
X141699970Y-93122621D01*
X141680515Y-93270399D01*
X141680515Y-93270400D01*
X139302500Y-93270400D01*
X139302500Y-89918802D01*
X142738085Y-89918802D01*
X142756053Y-90043775D01*
X142756054Y-90043778D01*
X142756054Y-90043779D01*
X142756055Y-90043781D01*
X142801911Y-90144193D01*
X142808508Y-90158638D01*
X142837015Y-90191536D01*
X142891194Y-90254062D01*
X142891196Y-90254063D01*
X142891197Y-90254064D01*
X142988255Y-90316439D01*
X142997416Y-90322326D01*
X143118567Y-90357900D01*
X143118568Y-90357900D01*
X143244832Y-90357900D01*
X143244833Y-90357900D01*
X143365984Y-90322326D01*
X143472206Y-90254062D01*
X143554893Y-90158636D01*
X143607345Y-90043781D01*
X143622709Y-89936926D01*
X143625315Y-89918802D01*
X143625315Y-89918797D01*
X143607346Y-89793824D01*
X143607345Y-89793821D01*
X143607345Y-89793819D01*
X143554893Y-89678964D01*
X143554891Y-89678962D01*
X143554891Y-89678961D01*
X143521077Y-89639939D01*
X143472206Y-89583538D01*
X143472203Y-89583536D01*
X143472202Y-89583535D01*
X143365985Y-89515274D01*
X143244834Y-89479700D01*
X143244833Y-89479700D01*
X143118567Y-89479700D01*
X143118565Y-89479700D01*
X142997414Y-89515274D01*
X142891197Y-89583535D01*
X142891193Y-89583539D01*
X142808508Y-89678961D01*
X142756054Y-89793821D01*
X142756053Y-89793824D01*
X142738085Y-89918797D01*
X142738085Y-89918802D01*
X139302500Y-89918802D01*
X139302500Y-84392816D01*
X139303449Y-84379138D01*
X139304667Y-84370399D01*
X139304669Y-84370396D01*
X139302606Y-84325770D01*
X139302500Y-84321198D01*
X139302500Y-84303534D01*
X139302444Y-84302933D01*
X139300958Y-84290133D01*
X139299719Y-84263323D01*
X139296145Y-84255228D01*
X139289394Y-84233429D01*
X139287770Y-84224738D01*
X139273650Y-84201933D01*
X139267260Y-84189809D01*
X139256425Y-84165271D01*
X139256424Y-84165270D01*
X139256424Y-84165269D01*
X139250161Y-84159006D01*
X139236001Y-84141128D01*
X139231344Y-84133606D01*
X139209940Y-84117442D01*
X139199598Y-84108443D01*
X135375611Y-80284456D01*
X135347834Y-80229939D01*
X135347109Y-80220739D01*
X135337586Y-80154507D01*
X135331749Y-80113908D01*
X135328646Y-80092324D01*
X135328645Y-80092321D01*
X135328645Y-80092319D01*
X135276193Y-79977464D01*
X135276191Y-79977462D01*
X135276191Y-79977461D01*
X135230917Y-79925213D01*
X135193506Y-79882038D01*
X135193503Y-79882036D01*
X135193502Y-79882035D01*
X135087285Y-79813774D01*
X134966134Y-79778200D01*
X134966133Y-79778200D01*
X134839867Y-79778200D01*
X134839865Y-79778200D01*
X134813592Y-79785915D01*
X134752431Y-79784168D01*
X134703978Y-79746805D01*
X134686700Y-79690925D01*
X134686700Y-79687232D01*
X134686648Y-79686673D01*
X134685157Y-79673826D01*
X134683918Y-79647023D01*
X134680345Y-79638930D01*
X134673595Y-79617133D01*
X134671970Y-79608438D01*
X134657845Y-79585625D01*
X134651455Y-79573501D01*
X134640625Y-79548971D01*
X134640624Y-79548970D01*
X134640624Y-79548969D01*
X134634361Y-79542706D01*
X134620201Y-79524828D01*
X134615544Y-79517306D01*
X134602032Y-79507102D01*
X134594140Y-79501142D01*
X134583798Y-79492143D01*
X133222057Y-78130402D01*
X137325985Y-78130402D01*
X137343953Y-78255375D01*
X137343954Y-78255378D01*
X137343954Y-78255379D01*
X137343955Y-78255381D01*
X137349067Y-78266574D01*
X137396408Y-78370238D01*
X137458719Y-78442148D01*
X137482537Y-78498507D01*
X137482900Y-78506979D01*
X137482900Y-79871981D01*
X137481951Y-79885655D01*
X137480730Y-79894404D01*
X137482794Y-79939019D01*
X137482900Y-79943592D01*
X137482900Y-79961261D01*
X137482955Y-79961856D01*
X137484442Y-79974678D01*
X137485681Y-80001474D01*
X137485682Y-80001478D01*
X137489255Y-80009569D01*
X137496002Y-80031358D01*
X137497629Y-80040060D01*
X137497631Y-80040065D01*
X137511750Y-80062869D01*
X137518142Y-80074995D01*
X137528975Y-80099529D01*
X137528976Y-80099530D01*
X137528977Y-80099532D01*
X137535235Y-80105790D01*
X137549397Y-80123669D01*
X137554056Y-80131194D01*
X137554057Y-80131195D01*
X137575459Y-80147357D01*
X137585801Y-80156356D01*
X144390914Y-86961469D01*
X144418691Y-87015986D01*
X144409120Y-87076418D01*
X144365855Y-87119683D01*
X144305423Y-87129254D01*
X144293018Y-87126463D01*
X144201534Y-87099600D01*
X144201533Y-87099600D01*
X144075267Y-87099600D01*
X144075265Y-87099600D01*
X143954114Y-87135174D01*
X143847897Y-87203435D01*
X143847893Y-87203439D01*
X143765208Y-87298861D01*
X143712754Y-87413721D01*
X143712753Y-87413724D01*
X143694785Y-87538697D01*
X143694785Y-87538702D01*
X143712753Y-87663675D01*
X143712754Y-87663678D01*
X143712754Y-87663679D01*
X143712755Y-87663681D01*
X143758351Y-87763523D01*
X143765208Y-87778538D01*
X143806317Y-87825979D01*
X143847894Y-87873962D01*
X143847896Y-87873963D01*
X143847897Y-87873964D01*
X143920276Y-87920479D01*
X143954116Y-87942226D01*
X144030906Y-87964774D01*
X144072192Y-87976897D01*
X144122699Y-88011433D01*
X144143260Y-88069061D01*
X144143300Y-88071887D01*
X144143300Y-96670449D01*
X144124393Y-96728640D01*
X144074893Y-96764604D01*
X144013707Y-96764604D01*
X143984640Y-96749453D01*
X143958142Y-96729443D01*
X143947798Y-96720443D01*
X141773711Y-94546356D01*
X141745934Y-94491839D01*
X141745209Y-94482639D01*
X141744714Y-94479197D01*
X141731663Y-94388421D01*
X141726746Y-94354224D01*
X141726745Y-94354221D01*
X141726745Y-94354219D01*
X141674293Y-94239364D01*
X141674291Y-94239362D01*
X141674291Y-94239361D01*
X141635015Y-94194035D01*
X141591606Y-94143938D01*
X141591603Y-94143936D01*
X141591602Y-94143935D01*
X141485385Y-94075674D01*
X141364234Y-94040100D01*
X141364233Y-94040100D01*
X141237967Y-94040100D01*
X141237965Y-94040100D01*
X141116814Y-94075674D01*
X141010597Y-94143935D01*
X141010593Y-94143939D01*
X140927908Y-94239361D01*
X140875454Y-94354221D01*
X140875453Y-94354224D01*
X140857485Y-94479197D01*
X140857485Y-94479202D01*
X140875453Y-94604175D01*
X140875454Y-94604178D01*
X140875454Y-94604179D01*
X140875455Y-94604181D01*
X140898335Y-94654281D01*
X140927908Y-94719038D01*
X140951812Y-94746624D01*
X141010594Y-94814462D01*
X141010596Y-94814463D01*
X141010597Y-94814464D01*
X141099506Y-94871602D01*
X141116816Y-94882726D01*
X141237967Y-94918300D01*
X141293737Y-94918300D01*
X141351928Y-94937207D01*
X141363741Y-94947296D01*
X143448304Y-97031859D01*
X143476081Y-97086376D01*
X143477300Y-97101863D01*
X143477300Y-104505266D01*
X143458393Y-104563457D01*
X143408893Y-104599421D01*
X143347707Y-104599421D01*
X143303483Y-104570099D01*
X143289306Y-104553738D01*
X143289303Y-104553736D01*
X143289302Y-104553735D01*
X143183085Y-104485474D01*
X143061934Y-104449900D01*
X143061933Y-104449900D01*
X142935667Y-104449900D01*
X142935665Y-104449900D01*
X142814514Y-104485474D01*
X142708297Y-104553735D01*
X142708293Y-104553739D01*
X142625608Y-104649161D01*
X142573154Y-104764021D01*
X142573153Y-104764024D01*
X142555185Y-104888997D01*
X142555185Y-104889002D01*
X142573153Y-105013975D01*
X142573154Y-105013978D01*
X142573154Y-105013979D01*
X142573155Y-105013981D01*
X142601243Y-105075485D01*
X142625608Y-105128838D01*
X142655643Y-105163500D01*
X142708294Y-105224262D01*
X142708296Y-105224263D01*
X142708297Y-105224264D01*
X142790367Y-105277007D01*
X142814516Y-105292526D01*
X142935667Y-105328100D01*
X142935668Y-105328100D01*
X143061932Y-105328100D01*
X143061933Y-105328100D01*
X143183084Y-105292526D01*
X143289306Y-105224262D01*
X143303482Y-105207901D01*
X143355875Y-105176306D01*
X143416836Y-105181541D01*
X143463078Y-105221608D01*
X143477300Y-105272733D01*
X143477300Y-121863820D01*
X143458393Y-121922011D01*
X143453120Y-121928651D01*
X143390807Y-122000564D01*
X143338354Y-122115421D01*
X143338353Y-122115424D01*
X143320385Y-122240397D01*
X143320385Y-122240402D01*
X143338353Y-122365375D01*
X143338354Y-122365378D01*
X143338354Y-122365379D01*
X143338355Y-122365381D01*
X143376216Y-122448286D01*
X143390808Y-122480238D01*
X143413380Y-122506287D01*
X143473494Y-122575662D01*
X143473496Y-122575663D01*
X143473497Y-122575664D01*
X143519834Y-122605443D01*
X143579716Y-122643926D01*
X143700867Y-122679500D01*
X143700868Y-122679500D01*
X143827132Y-122679500D01*
X143827133Y-122679500D01*
X143948284Y-122643926D01*
X144054506Y-122575662D01*
X144137193Y-122480236D01*
X144189645Y-122365381D01*
X144194425Y-122332134D01*
X144207615Y-122240402D01*
X144207615Y-122240397D01*
X144189646Y-122115424D01*
X144189645Y-122115421D01*
X144189645Y-122115419D01*
X144137193Y-122000564D01*
X144074879Y-121928650D01*
X144051063Y-121872291D01*
X144050700Y-121863820D01*
X144050700Y-112413350D01*
X144069607Y-112355159D01*
X144119107Y-112319195D01*
X144180293Y-112319195D01*
X144209362Y-112334347D01*
X144235859Y-112354357D01*
X144246201Y-112363356D01*
X145302589Y-113419744D01*
X145330366Y-113474261D01*
X145331090Y-113483463D01*
X145349553Y-113611875D01*
X145349554Y-113611878D01*
X145349554Y-113611879D01*
X145349555Y-113611881D01*
X145364981Y-113645660D01*
X145402008Y-113726738D01*
X145439932Y-113770504D01*
X145484694Y-113822162D01*
X145484696Y-113822163D01*
X145484697Y-113822164D01*
X145568429Y-113875975D01*
X145590916Y-113890426D01*
X145712067Y-113926000D01*
X145712068Y-113926000D01*
X145838332Y-113926000D01*
X145838333Y-113926000D01*
X145959484Y-113890426D01*
X146065706Y-113822162D01*
X146148393Y-113726736D01*
X146200845Y-113611881D01*
X146205856Y-113577033D01*
X146218815Y-113486902D01*
X146218815Y-113486897D01*
X146200846Y-113361924D01*
X146200845Y-113361921D01*
X146200845Y-113361919D01*
X146148393Y-113247064D01*
X146148391Y-113247062D01*
X146148391Y-113247061D01*
X146090186Y-113179890D01*
X146065706Y-113151638D01*
X146065703Y-113151636D01*
X146065702Y-113151635D01*
X145959485Y-113083374D01*
X145838334Y-113047800D01*
X145838333Y-113047800D01*
X145782563Y-113047800D01*
X145724372Y-113028893D01*
X145712559Y-113018804D01*
X145611555Y-112917800D01*
X149334515Y-112917800D01*
X149353970Y-113065581D01*
X149353971Y-113065582D01*
X149411010Y-113203289D01*
X149411012Y-113203293D01*
X149488855Y-113304739D01*
X149501753Y-113321547D01*
X149620007Y-113412288D01*
X149757718Y-113469329D01*
X149905499Y-113488785D01*
X149905500Y-113488785D01*
X149905501Y-113488785D01*
X149979391Y-113479057D01*
X150053282Y-113469329D01*
X150190993Y-113412288D01*
X150309247Y-113321547D01*
X150399988Y-113203293D01*
X150457029Y-113065582D01*
X150476485Y-112917800D01*
X150472665Y-112888788D01*
X150462770Y-112813624D01*
X150457029Y-112770018D01*
X150455153Y-112765490D01*
X150429464Y-112703471D01*
X150399988Y-112632308D01*
X150309247Y-112514053D01*
X150309245Y-112514052D01*
X150309245Y-112514051D01*
X150190993Y-112423312D01*
X150190989Y-112423310D01*
X150053282Y-112366271D01*
X150053281Y-112366270D01*
X149905501Y-112346815D01*
X149905499Y-112346815D01*
X149757721Y-112366270D01*
X149757713Y-112366272D01*
X149620011Y-112423310D01*
X149620007Y-112423312D01*
X149501755Y-112514051D01*
X149501751Y-112514055D01*
X149411012Y-112632307D01*
X149411010Y-112632311D01*
X149353972Y-112770013D01*
X149353970Y-112770021D01*
X149334515Y-112917799D01*
X149334515Y-112917800D01*
X145611555Y-112917800D01*
X144745696Y-112051941D01*
X144717919Y-111997424D01*
X144716700Y-111981937D01*
X144716700Y-111594502D01*
X145403285Y-111594502D01*
X145421253Y-111719475D01*
X145421254Y-111719478D01*
X145421254Y-111719479D01*
X145421255Y-111719481D01*
X145434736Y-111749000D01*
X145473708Y-111834338D01*
X145500071Y-111864762D01*
X145556394Y-111929762D01*
X145556396Y-111929763D01*
X145556397Y-111929764D01*
X145650987Y-111990553D01*
X145662616Y-111998026D01*
X145783767Y-112033600D01*
X145783768Y-112033600D01*
X145910032Y-112033600D01*
X145910033Y-112033600D01*
X146031184Y-111998026D01*
X146137406Y-111929762D01*
X146220093Y-111834336D01*
X146272545Y-111719481D01*
X146281892Y-111654475D01*
X146290515Y-111594502D01*
X146290515Y-111594497D01*
X146272546Y-111469524D01*
X146272545Y-111469521D01*
X146272545Y-111469519D01*
X146220093Y-111354664D01*
X146220091Y-111354662D01*
X146220091Y-111354661D01*
X146186277Y-111315639D01*
X146137406Y-111259238D01*
X146137403Y-111259236D01*
X146137402Y-111259235D01*
X146031185Y-111190974D01*
X145910034Y-111155400D01*
X145910033Y-111155400D01*
X145783767Y-111155400D01*
X145783765Y-111155400D01*
X145662614Y-111190974D01*
X145556397Y-111259235D01*
X145556393Y-111259239D01*
X145473708Y-111354661D01*
X145421254Y-111469521D01*
X145421253Y-111469524D01*
X145403285Y-111594497D01*
X145403285Y-111594502D01*
X144716700Y-111594502D01*
X144716700Y-110186602D01*
X151166885Y-110186602D01*
X151184853Y-110311575D01*
X151184854Y-110311578D01*
X151184854Y-110311579D01*
X151184855Y-110311581D01*
X151217738Y-110383585D01*
X151237308Y-110426438D01*
X151262723Y-110455768D01*
X151319994Y-110521862D01*
X151426216Y-110590126D01*
X151547367Y-110625700D01*
X151547368Y-110625700D01*
X151673632Y-110625700D01*
X151673633Y-110625700D01*
X151794784Y-110590126D01*
X151901006Y-110521862D01*
X151983693Y-110426436D01*
X152036145Y-110311581D01*
X152046500Y-110239562D01*
X152054115Y-110186602D01*
X152054115Y-110186597D01*
X152036146Y-110061624D01*
X152036145Y-110061621D01*
X152036145Y-110061619D01*
X151983693Y-109946764D01*
X151983691Y-109946762D01*
X151983691Y-109946761D01*
X151949877Y-109907739D01*
X151901006Y-109851338D01*
X151901003Y-109851336D01*
X151901002Y-109851335D01*
X151794785Y-109783074D01*
X151673634Y-109747500D01*
X151673633Y-109747500D01*
X151547367Y-109747500D01*
X151547365Y-109747500D01*
X151426214Y-109783074D01*
X151319997Y-109851335D01*
X151319993Y-109851339D01*
X151237308Y-109946761D01*
X151184854Y-110061621D01*
X151184853Y-110061624D01*
X151166885Y-110186597D01*
X151166885Y-110186602D01*
X144716700Y-110186602D01*
X144716700Y-108011602D01*
X145079885Y-108011602D01*
X145097853Y-108136575D01*
X145097854Y-108136578D01*
X145097854Y-108136579D01*
X145097855Y-108136581D01*
X145149257Y-108249136D01*
X145150308Y-108251438D01*
X145184373Y-108290750D01*
X145232994Y-108346862D01*
X145232996Y-108346863D01*
X145232997Y-108346864D01*
X145336497Y-108413379D01*
X145339216Y-108415126D01*
X145460367Y-108450700D01*
X145460368Y-108450700D01*
X145586632Y-108450700D01*
X145586633Y-108450700D01*
X145707784Y-108415126D01*
X145814006Y-108346862D01*
X145896693Y-108251436D01*
X145949145Y-108136581D01*
X145952071Y-108116232D01*
X145967115Y-108011602D01*
X145967115Y-108011597D01*
X145949146Y-107886624D01*
X145949145Y-107886621D01*
X145949145Y-107886619D01*
X145896693Y-107771764D01*
X145896691Y-107771762D01*
X145896691Y-107771761D01*
X145832587Y-107697782D01*
X145814006Y-107676338D01*
X145814003Y-107676336D01*
X145814002Y-107676335D01*
X145707785Y-107608074D01*
X145586634Y-107572500D01*
X145586633Y-107572500D01*
X145460367Y-107572500D01*
X145460365Y-107572500D01*
X145339214Y-107608074D01*
X145232997Y-107676335D01*
X145232993Y-107676339D01*
X145150308Y-107771761D01*
X145097854Y-107886621D01*
X145097853Y-107886624D01*
X145079885Y-108011597D01*
X145079885Y-108011602D01*
X144716700Y-108011602D01*
X144716700Y-104586402D01*
X150070785Y-104586402D01*
X150088753Y-104711375D01*
X150088754Y-104711378D01*
X150141208Y-104826238D01*
X150182550Y-104873949D01*
X150223894Y-104921662D01*
X150330116Y-104989926D01*
X150451267Y-105025500D01*
X150451268Y-105025500D01*
X150577532Y-105025500D01*
X150577533Y-105025500D01*
X150698684Y-104989926D01*
X150804906Y-104921662D01*
X150887593Y-104826236D01*
X150940045Y-104711381D01*
X150958015Y-104586400D01*
X150957904Y-104585631D01*
X150940046Y-104461424D01*
X150940045Y-104461421D01*
X150940045Y-104461419D01*
X150887593Y-104346564D01*
X150887591Y-104346562D01*
X150887591Y-104346561D01*
X150824299Y-104273519D01*
X150804906Y-104251138D01*
X150804903Y-104251136D01*
X150804902Y-104251135D01*
X150698685Y-104182874D01*
X150577534Y-104147300D01*
X150577533Y-104147300D01*
X150451267Y-104147300D01*
X150451265Y-104147300D01*
X150330114Y-104182874D01*
X150223897Y-104251135D01*
X150223893Y-104251139D01*
X150141208Y-104346561D01*
X150088754Y-104461421D01*
X150088753Y-104461424D01*
X150070785Y-104586397D01*
X150070785Y-104586402D01*
X144716700Y-104586402D01*
X144716700Y-103858702D01*
X147175285Y-103858702D01*
X147193253Y-103983675D01*
X147193254Y-103983678D01*
X147245708Y-104098538D01*
X147257400Y-104112031D01*
X147328394Y-104193962D01*
X147328396Y-104193963D01*
X147328397Y-104193964D01*
X147417362Y-104251138D01*
X147434616Y-104262226D01*
X147555767Y-104297800D01*
X147555768Y-104297800D01*
X147682032Y-104297800D01*
X147682033Y-104297800D01*
X147803184Y-104262226D01*
X147909406Y-104193962D01*
X147992093Y-104098536D01*
X148044545Y-103983681D01*
X148062515Y-103858700D01*
X148058049Y-103827640D01*
X148044546Y-103733724D01*
X148044545Y-103733721D01*
X148044545Y-103733719D01*
X147992093Y-103618864D01*
X147992091Y-103618862D01*
X147992091Y-103618861D01*
X147936121Y-103554269D01*
X147909406Y-103523438D01*
X147909403Y-103523436D01*
X147909402Y-103523435D01*
X147803185Y-103455174D01*
X147682034Y-103419600D01*
X147682033Y-103419600D01*
X147555767Y-103419600D01*
X147555765Y-103419600D01*
X147434614Y-103455174D01*
X147328397Y-103523435D01*
X147328393Y-103523439D01*
X147245708Y-103618861D01*
X147193254Y-103733721D01*
X147193253Y-103733724D01*
X147175285Y-103858697D01*
X147175285Y-103858702D01*
X144716700Y-103858702D01*
X144716700Y-98317602D01*
X145468385Y-98317602D01*
X145486353Y-98442575D01*
X145486354Y-98442578D01*
X145486354Y-98442579D01*
X145486355Y-98442581D01*
X145500024Y-98472512D01*
X145538808Y-98557438D01*
X145563518Y-98585954D01*
X145621494Y-98652862D01*
X145621496Y-98652863D01*
X145621497Y-98652864D01*
X145666068Y-98681508D01*
X145727716Y-98721126D01*
X145848867Y-98756700D01*
X145848868Y-98756700D01*
X145975132Y-98756700D01*
X145975133Y-98756700D01*
X146096284Y-98721126D01*
X146202506Y-98652862D01*
X146285193Y-98557436D01*
X146337645Y-98442581D01*
X146338088Y-98439499D01*
X146355615Y-98317602D01*
X146355615Y-98317597D01*
X146337646Y-98192624D01*
X146337645Y-98192621D01*
X146337645Y-98192619D01*
X146285193Y-98077764D01*
X146285191Y-98077762D01*
X146285191Y-98077761D01*
X146251377Y-98038739D01*
X146202506Y-97982338D01*
X146202503Y-97982336D01*
X146202502Y-97982335D01*
X146096285Y-97914074D01*
X145975134Y-97878500D01*
X145975133Y-97878500D01*
X145848867Y-97878500D01*
X145848865Y-97878500D01*
X145727714Y-97914074D01*
X145621497Y-97982335D01*
X145621493Y-97982339D01*
X145538808Y-98077761D01*
X145486354Y-98192621D01*
X145486353Y-98192624D01*
X145468385Y-98317597D01*
X145468385Y-98317602D01*
X144716700Y-98317602D01*
X144716700Y-87893014D01*
X144717650Y-87879335D01*
X144718869Y-87870595D01*
X144716806Y-87825979D01*
X144716700Y-87821406D01*
X144716700Y-87803732D01*
X144716648Y-87803173D01*
X144715157Y-87790326D01*
X144713918Y-87763523D01*
X144713720Y-87763075D01*
X144710345Y-87755430D01*
X144703595Y-87733633D01*
X144701970Y-87724938D01*
X144687845Y-87702125D01*
X144681455Y-87690001D01*
X144670625Y-87665471D01*
X144670624Y-87665470D01*
X144670624Y-87665469D01*
X144664361Y-87659206D01*
X144650201Y-87641328D01*
X144645544Y-87633806D01*
X144624140Y-87617642D01*
X144613798Y-87608643D01*
X144611011Y-87605856D01*
X144583234Y-87551339D01*
X144582509Y-87542139D01*
X144582014Y-87538697D01*
X144570994Y-87462052D01*
X144564046Y-87413724D01*
X144564045Y-87413719D01*
X144557378Y-87399121D01*
X144550403Y-87338335D01*
X144580489Y-87285058D01*
X144636144Y-87259639D01*
X144696111Y-87271789D01*
X144717435Y-87287990D01*
X144906189Y-87476744D01*
X144933966Y-87531261D01*
X144934690Y-87540463D01*
X144953153Y-87668875D01*
X144953154Y-87668878D01*
X144953154Y-87668879D01*
X144953155Y-87668881D01*
X144992680Y-87755430D01*
X145005608Y-87783738D01*
X145067919Y-87855648D01*
X145091737Y-87912007D01*
X145092100Y-87920479D01*
X145092100Y-95415181D01*
X145091151Y-95428855D01*
X145089930Y-95437604D01*
X145091994Y-95482219D01*
X145092100Y-95486792D01*
X145092100Y-95504461D01*
X145092155Y-95505056D01*
X145093642Y-95517878D01*
X145094881Y-95544674D01*
X145094882Y-95544678D01*
X145098455Y-95552769D01*
X145105202Y-95574558D01*
X145106829Y-95583260D01*
X145106831Y-95583265D01*
X145120950Y-95606069D01*
X145127342Y-95618195D01*
X145138175Y-95642729D01*
X145138176Y-95642730D01*
X145138177Y-95642732D01*
X145144435Y-95648990D01*
X145158597Y-95666869D01*
X145163256Y-95674394D01*
X145163257Y-95674395D01*
X145184659Y-95690557D01*
X145195001Y-95699556D01*
X153304304Y-103808859D01*
X153332081Y-103863376D01*
X153333300Y-103878863D01*
X153333300Y-124447881D01*
X153332351Y-124461555D01*
X153331130Y-124470304D01*
X153333194Y-124514919D01*
X153333300Y-124519492D01*
X153333300Y-124537161D01*
X153333355Y-124537756D01*
X153334842Y-124550578D01*
X153336081Y-124577374D01*
X153336082Y-124577378D01*
X153339655Y-124585469D01*
X153346402Y-124607258D01*
X153348029Y-124615960D01*
X153348031Y-124615965D01*
X153362150Y-124638769D01*
X153368542Y-124650895D01*
X153379375Y-124675429D01*
X153379376Y-124675430D01*
X153379377Y-124675432D01*
X153385635Y-124681690D01*
X153399797Y-124699569D01*
X153404456Y-124707094D01*
X153404457Y-124707095D01*
X153425859Y-124723257D01*
X153436201Y-124732256D01*
X154927389Y-126223444D01*
X154955166Y-126277961D01*
X154955890Y-126287163D01*
X154974353Y-126415575D01*
X154974354Y-126415578D01*
X154974354Y-126415579D01*
X154974355Y-126415581D01*
X154992447Y-126455197D01*
X155026808Y-126530438D01*
X155064195Y-126573584D01*
X155109494Y-126625862D01*
X155109496Y-126625863D01*
X155109497Y-126625864D01*
X155182741Y-126672935D01*
X155215716Y-126694126D01*
X155336867Y-126729700D01*
X155336868Y-126729700D01*
X155463132Y-126729700D01*
X155463133Y-126729700D01*
X155584284Y-126694126D01*
X155690506Y-126625862D01*
X155773193Y-126530436D01*
X155825645Y-126415581D01*
X155830376Y-126382679D01*
X155843615Y-126290602D01*
X155843615Y-126290597D01*
X155825646Y-126165624D01*
X155825645Y-126165621D01*
X155825645Y-126165619D01*
X155773193Y-126050764D01*
X155773191Y-126050762D01*
X155773191Y-126050761D01*
X155739377Y-126011739D01*
X155690506Y-125955338D01*
X155690503Y-125955336D01*
X155690502Y-125955335D01*
X155682202Y-125950001D01*
X160024282Y-125950001D01*
X160045078Y-126121281D01*
X160045079Y-126121283D01*
X160104499Y-126277961D01*
X160106263Y-126282611D01*
X160204275Y-126424607D01*
X160204276Y-126424608D01*
X160204277Y-126424609D01*
X160333426Y-126539024D01*
X160486203Y-126619208D01*
X160653730Y-126660500D01*
X160653733Y-126660500D01*
X160826267Y-126660500D01*
X160826270Y-126660500D01*
X160993797Y-126619208D01*
X161146574Y-126539024D01*
X161275723Y-126424609D01*
X161373737Y-126282611D01*
X161434921Y-126121283D01*
X161455718Y-125950000D01*
X161434921Y-125778717D01*
X161373737Y-125617389D01*
X161275723Y-125475391D01*
X161146574Y-125360976D01*
X160993797Y-125280792D01*
X160993796Y-125280791D01*
X160993795Y-125280791D01*
X160826272Y-125239500D01*
X160826270Y-125239500D01*
X160653730Y-125239500D01*
X160653727Y-125239500D01*
X160486204Y-125280791D01*
X160333424Y-125360977D01*
X160204275Y-125475392D01*
X160106263Y-125617388D01*
X160045079Y-125778717D01*
X160045078Y-125778718D01*
X160024282Y-125949998D01*
X160024282Y-125950001D01*
X155682202Y-125950001D01*
X155584285Y-125887074D01*
X155463134Y-125851500D01*
X155463133Y-125851500D01*
X155407363Y-125851500D01*
X155349172Y-125832593D01*
X155337359Y-125822504D01*
X153935696Y-124420841D01*
X153907919Y-124366324D01*
X153906700Y-124350837D01*
X153906700Y-120171102D01*
X157511085Y-120171102D01*
X157529053Y-120296075D01*
X157529054Y-120296078D01*
X157581508Y-120410938D01*
X157622850Y-120458649D01*
X157664194Y-120506362D01*
X157664196Y-120506363D01*
X157664197Y-120506364D01*
X157701596Y-120530399D01*
X157770416Y-120574626D01*
X157891567Y-120610200D01*
X157947337Y-120610200D01*
X158005528Y-120629107D01*
X158017341Y-120639196D01*
X158657027Y-121278882D01*
X158666025Y-121289222D01*
X158671346Y-121296268D01*
X158704350Y-121326355D01*
X158707655Y-121329511D01*
X158720155Y-121342011D01*
X158720650Y-121342421D01*
X158730741Y-121350413D01*
X158750558Y-121368479D01*
X158758805Y-121371674D01*
X158778991Y-121382314D01*
X158786289Y-121387313D01*
X158786290Y-121387314D01*
X158812404Y-121393456D01*
X158825495Y-121397509D01*
X158850507Y-121407200D01*
X158859352Y-121407200D01*
X158882018Y-121409829D01*
X158890629Y-121411855D01*
X158917196Y-121408149D01*
X158930873Y-121407200D01*
X163356685Y-121407200D01*
X163370363Y-121408149D01*
X163379102Y-121409368D01*
X163379105Y-121409369D01*
X163379107Y-121409368D01*
X163379108Y-121409369D01*
X163423721Y-121407306D01*
X163428294Y-121407200D01*
X163445970Y-121407200D01*
X163446542Y-121407146D01*
X163459375Y-121405657D01*
X163486177Y-121404418D01*
X163494267Y-121400845D01*
X163516062Y-121394095D01*
X163524762Y-121392470D01*
X163547576Y-121378343D01*
X163559690Y-121371958D01*
X163584232Y-121361123D01*
X163590483Y-121354870D01*
X163608375Y-121340698D01*
X163615894Y-121336044D01*
X163632058Y-121314638D01*
X163641050Y-121304303D01*
X165042613Y-119902740D01*
X165097128Y-119874965D01*
X165157560Y-119884536D01*
X165187434Y-119907914D01*
X165268494Y-120001462D01*
X165268496Y-120001463D01*
X165268497Y-120001464D01*
X165337985Y-120046121D01*
X165374716Y-120069726D01*
X165495867Y-120105300D01*
X165495868Y-120105300D01*
X165622132Y-120105300D01*
X165622133Y-120105300D01*
X165743284Y-120069726D01*
X165849506Y-120001462D01*
X165932193Y-119906036D01*
X165984645Y-119791181D01*
X166002615Y-119666200D01*
X165995895Y-119619464D01*
X165984646Y-119541224D01*
X165984645Y-119541221D01*
X165984645Y-119541219D01*
X165932193Y-119426364D01*
X165932191Y-119426362D01*
X165932191Y-119426361D01*
X165898377Y-119387339D01*
X165849506Y-119330938D01*
X165849503Y-119330936D01*
X165849502Y-119330935D01*
X165809740Y-119305382D01*
X165771009Y-119258017D01*
X165767515Y-119196931D01*
X165793257Y-119152096D01*
X171571989Y-113373364D01*
X171582334Y-113364365D01*
X171589366Y-113359054D01*
X171589368Y-113359054D01*
X171619468Y-113326034D01*
X171622604Y-113322749D01*
X171635112Y-113310243D01*
X171635114Y-113310239D01*
X171635117Y-113310237D01*
X171635510Y-113309764D01*
X171643513Y-113299657D01*
X171661579Y-113279842D01*
X171664775Y-113271591D01*
X171675411Y-113251411D01*
X171680414Y-113244110D01*
X171686557Y-113217990D01*
X171690606Y-113204912D01*
X171700300Y-113179893D01*
X171700300Y-113171047D01*
X171702930Y-113148378D01*
X171704955Y-113139770D01*
X171701249Y-113113200D01*
X171700300Y-113099524D01*
X171700300Y-111513059D01*
X171719207Y-111454868D01*
X171768707Y-111418904D01*
X171829893Y-111418904D01*
X171854028Y-111432536D01*
X171854737Y-111431434D01*
X171914007Y-111469524D01*
X171966916Y-111503526D01*
X172088067Y-111539100D01*
X172088068Y-111539100D01*
X172214332Y-111539100D01*
X172214333Y-111539100D01*
X172335484Y-111503526D01*
X172441706Y-111435262D01*
X172524393Y-111339836D01*
X172576845Y-111224981D01*
X172581735Y-111190974D01*
X172594815Y-111100002D01*
X172594815Y-111099997D01*
X172576846Y-110975024D01*
X172576845Y-110975021D01*
X172576845Y-110975019D01*
X172524393Y-110860164D01*
X172524391Y-110860162D01*
X172524391Y-110860161D01*
X172490577Y-110821139D01*
X172441706Y-110764738D01*
X172441703Y-110764736D01*
X172441702Y-110764735D01*
X172335485Y-110696474D01*
X172214334Y-110660900D01*
X172214333Y-110660900D01*
X172088067Y-110660900D01*
X172088065Y-110660900D01*
X171966914Y-110696474D01*
X171854737Y-110768566D01*
X171853304Y-110766337D01*
X171807757Y-110785578D01*
X171748164Y-110771711D01*
X171708103Y-110725464D01*
X171700300Y-110686940D01*
X171700300Y-106425831D01*
X171719207Y-106367640D01*
X171768707Y-106331676D01*
X171829893Y-106331676D01*
X171879393Y-106367640D01*
X171894037Y-106397093D01*
X171915485Y-106467799D01*
X171915487Y-106467804D01*
X172013952Y-106652021D01*
X172013958Y-106652030D01*
X172013960Y-106652033D01*
X172047365Y-106692737D01*
X172146480Y-106813510D01*
X172146489Y-106813519D01*
X172167677Y-106830907D01*
X172307967Y-106946040D01*
X172307971Y-106946042D01*
X172307978Y-106946047D01*
X172492195Y-107044512D01*
X172492201Y-107044515D01*
X172631465Y-107086759D01*
X172692105Y-107105155D01*
X172692110Y-107105156D01*
X172899997Y-107125631D01*
X172900000Y-107125631D01*
X172900003Y-107125631D01*
X173107889Y-107105156D01*
X173107894Y-107105155D01*
X173307799Y-107044515D01*
X173373850Y-107009209D01*
X173492021Y-106946047D01*
X173492024Y-106946044D01*
X173492033Y-106946040D01*
X173653515Y-106813515D01*
X173786040Y-106652033D01*
X173786044Y-106652024D01*
X173786047Y-106652021D01*
X173884512Y-106467804D01*
X173884515Y-106467799D01*
X173945155Y-106267894D01*
X173945156Y-106267889D01*
X173965631Y-106060003D01*
X173965631Y-106059996D01*
X173945156Y-105852110D01*
X173945155Y-105852105D01*
X173911411Y-105740866D01*
X173884515Y-105652201D01*
X173884512Y-105652195D01*
X173786047Y-105467978D01*
X173786042Y-105467971D01*
X173786040Y-105467967D01*
X173674670Y-105332262D01*
X173653519Y-105306489D01*
X173653510Y-105306480D01*
X173559370Y-105229222D01*
X173492033Y-105173960D01*
X173492030Y-105173958D01*
X173492021Y-105173952D01*
X173307804Y-105075487D01*
X173307799Y-105075485D01*
X173107894Y-105014844D01*
X173107889Y-105014843D01*
X172900003Y-104994369D01*
X172899997Y-104994369D01*
X172692110Y-105014843D01*
X172692105Y-105014844D01*
X172492200Y-105075485D01*
X172492195Y-105075487D01*
X172307978Y-105173952D01*
X172307968Y-105173959D01*
X172146489Y-105306480D01*
X172146480Y-105306489D01*
X172013959Y-105467968D01*
X172013952Y-105467978D01*
X171915487Y-105652195D01*
X171915485Y-105652200D01*
X171894037Y-105722906D01*
X171859052Y-105773103D01*
X171801244Y-105793149D01*
X171742693Y-105775388D01*
X171705764Y-105726603D01*
X171700300Y-105694168D01*
X171700300Y-103885831D01*
X171719207Y-103827640D01*
X171768707Y-103791676D01*
X171829893Y-103791676D01*
X171879393Y-103827640D01*
X171894036Y-103857091D01*
X171894524Y-103858700D01*
X171915485Y-103927799D01*
X171915487Y-103927804D01*
X172013952Y-104112021D01*
X172013958Y-104112030D01*
X172013960Y-104112033D01*
X172042903Y-104147300D01*
X172146480Y-104273510D01*
X172146489Y-104273519D01*
X172176075Y-104297799D01*
X172307967Y-104406040D01*
X172307971Y-104406042D01*
X172307978Y-104406047D01*
X172492195Y-104504512D01*
X172492201Y-104504515D01*
X172631465Y-104546759D01*
X172692105Y-104565155D01*
X172692110Y-104565156D01*
X172899997Y-104585631D01*
X172900000Y-104585631D01*
X172900003Y-104585631D01*
X173107889Y-104565156D01*
X173107894Y-104565155D01*
X173113492Y-104563457D01*
X173307799Y-104504515D01*
X173409977Y-104449900D01*
X173492021Y-104406047D01*
X173492024Y-104406044D01*
X173492033Y-104406040D01*
X173653515Y-104273515D01*
X173786040Y-104112033D01*
X173786044Y-104112024D01*
X173786047Y-104112021D01*
X173884512Y-103927804D01*
X173884515Y-103927799D01*
X173945155Y-103727894D01*
X173945156Y-103727889D01*
X173965631Y-103520003D01*
X173965631Y-103519996D01*
X173945156Y-103312110D01*
X173945155Y-103312105D01*
X173897245Y-103154168D01*
X173884515Y-103112201D01*
X173884512Y-103112195D01*
X173786047Y-102927978D01*
X173786042Y-102927971D01*
X173786040Y-102927967D01*
X173715324Y-102841800D01*
X173653519Y-102766489D01*
X173653510Y-102766480D01*
X173559370Y-102689222D01*
X173492033Y-102633960D01*
X173492030Y-102633958D01*
X173492021Y-102633952D01*
X173307804Y-102535487D01*
X173307799Y-102535485D01*
X173107894Y-102474844D01*
X173107889Y-102474843D01*
X172900003Y-102454369D01*
X172899997Y-102454369D01*
X172692110Y-102474843D01*
X172692105Y-102474844D01*
X172492200Y-102535485D01*
X172492195Y-102535487D01*
X172307978Y-102633952D01*
X172307968Y-102633959D01*
X172146489Y-102766480D01*
X172146480Y-102766489D01*
X172013959Y-102927968D01*
X172013952Y-102927978D01*
X171915487Y-103112195D01*
X171915485Y-103112200D01*
X171894037Y-103182906D01*
X171859052Y-103233103D01*
X171801244Y-103253149D01*
X171742693Y-103235388D01*
X171705764Y-103186603D01*
X171700300Y-103154168D01*
X171700300Y-101345831D01*
X171719207Y-101287640D01*
X171768707Y-101251676D01*
X171829893Y-101251676D01*
X171879393Y-101287640D01*
X171894037Y-101317093D01*
X171915485Y-101387799D01*
X171915487Y-101387804D01*
X172013952Y-101572021D01*
X172013958Y-101572030D01*
X172013960Y-101572033D01*
X172069222Y-101639370D01*
X172146480Y-101733510D01*
X172146489Y-101733519D01*
X172172908Y-101755200D01*
X172307967Y-101866040D01*
X172307971Y-101866042D01*
X172307978Y-101866047D01*
X172492195Y-101964512D01*
X172492201Y-101964515D01*
X172631465Y-102006759D01*
X172692105Y-102025155D01*
X172692110Y-102025156D01*
X172899997Y-102045631D01*
X172900000Y-102045631D01*
X172900003Y-102045631D01*
X173107889Y-102025156D01*
X173107894Y-102025155D01*
X173307799Y-101964515D01*
X173373850Y-101929209D01*
X173492021Y-101866047D01*
X173492024Y-101866044D01*
X173492033Y-101866040D01*
X173653515Y-101733515D01*
X173786040Y-101572033D01*
X173786044Y-101572024D01*
X173786047Y-101572021D01*
X173884512Y-101387804D01*
X173884515Y-101387799D01*
X173945155Y-101187894D01*
X173945156Y-101187889D01*
X173965631Y-100980003D01*
X173965631Y-100979996D01*
X173945156Y-100772110D01*
X173945155Y-100772105D01*
X173896152Y-100610564D01*
X173884515Y-100572201D01*
X173884512Y-100572195D01*
X173786047Y-100387978D01*
X173786042Y-100387971D01*
X173786040Y-100387967D01*
X173693578Y-100275302D01*
X173653519Y-100226489D01*
X173653510Y-100226480D01*
X173559370Y-100149222D01*
X173492033Y-100093960D01*
X173492030Y-100093958D01*
X173492021Y-100093952D01*
X173307804Y-99995487D01*
X173307799Y-99995485D01*
X173107894Y-99934844D01*
X173107889Y-99934843D01*
X172900003Y-99914369D01*
X172899997Y-99914369D01*
X172692110Y-99934843D01*
X172692105Y-99934844D01*
X172492200Y-99995485D01*
X172492195Y-99995487D01*
X172307978Y-100093952D01*
X172307968Y-100093959D01*
X172146489Y-100226480D01*
X172146480Y-100226489D01*
X172013959Y-100387968D01*
X172013952Y-100387978D01*
X171915487Y-100572195D01*
X171915485Y-100572200D01*
X171894037Y-100642906D01*
X171859052Y-100693103D01*
X171801244Y-100713149D01*
X171742693Y-100695388D01*
X171705764Y-100646603D01*
X171700300Y-100614168D01*
X171700300Y-98919415D01*
X171719207Y-98861224D01*
X171768707Y-98825260D01*
X171829893Y-98825260D01*
X171879393Y-98861224D01*
X171887921Y-98875287D01*
X171960750Y-99021548D01*
X171960755Y-99021557D01*
X172083608Y-99184240D01*
X172234266Y-99321582D01*
X172407581Y-99428895D01*
X172407586Y-99428898D01*
X172597683Y-99502541D01*
X172774999Y-99535687D01*
X172775000Y-99535687D01*
X172775000Y-98927169D01*
X172864237Y-98940000D01*
X172935763Y-98940000D01*
X173025000Y-98927169D01*
X173025000Y-99535687D01*
X173202316Y-99502541D01*
X173392413Y-99428898D01*
X173392418Y-99428895D01*
X173565733Y-99321582D01*
X173716391Y-99184240D01*
X173839244Y-99021557D01*
X173839249Y-99021548D01*
X173930112Y-98839070D01*
X173985902Y-98642989D01*
X173993129Y-98565000D01*
X173384405Y-98565000D01*
X173400000Y-98511889D01*
X173400000Y-98368111D01*
X173384405Y-98315000D01*
X173993129Y-98315000D01*
X173985902Y-98237010D01*
X173930112Y-98040929D01*
X173839249Y-97858451D01*
X173839244Y-97858442D01*
X173716391Y-97695759D01*
X173565733Y-97558417D01*
X173392418Y-97451104D01*
X173392413Y-97451101D01*
X173202317Y-97377458D01*
X173120014Y-97362073D01*
X173066289Y-97332795D01*
X173040033Y-97277529D01*
X173051276Y-97217386D01*
X173070311Y-97195308D01*
X173069580Y-97194642D01*
X173075615Y-97188020D01*
X173096022Y-97171074D01*
X173096490Y-97170645D01*
X173096494Y-97170644D01*
X173118051Y-97142097D01*
X173123882Y-97135074D01*
X173147979Y-97108642D01*
X173147981Y-97108636D01*
X173148323Y-97108085D01*
X173160808Y-97085671D01*
X173161089Y-97085106D01*
X173170878Y-97050698D01*
X173173778Y-97042044D01*
X173186700Y-97008693D01*
X173186700Y-97008687D01*
X173186815Y-97008076D01*
X173190480Y-96981805D01*
X173192933Y-96973185D01*
X173194864Y-96973734D01*
X173214368Y-96928421D01*
X173260017Y-96899009D01*
X173307799Y-96884515D01*
X173397184Y-96836738D01*
X173492021Y-96786047D01*
X173492024Y-96786044D01*
X173492033Y-96786040D01*
X173653515Y-96653515D01*
X173786040Y-96492033D01*
X173786044Y-96492024D01*
X173786047Y-96492021D01*
X173860549Y-96352637D01*
X173884515Y-96307799D01*
X173945155Y-96107894D01*
X173945156Y-96107889D01*
X173965631Y-95900003D01*
X173965631Y-95899996D01*
X173945156Y-95692110D01*
X173945155Y-95692105D01*
X173926759Y-95631465D01*
X173884515Y-95492201D01*
X173855333Y-95437605D01*
X173786047Y-95307978D01*
X173786042Y-95307971D01*
X173786040Y-95307967D01*
X173703064Y-95206860D01*
X173653519Y-95146489D01*
X173653510Y-95146480D01*
X173559370Y-95069222D01*
X173492033Y-95013960D01*
X173492030Y-95013958D01*
X173492021Y-95013952D01*
X173307804Y-94915487D01*
X173307799Y-94915485D01*
X173107894Y-94854844D01*
X173107888Y-94854843D01*
X173076814Y-94851783D01*
X173020757Y-94827263D01*
X172989818Y-94774476D01*
X172995816Y-94713585D01*
X173034407Y-94669085D01*
X173035782Y-94668234D01*
X173043749Y-94663797D01*
X173075768Y-94647854D01*
X173075771Y-94647849D01*
X173076291Y-94647458D01*
X173096022Y-94631074D01*
X173096490Y-94630645D01*
X173096494Y-94630644D01*
X173118051Y-94602097D01*
X173123882Y-94595074D01*
X173147979Y-94568642D01*
X173147981Y-94568636D01*
X173148323Y-94568085D01*
X173160808Y-94545671D01*
X173161089Y-94545106D01*
X173161990Y-94541939D01*
X173170878Y-94510698D01*
X173173778Y-94502044D01*
X173186700Y-94468693D01*
X173186700Y-94468687D01*
X173186815Y-94468076D01*
X173190480Y-94441805D01*
X173192933Y-94433185D01*
X173194864Y-94433734D01*
X173214368Y-94388421D01*
X173260017Y-94359009D01*
X173307799Y-94344515D01*
X173373850Y-94309209D01*
X173492021Y-94246047D01*
X173492024Y-94246044D01*
X173492033Y-94246040D01*
X173653515Y-94113515D01*
X173786040Y-93952033D01*
X173786044Y-93952024D01*
X173786047Y-93952021D01*
X173864578Y-93805098D01*
X173884515Y-93767799D01*
X173945155Y-93567894D01*
X173945156Y-93567889D01*
X173965631Y-93360003D01*
X173965631Y-93359996D01*
X173945156Y-93152110D01*
X173945155Y-93152105D01*
X173926759Y-93091465D01*
X173884515Y-92952201D01*
X173857872Y-92902355D01*
X173786047Y-92767978D01*
X173786042Y-92767971D01*
X173786040Y-92767967D01*
X173693684Y-92655431D01*
X173653519Y-92606489D01*
X173653510Y-92606480D01*
X173559370Y-92529222D01*
X173492033Y-92473960D01*
X173492030Y-92473958D01*
X173492025Y-92473955D01*
X173390181Y-92419518D01*
X173347775Y-92375412D01*
X173339392Y-92314804D01*
X173348733Y-92291019D01*
X173347268Y-92290350D01*
X173350210Y-92283906D01*
X173350211Y-92283905D01*
X173358188Y-92256735D01*
X173363125Y-92243500D01*
X173374890Y-92217740D01*
X173378921Y-92189696D01*
X173381920Y-92175911D01*
X173389900Y-92148737D01*
X173389900Y-92007863D01*
X173389900Y-91819969D01*
X173408807Y-91761778D01*
X173442231Y-91732659D01*
X173492033Y-91706040D01*
X173653515Y-91573515D01*
X173786040Y-91412033D01*
X173786044Y-91412024D01*
X173786047Y-91412021D01*
X173884512Y-91227804D01*
X173884515Y-91227799D01*
X173945155Y-91027894D01*
X173945156Y-91027889D01*
X173965631Y-90820003D01*
X173965631Y-90819996D01*
X173945156Y-90612110D01*
X173945155Y-90612105D01*
X173914370Y-90510621D01*
X173884515Y-90412201D01*
X173883182Y-90409707D01*
X173786047Y-90227978D01*
X173786042Y-90227971D01*
X173786040Y-90227967D01*
X173715324Y-90141800D01*
X173653519Y-90066489D01*
X173653510Y-90066480D01*
X173513649Y-89951700D01*
X173492033Y-89933960D01*
X173492030Y-89933958D01*
X173492021Y-89933952D01*
X173307804Y-89835487D01*
X173307799Y-89835485D01*
X173107894Y-89774844D01*
X173107889Y-89774843D01*
X172900003Y-89754369D01*
X172899997Y-89754369D01*
X172692110Y-89774843D01*
X172692105Y-89774844D01*
X172492200Y-89835485D01*
X172492195Y-89835487D01*
X172307978Y-89933952D01*
X172307968Y-89933959D01*
X172146489Y-90066480D01*
X172146480Y-90066489D01*
X172013959Y-90227968D01*
X172013952Y-90227978D01*
X171915487Y-90412195D01*
X171915485Y-90412200D01*
X171854844Y-90612105D01*
X171854843Y-90612110D01*
X171834369Y-90819996D01*
X171834369Y-90820003D01*
X171854843Y-91027889D01*
X171854844Y-91027894D01*
X171915485Y-91227799D01*
X171915487Y-91227804D01*
X172013952Y-91412021D01*
X172013958Y-91412030D01*
X172101146Y-91518270D01*
X172123445Y-91575247D01*
X172107996Y-91634449D01*
X172086302Y-91656183D01*
X172087267Y-91657296D01*
X172081917Y-91661931D01*
X172081916Y-91661932D01*
X172044580Y-91694284D01*
X172039079Y-91698716D01*
X172027866Y-91707109D01*
X172017953Y-91717022D01*
X172012788Y-91721831D01*
X171975450Y-91754185D01*
X171971598Y-91760179D01*
X171958321Y-91776654D01*
X167987354Y-95747621D01*
X167970879Y-95760898D01*
X167964885Y-95764750D01*
X167932531Y-95802088D01*
X167927722Y-95807253D01*
X167917809Y-95817166D01*
X167909416Y-95828379D01*
X167904984Y-95833880D01*
X167872631Y-95871217D01*
X167872629Y-95871219D01*
X167869668Y-95877703D01*
X167858879Y-95895886D01*
X167854606Y-95901594D01*
X167854602Y-95901601D01*
X167837335Y-95947896D01*
X167834631Y-95954423D01*
X167814110Y-95999359D01*
X167814108Y-95999364D01*
X167813095Y-96006414D01*
X167807863Y-96026914D01*
X167805374Y-96033586D01*
X167805372Y-96033595D01*
X167801849Y-96082862D01*
X167801094Y-96089884D01*
X167799100Y-96103756D01*
X167799100Y-96117770D01*
X167798848Y-96124832D01*
X167795324Y-96174108D01*
X167796838Y-96181068D01*
X167799100Y-96202112D01*
X167799100Y-105163500D01*
X167780193Y-105221691D01*
X167730693Y-105257655D01*
X167700100Y-105262500D01*
X167025001Y-105262500D01*
X167025000Y-105262501D01*
X167025000Y-106762499D01*
X167025001Y-106762500D01*
X167700100Y-106762500D01*
X167758291Y-106781407D01*
X167794255Y-106830907D01*
X167799100Y-106861500D01*
X167799100Y-111754168D01*
X167780193Y-111812359D01*
X167770104Y-111824172D01*
X162894454Y-116699821D01*
X162877979Y-116713098D01*
X162871985Y-116716950D01*
X162839631Y-116754288D01*
X162834822Y-116759453D01*
X162824909Y-116769366D01*
X162816516Y-116780579D01*
X162812084Y-116786080D01*
X162779731Y-116823417D01*
X162779729Y-116823419D01*
X162776768Y-116829903D01*
X162765979Y-116848086D01*
X162761706Y-116853794D01*
X162761702Y-116853801D01*
X162744435Y-116900096D01*
X162741731Y-116906623D01*
X162721210Y-116951559D01*
X162721208Y-116951564D01*
X162720195Y-116958614D01*
X162714963Y-116979114D01*
X162712474Y-116985786D01*
X162712472Y-116985795D01*
X162708949Y-117035062D01*
X162708194Y-117042084D01*
X162706200Y-117055956D01*
X162706200Y-117069970D01*
X162705948Y-117077032D01*
X162702424Y-117126308D01*
X162703938Y-117133268D01*
X162706200Y-117154312D01*
X162706200Y-120214138D01*
X162698664Y-120252023D01*
X162644572Y-120382612D01*
X162644570Y-120382621D01*
X162625115Y-120530399D01*
X162625115Y-120530400D01*
X162644570Y-120678179D01*
X162652331Y-120696916D01*
X162657130Y-120757913D01*
X162625160Y-120810082D01*
X162568631Y-120833495D01*
X162560866Y-120833800D01*
X159063863Y-120833800D01*
X159005672Y-120814893D01*
X158993859Y-120804804D01*
X158427311Y-120238256D01*
X158399534Y-120183739D01*
X158398809Y-120174539D01*
X158398314Y-120171097D01*
X158383739Y-120069725D01*
X158380346Y-120046124D01*
X158380345Y-120046121D01*
X158380345Y-120046119D01*
X158327893Y-119931264D01*
X158327891Y-119931262D01*
X158327891Y-119931261D01*
X158287403Y-119884536D01*
X158245206Y-119835838D01*
X158245203Y-119835836D01*
X158245202Y-119835835D01*
X158138985Y-119767574D01*
X158017834Y-119732000D01*
X158017833Y-119732000D01*
X157891567Y-119732000D01*
X157891565Y-119732000D01*
X157770414Y-119767574D01*
X157664197Y-119835835D01*
X157664193Y-119835839D01*
X157581508Y-119931261D01*
X157529054Y-120046121D01*
X157529053Y-120046124D01*
X157511085Y-120171097D01*
X157511085Y-120171102D01*
X153906700Y-120171102D01*
X153906700Y-119284202D01*
X158606585Y-119284202D01*
X158624553Y-119409175D01*
X158624554Y-119409178D01*
X158677008Y-119524038D01*
X158691900Y-119541224D01*
X158759694Y-119619462D01*
X158759696Y-119619463D01*
X158759697Y-119619464D01*
X158832423Y-119666202D01*
X158865916Y-119687726D01*
X158987067Y-119723300D01*
X158987068Y-119723300D01*
X159113332Y-119723300D01*
X159113333Y-119723300D01*
X159234484Y-119687726D01*
X159340706Y-119619462D01*
X159423393Y-119524036D01*
X159475845Y-119409181D01*
X159487095Y-119330938D01*
X159493815Y-119284202D01*
X159493815Y-119284197D01*
X159475846Y-119159224D01*
X159475845Y-119159221D01*
X159475845Y-119159219D01*
X159423393Y-119044364D01*
X159423391Y-119044362D01*
X159423391Y-119044361D01*
X159389577Y-119005339D01*
X159340706Y-118948938D01*
X159340703Y-118948936D01*
X159340702Y-118948935D01*
X159234485Y-118880674D01*
X159113334Y-118845100D01*
X159113333Y-118845100D01*
X158987067Y-118845100D01*
X158987065Y-118845100D01*
X158865914Y-118880674D01*
X158759697Y-118948935D01*
X158759693Y-118948939D01*
X158677008Y-119044361D01*
X158624554Y-119159221D01*
X158624553Y-119159224D01*
X158606585Y-119284197D01*
X158606585Y-119284202D01*
X153906700Y-119284202D01*
X153906700Y-103781814D01*
X153907650Y-103768135D01*
X153908869Y-103759395D01*
X153906806Y-103714779D01*
X153906700Y-103710206D01*
X153906700Y-103692532D01*
X153906648Y-103691973D01*
X153905157Y-103679126D01*
X153903918Y-103652323D01*
X153900345Y-103644230D01*
X153893595Y-103622433D01*
X153892928Y-103618864D01*
X153891970Y-103613738D01*
X153877845Y-103590925D01*
X153871455Y-103578801D01*
X153860625Y-103554271D01*
X153860624Y-103554270D01*
X153860624Y-103554269D01*
X153854361Y-103548006D01*
X153840201Y-103530128D01*
X153835544Y-103522606D01*
X153814140Y-103506442D01*
X153803798Y-103497443D01*
X145694496Y-95388141D01*
X145666719Y-95333624D01*
X145665500Y-95318137D01*
X145665500Y-88647300D01*
X147749015Y-88647300D01*
X147768470Y-88795081D01*
X147768471Y-88795082D01*
X147825510Y-88932789D01*
X147825512Y-88932793D01*
X147916251Y-89051045D01*
X147916254Y-89051048D01*
X147938011Y-89067743D01*
X148034507Y-89141788D01*
X148172218Y-89198829D01*
X148319999Y-89218285D01*
X148320000Y-89218285D01*
X148320001Y-89218285D01*
X148393891Y-89208557D01*
X148467782Y-89198829D01*
X148605493Y-89141788D01*
X148675371Y-89088168D01*
X148733046Y-89067743D01*
X148791712Y-89085120D01*
X148828960Y-89133661D01*
X148833631Y-89180795D01*
X148833086Y-89184597D01*
X148833085Y-89184601D01*
X148833085Y-89184602D01*
X148851053Y-89309575D01*
X148851054Y-89309578D01*
X148851054Y-89309579D01*
X148851055Y-89309581D01*
X148876589Y-89365493D01*
X148903508Y-89424438D01*
X148929644Y-89454600D01*
X148986194Y-89519862D01*
X148986196Y-89519863D01*
X148986197Y-89519864D01*
X149085276Y-89583538D01*
X149092416Y-89588126D01*
X149213567Y-89623700D01*
X149213568Y-89623700D01*
X149339832Y-89623700D01*
X149339833Y-89623700D01*
X149460984Y-89588126D01*
X149567206Y-89519862D01*
X149649893Y-89424436D01*
X149702345Y-89309581D01*
X149718269Y-89198829D01*
X149720315Y-89184602D01*
X149720315Y-89184597D01*
X149702346Y-89059624D01*
X149702345Y-89059621D01*
X149702345Y-89059619D01*
X149649893Y-88944764D01*
X149649891Y-88944762D01*
X149649891Y-88944761D01*
X149616077Y-88905739D01*
X149567206Y-88849338D01*
X149567203Y-88849336D01*
X149567202Y-88849335D01*
X149460985Y-88781074D01*
X149339834Y-88745500D01*
X149339833Y-88745500D01*
X149213567Y-88745500D01*
X149213565Y-88745500D01*
X149092415Y-88781074D01*
X149032658Y-88819477D01*
X148973483Y-88835030D01*
X148916467Y-88812831D01*
X148883388Y-88761358D01*
X148880983Y-88723269D01*
X148883578Y-88703564D01*
X148890985Y-88647300D01*
X148871529Y-88499518D01*
X148814488Y-88361808D01*
X148723747Y-88243553D01*
X148723745Y-88243552D01*
X148723745Y-88243551D01*
X148605493Y-88152812D01*
X148605489Y-88152810D01*
X148467782Y-88095771D01*
X148467781Y-88095770D01*
X148320001Y-88076315D01*
X148319999Y-88076315D01*
X148172221Y-88095770D01*
X148172213Y-88095772D01*
X148034511Y-88152810D01*
X148034507Y-88152812D01*
X147916255Y-88243551D01*
X147916251Y-88243555D01*
X147825512Y-88361807D01*
X147825510Y-88361811D01*
X147768472Y-88499513D01*
X147768470Y-88499521D01*
X147749015Y-88647299D01*
X147749015Y-88647300D01*
X145665500Y-88647300D01*
X145665500Y-87920479D01*
X145684407Y-87862288D01*
X145689681Y-87855648D01*
X145751991Y-87783738D01*
X145751990Y-87783738D01*
X145751993Y-87783736D01*
X145804445Y-87668881D01*
X145805194Y-87663675D01*
X145822415Y-87543902D01*
X145822415Y-87543897D01*
X145804446Y-87418924D01*
X145804445Y-87418921D01*
X145804445Y-87418919D01*
X145751993Y-87304064D01*
X145751991Y-87304062D01*
X145751991Y-87304061D01*
X145716564Y-87263177D01*
X145669306Y-87208638D01*
X145669303Y-87208636D01*
X145669302Y-87208635D01*
X145563085Y-87140374D01*
X145441934Y-87104800D01*
X145441933Y-87104800D01*
X145386163Y-87104800D01*
X145327972Y-87085893D01*
X145316159Y-87075804D01*
X143871857Y-85631502D01*
X145057285Y-85631502D01*
X145075253Y-85756475D01*
X145075254Y-85756478D01*
X145075254Y-85756479D01*
X145075255Y-85756481D01*
X145127707Y-85871336D01*
X145127708Y-85871338D01*
X145169050Y-85919049D01*
X145210394Y-85966762D01*
X145316616Y-86035026D01*
X145437767Y-86070600D01*
X145437768Y-86070600D01*
X145564032Y-86070600D01*
X145564033Y-86070600D01*
X145685184Y-86035026D01*
X145791406Y-85966762D01*
X145874093Y-85871336D01*
X145926545Y-85756481D01*
X145939525Y-85666207D01*
X145944515Y-85631502D01*
X145944515Y-85631497D01*
X145926546Y-85506524D01*
X145926545Y-85506521D01*
X145926545Y-85506519D01*
X145874093Y-85391664D01*
X145874091Y-85391662D01*
X145874091Y-85391661D01*
X145819361Y-85328500D01*
X145791406Y-85296238D01*
X145791403Y-85296236D01*
X145791402Y-85296235D01*
X145685185Y-85227974D01*
X145564034Y-85192400D01*
X145564033Y-85192400D01*
X145437767Y-85192400D01*
X145437765Y-85192400D01*
X145316614Y-85227974D01*
X145210397Y-85296235D01*
X145210393Y-85296239D01*
X145127708Y-85391661D01*
X145075254Y-85506521D01*
X145075253Y-85506524D01*
X145057285Y-85631497D01*
X145057285Y-85631502D01*
X143871857Y-85631502D01*
X141144858Y-82904503D01*
X146192794Y-82904503D01*
X146211569Y-83095138D01*
X146211570Y-83095143D01*
X146267179Y-83278461D01*
X146357482Y-83447406D01*
X146479006Y-83595484D01*
X146479015Y-83595493D01*
X146627089Y-83717014D01*
X146627093Y-83717017D01*
X146796039Y-83807321D01*
X146923748Y-83846060D01*
X146979356Y-83862929D01*
X146979361Y-83862930D01*
X147169997Y-83881706D01*
X147170000Y-83881706D01*
X147170003Y-83881706D01*
X147360638Y-83862930D01*
X147360643Y-83862929D01*
X147543961Y-83807321D01*
X147712907Y-83717017D01*
X147860989Y-83595489D01*
X147982517Y-83447407D01*
X148072821Y-83278461D01*
X148128429Y-83095143D01*
X148128430Y-83095138D01*
X148147206Y-82904503D01*
X149939294Y-82904503D01*
X149958069Y-83095138D01*
X149958070Y-83095143D01*
X150013679Y-83278461D01*
X150103982Y-83447406D01*
X150225506Y-83595484D01*
X150225515Y-83595493D01*
X150373589Y-83717014D01*
X150373593Y-83717017D01*
X150373595Y-83717018D01*
X150373598Y-83717020D01*
X150374264Y-83717376D01*
X150374503Y-83717624D01*
X150377636Y-83719718D01*
X150377176Y-83720405D01*
X150416673Y-83761479D01*
X150426600Y-83804688D01*
X150426600Y-93363887D01*
X150424338Y-93384928D01*
X150422824Y-93391888D01*
X150422823Y-93391890D01*
X150426348Y-93441166D01*
X150426600Y-93448228D01*
X150426600Y-93462244D01*
X150428594Y-93476118D01*
X150429349Y-93483139D01*
X150432872Y-93532405D01*
X150435362Y-93539080D01*
X150440595Y-93559585D01*
X150441609Y-93566638D01*
X150462135Y-93611585D01*
X150464839Y-93618112D01*
X150482104Y-93664401D01*
X150486373Y-93670103D01*
X150497173Y-93688305D01*
X150500132Y-93694784D01*
X150532485Y-93732121D01*
X150536918Y-93737623D01*
X150545311Y-93748834D01*
X150555218Y-93758742D01*
X150560031Y-93763911D01*
X150592385Y-93801249D01*
X150598374Y-93805098D01*
X150614856Y-93818379D01*
X153569609Y-96773132D01*
X153591069Y-96805250D01*
X153645161Y-96935842D01*
X153645162Y-96935843D01*
X153729921Y-97046302D01*
X153735903Y-97054097D01*
X153854157Y-97144838D01*
X153991868Y-97201879D01*
X154139649Y-97221335D01*
X154139650Y-97221335D01*
X154139651Y-97221335D01*
X154213541Y-97211607D01*
X154287432Y-97201879D01*
X154425143Y-97144838D01*
X154543397Y-97054097D01*
X154598758Y-96981949D01*
X154649183Y-96947295D01*
X154710347Y-96948897D01*
X154758889Y-96986144D01*
X154776300Y-97042218D01*
X154776300Y-97958369D01*
X154757393Y-98016560D01*
X154747303Y-98028373D01*
X154378716Y-98396959D01*
X154346599Y-98418419D01*
X154216009Y-98472511D01*
X154216007Y-98472512D01*
X154097755Y-98563251D01*
X154097751Y-98563255D01*
X154007012Y-98681507D01*
X154007010Y-98681511D01*
X153949972Y-98819213D01*
X153949970Y-98819221D01*
X153930515Y-98966999D01*
X153930515Y-98967000D01*
X153949970Y-99114781D01*
X153949971Y-99114782D01*
X154007010Y-99252489D01*
X154007012Y-99252493D01*
X154097751Y-99370745D01*
X154097754Y-99370748D01*
X154102696Y-99374540D01*
X154216007Y-99461488D01*
X154255854Y-99477993D01*
X154346598Y-99515580D01*
X154378717Y-99537040D01*
X154468004Y-99626327D01*
X154495781Y-99680844D01*
X154497000Y-99696331D01*
X154497000Y-105663587D01*
X154494738Y-105684628D01*
X154493224Y-105691588D01*
X154493223Y-105691590D01*
X154496748Y-105740866D01*
X154497000Y-105747928D01*
X154497000Y-105761944D01*
X154498994Y-105775818D01*
X154499749Y-105782839D01*
X154503272Y-105832105D01*
X154505762Y-105838780D01*
X154510995Y-105859285D01*
X154512009Y-105866338D01*
X154532535Y-105911285D01*
X154535239Y-105917812D01*
X154552504Y-105964101D01*
X154556773Y-105969803D01*
X154567573Y-105988005D01*
X154570532Y-105994484D01*
X154602885Y-106031821D01*
X154607318Y-106037323D01*
X154615711Y-106048534D01*
X154625618Y-106058442D01*
X154630431Y-106063611D01*
X154662785Y-106100949D01*
X154668774Y-106104798D01*
X154685256Y-106118079D01*
X161263122Y-112695946D01*
X161276401Y-112712425D01*
X161280251Y-112718415D01*
X161317586Y-112750766D01*
X161322745Y-112755569D01*
X161332666Y-112765490D01*
X161343895Y-112773897D01*
X161349394Y-112778329D01*
X161372152Y-112798048D01*
X161386716Y-112810668D01*
X161393192Y-112813625D01*
X161411399Y-112824428D01*
X161417101Y-112828697D01*
X161463406Y-112845967D01*
X161469911Y-112848662D01*
X161514860Y-112869190D01*
X161521909Y-112870203D01*
X161542424Y-112875439D01*
X161549094Y-112877927D01*
X161549093Y-112877927D01*
X161598370Y-112881451D01*
X161605397Y-112882207D01*
X161619259Y-112884200D01*
X161633261Y-112884200D01*
X161640323Y-112884452D01*
X161644902Y-112884779D01*
X161689609Y-112887977D01*
X161696569Y-112886462D01*
X161717615Y-112884200D01*
X161764438Y-112884200D01*
X161802323Y-112891736D01*
X161862184Y-112916530D01*
X161932918Y-112945829D01*
X162080699Y-112965285D01*
X162080700Y-112965285D01*
X162080701Y-112965285D01*
X162154591Y-112955557D01*
X162228482Y-112945829D01*
X162366193Y-112888788D01*
X162484447Y-112798047D01*
X162575188Y-112679793D01*
X162632229Y-112542082D01*
X162651685Y-112394300D01*
X162632229Y-112246518D01*
X162575188Y-112108808D01*
X162484447Y-111990553D01*
X162484445Y-111990552D01*
X162484445Y-111990551D01*
X162366193Y-111899812D01*
X162366189Y-111899810D01*
X162228482Y-111842771D01*
X162228481Y-111842770D01*
X162080701Y-111823315D01*
X162080699Y-111823315D01*
X161932918Y-111842770D01*
X161932918Y-111842771D01*
X161896925Y-111857678D01*
X161835928Y-111862476D01*
X161789040Y-111836216D01*
X161456349Y-111503525D01*
X161069606Y-111116783D01*
X161041830Y-111062267D01*
X161051401Y-111001835D01*
X161086088Y-110963497D01*
X161110106Y-110948062D01*
X161192793Y-110852636D01*
X161245245Y-110737781D01*
X161261360Y-110625700D01*
X161263215Y-110612802D01*
X161263215Y-110612797D01*
X161245246Y-110487824D01*
X161245245Y-110487821D01*
X161245245Y-110487819D01*
X161192793Y-110372964D01*
X161192791Y-110372962D01*
X161192791Y-110372961D01*
X161139604Y-110311581D01*
X161110106Y-110277538D01*
X161110103Y-110277536D01*
X161110102Y-110277535D01*
X161003885Y-110209274D01*
X160882734Y-110173700D01*
X160882733Y-110173700D01*
X160756467Y-110173700D01*
X160756465Y-110173700D01*
X160635314Y-110209274D01*
X160529097Y-110277535D01*
X160529096Y-110277536D01*
X160460044Y-110357226D01*
X160407647Y-110388821D01*
X160346687Y-110383585D01*
X160315221Y-110362398D01*
X157935561Y-107982738D01*
X156489948Y-106537124D01*
X158250000Y-106537124D01*
X158264506Y-106610046D01*
X158264507Y-106610048D01*
X158319758Y-106692737D01*
X158319762Y-106692741D01*
X158402451Y-106747992D01*
X158402453Y-106747993D01*
X158475375Y-106762499D01*
X158475377Y-106762500D01*
X159174999Y-106762500D01*
X159175000Y-106762499D01*
X159425000Y-106762499D01*
X159425001Y-106762500D01*
X160124623Y-106762500D01*
X160124624Y-106762499D01*
X160197546Y-106747993D01*
X160197548Y-106747992D01*
X160280237Y-106692741D01*
X160280241Y-106692737D01*
X160335492Y-106610048D01*
X160335493Y-106610046D01*
X160349999Y-106537124D01*
X160350000Y-106537122D01*
X160350000Y-106137501D01*
X160349999Y-106137500D01*
X159425001Y-106137500D01*
X159425000Y-106137501D01*
X159425000Y-106762499D01*
X159175000Y-106762499D01*
X159175000Y-106137501D01*
X159174999Y-106137500D01*
X158250001Y-106137500D01*
X158250000Y-106137501D01*
X158250000Y-106537124D01*
X156489948Y-106537124D01*
X155997816Y-106044992D01*
X159200000Y-106044992D01*
X159238197Y-106097565D01*
X159284162Y-106112500D01*
X159315838Y-106112500D01*
X159361803Y-106097565D01*
X159400000Y-106044992D01*
X159400000Y-105980008D01*
X159361803Y-105927435D01*
X159315838Y-105912500D01*
X159284162Y-105912500D01*
X159238197Y-105927435D01*
X159200000Y-105980008D01*
X159200000Y-106044992D01*
X155997816Y-106044992D01*
X155840323Y-105887499D01*
X158250000Y-105887499D01*
X158250001Y-105887500D01*
X159174999Y-105887500D01*
X159175000Y-105887499D01*
X159425000Y-105887499D01*
X159425001Y-105887500D01*
X160349999Y-105887500D01*
X160350000Y-105887499D01*
X160350000Y-105487877D01*
X160349999Y-105487875D01*
X160335493Y-105414953D01*
X160335492Y-105414951D01*
X160280241Y-105332262D01*
X160280237Y-105332258D01*
X160197548Y-105277007D01*
X160197546Y-105277006D01*
X160124624Y-105262500D01*
X159425001Y-105262500D01*
X159425000Y-105262501D01*
X159425000Y-105887499D01*
X159175000Y-105887499D01*
X159175000Y-105262501D01*
X159174999Y-105262500D01*
X158475375Y-105262500D01*
X158402453Y-105277006D01*
X158402451Y-105277007D01*
X158319762Y-105332258D01*
X158319758Y-105332262D01*
X158264507Y-105414951D01*
X158264506Y-105414953D01*
X158250000Y-105487875D01*
X158250000Y-105887499D01*
X155840323Y-105887499D01*
X155505796Y-105552972D01*
X155478019Y-105498455D01*
X155476800Y-105482968D01*
X155476800Y-101755200D01*
X155700215Y-101755200D01*
X155719670Y-101902981D01*
X155719671Y-101902982D01*
X155776710Y-102040689D01*
X155776712Y-102040693D01*
X155867453Y-102158947D01*
X155985707Y-102249688D01*
X156123418Y-102306729D01*
X156271199Y-102326185D01*
X156271200Y-102326185D01*
X156271201Y-102326185D01*
X156345091Y-102316457D01*
X156418982Y-102306729D01*
X156556693Y-102249688D01*
X156674947Y-102158947D01*
X156765688Y-102040693D01*
X156819781Y-101910097D01*
X156841237Y-101877984D01*
X158585722Y-100133500D01*
X161949315Y-100133500D01*
X161968770Y-100281281D01*
X161968771Y-100281282D01*
X162022864Y-100411877D01*
X162030400Y-100449762D01*
X162030400Y-108105587D01*
X162028138Y-108126628D01*
X162026624Y-108133588D01*
X162026623Y-108133590D01*
X162030148Y-108182866D01*
X162030400Y-108189928D01*
X162030400Y-108203944D01*
X162032394Y-108217818D01*
X162033149Y-108224839D01*
X162036672Y-108274105D01*
X162039162Y-108280780D01*
X162044395Y-108301285D01*
X162045409Y-108308338D01*
X162065935Y-108353285D01*
X162068639Y-108359812D01*
X162085904Y-108406101D01*
X162090173Y-108411803D01*
X162100973Y-108430005D01*
X162103932Y-108436484D01*
X162136285Y-108473821D01*
X162140718Y-108479323D01*
X162149111Y-108490534D01*
X162159018Y-108500442D01*
X162163831Y-108505611D01*
X162196185Y-108542949D01*
X162202174Y-108546798D01*
X162218656Y-108560079D01*
X163076927Y-109418350D01*
X163104704Y-109472867D01*
X163095133Y-109533299D01*
X163068458Y-109562795D01*
X163069848Y-109564399D01*
X163064493Y-109569039D01*
X162981808Y-109664461D01*
X162929354Y-109779321D01*
X162929353Y-109779324D01*
X162911385Y-109904297D01*
X162911385Y-109904302D01*
X162929353Y-110029275D01*
X162929354Y-110029278D01*
X162929354Y-110029279D01*
X162929355Y-110029281D01*
X162958444Y-110092978D01*
X162981808Y-110144138D01*
X163007424Y-110173700D01*
X163064494Y-110239562D01*
X163064496Y-110239563D01*
X163064497Y-110239564D01*
X163123581Y-110277535D01*
X163170716Y-110307826D01*
X163291867Y-110343400D01*
X163291868Y-110343400D01*
X163418132Y-110343400D01*
X163418133Y-110343400D01*
X163539284Y-110307826D01*
X163645506Y-110239562D01*
X163693154Y-110184572D01*
X163745550Y-110152977D01*
X163806511Y-110158213D01*
X163837977Y-110179400D01*
X164149835Y-110491258D01*
X164177612Y-110545775D01*
X164172279Y-110590885D01*
X164173650Y-110591253D01*
X164171970Y-110597518D01*
X164152515Y-110745299D01*
X164152515Y-110745300D01*
X164171970Y-110893081D01*
X164171971Y-110893082D01*
X164229010Y-111030789D01*
X164229012Y-111030793D01*
X164319751Y-111149045D01*
X164319754Y-111149048D01*
X164366504Y-111184921D01*
X164438007Y-111239788D01*
X164453748Y-111246308D01*
X164500274Y-111286043D01*
X164514558Y-111345538D01*
X164491144Y-111402066D01*
X164485867Y-111407776D01*
X162316610Y-113577033D01*
X162306270Y-113586030D01*
X162299232Y-113591344D01*
X162269132Y-113624362D01*
X162265980Y-113627663D01*
X162253490Y-113640154D01*
X162253110Y-113640611D01*
X162245092Y-113650733D01*
X162227023Y-113670554D01*
X162227022Y-113670556D01*
X162223824Y-113678810D01*
X162213189Y-113698986D01*
X162208185Y-113706290D01*
X162208184Y-113706293D01*
X162202042Y-113732403D01*
X162197990Y-113745487D01*
X162188300Y-113770504D01*
X162188300Y-113779353D01*
X162185670Y-113802021D01*
X162183645Y-113810629D01*
X162187351Y-113837197D01*
X162188300Y-113850874D01*
X162188300Y-114648420D01*
X162169393Y-114706611D01*
X162164120Y-114713251D01*
X162101807Y-114785164D01*
X162049354Y-114900021D01*
X162049353Y-114900024D01*
X162031385Y-115024997D01*
X162031385Y-115025002D01*
X162049353Y-115149975D01*
X162049354Y-115149978D01*
X162101808Y-115264838D01*
X162143150Y-115312549D01*
X162184494Y-115360262D01*
X162290716Y-115428526D01*
X162411867Y-115464100D01*
X162411868Y-115464100D01*
X162538132Y-115464100D01*
X162538133Y-115464100D01*
X162659284Y-115428526D01*
X162765506Y-115360262D01*
X162848193Y-115264836D01*
X162900645Y-115149981D01*
X162918615Y-115025000D01*
X162917680Y-115018500D01*
X162900646Y-114900024D01*
X162900645Y-114900021D01*
X162900645Y-114900019D01*
X162848193Y-114785164D01*
X162785879Y-114713250D01*
X162762063Y-114656891D01*
X162761700Y-114648420D01*
X162761700Y-113983862D01*
X162780607Y-113925671D01*
X162790690Y-113913864D01*
X165472789Y-111231764D01*
X165483134Y-111222765D01*
X165490166Y-111217454D01*
X165490168Y-111217454D01*
X165520268Y-111184434D01*
X165523404Y-111181149D01*
X165535912Y-111168643D01*
X165535914Y-111168639D01*
X165535917Y-111168637D01*
X165536310Y-111168164D01*
X165544313Y-111158057D01*
X165562379Y-111138242D01*
X165565575Y-111129991D01*
X165576211Y-111109811D01*
X165581214Y-111102510D01*
X165587357Y-111076390D01*
X165591406Y-111063312D01*
X165601100Y-111038293D01*
X165601100Y-111029447D01*
X165603730Y-111006778D01*
X165605755Y-110998170D01*
X165602049Y-110971600D01*
X165601100Y-110957924D01*
X165601100Y-108231679D01*
X165610046Y-108190553D01*
X165635745Y-108134281D01*
X165635845Y-108133588D01*
X165653715Y-108009302D01*
X165653715Y-108009297D01*
X165635746Y-107884324D01*
X165635745Y-107884321D01*
X165635745Y-107884319D01*
X165583293Y-107769464D01*
X165583291Y-107769462D01*
X165583291Y-107769461D01*
X165521181Y-107697782D01*
X165497363Y-107641423D01*
X165497000Y-107632951D01*
X165497000Y-106537124D01*
X165850000Y-106537124D01*
X165864506Y-106610046D01*
X165864507Y-106610048D01*
X165919758Y-106692737D01*
X165919762Y-106692741D01*
X166002451Y-106747992D01*
X166002453Y-106747993D01*
X166075375Y-106762499D01*
X166075377Y-106762500D01*
X166774999Y-106762500D01*
X166775000Y-106762499D01*
X166775000Y-106137501D01*
X166774999Y-106137500D01*
X165850001Y-106137500D01*
X165850000Y-106137501D01*
X165850000Y-106537124D01*
X165497000Y-106537124D01*
X165497000Y-106044992D01*
X166800000Y-106044992D01*
X166838197Y-106097565D01*
X166884162Y-106112500D01*
X166915838Y-106112500D01*
X166961803Y-106097565D01*
X167000000Y-106044992D01*
X167000000Y-105980008D01*
X166961803Y-105927435D01*
X166915838Y-105912500D01*
X166884162Y-105912500D01*
X166838197Y-105927435D01*
X166800000Y-105980008D01*
X166800000Y-106044992D01*
X165497000Y-106044992D01*
X165497000Y-105728202D01*
X165515907Y-105670011D01*
X165565407Y-105634047D01*
X165610100Y-105630211D01*
X165616960Y-105631198D01*
X165616967Y-105631200D01*
X165616974Y-105631200D01*
X165750314Y-105631200D01*
X165750314Y-105634437D01*
X165797154Y-105642518D01*
X165839819Y-105686373D01*
X165850000Y-105730101D01*
X165850000Y-105887499D01*
X165850001Y-105887500D01*
X166774999Y-105887500D01*
X166775000Y-105887499D01*
X166775000Y-105262501D01*
X166774999Y-105262500D01*
X166219621Y-105262500D01*
X166161430Y-105243593D01*
X166125466Y-105194093D01*
X166121629Y-105177589D01*
X166105746Y-105067124D01*
X166105745Y-105067121D01*
X166105745Y-105067119D01*
X166053293Y-104952264D01*
X165990979Y-104880350D01*
X165967163Y-104823991D01*
X165966800Y-104815520D01*
X165966800Y-89154624D01*
X171800000Y-89154624D01*
X171814506Y-89227546D01*
X171814507Y-89227548D01*
X171869758Y-89310237D01*
X171869762Y-89310241D01*
X171952451Y-89365492D01*
X171952453Y-89365493D01*
X172025375Y-89379999D01*
X172025377Y-89380000D01*
X172774999Y-89380000D01*
X172775000Y-89379999D01*
X172775000Y-88767169D01*
X172864237Y-88780000D01*
X172935763Y-88780000D01*
X173025000Y-88767169D01*
X173025000Y-89379999D01*
X173025001Y-89380000D01*
X173774623Y-89380000D01*
X173774624Y-89379999D01*
X173847546Y-89365493D01*
X173847548Y-89365492D01*
X173930237Y-89310241D01*
X173930241Y-89310237D01*
X173985492Y-89227548D01*
X173985493Y-89227546D01*
X173999999Y-89154624D01*
X174000000Y-89154622D01*
X174000000Y-88405001D01*
X173999999Y-88405000D01*
X173384405Y-88405000D01*
X173400000Y-88351889D01*
X173400000Y-88208111D01*
X173384405Y-88155000D01*
X173999999Y-88155000D01*
X174000000Y-88154999D01*
X174000000Y-87405377D01*
X173999999Y-87405375D01*
X173985493Y-87332453D01*
X173985492Y-87332451D01*
X173930241Y-87249762D01*
X173930237Y-87249758D01*
X173847548Y-87194507D01*
X173847546Y-87194506D01*
X173774624Y-87180000D01*
X173025001Y-87180000D01*
X173025000Y-87180001D01*
X173025000Y-87792830D01*
X172935763Y-87780000D01*
X172864237Y-87780000D01*
X172775000Y-87792830D01*
X172775000Y-87180001D01*
X172774999Y-87180000D01*
X172025375Y-87180000D01*
X171952453Y-87194506D01*
X171952451Y-87194507D01*
X171869762Y-87249758D01*
X171869758Y-87249762D01*
X171814507Y-87332451D01*
X171814506Y-87332453D01*
X171800000Y-87405375D01*
X171800000Y-88154999D01*
X171800001Y-88155000D01*
X172415595Y-88155000D01*
X172400000Y-88208111D01*
X172400000Y-88351889D01*
X172415595Y-88405000D01*
X171800001Y-88405000D01*
X171800000Y-88405001D01*
X171800000Y-89154624D01*
X165966800Y-89154624D01*
X165966800Y-81645063D01*
X165985707Y-81586872D01*
X165995796Y-81575059D01*
X166306359Y-81264496D01*
X166360876Y-81236719D01*
X166376363Y-81235500D01*
X166432132Y-81235500D01*
X166432133Y-81235500D01*
X166553284Y-81199926D01*
X166659506Y-81131662D01*
X166742193Y-81036236D01*
X166794645Y-80921381D01*
X166794646Y-80921375D01*
X166812615Y-80796402D01*
X166812615Y-80796397D01*
X166794646Y-80671424D01*
X166794645Y-80671421D01*
X166794645Y-80671419D01*
X166742193Y-80556564D01*
X166742191Y-80556562D01*
X166742191Y-80556561D01*
X166708377Y-80517539D01*
X166659506Y-80461138D01*
X166659503Y-80461136D01*
X166659502Y-80461135D01*
X166553285Y-80392874D01*
X166432134Y-80357300D01*
X166432133Y-80357300D01*
X166305867Y-80357300D01*
X166305865Y-80357300D01*
X166184714Y-80392874D01*
X166078497Y-80461135D01*
X166078493Y-80461139D01*
X165995808Y-80556561D01*
X165943354Y-80671421D01*
X165943353Y-80671424D01*
X165924377Y-80803407D01*
X165922280Y-80803105D01*
X165906478Y-80851742D01*
X165896388Y-80863555D01*
X165521709Y-81238233D01*
X165511370Y-81247230D01*
X165504332Y-81252544D01*
X165474232Y-81285562D01*
X165471080Y-81288863D01*
X165458590Y-81301354D01*
X165458210Y-81301811D01*
X165450192Y-81311933D01*
X165432123Y-81331754D01*
X165432122Y-81331756D01*
X165428924Y-81340010D01*
X165418289Y-81360186D01*
X165413285Y-81367490D01*
X165413284Y-81367493D01*
X165407142Y-81393603D01*
X165403090Y-81406687D01*
X165393400Y-81431704D01*
X165393400Y-81440553D01*
X165390770Y-81463221D01*
X165388745Y-81471829D01*
X165392451Y-81498397D01*
X165393400Y-81512074D01*
X165393400Y-89804696D01*
X165374493Y-89862887D01*
X165324993Y-89898851D01*
X165280314Y-89902689D01*
X165273434Y-89901700D01*
X165273433Y-89901700D01*
X165147167Y-89901700D01*
X165147165Y-89901700D01*
X165026014Y-89937274D01*
X164919797Y-90005535D01*
X164919793Y-90005539D01*
X164837108Y-90100961D01*
X164784654Y-90215821D01*
X164784653Y-90215824D01*
X164766685Y-90340797D01*
X164766685Y-90340802D01*
X164784653Y-90465775D01*
X164784654Y-90465778D01*
X164784654Y-90465779D01*
X164784655Y-90465781D01*
X164824581Y-90553207D01*
X164837108Y-90580638D01*
X164899419Y-90652548D01*
X164923237Y-90708907D01*
X164923600Y-90717379D01*
X164923600Y-107632489D01*
X164904693Y-107690680D01*
X164899420Y-107697320D01*
X164836907Y-107769464D01*
X164784454Y-107884321D01*
X164784453Y-107884324D01*
X164766485Y-108009297D01*
X164766485Y-108009302D01*
X164784453Y-108134275D01*
X164784454Y-108134278D01*
X164784454Y-108134279D01*
X164784455Y-108134281D01*
X164825811Y-108224839D01*
X164836908Y-108249138D01*
X164872966Y-108290750D01*
X164919594Y-108344562D01*
X164919596Y-108344563D01*
X164919597Y-108344564D01*
X164982223Y-108384811D01*
X165020954Y-108432177D01*
X165027700Y-108468095D01*
X165027700Y-108829430D01*
X165008793Y-108887621D01*
X164959293Y-108923585D01*
X164900809Y-108924420D01*
X164861236Y-108912800D01*
X164861233Y-108912800D01*
X164805463Y-108912800D01*
X164747272Y-108893893D01*
X164735459Y-108883804D01*
X163476396Y-107624741D01*
X163448619Y-107570224D01*
X163447400Y-107554737D01*
X163447400Y-88987179D01*
X163466307Y-88928988D01*
X163471581Y-88922348D01*
X163533891Y-88850438D01*
X163533890Y-88850438D01*
X163533893Y-88850436D01*
X163586345Y-88735581D01*
X163590749Y-88704952D01*
X163604315Y-88610602D01*
X163604315Y-88610597D01*
X163586346Y-88485624D01*
X163586345Y-88485621D01*
X163586345Y-88485619D01*
X163533893Y-88370764D01*
X163533891Y-88370762D01*
X163533891Y-88370761D01*
X163500077Y-88331739D01*
X163451206Y-88275338D01*
X163451203Y-88275336D01*
X163451202Y-88275335D01*
X163344985Y-88207074D01*
X163223834Y-88171500D01*
X163223833Y-88171500D01*
X163097567Y-88171500D01*
X163097565Y-88171500D01*
X162976414Y-88207074D01*
X162870197Y-88275335D01*
X162870193Y-88275339D01*
X162787508Y-88370761D01*
X162735054Y-88485621D01*
X162735053Y-88485624D01*
X162717085Y-88610597D01*
X162717085Y-88610602D01*
X162735053Y-88735575D01*
X162735054Y-88735578D01*
X162735054Y-88735579D01*
X162735055Y-88735581D01*
X162787004Y-88849335D01*
X162787508Y-88850438D01*
X162849819Y-88922348D01*
X162873637Y-88978707D01*
X162874000Y-88987179D01*
X162874000Y-99519101D01*
X162855093Y-99577292D01*
X162805593Y-99613256D01*
X162744407Y-99613256D01*
X162737115Y-99610565D01*
X162668082Y-99581971D01*
X162668081Y-99581970D01*
X162520301Y-99562515D01*
X162520299Y-99562515D01*
X162372521Y-99581970D01*
X162372513Y-99581972D01*
X162234811Y-99639010D01*
X162234807Y-99639012D01*
X162116555Y-99729751D01*
X162116551Y-99729755D01*
X162025812Y-99848007D01*
X162025810Y-99848011D01*
X161968772Y-99985713D01*
X161968770Y-99985721D01*
X161949315Y-100133499D01*
X161949315Y-100133500D01*
X158585722Y-100133500D01*
X159092950Y-99626272D01*
X159109430Y-99612994D01*
X159115415Y-99609149D01*
X159147769Y-99571809D01*
X159152571Y-99566651D01*
X159162490Y-99556734D01*
X159170886Y-99545517D01*
X159175309Y-99540026D01*
X159207668Y-99502684D01*
X159210624Y-99496208D01*
X159221429Y-99477999D01*
X159225697Y-99472299D01*
X159242966Y-99425993D01*
X159245660Y-99419491D01*
X159266190Y-99374540D01*
X159267203Y-99367490D01*
X159272439Y-99346974D01*
X159274927Y-99340306D01*
X159278452Y-99291010D01*
X159279201Y-99284037D01*
X159281200Y-99270141D01*
X159281200Y-99256138D01*
X159281452Y-99249075D01*
X159284977Y-99199791D01*
X159283461Y-99192825D01*
X159281200Y-99171783D01*
X159281200Y-92493762D01*
X159288736Y-92455877D01*
X159320625Y-92378887D01*
X159342829Y-92325282D01*
X159362285Y-92177500D01*
X159342829Y-92029718D01*
X159285788Y-91892008D01*
X159195047Y-91773753D01*
X159195045Y-91773752D01*
X159195045Y-91773751D01*
X159076793Y-91683012D01*
X159076789Y-91683010D01*
X158939082Y-91625971D01*
X158939081Y-91625970D01*
X158791301Y-91606515D01*
X158791299Y-91606515D01*
X158643521Y-91625970D01*
X158643513Y-91625972D01*
X158505811Y-91683010D01*
X158505807Y-91683012D01*
X158387555Y-91773751D01*
X158387551Y-91773755D01*
X158296812Y-91892007D01*
X158296810Y-91892011D01*
X158239772Y-92029713D01*
X158239770Y-92029721D01*
X158220315Y-92177499D01*
X158220315Y-92177500D01*
X158239770Y-92325281D01*
X158239771Y-92325282D01*
X158293864Y-92455877D01*
X158301400Y-92493762D01*
X158301400Y-98991168D01*
X158282493Y-99049359D01*
X158272404Y-99061172D01*
X156928433Y-100405142D01*
X156873916Y-100432919D01*
X156813484Y-100423348D01*
X156770219Y-100380083D01*
X156760437Y-100321048D01*
X156767015Y-100275301D01*
X156767015Y-100275297D01*
X156749046Y-100150324D01*
X156749045Y-100150321D01*
X156749045Y-100150319D01*
X156696593Y-100035464D01*
X156696591Y-100035462D01*
X156696591Y-100035461D01*
X156653488Y-99985718D01*
X156613906Y-99940038D01*
X156613903Y-99940036D01*
X156613902Y-99940035D01*
X156507685Y-99871774D01*
X156386534Y-99836200D01*
X156386533Y-99836200D01*
X156260267Y-99836200D01*
X156260265Y-99836200D01*
X156139114Y-99871774D01*
X156032897Y-99940035D01*
X156032893Y-99940039D01*
X155950208Y-100035461D01*
X155897754Y-100150321D01*
X155897753Y-100150324D01*
X155879785Y-100275297D01*
X155879785Y-100275302D01*
X155897753Y-100400275D01*
X155897754Y-100400278D01*
X155897754Y-100400279D01*
X155897755Y-100400281D01*
X155909031Y-100424972D01*
X155950208Y-100515138D01*
X155991550Y-100562849D01*
X156032894Y-100610562D01*
X156139116Y-100678826D01*
X156260267Y-100714400D01*
X156260268Y-100714400D01*
X156380168Y-100714400D01*
X156438359Y-100733307D01*
X156474323Y-100782807D01*
X156474323Y-100843993D01*
X156450171Y-100883404D01*
X156148414Y-101185160D01*
X156116297Y-101206620D01*
X155985708Y-101260711D01*
X155985707Y-101260712D01*
X155867455Y-101351451D01*
X155867451Y-101351455D01*
X155776712Y-101469707D01*
X155776710Y-101469711D01*
X155719672Y-101607413D01*
X155719670Y-101607421D01*
X155700215Y-101755199D01*
X155700215Y-101755200D01*
X155476800Y-101755200D01*
X155476800Y-99515711D01*
X155479062Y-99494667D01*
X155480576Y-99487708D01*
X155477052Y-99438431D01*
X155476800Y-99431369D01*
X155476800Y-99417364D01*
X155476800Y-99417359D01*
X155474801Y-99403461D01*
X155474050Y-99396475D01*
X155470527Y-99347194D01*
X155468039Y-99340524D01*
X155462803Y-99320009D01*
X155461790Y-99312960D01*
X155441262Y-99268011D01*
X155438567Y-99261506D01*
X155421297Y-99215201D01*
X155417028Y-99209499D01*
X155406224Y-99191290D01*
X155403268Y-99184816D01*
X155401199Y-99182428D01*
X155370911Y-99147475D01*
X155366479Y-99141974D01*
X155358092Y-99130769D01*
X155358088Y-99130765D01*
X155348174Y-99120850D01*
X155343371Y-99115692D01*
X155311015Y-99078351D01*
X155305019Y-99074498D01*
X155288543Y-99061220D01*
X155264326Y-99037003D01*
X155236549Y-98982486D01*
X155246120Y-98922054D01*
X155264323Y-98896998D01*
X155567844Y-98593477D01*
X155584320Y-98580201D01*
X155590315Y-98576349D01*
X155622669Y-98539009D01*
X155627487Y-98533835D01*
X155637385Y-98523938D01*
X155637385Y-98523937D01*
X155637389Y-98523934D01*
X155645791Y-98512708D01*
X155650218Y-98507216D01*
X155682568Y-98469884D01*
X155685524Y-98463408D01*
X155696329Y-98445199D01*
X155700597Y-98439499D01*
X155717866Y-98393193D01*
X155720560Y-98386691D01*
X155741090Y-98341740D01*
X155742103Y-98334690D01*
X155747339Y-98314174D01*
X155749827Y-98307506D01*
X155753350Y-98258226D01*
X155754101Y-98251234D01*
X155756100Y-98237341D01*
X155756100Y-98223328D01*
X155756352Y-98216266D01*
X155759876Y-98166990D01*
X155759875Y-98166988D01*
X155758362Y-98160028D01*
X155756100Y-98138987D01*
X155756100Y-94871602D01*
X156201585Y-94871602D01*
X156219553Y-94996575D01*
X156219554Y-94996578D01*
X156219554Y-94996579D01*
X156219555Y-94996581D01*
X156227492Y-95013960D01*
X156272008Y-95111438D01*
X156313350Y-95159149D01*
X156354694Y-95206862D01*
X156460916Y-95275126D01*
X156582067Y-95310700D01*
X156582068Y-95310700D01*
X156708332Y-95310700D01*
X156708333Y-95310700D01*
X156829484Y-95275126D01*
X156935706Y-95206862D01*
X157018393Y-95111436D01*
X157070845Y-94996581D01*
X157070846Y-94996575D01*
X157088815Y-94871602D01*
X157088815Y-94871597D01*
X157070846Y-94746624D01*
X157070845Y-94746621D01*
X157070845Y-94746619D01*
X157018393Y-94631764D01*
X156956079Y-94559850D01*
X156932263Y-94503491D01*
X156931900Y-94495020D01*
X156931900Y-92617262D01*
X156950807Y-92559071D01*
X156960890Y-92547264D01*
X164546089Y-84962064D01*
X164556434Y-84953065D01*
X164563466Y-84947754D01*
X164563468Y-84947754D01*
X164593568Y-84914734D01*
X164596704Y-84911449D01*
X164609212Y-84898943D01*
X164609214Y-84898939D01*
X164609217Y-84898937D01*
X164609610Y-84898464D01*
X164617613Y-84888357D01*
X164635679Y-84868542D01*
X164638872Y-84860296D01*
X164649514Y-84840106D01*
X164654514Y-84832809D01*
X164660654Y-84806700D01*
X164664710Y-84793602D01*
X164674400Y-84768593D01*
X164674400Y-84759747D01*
X164677030Y-84737078D01*
X164679055Y-84728470D01*
X164675349Y-84701900D01*
X164674400Y-84688224D01*
X164674400Y-77619248D01*
X164693307Y-77561057D01*
X164698567Y-77554433D01*
X164761993Y-77481236D01*
X164814445Y-77366381D01*
X164832415Y-77241400D01*
X164825401Y-77192621D01*
X164814446Y-77116424D01*
X164814445Y-77116421D01*
X164814445Y-77116419D01*
X164761993Y-77001564D01*
X164761991Y-77001562D01*
X164761991Y-77001561D01*
X164728177Y-76962539D01*
X164679306Y-76906138D01*
X164679303Y-76906136D01*
X164679302Y-76906135D01*
X164573085Y-76837874D01*
X164451934Y-76802300D01*
X164451933Y-76802300D01*
X164325667Y-76802300D01*
X164325665Y-76802300D01*
X164204514Y-76837874D01*
X164098297Y-76906135D01*
X164098293Y-76906139D01*
X164015608Y-77001561D01*
X163963154Y-77116421D01*
X163963153Y-77116424D01*
X163945185Y-77241397D01*
X163945185Y-77241402D01*
X163963153Y-77366375D01*
X163963154Y-77366378D01*
X163963154Y-77366379D01*
X163963155Y-77366381D01*
X164015607Y-77481235D01*
X164015608Y-77481238D01*
X164076819Y-77551879D01*
X164100637Y-77608238D01*
X164101000Y-77616710D01*
X164101000Y-84555236D01*
X164082093Y-84613427D01*
X164072004Y-84625240D01*
X156486810Y-92210433D01*
X156476470Y-92219430D01*
X156469432Y-92224744D01*
X156439332Y-92257762D01*
X156436180Y-92261063D01*
X156423690Y-92273554D01*
X156423310Y-92274011D01*
X156415292Y-92284133D01*
X156397223Y-92303954D01*
X156397222Y-92303956D01*
X156394024Y-92312210D01*
X156383389Y-92332386D01*
X156378385Y-92339690D01*
X156378384Y-92339693D01*
X156372242Y-92365803D01*
X156368190Y-92378887D01*
X156358500Y-92403904D01*
X156358500Y-92412753D01*
X156355870Y-92435421D01*
X156353845Y-92444029D01*
X156357551Y-92470597D01*
X156358500Y-92484274D01*
X156358500Y-94495020D01*
X156339593Y-94553211D01*
X156334321Y-94559849D01*
X156303809Y-94595063D01*
X156272007Y-94631764D01*
X156219554Y-94746621D01*
X156219553Y-94746624D01*
X156201585Y-94871597D01*
X156201585Y-94871602D01*
X155756100Y-94871602D01*
X155756100Y-93827112D01*
X155758362Y-93806068D01*
X155759410Y-93801249D01*
X155759876Y-93799109D01*
X155756352Y-93749832D01*
X155756100Y-93742770D01*
X155756100Y-93728764D01*
X155756100Y-93728759D01*
X155754101Y-93714861D01*
X155753350Y-93707875D01*
X155749827Y-93658594D01*
X155747339Y-93651924D01*
X155742103Y-93631409D01*
X155741090Y-93624360D01*
X155720562Y-93579411D01*
X155717867Y-93572906D01*
X155700597Y-93526601D01*
X155696328Y-93520899D01*
X155685524Y-93502690D01*
X155684832Y-93501175D01*
X155682568Y-93496216D01*
X155650211Y-93458875D01*
X155645779Y-93453374D01*
X155637392Y-93442169D01*
X155637388Y-93442165D01*
X155627474Y-93432250D01*
X155622671Y-93427092D01*
X155590315Y-93389751D01*
X155584319Y-93385898D01*
X155567843Y-93372620D01*
X155071540Y-92876317D01*
X155050080Y-92844198D01*
X155018509Y-92767978D01*
X154995988Y-92713608D01*
X154905247Y-92595353D01*
X154905245Y-92595352D01*
X154905245Y-92595351D01*
X154786993Y-92504612D01*
X154786989Y-92504610D01*
X154649282Y-92447571D01*
X154649281Y-92447570D01*
X154501501Y-92428115D01*
X154501499Y-92428115D01*
X154353721Y-92447570D01*
X154353713Y-92447572D01*
X154216011Y-92504610D01*
X154216007Y-92504612D01*
X154097755Y-92595351D01*
X154097751Y-92595355D01*
X154007012Y-92713607D01*
X154007010Y-92713611D01*
X153949972Y-92851313D01*
X153949970Y-92851321D01*
X153930515Y-92999099D01*
X153930515Y-92999100D01*
X153949970Y-93146881D01*
X153949971Y-93146882D01*
X154007010Y-93284589D01*
X154007012Y-93284593D01*
X154097751Y-93402845D01*
X154097754Y-93402848D01*
X154123585Y-93422669D01*
X154216007Y-93493588D01*
X154281945Y-93520900D01*
X154346598Y-93547680D01*
X154378717Y-93569140D01*
X154747304Y-93937727D01*
X154775081Y-93992244D01*
X154776300Y-94007731D01*
X154776300Y-96258482D01*
X154757393Y-96316673D01*
X154707893Y-96352637D01*
X154646707Y-96352637D01*
X154598759Y-96318750D01*
X154543397Y-96246603D01*
X154543398Y-96246603D01*
X154425143Y-96155862D01*
X154425142Y-96155861D01*
X154294550Y-96101769D01*
X154262432Y-96080309D01*
X151435396Y-93253273D01*
X151407619Y-93198756D01*
X151406400Y-93183269D01*
X151406400Y-91593902D01*
X153887985Y-91593902D01*
X153905953Y-91718875D01*
X153905954Y-91718878D01*
X153905954Y-91718879D01*
X153905955Y-91718881D01*
X153925545Y-91761778D01*
X153958408Y-91833738D01*
X153999750Y-91881449D01*
X154041094Y-91929162D01*
X154147316Y-91997426D01*
X154268467Y-92033000D01*
X154268468Y-92033000D01*
X154394732Y-92033000D01*
X154394733Y-92033000D01*
X154515884Y-91997426D01*
X154622106Y-91929162D01*
X154704793Y-91833736D01*
X154757245Y-91718881D01*
X154759091Y-91706040D01*
X154775215Y-91593902D01*
X154775215Y-91593897D01*
X154757246Y-91468924D01*
X154757245Y-91468921D01*
X154757245Y-91468919D01*
X154704793Y-91354064D01*
X154704791Y-91354062D01*
X154704791Y-91354061D01*
X154670977Y-91315039D01*
X154622106Y-91258638D01*
X154622103Y-91258636D01*
X154622102Y-91258635D01*
X154515885Y-91190374D01*
X154394734Y-91154800D01*
X154394733Y-91154800D01*
X154268467Y-91154800D01*
X154268465Y-91154800D01*
X154147314Y-91190374D01*
X154041097Y-91258635D01*
X154041093Y-91258639D01*
X153958408Y-91354061D01*
X153905954Y-91468921D01*
X153905953Y-91468924D01*
X153887985Y-91593897D01*
X153887985Y-91593902D01*
X151406400Y-91593902D01*
X151406400Y-90635602D01*
X156622485Y-90635602D01*
X156640453Y-90760575D01*
X156640454Y-90760578D01*
X156640454Y-90760579D01*
X156640455Y-90760581D01*
X156667592Y-90820003D01*
X156692908Y-90875438D01*
X156734250Y-90923149D01*
X156775594Y-90970862D01*
X156775596Y-90970863D01*
X156775597Y-90970864D01*
X156864330Y-91027889D01*
X156881816Y-91039126D01*
X157002967Y-91074700D01*
X157002968Y-91074700D01*
X157129232Y-91074700D01*
X157129233Y-91074700D01*
X157250384Y-91039126D01*
X157356606Y-90970862D01*
X157439293Y-90875436D01*
X157491745Y-90760581D01*
X157503546Y-90678507D01*
X157509715Y-90635602D01*
X157509715Y-90635597D01*
X157491746Y-90510624D01*
X157491745Y-90510621D01*
X157491745Y-90510619D01*
X157439293Y-90395764D01*
X157439291Y-90395762D01*
X157439291Y-90395761D01*
X157391664Y-90340797D01*
X157356606Y-90300338D01*
X157356603Y-90300336D01*
X157356602Y-90300335D01*
X157250385Y-90232074D01*
X157129234Y-90196500D01*
X157129233Y-90196500D01*
X157002967Y-90196500D01*
X157002965Y-90196500D01*
X156881814Y-90232074D01*
X156775597Y-90300335D01*
X156775593Y-90300339D01*
X156692908Y-90395761D01*
X156640454Y-90510621D01*
X156640453Y-90510624D01*
X156622485Y-90635597D01*
X156622485Y-90635602D01*
X151406400Y-90635602D01*
X151406400Y-88368302D01*
X153520785Y-88368302D01*
X153538753Y-88493275D01*
X153538754Y-88493278D01*
X153538754Y-88493279D01*
X153538755Y-88493281D01*
X153541605Y-88499521D01*
X153591208Y-88608138D01*
X153625142Y-88647299D01*
X153673894Y-88703562D01*
X153673896Y-88703563D01*
X153673897Y-88703564D01*
X153739151Y-88745500D01*
X153780116Y-88771826D01*
X153901267Y-88807400D01*
X153901268Y-88807400D01*
X154027532Y-88807400D01*
X154027533Y-88807400D01*
X154148684Y-88771826D01*
X154254906Y-88703562D01*
X154337593Y-88608136D01*
X154390045Y-88493281D01*
X154391146Y-88485624D01*
X154408015Y-88368302D01*
X154408015Y-88368297D01*
X154390046Y-88243324D01*
X154390045Y-88243321D01*
X154390045Y-88243319D01*
X154337593Y-88128464D01*
X154337591Y-88128462D01*
X154337591Y-88128461D01*
X154303777Y-88089439D01*
X154254906Y-88033038D01*
X154254903Y-88033036D01*
X154254902Y-88033035D01*
X154148685Y-87964774D01*
X154027534Y-87929200D01*
X154027533Y-87929200D01*
X153901267Y-87929200D01*
X153901265Y-87929200D01*
X153780114Y-87964774D01*
X153673897Y-88033035D01*
X153673893Y-88033039D01*
X153591208Y-88128461D01*
X153538754Y-88243321D01*
X153538753Y-88243324D01*
X153520785Y-88368297D01*
X153520785Y-88368302D01*
X151406400Y-88368302D01*
X151406400Y-86995002D01*
X153292685Y-86995002D01*
X153310653Y-87119975D01*
X153310654Y-87119978D01*
X153310654Y-87119979D01*
X153310655Y-87119981D01*
X153359626Y-87227213D01*
X153363108Y-87234838D01*
X153395127Y-87271789D01*
X153445794Y-87330262D01*
X153445796Y-87330263D01*
X153445797Y-87330264D01*
X153551603Y-87398261D01*
X153552016Y-87398526D01*
X153673167Y-87434100D01*
X153673168Y-87434100D01*
X153799432Y-87434100D01*
X153799433Y-87434100D01*
X153920584Y-87398526D01*
X154026806Y-87330262D01*
X154109493Y-87234836D01*
X154161945Y-87119981D01*
X154164128Y-87104800D01*
X154179915Y-86995002D01*
X154179915Y-86994997D01*
X154161946Y-86870024D01*
X154161945Y-86870021D01*
X154161945Y-86870019D01*
X154109493Y-86755164D01*
X154109492Y-86755163D01*
X154109492Y-86755162D01*
X154107416Y-86751931D01*
X154091700Y-86698408D01*
X154091700Y-86685220D01*
X154110607Y-86627029D01*
X154160107Y-86591065D01*
X154218593Y-86590231D01*
X154253561Y-86600499D01*
X154253566Y-86600499D01*
X154253567Y-86600500D01*
X154253568Y-86600500D01*
X154379832Y-86600500D01*
X154379833Y-86600500D01*
X154500984Y-86564926D01*
X154607206Y-86496662D01*
X154689893Y-86401236D01*
X154742345Y-86286381D01*
X154760315Y-86161400D01*
X154747259Y-86070599D01*
X154742346Y-86036424D01*
X154742345Y-86036421D01*
X154742345Y-86036419D01*
X154689893Y-85921564D01*
X154689891Y-85921562D01*
X154689891Y-85921561D01*
X154646370Y-85871336D01*
X154607206Y-85826138D01*
X154607203Y-85826136D01*
X154607202Y-85826135D01*
X154500985Y-85757874D01*
X154379834Y-85722300D01*
X154379833Y-85722300D01*
X154260551Y-85722300D01*
X154202360Y-85703393D01*
X154166396Y-85653893D01*
X154166396Y-85592707D01*
X154177268Y-85569775D01*
X154178187Y-85568342D01*
X154178193Y-85568336D01*
X154230645Y-85453481D01*
X154248615Y-85328500D01*
X154243976Y-85296239D01*
X154230646Y-85203524D01*
X154230645Y-85203521D01*
X154230645Y-85203519D01*
X154178193Y-85088664D01*
X154178191Y-85088662D01*
X154178191Y-85088661D01*
X154144377Y-85049639D01*
X154095506Y-84993238D01*
X154095503Y-84993236D01*
X154095502Y-84993235D01*
X153989285Y-84924974D01*
X153868134Y-84889400D01*
X153868133Y-84889400D01*
X153741867Y-84889400D01*
X153741865Y-84889400D01*
X153620714Y-84924974D01*
X153514497Y-84993235D01*
X153514493Y-84993239D01*
X153431808Y-85088661D01*
X153379354Y-85203521D01*
X153379353Y-85203524D01*
X153361385Y-85328497D01*
X153361385Y-85328502D01*
X153379353Y-85453475D01*
X153379354Y-85453478D01*
X153379354Y-85453479D01*
X153379355Y-85453481D01*
X153403579Y-85506524D01*
X153431808Y-85568338D01*
X153494119Y-85640248D01*
X153517937Y-85696607D01*
X153518300Y-85705079D01*
X153518300Y-86559082D01*
X153499393Y-86617273D01*
X153472826Y-86642365D01*
X153445794Y-86659737D01*
X153445793Y-86659739D01*
X153363108Y-86755161D01*
X153310654Y-86870021D01*
X153310653Y-86870024D01*
X153292685Y-86994997D01*
X153292685Y-86995002D01*
X151406400Y-86995002D01*
X151406400Y-83804688D01*
X151425307Y-83746497D01*
X151455615Y-83720094D01*
X151455364Y-83719718D01*
X151458297Y-83717757D01*
X151458736Y-83717376D01*
X151459401Y-83717020D01*
X151459407Y-83717017D01*
X151607489Y-83595489D01*
X151729017Y-83447407D01*
X151819321Y-83278461D01*
X151874929Y-83095143D01*
X151874930Y-83095138D01*
X151893706Y-82904503D01*
X153749294Y-82904503D01*
X153768069Y-83095138D01*
X153768070Y-83095143D01*
X153823679Y-83278461D01*
X153913982Y-83447406D01*
X154035506Y-83595484D01*
X154035515Y-83595493D01*
X154183589Y-83717014D01*
X154183593Y-83717017D01*
X154352539Y-83807321D01*
X154480248Y-83846060D01*
X154535856Y-83862929D01*
X154535861Y-83862930D01*
X154726497Y-83881706D01*
X154726500Y-83881706D01*
X154726503Y-83881706D01*
X154917138Y-83862930D01*
X154917143Y-83862929D01*
X155100461Y-83807321D01*
X155269407Y-83717017D01*
X155417489Y-83595489D01*
X155539017Y-83447407D01*
X155629321Y-83278461D01*
X155684929Y-83095143D01*
X155684930Y-83095138D01*
X155703706Y-82904503D01*
X155703706Y-82904496D01*
X155684930Y-82713861D01*
X155684929Y-82713856D01*
X155668060Y-82658248D01*
X155629321Y-82530539D01*
X155539017Y-82361593D01*
X155493531Y-82306168D01*
X155417493Y-82213515D01*
X155417484Y-82213506D01*
X155269406Y-82091982D01*
X155100461Y-82001679D01*
X154917143Y-81946070D01*
X154917138Y-81946069D01*
X154726503Y-81927294D01*
X154726497Y-81927294D01*
X154535861Y-81946069D01*
X154535856Y-81946070D01*
X154352538Y-82001679D01*
X154183593Y-82091982D01*
X154035515Y-82213506D01*
X154035506Y-82213515D01*
X153913982Y-82361593D01*
X153823679Y-82530538D01*
X153768070Y-82713856D01*
X153768069Y-82713861D01*
X153749294Y-82904496D01*
X153749294Y-82904503D01*
X151893706Y-82904503D01*
X151893706Y-82904496D01*
X151874930Y-82713861D01*
X151874929Y-82713856D01*
X151858060Y-82658248D01*
X151819321Y-82530539D01*
X151729017Y-82361593D01*
X151683531Y-82306168D01*
X151607493Y-82213515D01*
X151607484Y-82213506D01*
X151459406Y-82091982D01*
X151290461Y-82001679D01*
X151107143Y-81946070D01*
X151107138Y-81946069D01*
X150916503Y-81927294D01*
X150916497Y-81927294D01*
X150725861Y-81946069D01*
X150725856Y-81946070D01*
X150542538Y-82001679D01*
X150373593Y-82091982D01*
X150225515Y-82213506D01*
X150225506Y-82213515D01*
X150103982Y-82361593D01*
X150013679Y-82530538D01*
X149958070Y-82713856D01*
X149958069Y-82713861D01*
X149939294Y-82904496D01*
X149939294Y-82904503D01*
X148147206Y-82904503D01*
X148147206Y-82904496D01*
X148128430Y-82713861D01*
X148128429Y-82713856D01*
X148111560Y-82658248D01*
X148072821Y-82530539D01*
X147982517Y-82361593D01*
X147937031Y-82306168D01*
X147860993Y-82213515D01*
X147860984Y-82213506D01*
X147712906Y-82091982D01*
X147543961Y-82001679D01*
X147360643Y-81946070D01*
X147360638Y-81946069D01*
X147170003Y-81927294D01*
X147169997Y-81927294D01*
X146979361Y-81946069D01*
X146979356Y-81946070D01*
X146796038Y-82001679D01*
X146627093Y-82091982D01*
X146479015Y-82213506D01*
X146479006Y-82213515D01*
X146357482Y-82361593D01*
X146267179Y-82530538D01*
X146211570Y-82713856D01*
X146211569Y-82713861D01*
X146192794Y-82904496D01*
X146192794Y-82904503D01*
X141144858Y-82904503D01*
X138085296Y-79844941D01*
X138057519Y-79790424D01*
X138056300Y-79774937D01*
X138056300Y-78506979D01*
X138075207Y-78448788D01*
X138080481Y-78442148D01*
X138136330Y-78377695D01*
X138142793Y-78370236D01*
X138195245Y-78255381D01*
X138195246Y-78255375D01*
X138213215Y-78130402D01*
X138213215Y-78130397D01*
X138195246Y-78005424D01*
X138195245Y-78005421D01*
X138195245Y-78005419D01*
X138147102Y-77900000D01*
X138994645Y-77900000D01*
X139014038Y-78171154D01*
X139014038Y-78171157D01*
X139014039Y-78171160D01*
X139062483Y-78393857D01*
X139071826Y-78436805D01*
X139166828Y-78691514D01*
X139166832Y-78691522D01*
X139297106Y-78930102D01*
X139297109Y-78930106D01*
X139297113Y-78930113D01*
X139460029Y-79147742D01*
X139652258Y-79339971D01*
X139869887Y-79502887D01*
X139869894Y-79502891D01*
X139869897Y-79502893D01*
X140108477Y-79633167D01*
X140108485Y-79633171D01*
X140108487Y-79633172D01*
X140145623Y-79647023D01*
X140363195Y-79728174D01*
X140363202Y-79728176D01*
X140371620Y-79730007D01*
X140379460Y-79731712D01*
X140432303Y-79762554D01*
X140456925Y-79818567D01*
X140443922Y-79878354D01*
X140398260Y-79919080D01*
X140396306Y-79919914D01*
X140334509Y-79945511D01*
X140334507Y-79945512D01*
X140216255Y-80036251D01*
X140216251Y-80036255D01*
X140125512Y-80154507D01*
X140125510Y-80154511D01*
X140068472Y-80292213D01*
X140068470Y-80292221D01*
X140049015Y-80439999D01*
X140049015Y-80440000D01*
X140068470Y-80587781D01*
X140068471Y-80587782D01*
X140125510Y-80725489D01*
X140125512Y-80725493D01*
X140205522Y-80829763D01*
X140216253Y-80843747D01*
X140334507Y-80934488D01*
X140472218Y-80991529D01*
X140619999Y-81010985D01*
X140620000Y-81010985D01*
X140620001Y-81010985D01*
X140693891Y-81001257D01*
X140767782Y-80991529D01*
X140905493Y-80934488D01*
X141023747Y-80843747D01*
X141114488Y-80725493D01*
X141171529Y-80587782D01*
X141190985Y-80440000D01*
X141171529Y-80292218D01*
X141114488Y-80154508D01*
X141023747Y-80036253D01*
X141023746Y-80036252D01*
X141023743Y-80036248D01*
X140944754Y-79975637D01*
X140910099Y-79925213D01*
X140911701Y-79864048D01*
X140948949Y-79815507D01*
X140997957Y-79798348D01*
X141171160Y-79785961D01*
X141436801Y-79728175D01*
X141691513Y-79633172D01*
X141930113Y-79502887D01*
X142147742Y-79339971D01*
X142339971Y-79147742D01*
X142502887Y-78930113D01*
X142633172Y-78691513D01*
X142728175Y-78436801D01*
X142785961Y-78171160D01*
X142805355Y-77900000D01*
X158994645Y-77900000D01*
X159014038Y-78171154D01*
X159014038Y-78171157D01*
X159014039Y-78171160D01*
X159062483Y-78393857D01*
X159071826Y-78436805D01*
X159166828Y-78691514D01*
X159166832Y-78691522D01*
X159297106Y-78930102D01*
X159297109Y-78930106D01*
X159297113Y-78930113D01*
X159460029Y-79147742D01*
X159652258Y-79339971D01*
X159869887Y-79502887D01*
X159869894Y-79502891D01*
X159869897Y-79502893D01*
X160108477Y-79633167D01*
X160108485Y-79633171D01*
X160108487Y-79633172D01*
X160363199Y-79728175D01*
X160628840Y-79785961D01*
X160900000Y-79805355D01*
X161171160Y-79785961D01*
X161436801Y-79728175D01*
X161691513Y-79633172D01*
X161930113Y-79502887D01*
X162147742Y-79339971D01*
X162339971Y-79147742D01*
X162502887Y-78930113D01*
X162633172Y-78691513D01*
X162728175Y-78436801D01*
X162785961Y-78171160D01*
X162805355Y-77900000D01*
X162785961Y-77628840D01*
X162728175Y-77363199D01*
X162633172Y-77108487D01*
X162633167Y-77108477D01*
X162502893Y-76869897D01*
X162502891Y-76869894D01*
X162502887Y-76869887D01*
X162339971Y-76652258D01*
X162147742Y-76460029D01*
X161930113Y-76297113D01*
X161930106Y-76297109D01*
X161930102Y-76297106D01*
X161691522Y-76166832D01*
X161691514Y-76166828D01*
X161436805Y-76071826D01*
X161436801Y-76071825D01*
X161171160Y-76014039D01*
X161171157Y-76014038D01*
X161171154Y-76014038D01*
X160900000Y-75994645D01*
X160628845Y-76014038D01*
X160363194Y-76071826D01*
X160108485Y-76166828D01*
X160108477Y-76166832D01*
X159869897Y-76297106D01*
X159869889Y-76297111D01*
X159869887Y-76297113D01*
X159762933Y-76377177D01*
X159652260Y-76460027D01*
X159460027Y-76652260D01*
X159389571Y-76746378D01*
X159302416Y-76862804D01*
X159297106Y-76869897D01*
X159166832Y-77108477D01*
X159166828Y-77108485D01*
X159071826Y-77363194D01*
X159071825Y-77363199D01*
X159025390Y-77576662D01*
X159014038Y-77628845D01*
X158994645Y-77900000D01*
X142805355Y-77900000D01*
X142785961Y-77628840D01*
X142728175Y-77363199D01*
X142633172Y-77108487D01*
X142633167Y-77108477D01*
X142502893Y-76869897D01*
X142502891Y-76869894D01*
X142502887Y-76869887D01*
X142339971Y-76652258D01*
X142147742Y-76460029D01*
X141930113Y-76297113D01*
X141930106Y-76297109D01*
X141930102Y-76297106D01*
X141691522Y-76166832D01*
X141691514Y-76166828D01*
X141436805Y-76071826D01*
X141436801Y-76071825D01*
X141171160Y-76014039D01*
X141171157Y-76014038D01*
X141171154Y-76014038D01*
X140900000Y-75994645D01*
X140628845Y-76014038D01*
X140363194Y-76071826D01*
X140108485Y-76166828D01*
X140108477Y-76166832D01*
X139869897Y-76297106D01*
X139869889Y-76297111D01*
X139869887Y-76297113D01*
X139762933Y-76377177D01*
X139652260Y-76460027D01*
X139460027Y-76652260D01*
X139389571Y-76746378D01*
X139302416Y-76862804D01*
X139297106Y-76869897D01*
X139166832Y-77108477D01*
X139166828Y-77108485D01*
X139071826Y-77363194D01*
X139071825Y-77363199D01*
X139025390Y-77576662D01*
X139014038Y-77628845D01*
X138994645Y-77900000D01*
X138147102Y-77900000D01*
X138142793Y-77890564D01*
X138142791Y-77890562D01*
X138142791Y-77890561D01*
X138108977Y-77851539D01*
X138060106Y-77795138D01*
X138060103Y-77795136D01*
X138060102Y-77795135D01*
X137953885Y-77726874D01*
X137832734Y-77691300D01*
X137832733Y-77691300D01*
X137706467Y-77691300D01*
X137706465Y-77691300D01*
X137585314Y-77726874D01*
X137479097Y-77795135D01*
X137479093Y-77795139D01*
X137396408Y-77890561D01*
X137343954Y-78005421D01*
X137343953Y-78005424D01*
X137325985Y-78130397D01*
X137325985Y-78130402D01*
X133222057Y-78130402D01*
X133183096Y-78091441D01*
X133155319Y-78036924D01*
X133154100Y-78021437D01*
X133154100Y-77694179D01*
X133173007Y-77635988D01*
X133178281Y-77629348D01*
X133222427Y-77578401D01*
X133240593Y-77557436D01*
X133293045Y-77442581D01*
X133304459Y-77363199D01*
X133311015Y-77317602D01*
X133311015Y-77317597D01*
X133293046Y-77192624D01*
X133293045Y-77192621D01*
X133293045Y-77192619D01*
X133240593Y-77077764D01*
X133240591Y-77077762D01*
X133240591Y-77077761D01*
X133174565Y-77001564D01*
X133157906Y-76982338D01*
X133157903Y-76982336D01*
X133157902Y-76982335D01*
X133051685Y-76914074D01*
X132930534Y-76878500D01*
X132930533Y-76878500D01*
X132804267Y-76878500D01*
X132804265Y-76878500D01*
X132683114Y-76914074D01*
X132576897Y-76982335D01*
X132576893Y-76982339D01*
X132494208Y-77077761D01*
X132441754Y-77192621D01*
X132441753Y-77192624D01*
X132423785Y-77317597D01*
X132423785Y-77317602D01*
X132441753Y-77442575D01*
X132441754Y-77442578D01*
X132441754Y-77442579D01*
X132441755Y-77442581D01*
X132459408Y-77481235D01*
X132494208Y-77557438D01*
X132556519Y-77629348D01*
X132580337Y-77685707D01*
X132580700Y-77694179D01*
X132580700Y-78118481D01*
X132579751Y-78132155D01*
X132578530Y-78140904D01*
X132580594Y-78185519D01*
X132580700Y-78190092D01*
X132580700Y-78207761D01*
X132580755Y-78208356D01*
X132582242Y-78221178D01*
X132583481Y-78247974D01*
X132583482Y-78247977D01*
X132586748Y-78255375D01*
X132587055Y-78256069D01*
X132593802Y-78277858D01*
X132595429Y-78286560D01*
X132595431Y-78286565D01*
X132609550Y-78309369D01*
X132615942Y-78321495D01*
X132626775Y-78346029D01*
X132626776Y-78346030D01*
X132626777Y-78346032D01*
X132633035Y-78352290D01*
X132647197Y-78370169D01*
X132651856Y-78377694D01*
X132651857Y-78377695D01*
X132673259Y-78393857D01*
X132683601Y-78402856D01*
X134084304Y-79803559D01*
X134112081Y-79858076D01*
X134113300Y-79873563D01*
X134113300Y-89454600D01*
X134094393Y-89512791D01*
X134044893Y-89548755D01*
X133986408Y-89549590D01*
X133860434Y-89512600D01*
X133860433Y-89512600D01*
X133734167Y-89512600D01*
X133734165Y-89512600D01*
X133613014Y-89548174D01*
X133506797Y-89616435D01*
X133506796Y-89616436D01*
X133506794Y-89616437D01*
X133506794Y-89616438D01*
X133474317Y-89653917D01*
X133421923Y-89685512D01*
X133360962Y-89680276D01*
X133314721Y-89640208D01*
X133300500Y-89589085D01*
X133300500Y-82555726D01*
X133304279Y-82528635D01*
X133304401Y-82528207D01*
X133300922Y-82490662D01*
X133300500Y-82481528D01*
X133300500Y-82472157D01*
X133300432Y-82471793D01*
X133298776Y-82462935D01*
X133297515Y-82453903D01*
X133294035Y-82416340D01*
X133293837Y-82415943D01*
X133285140Y-82389992D01*
X133285060Y-82389564D01*
X133267740Y-82361593D01*
X133265211Y-82357510D01*
X133260765Y-82349526D01*
X133243958Y-82315771D01*
X133243956Y-82315769D01*
X133243628Y-82315470D01*
X133226154Y-82294427D01*
X133225919Y-82294048D01*
X133195835Y-82271330D01*
X133188798Y-82265487D01*
X133160932Y-82240083D01*
X133160930Y-82240082D01*
X133160509Y-82239919D01*
X133136622Y-82226614D01*
X133136266Y-82226345D01*
X133136261Y-82226343D01*
X133100000Y-82216025D01*
X133091331Y-82213120D01*
X133056175Y-82199500D01*
X133056173Y-82199500D01*
X133055727Y-82199500D01*
X133028636Y-82195721D01*
X133028207Y-82195599D01*
X132990661Y-82199078D01*
X132981529Y-82199500D01*
X132163888Y-82199500D01*
X132105697Y-82180593D01*
X132092638Y-82169234D01*
X130027739Y-80028754D01*
X130000945Y-79973747D01*
X130000000Y-79960203D01*
X130000000Y-74394973D01*
X130017414Y-74341330D01*
X130066904Y-74305353D01*
X130097522Y-74300500D01*
X143000500Y-74300500D01*
X143058691Y-74319407D01*
G37*
%TD.AperFunction*%
%TD*%
%TA.AperFunction,Conductor*%
%TO.N,GND*%
G36*
X130000000Y-79950106D02*
G01*
X129999986Y-79949965D01*
X129998529Y-74424532D01*
X130000000Y-74419517D01*
X130000000Y-79950106D01*
G37*
%TD.AperFunction*%
%TD*%
M02*
