%TF.GenerationSoftware,KiCad,Pcbnew,7.0.10*%
%TF.CreationDate,2024-03-09T04:50:20+08:00*%
%TF.ProjectId,ESP32Sensor-Sensor_board,45535033-3253-4656-9e73-6f722d53656e,rev?*%
%TF.SameCoordinates,Original*%
%TF.FileFunction,Legend,Top*%
%TF.FilePolarity,Positive*%
%FSLAX46Y46*%
G04 Gerber Fmt 4.6, Leading zero omitted, Abs format (unit mm)*
G04 Created by KiCad (PCBNEW 7.0.10) date 2024-03-09 04:50:20*
%MOMM*%
%LPD*%
G01*
G04 APERTURE LIST*
%ADD10C,0.150000*%
%ADD11C,0.120000*%
%ADD12C,0.200000*%
%ADD13C,0.127000*%
G04 APERTURE END LIST*
D10*
X155831009Y-104233333D02*
X155831009Y-104566666D01*
X156354819Y-104566666D02*
X155354819Y-104566666D01*
X155354819Y-104566666D02*
X155354819Y-104090476D01*
X155831009Y-103376190D02*
X155878628Y-103233333D01*
X155878628Y-103233333D02*
X155926247Y-103185714D01*
X155926247Y-103185714D02*
X156021485Y-103138095D01*
X156021485Y-103138095D02*
X156164342Y-103138095D01*
X156164342Y-103138095D02*
X156259580Y-103185714D01*
X156259580Y-103185714D02*
X156307200Y-103233333D01*
X156307200Y-103233333D02*
X156354819Y-103328571D01*
X156354819Y-103328571D02*
X156354819Y-103709523D01*
X156354819Y-103709523D02*
X155354819Y-103709523D01*
X155354819Y-103709523D02*
X155354819Y-103376190D01*
X155354819Y-103376190D02*
X155402438Y-103280952D01*
X155402438Y-103280952D02*
X155450057Y-103233333D01*
X155450057Y-103233333D02*
X155545295Y-103185714D01*
X155545295Y-103185714D02*
X155640533Y-103185714D01*
X155640533Y-103185714D02*
X155735771Y-103233333D01*
X155735771Y-103233333D02*
X155783390Y-103280952D01*
X155783390Y-103280952D02*
X155831009Y-103376190D01*
X155831009Y-103376190D02*
X155831009Y-103709523D01*
X156354819Y-102185714D02*
X156354819Y-102757142D01*
X156354819Y-102471428D02*
X155354819Y-102471428D01*
X155354819Y-102471428D02*
X155497676Y-102566666D01*
X155497676Y-102566666D02*
X155592914Y-102661904D01*
X155592914Y-102661904D02*
X155640533Y-102757142D01*
X134557142Y-112259580D02*
X134509523Y-112307200D01*
X134509523Y-112307200D02*
X134366666Y-112354819D01*
X134366666Y-112354819D02*
X134271428Y-112354819D01*
X134271428Y-112354819D02*
X134128571Y-112307200D01*
X134128571Y-112307200D02*
X134033333Y-112211961D01*
X134033333Y-112211961D02*
X133985714Y-112116723D01*
X133985714Y-112116723D02*
X133938095Y-111926247D01*
X133938095Y-111926247D02*
X133938095Y-111783390D01*
X133938095Y-111783390D02*
X133985714Y-111592914D01*
X133985714Y-111592914D02*
X134033333Y-111497676D01*
X134033333Y-111497676D02*
X134128571Y-111402438D01*
X134128571Y-111402438D02*
X134271428Y-111354819D01*
X134271428Y-111354819D02*
X134366666Y-111354819D01*
X134366666Y-111354819D02*
X134509523Y-111402438D01*
X134509523Y-111402438D02*
X134557142Y-111450057D01*
X135509523Y-112354819D02*
X134938095Y-112354819D01*
X135223809Y-112354819D02*
X135223809Y-111354819D01*
X135223809Y-111354819D02*
X135128571Y-111497676D01*
X135128571Y-111497676D02*
X135033333Y-111592914D01*
X135033333Y-111592914D02*
X134938095Y-111640533D01*
X136080952Y-111783390D02*
X135985714Y-111735771D01*
X135985714Y-111735771D02*
X135938095Y-111688152D01*
X135938095Y-111688152D02*
X135890476Y-111592914D01*
X135890476Y-111592914D02*
X135890476Y-111545295D01*
X135890476Y-111545295D02*
X135938095Y-111450057D01*
X135938095Y-111450057D02*
X135985714Y-111402438D01*
X135985714Y-111402438D02*
X136080952Y-111354819D01*
X136080952Y-111354819D02*
X136271428Y-111354819D01*
X136271428Y-111354819D02*
X136366666Y-111402438D01*
X136366666Y-111402438D02*
X136414285Y-111450057D01*
X136414285Y-111450057D02*
X136461904Y-111545295D01*
X136461904Y-111545295D02*
X136461904Y-111592914D01*
X136461904Y-111592914D02*
X136414285Y-111688152D01*
X136414285Y-111688152D02*
X136366666Y-111735771D01*
X136366666Y-111735771D02*
X136271428Y-111783390D01*
X136271428Y-111783390D02*
X136080952Y-111783390D01*
X136080952Y-111783390D02*
X135985714Y-111831009D01*
X135985714Y-111831009D02*
X135938095Y-111878628D01*
X135938095Y-111878628D02*
X135890476Y-111973866D01*
X135890476Y-111973866D02*
X135890476Y-112164342D01*
X135890476Y-112164342D02*
X135938095Y-112259580D01*
X135938095Y-112259580D02*
X135985714Y-112307200D01*
X135985714Y-112307200D02*
X136080952Y-112354819D01*
X136080952Y-112354819D02*
X136271428Y-112354819D01*
X136271428Y-112354819D02*
X136366666Y-112307200D01*
X136366666Y-112307200D02*
X136414285Y-112259580D01*
X136414285Y-112259580D02*
X136461904Y-112164342D01*
X136461904Y-112164342D02*
X136461904Y-111973866D01*
X136461904Y-111973866D02*
X136414285Y-111878628D01*
X136414285Y-111878628D02*
X136366666Y-111831009D01*
X136366666Y-111831009D02*
X136271428Y-111783390D01*
X172338095Y-125054819D02*
X172909523Y-125054819D01*
X172623809Y-126054819D02*
X172623809Y-125054819D01*
X173242857Y-126054819D02*
X173242857Y-125054819D01*
X173242857Y-125054819D02*
X173623809Y-125054819D01*
X173623809Y-125054819D02*
X173719047Y-125102438D01*
X173719047Y-125102438D02*
X173766666Y-125150057D01*
X173766666Y-125150057D02*
X173814285Y-125245295D01*
X173814285Y-125245295D02*
X173814285Y-125388152D01*
X173814285Y-125388152D02*
X173766666Y-125483390D01*
X173766666Y-125483390D02*
X173719047Y-125531009D01*
X173719047Y-125531009D02*
X173623809Y-125578628D01*
X173623809Y-125578628D02*
X173242857Y-125578628D01*
X174719047Y-125054819D02*
X174242857Y-125054819D01*
X174242857Y-125054819D02*
X174195238Y-125531009D01*
X174195238Y-125531009D02*
X174242857Y-125483390D01*
X174242857Y-125483390D02*
X174338095Y-125435771D01*
X174338095Y-125435771D02*
X174576190Y-125435771D01*
X174576190Y-125435771D02*
X174671428Y-125483390D01*
X174671428Y-125483390D02*
X174719047Y-125531009D01*
X174719047Y-125531009D02*
X174766666Y-125626247D01*
X174766666Y-125626247D02*
X174766666Y-125864342D01*
X174766666Y-125864342D02*
X174719047Y-125959580D01*
X174719047Y-125959580D02*
X174671428Y-126007200D01*
X174671428Y-126007200D02*
X174576190Y-126054819D01*
X174576190Y-126054819D02*
X174338095Y-126054819D01*
X174338095Y-126054819D02*
X174242857Y-126007200D01*
X174242857Y-126007200D02*
X174195238Y-125959580D01*
X168559580Y-125066666D02*
X168607200Y-125114285D01*
X168607200Y-125114285D02*
X168654819Y-125257142D01*
X168654819Y-125257142D02*
X168654819Y-125352380D01*
X168654819Y-125352380D02*
X168607200Y-125495237D01*
X168607200Y-125495237D02*
X168511961Y-125590475D01*
X168511961Y-125590475D02*
X168416723Y-125638094D01*
X168416723Y-125638094D02*
X168226247Y-125685713D01*
X168226247Y-125685713D02*
X168083390Y-125685713D01*
X168083390Y-125685713D02*
X167892914Y-125638094D01*
X167892914Y-125638094D02*
X167797676Y-125590475D01*
X167797676Y-125590475D02*
X167702438Y-125495237D01*
X167702438Y-125495237D02*
X167654819Y-125352380D01*
X167654819Y-125352380D02*
X167654819Y-125257142D01*
X167654819Y-125257142D02*
X167702438Y-125114285D01*
X167702438Y-125114285D02*
X167750057Y-125066666D01*
X168654819Y-124114285D02*
X168654819Y-124685713D01*
X168654819Y-124399999D02*
X167654819Y-124399999D01*
X167654819Y-124399999D02*
X167797676Y-124495237D01*
X167797676Y-124495237D02*
X167892914Y-124590475D01*
X167892914Y-124590475D02*
X167940533Y-124685713D01*
X173954819Y-120966666D02*
X173478628Y-121299999D01*
X173954819Y-121538094D02*
X172954819Y-121538094D01*
X172954819Y-121538094D02*
X172954819Y-121157142D01*
X172954819Y-121157142D02*
X173002438Y-121061904D01*
X173002438Y-121061904D02*
X173050057Y-121014285D01*
X173050057Y-121014285D02*
X173145295Y-120966666D01*
X173145295Y-120966666D02*
X173288152Y-120966666D01*
X173288152Y-120966666D02*
X173383390Y-121014285D01*
X173383390Y-121014285D02*
X173431009Y-121061904D01*
X173431009Y-121061904D02*
X173478628Y-121157142D01*
X173478628Y-121157142D02*
X173478628Y-121538094D01*
X173954819Y-120014285D02*
X173954819Y-120585713D01*
X173954819Y-120299999D02*
X172954819Y-120299999D01*
X172954819Y-120299999D02*
X173097676Y-120395237D01*
X173097676Y-120395237D02*
X173192914Y-120490475D01*
X173192914Y-120490475D02*
X173240533Y-120585713D01*
X169861905Y-108254819D02*
X169861905Y-109064342D01*
X169861905Y-109064342D02*
X169909524Y-109159580D01*
X169909524Y-109159580D02*
X169957143Y-109207200D01*
X169957143Y-109207200D02*
X170052381Y-109254819D01*
X170052381Y-109254819D02*
X170242857Y-109254819D01*
X170242857Y-109254819D02*
X170338095Y-109207200D01*
X170338095Y-109207200D02*
X170385714Y-109159580D01*
X170385714Y-109159580D02*
X170433333Y-109064342D01*
X170433333Y-109064342D02*
X170433333Y-108254819D01*
X171433333Y-109254819D02*
X170861905Y-109254819D01*
X171147619Y-109254819D02*
X171147619Y-108254819D01*
X171147619Y-108254819D02*
X171052381Y-108397676D01*
X171052381Y-108397676D02*
X170957143Y-108492914D01*
X170957143Y-108492914D02*
X170861905Y-108540533D01*
X172052381Y-108254819D02*
X172147619Y-108254819D01*
X172147619Y-108254819D02*
X172242857Y-108302438D01*
X172242857Y-108302438D02*
X172290476Y-108350057D01*
X172290476Y-108350057D02*
X172338095Y-108445295D01*
X172338095Y-108445295D02*
X172385714Y-108635771D01*
X172385714Y-108635771D02*
X172385714Y-108873866D01*
X172385714Y-108873866D02*
X172338095Y-109064342D01*
X172338095Y-109064342D02*
X172290476Y-109159580D01*
X172290476Y-109159580D02*
X172242857Y-109207200D01*
X172242857Y-109207200D02*
X172147619Y-109254819D01*
X172147619Y-109254819D02*
X172052381Y-109254819D01*
X172052381Y-109254819D02*
X171957143Y-109207200D01*
X171957143Y-109207200D02*
X171909524Y-109159580D01*
X171909524Y-109159580D02*
X171861905Y-109064342D01*
X171861905Y-109064342D02*
X171814286Y-108873866D01*
X171814286Y-108873866D02*
X171814286Y-108635771D01*
X171814286Y-108635771D02*
X171861905Y-108445295D01*
X171861905Y-108445295D02*
X171909524Y-108350057D01*
X171909524Y-108350057D02*
X171957143Y-108302438D01*
X171957143Y-108302438D02*
X172052381Y-108254819D01*
X158061905Y-107654819D02*
X158061905Y-108464342D01*
X158061905Y-108464342D02*
X158109524Y-108559580D01*
X158109524Y-108559580D02*
X158157143Y-108607200D01*
X158157143Y-108607200D02*
X158252381Y-108654819D01*
X158252381Y-108654819D02*
X158442857Y-108654819D01*
X158442857Y-108654819D02*
X158538095Y-108607200D01*
X158538095Y-108607200D02*
X158585714Y-108559580D01*
X158585714Y-108559580D02*
X158633333Y-108464342D01*
X158633333Y-108464342D02*
X158633333Y-107654819D01*
X159633333Y-108654819D02*
X159061905Y-108654819D01*
X159347619Y-108654819D02*
X159347619Y-107654819D01*
X159347619Y-107654819D02*
X159252381Y-107797676D01*
X159252381Y-107797676D02*
X159157143Y-107892914D01*
X159157143Y-107892914D02*
X159061905Y-107940533D01*
X160490476Y-107988152D02*
X160490476Y-108654819D01*
X160252381Y-107607200D02*
X160014286Y-108321485D01*
X160014286Y-108321485D02*
X160633333Y-108321485D01*
X169304819Y-114412857D02*
X168828628Y-114746190D01*
X169304819Y-114984285D02*
X168304819Y-114984285D01*
X168304819Y-114984285D02*
X168304819Y-114603333D01*
X168304819Y-114603333D02*
X168352438Y-114508095D01*
X168352438Y-114508095D02*
X168400057Y-114460476D01*
X168400057Y-114460476D02*
X168495295Y-114412857D01*
X168495295Y-114412857D02*
X168638152Y-114412857D01*
X168638152Y-114412857D02*
X168733390Y-114460476D01*
X168733390Y-114460476D02*
X168781009Y-114508095D01*
X168781009Y-114508095D02*
X168828628Y-114603333D01*
X168828628Y-114603333D02*
X168828628Y-114984285D01*
X169304819Y-113460476D02*
X169304819Y-114031904D01*
X169304819Y-113746190D02*
X168304819Y-113746190D01*
X168304819Y-113746190D02*
X168447676Y-113841428D01*
X168447676Y-113841428D02*
X168542914Y-113936666D01*
X168542914Y-113936666D02*
X168590533Y-114031904D01*
X168733390Y-112889047D02*
X168685771Y-112984285D01*
X168685771Y-112984285D02*
X168638152Y-113031904D01*
X168638152Y-113031904D02*
X168542914Y-113079523D01*
X168542914Y-113079523D02*
X168495295Y-113079523D01*
X168495295Y-113079523D02*
X168400057Y-113031904D01*
X168400057Y-113031904D02*
X168352438Y-112984285D01*
X168352438Y-112984285D02*
X168304819Y-112889047D01*
X168304819Y-112889047D02*
X168304819Y-112698571D01*
X168304819Y-112698571D02*
X168352438Y-112603333D01*
X168352438Y-112603333D02*
X168400057Y-112555714D01*
X168400057Y-112555714D02*
X168495295Y-112508095D01*
X168495295Y-112508095D02*
X168542914Y-112508095D01*
X168542914Y-112508095D02*
X168638152Y-112555714D01*
X168638152Y-112555714D02*
X168685771Y-112603333D01*
X168685771Y-112603333D02*
X168733390Y-112698571D01*
X168733390Y-112698571D02*
X168733390Y-112889047D01*
X168733390Y-112889047D02*
X168781009Y-112984285D01*
X168781009Y-112984285D02*
X168828628Y-113031904D01*
X168828628Y-113031904D02*
X168923866Y-113079523D01*
X168923866Y-113079523D02*
X169114342Y-113079523D01*
X169114342Y-113079523D02*
X169209580Y-113031904D01*
X169209580Y-113031904D02*
X169257200Y-112984285D01*
X169257200Y-112984285D02*
X169304819Y-112889047D01*
X169304819Y-112889047D02*
X169304819Y-112698571D01*
X169304819Y-112698571D02*
X169257200Y-112603333D01*
X169257200Y-112603333D02*
X169209580Y-112555714D01*
X169209580Y-112555714D02*
X169114342Y-112508095D01*
X169114342Y-112508095D02*
X168923866Y-112508095D01*
X168923866Y-112508095D02*
X168828628Y-112555714D01*
X168828628Y-112555714D02*
X168781009Y-112603333D01*
X168781009Y-112603333D02*
X168733390Y-112698571D01*
X137538095Y-83854819D02*
X138109523Y-83854819D01*
X137823809Y-84854819D02*
X137823809Y-83854819D01*
X138442857Y-84854819D02*
X138442857Y-83854819D01*
X138442857Y-83854819D02*
X138823809Y-83854819D01*
X138823809Y-83854819D02*
X138919047Y-83902438D01*
X138919047Y-83902438D02*
X138966666Y-83950057D01*
X138966666Y-83950057D02*
X139014285Y-84045295D01*
X139014285Y-84045295D02*
X139014285Y-84188152D01*
X139014285Y-84188152D02*
X138966666Y-84283390D01*
X138966666Y-84283390D02*
X138919047Y-84331009D01*
X138919047Y-84331009D02*
X138823809Y-84378628D01*
X138823809Y-84378628D02*
X138442857Y-84378628D01*
X139966666Y-84854819D02*
X139395238Y-84854819D01*
X139680952Y-84854819D02*
X139680952Y-83854819D01*
X139680952Y-83854819D02*
X139585714Y-83997676D01*
X139585714Y-83997676D02*
X139490476Y-84092914D01*
X139490476Y-84092914D02*
X139395238Y-84140533D01*
X165761905Y-107554819D02*
X165761905Y-108364342D01*
X165761905Y-108364342D02*
X165809524Y-108459580D01*
X165809524Y-108459580D02*
X165857143Y-108507200D01*
X165857143Y-108507200D02*
X165952381Y-108554819D01*
X165952381Y-108554819D02*
X166142857Y-108554819D01*
X166142857Y-108554819D02*
X166238095Y-108507200D01*
X166238095Y-108507200D02*
X166285714Y-108459580D01*
X166285714Y-108459580D02*
X166333333Y-108364342D01*
X166333333Y-108364342D02*
X166333333Y-107554819D01*
X167333333Y-108554819D02*
X166761905Y-108554819D01*
X167047619Y-108554819D02*
X167047619Y-107554819D01*
X167047619Y-107554819D02*
X166952381Y-107697676D01*
X166952381Y-107697676D02*
X166857143Y-107792914D01*
X166857143Y-107792914D02*
X166761905Y-107840533D01*
X168285714Y-108554819D02*
X167714286Y-108554819D01*
X168000000Y-108554819D02*
X168000000Y-107554819D01*
X168000000Y-107554819D02*
X167904762Y-107697676D01*
X167904762Y-107697676D02*
X167809524Y-107792914D01*
X167809524Y-107792914D02*
X167714286Y-107840533D01*
X164257142Y-109754819D02*
X163923809Y-109278628D01*
X163685714Y-109754819D02*
X163685714Y-108754819D01*
X163685714Y-108754819D02*
X164066666Y-108754819D01*
X164066666Y-108754819D02*
X164161904Y-108802438D01*
X164161904Y-108802438D02*
X164209523Y-108850057D01*
X164209523Y-108850057D02*
X164257142Y-108945295D01*
X164257142Y-108945295D02*
X164257142Y-109088152D01*
X164257142Y-109088152D02*
X164209523Y-109183390D01*
X164209523Y-109183390D02*
X164161904Y-109231009D01*
X164161904Y-109231009D02*
X164066666Y-109278628D01*
X164066666Y-109278628D02*
X163685714Y-109278628D01*
X164638095Y-108850057D02*
X164685714Y-108802438D01*
X164685714Y-108802438D02*
X164780952Y-108754819D01*
X164780952Y-108754819D02*
X165019047Y-108754819D01*
X165019047Y-108754819D02*
X165114285Y-108802438D01*
X165114285Y-108802438D02*
X165161904Y-108850057D01*
X165161904Y-108850057D02*
X165209523Y-108945295D01*
X165209523Y-108945295D02*
X165209523Y-109040533D01*
X165209523Y-109040533D02*
X165161904Y-109183390D01*
X165161904Y-109183390D02*
X164590476Y-109754819D01*
X164590476Y-109754819D02*
X165209523Y-109754819D01*
X165590476Y-108850057D02*
X165638095Y-108802438D01*
X165638095Y-108802438D02*
X165733333Y-108754819D01*
X165733333Y-108754819D02*
X165971428Y-108754819D01*
X165971428Y-108754819D02*
X166066666Y-108802438D01*
X166066666Y-108802438D02*
X166114285Y-108850057D01*
X166114285Y-108850057D02*
X166161904Y-108945295D01*
X166161904Y-108945295D02*
X166161904Y-109040533D01*
X166161904Y-109040533D02*
X166114285Y-109183390D01*
X166114285Y-109183390D02*
X165542857Y-109754819D01*
X165542857Y-109754819D02*
X166161904Y-109754819D01*
X157859580Y-104142857D02*
X157907200Y-104190476D01*
X157907200Y-104190476D02*
X157954819Y-104333333D01*
X157954819Y-104333333D02*
X157954819Y-104428571D01*
X157954819Y-104428571D02*
X157907200Y-104571428D01*
X157907200Y-104571428D02*
X157811961Y-104666666D01*
X157811961Y-104666666D02*
X157716723Y-104714285D01*
X157716723Y-104714285D02*
X157526247Y-104761904D01*
X157526247Y-104761904D02*
X157383390Y-104761904D01*
X157383390Y-104761904D02*
X157192914Y-104714285D01*
X157192914Y-104714285D02*
X157097676Y-104666666D01*
X157097676Y-104666666D02*
X157002438Y-104571428D01*
X157002438Y-104571428D02*
X156954819Y-104428571D01*
X156954819Y-104428571D02*
X156954819Y-104333333D01*
X156954819Y-104333333D02*
X157002438Y-104190476D01*
X157002438Y-104190476D02*
X157050057Y-104142857D01*
X157050057Y-103761904D02*
X157002438Y-103714285D01*
X157002438Y-103714285D02*
X156954819Y-103619047D01*
X156954819Y-103619047D02*
X156954819Y-103380952D01*
X156954819Y-103380952D02*
X157002438Y-103285714D01*
X157002438Y-103285714D02*
X157050057Y-103238095D01*
X157050057Y-103238095D02*
X157145295Y-103190476D01*
X157145295Y-103190476D02*
X157240533Y-103190476D01*
X157240533Y-103190476D02*
X157383390Y-103238095D01*
X157383390Y-103238095D02*
X157954819Y-103809523D01*
X157954819Y-103809523D02*
X157954819Y-103190476D01*
X157954819Y-102714285D02*
X157954819Y-102523809D01*
X157954819Y-102523809D02*
X157907200Y-102428571D01*
X157907200Y-102428571D02*
X157859580Y-102380952D01*
X157859580Y-102380952D02*
X157716723Y-102285714D01*
X157716723Y-102285714D02*
X157526247Y-102238095D01*
X157526247Y-102238095D02*
X157145295Y-102238095D01*
X157145295Y-102238095D02*
X157050057Y-102285714D01*
X157050057Y-102285714D02*
X157002438Y-102333333D01*
X157002438Y-102333333D02*
X156954819Y-102428571D01*
X156954819Y-102428571D02*
X156954819Y-102619047D01*
X156954819Y-102619047D02*
X157002438Y-102714285D01*
X157002438Y-102714285D02*
X157050057Y-102761904D01*
X157050057Y-102761904D02*
X157145295Y-102809523D01*
X157145295Y-102809523D02*
X157383390Y-102809523D01*
X157383390Y-102809523D02*
X157478628Y-102761904D01*
X157478628Y-102761904D02*
X157526247Y-102714285D01*
X157526247Y-102714285D02*
X157573866Y-102619047D01*
X157573866Y-102619047D02*
X157573866Y-102428571D01*
X157573866Y-102428571D02*
X157526247Y-102333333D01*
X157526247Y-102333333D02*
X157478628Y-102285714D01*
X157478628Y-102285714D02*
X157383390Y-102238095D01*
X155404819Y-126251904D02*
X156214342Y-126251904D01*
X156214342Y-126251904D02*
X156309580Y-126204285D01*
X156309580Y-126204285D02*
X156357200Y-126156666D01*
X156357200Y-126156666D02*
X156404819Y-126061428D01*
X156404819Y-126061428D02*
X156404819Y-125870952D01*
X156404819Y-125870952D02*
X156357200Y-125775714D01*
X156357200Y-125775714D02*
X156309580Y-125728095D01*
X156309580Y-125728095D02*
X156214342Y-125680476D01*
X156214342Y-125680476D02*
X155404819Y-125680476D01*
X155833390Y-125061428D02*
X155785771Y-125156666D01*
X155785771Y-125156666D02*
X155738152Y-125204285D01*
X155738152Y-125204285D02*
X155642914Y-125251904D01*
X155642914Y-125251904D02*
X155595295Y-125251904D01*
X155595295Y-125251904D02*
X155500057Y-125204285D01*
X155500057Y-125204285D02*
X155452438Y-125156666D01*
X155452438Y-125156666D02*
X155404819Y-125061428D01*
X155404819Y-125061428D02*
X155404819Y-124870952D01*
X155404819Y-124870952D02*
X155452438Y-124775714D01*
X155452438Y-124775714D02*
X155500057Y-124728095D01*
X155500057Y-124728095D02*
X155595295Y-124680476D01*
X155595295Y-124680476D02*
X155642914Y-124680476D01*
X155642914Y-124680476D02*
X155738152Y-124728095D01*
X155738152Y-124728095D02*
X155785771Y-124775714D01*
X155785771Y-124775714D02*
X155833390Y-124870952D01*
X155833390Y-124870952D02*
X155833390Y-125061428D01*
X155833390Y-125061428D02*
X155881009Y-125156666D01*
X155881009Y-125156666D02*
X155928628Y-125204285D01*
X155928628Y-125204285D02*
X156023866Y-125251904D01*
X156023866Y-125251904D02*
X156214342Y-125251904D01*
X156214342Y-125251904D02*
X156309580Y-125204285D01*
X156309580Y-125204285D02*
X156357200Y-125156666D01*
X156357200Y-125156666D02*
X156404819Y-125061428D01*
X156404819Y-125061428D02*
X156404819Y-124870952D01*
X156404819Y-124870952D02*
X156357200Y-124775714D01*
X156357200Y-124775714D02*
X156309580Y-124728095D01*
X156309580Y-124728095D02*
X156214342Y-124680476D01*
X156214342Y-124680476D02*
X156023866Y-124680476D01*
X156023866Y-124680476D02*
X155928628Y-124728095D01*
X155928628Y-124728095D02*
X155881009Y-124775714D01*
X155881009Y-124775714D02*
X155833390Y-124870952D01*
X170969166Y-75257319D02*
X170969166Y-75971604D01*
X170969166Y-75971604D02*
X170921547Y-76114461D01*
X170921547Y-76114461D02*
X170826309Y-76209700D01*
X170826309Y-76209700D02*
X170683452Y-76257319D01*
X170683452Y-76257319D02*
X170588214Y-76257319D01*
X171397738Y-75352557D02*
X171445357Y-75304938D01*
X171445357Y-75304938D02*
X171540595Y-75257319D01*
X171540595Y-75257319D02*
X171778690Y-75257319D01*
X171778690Y-75257319D02*
X171873928Y-75304938D01*
X171873928Y-75304938D02*
X171921547Y-75352557D01*
X171921547Y-75352557D02*
X171969166Y-75447795D01*
X171969166Y-75447795D02*
X171969166Y-75543033D01*
X171969166Y-75543033D02*
X171921547Y-75685890D01*
X171921547Y-75685890D02*
X171350119Y-76257319D01*
X171350119Y-76257319D02*
X171969166Y-76257319D01*
X139257142Y-110259580D02*
X139209523Y-110307200D01*
X139209523Y-110307200D02*
X139066666Y-110354819D01*
X139066666Y-110354819D02*
X138971428Y-110354819D01*
X138971428Y-110354819D02*
X138828571Y-110307200D01*
X138828571Y-110307200D02*
X138733333Y-110211961D01*
X138733333Y-110211961D02*
X138685714Y-110116723D01*
X138685714Y-110116723D02*
X138638095Y-109926247D01*
X138638095Y-109926247D02*
X138638095Y-109783390D01*
X138638095Y-109783390D02*
X138685714Y-109592914D01*
X138685714Y-109592914D02*
X138733333Y-109497676D01*
X138733333Y-109497676D02*
X138828571Y-109402438D01*
X138828571Y-109402438D02*
X138971428Y-109354819D01*
X138971428Y-109354819D02*
X139066666Y-109354819D01*
X139066666Y-109354819D02*
X139209523Y-109402438D01*
X139209523Y-109402438D02*
X139257142Y-109450057D01*
X139638095Y-109450057D02*
X139685714Y-109402438D01*
X139685714Y-109402438D02*
X139780952Y-109354819D01*
X139780952Y-109354819D02*
X140019047Y-109354819D01*
X140019047Y-109354819D02*
X140114285Y-109402438D01*
X140114285Y-109402438D02*
X140161904Y-109450057D01*
X140161904Y-109450057D02*
X140209523Y-109545295D01*
X140209523Y-109545295D02*
X140209523Y-109640533D01*
X140209523Y-109640533D02*
X140161904Y-109783390D01*
X140161904Y-109783390D02*
X139590476Y-110354819D01*
X139590476Y-110354819D02*
X140209523Y-110354819D01*
X140590476Y-109450057D02*
X140638095Y-109402438D01*
X140638095Y-109402438D02*
X140733333Y-109354819D01*
X140733333Y-109354819D02*
X140971428Y-109354819D01*
X140971428Y-109354819D02*
X141066666Y-109402438D01*
X141066666Y-109402438D02*
X141114285Y-109450057D01*
X141114285Y-109450057D02*
X141161904Y-109545295D01*
X141161904Y-109545295D02*
X141161904Y-109640533D01*
X141161904Y-109640533D02*
X141114285Y-109783390D01*
X141114285Y-109783390D02*
X140542857Y-110354819D01*
X140542857Y-110354819D02*
X141161904Y-110354819D01*
X169459580Y-103642857D02*
X169507200Y-103690476D01*
X169507200Y-103690476D02*
X169554819Y-103833333D01*
X169554819Y-103833333D02*
X169554819Y-103928571D01*
X169554819Y-103928571D02*
X169507200Y-104071428D01*
X169507200Y-104071428D02*
X169411961Y-104166666D01*
X169411961Y-104166666D02*
X169316723Y-104214285D01*
X169316723Y-104214285D02*
X169126247Y-104261904D01*
X169126247Y-104261904D02*
X168983390Y-104261904D01*
X168983390Y-104261904D02*
X168792914Y-104214285D01*
X168792914Y-104214285D02*
X168697676Y-104166666D01*
X168697676Y-104166666D02*
X168602438Y-104071428D01*
X168602438Y-104071428D02*
X168554819Y-103928571D01*
X168554819Y-103928571D02*
X168554819Y-103833333D01*
X168554819Y-103833333D02*
X168602438Y-103690476D01*
X168602438Y-103690476D02*
X168650057Y-103642857D01*
X168650057Y-103261904D02*
X168602438Y-103214285D01*
X168602438Y-103214285D02*
X168554819Y-103119047D01*
X168554819Y-103119047D02*
X168554819Y-102880952D01*
X168554819Y-102880952D02*
X168602438Y-102785714D01*
X168602438Y-102785714D02*
X168650057Y-102738095D01*
X168650057Y-102738095D02*
X168745295Y-102690476D01*
X168745295Y-102690476D02*
X168840533Y-102690476D01*
X168840533Y-102690476D02*
X168983390Y-102738095D01*
X168983390Y-102738095D02*
X169554819Y-103309523D01*
X169554819Y-103309523D02*
X169554819Y-102690476D01*
X168554819Y-101785714D02*
X168554819Y-102261904D01*
X168554819Y-102261904D02*
X169031009Y-102309523D01*
X169031009Y-102309523D02*
X168983390Y-102261904D01*
X168983390Y-102261904D02*
X168935771Y-102166666D01*
X168935771Y-102166666D02*
X168935771Y-101928571D01*
X168935771Y-101928571D02*
X168983390Y-101833333D01*
X168983390Y-101833333D02*
X169031009Y-101785714D01*
X169031009Y-101785714D02*
X169126247Y-101738095D01*
X169126247Y-101738095D02*
X169364342Y-101738095D01*
X169364342Y-101738095D02*
X169459580Y-101785714D01*
X169459580Y-101785714D02*
X169507200Y-101833333D01*
X169507200Y-101833333D02*
X169554819Y-101928571D01*
X169554819Y-101928571D02*
X169554819Y-102166666D01*
X169554819Y-102166666D02*
X169507200Y-102261904D01*
X169507200Y-102261904D02*
X169459580Y-102309523D01*
X138538095Y-114954819D02*
X139109523Y-114954819D01*
X138823809Y-115954819D02*
X138823809Y-114954819D01*
X139442857Y-115954819D02*
X139442857Y-114954819D01*
X139442857Y-114954819D02*
X139823809Y-114954819D01*
X139823809Y-114954819D02*
X139919047Y-115002438D01*
X139919047Y-115002438D02*
X139966666Y-115050057D01*
X139966666Y-115050057D02*
X140014285Y-115145295D01*
X140014285Y-115145295D02*
X140014285Y-115288152D01*
X140014285Y-115288152D02*
X139966666Y-115383390D01*
X139966666Y-115383390D02*
X139919047Y-115431009D01*
X139919047Y-115431009D02*
X139823809Y-115478628D01*
X139823809Y-115478628D02*
X139442857Y-115478628D01*
X140347619Y-114954819D02*
X140966666Y-114954819D01*
X140966666Y-114954819D02*
X140633333Y-115335771D01*
X140633333Y-115335771D02*
X140776190Y-115335771D01*
X140776190Y-115335771D02*
X140871428Y-115383390D01*
X140871428Y-115383390D02*
X140919047Y-115431009D01*
X140919047Y-115431009D02*
X140966666Y-115526247D01*
X140966666Y-115526247D02*
X140966666Y-115764342D01*
X140966666Y-115764342D02*
X140919047Y-115859580D01*
X140919047Y-115859580D02*
X140871428Y-115907200D01*
X140871428Y-115907200D02*
X140776190Y-115954819D01*
X140776190Y-115954819D02*
X140490476Y-115954819D01*
X140490476Y-115954819D02*
X140395238Y-115907200D01*
X140395238Y-115907200D02*
X140347619Y-115859580D01*
X167531009Y-112233333D02*
X167531009Y-112566666D01*
X168054819Y-112566666D02*
X167054819Y-112566666D01*
X167054819Y-112566666D02*
X167054819Y-112090476D01*
X167531009Y-111376190D02*
X167578628Y-111233333D01*
X167578628Y-111233333D02*
X167626247Y-111185714D01*
X167626247Y-111185714D02*
X167721485Y-111138095D01*
X167721485Y-111138095D02*
X167864342Y-111138095D01*
X167864342Y-111138095D02*
X167959580Y-111185714D01*
X167959580Y-111185714D02*
X168007200Y-111233333D01*
X168007200Y-111233333D02*
X168054819Y-111328571D01*
X168054819Y-111328571D02*
X168054819Y-111709523D01*
X168054819Y-111709523D02*
X167054819Y-111709523D01*
X167054819Y-111709523D02*
X167054819Y-111376190D01*
X167054819Y-111376190D02*
X167102438Y-111280952D01*
X167102438Y-111280952D02*
X167150057Y-111233333D01*
X167150057Y-111233333D02*
X167245295Y-111185714D01*
X167245295Y-111185714D02*
X167340533Y-111185714D01*
X167340533Y-111185714D02*
X167435771Y-111233333D01*
X167435771Y-111233333D02*
X167483390Y-111280952D01*
X167483390Y-111280952D02*
X167531009Y-111376190D01*
X167531009Y-111376190D02*
X167531009Y-111709523D01*
X167150057Y-110757142D02*
X167102438Y-110709523D01*
X167102438Y-110709523D02*
X167054819Y-110614285D01*
X167054819Y-110614285D02*
X167054819Y-110376190D01*
X167054819Y-110376190D02*
X167102438Y-110280952D01*
X167102438Y-110280952D02*
X167150057Y-110233333D01*
X167150057Y-110233333D02*
X167245295Y-110185714D01*
X167245295Y-110185714D02*
X167340533Y-110185714D01*
X167340533Y-110185714D02*
X167483390Y-110233333D01*
X167483390Y-110233333D02*
X168054819Y-110804761D01*
X168054819Y-110804761D02*
X168054819Y-110185714D01*
X148559642Y-128859580D02*
X148512023Y-128907200D01*
X148512023Y-128907200D02*
X148369166Y-128954819D01*
X148369166Y-128954819D02*
X148273928Y-128954819D01*
X148273928Y-128954819D02*
X148131071Y-128907200D01*
X148131071Y-128907200D02*
X148035833Y-128811961D01*
X148035833Y-128811961D02*
X147988214Y-128716723D01*
X147988214Y-128716723D02*
X147940595Y-128526247D01*
X147940595Y-128526247D02*
X147940595Y-128383390D01*
X147940595Y-128383390D02*
X147988214Y-128192914D01*
X147988214Y-128192914D02*
X148035833Y-128097676D01*
X148035833Y-128097676D02*
X148131071Y-128002438D01*
X148131071Y-128002438D02*
X148273928Y-127954819D01*
X148273928Y-127954819D02*
X148369166Y-127954819D01*
X148369166Y-127954819D02*
X148512023Y-128002438D01*
X148512023Y-128002438D02*
X148559642Y-128050057D01*
X148940595Y-128050057D02*
X148988214Y-128002438D01*
X148988214Y-128002438D02*
X149083452Y-127954819D01*
X149083452Y-127954819D02*
X149321547Y-127954819D01*
X149321547Y-127954819D02*
X149416785Y-128002438D01*
X149416785Y-128002438D02*
X149464404Y-128050057D01*
X149464404Y-128050057D02*
X149512023Y-128145295D01*
X149512023Y-128145295D02*
X149512023Y-128240533D01*
X149512023Y-128240533D02*
X149464404Y-128383390D01*
X149464404Y-128383390D02*
X148892976Y-128954819D01*
X148892976Y-128954819D02*
X149512023Y-128954819D01*
X150131071Y-127954819D02*
X150226309Y-127954819D01*
X150226309Y-127954819D02*
X150321547Y-128002438D01*
X150321547Y-128002438D02*
X150369166Y-128050057D01*
X150369166Y-128050057D02*
X150416785Y-128145295D01*
X150416785Y-128145295D02*
X150464404Y-128335771D01*
X150464404Y-128335771D02*
X150464404Y-128573866D01*
X150464404Y-128573866D02*
X150416785Y-128764342D01*
X150416785Y-128764342D02*
X150369166Y-128859580D01*
X150369166Y-128859580D02*
X150321547Y-128907200D01*
X150321547Y-128907200D02*
X150226309Y-128954819D01*
X150226309Y-128954819D02*
X150131071Y-128954819D01*
X150131071Y-128954819D02*
X150035833Y-128907200D01*
X150035833Y-128907200D02*
X149988214Y-128859580D01*
X149988214Y-128859580D02*
X149940595Y-128764342D01*
X149940595Y-128764342D02*
X149892976Y-128573866D01*
X149892976Y-128573866D02*
X149892976Y-128335771D01*
X149892976Y-128335771D02*
X149940595Y-128145295D01*
X149940595Y-128145295D02*
X149988214Y-128050057D01*
X149988214Y-128050057D02*
X150035833Y-128002438D01*
X150035833Y-128002438D02*
X150131071Y-127954819D01*
X173754819Y-114542857D02*
X173278628Y-114876190D01*
X173754819Y-115114285D02*
X172754819Y-115114285D01*
X172754819Y-115114285D02*
X172754819Y-114733333D01*
X172754819Y-114733333D02*
X172802438Y-114638095D01*
X172802438Y-114638095D02*
X172850057Y-114590476D01*
X172850057Y-114590476D02*
X172945295Y-114542857D01*
X172945295Y-114542857D02*
X173088152Y-114542857D01*
X173088152Y-114542857D02*
X173183390Y-114590476D01*
X173183390Y-114590476D02*
X173231009Y-114638095D01*
X173231009Y-114638095D02*
X173278628Y-114733333D01*
X173278628Y-114733333D02*
X173278628Y-115114285D01*
X173754819Y-113590476D02*
X173754819Y-114161904D01*
X173754819Y-113876190D02*
X172754819Y-113876190D01*
X172754819Y-113876190D02*
X172897676Y-113971428D01*
X172897676Y-113971428D02*
X172992914Y-114066666D01*
X172992914Y-114066666D02*
X173040533Y-114161904D01*
X173754819Y-113114285D02*
X173754819Y-112923809D01*
X173754819Y-112923809D02*
X173707200Y-112828571D01*
X173707200Y-112828571D02*
X173659580Y-112780952D01*
X173659580Y-112780952D02*
X173516723Y-112685714D01*
X173516723Y-112685714D02*
X173326247Y-112638095D01*
X173326247Y-112638095D02*
X172945295Y-112638095D01*
X172945295Y-112638095D02*
X172850057Y-112685714D01*
X172850057Y-112685714D02*
X172802438Y-112733333D01*
X172802438Y-112733333D02*
X172754819Y-112828571D01*
X172754819Y-112828571D02*
X172754819Y-113019047D01*
X172754819Y-113019047D02*
X172802438Y-113114285D01*
X172802438Y-113114285D02*
X172850057Y-113161904D01*
X172850057Y-113161904D02*
X172945295Y-113209523D01*
X172945295Y-113209523D02*
X173183390Y-113209523D01*
X173183390Y-113209523D02*
X173278628Y-113161904D01*
X173278628Y-113161904D02*
X173326247Y-113114285D01*
X173326247Y-113114285D02*
X173373866Y-113019047D01*
X173373866Y-113019047D02*
X173373866Y-112828571D01*
X173373866Y-112828571D02*
X173326247Y-112733333D01*
X173326247Y-112733333D02*
X173278628Y-112685714D01*
X173278628Y-112685714D02*
X173183390Y-112638095D01*
X165204819Y-121288094D02*
X166014342Y-121288094D01*
X166014342Y-121288094D02*
X166109580Y-121240475D01*
X166109580Y-121240475D02*
X166157200Y-121192856D01*
X166157200Y-121192856D02*
X166204819Y-121097618D01*
X166204819Y-121097618D02*
X166204819Y-120907142D01*
X166204819Y-120907142D02*
X166157200Y-120811904D01*
X166157200Y-120811904D02*
X166109580Y-120764285D01*
X166109580Y-120764285D02*
X166014342Y-120716666D01*
X166014342Y-120716666D02*
X165204819Y-120716666D01*
X166204819Y-119716666D02*
X166204819Y-120288094D01*
X166204819Y-120002380D02*
X165204819Y-120002380D01*
X165204819Y-120002380D02*
X165347676Y-120097618D01*
X165347676Y-120097618D02*
X165442914Y-120192856D01*
X165442914Y-120192856D02*
X165490533Y-120288094D01*
X165204819Y-118811904D02*
X165204819Y-119288094D01*
X165204819Y-119288094D02*
X165681009Y-119335713D01*
X165681009Y-119335713D02*
X165633390Y-119288094D01*
X165633390Y-119288094D02*
X165585771Y-119192856D01*
X165585771Y-119192856D02*
X165585771Y-118954761D01*
X165585771Y-118954761D02*
X165633390Y-118859523D01*
X165633390Y-118859523D02*
X165681009Y-118811904D01*
X165681009Y-118811904D02*
X165776247Y-118764285D01*
X165776247Y-118764285D02*
X166014342Y-118764285D01*
X166014342Y-118764285D02*
X166109580Y-118811904D01*
X166109580Y-118811904D02*
X166157200Y-118859523D01*
X166157200Y-118859523D02*
X166204819Y-118954761D01*
X166204819Y-118954761D02*
X166204819Y-119192856D01*
X166204819Y-119192856D02*
X166157200Y-119288094D01*
X166157200Y-119288094D02*
X166109580Y-119335713D01*
X149761905Y-85154819D02*
X149761905Y-84154819D01*
X149761905Y-84154819D02*
X150142857Y-84154819D01*
X150142857Y-84154819D02*
X150238095Y-84202438D01*
X150238095Y-84202438D02*
X150285714Y-84250057D01*
X150285714Y-84250057D02*
X150333333Y-84345295D01*
X150333333Y-84345295D02*
X150333333Y-84488152D01*
X150333333Y-84488152D02*
X150285714Y-84583390D01*
X150285714Y-84583390D02*
X150238095Y-84631009D01*
X150238095Y-84631009D02*
X150142857Y-84678628D01*
X150142857Y-84678628D02*
X149761905Y-84678628D01*
X150761905Y-85154819D02*
X150761905Y-84154819D01*
X150761905Y-84154819D02*
X151000000Y-84154819D01*
X151000000Y-84154819D02*
X151142857Y-84202438D01*
X151142857Y-84202438D02*
X151238095Y-84297676D01*
X151238095Y-84297676D02*
X151285714Y-84392914D01*
X151285714Y-84392914D02*
X151333333Y-84583390D01*
X151333333Y-84583390D02*
X151333333Y-84726247D01*
X151333333Y-84726247D02*
X151285714Y-84916723D01*
X151285714Y-84916723D02*
X151238095Y-85011961D01*
X151238095Y-85011961D02*
X151142857Y-85107200D01*
X151142857Y-85107200D02*
X151000000Y-85154819D01*
X151000000Y-85154819D02*
X150761905Y-85154819D01*
X152285714Y-85154819D02*
X151714286Y-85154819D01*
X152000000Y-85154819D02*
X152000000Y-84154819D01*
X152000000Y-84154819D02*
X151904762Y-84297676D01*
X151904762Y-84297676D02*
X151809524Y-84392914D01*
X151809524Y-84392914D02*
X151714286Y-84440533D01*
X165359580Y-112042857D02*
X165407200Y-112090476D01*
X165407200Y-112090476D02*
X165454819Y-112233333D01*
X165454819Y-112233333D02*
X165454819Y-112328571D01*
X165454819Y-112328571D02*
X165407200Y-112471428D01*
X165407200Y-112471428D02*
X165311961Y-112566666D01*
X165311961Y-112566666D02*
X165216723Y-112614285D01*
X165216723Y-112614285D02*
X165026247Y-112661904D01*
X165026247Y-112661904D02*
X164883390Y-112661904D01*
X164883390Y-112661904D02*
X164692914Y-112614285D01*
X164692914Y-112614285D02*
X164597676Y-112566666D01*
X164597676Y-112566666D02*
X164502438Y-112471428D01*
X164502438Y-112471428D02*
X164454819Y-112328571D01*
X164454819Y-112328571D02*
X164454819Y-112233333D01*
X164454819Y-112233333D02*
X164502438Y-112090476D01*
X164502438Y-112090476D02*
X164550057Y-112042857D01*
X164550057Y-111661904D02*
X164502438Y-111614285D01*
X164502438Y-111614285D02*
X164454819Y-111519047D01*
X164454819Y-111519047D02*
X164454819Y-111280952D01*
X164454819Y-111280952D02*
X164502438Y-111185714D01*
X164502438Y-111185714D02*
X164550057Y-111138095D01*
X164550057Y-111138095D02*
X164645295Y-111090476D01*
X164645295Y-111090476D02*
X164740533Y-111090476D01*
X164740533Y-111090476D02*
X164883390Y-111138095D01*
X164883390Y-111138095D02*
X165454819Y-111709523D01*
X165454819Y-111709523D02*
X165454819Y-111090476D01*
X164454819Y-110757142D02*
X164454819Y-110090476D01*
X164454819Y-110090476D02*
X165454819Y-110519047D01*
X138054819Y-113142857D02*
X137578628Y-113476190D01*
X138054819Y-113714285D02*
X137054819Y-113714285D01*
X137054819Y-113714285D02*
X137054819Y-113333333D01*
X137054819Y-113333333D02*
X137102438Y-113238095D01*
X137102438Y-113238095D02*
X137150057Y-113190476D01*
X137150057Y-113190476D02*
X137245295Y-113142857D01*
X137245295Y-113142857D02*
X137388152Y-113142857D01*
X137388152Y-113142857D02*
X137483390Y-113190476D01*
X137483390Y-113190476D02*
X137531009Y-113238095D01*
X137531009Y-113238095D02*
X137578628Y-113333333D01*
X137578628Y-113333333D02*
X137578628Y-113714285D01*
X138054819Y-112190476D02*
X138054819Y-112761904D01*
X138054819Y-112476190D02*
X137054819Y-112476190D01*
X137054819Y-112476190D02*
X137197676Y-112571428D01*
X137197676Y-112571428D02*
X137292914Y-112666666D01*
X137292914Y-112666666D02*
X137340533Y-112761904D01*
X137054819Y-111333333D02*
X137054819Y-111523809D01*
X137054819Y-111523809D02*
X137102438Y-111619047D01*
X137102438Y-111619047D02*
X137150057Y-111666666D01*
X137150057Y-111666666D02*
X137292914Y-111761904D01*
X137292914Y-111761904D02*
X137483390Y-111809523D01*
X137483390Y-111809523D02*
X137864342Y-111809523D01*
X137864342Y-111809523D02*
X137959580Y-111761904D01*
X137959580Y-111761904D02*
X138007200Y-111714285D01*
X138007200Y-111714285D02*
X138054819Y-111619047D01*
X138054819Y-111619047D02*
X138054819Y-111428571D01*
X138054819Y-111428571D02*
X138007200Y-111333333D01*
X138007200Y-111333333D02*
X137959580Y-111285714D01*
X137959580Y-111285714D02*
X137864342Y-111238095D01*
X137864342Y-111238095D02*
X137626247Y-111238095D01*
X137626247Y-111238095D02*
X137531009Y-111285714D01*
X137531009Y-111285714D02*
X137483390Y-111333333D01*
X137483390Y-111333333D02*
X137435771Y-111428571D01*
X137435771Y-111428571D02*
X137435771Y-111619047D01*
X137435771Y-111619047D02*
X137483390Y-111714285D01*
X137483390Y-111714285D02*
X137531009Y-111761904D01*
X137531009Y-111761904D02*
X137626247Y-111809523D01*
X158459580Y-111542857D02*
X158507200Y-111590476D01*
X158507200Y-111590476D02*
X158554819Y-111733333D01*
X158554819Y-111733333D02*
X158554819Y-111828571D01*
X158554819Y-111828571D02*
X158507200Y-111971428D01*
X158507200Y-111971428D02*
X158411961Y-112066666D01*
X158411961Y-112066666D02*
X158316723Y-112114285D01*
X158316723Y-112114285D02*
X158126247Y-112161904D01*
X158126247Y-112161904D02*
X157983390Y-112161904D01*
X157983390Y-112161904D02*
X157792914Y-112114285D01*
X157792914Y-112114285D02*
X157697676Y-112066666D01*
X157697676Y-112066666D02*
X157602438Y-111971428D01*
X157602438Y-111971428D02*
X157554819Y-111828571D01*
X157554819Y-111828571D02*
X157554819Y-111733333D01*
X157554819Y-111733333D02*
X157602438Y-111590476D01*
X157602438Y-111590476D02*
X157650057Y-111542857D01*
X157650057Y-111161904D02*
X157602438Y-111114285D01*
X157602438Y-111114285D02*
X157554819Y-111019047D01*
X157554819Y-111019047D02*
X157554819Y-110780952D01*
X157554819Y-110780952D02*
X157602438Y-110685714D01*
X157602438Y-110685714D02*
X157650057Y-110638095D01*
X157650057Y-110638095D02*
X157745295Y-110590476D01*
X157745295Y-110590476D02*
X157840533Y-110590476D01*
X157840533Y-110590476D02*
X157983390Y-110638095D01*
X157983390Y-110638095D02*
X158554819Y-111209523D01*
X158554819Y-111209523D02*
X158554819Y-110590476D01*
X157554819Y-110257142D02*
X157554819Y-109638095D01*
X157554819Y-109638095D02*
X157935771Y-109971428D01*
X157935771Y-109971428D02*
X157935771Y-109828571D01*
X157935771Y-109828571D02*
X157983390Y-109733333D01*
X157983390Y-109733333D02*
X158031009Y-109685714D01*
X158031009Y-109685714D02*
X158126247Y-109638095D01*
X158126247Y-109638095D02*
X158364342Y-109638095D01*
X158364342Y-109638095D02*
X158459580Y-109685714D01*
X158459580Y-109685714D02*
X158507200Y-109733333D01*
X158507200Y-109733333D02*
X158554819Y-109828571D01*
X158554819Y-109828571D02*
X158554819Y-110114285D01*
X158554819Y-110114285D02*
X158507200Y-110209523D01*
X158507200Y-110209523D02*
X158459580Y-110257142D01*
X144859580Y-111442857D02*
X144907200Y-111490476D01*
X144907200Y-111490476D02*
X144954819Y-111633333D01*
X144954819Y-111633333D02*
X144954819Y-111728571D01*
X144954819Y-111728571D02*
X144907200Y-111871428D01*
X144907200Y-111871428D02*
X144811961Y-111966666D01*
X144811961Y-111966666D02*
X144716723Y-112014285D01*
X144716723Y-112014285D02*
X144526247Y-112061904D01*
X144526247Y-112061904D02*
X144383390Y-112061904D01*
X144383390Y-112061904D02*
X144192914Y-112014285D01*
X144192914Y-112014285D02*
X144097676Y-111966666D01*
X144097676Y-111966666D02*
X144002438Y-111871428D01*
X144002438Y-111871428D02*
X143954819Y-111728571D01*
X143954819Y-111728571D02*
X143954819Y-111633333D01*
X143954819Y-111633333D02*
X144002438Y-111490476D01*
X144002438Y-111490476D02*
X144050057Y-111442857D01*
X144050057Y-111061904D02*
X144002438Y-111014285D01*
X144002438Y-111014285D02*
X143954819Y-110919047D01*
X143954819Y-110919047D02*
X143954819Y-110680952D01*
X143954819Y-110680952D02*
X144002438Y-110585714D01*
X144002438Y-110585714D02*
X144050057Y-110538095D01*
X144050057Y-110538095D02*
X144145295Y-110490476D01*
X144145295Y-110490476D02*
X144240533Y-110490476D01*
X144240533Y-110490476D02*
X144383390Y-110538095D01*
X144383390Y-110538095D02*
X144954819Y-111109523D01*
X144954819Y-111109523D02*
X144954819Y-110490476D01*
X143954819Y-109633333D02*
X143954819Y-109823809D01*
X143954819Y-109823809D02*
X144002438Y-109919047D01*
X144002438Y-109919047D02*
X144050057Y-109966666D01*
X144050057Y-109966666D02*
X144192914Y-110061904D01*
X144192914Y-110061904D02*
X144383390Y-110109523D01*
X144383390Y-110109523D02*
X144764342Y-110109523D01*
X144764342Y-110109523D02*
X144859580Y-110061904D01*
X144859580Y-110061904D02*
X144907200Y-110014285D01*
X144907200Y-110014285D02*
X144954819Y-109919047D01*
X144954819Y-109919047D02*
X144954819Y-109728571D01*
X144954819Y-109728571D02*
X144907200Y-109633333D01*
X144907200Y-109633333D02*
X144859580Y-109585714D01*
X144859580Y-109585714D02*
X144764342Y-109538095D01*
X144764342Y-109538095D02*
X144526247Y-109538095D01*
X144526247Y-109538095D02*
X144431009Y-109585714D01*
X144431009Y-109585714D02*
X144383390Y-109633333D01*
X144383390Y-109633333D02*
X144335771Y-109728571D01*
X144335771Y-109728571D02*
X144335771Y-109919047D01*
X144335771Y-109919047D02*
X144383390Y-110014285D01*
X144383390Y-110014285D02*
X144431009Y-110061904D01*
X144431009Y-110061904D02*
X144526247Y-110109523D01*
X165359580Y-104042857D02*
X165407200Y-104090476D01*
X165407200Y-104090476D02*
X165454819Y-104233333D01*
X165454819Y-104233333D02*
X165454819Y-104328571D01*
X165454819Y-104328571D02*
X165407200Y-104471428D01*
X165407200Y-104471428D02*
X165311961Y-104566666D01*
X165311961Y-104566666D02*
X165216723Y-104614285D01*
X165216723Y-104614285D02*
X165026247Y-104661904D01*
X165026247Y-104661904D02*
X164883390Y-104661904D01*
X164883390Y-104661904D02*
X164692914Y-104614285D01*
X164692914Y-104614285D02*
X164597676Y-104566666D01*
X164597676Y-104566666D02*
X164502438Y-104471428D01*
X164502438Y-104471428D02*
X164454819Y-104328571D01*
X164454819Y-104328571D02*
X164454819Y-104233333D01*
X164454819Y-104233333D02*
X164502438Y-104090476D01*
X164502438Y-104090476D02*
X164550057Y-104042857D01*
X164550057Y-103661904D02*
X164502438Y-103614285D01*
X164502438Y-103614285D02*
X164454819Y-103519047D01*
X164454819Y-103519047D02*
X164454819Y-103280952D01*
X164454819Y-103280952D02*
X164502438Y-103185714D01*
X164502438Y-103185714D02*
X164550057Y-103138095D01*
X164550057Y-103138095D02*
X164645295Y-103090476D01*
X164645295Y-103090476D02*
X164740533Y-103090476D01*
X164740533Y-103090476D02*
X164883390Y-103138095D01*
X164883390Y-103138095D02*
X165454819Y-103709523D01*
X165454819Y-103709523D02*
X165454819Y-103090476D01*
X164788152Y-102233333D02*
X165454819Y-102233333D01*
X164407200Y-102471428D02*
X165121485Y-102709523D01*
X165121485Y-102709523D02*
X165121485Y-102090476D01*
X133638095Y-83054819D02*
X134209523Y-83054819D01*
X133923809Y-84054819D02*
X133923809Y-83054819D01*
X134542857Y-84054819D02*
X134542857Y-83054819D01*
X134542857Y-83054819D02*
X134923809Y-83054819D01*
X134923809Y-83054819D02*
X135019047Y-83102438D01*
X135019047Y-83102438D02*
X135066666Y-83150057D01*
X135066666Y-83150057D02*
X135114285Y-83245295D01*
X135114285Y-83245295D02*
X135114285Y-83388152D01*
X135114285Y-83388152D02*
X135066666Y-83483390D01*
X135066666Y-83483390D02*
X135019047Y-83531009D01*
X135019047Y-83531009D02*
X134923809Y-83578628D01*
X134923809Y-83578628D02*
X134542857Y-83578628D01*
X135495238Y-83150057D02*
X135542857Y-83102438D01*
X135542857Y-83102438D02*
X135638095Y-83054819D01*
X135638095Y-83054819D02*
X135876190Y-83054819D01*
X135876190Y-83054819D02*
X135971428Y-83102438D01*
X135971428Y-83102438D02*
X136019047Y-83150057D01*
X136019047Y-83150057D02*
X136066666Y-83245295D01*
X136066666Y-83245295D02*
X136066666Y-83340533D01*
X136066666Y-83340533D02*
X136019047Y-83483390D01*
X136019047Y-83483390D02*
X135447619Y-84054819D01*
X135447619Y-84054819D02*
X136066666Y-84054819D01*
X161766666Y-125504819D02*
X161766666Y-126219104D01*
X161766666Y-126219104D02*
X161719047Y-126361961D01*
X161719047Y-126361961D02*
X161623809Y-126457200D01*
X161623809Y-126457200D02*
X161480952Y-126504819D01*
X161480952Y-126504819D02*
X161385714Y-126504819D01*
X162147619Y-125504819D02*
X162766666Y-125504819D01*
X162766666Y-125504819D02*
X162433333Y-125885771D01*
X162433333Y-125885771D02*
X162576190Y-125885771D01*
X162576190Y-125885771D02*
X162671428Y-125933390D01*
X162671428Y-125933390D02*
X162719047Y-125981009D01*
X162719047Y-125981009D02*
X162766666Y-126076247D01*
X162766666Y-126076247D02*
X162766666Y-126314342D01*
X162766666Y-126314342D02*
X162719047Y-126409580D01*
X162719047Y-126409580D02*
X162671428Y-126457200D01*
X162671428Y-126457200D02*
X162576190Y-126504819D01*
X162576190Y-126504819D02*
X162290476Y-126504819D01*
X162290476Y-126504819D02*
X162195238Y-126457200D01*
X162195238Y-126457200D02*
X162147619Y-126409580D01*
X133066666Y-118254819D02*
X133066666Y-118969104D01*
X133066666Y-118969104D02*
X133019047Y-119111961D01*
X133019047Y-119111961D02*
X132923809Y-119207200D01*
X132923809Y-119207200D02*
X132780952Y-119254819D01*
X132780952Y-119254819D02*
X132685714Y-119254819D01*
X134066666Y-119254819D02*
X133495238Y-119254819D01*
X133780952Y-119254819D02*
X133780952Y-118254819D01*
X133780952Y-118254819D02*
X133685714Y-118397676D01*
X133685714Y-118397676D02*
X133590476Y-118492914D01*
X133590476Y-118492914D02*
X133495238Y-118540533D01*
X150761905Y-106854819D02*
X150761905Y-107664342D01*
X150761905Y-107664342D02*
X150809524Y-107759580D01*
X150809524Y-107759580D02*
X150857143Y-107807200D01*
X150857143Y-107807200D02*
X150952381Y-107854819D01*
X150952381Y-107854819D02*
X151142857Y-107854819D01*
X151142857Y-107854819D02*
X151238095Y-107807200D01*
X151238095Y-107807200D02*
X151285714Y-107759580D01*
X151285714Y-107759580D02*
X151333333Y-107664342D01*
X151333333Y-107664342D02*
X151333333Y-106854819D01*
X152333333Y-107854819D02*
X151761905Y-107854819D01*
X152047619Y-107854819D02*
X152047619Y-106854819D01*
X152047619Y-106854819D02*
X151952381Y-106997676D01*
X151952381Y-106997676D02*
X151857143Y-107092914D01*
X151857143Y-107092914D02*
X151761905Y-107140533D01*
X152666667Y-106854819D02*
X153285714Y-106854819D01*
X153285714Y-106854819D02*
X152952381Y-107235771D01*
X152952381Y-107235771D02*
X153095238Y-107235771D01*
X153095238Y-107235771D02*
X153190476Y-107283390D01*
X153190476Y-107283390D02*
X153238095Y-107331009D01*
X153238095Y-107331009D02*
X153285714Y-107426247D01*
X153285714Y-107426247D02*
X153285714Y-107664342D01*
X153285714Y-107664342D02*
X153238095Y-107759580D01*
X153238095Y-107759580D02*
X153190476Y-107807200D01*
X153190476Y-107807200D02*
X153095238Y-107854819D01*
X153095238Y-107854819D02*
X152809524Y-107854819D01*
X152809524Y-107854819D02*
X152714286Y-107807200D01*
X152714286Y-107807200D02*
X152666667Y-107759580D01*
X159559580Y-115342857D02*
X159607200Y-115390476D01*
X159607200Y-115390476D02*
X159654819Y-115533333D01*
X159654819Y-115533333D02*
X159654819Y-115628571D01*
X159654819Y-115628571D02*
X159607200Y-115771428D01*
X159607200Y-115771428D02*
X159511961Y-115866666D01*
X159511961Y-115866666D02*
X159416723Y-115914285D01*
X159416723Y-115914285D02*
X159226247Y-115961904D01*
X159226247Y-115961904D02*
X159083390Y-115961904D01*
X159083390Y-115961904D02*
X158892914Y-115914285D01*
X158892914Y-115914285D02*
X158797676Y-115866666D01*
X158797676Y-115866666D02*
X158702438Y-115771428D01*
X158702438Y-115771428D02*
X158654819Y-115628571D01*
X158654819Y-115628571D02*
X158654819Y-115533333D01*
X158654819Y-115533333D02*
X158702438Y-115390476D01*
X158702438Y-115390476D02*
X158750057Y-115342857D01*
X158750057Y-114961904D02*
X158702438Y-114914285D01*
X158702438Y-114914285D02*
X158654819Y-114819047D01*
X158654819Y-114819047D02*
X158654819Y-114580952D01*
X158654819Y-114580952D02*
X158702438Y-114485714D01*
X158702438Y-114485714D02*
X158750057Y-114438095D01*
X158750057Y-114438095D02*
X158845295Y-114390476D01*
X158845295Y-114390476D02*
X158940533Y-114390476D01*
X158940533Y-114390476D02*
X159083390Y-114438095D01*
X159083390Y-114438095D02*
X159654819Y-115009523D01*
X159654819Y-115009523D02*
X159654819Y-114390476D01*
X159083390Y-113819047D02*
X159035771Y-113914285D01*
X159035771Y-113914285D02*
X158988152Y-113961904D01*
X158988152Y-113961904D02*
X158892914Y-114009523D01*
X158892914Y-114009523D02*
X158845295Y-114009523D01*
X158845295Y-114009523D02*
X158750057Y-113961904D01*
X158750057Y-113961904D02*
X158702438Y-113914285D01*
X158702438Y-113914285D02*
X158654819Y-113819047D01*
X158654819Y-113819047D02*
X158654819Y-113628571D01*
X158654819Y-113628571D02*
X158702438Y-113533333D01*
X158702438Y-113533333D02*
X158750057Y-113485714D01*
X158750057Y-113485714D02*
X158845295Y-113438095D01*
X158845295Y-113438095D02*
X158892914Y-113438095D01*
X158892914Y-113438095D02*
X158988152Y-113485714D01*
X158988152Y-113485714D02*
X159035771Y-113533333D01*
X159035771Y-113533333D02*
X159083390Y-113628571D01*
X159083390Y-113628571D02*
X159083390Y-113819047D01*
X159083390Y-113819047D02*
X159131009Y-113914285D01*
X159131009Y-113914285D02*
X159178628Y-113961904D01*
X159178628Y-113961904D02*
X159273866Y-114009523D01*
X159273866Y-114009523D02*
X159464342Y-114009523D01*
X159464342Y-114009523D02*
X159559580Y-113961904D01*
X159559580Y-113961904D02*
X159607200Y-113914285D01*
X159607200Y-113914285D02*
X159654819Y-113819047D01*
X159654819Y-113819047D02*
X159654819Y-113628571D01*
X159654819Y-113628571D02*
X159607200Y-113533333D01*
X159607200Y-113533333D02*
X159559580Y-113485714D01*
X159559580Y-113485714D02*
X159464342Y-113438095D01*
X159464342Y-113438095D02*
X159273866Y-113438095D01*
X159273866Y-113438095D02*
X159178628Y-113485714D01*
X159178628Y-113485714D02*
X159131009Y-113533333D01*
X159131009Y-113533333D02*
X159083390Y-113628571D01*
X150649580Y-123572857D02*
X150697200Y-123620476D01*
X150697200Y-123620476D02*
X150744819Y-123763333D01*
X150744819Y-123763333D02*
X150744819Y-123858571D01*
X150744819Y-123858571D02*
X150697200Y-124001428D01*
X150697200Y-124001428D02*
X150601961Y-124096666D01*
X150601961Y-124096666D02*
X150506723Y-124144285D01*
X150506723Y-124144285D02*
X150316247Y-124191904D01*
X150316247Y-124191904D02*
X150173390Y-124191904D01*
X150173390Y-124191904D02*
X149982914Y-124144285D01*
X149982914Y-124144285D02*
X149887676Y-124096666D01*
X149887676Y-124096666D02*
X149792438Y-124001428D01*
X149792438Y-124001428D02*
X149744819Y-123858571D01*
X149744819Y-123858571D02*
X149744819Y-123763333D01*
X149744819Y-123763333D02*
X149792438Y-123620476D01*
X149792438Y-123620476D02*
X149840057Y-123572857D01*
X150744819Y-122620476D02*
X150744819Y-123191904D01*
X150744819Y-122906190D02*
X149744819Y-122906190D01*
X149744819Y-122906190D02*
X149887676Y-123001428D01*
X149887676Y-123001428D02*
X149982914Y-123096666D01*
X149982914Y-123096666D02*
X150030533Y-123191904D01*
X150744819Y-122144285D02*
X150744819Y-121953809D01*
X150744819Y-121953809D02*
X150697200Y-121858571D01*
X150697200Y-121858571D02*
X150649580Y-121810952D01*
X150649580Y-121810952D02*
X150506723Y-121715714D01*
X150506723Y-121715714D02*
X150316247Y-121668095D01*
X150316247Y-121668095D02*
X149935295Y-121668095D01*
X149935295Y-121668095D02*
X149840057Y-121715714D01*
X149840057Y-121715714D02*
X149792438Y-121763333D01*
X149792438Y-121763333D02*
X149744819Y-121858571D01*
X149744819Y-121858571D02*
X149744819Y-122049047D01*
X149744819Y-122049047D02*
X149792438Y-122144285D01*
X149792438Y-122144285D02*
X149840057Y-122191904D01*
X149840057Y-122191904D02*
X149935295Y-122239523D01*
X149935295Y-122239523D02*
X150173390Y-122239523D01*
X150173390Y-122239523D02*
X150268628Y-122191904D01*
X150268628Y-122191904D02*
X150316247Y-122144285D01*
X150316247Y-122144285D02*
X150363866Y-122049047D01*
X150363866Y-122049047D02*
X150363866Y-121858571D01*
X150363866Y-121858571D02*
X150316247Y-121763333D01*
X150316247Y-121763333D02*
X150268628Y-121715714D01*
X150268628Y-121715714D02*
X150173390Y-121668095D01*
X134657142Y-113659580D02*
X134609523Y-113707200D01*
X134609523Y-113707200D02*
X134466666Y-113754819D01*
X134466666Y-113754819D02*
X134371428Y-113754819D01*
X134371428Y-113754819D02*
X134228571Y-113707200D01*
X134228571Y-113707200D02*
X134133333Y-113611961D01*
X134133333Y-113611961D02*
X134085714Y-113516723D01*
X134085714Y-113516723D02*
X134038095Y-113326247D01*
X134038095Y-113326247D02*
X134038095Y-113183390D01*
X134038095Y-113183390D02*
X134085714Y-112992914D01*
X134085714Y-112992914D02*
X134133333Y-112897676D01*
X134133333Y-112897676D02*
X134228571Y-112802438D01*
X134228571Y-112802438D02*
X134371428Y-112754819D01*
X134371428Y-112754819D02*
X134466666Y-112754819D01*
X134466666Y-112754819D02*
X134609523Y-112802438D01*
X134609523Y-112802438D02*
X134657142Y-112850057D01*
X135609523Y-113754819D02*
X135038095Y-113754819D01*
X135323809Y-113754819D02*
X135323809Y-112754819D01*
X135323809Y-112754819D02*
X135228571Y-112897676D01*
X135228571Y-112897676D02*
X135133333Y-112992914D01*
X135133333Y-112992914D02*
X135038095Y-113040533D01*
X135942857Y-112754819D02*
X136609523Y-112754819D01*
X136609523Y-112754819D02*
X136180952Y-113754819D01*
X172038095Y-116054819D02*
X172609523Y-116054819D01*
X172323809Y-117054819D02*
X172323809Y-116054819D01*
X172942857Y-117054819D02*
X172942857Y-116054819D01*
X172942857Y-116054819D02*
X173323809Y-116054819D01*
X173323809Y-116054819D02*
X173419047Y-116102438D01*
X173419047Y-116102438D02*
X173466666Y-116150057D01*
X173466666Y-116150057D02*
X173514285Y-116245295D01*
X173514285Y-116245295D02*
X173514285Y-116388152D01*
X173514285Y-116388152D02*
X173466666Y-116483390D01*
X173466666Y-116483390D02*
X173419047Y-116531009D01*
X173419047Y-116531009D02*
X173323809Y-116578628D01*
X173323809Y-116578628D02*
X172942857Y-116578628D01*
X174371428Y-116054819D02*
X174180952Y-116054819D01*
X174180952Y-116054819D02*
X174085714Y-116102438D01*
X174085714Y-116102438D02*
X174038095Y-116150057D01*
X174038095Y-116150057D02*
X173942857Y-116292914D01*
X173942857Y-116292914D02*
X173895238Y-116483390D01*
X173895238Y-116483390D02*
X173895238Y-116864342D01*
X173895238Y-116864342D02*
X173942857Y-116959580D01*
X173942857Y-116959580D02*
X173990476Y-117007200D01*
X173990476Y-117007200D02*
X174085714Y-117054819D01*
X174085714Y-117054819D02*
X174276190Y-117054819D01*
X174276190Y-117054819D02*
X174371428Y-117007200D01*
X174371428Y-117007200D02*
X174419047Y-116959580D01*
X174419047Y-116959580D02*
X174466666Y-116864342D01*
X174466666Y-116864342D02*
X174466666Y-116626247D01*
X174466666Y-116626247D02*
X174419047Y-116531009D01*
X174419047Y-116531009D02*
X174371428Y-116483390D01*
X174371428Y-116483390D02*
X174276190Y-116435771D01*
X174276190Y-116435771D02*
X174085714Y-116435771D01*
X174085714Y-116435771D02*
X173990476Y-116483390D01*
X173990476Y-116483390D02*
X173942857Y-116531009D01*
X173942857Y-116531009D02*
X173895238Y-116626247D01*
X159559580Y-119142857D02*
X159607200Y-119190476D01*
X159607200Y-119190476D02*
X159654819Y-119333333D01*
X159654819Y-119333333D02*
X159654819Y-119428571D01*
X159654819Y-119428571D02*
X159607200Y-119571428D01*
X159607200Y-119571428D02*
X159511961Y-119666666D01*
X159511961Y-119666666D02*
X159416723Y-119714285D01*
X159416723Y-119714285D02*
X159226247Y-119761904D01*
X159226247Y-119761904D02*
X159083390Y-119761904D01*
X159083390Y-119761904D02*
X158892914Y-119714285D01*
X158892914Y-119714285D02*
X158797676Y-119666666D01*
X158797676Y-119666666D02*
X158702438Y-119571428D01*
X158702438Y-119571428D02*
X158654819Y-119428571D01*
X158654819Y-119428571D02*
X158654819Y-119333333D01*
X158654819Y-119333333D02*
X158702438Y-119190476D01*
X158702438Y-119190476D02*
X158750057Y-119142857D01*
X158654819Y-118809523D02*
X158654819Y-118190476D01*
X158654819Y-118190476D02*
X159035771Y-118523809D01*
X159035771Y-118523809D02*
X159035771Y-118380952D01*
X159035771Y-118380952D02*
X159083390Y-118285714D01*
X159083390Y-118285714D02*
X159131009Y-118238095D01*
X159131009Y-118238095D02*
X159226247Y-118190476D01*
X159226247Y-118190476D02*
X159464342Y-118190476D01*
X159464342Y-118190476D02*
X159559580Y-118238095D01*
X159559580Y-118238095D02*
X159607200Y-118285714D01*
X159607200Y-118285714D02*
X159654819Y-118380952D01*
X159654819Y-118380952D02*
X159654819Y-118666666D01*
X159654819Y-118666666D02*
X159607200Y-118761904D01*
X159607200Y-118761904D02*
X159559580Y-118809523D01*
X159654819Y-117238095D02*
X159654819Y-117809523D01*
X159654819Y-117523809D02*
X158654819Y-117523809D01*
X158654819Y-117523809D02*
X158797676Y-117619047D01*
X158797676Y-117619047D02*
X158892914Y-117714285D01*
X158892914Y-117714285D02*
X158940533Y-117809523D01*
X131566666Y-74754819D02*
X131566666Y-75469104D01*
X131566666Y-75469104D02*
X131519047Y-75611961D01*
X131519047Y-75611961D02*
X131423809Y-75707200D01*
X131423809Y-75707200D02*
X131280952Y-75754819D01*
X131280952Y-75754819D02*
X131185714Y-75754819D01*
X132471428Y-75088152D02*
X132471428Y-75754819D01*
X132233333Y-74707200D02*
X131995238Y-75421485D01*
X131995238Y-75421485D02*
X132614285Y-75421485D01*
X166754819Y-112042857D02*
X166278628Y-112376190D01*
X166754819Y-112614285D02*
X165754819Y-112614285D01*
X165754819Y-112614285D02*
X165754819Y-112233333D01*
X165754819Y-112233333D02*
X165802438Y-112138095D01*
X165802438Y-112138095D02*
X165850057Y-112090476D01*
X165850057Y-112090476D02*
X165945295Y-112042857D01*
X165945295Y-112042857D02*
X166088152Y-112042857D01*
X166088152Y-112042857D02*
X166183390Y-112090476D01*
X166183390Y-112090476D02*
X166231009Y-112138095D01*
X166231009Y-112138095D02*
X166278628Y-112233333D01*
X166278628Y-112233333D02*
X166278628Y-112614285D01*
X165850057Y-111661904D02*
X165802438Y-111614285D01*
X165802438Y-111614285D02*
X165754819Y-111519047D01*
X165754819Y-111519047D02*
X165754819Y-111280952D01*
X165754819Y-111280952D02*
X165802438Y-111185714D01*
X165802438Y-111185714D02*
X165850057Y-111138095D01*
X165850057Y-111138095D02*
X165945295Y-111090476D01*
X165945295Y-111090476D02*
X166040533Y-111090476D01*
X166040533Y-111090476D02*
X166183390Y-111138095D01*
X166183390Y-111138095D02*
X166754819Y-111709523D01*
X166754819Y-111709523D02*
X166754819Y-111090476D01*
X165754819Y-110757142D02*
X165754819Y-110138095D01*
X165754819Y-110138095D02*
X166135771Y-110471428D01*
X166135771Y-110471428D02*
X166135771Y-110328571D01*
X166135771Y-110328571D02*
X166183390Y-110233333D01*
X166183390Y-110233333D02*
X166231009Y-110185714D01*
X166231009Y-110185714D02*
X166326247Y-110138095D01*
X166326247Y-110138095D02*
X166564342Y-110138095D01*
X166564342Y-110138095D02*
X166659580Y-110185714D01*
X166659580Y-110185714D02*
X166707200Y-110233333D01*
X166707200Y-110233333D02*
X166754819Y-110328571D01*
X166754819Y-110328571D02*
X166754819Y-110614285D01*
X166754819Y-110614285D02*
X166707200Y-110709523D01*
X166707200Y-110709523D02*
X166659580Y-110757142D01*
X147654819Y-92561904D02*
X148464342Y-92561904D01*
X148464342Y-92561904D02*
X148559580Y-92514285D01*
X148559580Y-92514285D02*
X148607200Y-92466666D01*
X148607200Y-92466666D02*
X148654819Y-92371428D01*
X148654819Y-92371428D02*
X148654819Y-92180952D01*
X148654819Y-92180952D02*
X148607200Y-92085714D01*
X148607200Y-92085714D02*
X148559580Y-92038095D01*
X148559580Y-92038095D02*
X148464342Y-91990476D01*
X148464342Y-91990476D02*
X147654819Y-91990476D01*
X148654819Y-91466666D02*
X148654819Y-91276190D01*
X148654819Y-91276190D02*
X148607200Y-91180952D01*
X148607200Y-91180952D02*
X148559580Y-91133333D01*
X148559580Y-91133333D02*
X148416723Y-91038095D01*
X148416723Y-91038095D02*
X148226247Y-90990476D01*
X148226247Y-90990476D02*
X147845295Y-90990476D01*
X147845295Y-90990476D02*
X147750057Y-91038095D01*
X147750057Y-91038095D02*
X147702438Y-91085714D01*
X147702438Y-91085714D02*
X147654819Y-91180952D01*
X147654819Y-91180952D02*
X147654819Y-91371428D01*
X147654819Y-91371428D02*
X147702438Y-91466666D01*
X147702438Y-91466666D02*
X147750057Y-91514285D01*
X147750057Y-91514285D02*
X147845295Y-91561904D01*
X147845295Y-91561904D02*
X148083390Y-91561904D01*
X148083390Y-91561904D02*
X148178628Y-91514285D01*
X148178628Y-91514285D02*
X148226247Y-91466666D01*
X148226247Y-91466666D02*
X148273866Y-91371428D01*
X148273866Y-91371428D02*
X148273866Y-91180952D01*
X148273866Y-91180952D02*
X148226247Y-91085714D01*
X148226247Y-91085714D02*
X148178628Y-91038095D01*
X148178628Y-91038095D02*
X148083390Y-90990476D01*
X161759580Y-103642857D02*
X161807200Y-103690476D01*
X161807200Y-103690476D02*
X161854819Y-103833333D01*
X161854819Y-103833333D02*
X161854819Y-103928571D01*
X161854819Y-103928571D02*
X161807200Y-104071428D01*
X161807200Y-104071428D02*
X161711961Y-104166666D01*
X161711961Y-104166666D02*
X161616723Y-104214285D01*
X161616723Y-104214285D02*
X161426247Y-104261904D01*
X161426247Y-104261904D02*
X161283390Y-104261904D01*
X161283390Y-104261904D02*
X161092914Y-104214285D01*
X161092914Y-104214285D02*
X160997676Y-104166666D01*
X160997676Y-104166666D02*
X160902438Y-104071428D01*
X160902438Y-104071428D02*
X160854819Y-103928571D01*
X160854819Y-103928571D02*
X160854819Y-103833333D01*
X160854819Y-103833333D02*
X160902438Y-103690476D01*
X160902438Y-103690476D02*
X160950057Y-103642857D01*
X160854819Y-103309523D02*
X160854819Y-102690476D01*
X160854819Y-102690476D02*
X161235771Y-103023809D01*
X161235771Y-103023809D02*
X161235771Y-102880952D01*
X161235771Y-102880952D02*
X161283390Y-102785714D01*
X161283390Y-102785714D02*
X161331009Y-102738095D01*
X161331009Y-102738095D02*
X161426247Y-102690476D01*
X161426247Y-102690476D02*
X161664342Y-102690476D01*
X161664342Y-102690476D02*
X161759580Y-102738095D01*
X161759580Y-102738095D02*
X161807200Y-102785714D01*
X161807200Y-102785714D02*
X161854819Y-102880952D01*
X161854819Y-102880952D02*
X161854819Y-103166666D01*
X161854819Y-103166666D02*
X161807200Y-103261904D01*
X161807200Y-103261904D02*
X161759580Y-103309523D01*
X160854819Y-102071428D02*
X160854819Y-101976190D01*
X160854819Y-101976190D02*
X160902438Y-101880952D01*
X160902438Y-101880952D02*
X160950057Y-101833333D01*
X160950057Y-101833333D02*
X161045295Y-101785714D01*
X161045295Y-101785714D02*
X161235771Y-101738095D01*
X161235771Y-101738095D02*
X161473866Y-101738095D01*
X161473866Y-101738095D02*
X161664342Y-101785714D01*
X161664342Y-101785714D02*
X161759580Y-101833333D01*
X161759580Y-101833333D02*
X161807200Y-101880952D01*
X161807200Y-101880952D02*
X161854819Y-101976190D01*
X161854819Y-101976190D02*
X161854819Y-102071428D01*
X161854819Y-102071428D02*
X161807200Y-102166666D01*
X161807200Y-102166666D02*
X161759580Y-102214285D01*
X161759580Y-102214285D02*
X161664342Y-102261904D01*
X161664342Y-102261904D02*
X161473866Y-102309523D01*
X161473866Y-102309523D02*
X161235771Y-102309523D01*
X161235771Y-102309523D02*
X161045295Y-102261904D01*
X161045295Y-102261904D02*
X160950057Y-102214285D01*
X160950057Y-102214285D02*
X160902438Y-102166666D01*
X160902438Y-102166666D02*
X160854819Y-102071428D01*
D11*
%TO.C,C18*%
X134938748Y-108165000D02*
X135461252Y-108165000D01*
X134938748Y-109635000D02*
X135461252Y-109635000D01*
%TO.C,TP5*%
X174400000Y-123400000D02*
G75*
G03*
X173000000Y-123400000I-700000J0D01*
G01*
X173000000Y-123400000D02*
G75*
G03*
X174400000Y-123400000I700000J0D01*
G01*
%TO.C,C1*%
X169065000Y-124861252D02*
X169065000Y-124338748D01*
X170535000Y-124861252D02*
X170535000Y-124338748D01*
%TO.C,R1*%
X172580000Y-120656359D02*
X172580000Y-120963641D01*
X171820000Y-120656359D02*
X171820000Y-120963641D01*
%TO.C,U10*%
X169940000Y-110400000D02*
X169940000Y-111800000D01*
X172260000Y-111800000D02*
X172260000Y-109900000D01*
%TO.C,U14*%
X158190000Y-105012500D02*
X158190000Y-107012500D01*
X160410000Y-106012500D02*
X160410000Y-107012500D01*
%TO.C,R18*%
X168420000Y-111253641D02*
X168420000Y-110946359D01*
X169180000Y-111253641D02*
X169180000Y-110946359D01*
%TO.C,TP1*%
X137500000Y-86200000D02*
G75*
G03*
X136100000Y-86200000I-700000J0D01*
G01*
X136100000Y-86200000D02*
G75*
G03*
X137500000Y-86200000I700000J0D01*
G01*
%TO.C,U11*%
X165790000Y-105012500D02*
X165790000Y-107012500D01*
X168010000Y-106012500D02*
X168010000Y-107012500D01*
%TO.C,R22*%
X162246359Y-108720000D02*
X162553641Y-108720000D01*
X162246359Y-109480000D02*
X162553641Y-109480000D01*
%TO.C,C29*%
X157040000Y-106120336D02*
X157040000Y-105904664D01*
X157760000Y-106120336D02*
X157760000Y-105904664D01*
%TO.C,U8*%
X154560000Y-126860000D02*
X154085000Y-126860000D01*
X151840000Y-126635000D02*
X151840000Y-126860000D01*
X154560000Y-126635000D02*
X154560000Y-126860000D01*
X151840000Y-124365000D02*
X151840000Y-124140000D01*
X154560000Y-124365000D02*
X154560000Y-124140000D01*
X151840000Y-124140000D02*
X152315000Y-124140000D01*
X154560000Y-124140000D02*
X154085000Y-124140000D01*
D12*
%TO.C,J2*%
X165107500Y-74112500D02*
X165107500Y-71602500D01*
X168917500Y-71602500D02*
X165107500Y-71602500D01*
X168917500Y-71602500D02*
X168917500Y-74112500D01*
X168917500Y-74112500D02*
X165107500Y-74112500D01*
X169667500Y-75782500D02*
G75*
G03*
X169467500Y-75782500I-100000J0D01*
G01*
X169467500Y-75782500D02*
G75*
G03*
X169667500Y-75782500I100000J0D01*
G01*
D11*
%TO.C,C22*%
X139707836Y-108760000D02*
X139492164Y-108760000D01*
X139707836Y-108040000D02*
X139492164Y-108040000D01*
%TO.C,C25*%
X169560000Y-105871920D02*
X169560000Y-106153080D01*
X168540000Y-105871920D02*
X168540000Y-106153080D01*
%TO.C,TP3*%
X140900000Y-113330000D02*
G75*
G03*
X139500000Y-113330000I-700000J0D01*
G01*
X139500000Y-113330000D02*
G75*
G03*
X140900000Y-113330000I700000J0D01*
G01*
%TO.C,C20*%
X152092164Y-128140000D02*
X152307836Y-128140000D01*
X152092164Y-128860000D02*
X152307836Y-128860000D01*
%TO.C,R19*%
X173020000Y-111253641D02*
X173020000Y-110946359D01*
X173780000Y-111253641D02*
X173780000Y-110946359D01*
%TO.C,U15*%
X171160000Y-122160000D02*
X170685000Y-122160000D01*
X166940000Y-121685000D02*
X166940000Y-122160000D01*
X171160000Y-121685000D02*
X171160000Y-122160000D01*
X166940000Y-118415000D02*
X166940000Y-117940000D01*
X171160000Y-118415000D02*
X171160000Y-117940000D01*
X166940000Y-117940000D02*
X167415000Y-117940000D01*
X171160000Y-117940000D02*
X170685000Y-117940000D01*
%TO.C,C27*%
X161140000Y-111107836D02*
X161140000Y-110892164D01*
X161860000Y-111107836D02*
X161860000Y-110892164D01*
%TO.C,R16*%
X137420000Y-109053641D02*
X137420000Y-108746359D01*
X138180000Y-109053641D02*
X138180000Y-108746359D01*
%TO.C,C23*%
X160010000Y-110759420D02*
X160010000Y-111040580D01*
X158990000Y-110759420D02*
X158990000Y-111040580D01*
%TO.C,C26*%
X143765000Y-114261252D02*
X143765000Y-113738748D01*
X145235000Y-114261252D02*
X145235000Y-113738748D01*
%TO.C,C24*%
X164640000Y-106120336D02*
X164640000Y-105904664D01*
X165360000Y-106120336D02*
X165360000Y-105904664D01*
%TO.C,TP2*%
X135400000Y-86000000D02*
G75*
G03*
X134000000Y-86000000I-700000J0D01*
G01*
X134000000Y-86000000D02*
G75*
G03*
X135400000Y-86000000I700000J0D01*
G01*
%TO.C,J3*%
X157780000Y-129500000D02*
X157780000Y-131300000D01*
X166420000Y-129500000D02*
X166420000Y-131300000D01*
%TO.C,J1*%
X132500000Y-120250000D02*
X132500000Y-121550000D01*
X132800000Y-120550000D02*
X134800000Y-120550000D01*
X132800000Y-135050000D02*
X132800000Y-120550000D01*
X134200000Y-120250000D02*
X132500000Y-120250000D01*
X140000000Y-120550000D02*
X142000000Y-120550000D01*
X142000000Y-120550000D02*
X142000000Y-121850000D01*
X142000000Y-126450000D02*
X142000000Y-135050000D01*
X142000000Y-135050000D02*
X132800000Y-135050000D01*
%TO.C,U13*%
X148140000Y-108240000D02*
X148140000Y-108495000D01*
X148140000Y-108495000D02*
X146325000Y-108495000D01*
X148140000Y-118760000D02*
X148140000Y-118505000D01*
X152000000Y-108240000D02*
X148140000Y-108240000D01*
X152000000Y-108240000D02*
X155860000Y-108240000D01*
X152000000Y-118760000D02*
X148140000Y-118760000D01*
X152000000Y-118760000D02*
X155860000Y-118760000D01*
X155860000Y-108240000D02*
X155860000Y-108495000D01*
X155860000Y-118760000D02*
X155860000Y-118505000D01*
%TO.C,C28*%
X161688748Y-113440000D02*
X163111252Y-113440000D01*
X161688748Y-116160000D02*
X163111252Y-116160000D01*
%TO.C,C19*%
X149840000Y-125607836D02*
X149840000Y-125392164D01*
X150560000Y-125607836D02*
X150560000Y-125392164D01*
%TO.C,C17*%
X135092164Y-110240000D02*
X135307836Y-110240000D01*
X135092164Y-110960000D02*
X135307836Y-110960000D01*
%TO.C,TP6*%
X174400000Y-118500000D02*
G75*
G03*
X173000000Y-118500000I-700000J0D01*
G01*
X173000000Y-118500000D02*
G75*
G03*
X174400000Y-118500000I700000J0D01*
G01*
%TO.C,C31*%
X161688748Y-117040000D02*
X163111252Y-117040000D01*
X161688748Y-119760000D02*
X163111252Y-119760000D01*
D12*
%TO.C,J4*%
X133107500Y-74112500D02*
X133107500Y-71602500D01*
X136917500Y-71602500D02*
X133107500Y-71602500D01*
X136917500Y-71602500D02*
X136917500Y-74112500D01*
X136917500Y-74112500D02*
X133107500Y-74112500D01*
X137667500Y-75782500D02*
G75*
G03*
X137467500Y-75782500I-100000J0D01*
G01*
X137467500Y-75782500D02*
G75*
G03*
X137667500Y-75782500I100000J0D01*
G01*
D11*
%TO.C,R23*%
X162320000Y-111153641D02*
X162320000Y-110846359D01*
X163080000Y-111153641D02*
X163080000Y-110846359D01*
D13*
%TO.C,U9*%
X126805100Y-106500000D02*
X133135100Y-106500000D01*
X146805100Y-106500000D02*
X146675100Y-106500000D01*
X146805100Y-106500000D02*
X146805100Y-88500000D01*
X126805100Y-88500000D02*
X126805100Y-106500000D01*
X133135100Y-88500000D02*
X126805100Y-88500000D01*
X146805100Y-88500000D02*
X146675100Y-88500000D01*
D12*
X134005100Y-108000000D02*
G75*
G03*
X133805100Y-108000000I-100000J0D01*
G01*
X133805100Y-108000000D02*
G75*
G03*
X134005100Y-108000000I100000J0D01*
G01*
D11*
%TO.C,C30*%
X161960000Y-105871920D02*
X161960000Y-106153080D01*
X160940000Y-105871920D02*
X160940000Y-106153080D01*
%TD*%
M02*
