%TF.GenerationSoftware,KiCad,Pcbnew,7.0.5*%
%TF.CreationDate,2023-06-16T17:12:54-04:00*%
%TF.ProjectId,ESP32Sensor-Sensor_board,45535033-3253-4656-9e73-6f722d53656e,rev?*%
%TF.SameCoordinates,Original*%
%TF.FileFunction,Copper,L4,Bot*%
%TF.FilePolarity,Positive*%
%FSLAX46Y46*%
G04 Gerber Fmt 4.6, Leading zero omitted, Abs format (unit mm)*
G04 Created by KiCad (PCBNEW 7.0.5) date 2023-06-16 17:12:54*
%MOMM*%
%LPD*%
G01*
G04 APERTURE LIST*
G04 Aperture macros list*
%AMRoundRect*
0 Rectangle with rounded corners*
0 $1 Rounding radius*
0 $2 $3 $4 $5 $6 $7 $8 $9 X,Y pos of 4 corners*
0 Add a 4 corners polygon primitive as box body*
4,1,4,$2,$3,$4,$5,$6,$7,$8,$9,$2,$3,0*
0 Add four circle primitives for the rounded corners*
1,1,$1+$1,$2,$3*
1,1,$1+$1,$4,$5*
1,1,$1+$1,$6,$7*
1,1,$1+$1,$8,$9*
0 Add four rect primitives between the rounded corners*
20,1,$1+$1,$2,$3,$4,$5,0*
20,1,$1+$1,$4,$5,$6,$7,0*
20,1,$1+$1,$6,$7,$8,$9,0*
20,1,$1+$1,$8,$9,$2,$3,0*%
G04 Aperture macros list end*
%TA.AperFunction,ComponentPad*%
%ADD10O,1.600000X1.000000*%
%TD*%
%TA.AperFunction,ComponentPad*%
%ADD11C,0.700000*%
%TD*%
%TA.AperFunction,SMDPad,CuDef*%
%ADD12R,0.500000X1.600000*%
%TD*%
%TA.AperFunction,ComponentPad*%
%ADD13C,1.270000*%
%TD*%
%TA.AperFunction,ComponentPad*%
%ADD14C,1.524000*%
%TD*%
%TA.AperFunction,ConnectorPad*%
%ADD15RoundRect,0.381000X-0.381000X-2.794000X0.381000X-2.794000X0.381000X2.794000X-0.381000X2.794000X0*%
%TD*%
%TA.AperFunction,SMDPad,CuDef*%
%ADD16RoundRect,0.147500X-0.172500X0.147500X-0.172500X-0.147500X0.172500X-0.147500X0.172500X0.147500X0*%
%TD*%
%TA.AperFunction,SMDPad,CuDef*%
%ADD17R,1.130000X2.440000*%
%TD*%
%TA.AperFunction,SMDPad,CuDef*%
%ADD18RoundRect,0.135000X-0.185000X0.135000X-0.185000X-0.135000X0.185000X-0.135000X0.185000X0.135000X0*%
%TD*%
%TA.AperFunction,SMDPad,CuDef*%
%ADD19RoundRect,0.135000X0.135000X0.185000X-0.135000X0.185000X-0.135000X-0.185000X0.135000X-0.185000X0*%
%TD*%
%TA.AperFunction,SMDPad,CuDef*%
%ADD20RoundRect,0.147500X-0.147500X-0.172500X0.147500X-0.172500X0.147500X0.172500X-0.147500X0.172500X0*%
%TD*%
%TA.AperFunction,SMDPad,CuDef*%
%ADD21RoundRect,0.140000X-0.170000X0.140000X-0.170000X-0.140000X0.170000X-0.140000X0.170000X0.140000X0*%
%TD*%
%TA.AperFunction,SMDPad,CuDef*%
%ADD22R,0.600800X1.111200*%
%TD*%
%TA.AperFunction,SMDPad,CuDef*%
%ADD23R,0.558800X1.981200*%
%TD*%
%TA.AperFunction,SMDPad,CuDef*%
%ADD24R,0.812800X0.254000*%
%TD*%
%TA.AperFunction,SMDPad,CuDef*%
%ADD25R,1.752600X2.489200*%
%TD*%
%TA.AperFunction,SMDPad,CuDef*%
%ADD26RoundRect,0.093750X-0.093750X-0.106250X0.093750X-0.106250X0.093750X0.106250X-0.093750X0.106250X0*%
%TD*%
%TA.AperFunction,SMDPad,CuDef*%
%ADD27R,1.000000X1.600000*%
%TD*%
%TA.AperFunction,SMDPad,CuDef*%
%ADD28RoundRect,0.135000X-0.135000X-0.185000X0.135000X-0.185000X0.135000X0.185000X-0.135000X0.185000X0*%
%TD*%
%TA.AperFunction,SMDPad,CuDef*%
%ADD29R,0.558800X1.066800*%
%TD*%
%TA.AperFunction,SMDPad,CuDef*%
%ADD30R,1.111200X0.600800*%
%TD*%
%TA.AperFunction,SMDPad,CuDef*%
%ADD31RoundRect,0.147500X0.147500X0.172500X-0.147500X0.172500X-0.147500X-0.172500X0.147500X-0.172500X0*%
%TD*%
%TA.AperFunction,SMDPad,CuDef*%
%ADD32RoundRect,0.140000X0.170000X-0.140000X0.170000X0.140000X-0.170000X0.140000X-0.170000X-0.140000X0*%
%TD*%
%TA.AperFunction,SMDPad,CuDef*%
%ADD33RoundRect,0.140000X0.140000X0.170000X-0.140000X0.170000X-0.140000X-0.170000X0.140000X-0.170000X0*%
%TD*%
%TA.AperFunction,SMDPad,CuDef*%
%ADD34RoundRect,0.140000X-0.140000X-0.170000X0.140000X-0.170000X0.140000X0.170000X-0.140000X0.170000X0*%
%TD*%
%TA.AperFunction,SMDPad,CuDef*%
%ADD35RoundRect,0.150000X-0.150000X0.875000X-0.150000X-0.875000X0.150000X-0.875000X0.150000X0.875000X0*%
%TD*%
%TA.AperFunction,SMDPad,CuDef*%
%ADD36RoundRect,0.135000X0.185000X-0.135000X0.185000X0.135000X-0.185000X0.135000X-0.185000X-0.135000X0*%
%TD*%
%TA.AperFunction,SMDPad,CuDef*%
%ADD37R,2.311400X0.558800*%
%TD*%
%TA.AperFunction,ViaPad*%
%ADD38C,0.700000*%
%TD*%
%TA.AperFunction,Conductor*%
%ADD39C,0.127000*%
%TD*%
%TA.AperFunction,Conductor*%
%ADD40C,0.254000*%
%TD*%
G04 APERTURE END LIST*
D10*
%TO.P,J2,SH1*%
%TO.N,N/C*%
X10306000Y-52218000D03*
%TO.P,J2,SH2*%
X16256000Y-52578000D03*
%TO.P,J2,SH3*%
X16256000Y-43598000D03*
%TD*%
D11*
%TO.P,U5,7,PAD*%
%TO.N,GND*%
X4827500Y-45790000D03*
D12*
X4827500Y-46340000D03*
D11*
X4827500Y-46890000D03*
%TD*%
D13*
%TO.P,J5,1,1*%
%TO.N,GND*%
X-10160000Y-57785000D03*
%TO.P,J5,2,2*%
%TO.N,3.3V*%
X-7620000Y-57785000D03*
%TO.P,J5,3,3*%
%TO.N,SCL*%
X-5080000Y-57785000D03*
%TO.P,J5,4,4*%
%TO.N,SDA*%
X-2540000Y-57785000D03*
%TD*%
D14*
%TO.P,PD1,1,An*%
%TO.N,Net-(PD1-An)*%
X3810000Y-8890000D03*
%TO.P,PD1,2,Ca*%
%TO.N,The_better_5V*%
X-3746500Y-8890000D03*
D15*
%TO.P,PD1,3,Ca*%
X0Y-5715000D03*
D14*
X0Y-8890000D03*
%TD*%
D13*
%TO.P,J6,1,1*%
%TO.N,GND*%
X2540000Y-57785000D03*
%TO.P,J6,2,2*%
%TO.N,GPIO1*%
X5080000Y-57785000D03*
%TO.P,J6,3,3*%
%TO.N,GPIO2*%
X7620000Y-57785000D03*
%TO.P,J6,4,4*%
%TO.N,GPIO3*%
X10160000Y-57785000D03*
%TD*%
D16*
%TO.P,FB1,1*%
%TO.N,VBUS*%
X-10160000Y-17803000D03*
%TO.P,FB1,2*%
%TO.N,+Vs_For_Lock_in*%
X-10160000Y-18773000D03*
%TD*%
D17*
%TO.P,S3,1A*%
%TO.N,ESP_ADC*%
X16256000Y-18270000D03*
%TO.P,S3,1B*%
%TO.N,Sensor_Analog*%
X16256000Y-9670000D03*
%TO.P,S3,2A*%
%TO.N,Net-(CR2-Pad1)*%
X13716000Y-18270000D03*
%TO.P,S3,2B*%
%TO.N,Sensor_Analog*%
X13716000Y-9670000D03*
%TD*%
D18*
%TO.P,R10,1*%
%TO.N,Net-(U8-SEL_B)*%
X11684000Y-30226000D03*
%TO.P,R10,2*%
%TO.N,Sensor_GND*%
X11684000Y-31246000D03*
%TD*%
D19*
%TO.P,R8,1*%
%TO.N,The_better_GND*%
X4828000Y-10922000D03*
%TO.P,R8,2*%
%TO.N,Net-(U7-+IN)*%
X3808000Y-10922000D03*
%TD*%
D20*
%TO.P,FB3,1*%
%TO.N,5V*%
X-4549000Y-10922000D03*
%TO.P,FB3,2*%
%TO.N,The_better_5V*%
X-3579000Y-10922000D03*
%TD*%
D21*
%TO.P,C8,1*%
%TO.N,5V*%
X8128000Y-33810000D03*
%TO.P,C8,2*%
%TO.N,Sensor_GND*%
X8128000Y-34770000D03*
%TD*%
D22*
%TO.P,CR1,1*%
%TO.N,Sensor_Analog*%
X9652000Y-9451000D03*
%TO.P,CR1,2*%
%TO.N,Sensor_GND*%
X9652000Y-12901000D03*
%TD*%
D17*
%TO.P,S2,1A*%
%TO.N,Net-(R6-Pad2)*%
X-16256000Y-9670000D03*
%TO.P,S2,1B*%
%TO.N,Net-(R4-Pad2)*%
X-16256000Y-18270000D03*
%TO.P,S2,2A*%
%TO.N,Net-(R6-Pad2)*%
X-13716000Y-9670000D03*
%TO.P,S2,2B*%
%TO.N,Net-(R5-Pad2)*%
X-13716000Y-18270000D03*
%TD*%
D23*
%TO.P,U7,1,RG*%
%TO.N,Net-(R6-Pad2)*%
X-4191000Y-13030200D03*
%TO.P,U7,2,-IN*%
%TO.N,Net-(PD1-An)*%
X-2921000Y-13030200D03*
%TO.P,U7,3,+IN*%
%TO.N,Net-(U7-+IN)*%
X-1651000Y-13030200D03*
%TO.P,U7,4,-VS*%
%TO.N,-Vs_For_Lock_in*%
X-381000Y-13030200D03*
%TO.P,U7,5,REF*%
%TO.N,Sensor_GND*%
X-381000Y-17957800D03*
%TO.P,U7,6,OUTPUT*%
%TO.N,Sensor_First_stage*%
X-1651000Y-17957800D03*
%TO.P,U7,7,+VS*%
%TO.N,+Vs_For_Lock_in*%
X-2921000Y-17957800D03*
%TO.P,U7,8,RG*%
%TO.N,Net-(R4-Pad1)*%
X-4191000Y-17957800D03*
%TD*%
D18*
%TO.P,R11,1*%
%TO.N,Net-(U9--IN)*%
X9906000Y-14730000D03*
%TO.P,R11,2*%
%TO.N,Sensor_GND*%
X9906000Y-15750000D03*
%TD*%
D24*
%TO.P,U10,1,REF+*%
%TO.N,The_better_5V*%
X6445600Y-33279999D03*
%TO.P,U10,2,VCC*%
%TO.N,5V*%
X6445600Y-33780001D03*
%TO.P,U10,3,REF-*%
%TO.N,Sensor_GND*%
X6445600Y-34280000D03*
%TO.P,U10,4,IN+*%
%TO.N,Sensor_Analog*%
X6445600Y-34779999D03*
%TO.P,U10,5,IN-*%
%TO.N,Sensor_GND*%
X6445600Y-35280001D03*
%TO.P,U10,6,SCL*%
%TO.N,SCL*%
X3550000Y-35280001D03*
%TO.P,U10,7,SDA*%
%TO.N,SDA*%
X3550000Y-34779999D03*
%TO.P,U10,8,GND*%
%TO.N,Sensor_GND*%
X3550000Y-34280000D03*
%TO.P,U10,9,CA1*%
%TO.N,unconnected-(U10-CA1-Pad9)*%
X3550000Y-33780001D03*
%TO.P,U10,10,CA0/FO*%
%TO.N,unconnected-(U10-CA0{slash}FO-Pad10)*%
X3550000Y-33279999D03*
D25*
%TO.P,U10,11,EPAD*%
%TO.N,Sensor_GND*%
X4997800Y-34280000D03*
%TD*%
D18*
%TO.P,R12,1*%
%TO.N,Net-(U9--IN)*%
X8636000Y-14730000D03*
%TO.P,R12,2*%
%TO.N,Sensor_Analog*%
X8636000Y-15750000D03*
%TD*%
D19*
%TO.P,R13,1*%
%TO.N,Sensor_Second_stage*%
X16032000Y-24130000D03*
%TO.P,R13,2*%
%TO.N,Net-(C6-Pad1)*%
X15012000Y-24130000D03*
%TD*%
D23*
%TO.P,U9,1,VOSTRIM*%
%TO.N,unconnected-(U9-VOSTRIM-Pad1)*%
X2413000Y-13030200D03*
%TO.P,U9,2,-IN*%
%TO.N,Net-(U9--IN)*%
X3683000Y-13030200D03*
%TO.P,U9,3,+IN*%
%TO.N,Net-(U9-+IN)*%
X4953000Y-13030200D03*
%TO.P,U9,4,V-*%
%TO.N,-Vs_For_Lock_in*%
X6223000Y-13030200D03*
%TO.P,U9,5,NC*%
%TO.N,unconnected-(U9-NC-Pad5)*%
X6223000Y-17957800D03*
%TO.P,U9,6,OUT*%
%TO.N,Sensor_Analog*%
X4953000Y-17957800D03*
%TO.P,U9,7,V+*%
%TO.N,+Vs_For_Lock_in*%
X3683000Y-17957800D03*
%TO.P,U9,8,VOSTRIM*%
%TO.N,unconnected-(U9-VOSTRIM-Pad8)*%
X2413000Y-17957800D03*
%TD*%
D19*
%TO.P,R14,1*%
%TO.N,Net-(C6-Pad1)*%
X16032000Y-25146000D03*
%TO.P,R14,2*%
%TO.N,Net-(U9-+IN)*%
X15012000Y-25146000D03*
%TD*%
D26*
%TO.P,U12,1,OUT*%
%TO.N,5V*%
X5462500Y-38750000D03*
%TO.P,U12,2,SNS*%
X5462500Y-38100000D03*
%TO.P,U12,3,GND*%
%TO.N,Sensor_GND*%
X5462500Y-37450000D03*
%TO.P,U12,4,EN*%
%TO.N,VBUS*%
X7237500Y-37450000D03*
%TO.P,U12,5,GND*%
%TO.N,Sensor_GND*%
X7237500Y-38100000D03*
%TO.P,U12,6,IN*%
%TO.N,VBUS*%
X7237500Y-38750000D03*
D11*
%TO.P,U12,7,PAD*%
%TO.N,Sensor_GND*%
X6350000Y-37550000D03*
D27*
X6350000Y-38100000D03*
D11*
X6350000Y-38650000D03*
%TD*%
D28*
%TO.P,R15,1*%
%TO.N,Net-(U11-VREF)*%
X-4826000Y-26670000D03*
%TO.P,R15,2*%
%TO.N,Net-(U11-FB{slash}SD)*%
X-3806000Y-26670000D03*
%TD*%
D29*
%TO.P,CR3,1,1*%
%TO.N,D-*%
X13030200Y-46837600D03*
%TO.P,CR3,2,2*%
%TO.N,GND*%
X13970000Y-46837600D03*
%TO.P,CR3,3,3*%
%TO.N,D+*%
X14909800Y-46837600D03*
%TO.P,CR3,4,4*%
%TO.N,CC2*%
X14909800Y-49682400D03*
%TO.P,CR3,5,5*%
%TO.N,unconnected-(CR3-Pad5)*%
X13970000Y-49682400D03*
%TO.P,CR3,6,6*%
%TO.N,CC1*%
X13030200Y-49682400D03*
%TD*%
D18*
%TO.P,R5,1*%
%TO.N,Net-(R4-Pad1)*%
X-8890000Y-13710000D03*
%TO.P,R5,2*%
%TO.N,Net-(R5-Pad2)*%
X-8890000Y-14730000D03*
%TD*%
D30*
%TO.P,CR2,1*%
%TO.N,Net-(CR2-Pad1)*%
X13515000Y-21082000D03*
%TO.P,CR2,2*%
%TO.N,Sensor_GND*%
X16965000Y-21082000D03*
%TD*%
D31*
%TO.P,FB4,1*%
%TO.N,Sensor_GND*%
X7343000Y-10922000D03*
%TO.P,FB4,2*%
%TO.N,The_better_GND*%
X6373000Y-10922000D03*
%TD*%
D32*
%TO.P,C14,1*%
%TO.N,5V*%
X4318000Y-38622000D03*
%TO.P,C14,2*%
%TO.N,Sensor_GND*%
X4318000Y-37662000D03*
%TD*%
D33*
%TO.P,C6,1*%
%TO.N,Net-(C6-Pad1)*%
X13970000Y-24130000D03*
%TO.P,C6,2*%
%TO.N,Sensor_GND*%
X13010000Y-24130000D03*
%TD*%
D19*
%TO.P,R17,1*%
%TO.N,GND*%
X13210000Y-32512000D03*
%TO.P,R17,2*%
%TO.N,Sensor_GND*%
X12190000Y-32512000D03*
%TD*%
D18*
%TO.P,R4,1*%
%TO.N,Net-(R4-Pad1)*%
X-10668000Y-13712000D03*
%TO.P,R4,2*%
%TO.N,Net-(R4-Pad2)*%
X-10668000Y-14732000D03*
%TD*%
D16*
%TO.P,FB2,1*%
%TO.N,-VBUS*%
X-8890000Y-17826000D03*
%TO.P,FB2,2*%
%TO.N,-Vs_For_Lock_in*%
X-8890000Y-18796000D03*
%TD*%
D34*
%TO.P,C12,1*%
%TO.N,-VBUS*%
X-4768000Y-25400000D03*
%TO.P,C12,2*%
%TO.N,Net-(U11-FB{slash}SD)*%
X-3808000Y-25400000D03*
%TD*%
D35*
%TO.P,U8,1,R_{in}A*%
%TO.N,Sensor_First_stage*%
X-1651000Y-21336000D03*
%TO.P,U8,2,CHA+*%
%TO.N,unconnected-(U8-CHA+-Pad2)*%
X-381000Y-21336000D03*
%TO.P,U8,3,DIFF_OFF_ADJ1*%
%TO.N,unconnected-(U8-DIFF_OFF_ADJ1-Pad3)*%
X889000Y-21336000D03*
%TO.P,U8,4,DIFF_OFF_ADJ2*%
%TO.N,unconnected-(U8-DIFF_OFF_ADJ2-Pad4)*%
X2159000Y-21336000D03*
%TO.P,U8,5,CM_OFF_ADJ1*%
%TO.N,unconnected-(U8-CM_OFF_ADJ1-Pad5)*%
X3429000Y-21336000D03*
%TO.P,U8,6,CM_OFF_ADJ2*%
%TO.N,unconnected-(U8-CM_OFF_ADJ2-Pad6)*%
X4699000Y-21336000D03*
%TO.P,U8,7,B/~{A}*%
%TO.N,unconnected-(U8-B{slash}~{A}-Pad7)*%
X5969000Y-21336000D03*
%TO.P,U8,8,-V_{S}*%
%TO.N,-Vs_For_Lock_in*%
X7239000Y-21336000D03*
%TO.P,U8,9,SEL_B*%
%TO.N,Net-(U8-SEL_B)*%
X8509000Y-21336000D03*
%TO.P,U8,10,SEL_A*%
%TO.N,LED_REF*%
X9779000Y-21336000D03*
%TO.P,U8,11,+V_{S}*%
%TO.N,+Vs_For_Lock_in*%
X9779000Y-30636000D03*
%TO.P,U8,12,COMP*%
%TO.N,Sensor_Second_stage*%
X8509000Y-30636000D03*
%TO.P,U8,13,V_{OUT}*%
X7239000Y-30636000D03*
%TO.P,U8,14,R_{B}*%
%TO.N,Sensor_GND*%
X5969000Y-30636000D03*
%TO.P,U8,15,R_{F}*%
%TO.N,Net-(U8-CHA-)*%
X4699000Y-30636000D03*
%TO.P,U8,16,R_{A}*%
%TO.N,Sensor_First_stage*%
X3429000Y-30636000D03*
%TO.P,U8,17,R_{in}B*%
%TO.N,Sensor_GND*%
X2159000Y-30636000D03*
%TO.P,U8,18,CHB+*%
%TO.N,unconnected-(U8-CHB+-Pad18)*%
X889000Y-30636000D03*
%TO.P,U8,19,CHB-*%
%TO.N,Net-(U8-CHA-)*%
X-381000Y-30636000D03*
%TO.P,U8,20,CHA-*%
X-1651000Y-30636000D03*
%TD*%
D18*
%TO.P,R9,1*%
%TO.N,+Vs_For_Lock_in*%
X11684000Y-28194000D03*
%TO.P,R9,2*%
%TO.N,Net-(U8-SEL_B)*%
X11684000Y-29214000D03*
%TD*%
D33*
%TO.P,C10,1*%
%TO.N,Sensor_GND*%
X-3836000Y-27940000D03*
%TO.P,C10,2*%
%TO.N,VBUS*%
X-4796000Y-27940000D03*
%TD*%
D34*
%TO.P,C11,1*%
%TO.N,Net-(U11-CAP-)*%
X-13942000Y-21336000D03*
%TO.P,C11,2*%
%TO.N,Net-(U11-CAP+)*%
X-12982000Y-21336000D03*
%TD*%
D33*
%TO.P,C13,1*%
%TO.N,VBUS*%
X7338000Y-39986000D03*
%TO.P,C13,2*%
%TO.N,Sensor_GND*%
X6378000Y-39986000D03*
%TD*%
D28*
%TO.P,R7,1*%
%TO.N,Net-(PD1-An)*%
X1522000Y-10922000D03*
%TO.P,R7,2*%
%TO.N,Net-(U7-+IN)*%
X2542000Y-10922000D03*
%TD*%
D36*
%TO.P,R6,1*%
%TO.N,Net-(R4-Pad1)*%
X-7112000Y-14732000D03*
%TO.P,R6,2*%
%TO.N,Net-(R6-Pad2)*%
X-7112000Y-13712000D03*
%TD*%
D37*
%TO.P,U11,1,NC*%
%TO.N,unconnected-(U11-NC-Pad1)*%
X-16459200Y-32385000D03*
%TO.P,U11,2,NC*%
%TO.N,unconnected-(U11-NC-Pad2)*%
X-16459200Y-31115000D03*
%TO.P,U11,3,FB/SD*%
%TO.N,Net-(U11-FB{slash}SD)*%
X-16459200Y-29845000D03*
%TO.P,U11,4,CAP+*%
%TO.N,Net-(U11-CAP+)*%
X-16459200Y-28575000D03*
%TO.P,U11,5,GND*%
%TO.N,Sensor_GND*%
X-16459200Y-27305000D03*
%TO.P,U11,6,CAP-*%
%TO.N,Net-(U11-CAP-)*%
X-16459200Y-26035000D03*
%TO.P,U11,7,NC*%
%TO.N,unconnected-(U11-NC-Pad7)*%
X-16459200Y-24765000D03*
%TO.P,U11,8,NC*%
%TO.N,unconnected-(U11-NC-Pad8)*%
X-16459200Y-23495000D03*
%TO.P,U11,9,NC*%
%TO.N,unconnected-(U11-NC-Pad9)*%
X-7416800Y-23495000D03*
%TO.P,U11,10,NC*%
%TO.N,unconnected-(U11-NC-Pad10)*%
X-7416800Y-24765000D03*
%TO.P,U11,11,VOUT*%
%TO.N,-VBUS*%
X-7416800Y-26035000D03*
%TO.P,U11,12,VREF*%
%TO.N,Net-(U11-VREF)*%
X-7416800Y-27305000D03*
%TO.P,U11,13,OSC*%
%TO.N,unconnected-(U11-OSC-Pad13)*%
X-7416800Y-28575000D03*
%TO.P,U11,14,VCC*%
%TO.N,VBUS*%
X-7416800Y-29845000D03*
%TO.P,U11,15,NC*%
%TO.N,unconnected-(U11-NC-Pad15)*%
X-7416800Y-31115000D03*
%TO.P,U11,16,NC*%
%TO.N,unconnected-(U11-NC-Pad16)*%
X-7416800Y-32385000D03*
%TD*%
D32*
%TO.P,C15,1*%
%TO.N,-VBUS*%
X-4824000Y-24102000D03*
%TO.P,C15,2*%
%TO.N,Sensor_GND*%
X-4824000Y-23142000D03*
%TD*%
D21*
%TO.P,C9,1*%
%TO.N,5V*%
X9336000Y-33810000D03*
%TO.P,C9,2*%
%TO.N,Sensor_GND*%
X9336000Y-34770000D03*
%TD*%
D28*
%TO.P,R16,1*%
%TO.N,-VBUS*%
X-4826000Y-29210000D03*
%TO.P,R16,2*%
%TO.N,Net-(U11-FB{slash}SD)*%
X-3806000Y-29210000D03*
%TD*%
D33*
%TO.P,C7,1*%
%TO.N,Net-(U9-+IN)*%
X13970000Y-25146000D03*
%TO.P,C7,2*%
%TO.N,Sensor_GND*%
X13010000Y-25146000D03*
%TD*%
D38*
%TO.N,3.3V*%
X13766100Y-41653200D03*
X1704900Y-46100000D03*
%TO.N,GND*%
X13970000Y-55372000D03*
X-9398000Y-32258000D03*
X-16256000Y-13462000D03*
X11430000Y-57912000D03*
X-15494000Y-20320000D03*
X13208000Y-36322000D03*
X17272000Y-38608000D03*
X-8890000Y-52832000D03*
X6350000Y-57912000D03*
X6350000Y-55372000D03*
X1270000Y-42672000D03*
X-9144000Y-28194000D03*
X-11430000Y-57912000D03*
X-13970000Y-55372000D03*
X8890000Y-57912000D03*
X-11430000Y-50292000D03*
X-1270000Y-40132000D03*
X11430000Y-55372000D03*
X-6350000Y-57912000D03*
X11430000Y-42672000D03*
X3810000Y-55372000D03*
X-3810000Y-47752000D03*
X8890000Y-52832000D03*
X1270000Y-50292000D03*
X13970000Y-52832000D03*
X16256000Y-32512000D03*
X-11430000Y-47752000D03*
%TO.N,CC1*%
X8007100Y-44690700D03*
X6997100Y-48928300D03*
%TO.N,D+*%
X-5405100Y-38070000D03*
X7584600Y-48379200D03*
%TO.N,D-*%
X6875300Y-46758800D03*
X-3905100Y-38059500D03*
X9278600Y-48660000D03*
%TO.N,CC2*%
X16168900Y-41549600D03*
X9292000Y-47184100D03*
%TO.N,ESP_RXD*%
X-911500Y-35639200D03*
X-8419400Y-34801800D03*
%TO.N,GPIO9*%
X-6858000Y-47752000D03*
X-986600Y-34017200D03*
X-14848900Y-34800100D03*
%TO.N,ESP_EN*%
X-2286000Y-34798000D03*
X-10812300Y-35077200D03*
%TO.N,INT*%
X1501700Y-36392900D03*
X18227600Y-28237100D03*
X15322900Y-37587500D03*
%TO.N,SCL*%
X14510800Y-37576300D03*
%TO.N,SDA*%
X12078400Y-38106200D03*
%TO.N,LED_REF*%
X13276000Y-28023900D03*
X-10000900Y-34802700D03*
%TO.N,5V*%
X-4369750Y-34222050D03*
X3099100Y-37619500D03*
X-2346300Y-32811400D03*
%TO.N,Sensor_Analog*%
X13673100Y-31282800D03*
X13165200Y-28863000D03*
%TO.N,The_better_5V*%
X-1542700Y-32758700D03*
%TO.N,ESP_ADC*%
X14656300Y-29510800D03*
X-11405100Y-35634600D03*
%TO.N,GPIO3*%
X-6624500Y-38069500D03*
%TO.N,NeopixelLED*%
X-15811800Y-34785000D03*
X-8128000Y-47498000D03*
%TO.N,VBUS*%
X-9398000Y-16002000D03*
X16374900Y-40731700D03*
X6222900Y-45182100D03*
X8860100Y-37229900D03*
%TO.N,Sensor_GND*%
X6350000Y-25654000D03*
X-11430000Y-5588000D03*
X-5588000Y-20828000D03*
X11176000Y-23876000D03*
X-10160000Y-10160000D03*
X13970000Y-14732000D03*
X7874000Y-28448000D03*
X5080000Y-33782000D03*
X-10160000Y-11938000D03*
%TD*%
D39*
%TO.N,GND*%
X13210000Y-32512000D02*
X13210000Y-36320000D01*
X13210000Y-32512000D02*
X16256000Y-32512000D01*
X13210000Y-36320000D02*
X13208000Y-36322000D01*
%TO.N,CC1*%
X12621000Y-48982000D02*
X12424100Y-49178900D01*
X12424100Y-49178900D02*
X7247700Y-49178900D01*
X13030200Y-49682400D02*
X13030200Y-48982000D01*
X13030200Y-48982000D02*
X12621000Y-48982000D01*
X7247700Y-49178900D02*
X6997100Y-48928300D01*
%TO.N,D+*%
X7584700Y-48379200D02*
X7584600Y-48379200D01*
X7584700Y-48154400D02*
X7584700Y-48379200D01*
X9998500Y-46647200D02*
X9091900Y-46647200D01*
X14909800Y-46837600D02*
X14909800Y-47538000D01*
X9091900Y-46647200D02*
X7584700Y-48154400D01*
X14909800Y-47538000D02*
X10889300Y-47538000D01*
X10889300Y-47538000D02*
X9998500Y-46647200D01*
%TO.N,D-*%
X13030200Y-46137200D02*
X7496900Y-46137200D01*
X13030200Y-46837600D02*
X13030200Y-46137200D01*
X7496900Y-46137200D02*
X6875300Y-46758800D01*
%TO.N,CC2*%
X14909800Y-48982000D02*
X14047000Y-48119200D01*
X10227100Y-48119200D02*
X9292000Y-47184100D01*
X14909800Y-49682400D02*
X14909800Y-48982000D01*
X14047000Y-48119200D02*
X10227100Y-48119200D01*
%TO.N,SCL*%
X-1524000Y-57404000D02*
X-1524000Y-57912000D01*
X8931950Y-40935950D02*
X11244400Y-38623500D01*
X11362800Y-37588900D02*
X8478300Y-40473400D01*
X2794000Y-53086000D02*
X-1524000Y-57404000D01*
X2540100Y-37907800D02*
X2540100Y-35716500D01*
X12608400Y-37588900D02*
X14498200Y-37588900D01*
X12349800Y-38623500D02*
X12608400Y-38364900D01*
X14498200Y-37588900D02*
X14510800Y-37576300D01*
X8478300Y-40473400D02*
X5105700Y-40473400D01*
X-2216100Y-58612100D02*
X-1520000Y-57916000D01*
X3550000Y-35280000D02*
X2976600Y-35280000D01*
X5105700Y-40473400D02*
X2540100Y-37907800D01*
X-1524000Y-57912000D02*
X-1520000Y-57916000D01*
X-5080000Y-57785000D02*
X-4252900Y-58612100D01*
X2794000Y-41402000D02*
X2794000Y-53086000D01*
X12608400Y-38364900D02*
X12608400Y-37588900D01*
X8931950Y-40935950D02*
X3260050Y-40935950D01*
X2540100Y-35716500D02*
X2976600Y-35280000D01*
X11244400Y-38623500D02*
X12349800Y-38623500D01*
X12608400Y-37588900D02*
X11362800Y-37588900D01*
X-4252900Y-58612100D02*
X-2216100Y-58612100D01*
X3260050Y-40935950D02*
X2794000Y-41402000D01*
%TO.N,SDA*%
X11303600Y-38106200D02*
X12078400Y-38106200D01*
X8703500Y-40706300D02*
X11303600Y-38106200D01*
X-2540000Y-57785000D02*
X2282300Y-52962700D01*
X2282300Y-52962700D02*
X2282300Y-40706300D01*
X3550000Y-34780000D02*
X2976600Y-34780000D01*
X2282300Y-35474300D02*
X2976600Y-34780000D01*
X2282300Y-40706300D02*
X2282300Y-35474300D01*
X2282300Y-40706300D02*
X8703500Y-40706300D01*
%TO.N,LED_REF*%
X13276000Y-27697900D02*
X9779000Y-24200900D01*
X9779000Y-24200900D02*
X9779000Y-21336000D01*
X13276000Y-28023900D02*
X13276000Y-27697900D01*
%TO.N,5V*%
X-867800Y-32446600D02*
X-1056300Y-32258100D01*
X5462500Y-38622000D02*
X5462500Y-38100000D01*
X6445600Y-33780000D02*
X7019000Y-33780000D01*
X-1056300Y-32258100D02*
X-1312100Y-32258100D01*
X5462500Y-38622000D02*
X4318000Y-38622000D01*
X7372600Y-33424900D02*
X7742900Y-33424900D01*
X7019000Y-33780000D02*
X7019000Y-33778500D01*
X6394200Y-32446600D02*
X-867800Y-32446600D01*
X-1766800Y-32241700D02*
X-2334500Y-32809400D01*
X-4369750Y-34222050D02*
X-4421500Y-34273800D01*
X9336000Y-33810000D02*
X8128000Y-33810000D01*
X-1328500Y-32241700D02*
X-1766800Y-32241700D01*
X7372600Y-33424900D02*
X6394200Y-32446600D01*
X5462500Y-38622000D02*
X5462500Y-38750000D01*
X-4421500Y-34273800D02*
X-9012300Y-34273800D01*
X4318000Y-38622000D02*
X3315500Y-37619500D01*
X7742900Y-33424900D02*
X8128000Y-33810000D01*
X-18043600Y-31249200D02*
X-18043600Y-9435400D01*
X7019000Y-33778500D02*
X7372600Y-33424900D01*
X-18043600Y-9435400D02*
X-16822200Y-8214000D01*
X-9012300Y-34273800D02*
X-11355000Y-31931100D01*
X-2334500Y-32809400D02*
X-2344300Y-32809400D01*
X-1312100Y-32258100D02*
X-1328500Y-32241700D01*
X-11355000Y-31931100D02*
X-17361700Y-31931100D01*
X-7257000Y-8214000D02*
X-4549000Y-10922000D01*
X-2344300Y-32809400D02*
X-2346300Y-32811400D01*
X-17361700Y-31931100D02*
X-18043600Y-31249200D01*
X-16822200Y-8214000D02*
X-7257000Y-8214000D01*
X3315500Y-37619500D02*
X3099100Y-37619500D01*
%TO.N,Net-(C6-Pad1)*%
X15016000Y-24130000D02*
X15012000Y-24130000D01*
X16032000Y-25146000D02*
X15016000Y-24130000D01*
X13970000Y-24130000D02*
X15012000Y-24130000D01*
%TO.N,Sensor_Analog*%
X6445600Y-34780000D02*
X7139300Y-34780000D01*
X10220200Y-35235000D02*
X12700000Y-32755200D01*
X7211800Y-18540800D02*
X9144000Y-20473100D01*
X4953000Y-19115400D02*
X6637200Y-19115400D01*
X13673100Y-31282800D02*
X14437000Y-31282800D01*
X7594300Y-35235000D02*
X10220200Y-35235000D01*
X12673300Y-28371100D02*
X13165200Y-28863000D01*
X12700000Y-32755200D02*
X12700000Y-32255900D01*
X11270000Y-26401300D02*
X12673300Y-27804600D01*
X12673300Y-27804600D02*
X12673300Y-28371100D01*
X14437000Y-31282800D02*
X17920100Y-27799700D01*
X13716000Y-9672700D02*
X15100300Y-11057000D01*
X6637200Y-19115400D02*
X7211800Y-18540800D01*
X8636000Y-17116600D02*
X8636000Y-15750000D01*
X9144000Y-24053700D02*
X11270000Y-26179700D01*
X13716000Y-9671300D02*
X13716000Y-9672700D01*
X12700000Y-32255900D02*
X13673100Y-31282800D01*
X16256000Y-9670000D02*
X16256000Y-11057000D01*
X13716000Y-9670000D02*
X13716000Y-9671300D01*
X4953000Y-17957800D02*
X4953000Y-19115400D01*
X17920100Y-27799700D02*
X17920100Y-12721100D01*
X11270000Y-26179700D02*
X11270000Y-26401300D01*
X9144000Y-20473100D02*
X9144000Y-24053700D01*
X7211800Y-18540800D02*
X8636000Y-17116600D01*
X15100300Y-11057000D02*
X16256000Y-11057000D01*
X9652000Y-9451000D02*
X10119400Y-9451000D01*
X17920100Y-12721100D02*
X16256000Y-11057000D01*
X13716000Y-9671300D02*
X10339700Y-9671300D01*
X10339700Y-9671300D02*
X10119400Y-9451000D01*
X7139300Y-34780000D02*
X7594300Y-35235000D01*
%TO.N,Net-(CR2-Pad1)*%
X13515000Y-21082000D02*
X13515000Y-20614600D01*
X13515000Y-20614600D02*
X13716000Y-20413600D01*
X13716000Y-20413600D02*
X13716000Y-18270000D01*
%TO.N,+Vs_For_Lock_in*%
X11322500Y-28194000D02*
X11684000Y-28194000D01*
X3810000Y-17830800D02*
X3810000Y-16510000D01*
X-2921000Y-17957800D02*
X-2921000Y-19115400D01*
X5334000Y-20431600D02*
X5334000Y-22205500D01*
X9779000Y-29737500D02*
X11322500Y-28194000D01*
X3683000Y-19115400D02*
X4017800Y-19115400D01*
X9779000Y-30636000D02*
X9779000Y-29737500D01*
X-10160000Y-18773000D02*
X-9490500Y-19442500D01*
X-2921000Y-17399000D02*
X-2921000Y-17957800D01*
X3810000Y-16510000D02*
X-2032000Y-16510000D01*
X3683000Y-17957800D02*
X3810000Y-17830800D01*
X-2032000Y-16510000D02*
X-2921000Y-17399000D01*
X-9490500Y-19442500D02*
X-3248100Y-19442500D01*
X3683000Y-17957800D02*
X3683000Y-19115400D01*
X5334000Y-22205500D02*
X11322500Y-28194000D01*
X4017800Y-19115400D02*
X5334000Y-20431600D01*
X-3248100Y-19442500D02*
X-2921000Y-19115400D01*
%TO.N,-Vs_For_Lock_in*%
X-3368600Y-18703100D02*
X-3830600Y-19165100D01*
X-8520900Y-19165100D02*
X-8890000Y-18796000D01*
X7239000Y-21117000D02*
X5605700Y-19483700D01*
X4946200Y-19483700D02*
X4244000Y-18781500D01*
X7239000Y-21336000D02*
X7239000Y-21117000D01*
X4244000Y-15219800D02*
X3212000Y-14187800D01*
X-3830600Y-19165100D02*
X-8520900Y-19165100D01*
X5605700Y-19483700D02*
X4946200Y-19483700D01*
X3212000Y-14187800D02*
X3212000Y-11944900D01*
X3212000Y-11944900D02*
X3284300Y-11872600D01*
X-381000Y-13030200D02*
X-381000Y-14187800D01*
X4244000Y-18781500D02*
X4244000Y-15219800D01*
X-3368600Y-16840600D02*
X-3368600Y-18703100D01*
X6223000Y-13030200D02*
X6223000Y-11872600D01*
X-381000Y-14187800D02*
X-715800Y-14187800D01*
X3212000Y-14187800D02*
X-381000Y-14187800D01*
X-715800Y-14187800D02*
X-3368600Y-16840600D01*
X3284300Y-11872600D02*
X6223000Y-11872600D01*
%TO.N,The_better_5V*%
X-3579000Y-9057500D02*
X-3746500Y-8890000D01*
X5924300Y-32758700D02*
X-1542700Y-32758700D01*
X6445600Y-33280000D02*
X5924300Y-32758700D01*
X0Y-8890000D02*
X0Y-5715000D01*
X-3579000Y-10922000D02*
X-3579000Y-9057500D01*
%TO.N,The_better_GND*%
X4828000Y-10922000D02*
X6373000Y-10922000D01*
%TO.N,Net-(PD1-An)*%
X-1970400Y-10922000D02*
X1522000Y-10922000D01*
X3554000Y-8890000D02*
X3810000Y-8890000D01*
X1522000Y-10922000D02*
X3554000Y-8890000D01*
X-2921000Y-13030200D02*
X-2921000Y-11872600D01*
X-2921000Y-11872600D02*
X-1970400Y-10922000D01*
%TO.N,Net-(R6-Pad2)*%
X-4191000Y-13030200D02*
X-4191000Y-14187800D01*
X-13716000Y-9670000D02*
X-13716000Y-11057000D01*
X-16256000Y-9670000D02*
X-13716000Y-9670000D01*
X-7112000Y-13712000D02*
X-9767000Y-11057000D01*
X-9767000Y-11057000D02*
X-13716000Y-11057000D01*
X-6636200Y-14187800D02*
X-7112000Y-13712000D01*
X-4191000Y-14187800D02*
X-6636200Y-14187800D01*
%TO.N,Sensor_Second_stage*%
X8509000Y-30636000D02*
X7239000Y-30636000D01*
X9495100Y-31883100D02*
X10059300Y-31883100D01*
X12087900Y-30676700D02*
X14251100Y-28513500D01*
X16470900Y-24568900D02*
X16032000Y-24130000D01*
X10059300Y-31883100D02*
X11265700Y-30676700D01*
X11265700Y-30676700D02*
X12087900Y-30676700D01*
X15247100Y-25743200D02*
X16197700Y-25743200D01*
X16197700Y-25743200D02*
X16470900Y-25470000D01*
X16470900Y-25470000D02*
X16470900Y-24568900D01*
X8509000Y-30897000D02*
X9495100Y-31883100D01*
X14251100Y-26739200D02*
X15247100Y-25743200D01*
X8509000Y-30636000D02*
X8509000Y-30897000D01*
X14251100Y-28513500D02*
X14251100Y-26739200D01*
%TO.N,ESP_ADC*%
X16256000Y-18270000D02*
X16256000Y-19657000D01*
X16707200Y-19657000D02*
X17687600Y-20637400D01*
X17687600Y-20637400D02*
X17687600Y-27694100D01*
X16256000Y-19657000D02*
X16707200Y-19657000D01*
X15870900Y-29510800D02*
X14656300Y-29510800D01*
X17687600Y-27694100D02*
X15870900Y-29510800D01*
%TO.N,Sensor_First_stage*%
X-1651000Y-21336000D02*
X-1651000Y-24521400D01*
X-1651000Y-17957800D02*
X-1651000Y-21336000D01*
X3429000Y-29601400D02*
X3429000Y-30636000D01*
X-1651000Y-24521400D02*
X3429000Y-29601400D01*
%TO.N,Net-(U9-+IN)*%
X12353000Y-21504700D02*
X12353000Y-25250700D01*
X4953000Y-14187800D02*
X10117700Y-14187800D01*
X13970000Y-25146000D02*
X15012000Y-25146000D01*
X9385300Y-15503700D02*
X9385300Y-18537000D01*
X10411300Y-14979100D02*
X10150400Y-15240000D01*
X10117700Y-14187800D02*
X10411300Y-14481400D01*
X10411300Y-14481400D02*
X10411300Y-14979100D01*
X9385300Y-18537000D02*
X12353000Y-21504700D01*
X9649000Y-15240000D02*
X9385300Y-15503700D01*
X12732100Y-25629800D02*
X13486200Y-25629800D01*
X10150400Y-15240000D02*
X9649000Y-15240000D01*
X4953000Y-13030200D02*
X4953000Y-14187800D01*
X13486200Y-25629800D02*
X13970000Y-25146000D01*
X12353000Y-25250700D02*
X12732100Y-25629800D01*
%TO.N,Net-(U11-CAP-)*%
X-15136500Y-22530500D02*
X-13942000Y-21336000D01*
X-15136500Y-26035000D02*
X-15136500Y-22530500D01*
X-16459200Y-26035000D02*
X-15136500Y-26035000D01*
%TO.N,Net-(U11-CAP+)*%
X-15136500Y-28575000D02*
X-12982000Y-26420500D01*
X-16459200Y-28575000D02*
X-15136500Y-28575000D01*
X-12982000Y-26420500D02*
X-12982000Y-21336000D01*
%TO.N,Net-(U11-FB{slash}SD)*%
X-15136500Y-29845000D02*
X-9764200Y-29845000D01*
X-4316000Y-27180000D02*
X-3806000Y-26670000D01*
X-3806000Y-25402000D02*
X-3806000Y-26670000D01*
X-4316000Y-29210000D02*
X-3806000Y-29210000D01*
X-3808000Y-25400000D02*
X-3806000Y-25402000D01*
X-9079700Y-30529500D02*
X-5380500Y-30529500D01*
X-4316000Y-29465000D02*
X-4316000Y-29210000D01*
X-16459200Y-29845000D02*
X-15136500Y-29845000D01*
X-9764200Y-29845000D02*
X-9079700Y-30529500D01*
X-4316000Y-29210000D02*
X-4316000Y-27180000D01*
X-5380500Y-30529500D02*
X-4316000Y-29465000D01*
%TO.N,Net-(R4-Pad1)*%
X-8892000Y-13712000D02*
X-8890000Y-13710000D01*
X-10668000Y-13712000D02*
X-8892000Y-13712000D01*
X-4191000Y-17957800D02*
X-7112000Y-15036800D01*
X-8134000Y-13710000D02*
X-8890000Y-13710000D01*
X-7112000Y-14732000D02*
X-8134000Y-13710000D01*
X-7112000Y-15036800D02*
X-7112000Y-14732000D01*
%TO.N,Net-(R4-Pad2)*%
X-14105000Y-14732000D02*
X-16256000Y-16883000D01*
X-16256000Y-18270000D02*
X-16256000Y-16883000D01*
X-10668000Y-14732000D02*
X-14105000Y-14732000D01*
%TO.N,Net-(R5-Pad2)*%
X-12430000Y-18270000D02*
X-13716000Y-18270000D01*
X-8890000Y-14730000D02*
X-12430000Y-18270000D01*
%TO.N,Net-(U7-+IN)*%
X-1651000Y-13030200D02*
X-1651000Y-11872600D01*
X2542000Y-10922000D02*
X3808000Y-10922000D01*
X-1651000Y-11872600D02*
X-1385200Y-11606800D01*
X-1385200Y-11606800D02*
X1857200Y-11606800D01*
X1857200Y-11606800D02*
X2542000Y-10922000D01*
%TO.N,Net-(U8-SEL_B)*%
X12195000Y-28703000D02*
X11684000Y-29214000D01*
X8509000Y-21336000D02*
X8509000Y-23966300D01*
X12195000Y-27652300D02*
X12195000Y-28703000D01*
X11684000Y-29214000D02*
X11684000Y-30226000D01*
X8509000Y-23966300D02*
X12195000Y-27652300D01*
%TO.N,Net-(U9--IN)*%
X4316000Y-14730000D02*
X8636000Y-14730000D01*
X3810000Y-13157200D02*
X3810000Y-14224000D01*
X8636000Y-14730000D02*
X9906000Y-14730000D01*
X3683000Y-13030200D02*
X3810000Y-13157200D01*
X3810000Y-14224000D02*
X4316000Y-14730000D01*
%TO.N,Net-(U11-VREF)*%
X-4826000Y-26670000D02*
X-5459100Y-26670000D01*
X-7416800Y-27305000D02*
X-6094100Y-27305000D01*
X-5459100Y-26670000D02*
X-6094100Y-27305000D01*
%TO.N,Net-(U8-CHA-)*%
X864000Y-32095800D02*
X-381000Y-30850800D01*
X4699000Y-30636000D02*
X4699000Y-31171700D01*
X4699000Y-31171700D02*
X3774900Y-32095800D01*
X-381000Y-30850800D02*
X-381000Y-30636000D01*
X3774900Y-32095800D02*
X864000Y-32095800D01*
X-381000Y-30636000D02*
X-1651000Y-30636000D01*
D40*
%TO.N,VBUS*%
X-6030600Y-29174600D02*
X-4796000Y-27940000D01*
X8312400Y-37229900D02*
X7688400Y-37853900D01*
X-8803000Y-29845000D02*
X-10955500Y-27692500D01*
X7237500Y-37450000D02*
X7284500Y-37450000D01*
X-7416800Y-29845000D02*
X-6030600Y-29845000D01*
X7338000Y-38750000D02*
X7338000Y-39986000D01*
X-6030600Y-29845000D02*
X-6030600Y-29174600D01*
X7688400Y-38399600D02*
X7338000Y-38750000D01*
X7338000Y-38750000D02*
X7237500Y-38750000D01*
X-7416800Y-29845000D02*
X-8803000Y-29845000D01*
X-10160000Y-16764000D02*
X-10160000Y-17283500D01*
X-9398000Y-16002000D02*
X-10160000Y-16764000D01*
X7284500Y-37450000D02*
X7688400Y-37853900D01*
X-10955500Y-27692500D02*
X-10955500Y-18079000D01*
X7688400Y-37853900D02*
X7688400Y-38399600D01*
X-10160000Y-17283500D02*
X-10160000Y-17803000D01*
X8860100Y-37229900D02*
X8312400Y-37229900D01*
X-10955500Y-18079000D02*
X-10160000Y-17283500D01*
D39*
%TO.N,Sensor_GND*%
X6350000Y-38100000D02*
X6350000Y-38650000D01*
X-3361800Y-29532000D02*
X-5405800Y-31576000D01*
X10849600Y-32512000D02*
X9830300Y-33531300D01*
X254000Y-25499300D02*
X4135900Y-29381200D01*
X6350000Y-39958000D02*
X6378000Y-39986000D01*
X6158900Y-35280000D02*
X6158900Y-37450000D01*
X-8297200Y-31576000D02*
X-8750900Y-32029700D01*
X16197100Y-28844700D02*
X14591300Y-28844700D01*
X5826000Y-34280000D02*
X5826000Y-34947100D01*
X4997800Y-34280000D02*
X3550000Y-34280000D01*
X14219400Y-22920600D02*
X9971500Y-18672700D01*
X14591300Y-28844700D02*
X12190000Y-31246000D01*
X10641900Y-13423500D02*
X10119400Y-12901000D01*
X15593800Y-22920600D02*
X14219400Y-22920600D01*
X-3359600Y-24606400D02*
X-3359600Y-27463600D01*
X9906000Y-15750000D02*
X9971500Y-15815500D01*
X3550000Y-34280000D02*
X2976600Y-34280000D01*
X3677500Y-31863300D02*
X3172600Y-31863300D01*
X2159000Y-30849700D02*
X2159000Y-30636000D01*
X12190000Y-32512000D02*
X10849600Y-32512000D01*
X6250000Y-37450000D02*
X6158900Y-37450000D01*
X-7974500Y-33498700D02*
X2195300Y-33498700D01*
X-3359600Y-27463600D02*
X-3836000Y-27940000D01*
X2195300Y-33498700D02*
X2976600Y-34280000D01*
X9184600Y-12763600D02*
X7343000Y-10922000D01*
X16965000Y-21549400D02*
X15593800Y-22920600D01*
X9971500Y-18672700D02*
X9971500Y-15815500D01*
X14219400Y-22920600D02*
X13010000Y-24130000D01*
X6445600Y-34280000D02*
X7638000Y-34280000D01*
X8453700Y-33335700D02*
X5969000Y-30851000D01*
X-4824000Y-23142000D02*
X-3359600Y-24606400D01*
X6350000Y-37550000D02*
X6250000Y-37450000D01*
X9971500Y-15815500D02*
X10641900Y-15145100D01*
X9830300Y-34275700D02*
X9830300Y-33531300D01*
X4949600Y-29381200D02*
X5969000Y-30400600D01*
X9652000Y-12901000D02*
X10119400Y-12901000D01*
X5826000Y-34280000D02*
X6445600Y-34280000D01*
X5969000Y-30851000D02*
X5969000Y-30636000D01*
X4997800Y-34280000D02*
X5826000Y-34280000D01*
X4135900Y-31404900D02*
X3677500Y-31863300D01*
X-381000Y-19115400D02*
X254000Y-19750400D01*
X-381000Y-17957800D02*
X-381000Y-19115400D01*
X7638000Y-34280000D02*
X8128000Y-34770000D01*
X4135900Y-29381200D02*
X4135900Y-31404900D01*
X-8750900Y-32029700D02*
X-10437900Y-30342700D01*
X11684000Y-31246000D02*
X12190000Y-31246000D01*
X17160400Y-27881400D02*
X16197100Y-28844700D01*
X-8750900Y-32029700D02*
X-8750900Y-32722300D01*
X8128000Y-34770000D02*
X9336000Y-34770000D01*
X6350000Y-38650000D02*
X6350000Y-39958000D01*
X9336000Y-34770000D02*
X9830300Y-34275700D01*
X4530000Y-37450000D02*
X4318000Y-37662000D01*
X-3836000Y-27940000D02*
X-3361800Y-28414200D01*
X9652000Y-12901000D02*
X9184600Y-12901000D01*
X-17643200Y-30342700D02*
X-17781900Y-30204000D01*
X5826000Y-34947100D02*
X6158900Y-35280000D01*
X4135900Y-29381200D02*
X4949600Y-29381200D01*
X9184600Y-12901000D02*
X9184600Y-12763600D01*
X-10437900Y-30342700D02*
X-17643200Y-30342700D01*
X6445600Y-35280000D02*
X6158900Y-35280000D01*
X-17781900Y-30204000D02*
X-17781900Y-27305000D01*
X13010000Y-24130000D02*
X13010000Y-25146000D01*
X7237500Y-38100000D02*
X6350000Y-38100000D01*
X10641900Y-15145100D02*
X10641900Y-13423500D01*
X9634700Y-33335700D02*
X8453700Y-33335700D01*
X16965000Y-21082000D02*
X16965000Y-21549400D01*
X-8750900Y-32722300D02*
X-7974500Y-33498700D01*
X254000Y-19750400D02*
X254000Y-25499300D01*
X3172600Y-31863300D02*
X2159000Y-30849700D01*
X15593800Y-22920600D02*
X17160400Y-24487200D01*
X17160400Y-24487200D02*
X17160400Y-27881400D01*
X6158900Y-37450000D02*
X5462500Y-37450000D01*
X5969000Y-30400600D02*
X5969000Y-30636000D01*
X12190000Y-31246000D02*
X12190000Y-32512000D01*
X5462500Y-37450000D02*
X4530000Y-37450000D01*
X-5405800Y-31576000D02*
X-8297200Y-31576000D01*
X9830300Y-33531300D02*
X9634700Y-33335700D01*
X-16459200Y-27305000D02*
X-17781900Y-27305000D01*
X-3361800Y-28414200D02*
X-3361800Y-29532000D01*
%TO.N,-VBUS*%
X-14203200Y-19817600D02*
X-13682200Y-19817600D01*
X-14448000Y-19572800D02*
X-14203200Y-19817600D01*
X-4824000Y-24102000D02*
X-8534900Y-20391100D01*
X-14448000Y-16928900D02*
X-14448000Y-19572800D01*
X-4768000Y-25400000D02*
X-4768000Y-24158000D01*
X-5915000Y-30299000D02*
X-4826000Y-29210000D01*
X-10647600Y-18428000D02*
X-10507600Y-18288000D01*
X-8574000Y-14291700D02*
X-9208400Y-14291700D01*
X-4768000Y-24158000D02*
X-4824000Y-24102000D01*
X-8358700Y-14507000D02*
X-8574000Y-14291700D01*
X-4768000Y-25400000D02*
X-5403000Y-26035000D01*
X-9317500Y-20391100D02*
X-10647600Y-19061000D01*
X-8534900Y-20391100D02*
X-9317500Y-20391100D01*
X-12534500Y-26535200D02*
X-8770700Y-30299000D01*
X-8358700Y-17294700D02*
X-8358700Y-14507000D01*
X-8770700Y-30299000D02*
X-5915000Y-30299000D01*
X-10647600Y-19061000D02*
X-10647600Y-18428000D01*
X-10976600Y-16059900D02*
X-13579000Y-16059900D01*
X-9208400Y-14291700D02*
X-10976600Y-16059900D01*
X-10507600Y-18288000D02*
X-9352000Y-18288000D01*
X-13682200Y-19817600D02*
X-12534500Y-20965300D01*
X-8890000Y-17826000D02*
X-8358700Y-17294700D01*
X-12534500Y-20965300D02*
X-12534500Y-26535200D01*
X-5403000Y-26035000D02*
X-7416800Y-26035000D01*
X-13579000Y-16059900D02*
X-14448000Y-16928900D01*
X-9352000Y-18288000D02*
X-8890000Y-17826000D01*
%TD*%
%TA.AperFunction,Conductor*%
%TO.N,GND*%
G36*
X17699735Y-28566640D02*
G01*
X17754776Y-28607335D01*
X17799315Y-28665379D01*
X17799316Y-28665380D01*
X17799318Y-28665382D01*
X17924759Y-28761636D01*
X18070838Y-28822144D01*
X18149218Y-28832462D01*
X18227599Y-28842782D01*
X18227600Y-28842782D01*
X18227601Y-28842782D01*
X18279854Y-28835902D01*
X18384362Y-28822144D01*
X18530441Y-28761636D01*
X18546011Y-28749688D01*
X18611180Y-28724492D01*
X18679625Y-28738529D01*
X18729616Y-28787342D01*
X18745500Y-28848062D01*
X18745500Y-59621500D01*
X18725815Y-59688539D01*
X18673011Y-59734294D01*
X18621500Y-59745500D01*
X-18621500Y-59745500D01*
X-18688539Y-59725815D01*
X-18734294Y-59673011D01*
X-18745500Y-59621500D01*
X-18745500Y-57000000D01*
X-17859237Y-57000000D01*
X-17840313Y-57264597D01*
X-17783925Y-57523808D01*
X-17691221Y-57772355D01*
X-17691218Y-57772359D01*
X-17691218Y-57772361D01*
X-17645239Y-57856565D01*
X-17564090Y-58005179D01*
X-17405118Y-58217541D01*
X-17217541Y-58405118D01*
X-17005179Y-58564090D01*
X-16772360Y-58691218D01*
X-16772359Y-58691218D01*
X-16772355Y-58691221D01*
X-16523808Y-58783925D01*
X-16523799Y-58783926D01*
X-16523799Y-58783927D01*
X-16346409Y-58822516D01*
X-16264597Y-58840313D01*
X-16040394Y-58856348D01*
X-16000001Y-58859237D01*
X-16000000Y-58859237D01*
X-15999999Y-58859237D01*
X-15959606Y-58856348D01*
X-15735403Y-58840313D01*
X-15735399Y-58840312D01*
X-15735397Y-58840312D01*
X-15476200Y-58783927D01*
X-15476198Y-58783926D01*
X-15476192Y-58783925D01*
X-15227645Y-58691221D01*
X-15227642Y-58691219D01*
X-15227638Y-58691218D01*
X-14994826Y-58564093D01*
X-14994818Y-58564088D01*
X-14782466Y-58405124D01*
X-14782448Y-58405108D01*
X-14594891Y-58217551D01*
X-14594875Y-58217533D01*
X-14435911Y-58005181D01*
X-14435906Y-58005173D01*
X-14315682Y-57785000D01*
X-8510378Y-57785000D01*
X-8490921Y-57970120D01*
X-8433401Y-58147149D01*
X-8340331Y-58308351D01*
X-8215779Y-58446680D01*
X-8065189Y-58556090D01*
X-7983431Y-58592491D01*
X-7895147Y-58631798D01*
X-7895144Y-58631798D01*
X-7895142Y-58631800D01*
X-7713070Y-58670500D01*
X-7713069Y-58670500D01*
X-7526931Y-58670500D01*
X-7526930Y-58670500D01*
X-7344858Y-58631800D01*
X-7344852Y-58631798D01*
X-7174811Y-58556090D01*
X-7174810Y-58556089D01*
X-7024221Y-58446680D01*
X-7024218Y-58446677D01*
X-7024215Y-58446675D01*
X-6914713Y-58325059D01*
X-6899669Y-58308351D01*
X-6806599Y-58147149D01*
X-6806596Y-58147143D01*
X-6749080Y-57970124D01*
X-6749079Y-57970122D01*
X-6729622Y-57785000D01*
X-6749079Y-57599877D01*
X-6749080Y-57599875D01*
X-6806596Y-57422856D01*
X-6806599Y-57422850D01*
X-6899668Y-57261650D01*
X-7024215Y-57123324D01*
X-7024218Y-57123322D01*
X-7174811Y-57013909D01*
X-7344852Y-56938201D01*
X-7344858Y-56938199D01*
X-7495014Y-56906283D01*
X-7526930Y-56899500D01*
X-7713070Y-56899500D01*
X-7751769Y-56907725D01*
X-7895141Y-56938199D01*
X-7895147Y-56938201D01*
X-8065188Y-57013909D01*
X-8065189Y-57013910D01*
X-8215779Y-57123320D01*
X-8215780Y-57123321D01*
X-8215781Y-57123322D01*
X-8215784Y-57123324D01*
X-8291547Y-57207469D01*
X-8340331Y-57261649D01*
X-8433400Y-57422850D01*
X-8433403Y-57422856D01*
X-8457735Y-57497743D01*
X-8490921Y-57599880D01*
X-8510378Y-57785000D01*
X-14315682Y-57785000D01*
X-14308781Y-57772361D01*
X-14216072Y-57523799D01*
X-14159687Y-57264602D01*
X-14140763Y-57000001D01*
X-14140763Y-56999998D01*
X-14159687Y-56735397D01*
X-14216072Y-56476200D01*
X-14308781Y-56227638D01*
X-14435906Y-55994826D01*
X-14435911Y-55994818D01*
X-14594875Y-55782466D01*
X-14594891Y-55782448D01*
X-14782448Y-55594891D01*
X-14782466Y-55594875D01*
X-14994818Y-55435911D01*
X-14994826Y-55435906D01*
X-15227639Y-55308781D01*
X-15227638Y-55308781D01*
X-15476200Y-55216072D01*
X-15735397Y-55159687D01*
X-15999999Y-55140763D01*
X-16000001Y-55140763D01*
X-16264602Y-55159687D01*
X-16523799Y-55216072D01*
X-16523805Y-55216074D01*
X-16523808Y-55216075D01*
X-16672936Y-55271697D01*
X-16772361Y-55308781D01*
X-17005173Y-55435906D01*
X-17005181Y-55435911D01*
X-17217533Y-55594875D01*
X-17217551Y-55594891D01*
X-17405108Y-55782448D01*
X-17405124Y-55782466D01*
X-17564088Y-55994818D01*
X-17564093Y-55994826D01*
X-17691218Y-56227638D01*
X-17691219Y-56227642D01*
X-17691221Y-56227645D01*
X-17783925Y-56476192D01*
X-17840313Y-56735403D01*
X-17859237Y-57000000D01*
X-18745500Y-57000000D01*
X-18745500Y-54378500D01*
X-18725815Y-54311461D01*
X-18673011Y-54265706D01*
X-18621500Y-54254500D01*
X-13037282Y-54254500D01*
X-13013093Y-54256882D01*
X-13000000Y-54259486D01*
X-12999998Y-54259486D01*
X-12900701Y-54239735D01*
X-12900700Y-54239734D01*
X-12900699Y-54239734D01*
X-12858607Y-54211608D01*
X-12816515Y-54183484D01*
X-12782796Y-54133019D01*
X-12760266Y-54099301D01*
X-12760265Y-54099299D01*
X-12760264Y-54099296D01*
X-12744647Y-54020782D01*
X-12744642Y-54020755D01*
X-12740514Y-54000000D01*
X-12743118Y-53986906D01*
X-12745500Y-53962718D01*
X-12745500Y-47498001D01*
X-8733682Y-47498001D01*
X-8727282Y-47546611D01*
X-8713044Y-47654762D01*
X-8652536Y-47800841D01*
X-8556282Y-47926282D01*
X-8430841Y-48022536D01*
X-8284762Y-48083044D01*
X-8180254Y-48096802D01*
X-8128001Y-48103682D01*
X-8128000Y-48103682D01*
X-8127999Y-48103682D01*
X-8049619Y-48093363D01*
X-7971238Y-48083044D01*
X-7825159Y-48022536D01*
X-7699718Y-47926282D01*
X-7699716Y-47926280D01*
X-7699715Y-47926279D01*
X-7659058Y-47873294D01*
X-7602630Y-47832091D01*
X-7532884Y-47827937D01*
X-7471964Y-47862150D01*
X-7446122Y-47901329D01*
X-7443044Y-47908759D01*
X-7443044Y-47908762D01*
X-7382536Y-48054841D01*
X-7286282Y-48180282D01*
X-7160841Y-48276536D01*
X-7014762Y-48337044D01*
X-6910254Y-48350802D01*
X-6858001Y-48357682D01*
X-6858000Y-48357682D01*
X-6857999Y-48357682D01*
X-6748423Y-48343256D01*
X-6701238Y-48337044D01*
X-6555159Y-48276536D01*
X-6429718Y-48180282D01*
X-6333464Y-48054841D01*
X-6272956Y-47908762D01*
X-6272955Y-47908760D01*
X-6252318Y-47752001D01*
X-6252318Y-47751998D01*
X-6272955Y-47595239D01*
X-6272956Y-47595237D01*
X-6333463Y-47449160D01*
X-6429718Y-47323718D01*
X-6555160Y-47227463D01*
X-6701237Y-47166956D01*
X-6701239Y-47166955D01*
X-6857999Y-47146318D01*
X-6858001Y-47146318D01*
X-7014760Y-47166955D01*
X-7014762Y-47166956D01*
X-7152478Y-47224000D01*
X-7160841Y-47227464D01*
X-7286282Y-47323718D01*
X-7299726Y-47341239D01*
X-7326941Y-47376705D01*
X-7383369Y-47417908D01*
X-7453115Y-47422062D01*
X-7514035Y-47387849D01*
X-7539877Y-47348671D01*
X-7603463Y-47195160D01*
X-7699718Y-47069718D01*
X-7825160Y-46973463D01*
X-7971237Y-46912956D01*
X-7971239Y-46912955D01*
X-8127999Y-46892318D01*
X-8128001Y-46892318D01*
X-8284760Y-46912955D01*
X-8284762Y-46912956D01*
X-8430841Y-46973464D01*
X-8556282Y-47069718D01*
X-8652536Y-47195159D01*
X-8713044Y-47341238D01*
X-8716104Y-47364482D01*
X-8733682Y-47497998D01*
X-8733682Y-47498001D01*
X-12745500Y-47498001D01*
X-12745500Y-38069501D01*
X-7230182Y-38069501D01*
X-7230116Y-38070000D01*
X-7209544Y-38226262D01*
X-7149036Y-38372341D01*
X-7052782Y-38497782D01*
X-6927341Y-38594036D01*
X-6781262Y-38654544D01*
X-6676754Y-38668302D01*
X-6624501Y-38675182D01*
X-6624500Y-38675182D01*
X-6624499Y-38675182D01*
X-6546119Y-38664863D01*
X-6467738Y-38654544D01*
X-6321659Y-38594036D01*
X-6196218Y-38497782D01*
X-6113366Y-38389807D01*
X-6056939Y-38348606D01*
X-5987192Y-38344451D01*
X-5926272Y-38378664D01*
X-5916624Y-38389798D01*
X-5833382Y-38498282D01*
X-5707941Y-38594536D01*
X-5561862Y-38655044D01*
X-5457353Y-38668802D01*
X-5405101Y-38675682D01*
X-5405100Y-38675682D01*
X-5405099Y-38675682D01*
X-5325344Y-38665182D01*
X-5248338Y-38655044D01*
X-5102259Y-38594536D01*
X-4976818Y-38498282D01*
X-4880564Y-38372841D01*
X-4871592Y-38351182D01*
X-4820056Y-38226762D01*
X-4820055Y-38226760D01*
X-4799418Y-38070001D01*
X-4799418Y-38069998D01*
X-4800800Y-38059501D01*
X-4510782Y-38059501D01*
X-4509465Y-38069501D01*
X-4490144Y-38216262D01*
X-4429636Y-38362341D01*
X-4333382Y-38487782D01*
X-4207941Y-38584036D01*
X-4061862Y-38644544D01*
X-3982106Y-38655044D01*
X-3905101Y-38665182D01*
X-3905100Y-38665182D01*
X-3905099Y-38665182D01*
X-3824288Y-38654543D01*
X-3748338Y-38644544D01*
X-3602259Y-38584036D01*
X-3476818Y-38487782D01*
X-3380564Y-38362341D01*
X-3320056Y-38216262D01*
X-3320055Y-38216260D01*
X-3299418Y-38059501D01*
X-3299418Y-38059498D01*
X-3320055Y-37902739D01*
X-3320056Y-37902737D01*
X-3380563Y-37756660D01*
X-3476818Y-37631218D01*
X-3602260Y-37534963D01*
X-3748337Y-37474456D01*
X-3748339Y-37474455D01*
X-3905099Y-37453818D01*
X-3905101Y-37453818D01*
X-4061860Y-37474455D01*
X-4061862Y-37474456D01*
X-4202574Y-37532741D01*
X-4207941Y-37534964D01*
X-4333382Y-37631218D01*
X-4429636Y-37756659D01*
X-4490144Y-37902738D01*
X-4491461Y-37912739D01*
X-4510782Y-38059498D01*
X-4510782Y-38059501D01*
X-4800800Y-38059501D01*
X-4820055Y-37913239D01*
X-4820056Y-37913237D01*
X-4880563Y-37767160D01*
X-4976818Y-37641718D01*
X-5102260Y-37545463D01*
X-5248337Y-37484956D01*
X-5248339Y-37484955D01*
X-5405099Y-37464318D01*
X-5405101Y-37464318D01*
X-5561860Y-37484955D01*
X-5561862Y-37484956D01*
X-5706731Y-37544963D01*
X-5707941Y-37545464D01*
X-5833382Y-37641718D01*
X-5916232Y-37749691D01*
X-5972660Y-37790893D01*
X-6042406Y-37795048D01*
X-6103327Y-37760835D01*
X-6112983Y-37749691D01*
X-6196216Y-37641220D01*
X-6196217Y-37641219D01*
X-6196218Y-37641218D01*
X-6321007Y-37545464D01*
X-6321660Y-37544963D01*
X-6467737Y-37484456D01*
X-6467739Y-37484455D01*
X-6624499Y-37463818D01*
X-6624501Y-37463818D01*
X-6781260Y-37484455D01*
X-6781262Y-37484456D01*
X-6903196Y-37534963D01*
X-6927341Y-37544964D01*
X-7052782Y-37641218D01*
X-7149036Y-37766659D01*
X-7209544Y-37912738D01*
X-7209544Y-37912739D01*
X-7230182Y-38069498D01*
X-7230182Y-38069501D01*
X-12745500Y-38069501D01*
X-12745500Y-37037277D01*
X-12743117Y-37013084D01*
X-12741727Y-37006100D01*
X-12740514Y-37000000D01*
X-12740514Y-36999999D01*
X-12740514Y-36999997D01*
X-12760264Y-36900701D01*
X-12760265Y-36900700D01*
X-12816515Y-36816515D01*
X-12900699Y-36760266D01*
X-12900699Y-36760265D01*
X-12974933Y-36745500D01*
X-12999999Y-36740514D01*
X-13000000Y-36740514D01*
X-13013093Y-36743118D01*
X-13037282Y-36745500D01*
X-18621500Y-36745500D01*
X-18688539Y-36725815D01*
X-18734294Y-36673011D01*
X-18745500Y-36621500D01*
X-18745500Y-35684000D01*
X-18725815Y-35616961D01*
X-18673011Y-35571206D01*
X-18621500Y-35560000D01*
X-12129348Y-35560000D01*
X-12062309Y-35579685D01*
X-12016554Y-35632489D01*
X-12006409Y-35667813D01*
X-11990144Y-35791362D01*
X-11929636Y-35937441D01*
X-11833382Y-36062882D01*
X-11707941Y-36159136D01*
X-11561862Y-36219644D01*
X-11457353Y-36233402D01*
X-11405101Y-36240282D01*
X-11405100Y-36240282D01*
X-11405099Y-36240282D01*
X-11283279Y-36224244D01*
X-11248338Y-36219644D01*
X-11102259Y-36159136D01*
X-10976818Y-36062882D01*
X-10880564Y-35937441D01*
X-10820056Y-35791362D01*
X-10818078Y-35776338D01*
X-10789809Y-35712442D01*
X-10731484Y-35673973D01*
X-10711324Y-35669588D01*
X-10655538Y-35662244D01*
X-10509459Y-35601736D01*
X-10509458Y-35601735D01*
X-10509457Y-35601735D01*
X-10488461Y-35585624D01*
X-10423292Y-35560430D01*
X-10412975Y-35560000D01*
X-1636354Y-35560000D01*
X-1569315Y-35579685D01*
X-1523560Y-35632489D01*
X-1513415Y-35667815D01*
X-1511284Y-35684000D01*
X-1496544Y-35795962D01*
X-1436036Y-35942041D01*
X-1339782Y-36067482D01*
X-1214341Y-36163736D01*
X-1068262Y-36224244D01*
X-977910Y-36236139D01*
X-911501Y-36244882D01*
X-911500Y-36244882D01*
X-911499Y-36244882D01*
X-833118Y-36234562D01*
X-754738Y-36224244D01*
X-608659Y-36163736D01*
X-483218Y-36067482D01*
X-386964Y-35942041D01*
X-385058Y-35937441D01*
X-326456Y-35795962D01*
X-326455Y-35795960D01*
X-309585Y-35667815D01*
X-281318Y-35603918D01*
X-222994Y-35565447D01*
X-186646Y-35560000D01*
X892000Y-35560000D01*
X959039Y-35579685D01*
X1004794Y-35632489D01*
X1016000Y-35684000D01*
X1016000Y-35997354D01*
X996315Y-36064393D01*
X990376Y-36072840D01*
X977164Y-36090057D01*
X916656Y-36236137D01*
X916655Y-36236139D01*
X896018Y-36392898D01*
X896018Y-36392901D01*
X916655Y-36549660D01*
X916657Y-36549665D01*
X977161Y-36695736D01*
X977164Y-36695742D01*
X990375Y-36712958D01*
X1015570Y-36778127D01*
X1016000Y-36788445D01*
X1016000Y-41402000D01*
X1931982Y-42317982D01*
X1965466Y-42379303D01*
X1968300Y-42405661D01*
X1968300Y-45387600D01*
X1948615Y-45454639D01*
X1895811Y-45500394D01*
X1828115Y-45510539D01*
X1704901Y-45494318D01*
X1704899Y-45494318D01*
X1548139Y-45514955D01*
X1548137Y-45514956D01*
X1402060Y-45575463D01*
X1276618Y-45671718D01*
X1180363Y-45797160D01*
X1119856Y-45943237D01*
X1119855Y-45943239D01*
X1099218Y-46099998D01*
X1099218Y-46100001D01*
X1119855Y-46256760D01*
X1119856Y-46256762D01*
X1180364Y-46402841D01*
X1276618Y-46528282D01*
X1402059Y-46624536D01*
X1548138Y-46685044D01*
X1626519Y-46695362D01*
X1704899Y-46705682D01*
X1704900Y-46705682D01*
X1828116Y-46689460D01*
X1897150Y-46700225D01*
X1949406Y-46746605D01*
X1968300Y-46812399D01*
X1968300Y-52781275D01*
X1948615Y-52848314D01*
X1931981Y-52868956D01*
X-2116308Y-56917245D01*
X-2177631Y-56950730D01*
X-2247323Y-56945746D01*
X-2254416Y-56942847D01*
X-2264847Y-56938203D01*
X-2264858Y-56938199D01*
X-2415014Y-56906283D01*
X-2446930Y-56899500D01*
X-2633070Y-56899500D01*
X-2671769Y-56907725D01*
X-2815141Y-56938199D01*
X-2815147Y-56938201D01*
X-2985188Y-57013909D01*
X-2985189Y-57013910D01*
X-3135779Y-57123320D01*
X-3135780Y-57123321D01*
X-3135781Y-57123322D01*
X-3135784Y-57123324D01*
X-3211547Y-57207469D01*
X-3260331Y-57261649D01*
X-3353400Y-57422850D01*
X-3353403Y-57422856D01*
X-3377735Y-57497743D01*
X-3410921Y-57599880D01*
X-3430378Y-57785000D01*
X-3410921Y-57970120D01*
X-3384724Y-58050747D01*
X-3357095Y-58135782D01*
X-3355100Y-58205624D01*
X-3391181Y-58265456D01*
X-3453882Y-58296284D01*
X-3475026Y-58298100D01*
X-4071474Y-58298100D01*
X-4138513Y-58278415D01*
X-4159156Y-58261780D01*
X-4214631Y-58206304D01*
X-4248115Y-58144981D01*
X-4244880Y-58080306D01*
X-4209080Y-57970124D01*
X-4209079Y-57970122D01*
X-4189622Y-57785000D01*
X-4209079Y-57599877D01*
X-4209080Y-57599875D01*
X-4266596Y-57422856D01*
X-4266599Y-57422850D01*
X-4359668Y-57261650D01*
X-4484215Y-57123324D01*
X-4484218Y-57123322D01*
X-4634811Y-57013909D01*
X-4804852Y-56938201D01*
X-4804858Y-56938199D01*
X-4955014Y-56906283D01*
X-4986930Y-56899500D01*
X-5173070Y-56899500D01*
X-5211769Y-56907725D01*
X-5355141Y-56938199D01*
X-5355147Y-56938201D01*
X-5525188Y-57013909D01*
X-5525189Y-57013910D01*
X-5675779Y-57123320D01*
X-5675780Y-57123321D01*
X-5675781Y-57123322D01*
X-5675784Y-57123324D01*
X-5751547Y-57207469D01*
X-5800331Y-57261649D01*
X-5893400Y-57422850D01*
X-5893403Y-57422856D01*
X-5917735Y-57497743D01*
X-5950921Y-57599880D01*
X-5970378Y-57785000D01*
X-5950921Y-57970120D01*
X-5893401Y-58147149D01*
X-5800331Y-58308351D01*
X-5675779Y-58446680D01*
X-5525189Y-58556090D01*
X-5443431Y-58592491D01*
X-5355147Y-58631798D01*
X-5355144Y-58631798D01*
X-5355142Y-58631800D01*
X-5173070Y-58670500D01*
X-5173069Y-58670500D01*
X-4986930Y-58670500D01*
X-4804858Y-58631800D01*
X-4794427Y-58627155D01*
X-4725178Y-58617869D01*
X-4661901Y-58647496D01*
X-4656324Y-58652737D01*
X-4486534Y-58822527D01*
X-4482904Y-58826488D01*
X-4457849Y-58856349D01*
X-4424113Y-58875825D01*
X-4424111Y-58875826D01*
X-4419558Y-58878725D01*
X-4387649Y-58901070D01*
X-4387641Y-58901071D01*
X-4381370Y-58903997D01*
X-4368462Y-58909344D01*
X-4361955Y-58911712D01*
X-4361951Y-58911715D01*
X-4323567Y-58918482D01*
X-4318335Y-58919642D01*
X-4280689Y-58929731D01*
X-4241880Y-58926335D01*
X-4236480Y-58926100D01*
X-2232520Y-58926100D01*
X-2227119Y-58926335D01*
X-2188311Y-58929731D01*
X-2150675Y-58919645D01*
X-2145419Y-58918480D01*
X-2107049Y-58911715D01*
X-2107047Y-58911714D01*
X-2100580Y-58909360D01*
X-2087605Y-58903986D01*
X-2081349Y-58901069D01*
X-2049454Y-58878735D01*
X-2049445Y-58878729D01*
X-2044897Y-58875831D01*
X-2011151Y-58856349D01*
X-2011149Y-58856348D01*
X-1986105Y-58826501D01*
X-1982449Y-58822512D01*
X-1258817Y-58098880D01*
X-1251613Y-58083430D01*
X-1240807Y-58064712D01*
X-1231030Y-58050749D01*
X-1231029Y-58050747D01*
X-1226619Y-58034288D01*
X-1219226Y-58013977D01*
X-1212020Y-57998525D01*
X-1210533Y-57981533D01*
X-1206780Y-57960255D01*
X-1202368Y-57943790D01*
X-1202368Y-57943788D01*
X-1203854Y-57926806D01*
X-1203854Y-57905194D01*
X-1202368Y-57888213D01*
X-1202368Y-57888210D01*
X-1205776Y-57875492D01*
X-1210000Y-57843404D01*
X-1210000Y-57785000D01*
X4189622Y-57785000D01*
X4209079Y-57970122D01*
X4209080Y-57970124D01*
X4266596Y-58147143D01*
X4266599Y-58147149D01*
X4359669Y-58308351D01*
X4374713Y-58325059D01*
X4484215Y-58446675D01*
X4484218Y-58446677D01*
X4484221Y-58446680D01*
X4634810Y-58556089D01*
X4634811Y-58556090D01*
X4804852Y-58631798D01*
X4804858Y-58631800D01*
X4986930Y-58670500D01*
X4986931Y-58670500D01*
X5173069Y-58670500D01*
X5173070Y-58670500D01*
X5355142Y-58631800D01*
X5355144Y-58631798D01*
X5355147Y-58631798D01*
X5443431Y-58592491D01*
X5525189Y-58556090D01*
X5675779Y-58446680D01*
X5800331Y-58308351D01*
X5893401Y-58147149D01*
X5950921Y-57970120D01*
X5970378Y-57785000D01*
X6729622Y-57785000D01*
X6749079Y-57970122D01*
X6749080Y-57970124D01*
X6806596Y-58147143D01*
X6806599Y-58147149D01*
X6899669Y-58308351D01*
X6914713Y-58325059D01*
X7024215Y-58446675D01*
X7024218Y-58446677D01*
X7024221Y-58446680D01*
X7174810Y-58556089D01*
X7174811Y-58556090D01*
X7344852Y-58631798D01*
X7344858Y-58631800D01*
X7526930Y-58670500D01*
X7526931Y-58670500D01*
X7713069Y-58670500D01*
X7713070Y-58670500D01*
X7895142Y-58631800D01*
X7895144Y-58631798D01*
X7895147Y-58631798D01*
X7983431Y-58592491D01*
X8065189Y-58556090D01*
X8215779Y-58446680D01*
X8340331Y-58308351D01*
X8433401Y-58147149D01*
X8490921Y-57970120D01*
X8510378Y-57785000D01*
X9269622Y-57785000D01*
X9289079Y-57970122D01*
X9289080Y-57970124D01*
X9346596Y-58147143D01*
X9346599Y-58147149D01*
X9439669Y-58308351D01*
X9454713Y-58325059D01*
X9564215Y-58446675D01*
X9564218Y-58446677D01*
X9564221Y-58446680D01*
X9714810Y-58556089D01*
X9714811Y-58556090D01*
X9884852Y-58631798D01*
X9884858Y-58631800D01*
X10066930Y-58670500D01*
X10066931Y-58670500D01*
X10253069Y-58670500D01*
X10253070Y-58670500D01*
X10435142Y-58631800D01*
X10435144Y-58631798D01*
X10435147Y-58631798D01*
X10523431Y-58592491D01*
X10605189Y-58556090D01*
X10755779Y-58446680D01*
X10880331Y-58308351D01*
X10973401Y-58147149D01*
X11030921Y-57970120D01*
X11050378Y-57785000D01*
X11030921Y-57599880D01*
X10997735Y-57497743D01*
X10973403Y-57422856D01*
X10973400Y-57422850D01*
X10880331Y-57261649D01*
X10831547Y-57207469D01*
X10755784Y-57123324D01*
X10755781Y-57123322D01*
X10755780Y-57123321D01*
X10755779Y-57123320D01*
X10605189Y-57013910D01*
X10605188Y-57013909D01*
X10573950Y-57000001D01*
X14140763Y-57000001D01*
X14159687Y-57264602D01*
X14216072Y-57523799D01*
X14308781Y-57772361D01*
X14435906Y-58005173D01*
X14435911Y-58005181D01*
X14594875Y-58217533D01*
X14594891Y-58217551D01*
X14782448Y-58405108D01*
X14782466Y-58405124D01*
X14994818Y-58564088D01*
X14994826Y-58564093D01*
X15227639Y-58691218D01*
X15227638Y-58691218D01*
X15227642Y-58691219D01*
X15227645Y-58691221D01*
X15476192Y-58783925D01*
X15476198Y-58783926D01*
X15476200Y-58783927D01*
X15735397Y-58840312D01*
X15735399Y-58840312D01*
X15735403Y-58840313D01*
X15959606Y-58856348D01*
X15999999Y-58859237D01*
X16000000Y-58859237D01*
X16000001Y-58859237D01*
X16040394Y-58856348D01*
X16264597Y-58840313D01*
X16346409Y-58822516D01*
X16523799Y-58783927D01*
X16523799Y-58783926D01*
X16523808Y-58783925D01*
X16772355Y-58691221D01*
X16772359Y-58691218D01*
X16772361Y-58691218D01*
X16953166Y-58592491D01*
X17005179Y-58564090D01*
X17217541Y-58405118D01*
X17405118Y-58217541D01*
X17564090Y-58005179D01*
X17645239Y-57856565D01*
X17691218Y-57772361D01*
X17691218Y-57772359D01*
X17691221Y-57772355D01*
X17783925Y-57523808D01*
X17840313Y-57264597D01*
X17859237Y-57000000D01*
X17840313Y-56735403D01*
X17783925Y-56476192D01*
X17691221Y-56227645D01*
X17691219Y-56227642D01*
X17691218Y-56227638D01*
X17564093Y-55994826D01*
X17564088Y-55994818D01*
X17405124Y-55782466D01*
X17405108Y-55782448D01*
X17217551Y-55594891D01*
X17217533Y-55594875D01*
X17005181Y-55435911D01*
X17005173Y-55435906D01*
X16772360Y-55308781D01*
X16772361Y-55308781D01*
X16672936Y-55271697D01*
X16523808Y-55216075D01*
X16523805Y-55216074D01*
X16523799Y-55216072D01*
X16264602Y-55159687D01*
X16000001Y-55140763D01*
X15999999Y-55140763D01*
X15735397Y-55159687D01*
X15476200Y-55216072D01*
X15227638Y-55308781D01*
X14994826Y-55435906D01*
X14994818Y-55435911D01*
X14782466Y-55594875D01*
X14782448Y-55594891D01*
X14594891Y-55782448D01*
X14594875Y-55782466D01*
X14435911Y-55994818D01*
X14435906Y-55994826D01*
X14308781Y-56227638D01*
X14216072Y-56476200D01*
X14159687Y-56735397D01*
X14140763Y-56999998D01*
X14140763Y-57000001D01*
X10573950Y-57000001D01*
X10435147Y-56938201D01*
X10435141Y-56938199D01*
X10291769Y-56907725D01*
X10253070Y-56899500D01*
X10066930Y-56899500D01*
X10035014Y-56906283D01*
X9884858Y-56938199D01*
X9884852Y-56938201D01*
X9714811Y-57013909D01*
X9564218Y-57123322D01*
X9564215Y-57123324D01*
X9439668Y-57261650D01*
X9346599Y-57422850D01*
X9346596Y-57422856D01*
X9289080Y-57599875D01*
X9289079Y-57599877D01*
X9269622Y-57785000D01*
X8510378Y-57785000D01*
X8490921Y-57599880D01*
X8457735Y-57497743D01*
X8433403Y-57422856D01*
X8433400Y-57422850D01*
X8340331Y-57261649D01*
X8291547Y-57207469D01*
X8215784Y-57123324D01*
X8215781Y-57123322D01*
X8215780Y-57123321D01*
X8215779Y-57123320D01*
X8065189Y-57013910D01*
X8065188Y-57013909D01*
X7895147Y-56938201D01*
X7895141Y-56938199D01*
X7751769Y-56907725D01*
X7713070Y-56899500D01*
X7526930Y-56899500D01*
X7495014Y-56906283D01*
X7344858Y-56938199D01*
X7344852Y-56938201D01*
X7174811Y-57013909D01*
X7024218Y-57123322D01*
X7024215Y-57123324D01*
X6899668Y-57261650D01*
X6806599Y-57422850D01*
X6806596Y-57422856D01*
X6749080Y-57599875D01*
X6749079Y-57599877D01*
X6729622Y-57785000D01*
X5970378Y-57785000D01*
X5950921Y-57599880D01*
X5917735Y-57497743D01*
X5893403Y-57422856D01*
X5893400Y-57422850D01*
X5800331Y-57261649D01*
X5751547Y-57207469D01*
X5675784Y-57123324D01*
X5675781Y-57123322D01*
X5675780Y-57123321D01*
X5675779Y-57123320D01*
X5525189Y-57013910D01*
X5525188Y-57013909D01*
X5355147Y-56938201D01*
X5355141Y-56938199D01*
X5211769Y-56907725D01*
X5173070Y-56899500D01*
X4986930Y-56899500D01*
X4955014Y-56906283D01*
X4804858Y-56938199D01*
X4804852Y-56938201D01*
X4634811Y-57013909D01*
X4484218Y-57123322D01*
X4484215Y-57123324D01*
X4359668Y-57261650D01*
X4266599Y-57422850D01*
X4266596Y-57422856D01*
X4209080Y-57599875D01*
X4209079Y-57599877D01*
X4189622Y-57785000D01*
X-1210000Y-57785000D01*
X-1210000Y-57585424D01*
X-1190315Y-57518385D01*
X-1173685Y-57497748D01*
X3004427Y-53319634D01*
X3008388Y-53316004D01*
X3038249Y-53290949D01*
X3057728Y-53257207D01*
X3060625Y-53252658D01*
X3082970Y-53220749D01*
X3082971Y-53220741D01*
X3085897Y-53214470D01*
X3091244Y-53201562D01*
X3093613Y-53195054D01*
X3093612Y-53195054D01*
X3093615Y-53195051D01*
X3100382Y-53156667D01*
X3101542Y-53151435D01*
X3111631Y-53113789D01*
X3108235Y-53074982D01*
X3108000Y-53069579D01*
X3108000Y-51688001D01*
X8471500Y-51688001D01*
X8491415Y-51839278D01*
X8491416Y-51839280D01*
X8549806Y-51980247D01*
X8549807Y-51980249D01*
X8549808Y-51980250D01*
X8642696Y-52101304D01*
X8763750Y-52194192D01*
X8763751Y-52194192D01*
X8763752Y-52194193D01*
X8795686Y-52207420D01*
X8904720Y-52252584D01*
X8961370Y-52260042D01*
X9018019Y-52267500D01*
X9018020Y-52267500D01*
X9093978Y-52267500D01*
X9093980Y-52267500D01*
X9131363Y-52262578D01*
X9200395Y-52273343D01*
X9252652Y-52319722D01*
X9269663Y-52363983D01*
X9282135Y-52434711D01*
X9351623Y-52595804D01*
X9351624Y-52595806D01*
X9351626Y-52595809D01*
X9406278Y-52669218D01*
X9456390Y-52736530D01*
X9590786Y-52849302D01*
X9629921Y-52868956D01*
X9747562Y-52928038D01*
X9747563Y-52928038D01*
X9747567Y-52928040D01*
X9918279Y-52968500D01*
X9918282Y-52968500D01*
X10649701Y-52968500D01*
X10649709Y-52968500D01*
X10780255Y-52953241D01*
X10945117Y-52893237D01*
X11091696Y-52796830D01*
X11212092Y-52669218D01*
X11239392Y-52621933D01*
X15201668Y-52621933D01*
X15217058Y-52709210D01*
X15232135Y-52794711D01*
X15301623Y-52955804D01*
X15301624Y-52955806D01*
X15301626Y-52955809D01*
X15356278Y-53029218D01*
X15406390Y-53096530D01*
X15540786Y-53209302D01*
X15618488Y-53248325D01*
X15697562Y-53288038D01*
X15697563Y-53288038D01*
X15697567Y-53288040D01*
X15868279Y-53328500D01*
X15868282Y-53328500D01*
X16599701Y-53328500D01*
X16599709Y-53328500D01*
X16730255Y-53313241D01*
X16895117Y-53253237D01*
X17041696Y-53156830D01*
X17162092Y-53029218D01*
X17249812Y-52877281D01*
X17300130Y-52709210D01*
X17310331Y-52534065D01*
X17279865Y-52361289D01*
X17210377Y-52200196D01*
X17205907Y-52194192D01*
X17105609Y-52059469D01*
X16971214Y-51946698D01*
X16971212Y-51946697D01*
X16814437Y-51867961D01*
X16814433Y-51867960D01*
X16643721Y-51827500D01*
X15912291Y-51827500D01*
X15811526Y-51839278D01*
X15781743Y-51842759D01*
X15781740Y-51842760D01*
X15616884Y-51902762D01*
X15616880Y-51902764D01*
X15470306Y-51999167D01*
X15470305Y-51999168D01*
X15349910Y-52126778D01*
X15262188Y-52278718D01*
X15211870Y-52446789D01*
X15211869Y-52446794D01*
X15201668Y-52621933D01*
X11239392Y-52621933D01*
X11299812Y-52517281D01*
X11350130Y-52349210D01*
X11360331Y-52174065D01*
X11329865Y-52001289D01*
X11260377Y-51840196D01*
X11259695Y-51839280D01*
X11155609Y-51699469D01*
X11021214Y-51586698D01*
X11021212Y-51586697D01*
X10864437Y-51507961D01*
X10864433Y-51507960D01*
X10693721Y-51467500D01*
X9962291Y-51467500D01*
X9857854Y-51479707D01*
X9831743Y-51482759D01*
X9831737Y-51482761D01*
X9740368Y-51516016D01*
X9670639Y-51520447D01*
X9609584Y-51486476D01*
X9583399Y-51446948D01*
X9562192Y-51395750D01*
X9469304Y-51274696D01*
X9348250Y-51181808D01*
X9348249Y-51181807D01*
X9348247Y-51181806D01*
X9207280Y-51123416D01*
X9207278Y-51123415D01*
X9093981Y-51108500D01*
X9093980Y-51108500D01*
X9018020Y-51108500D01*
X9018019Y-51108500D01*
X8904721Y-51123415D01*
X8904719Y-51123416D01*
X8763752Y-51181806D01*
X8642696Y-51274696D01*
X8549806Y-51395752D01*
X8491416Y-51536719D01*
X8491415Y-51536721D01*
X8471500Y-51687998D01*
X8471500Y-51688001D01*
X3108000Y-51688001D01*
X3108000Y-46758801D01*
X6269618Y-46758801D01*
X6290255Y-46915560D01*
X6290256Y-46915562D01*
X6350764Y-47061641D01*
X6447018Y-47187082D01*
X6572459Y-47283336D01*
X6718538Y-47343844D01*
X6755203Y-47348671D01*
X6875299Y-47364482D01*
X6875300Y-47364482D01*
X6875301Y-47364482D01*
X6927553Y-47357602D01*
X7032062Y-47343844D01*
X7178141Y-47283336D01*
X7303582Y-47187082D01*
X7399836Y-47061641D01*
X7460344Y-46915562D01*
X7480982Y-46758800D01*
X7479376Y-46746605D01*
X7470161Y-46676611D01*
X7480926Y-46607576D01*
X7505419Y-46572743D01*
X7546297Y-46531866D01*
X7590644Y-46487518D01*
X7651969Y-46454034D01*
X7678326Y-46451200D01*
X8544475Y-46451200D01*
X8611514Y-46470885D01*
X8657269Y-46523689D01*
X8667213Y-46592847D01*
X8638188Y-46656403D01*
X8632156Y-46662881D01*
X7541718Y-47753317D01*
X7480395Y-47786802D01*
X7470225Y-47788575D01*
X7427838Y-47794156D01*
X7281760Y-47854663D01*
X7156318Y-47950918D01*
X7060063Y-48076360D01*
X6999556Y-48222438D01*
X6998597Y-48229723D01*
X6970329Y-48293619D01*
X6912004Y-48332089D01*
X6891846Y-48336474D01*
X6840338Y-48343256D01*
X6694260Y-48403763D01*
X6568818Y-48500018D01*
X6472563Y-48625460D01*
X6412056Y-48771537D01*
X6412055Y-48771539D01*
X6391418Y-48928298D01*
X6391418Y-48928301D01*
X6412055Y-49085060D01*
X6412056Y-49085062D01*
X6472564Y-49231141D01*
X6568818Y-49356582D01*
X6694259Y-49452836D01*
X6840338Y-49513344D01*
X6918718Y-49523662D01*
X6997099Y-49533982D01*
X6997100Y-49533982D01*
X6997101Y-49533982D01*
X7049353Y-49527102D01*
X7153862Y-49513344D01*
X7170856Y-49506304D01*
X7209354Y-49500378D01*
X7209101Y-49497477D01*
X7236091Y-49495115D01*
X7258718Y-49493135D01*
X7264120Y-49492900D01*
X12376300Y-49492900D01*
X12443339Y-49512585D01*
X12489094Y-49565389D01*
X12500300Y-49616900D01*
X12500300Y-50240478D01*
X12514832Y-50313535D01*
X12514833Y-50313539D01*
X12514834Y-50313540D01*
X12570199Y-50396401D01*
X12653059Y-50451765D01*
X12653060Y-50451766D01*
X12653064Y-50451767D01*
X12726121Y-50466299D01*
X12726124Y-50466300D01*
X12726126Y-50466300D01*
X13334276Y-50466300D01*
X13334277Y-50466299D01*
X13407340Y-50451766D01*
X13431210Y-50435816D01*
X13497886Y-50414939D01*
X13565266Y-50433423D01*
X13568970Y-50435803D01*
X13592860Y-50451766D01*
X13592862Y-50451766D01*
X13592864Y-50451767D01*
X13665921Y-50466299D01*
X13665924Y-50466300D01*
X13665926Y-50466300D01*
X14274076Y-50466300D01*
X14274077Y-50466299D01*
X14347140Y-50451766D01*
X14371010Y-50435816D01*
X14437686Y-50414939D01*
X14505066Y-50433423D01*
X14508770Y-50435803D01*
X14532660Y-50451766D01*
X14532662Y-50451766D01*
X14532664Y-50451767D01*
X14605721Y-50466299D01*
X14605724Y-50466300D01*
X14605726Y-50466300D01*
X15213876Y-50466300D01*
X15213877Y-50466299D01*
X15286940Y-50451766D01*
X15369801Y-50396401D01*
X15425166Y-50313540D01*
X15439700Y-50240474D01*
X15439700Y-49124326D01*
X15439700Y-49124323D01*
X15439699Y-49124321D01*
X15425167Y-49051264D01*
X15425166Y-49051260D01*
X15369800Y-48968398D01*
X15286942Y-48913034D01*
X15286936Y-48913032D01*
X15285190Y-48912685D01*
X15281742Y-48910881D01*
X15275662Y-48908363D01*
X15275887Y-48907818D01*
X15223282Y-48880296D01*
X15205694Y-48855647D01*
X15204993Y-48856138D01*
X15181494Y-48822579D01*
X15176429Y-48815345D01*
X15173531Y-48810797D01*
X15154049Y-48777051D01*
X15154048Y-48777049D01*
X15124201Y-48752005D01*
X15120212Y-48748349D01*
X14435544Y-48063681D01*
X14402059Y-48002358D01*
X14407043Y-47932666D01*
X14448915Y-47876733D01*
X14514379Y-47852316D01*
X14523225Y-47852000D01*
X14965166Y-47852000D01*
X14965167Y-47852000D01*
X14981189Y-47846167D01*
X15002067Y-47840573D01*
X15018851Y-47837615D01*
X15033617Y-47829089D01*
X15053191Y-47819961D01*
X15069222Y-47814127D01*
X15082281Y-47803168D01*
X15099982Y-47790773D01*
X15114749Y-47782249D01*
X15125710Y-47769184D01*
X15140984Y-47753910D01*
X15154049Y-47742949D01*
X15162573Y-47728182D01*
X15174968Y-47710481D01*
X15185927Y-47697422D01*
X15189662Y-47687158D01*
X15231087Y-47630894D01*
X15281996Y-47607949D01*
X15286940Y-47606966D01*
X15369801Y-47551601D01*
X15425166Y-47468740D01*
X15439700Y-47395674D01*
X15439700Y-46279526D01*
X15439700Y-46279523D01*
X15439699Y-46279521D01*
X15425167Y-46206464D01*
X15425166Y-46206460D01*
X15403314Y-46173756D01*
X15369801Y-46123599D01*
X15314434Y-46086605D01*
X15286939Y-46068233D01*
X15286935Y-46068232D01*
X15213877Y-46053700D01*
X15213874Y-46053700D01*
X14605726Y-46053700D01*
X14605723Y-46053700D01*
X14532664Y-46068232D01*
X14532660Y-46068233D01*
X14449799Y-46123599D01*
X14394433Y-46206460D01*
X14394432Y-46206464D01*
X14379900Y-46279521D01*
X14379900Y-47100000D01*
X14360215Y-47167039D01*
X14307411Y-47212794D01*
X14255900Y-47224000D01*
X13684100Y-47224000D01*
X13617061Y-47204315D01*
X13571306Y-47151511D01*
X13560100Y-47100000D01*
X13560100Y-46279523D01*
X13560099Y-46279521D01*
X13545567Y-46206464D01*
X13545566Y-46206460D01*
X13523714Y-46173756D01*
X13490201Y-46123599D01*
X13490200Y-46123598D01*
X13407342Y-46068235D01*
X13407341Y-46068234D01*
X13407340Y-46068234D01*
X13402389Y-46067249D01*
X13340481Y-46034863D01*
X13310062Y-45988039D01*
X13306328Y-45977779D01*
X13303827Y-45974799D01*
X13295368Y-45964718D01*
X13282971Y-45947012D01*
X13274449Y-45932251D01*
X13261387Y-45921291D01*
X13246108Y-45906012D01*
X13235149Y-45892951D01*
X13235146Y-45892949D01*
X13220381Y-45884424D01*
X13202678Y-45872028D01*
X13189624Y-45861075D01*
X13189625Y-45861075D01*
X13189622Y-45861073D01*
X13189619Y-45861071D01*
X13189616Y-45861070D01*
X13173598Y-45855240D01*
X13154010Y-45846106D01*
X13152676Y-45845336D01*
X13139251Y-45837585D01*
X13139250Y-45837584D01*
X13139249Y-45837584D01*
X13122460Y-45834623D01*
X13101588Y-45829031D01*
X13085567Y-45823200D01*
X13057671Y-45823200D01*
X7513321Y-45823200D01*
X7507918Y-45822964D01*
X7499842Y-45822257D01*
X7469109Y-45819568D01*
X7431484Y-45829650D01*
X7426204Y-45830821D01*
X7387852Y-45837584D01*
X7381421Y-45839924D01*
X7368355Y-45845336D01*
X7362149Y-45848230D01*
X7330248Y-45870567D01*
X7325686Y-45873473D01*
X7291953Y-45892949D01*
X7291950Y-45892951D01*
X7266911Y-45922791D01*
X7263256Y-45926780D01*
X7061355Y-46128680D01*
X7000032Y-46162165D01*
X6957489Y-46163938D01*
X6875301Y-46153118D01*
X6875299Y-46153118D01*
X6718539Y-46173755D01*
X6718537Y-46173756D01*
X6572460Y-46234263D01*
X6447018Y-46330518D01*
X6350763Y-46455960D01*
X6290256Y-46602037D01*
X6290255Y-46602039D01*
X6269618Y-46758798D01*
X6269618Y-46758801D01*
X3108000Y-46758801D01*
X3108000Y-45182101D01*
X5617218Y-45182101D01*
X5637855Y-45338860D01*
X5637856Y-45338862D01*
X5698364Y-45484941D01*
X5794618Y-45610382D01*
X5920059Y-45706636D01*
X6066138Y-45767144D01*
X6144519Y-45777462D01*
X6222899Y-45787782D01*
X6222900Y-45787782D01*
X6222901Y-45787782D01*
X6275154Y-45780902D01*
X6379662Y-45767144D01*
X6525741Y-45706636D01*
X6651182Y-45610382D01*
X6747436Y-45484941D01*
X6807944Y-45338862D01*
X6828582Y-45182100D01*
X6820272Y-45118982D01*
X6807944Y-45025339D01*
X6807944Y-45025338D01*
X6747436Y-44879259D01*
X6651182Y-44753818D01*
X6568926Y-44690701D01*
X7401418Y-44690701D01*
X7422055Y-44847460D01*
X7422056Y-44847462D01*
X7482564Y-44993541D01*
X7578818Y-45118982D01*
X7704259Y-45215236D01*
X7850338Y-45275744D01*
X7928718Y-45286063D01*
X8007099Y-45296382D01*
X8007100Y-45296382D01*
X8007101Y-45296382D01*
X8059353Y-45289502D01*
X8163862Y-45275744D01*
X8309941Y-45215236D01*
X8435382Y-45118982D01*
X8470197Y-45073610D01*
X8526620Y-45032409D01*
X8596366Y-45028254D01*
X8645883Y-45052151D01*
X8669853Y-45071266D01*
X8745736Y-45131782D01*
X8745739Y-45131783D01*
X8745741Y-45131785D01*
X8863392Y-45188442D01*
X8863390Y-45188442D01*
X8990699Y-45217499D01*
X8990704Y-45217499D01*
X8990706Y-45217500D01*
X8990708Y-45217500D01*
X9121292Y-45217500D01*
X9121294Y-45217500D01*
X9121296Y-45217499D01*
X9121300Y-45217499D01*
X9248608Y-45188442D01*
X9366258Y-45131785D01*
X9366258Y-45131784D01*
X9366264Y-45131782D01*
X9468361Y-45050361D01*
X9549782Y-44948264D01*
X9583013Y-44879260D01*
X9606442Y-44830608D01*
X9635499Y-44703300D01*
X9635500Y-44703292D01*
X9635500Y-44536366D01*
X9655185Y-44469327D01*
X9707989Y-44423572D01*
X9777147Y-44413628D01*
X9811012Y-44423572D01*
X9862401Y-44447041D01*
X9862404Y-44447042D01*
X9969917Y-44462500D01*
X9969920Y-44462500D01*
X10642080Y-44462500D01*
X10642083Y-44462500D01*
X10749596Y-44447042D01*
X10749597Y-44447041D01*
X10749599Y-44447041D01*
X10822762Y-44413628D01*
X10881558Y-44386777D01*
X10991196Y-44291775D01*
X11069629Y-44169732D01*
X11110500Y-44030536D01*
X11110500Y-43885464D01*
X11089726Y-43814712D01*
X11069630Y-43746270D01*
X11069630Y-43746269D01*
X11041602Y-43702659D01*
X11002576Y-43641933D01*
X15201668Y-43641933D01*
X15222223Y-43758500D01*
X15232135Y-43814711D01*
X15301623Y-43975804D01*
X15301624Y-43975806D01*
X15301626Y-43975809D01*
X15342370Y-44030537D01*
X15406390Y-44116530D01*
X15540786Y-44229302D01*
X15606726Y-44262418D01*
X15697562Y-44308038D01*
X15697563Y-44308038D01*
X15697567Y-44308040D01*
X15868279Y-44348500D01*
X15868282Y-44348500D01*
X16599701Y-44348500D01*
X16599709Y-44348500D01*
X16730255Y-44333241D01*
X16895117Y-44273237D01*
X17041696Y-44176830D01*
X17162092Y-44049218D01*
X17249812Y-43897281D01*
X17300130Y-43729210D01*
X17310331Y-43554065D01*
X17279865Y-43381289D01*
X17210377Y-43220196D01*
X17105610Y-43079470D01*
X17033747Y-43019170D01*
X16971214Y-42966698D01*
X16971212Y-42966697D01*
X16814437Y-42887961D01*
X16814433Y-42887960D01*
X16643721Y-42847500D01*
X15912291Y-42847500D01*
X15807854Y-42859707D01*
X15781743Y-42862759D01*
X15781740Y-42862760D01*
X15616884Y-42922762D01*
X15616880Y-42922764D01*
X15470306Y-43019167D01*
X15470305Y-43019168D01*
X15349910Y-43146778D01*
X15262188Y-43298718D01*
X15211870Y-43466789D01*
X15211869Y-43466794D01*
X15201668Y-43641933D01*
X11002576Y-43641933D01*
X10991196Y-43624225D01*
X10881558Y-43529223D01*
X10881556Y-43529222D01*
X10749599Y-43468958D01*
X10749595Y-43468957D01*
X10669110Y-43457386D01*
X10642083Y-43453500D01*
X9969917Y-43453500D01*
X9956403Y-43455443D01*
X9862404Y-43468957D01*
X9862400Y-43468958D01*
X9730443Y-43529222D01*
X9730442Y-43529223D01*
X9620803Y-43624226D01*
X9542369Y-43746269D01*
X9542369Y-43746270D01*
X9536512Y-43766217D01*
X9498736Y-43824994D01*
X9435180Y-43854017D01*
X9366021Y-43844072D01*
X9363735Y-43842999D01*
X9248607Y-43787557D01*
X9248609Y-43787557D01*
X9121300Y-43758500D01*
X9121294Y-43758500D01*
X9100875Y-43758500D01*
X9056000Y-43758500D01*
X8990706Y-43758500D01*
X8990699Y-43758500D01*
X8863391Y-43787557D01*
X8745741Y-43844214D01*
X8745739Y-43844216D01*
X8643638Y-43925638D01*
X8562216Y-44027738D01*
X8511658Y-44132724D01*
X8464836Y-44184583D01*
X8397409Y-44202896D01*
X8330785Y-44181848D01*
X8324453Y-44177299D01*
X8309941Y-44166164D01*
X8163862Y-44105656D01*
X8163860Y-44105655D01*
X8007101Y-44085018D01*
X8007099Y-44085018D01*
X7850339Y-44105655D01*
X7850337Y-44105656D01*
X7704260Y-44166163D01*
X7578818Y-44262418D01*
X7482563Y-44387860D01*
X7422056Y-44533937D01*
X7422055Y-44533939D01*
X7401418Y-44690698D01*
X7401418Y-44690701D01*
X6568926Y-44690701D01*
X6525741Y-44657564D01*
X6478509Y-44638000D01*
X6379662Y-44597056D01*
X6379660Y-44597055D01*
X6222901Y-44576418D01*
X6222899Y-44576418D01*
X6066139Y-44597055D01*
X6066137Y-44597056D01*
X5920060Y-44657563D01*
X5794618Y-44753818D01*
X5698363Y-44879260D01*
X5637856Y-45025337D01*
X5637855Y-45025339D01*
X5617218Y-45182098D01*
X5617218Y-45182101D01*
X3108000Y-45182101D01*
X3108000Y-42542000D01*
X3127685Y-42474961D01*
X3180489Y-42429206D01*
X3232000Y-42418000D01*
X10414000Y-42418000D01*
X10414000Y-41653201D01*
X13160418Y-41653201D01*
X13181055Y-41809960D01*
X13181056Y-41809962D01*
X13241564Y-41956041D01*
X13337818Y-42081482D01*
X13463259Y-42177736D01*
X13609338Y-42238244D01*
X13687718Y-42248562D01*
X13766099Y-42258882D01*
X13766100Y-42258882D01*
X13766101Y-42258882D01*
X13818353Y-42252002D01*
X13922862Y-42238244D01*
X14068941Y-42177736D01*
X14194382Y-42081482D01*
X14290636Y-41956041D01*
X14351144Y-41809962D01*
X14371782Y-41653200D01*
X14358143Y-41549601D01*
X15563218Y-41549601D01*
X15583855Y-41706360D01*
X15583856Y-41706362D01*
X15626768Y-41809962D01*
X15644364Y-41852441D01*
X15740618Y-41977882D01*
X15866059Y-42074136D01*
X16012138Y-42134644D01*
X16090519Y-42144962D01*
X16168899Y-42155282D01*
X16168900Y-42155282D01*
X16168901Y-42155282D01*
X16221154Y-42148402D01*
X16325662Y-42134644D01*
X16471741Y-42074136D01*
X16597182Y-41977882D01*
X16693436Y-41852441D01*
X16753944Y-41706362D01*
X16774582Y-41549600D01*
X16753944Y-41392838D01*
X16729041Y-41332716D01*
X16721572Y-41263247D01*
X16752847Y-41200768D01*
X16768110Y-41186892D01*
X16803182Y-41159982D01*
X16899436Y-41034541D01*
X16959944Y-40888462D01*
X16980582Y-40731700D01*
X16973621Y-40678829D01*
X16959944Y-40574939D01*
X16959944Y-40574938D01*
X16899436Y-40428859D01*
X16803182Y-40303418D01*
X16677741Y-40207164D01*
X16531662Y-40146656D01*
X16531660Y-40146655D01*
X16374901Y-40126018D01*
X16374899Y-40126018D01*
X16218139Y-40146655D01*
X16218137Y-40146656D01*
X16072060Y-40207163D01*
X15946618Y-40303418D01*
X15850363Y-40428860D01*
X15789856Y-40574937D01*
X15789855Y-40574939D01*
X15769218Y-40731698D01*
X15769218Y-40731701D01*
X15789855Y-40888460D01*
X15789857Y-40888465D01*
X15814758Y-40948582D01*
X15822227Y-41018051D01*
X15790951Y-41080530D01*
X15775686Y-41094408D01*
X15740619Y-41121316D01*
X15644363Y-41246760D01*
X15583856Y-41392837D01*
X15583855Y-41392839D01*
X15563218Y-41549598D01*
X15563218Y-41549601D01*
X14358143Y-41549601D01*
X14351144Y-41496438D01*
X14290636Y-41350359D01*
X14194382Y-41224918D01*
X14068941Y-41128664D01*
X14051206Y-41121318D01*
X13922862Y-41068156D01*
X13922860Y-41068155D01*
X13766101Y-41047518D01*
X13766099Y-41047518D01*
X13609339Y-41068155D01*
X13609337Y-41068156D01*
X13463260Y-41128663D01*
X13337818Y-41224918D01*
X13241563Y-41350360D01*
X13181056Y-41496437D01*
X13181055Y-41496439D01*
X13160418Y-41653198D01*
X13160418Y-41653201D01*
X10414000Y-41653201D01*
X10414000Y-39949324D01*
X10433685Y-39882285D01*
X10450316Y-39861645D01*
X11338143Y-38973819D01*
X11399467Y-38940334D01*
X11425825Y-38937500D01*
X12333380Y-38937500D01*
X12338780Y-38937735D01*
X12377589Y-38941131D01*
X12415235Y-38931042D01*
X12420467Y-38929882D01*
X12458851Y-38923115D01*
X12458855Y-38923112D01*
X12465362Y-38920744D01*
X12478270Y-38915397D01*
X12484541Y-38912471D01*
X12484549Y-38912470D01*
X12516458Y-38890125D01*
X12521011Y-38887226D01*
X12554749Y-38867749D01*
X12579804Y-38837888D01*
X12583434Y-38833927D01*
X12818827Y-38598534D01*
X12822789Y-38594903D01*
X12852649Y-38569849D01*
X12872125Y-38536114D01*
X12875034Y-38531548D01*
X12897371Y-38499649D01*
X12897372Y-38499643D01*
X12900293Y-38493381D01*
X12905652Y-38480442D01*
X12908014Y-38473952D01*
X12908015Y-38473951D01*
X12914777Y-38435592D01*
X12915945Y-38430322D01*
X12926031Y-38392689D01*
X12922635Y-38353877D01*
X12922400Y-38348476D01*
X12922400Y-38026900D01*
X12942085Y-37959861D01*
X12994889Y-37914106D01*
X13046400Y-37902900D01*
X13943345Y-37902900D01*
X14010384Y-37922585D01*
X14041721Y-37951414D01*
X14048202Y-37959861D01*
X14082518Y-38004582D01*
X14207959Y-38100836D01*
X14354038Y-38161344D01*
X14432418Y-38171662D01*
X14510799Y-38181982D01*
X14510800Y-38181982D01*
X14510801Y-38181982D01*
X14582489Y-38172544D01*
X14667562Y-38161344D01*
X14813641Y-38100836D01*
X14834065Y-38085163D01*
X14899230Y-38059969D01*
X14967676Y-38074006D01*
X14985037Y-38085163D01*
X15020057Y-38112035D01*
X15020058Y-38112035D01*
X15020059Y-38112036D01*
X15166138Y-38172544D01*
X15237827Y-38181982D01*
X15322899Y-38193182D01*
X15322900Y-38193182D01*
X15322901Y-38193182D01*
X15375153Y-38186302D01*
X15479662Y-38172544D01*
X15625741Y-38112036D01*
X15751182Y-38015782D01*
X15847436Y-37890341D01*
X15907944Y-37744262D01*
X15928582Y-37587500D01*
X15924489Y-37556413D01*
X15912157Y-37462738D01*
X15907944Y-37430738D01*
X15847436Y-37284659D01*
X15751182Y-37159218D01*
X15625741Y-37062964D01*
X15598699Y-37051763D01*
X15479662Y-37002456D01*
X15479660Y-37002455D01*
X15322901Y-36981818D01*
X15322899Y-36981818D01*
X15166139Y-37002455D01*
X15166137Y-37002456D01*
X15020057Y-37062964D01*
X14999634Y-37078636D01*
X14934464Y-37103830D01*
X14866019Y-37089791D01*
X14848662Y-37078636D01*
X14813642Y-37051764D01*
X14667562Y-36991256D01*
X14667560Y-36991255D01*
X14510801Y-36970618D01*
X14510799Y-36970618D01*
X14354039Y-36991255D01*
X14354037Y-36991256D01*
X14207960Y-37051763D01*
X14082516Y-37148019D01*
X14044479Y-37197591D01*
X14022383Y-37226387D01*
X13965957Y-37267589D01*
X13924009Y-37274900D01*
X11379221Y-37274900D01*
X11373818Y-37274664D01*
X11365742Y-37273957D01*
X11335009Y-37271268D01*
X11297384Y-37281350D01*
X11292104Y-37282521D01*
X11253752Y-37289284D01*
X11247321Y-37291624D01*
X11234255Y-37297036D01*
X11228049Y-37299930D01*
X11196148Y-37322267D01*
X11191586Y-37325173D01*
X11157853Y-37344649D01*
X11157850Y-37344651D01*
X11132811Y-37374491D01*
X11129156Y-37378480D01*
X10625681Y-37881955D01*
X10564358Y-37915440D01*
X10494667Y-37910456D01*
X10438733Y-37868585D01*
X10414316Y-37803120D01*
X10414000Y-37794274D01*
X10414000Y-37389362D01*
X10433685Y-37322323D01*
X10450319Y-37301681D01*
X10525614Y-37226386D01*
X10921239Y-36830760D01*
X10922813Y-36829244D01*
X14478000Y-33528000D01*
X14478000Y-31693296D01*
X14497685Y-31626257D01*
X14539976Y-31585923D01*
X14544039Y-31583576D01*
X14565468Y-31574698D01*
X14571741Y-31571771D01*
X14571749Y-31571770D01*
X14603658Y-31549425D01*
X14608211Y-31546526D01*
X14615152Y-31542519D01*
X14641949Y-31527049D01*
X14667004Y-31497188D01*
X14670634Y-31493227D01*
X17568722Y-28595139D01*
X17630043Y-28561656D01*
X17699735Y-28566640D01*
G37*
%TD.AperFunction*%
%TD*%
%TA.AperFunction,Conductor*%
%TO.N,Sensor_GND*%
G36*
X5731739Y-33092385D02*
G01*
X5777494Y-33145189D01*
X5788700Y-33196700D01*
X5788700Y-33431677D01*
X5803446Y-33505809D01*
X5803446Y-33554191D01*
X5788700Y-33628322D01*
X5788700Y-33931679D01*
X5803232Y-34004736D01*
X5803233Y-34004740D01*
X5803234Y-34004741D01*
X5858599Y-34087602D01*
X5941247Y-34142825D01*
X5941460Y-34142967D01*
X5941463Y-34142968D01*
X6018957Y-34158383D01*
X6080868Y-34190768D01*
X6115442Y-34251484D01*
X6111702Y-34321253D01*
X6070835Y-34377925D01*
X6018957Y-34401617D01*
X5941463Y-34417031D01*
X5941460Y-34417032D01*
X5858599Y-34472398D01*
X5803233Y-34555259D01*
X5803232Y-34555263D01*
X5788700Y-34628320D01*
X5788700Y-34931677D01*
X5803232Y-35004734D01*
X5803233Y-35004738D01*
X5819974Y-35029792D01*
X5858599Y-35087600D01*
X5930189Y-35135434D01*
X5941460Y-35142965D01*
X5941464Y-35142966D01*
X6014521Y-35157498D01*
X6014524Y-35157499D01*
X6014526Y-35157499D01*
X6876676Y-35157499D01*
X6876677Y-35157498D01*
X6901248Y-35152610D01*
X6949737Y-35142966D01*
X6949738Y-35142965D01*
X6949740Y-35142965D01*
X6949740Y-35142964D01*
X6949883Y-35142906D01*
X6950226Y-35142869D01*
X6961719Y-35140583D01*
X6961923Y-35141610D01*
X7019352Y-35135434D01*
X7081832Y-35166707D01*
X7085021Y-35169784D01*
X7360649Y-35445412D01*
X7364305Y-35449401D01*
X7389349Y-35479248D01*
X7389351Y-35479249D01*
X7423097Y-35498731D01*
X7427645Y-35501629D01*
X7432090Y-35504741D01*
X7459549Y-35523969D01*
X7465805Y-35526886D01*
X7478780Y-35532260D01*
X7485247Y-35534614D01*
X7485249Y-35534615D01*
X7523619Y-35541380D01*
X7528875Y-35542545D01*
X7566511Y-35552631D01*
X7605319Y-35549235D01*
X7610720Y-35549000D01*
X8319637Y-35549000D01*
X8386676Y-35568685D01*
X8407318Y-35585319D01*
X8599681Y-35777681D01*
X8633166Y-35839004D01*
X8636000Y-35865362D01*
X8636000Y-36589893D01*
X8616315Y-36656932D01*
X8563511Y-36702687D01*
X8559462Y-36704450D01*
X8557267Y-36705359D01*
X8557258Y-36705364D01*
X8431816Y-36801619D01*
X8426071Y-36807365D01*
X8424557Y-36805851D01*
X8377241Y-36840390D01*
X8330189Y-36847588D01*
X8328218Y-36847506D01*
X8292784Y-36851923D01*
X8285108Y-36852400D01*
X8281119Y-36852400D01*
X8259227Y-36856052D01*
X8256704Y-36856420D01*
X8203191Y-36863091D01*
X8195634Y-36865341D01*
X8188127Y-36867918D01*
X8140715Y-36893575D01*
X8138439Y-36894747D01*
X8090010Y-36918423D01*
X8083572Y-36923019D01*
X8077330Y-36927878D01*
X8040812Y-36967546D01*
X8039039Y-36969394D01*
X7821553Y-37186879D01*
X7760230Y-37220364D01*
X7690538Y-37215380D01*
X7634605Y-37173508D01*
X7621490Y-37151604D01*
X7617595Y-37143252D01*
X7617593Y-37143249D01*
X7531750Y-37057406D01*
X7531744Y-37057402D01*
X7421729Y-37006102D01*
X7421724Y-37006100D01*
X7421723Y-37006100D01*
X7421720Y-37006099D01*
X7421718Y-37006099D01*
X7371601Y-36999501D01*
X7371596Y-36999500D01*
X7371591Y-36999500D01*
X7371584Y-36999500D01*
X7103407Y-36999500D01*
X7053280Y-37006099D01*
X7053269Y-37006102D01*
X6943255Y-37057402D01*
X6943249Y-37057406D01*
X6857406Y-37143249D01*
X6857402Y-37143255D01*
X6806102Y-37253270D01*
X6806099Y-37253281D01*
X6799501Y-37303398D01*
X6799500Y-37303415D01*
X6799500Y-37596592D01*
X6806099Y-37646719D01*
X6806102Y-37646730D01*
X6857402Y-37756744D01*
X6857406Y-37756750D01*
X6943250Y-37842594D01*
X6943251Y-37842594D01*
X6943255Y-37842597D01*
X7053270Y-37893897D01*
X7053271Y-37893897D01*
X7053277Y-37893900D01*
X7103409Y-37900500D01*
X7149771Y-37900499D01*
X7216809Y-37920182D01*
X7237453Y-37936818D01*
X7274581Y-37973946D01*
X7308066Y-38035269D01*
X7310900Y-38061627D01*
X7310900Y-38175500D01*
X7291215Y-38242539D01*
X7238411Y-38288294D01*
X7186901Y-38299500D01*
X7103408Y-38299500D01*
X7053280Y-38306099D01*
X7053269Y-38306102D01*
X6943255Y-38357402D01*
X6943249Y-38357406D01*
X6857406Y-38443249D01*
X6857402Y-38443255D01*
X6806102Y-38553270D01*
X6806099Y-38553281D01*
X6799501Y-38603398D01*
X6799500Y-38603415D01*
X6799500Y-38896592D01*
X6806099Y-38946719D01*
X6806102Y-38946730D01*
X6857402Y-39056744D01*
X6857406Y-39056750D01*
X6924181Y-39123525D01*
X6957666Y-39184848D01*
X6960500Y-39211206D01*
X6960500Y-39449886D01*
X6940815Y-39516925D01*
X6924183Y-39537566D01*
X6878141Y-39583609D01*
X6821981Y-39693827D01*
X6821981Y-39693828D01*
X6807500Y-39785264D01*
X6807501Y-40035400D01*
X6787817Y-40102439D01*
X6735013Y-40148194D01*
X6683501Y-40159400D01*
X5287125Y-40159400D01*
X5220086Y-40139715D01*
X5199444Y-40123081D01*
X4440206Y-39363843D01*
X4406721Y-39302520D01*
X4411705Y-39232828D01*
X4453577Y-39176895D01*
X4514053Y-39154094D01*
X4513922Y-39153262D01*
X4517958Y-39152622D01*
X4518170Y-39152543D01*
X4518724Y-39152499D01*
X4518734Y-39152499D01*
X4518744Y-39152497D01*
X4518749Y-39152497D01*
X4610170Y-39138018D01*
X4610171Y-39138018D01*
X4610172Y-39138017D01*
X4610175Y-39138017D01*
X4720391Y-39081859D01*
X4807859Y-38994391D01*
X4807862Y-38994383D01*
X4813141Y-38987119D01*
X4868469Y-38944451D01*
X4913463Y-38936000D01*
X4947103Y-38936000D01*
X5014142Y-38955685D01*
X5059486Y-39007597D01*
X5082404Y-39056747D01*
X5082406Y-39056750D01*
X5168250Y-39142594D01*
X5168251Y-39142594D01*
X5168255Y-39142597D01*
X5278270Y-39193897D01*
X5278271Y-39193897D01*
X5278277Y-39193900D01*
X5328409Y-39200500D01*
X5596590Y-39200499D01*
X5596592Y-39200499D01*
X5613300Y-39198299D01*
X5646723Y-39193900D01*
X5646728Y-39193897D01*
X5646730Y-39193897D01*
X5756744Y-39142597D01*
X5756745Y-39142596D01*
X5756750Y-39142594D01*
X5842594Y-39056750D01*
X5893900Y-38946723D01*
X5900500Y-38896591D01*
X5900499Y-38603410D01*
X5900497Y-38603398D01*
X5895797Y-38567689D01*
X5893900Y-38553277D01*
X5876529Y-38516024D01*
X5858521Y-38477404D01*
X5848029Y-38408327D01*
X5858521Y-38372596D01*
X5888641Y-38308000D01*
X5893900Y-38296723D01*
X5900500Y-38246591D01*
X5900499Y-37953410D01*
X5900497Y-37953398D01*
X5896125Y-37920182D01*
X5893900Y-37903277D01*
X5893897Y-37903270D01*
X5893897Y-37903269D01*
X5842597Y-37793255D01*
X5842593Y-37793249D01*
X5756750Y-37707406D01*
X5756744Y-37707402D01*
X5646729Y-37656102D01*
X5646724Y-37656100D01*
X5646723Y-37656100D01*
X5646720Y-37656099D01*
X5646718Y-37656099D01*
X5596601Y-37649501D01*
X5596596Y-37649500D01*
X5596591Y-37649500D01*
X5596584Y-37649500D01*
X5328407Y-37649500D01*
X5278280Y-37656099D01*
X5278269Y-37656102D01*
X5168255Y-37707402D01*
X5168249Y-37707406D01*
X5082406Y-37793249D01*
X5082402Y-37793255D01*
X5031102Y-37903270D01*
X5031099Y-37903281D01*
X5024501Y-37953398D01*
X5024500Y-37953415D01*
X5024500Y-38166887D01*
X5004815Y-38233926D01*
X4952011Y-38279681D01*
X4882853Y-38289625D01*
X4819297Y-38260600D01*
X4812819Y-38254568D01*
X4720396Y-38162145D01*
X4720393Y-38162143D01*
X4720391Y-38162141D01*
X4610175Y-38105983D01*
X4610174Y-38105982D01*
X4610171Y-38105981D01*
X4518735Y-38091500D01*
X4282925Y-38091500D01*
X4215886Y-38071815D01*
X4195244Y-38055181D01*
X3726240Y-37586177D01*
X3692755Y-37524854D01*
X3690982Y-37514681D01*
X3684144Y-37462738D01*
X3623636Y-37316659D01*
X3527382Y-37191218D01*
X3401941Y-37094964D01*
X3349248Y-37073138D01*
X3255862Y-37034456D01*
X3255860Y-37034455D01*
X3099101Y-37013818D01*
X3099099Y-37013818D01*
X2994285Y-37027617D01*
X2925250Y-37016851D01*
X2872994Y-36970471D01*
X2854100Y-36904678D01*
X2854100Y-35897924D01*
X2873785Y-35830885D01*
X2890410Y-35810252D01*
X3008867Y-35691794D01*
X3070186Y-35658312D01*
X3112757Y-35657936D01*
X3112859Y-35656904D01*
X3118922Y-35657501D01*
X3118926Y-35657501D01*
X3981076Y-35657501D01*
X3981077Y-35657500D01*
X4054140Y-35642967D01*
X4137001Y-35587602D01*
X4192366Y-35504741D01*
X4206900Y-35431675D01*
X4206900Y-35128327D01*
X4202367Y-35105541D01*
X4198799Y-35087600D01*
X4192366Y-35055261D01*
X4192365Y-35055259D01*
X4192153Y-35054193D01*
X4192153Y-35005807D01*
X4192365Y-35004740D01*
X4192366Y-35004739D01*
X4206900Y-34931673D01*
X4206900Y-34628325D01*
X4206900Y-34628322D01*
X4206899Y-34628320D01*
X4192367Y-34555263D01*
X4192366Y-34555259D01*
X4179331Y-34535751D01*
X4137001Y-34472398D01*
X4054140Y-34417033D01*
X4054139Y-34417032D01*
X4054135Y-34417031D01*
X3976643Y-34401617D01*
X3914732Y-34369232D01*
X3880158Y-34308516D01*
X3883897Y-34238747D01*
X3924764Y-34182075D01*
X3976643Y-34158383D01*
X4054135Y-34142968D01*
X4054135Y-34142967D01*
X4054140Y-34142967D01*
X4137001Y-34087602D01*
X4192366Y-34004741D01*
X4206900Y-33931675D01*
X4206900Y-33628327D01*
X4206900Y-33628326D01*
X4206900Y-33628324D01*
X4206899Y-33628322D01*
X4192154Y-33554190D01*
X4192154Y-33505807D01*
X4206900Y-33431675D01*
X4206900Y-33196700D01*
X4226585Y-33129661D01*
X4279389Y-33083906D01*
X4330900Y-33072700D01*
X5664700Y-33072700D01*
X5731739Y-33092385D01*
G37*
%TD.AperFunction*%
%TA.AperFunction,Conductor*%
G36*
X4135445Y-22313094D02*
G01*
X4174482Y-22358145D01*
X4220950Y-22449342D01*
X4220951Y-22449343D01*
X4220954Y-22449347D01*
X4310652Y-22539045D01*
X4310654Y-22539046D01*
X4310658Y-22539050D01*
X4423694Y-22596645D01*
X4423698Y-22596647D01*
X4517475Y-22611499D01*
X4517481Y-22611500D01*
X4880518Y-22611499D01*
X4974304Y-22596646D01*
X5087342Y-22539050D01*
X5087342Y-22539049D01*
X5096038Y-22534619D01*
X5097700Y-22537881D01*
X5146298Y-22520531D01*
X5214355Y-22536342D01*
X5241082Y-22556645D01*
X10790756Y-28106320D01*
X10824240Y-28167641D01*
X10819256Y-28237333D01*
X10790755Y-28281680D01*
X9748254Y-29324181D01*
X9686931Y-29357666D01*
X9660575Y-29360500D01*
X9597483Y-29360500D01*
X9518550Y-29373001D01*
X9503696Y-29375354D01*
X9390658Y-29432950D01*
X9390657Y-29432951D01*
X9390652Y-29432954D01*
X9300954Y-29522652D01*
X9300949Y-29522659D01*
X9254483Y-29613852D01*
X9206508Y-29664648D01*
X9138687Y-29681442D01*
X9072552Y-29658904D01*
X9033515Y-29613851D01*
X8987050Y-29522658D01*
X8987047Y-29522655D01*
X8987045Y-29522652D01*
X8897347Y-29432954D01*
X8897344Y-29432952D01*
X8897342Y-29432950D01*
X8810218Y-29388558D01*
X8784301Y-29375352D01*
X8690524Y-29360500D01*
X8327482Y-29360500D01*
X8246519Y-29373323D01*
X8233696Y-29375354D01*
X8120658Y-29432950D01*
X8120656Y-29432951D01*
X8120657Y-29432951D01*
X8120652Y-29432954D01*
X8030954Y-29522652D01*
X8030949Y-29522659D01*
X7984483Y-29613852D01*
X7936508Y-29664648D01*
X7868687Y-29681442D01*
X7802552Y-29658904D01*
X7763515Y-29613851D01*
X7717050Y-29522658D01*
X7717047Y-29522655D01*
X7717045Y-29522652D01*
X7627347Y-29432954D01*
X7627344Y-29432952D01*
X7627342Y-29432950D01*
X7540218Y-29388558D01*
X7514301Y-29375352D01*
X7420524Y-29360500D01*
X7057482Y-29360500D01*
X6976519Y-29373323D01*
X6963696Y-29375354D01*
X6850658Y-29432950D01*
X6850656Y-29432951D01*
X6850657Y-29432951D01*
X6850652Y-29432954D01*
X6760954Y-29522652D01*
X6760951Y-29522657D01*
X6760950Y-29522658D01*
X6756861Y-29530684D01*
X6703352Y-29635698D01*
X6688500Y-29729475D01*
X6688500Y-31542517D01*
X6688832Y-31544611D01*
X6703354Y-31636304D01*
X6760950Y-31749342D01*
X6760952Y-31749344D01*
X6760954Y-31749347D01*
X6850652Y-31839045D01*
X6850654Y-31839046D01*
X6850658Y-31839050D01*
X6962915Y-31896248D01*
X6963698Y-31896647D01*
X7057475Y-31911499D01*
X7057481Y-31911500D01*
X7420518Y-31911499D01*
X7514304Y-31896646D01*
X7627342Y-31839050D01*
X7717050Y-31749342D01*
X7763516Y-31658145D01*
X7811490Y-31607352D01*
X7879311Y-31590557D01*
X7945445Y-31613094D01*
X7984482Y-31658145D01*
X8022860Y-31733464D01*
X8030951Y-31749343D01*
X8030954Y-31749347D01*
X8120652Y-31839045D01*
X8120654Y-31839046D01*
X8120658Y-31839050D01*
X8232915Y-31896248D01*
X8233698Y-31896647D01*
X8327475Y-31911499D01*
X8327481Y-31911500D01*
X8690518Y-31911499D01*
X8784304Y-31896646D01*
X8889708Y-31842939D01*
X8958374Y-31830044D01*
X9023114Y-31856320D01*
X9033681Y-31865744D01*
X9261449Y-32093512D01*
X9265104Y-32097500D01*
X9284950Y-32121151D01*
X9290151Y-32127349D01*
X9302882Y-32134699D01*
X9323883Y-32146824D01*
X9328448Y-32149732D01*
X9333473Y-32153250D01*
X9360351Y-32172071D01*
X9360353Y-32172071D01*
X9360354Y-32172072D01*
X9366607Y-32174988D01*
X9379563Y-32180354D01*
X9386046Y-32182714D01*
X9386047Y-32182714D01*
X9386049Y-32182715D01*
X9424415Y-32189479D01*
X9429671Y-32190644D01*
X9467311Y-32200731D01*
X9506119Y-32197335D01*
X9511520Y-32197100D01*
X10042880Y-32197100D01*
X10048280Y-32197335D01*
X10087089Y-32200731D01*
X10124735Y-32190642D01*
X10129967Y-32189482D01*
X10168351Y-32182715D01*
X10168355Y-32182712D01*
X10174862Y-32180344D01*
X10187770Y-32174997D01*
X10194041Y-32172071D01*
X10194049Y-32172070D01*
X10225958Y-32149725D01*
X10230511Y-32146826D01*
X10264249Y-32127349D01*
X10289304Y-32097488D01*
X10292933Y-32093528D01*
X11359443Y-31027019D01*
X11420767Y-30993534D01*
X11447125Y-30990700D01*
X12071480Y-30990700D01*
X12076880Y-30990935D01*
X12115689Y-30994331D01*
X12153335Y-30984242D01*
X12158567Y-30983082D01*
X12196951Y-30976315D01*
X12196955Y-30976312D01*
X12203462Y-30973944D01*
X12216370Y-30968597D01*
X12222641Y-30965671D01*
X12222649Y-30965670D01*
X12254558Y-30943325D01*
X12259111Y-30940426D01*
X12292849Y-30920949D01*
X12317904Y-30891088D01*
X12321534Y-30887127D01*
X12996321Y-30212340D01*
X13057642Y-30178857D01*
X13127334Y-30183841D01*
X13183267Y-30225713D01*
X13207684Y-30291177D01*
X13208000Y-30300023D01*
X13208000Y-30860407D01*
X13188315Y-30927446D01*
X13182377Y-30935892D01*
X13148564Y-30979958D01*
X13088056Y-31126037D01*
X13088055Y-31126039D01*
X13067418Y-31282798D01*
X13067418Y-31282801D01*
X13078238Y-31364989D01*
X13067472Y-31434024D01*
X13042980Y-31468855D01*
X12489580Y-32022256D01*
X12485591Y-32025911D01*
X12455751Y-32050950D01*
X12455749Y-32050953D01*
X12436273Y-32084686D01*
X12433367Y-32089248D01*
X12411030Y-32121149D01*
X12408136Y-32127355D01*
X12402724Y-32140421D01*
X12400384Y-32146852D01*
X12393621Y-32185204D01*
X12392450Y-32190484D01*
X12382368Y-32228109D01*
X12385764Y-32266912D01*
X12386000Y-32272319D01*
X12386000Y-32573774D01*
X12366315Y-32640813D01*
X12349681Y-32661455D01*
X10126456Y-34884681D01*
X10065133Y-34918166D01*
X10038775Y-34921000D01*
X7775725Y-34921000D01*
X7708686Y-34901315D01*
X7688044Y-34884681D01*
X7372944Y-34569581D01*
X7369288Y-34565591D01*
X7347212Y-34539282D01*
X7344249Y-34535751D01*
X7344248Y-34535750D01*
X7344246Y-34535749D01*
X7310512Y-34516273D01*
X7305949Y-34513366D01*
X7274049Y-34491029D01*
X7267835Y-34488131D01*
X7254794Y-34482730D01*
X7248353Y-34480385D01*
X7209998Y-34473622D01*
X7204715Y-34472451D01*
X7167086Y-34462368D01*
X7133969Y-34465266D01*
X7128281Y-34465764D01*
X7122879Y-34466000D01*
X7060641Y-34466000D01*
X6993602Y-34446315D01*
X6991752Y-34445103D01*
X6949740Y-34417032D01*
X6872242Y-34401617D01*
X6810331Y-34369232D01*
X6775757Y-34308516D01*
X6779497Y-34238747D01*
X6820364Y-34182075D01*
X6872243Y-34158383D01*
X6949738Y-34142968D01*
X6949740Y-34142967D01*
X6989347Y-34116502D01*
X7036569Y-34099895D01*
X7036313Y-34098938D01*
X7038978Y-34098224D01*
X7042727Y-34097730D01*
X7047435Y-34096075D01*
X7057599Y-34095186D01*
X7057649Y-34095766D01*
X7071068Y-34094000D01*
X7074366Y-34094000D01*
X7074367Y-34094000D01*
X7090389Y-34088167D01*
X7111267Y-34082573D01*
X7128051Y-34079615D01*
X7130906Y-34077966D01*
X7144118Y-34072494D01*
X7143914Y-34072056D01*
X7153746Y-34067470D01*
X7153749Y-34067470D01*
X7153750Y-34067468D01*
X7163582Y-34062884D01*
X7163810Y-34063374D01*
X7176122Y-34056963D01*
X7178422Y-34056127D01*
X7191481Y-34045168D01*
X7209182Y-34032773D01*
X7223949Y-34024249D01*
X7234905Y-34011190D01*
X7250190Y-33995905D01*
X7263249Y-33984949D01*
X7264149Y-33983388D01*
X7283852Y-33957710D01*
X7355822Y-33885741D01*
X7417142Y-33852258D01*
X7486834Y-33857242D01*
X7542767Y-33899114D01*
X7567184Y-33964578D01*
X7567500Y-33973414D01*
X7567500Y-33980734D01*
X7567501Y-33980739D01*
X7581981Y-34072170D01*
X7581981Y-34072171D01*
X7581982Y-34072174D01*
X7581983Y-34072175D01*
X7636575Y-34179318D01*
X7638142Y-34182392D01*
X7638145Y-34182396D01*
X7725603Y-34269854D01*
X7725605Y-34269855D01*
X7725609Y-34269859D01*
X7835825Y-34326017D01*
X7835826Y-34326017D01*
X7835828Y-34326018D01*
X7870947Y-34331579D01*
X7927265Y-34340500D01*
X8328734Y-34340499D01*
X8328739Y-34340499D01*
X8328739Y-34340498D01*
X8374454Y-34333258D01*
X8420170Y-34326018D01*
X8420171Y-34326018D01*
X8420172Y-34326017D01*
X8420175Y-34326017D01*
X8530391Y-34269859D01*
X8617859Y-34182391D01*
X8617862Y-34182383D01*
X8623141Y-34175119D01*
X8678469Y-34132451D01*
X8723463Y-34124000D01*
X8740537Y-34124000D01*
X8807576Y-34143685D01*
X8840859Y-34175119D01*
X8846139Y-34182388D01*
X8846141Y-34182391D01*
X8846142Y-34182392D01*
X8846146Y-34182397D01*
X8933603Y-34269854D01*
X8933605Y-34269855D01*
X8933609Y-34269859D01*
X9043825Y-34326017D01*
X9043826Y-34326017D01*
X9043828Y-34326018D01*
X9078947Y-34331579D01*
X9135265Y-34340500D01*
X9536734Y-34340499D01*
X9536739Y-34340499D01*
X9536739Y-34340498D01*
X9582454Y-34333258D01*
X9628170Y-34326018D01*
X9628171Y-34326018D01*
X9628172Y-34326017D01*
X9628175Y-34326017D01*
X9738391Y-34269859D01*
X9825859Y-34182391D01*
X9882017Y-34072175D01*
X9882017Y-34072173D01*
X9882018Y-34072172D01*
X9882018Y-34072171D01*
X9890724Y-34017200D01*
X9896500Y-33980735D01*
X9896499Y-33639266D01*
X9896499Y-33639260D01*
X9882018Y-33547829D01*
X9882018Y-33547828D01*
X9882017Y-33547826D01*
X9882017Y-33547825D01*
X9825859Y-33437609D01*
X9825857Y-33437607D01*
X9825854Y-33437603D01*
X9738396Y-33350145D01*
X9738393Y-33350143D01*
X9738391Y-33350141D01*
X9628175Y-33293983D01*
X9628174Y-33293982D01*
X9628171Y-33293981D01*
X9536735Y-33279500D01*
X9135260Y-33279500D01*
X9135260Y-33279501D01*
X9043829Y-33293981D01*
X9043828Y-33293981D01*
X8933607Y-33350142D01*
X8933603Y-33350145D01*
X8846146Y-33437602D01*
X8840859Y-33444881D01*
X8785531Y-33487549D01*
X8740537Y-33496000D01*
X8723463Y-33496000D01*
X8656424Y-33476315D01*
X8623141Y-33444881D01*
X8617861Y-33437613D01*
X8617859Y-33437609D01*
X8617855Y-33437605D01*
X8617853Y-33437602D01*
X8530396Y-33350145D01*
X8530393Y-33350143D01*
X8530391Y-33350141D01*
X8420175Y-33293983D01*
X8420174Y-33293982D01*
X8420171Y-33293981D01*
X8328735Y-33279500D01*
X8092925Y-33279500D01*
X8025886Y-33259815D01*
X8005244Y-33243181D01*
X7976544Y-33214481D01*
X7972888Y-33210491D01*
X7947848Y-33180650D01*
X7947846Y-33180649D01*
X7914112Y-33161173D01*
X7909549Y-33158266D01*
X7877649Y-33135929D01*
X7871435Y-33133031D01*
X7858394Y-33127630D01*
X7851953Y-33125285D01*
X7813598Y-33118522D01*
X7808315Y-33117351D01*
X7770686Y-33107268D01*
X7737569Y-33110166D01*
X7731881Y-33110664D01*
X7726479Y-33110900D01*
X7554013Y-33110900D01*
X7486974Y-33091215D01*
X7466336Y-33074586D01*
X7430337Y-33038591D01*
X7168744Y-32777024D01*
X6627835Y-32236170D01*
X6624177Y-32232178D01*
X6618147Y-32224993D01*
X6599149Y-32202351D01*
X6596343Y-32200731D01*
X6565402Y-32182867D01*
X6560840Y-32179961D01*
X6528935Y-32157623D01*
X6522664Y-32154700D01*
X6509728Y-32149342D01*
X6503254Y-32146985D01*
X6464884Y-32140219D01*
X6459605Y-32139049D01*
X6440747Y-32133997D01*
X6421973Y-32128968D01*
X6421972Y-32128968D01*
X6383180Y-32132364D01*
X6377770Y-32132600D01*
X5027714Y-32132600D01*
X4960675Y-32112915D01*
X4914920Y-32060111D01*
X4904976Y-31990953D01*
X4934001Y-31927397D01*
X4971419Y-31898115D01*
X4974301Y-31896646D01*
X4974304Y-31896646D01*
X5087342Y-31839050D01*
X5177050Y-31749342D01*
X5234646Y-31636304D01*
X5234646Y-31636302D01*
X5234647Y-31636301D01*
X5245282Y-31569147D01*
X5249500Y-31542519D01*
X5249499Y-29729482D01*
X5234646Y-29635696D01*
X5177050Y-29522658D01*
X5177046Y-29522654D01*
X5177045Y-29522652D01*
X5087347Y-29432954D01*
X5087344Y-29432952D01*
X5087342Y-29432950D01*
X5000218Y-29388558D01*
X4974301Y-29375352D01*
X4880524Y-29360500D01*
X4517482Y-29360500D01*
X4436519Y-29373323D01*
X4423696Y-29375354D01*
X4310658Y-29432950D01*
X4310656Y-29432951D01*
X4310657Y-29432951D01*
X4310652Y-29432954D01*
X4220954Y-29522652D01*
X4220949Y-29522659D01*
X4174483Y-29613852D01*
X4126508Y-29664648D01*
X4058687Y-29681442D01*
X3992552Y-29658904D01*
X3953515Y-29613851D01*
X3907050Y-29522658D01*
X3907047Y-29522655D01*
X3907045Y-29522652D01*
X3817347Y-29432954D01*
X3817344Y-29432952D01*
X3817342Y-29432950D01*
X3704304Y-29375354D01*
X3704303Y-29375353D01*
X3704300Y-29375352D01*
X3676030Y-29370875D01*
X3612895Y-29340945D01*
X3607747Y-29336083D01*
X-1300681Y-24427655D01*
X-1334166Y-24366332D01*
X-1337000Y-24339974D01*
X-1337000Y-22652916D01*
X-1317315Y-22585877D01*
X-1269296Y-22542432D01*
X-1262658Y-22539050D01*
X-1262656Y-22539048D01*
X-1262652Y-22539045D01*
X-1172954Y-22449347D01*
X-1172949Y-22449341D01*
X-1158738Y-22421449D01*
X-1126483Y-22358147D01*
X-1078509Y-22307352D01*
X-1010687Y-22290557D01*
X-944553Y-22313095D01*
X-905517Y-22358145D01*
X-859050Y-22449342D01*
X-769342Y-22539050D01*
X-656304Y-22596646D01*
X-656302Y-22596646D01*
X-656301Y-22596647D01*
X-591487Y-22606912D01*
X-562519Y-22611500D01*
X-199482Y-22611499D01*
X-105696Y-22596646D01*
X7342Y-22539050D01*
X97050Y-22449342D01*
X143516Y-22358145D01*
X191490Y-22307352D01*
X259311Y-22290557D01*
X325445Y-22313094D01*
X364482Y-22358145D01*
X410950Y-22449342D01*
X410951Y-22449343D01*
X410954Y-22449347D01*
X500652Y-22539045D01*
X500654Y-22539046D01*
X500658Y-22539050D01*
X613694Y-22596645D01*
X613698Y-22596647D01*
X707475Y-22611499D01*
X707481Y-22611500D01*
X1070518Y-22611499D01*
X1164304Y-22596646D01*
X1277342Y-22539050D01*
X1367050Y-22449342D01*
X1413516Y-22358145D01*
X1461490Y-22307352D01*
X1529311Y-22290557D01*
X1595445Y-22313094D01*
X1634482Y-22358145D01*
X1680950Y-22449342D01*
X1680951Y-22449343D01*
X1680954Y-22449347D01*
X1770652Y-22539045D01*
X1770654Y-22539046D01*
X1770658Y-22539050D01*
X1883694Y-22596645D01*
X1883698Y-22596647D01*
X1977475Y-22611499D01*
X1977481Y-22611500D01*
X2340518Y-22611499D01*
X2434304Y-22596646D01*
X2547342Y-22539050D01*
X2637050Y-22449342D01*
X2683516Y-22358145D01*
X2731490Y-22307352D01*
X2799311Y-22290557D01*
X2865445Y-22313094D01*
X2904482Y-22358145D01*
X2950950Y-22449342D01*
X2950951Y-22449343D01*
X2950954Y-22449347D01*
X3040652Y-22539045D01*
X3040654Y-22539046D01*
X3040658Y-22539050D01*
X3153694Y-22596645D01*
X3153698Y-22596647D01*
X3247475Y-22611499D01*
X3247481Y-22611500D01*
X3610518Y-22611499D01*
X3704304Y-22596646D01*
X3817342Y-22539050D01*
X3907050Y-22449342D01*
X3953516Y-22358145D01*
X4001490Y-22307352D01*
X4069311Y-22290557D01*
X4135445Y-22313094D01*
G37*
%TD.AperFunction*%
%TA.AperFunction,Conductor*%
G36*
X2836139Y-33092385D02*
G01*
X2881894Y-33145189D01*
X2893100Y-33196700D01*
X2893100Y-33431677D01*
X2907846Y-33505809D01*
X2907846Y-33554191D01*
X2893100Y-33628322D01*
X2893100Y-33931679D01*
X2907632Y-34004736D01*
X2907633Y-34004740D01*
X2907634Y-34004741D01*
X2962999Y-34087602D01*
X3045647Y-34142825D01*
X3045860Y-34142967D01*
X3045863Y-34142968D01*
X3123357Y-34158383D01*
X3185268Y-34190768D01*
X3219842Y-34251484D01*
X3216102Y-34321253D01*
X3175235Y-34377925D01*
X3123357Y-34401617D01*
X3045864Y-34417031D01*
X3045858Y-34417033D01*
X3008829Y-34441775D01*
X2959196Y-34459229D01*
X2959286Y-34459563D01*
X2954935Y-34460728D01*
X2950757Y-34462198D01*
X2948816Y-34462367D01*
X2911187Y-34472449D01*
X2905907Y-34473620D01*
X2867550Y-34480384D01*
X2861128Y-34482721D01*
X2848055Y-34488136D01*
X2841849Y-34491030D01*
X2809948Y-34513367D01*
X2805386Y-34516273D01*
X2771653Y-34535749D01*
X2771650Y-34535751D01*
X2746611Y-34565591D01*
X2742956Y-34569580D01*
X2497681Y-34814855D01*
X2436358Y-34848340D01*
X2366667Y-34843356D01*
X2310733Y-34801485D01*
X2286316Y-34736020D01*
X2286000Y-34727174D01*
X2286000Y-34036000D01*
X2285999Y-34035999D01*
X2068319Y-34253681D01*
X2006996Y-34287166D01*
X1980638Y-34290000D01*
X-275438Y-34290000D01*
X-342477Y-34270315D01*
X-388232Y-34217511D01*
X-398377Y-34149815D01*
X-380918Y-34017201D01*
X-380918Y-34017198D01*
X-401555Y-33860439D01*
X-401556Y-33860437D01*
X-462063Y-33714360D01*
X-558318Y-33588918D01*
X-683760Y-33492663D01*
X-829837Y-33432156D01*
X-829839Y-33432155D01*
X-986599Y-33411518D01*
X-986601Y-33411518D01*
X-1035300Y-33417929D01*
X-1104336Y-33407163D01*
X-1156591Y-33360783D01*
X-1175476Y-33293514D01*
X-1154995Y-33226713D01*
X-1126971Y-33196614D01*
X-1114418Y-33186982D01*
X-1063952Y-33121213D01*
X-1007525Y-33080011D01*
X-965577Y-33072700D01*
X2769100Y-33072700D01*
X2836139Y-33092385D01*
G37*
%TD.AperFunction*%
%TA.AperFunction,Conductor*%
G36*
X-7423461Y-274185D02*
G01*
X-7377706Y-326989D01*
X-7366500Y-378500D01*
X-7366500Y-2502718D01*
X-7368882Y-2526906D01*
X-7371486Y-2540000D01*
X-7367689Y-2559086D01*
X-7367689Y-2559092D01*
X-7360568Y-2594891D01*
X-7351734Y-2639301D01*
X-7295484Y-2723484D01*
X-7211301Y-2779734D01*
X-7211298Y-2779734D01*
X-7211298Y-2779735D01*
X-7112002Y-2799486D01*
X-7112000Y-2799486D01*
X-7098907Y-2796882D01*
X-7074718Y-2794500D01*
X-1136500Y-2794500D01*
X-1069461Y-2814185D01*
X-1023706Y-2866989D01*
X-1012500Y-2918499D01*
X-1012500Y-8572770D01*
X-1009682Y-8608574D01*
X-1001314Y-8637373D01*
X-999249Y-8685255D01*
X-997253Y-8685452D01*
X-997850Y-8691515D01*
X-1017399Y-8890000D01*
X-997850Y-9088485D01*
X-939954Y-9279342D01*
X-939951Y-9279347D01*
X-939951Y-9279348D01*
X-914828Y-9326349D01*
X-845936Y-9455237D01*
X-719410Y-9609410D01*
X-565237Y-9735936D01*
X-389342Y-9829954D01*
X-198485Y-9887850D01*
X0Y-9907399D01*
X198485Y-9887850D01*
X389342Y-9829954D01*
X565237Y-9735936D01*
X719410Y-9609410D01*
X845936Y-9455237D01*
X914828Y-9326349D01*
X939951Y-9279348D01*
X939951Y-9279347D01*
X939954Y-9279342D01*
X997850Y-9088485D01*
X1017399Y-8890000D01*
X997850Y-8691515D01*
X997253Y-8685452D01*
X999249Y-8685255D01*
X1001314Y-8637373D01*
X1009682Y-8608574D01*
X1012500Y-8572770D01*
X1012500Y-4000001D01*
X7140763Y-4000001D01*
X7159687Y-4264602D01*
X7216072Y-4523799D01*
X7308781Y-4772361D01*
X7435906Y-5005173D01*
X7435911Y-5005181D01*
X7594875Y-5217533D01*
X7594891Y-5217551D01*
X7782448Y-5405108D01*
X7782466Y-5405124D01*
X7994818Y-5564088D01*
X7994826Y-5564093D01*
X8227639Y-5691218D01*
X8227638Y-5691218D01*
X8227642Y-5691219D01*
X8227645Y-5691221D01*
X8476192Y-5783925D01*
X8476198Y-5783926D01*
X8476200Y-5783927D01*
X8735397Y-5840312D01*
X8735399Y-5840312D01*
X8735403Y-5840313D01*
X8970540Y-5857130D01*
X8999999Y-5859237D01*
X9000000Y-5859237D01*
X9000001Y-5859237D01*
X9026508Y-5857341D01*
X9264597Y-5840313D01*
X9523808Y-5783925D01*
X9772355Y-5691221D01*
X9772359Y-5691218D01*
X9772361Y-5691218D01*
X9888766Y-5627655D01*
X10005179Y-5564090D01*
X10217541Y-5405118D01*
X10405118Y-5217541D01*
X10564090Y-5005179D01*
X10691221Y-4772355D01*
X10783925Y-4523808D01*
X10840313Y-4264597D01*
X10859237Y-4000000D01*
X10840313Y-3735403D01*
X10783925Y-3476192D01*
X10691221Y-3227645D01*
X10691219Y-3227642D01*
X10691218Y-3227638D01*
X10564093Y-2994826D01*
X10564088Y-2994818D01*
X10405124Y-2782466D01*
X10405108Y-2782448D01*
X10217551Y-2594891D01*
X10217533Y-2594875D01*
X10005181Y-2435911D01*
X10005173Y-2435906D01*
X9772360Y-2308781D01*
X9772361Y-2308781D01*
X9672936Y-2271697D01*
X9523808Y-2216075D01*
X9523805Y-2216074D01*
X9523799Y-2216072D01*
X9264602Y-2159687D01*
X9000001Y-2140763D01*
X8999999Y-2140763D01*
X8735397Y-2159687D01*
X8476200Y-2216072D01*
X8227638Y-2308781D01*
X7994826Y-2435906D01*
X7994818Y-2435911D01*
X7782466Y-2594875D01*
X7782448Y-2594891D01*
X7594891Y-2782448D01*
X7594875Y-2782466D01*
X7435911Y-2994818D01*
X7435906Y-2994826D01*
X7308781Y-3227638D01*
X7216072Y-3476200D01*
X7159687Y-3735397D01*
X7140763Y-3999998D01*
X7140763Y-4000001D01*
X1012500Y-4000001D01*
X1012500Y-2918500D01*
X1032185Y-2851461D01*
X1084989Y-2805706D01*
X1136500Y-2794500D01*
X7074718Y-2794500D01*
X7098907Y-2796882D01*
X7112000Y-2799486D01*
X7112002Y-2799486D01*
X7211298Y-2779735D01*
X7211298Y-2779734D01*
X7211301Y-2779734D01*
X7295484Y-2723484D01*
X7351734Y-2639301D01*
X7360568Y-2594891D01*
X7367689Y-2559092D01*
X7367689Y-2559086D01*
X7371486Y-2540000D01*
X7368882Y-2526906D01*
X7366500Y-2502718D01*
X7366500Y-378500D01*
X7386185Y-311461D01*
X7438989Y-265706D01*
X7490500Y-254500D01*
X18621500Y-254500D01*
X18688539Y-274185D01*
X18734294Y-326989D01*
X18745500Y-378500D01*
X18745500Y-26800000D01*
X18725815Y-26867039D01*
X18673011Y-26912794D01*
X18621500Y-26924000D01*
X18358100Y-26924000D01*
X18291061Y-26904315D01*
X18245306Y-26851511D01*
X18234100Y-26800000D01*
X18234100Y-19777749D01*
X18234100Y-12737495D01*
X18234333Y-12732143D01*
X18237731Y-12693311D01*
X18227644Y-12655671D01*
X18226477Y-12650405D01*
X18219714Y-12612046D01*
X18217358Y-12605573D01*
X18211990Y-12592611D01*
X18209071Y-12586353D01*
X18209071Y-12586351D01*
X18186729Y-12554443D01*
X18183822Y-12549879D01*
X18174007Y-12532880D01*
X18164349Y-12516151D01*
X18164346Y-12516149D01*
X18164346Y-12516148D01*
X18134500Y-12491104D01*
X18130512Y-12487449D01*
X16935834Y-11292771D01*
X16902349Y-11231448D01*
X16907333Y-11161756D01*
X16949205Y-11105823D01*
X16954571Y-11102024D01*
X17001601Y-11070601D01*
X17056966Y-10987740D01*
X17071500Y-10914674D01*
X17071500Y-8425326D01*
X17071500Y-8425323D01*
X17071499Y-8425321D01*
X17056967Y-8352264D01*
X17056966Y-8352260D01*
X17056966Y-8352259D01*
X17001601Y-8269399D01*
X16918740Y-8214034D01*
X16918739Y-8214033D01*
X16918735Y-8214032D01*
X16845677Y-8199500D01*
X16845674Y-8199500D01*
X15666326Y-8199500D01*
X15666323Y-8199500D01*
X15593264Y-8214032D01*
X15593260Y-8214033D01*
X15510399Y-8269399D01*
X15455033Y-8352260D01*
X15455032Y-8352264D01*
X15440500Y-8425321D01*
X15440500Y-10619000D01*
X15420815Y-10686039D01*
X15368011Y-10731794D01*
X15316500Y-10743000D01*
X15281725Y-10743000D01*
X15214686Y-10723315D01*
X15194044Y-10706681D01*
X14567819Y-10080455D01*
X14534334Y-10019132D01*
X14531500Y-9992774D01*
X14531500Y-8425323D01*
X14531499Y-8425321D01*
X14516967Y-8352264D01*
X14516966Y-8352260D01*
X14516966Y-8352259D01*
X14461601Y-8269399D01*
X14378740Y-8214034D01*
X14378739Y-8214033D01*
X14378735Y-8214032D01*
X14305677Y-8199500D01*
X14305674Y-8199500D01*
X13126326Y-8199500D01*
X13126323Y-8199500D01*
X13053264Y-8214032D01*
X13053260Y-8214033D01*
X12970399Y-8269399D01*
X12915033Y-8352260D01*
X12915032Y-8352264D01*
X12900500Y-8425321D01*
X12900500Y-9233300D01*
X12880815Y-9300339D01*
X12828011Y-9346094D01*
X12776500Y-9357300D01*
X10521125Y-9357300D01*
X10454086Y-9337615D01*
X10433444Y-9320981D01*
X10353044Y-9240581D01*
X10349388Y-9236591D01*
X10324348Y-9206750D01*
X10324346Y-9206749D01*
X10290612Y-9187273D01*
X10286049Y-9184366D01*
X10255777Y-9163169D01*
X10212152Y-9108592D01*
X10202900Y-9061594D01*
X10202900Y-8870723D01*
X10202899Y-8870721D01*
X10188367Y-8797664D01*
X10188366Y-8797660D01*
X10188365Y-8797659D01*
X10133001Y-8714799D01*
X10050140Y-8659434D01*
X10050139Y-8659433D01*
X10050135Y-8659432D01*
X9977077Y-8644900D01*
X9977074Y-8644900D01*
X9326926Y-8644900D01*
X9326923Y-8644900D01*
X9253864Y-8659432D01*
X9253860Y-8659433D01*
X9170999Y-8714799D01*
X9115633Y-8797660D01*
X9115632Y-8797664D01*
X9101100Y-8870721D01*
X9101100Y-10031278D01*
X9115632Y-10104335D01*
X9115633Y-10104339D01*
X9115634Y-10104340D01*
X9170999Y-10187201D01*
X9253859Y-10242565D01*
X9253860Y-10242566D01*
X9253864Y-10242567D01*
X9326921Y-10257099D01*
X9326924Y-10257100D01*
X9326926Y-10257100D01*
X9977076Y-10257100D01*
X9977077Y-10257099D01*
X10050140Y-10242566D01*
X10133001Y-10187201D01*
X10188366Y-10104340D01*
X10191393Y-10089118D01*
X10223776Y-10027208D01*
X10284491Y-9992632D01*
X10302204Y-9989780D01*
X10311910Y-9988930D01*
X10311911Y-9988931D01*
X10350712Y-9985535D01*
X10356117Y-9985300D01*
X12776500Y-9985300D01*
X12843539Y-10004985D01*
X12889294Y-10057789D01*
X12900500Y-10109300D01*
X12900500Y-10914678D01*
X12915032Y-10987735D01*
X12915033Y-10987739D01*
X12915034Y-10987740D01*
X12970399Y-11070601D01*
X13053043Y-11125821D01*
X13053260Y-11125966D01*
X13053264Y-11125967D01*
X13126321Y-11140499D01*
X13126324Y-11140500D01*
X13126326Y-11140500D01*
X14305676Y-11140500D01*
X14305677Y-11140499D01*
X14378740Y-11125966D01*
X14461601Y-11070601D01*
X14461603Y-11070597D01*
X14470237Y-11061965D01*
X14471202Y-11062930D01*
X14514667Y-11026600D01*
X14583992Y-11017887D01*
X14647022Y-11048036D01*
X14651848Y-11052611D01*
X14866649Y-11267412D01*
X14870304Y-11271400D01*
X14895348Y-11301246D01*
X14895351Y-11301249D01*
X14912080Y-11310907D01*
X14929079Y-11320722D01*
X14933643Y-11323629D01*
X14965551Y-11345971D01*
X14965553Y-11345971D01*
X14971811Y-11348890D01*
X14984773Y-11354258D01*
X14991246Y-11356614D01*
X14991247Y-11356614D01*
X14991249Y-11356615D01*
X15029615Y-11363379D01*
X15034871Y-11364544D01*
X15072511Y-11374631D01*
X15111319Y-11371235D01*
X15116720Y-11371000D01*
X16074575Y-11371000D01*
X16141614Y-11390685D01*
X16162256Y-11407319D01*
X17569782Y-12814845D01*
X17603266Y-12876166D01*
X17606100Y-12902524D01*
X17606100Y-19812475D01*
X17586415Y-19879514D01*
X17533611Y-19925269D01*
X17464453Y-19935213D01*
X17400897Y-19906188D01*
X17394419Y-19900156D01*
X17107361Y-19613098D01*
X17073876Y-19551775D01*
X17072075Y-19520767D01*
X17071500Y-19520767D01*
X17071500Y-17025323D01*
X17071499Y-17025321D01*
X17056967Y-16952264D01*
X17056966Y-16952260D01*
X17048715Y-16939912D01*
X17001601Y-16869399D01*
X16946235Y-16832405D01*
X16918739Y-16814033D01*
X16918735Y-16814032D01*
X16845677Y-16799500D01*
X16845674Y-16799500D01*
X15666326Y-16799500D01*
X15666323Y-16799500D01*
X15593264Y-16814032D01*
X15593260Y-16814033D01*
X15510399Y-16869399D01*
X15455033Y-16952260D01*
X15455032Y-16952264D01*
X15440500Y-17025321D01*
X15440500Y-19514678D01*
X15455032Y-19587735D01*
X15455033Y-19587739D01*
X15455034Y-19587740D01*
X15510399Y-19670601D01*
X15593259Y-19725965D01*
X15593260Y-19725966D01*
X15593264Y-19725967D01*
X15666321Y-19740499D01*
X15666324Y-19740500D01*
X15666326Y-19740500D01*
X15865414Y-19740500D01*
X15932453Y-19760185D01*
X15973509Y-19807566D01*
X15974448Y-19807025D01*
X15977259Y-19811894D01*
X15978208Y-19812989D01*
X15978980Y-19814875D01*
X15979871Y-19816418D01*
X15979873Y-19816422D01*
X15979875Y-19816424D01*
X15990828Y-19829478D01*
X16003224Y-19847181D01*
X16011749Y-19861946D01*
X16011751Y-19861949D01*
X16024812Y-19872908D01*
X16040091Y-19888187D01*
X16051051Y-19901249D01*
X16065812Y-19909771D01*
X16083518Y-19922168D01*
X16096578Y-19933127D01*
X16112600Y-19938958D01*
X16132188Y-19948093D01*
X16146945Y-19956613D01*
X16146946Y-19956613D01*
X16146949Y-19956615D01*
X16146953Y-19956615D01*
X16146954Y-19956616D01*
X16163734Y-19959575D01*
X16184616Y-19965170D01*
X16200633Y-19971000D01*
X16228529Y-19971000D01*
X16525775Y-19971000D01*
X16592814Y-19990685D01*
X16613456Y-20007319D01*
X17337282Y-20731145D01*
X17370766Y-20792466D01*
X17373600Y-20818824D01*
X17373600Y-26800000D01*
X17353915Y-26867039D01*
X17301111Y-26912794D01*
X17249600Y-26924000D01*
X17032129Y-26924000D01*
X16965090Y-26904315D01*
X16919335Y-26851511D01*
X16914198Y-26838317D01*
X16901748Y-26800000D01*
X16896211Y-26782957D01*
X16789204Y-26584106D01*
X16714673Y-26490647D01*
X16648413Y-26407560D01*
X16617020Y-26380133D01*
X16478357Y-26258986D01*
X16478355Y-26258984D01*
X16391248Y-26206940D01*
X16343794Y-26155657D01*
X16331600Y-26086860D01*
X16358536Y-26022391D01*
X16392850Y-25993105D01*
X16402649Y-25987449D01*
X16427704Y-25957588D01*
X16431334Y-25953627D01*
X16681327Y-25703634D01*
X16685288Y-25700004D01*
X16715149Y-25674949D01*
X16734628Y-25641207D01*
X16737525Y-25636658D01*
X16759870Y-25604749D01*
X16759871Y-25604741D01*
X16762797Y-25598470D01*
X16768144Y-25585562D01*
X16770513Y-25579054D01*
X16770512Y-25579054D01*
X16770515Y-25579051D01*
X16777282Y-25540667D01*
X16778442Y-25535435D01*
X16788531Y-25497789D01*
X16785135Y-25458982D01*
X16784900Y-25453579D01*
X16784900Y-24585315D01*
X16785136Y-24579907D01*
X16786716Y-24561859D01*
X16788531Y-24541110D01*
X16778443Y-24503464D01*
X16777277Y-24498201D01*
X16773079Y-24474391D01*
X16770515Y-24459849D01*
X16770512Y-24459843D01*
X16768157Y-24453373D01*
X16762786Y-24440405D01*
X16759869Y-24434149D01*
X16737534Y-24402253D01*
X16734631Y-24397697D01*
X16715276Y-24364171D01*
X16715148Y-24363949D01*
X16715147Y-24363948D01*
X16685302Y-24338905D01*
X16681323Y-24335260D01*
X16588815Y-24242752D01*
X16555333Y-24181434D01*
X16552500Y-24155084D01*
X16552500Y-23908418D01*
X16541582Y-23833482D01*
X16524761Y-23799074D01*
X16485078Y-23717900D01*
X16485076Y-23717897D01*
X16394102Y-23626923D01*
X16394099Y-23626921D01*
X16278521Y-23570419D01*
X16278519Y-23570418D01*
X16278518Y-23570418D01*
X16203582Y-23559500D01*
X15860418Y-23559500D01*
X15785482Y-23570418D01*
X15785480Y-23570418D01*
X15785478Y-23570419D01*
X15669900Y-23626921D01*
X15669897Y-23626923D01*
X15609681Y-23687140D01*
X15548358Y-23720625D01*
X15478666Y-23715641D01*
X15434319Y-23687140D01*
X15374102Y-23626923D01*
X15374099Y-23626921D01*
X15258521Y-23570419D01*
X15258519Y-23570418D01*
X15258518Y-23570418D01*
X15183582Y-23559500D01*
X14840418Y-23559500D01*
X14765482Y-23570418D01*
X14765480Y-23570418D01*
X14765478Y-23570419D01*
X14649900Y-23626921D01*
X14649897Y-23626923D01*
X14577217Y-23699604D01*
X14515894Y-23733089D01*
X14446202Y-23728105D01*
X14401855Y-23699604D01*
X14342396Y-23640145D01*
X14342393Y-23640143D01*
X14342391Y-23640141D01*
X14232175Y-23583983D01*
X14232174Y-23583982D01*
X14232171Y-23583981D01*
X14140735Y-23569500D01*
X13799260Y-23569500D01*
X13799260Y-23569501D01*
X13707829Y-23583981D01*
X13707828Y-23583981D01*
X13597607Y-23640142D01*
X13597603Y-23640145D01*
X13510145Y-23727603D01*
X13510142Y-23727608D01*
X13510141Y-23727609D01*
X13509125Y-23729603D01*
X13453981Y-23837827D01*
X13453981Y-23837828D01*
X13439500Y-23929264D01*
X13439500Y-24330739D01*
X13453981Y-24422170D01*
X13453981Y-24422171D01*
X13453982Y-24422174D01*
X13453983Y-24422175D01*
X13498928Y-24510385D01*
X13510142Y-24532392D01*
X13510146Y-24532397D01*
X13528069Y-24550321D01*
X13561553Y-24611644D01*
X13556567Y-24681336D01*
X13528069Y-24725679D01*
X13510146Y-24743602D01*
X13510142Y-24743608D01*
X13510141Y-24743609D01*
X13504314Y-24755045D01*
X13453981Y-24853827D01*
X13453981Y-24853828D01*
X13439500Y-24945264D01*
X13439500Y-25181073D01*
X13419815Y-25248112D01*
X13403185Y-25268750D01*
X13392459Y-25279477D01*
X13331138Y-25312965D01*
X13304774Y-25315800D01*
X12913525Y-25315800D01*
X12846486Y-25296115D01*
X12825844Y-25279481D01*
X12703318Y-25156955D01*
X12669833Y-25095632D01*
X12666999Y-25069274D01*
X12666999Y-23359463D01*
X12666999Y-21720282D01*
X12686684Y-21653247D01*
X12739488Y-21607492D01*
X12808646Y-21597548D01*
X12859886Y-21617181D01*
X12861658Y-21618365D01*
X12861659Y-21618365D01*
X12861660Y-21618366D01*
X12861662Y-21618366D01*
X12861664Y-21618367D01*
X12934721Y-21632899D01*
X12934724Y-21632900D01*
X12934726Y-21632900D01*
X14095276Y-21632900D01*
X14095277Y-21632899D01*
X14168340Y-21618366D01*
X14251201Y-21563001D01*
X14306566Y-21480140D01*
X14321100Y-21407074D01*
X14321100Y-20756926D01*
X14321100Y-20756925D01*
X14321100Y-20756923D01*
X14321099Y-20756921D01*
X14306567Y-20683864D01*
X14306566Y-20683860D01*
X14276473Y-20638822D01*
X14251201Y-20600999D01*
X14168340Y-20545634D01*
X14168339Y-20545633D01*
X14168336Y-20545632D01*
X14131756Y-20538356D01*
X14069845Y-20505971D01*
X14035271Y-20445255D01*
X14032420Y-20427546D01*
X14030236Y-20402585D01*
X14030000Y-20397179D01*
X14030000Y-19864500D01*
X14049685Y-19797461D01*
X14102489Y-19751706D01*
X14154000Y-19740500D01*
X14305676Y-19740500D01*
X14305677Y-19740499D01*
X14378740Y-19725966D01*
X14461601Y-19670601D01*
X14516966Y-19587740D01*
X14531500Y-19514674D01*
X14531500Y-17025326D01*
X14531500Y-17025325D01*
X14531500Y-17025323D01*
X14531499Y-17025321D01*
X14516967Y-16952264D01*
X14516966Y-16952260D01*
X14508715Y-16939912D01*
X14461601Y-16869399D01*
X14406235Y-16832405D01*
X14378739Y-16814033D01*
X14378735Y-16814032D01*
X14305677Y-16799500D01*
X14305674Y-16799500D01*
X13126326Y-16799500D01*
X13126323Y-16799500D01*
X13053264Y-16814032D01*
X13053260Y-16814033D01*
X12970399Y-16869399D01*
X12915033Y-16952260D01*
X12915032Y-16952264D01*
X12900500Y-17025321D01*
X12900500Y-19514678D01*
X12915032Y-19587735D01*
X12915033Y-19587739D01*
X12915034Y-19587740D01*
X12970399Y-19670601D01*
X13053259Y-19725965D01*
X13053260Y-19725966D01*
X13053264Y-19725967D01*
X13126321Y-19740499D01*
X13126324Y-19740500D01*
X13126326Y-19740500D01*
X13278000Y-19740500D01*
X13345039Y-19760185D01*
X13390794Y-19812989D01*
X13402000Y-19864500D01*
X13401999Y-20232174D01*
X13382314Y-20299214D01*
X13365680Y-20319855D01*
X13304584Y-20380952D01*
X13300596Y-20384606D01*
X13270752Y-20409649D01*
X13270749Y-20409653D01*
X13251273Y-20443386D01*
X13248368Y-20447947D01*
X13232947Y-20469971D01*
X13228195Y-20476760D01*
X13227173Y-20478219D01*
X13172598Y-20521846D01*
X13125595Y-20531100D01*
X12934723Y-20531100D01*
X12861664Y-20545632D01*
X12861660Y-20545633D01*
X12778799Y-20600999D01*
X12723433Y-20683860D01*
X12723432Y-20683864D01*
X12708900Y-20756921D01*
X12708900Y-21117175D01*
X12689215Y-21184214D01*
X12636411Y-21229969D01*
X12567253Y-21239913D01*
X12503697Y-21210888D01*
X12497219Y-21204856D01*
X9735619Y-18443256D01*
X9702134Y-18381933D01*
X9699300Y-18355575D01*
X9699300Y-15685125D01*
X9718985Y-15618086D01*
X9735619Y-15597444D01*
X9742744Y-15590319D01*
X9804067Y-15556834D01*
X9830425Y-15554000D01*
X10133980Y-15554000D01*
X10139380Y-15554235D01*
X10178189Y-15557631D01*
X10215835Y-15547542D01*
X10221067Y-15546382D01*
X10259451Y-15539615D01*
X10259455Y-15539612D01*
X10265962Y-15537244D01*
X10278870Y-15531897D01*
X10285141Y-15528971D01*
X10285149Y-15528970D01*
X10317058Y-15506625D01*
X10321611Y-15503726D01*
X10322041Y-15503478D01*
X10355349Y-15484249D01*
X10380404Y-15454388D01*
X10384034Y-15450427D01*
X10621727Y-15212734D01*
X10625688Y-15209104D01*
X10655549Y-15184049D01*
X10675028Y-15150307D01*
X10677925Y-15145758D01*
X10700270Y-15113849D01*
X10700271Y-15113841D01*
X10703197Y-15107570D01*
X10708547Y-15094655D01*
X10710913Y-15088155D01*
X10710913Y-15088154D01*
X10710915Y-15088151D01*
X10717682Y-15049767D01*
X10718846Y-15044523D01*
X10728931Y-15006890D01*
X10725535Y-14968086D01*
X10725300Y-14962683D01*
X10725300Y-14497819D01*
X10725536Y-14492412D01*
X10728931Y-14453611D01*
X10718845Y-14415975D01*
X10717680Y-14410719D01*
X10710915Y-14372349D01*
X10710914Y-14372347D01*
X10708560Y-14365880D01*
X10703186Y-14352905D01*
X10700269Y-14346649D01*
X10690128Y-14332167D01*
X10677929Y-14314745D01*
X10675031Y-14310197D01*
X10655549Y-14276451D01*
X10655548Y-14276449D01*
X10625701Y-14251405D01*
X10621712Y-14247749D01*
X10351344Y-13977381D01*
X10347688Y-13973391D01*
X10322648Y-13943550D01*
X10322646Y-13943549D01*
X10288912Y-13924073D01*
X10284349Y-13921166D01*
X10252449Y-13898829D01*
X10246235Y-13895931D01*
X10233194Y-13890530D01*
X10226753Y-13888185D01*
X10188398Y-13881422D01*
X10183115Y-13880251D01*
X10145486Y-13870168D01*
X10112369Y-13873066D01*
X10106681Y-13873564D01*
X10101279Y-13873800D01*
X6876900Y-13873800D01*
X6809861Y-13854115D01*
X6764106Y-13801311D01*
X6752900Y-13749800D01*
X6752900Y-12014923D01*
X6752899Y-12014921D01*
X6738367Y-11941864D01*
X6738366Y-11941860D01*
X6730518Y-11930115D01*
X6683001Y-11858999D01*
X6602840Y-11805438D01*
X6600142Y-11803635D01*
X6600141Y-11803634D01*
X6600140Y-11803634D01*
X6595189Y-11802649D01*
X6533281Y-11770263D01*
X6502862Y-11723439D01*
X6499128Y-11713179D01*
X6493064Y-11705953D01*
X6488168Y-11700118D01*
X6475775Y-11682419D01*
X6471891Y-11675692D01*
X6455420Y-11607795D01*
X6478273Y-11541768D01*
X6533195Y-11498578D01*
X6559882Y-11491222D01*
X6645022Y-11477739D01*
X6757355Y-11420502D01*
X6846502Y-11331355D01*
X6903739Y-11219022D01*
X6903739Y-11219020D01*
X6903740Y-11219019D01*
X6916175Y-11140500D01*
X6918500Y-11125823D01*
X6918499Y-10718178D01*
X6903739Y-10624978D01*
X6846502Y-10512645D01*
X6846498Y-10512641D01*
X6846497Y-10512639D01*
X6757360Y-10423502D01*
X6757357Y-10423500D01*
X6757355Y-10423498D01*
X6645022Y-10366261D01*
X6645021Y-10366260D01*
X6645018Y-10366259D01*
X6645019Y-10366259D01*
X6551828Y-10351500D01*
X6194178Y-10351500D01*
X6100991Y-10366259D01*
X6100978Y-10366261D01*
X5988645Y-10423498D01*
X5988644Y-10423498D01*
X5988644Y-10423499D01*
X5988639Y-10423502D01*
X5899502Y-10512639D01*
X5899497Y-10512646D01*
X5885409Y-10540296D01*
X5837435Y-10591091D01*
X5774925Y-10608000D01*
X5406440Y-10608000D01*
X5339401Y-10588315D01*
X5295040Y-10538462D01*
X5281076Y-10509898D01*
X5281073Y-10509895D01*
X5281073Y-10509894D01*
X5190102Y-10418923D01*
X5190099Y-10418921D01*
X5074521Y-10362419D01*
X5074519Y-10362418D01*
X5074518Y-10362418D01*
X4999582Y-10351500D01*
X4656418Y-10351500D01*
X4581482Y-10362418D01*
X4581480Y-10362418D01*
X4581478Y-10362419D01*
X4465900Y-10418921D01*
X4465897Y-10418923D01*
X4405681Y-10479140D01*
X4344358Y-10512625D01*
X4274666Y-10507641D01*
X4230319Y-10479140D01*
X4170102Y-10418923D01*
X4170099Y-10418921D01*
X4054521Y-10362419D01*
X4054519Y-10362418D01*
X4054518Y-10362418D01*
X3979582Y-10351500D01*
X3636418Y-10351500D01*
X3561482Y-10362418D01*
X3561480Y-10362418D01*
X3561478Y-10362419D01*
X3445900Y-10418921D01*
X3445897Y-10418923D01*
X3354926Y-10509894D01*
X3354924Y-10509897D01*
X3354924Y-10509898D01*
X3342550Y-10535210D01*
X3340960Y-10538462D01*
X3293831Y-10590044D01*
X3229560Y-10608000D01*
X3120440Y-10608000D01*
X3053401Y-10588315D01*
X3009040Y-10538462D01*
X2995076Y-10509898D01*
X2995073Y-10509895D01*
X2995073Y-10509894D01*
X2904102Y-10418923D01*
X2904099Y-10418921D01*
X2788520Y-10362418D01*
X2784205Y-10361085D01*
X2725965Y-10322487D01*
X2697838Y-10258529D01*
X2708754Y-10189517D01*
X2733129Y-10154933D01*
X3119365Y-9768696D01*
X3180688Y-9735212D01*
X3250380Y-9740196D01*
X3265499Y-9747020D01*
X3420652Y-9829951D01*
X3420658Y-9829954D01*
X3611515Y-9887850D01*
X3810000Y-9907399D01*
X4008485Y-9887850D01*
X4199342Y-9829954D01*
X4375237Y-9735936D01*
X4529410Y-9609410D01*
X4655936Y-9455237D01*
X4724828Y-9326349D01*
X4749951Y-9279348D01*
X4749951Y-9279347D01*
X4749954Y-9279342D01*
X4807850Y-9088485D01*
X4827399Y-8890000D01*
X4807850Y-8691515D01*
X4749954Y-8500658D01*
X4749951Y-8500654D01*
X4749951Y-8500651D01*
X4655939Y-8324768D01*
X4655937Y-8324766D01*
X4655936Y-8324763D01*
X4610500Y-8269399D01*
X4529410Y-8170589D01*
X4375238Y-8044065D01*
X4375231Y-8044060D01*
X4199348Y-7950048D01*
X4199342Y-7950046D01*
X4008485Y-7892150D01*
X4008483Y-7892149D01*
X4008481Y-7892149D01*
X3810000Y-7872601D01*
X3611518Y-7892149D01*
X3420651Y-7950048D01*
X3244768Y-8044060D01*
X3244761Y-8044065D01*
X3090589Y-8170589D01*
X2964065Y-8324761D01*
X2964060Y-8324768D01*
X2870048Y-8500651D01*
X2812149Y-8691518D01*
X2792601Y-8890000D01*
X2812149Y-9088485D01*
X2812150Y-9088488D01*
X2813687Y-9093554D01*
X2814309Y-9163421D01*
X2782707Y-9217228D01*
X1684756Y-10315181D01*
X1623433Y-10348666D01*
X1597075Y-10351500D01*
X1350418Y-10351500D01*
X1275482Y-10362418D01*
X1275480Y-10362418D01*
X1275478Y-10362419D01*
X1159900Y-10418921D01*
X1159897Y-10418923D01*
X1068926Y-10509894D01*
X1068924Y-10509897D01*
X1068924Y-10509898D01*
X1056550Y-10535210D01*
X1054960Y-10538462D01*
X1007831Y-10590044D01*
X943560Y-10608000D01*
X-1953983Y-10608000D01*
X-1959386Y-10607764D01*
X-1964507Y-10607316D01*
X-1998190Y-10604368D01*
X-2035816Y-10614450D01*
X-2041097Y-10615621D01*
X-2060256Y-10619000D01*
X-2079451Y-10622385D01*
X-2079455Y-10622386D01*
X-2085887Y-10624727D01*
X-2098935Y-10630131D01*
X-2105149Y-10633029D01*
X-2137049Y-10655366D01*
X-2141612Y-10658273D01*
X-2175346Y-10677749D01*
X-2175348Y-10677750D01*
X-2200388Y-10707591D01*
X-2204044Y-10711581D01*
X-2845135Y-11352672D01*
X-2906458Y-11386157D01*
X-2976150Y-11381173D01*
X-3032083Y-11339301D01*
X-3056500Y-11273837D01*
X-3050746Y-11226670D01*
X-3048259Y-11219019D01*
X-3033500Y-11125828D01*
X-3033500Y-10718178D01*
X-3048261Y-10624978D01*
X-3058762Y-10604368D01*
X-3105498Y-10512645D01*
X-3105499Y-10512644D01*
X-3105502Y-10512639D01*
X-3194639Y-10423502D01*
X-3194647Y-10423496D01*
X-3197298Y-10422146D01*
X-3199935Y-10419655D01*
X-3202537Y-10417765D01*
X-3202292Y-10417428D01*
X-3248093Y-10374170D01*
X-3265000Y-10311663D01*
X-3265000Y-9855016D01*
X-3245315Y-9787977D01*
X-3199450Y-9745657D01*
X-3181263Y-9735936D01*
X-3130383Y-9694180D01*
X-3027089Y-9609410D01*
X-2900565Y-9455238D01*
X-2900560Y-9455231D01*
X-2806548Y-9279348D01*
X-2803334Y-9268753D01*
X-2748650Y-9088485D01*
X-2748649Y-9088483D01*
X-2748649Y-9088481D01*
X-2729101Y-8890000D01*
X-2748649Y-8691518D01*
X-2806548Y-8500651D01*
X-2900560Y-8324768D01*
X-2900565Y-8324761D01*
X-3027089Y-8170589D01*
X-3181261Y-8044065D01*
X-3181268Y-8044060D01*
X-3357151Y-7950048D01*
X-3548018Y-7892149D01*
X-3746500Y-7872601D01*
X-3944981Y-7892149D01*
X-3944983Y-7892149D01*
X-3944985Y-7892150D01*
X-4135842Y-7950046D01*
X-4135848Y-7950048D01*
X-4311731Y-8044060D01*
X-4311738Y-8044065D01*
X-4465910Y-8170589D01*
X-4547000Y-8269399D01*
X-4592436Y-8324763D01*
X-4592437Y-8324766D01*
X-4592439Y-8324768D01*
X-4686451Y-8500651D01*
X-4686451Y-8500654D01*
X-4686454Y-8500658D01*
X-4744350Y-8691515D01*
X-4763899Y-8890000D01*
X-4744350Y-9088485D01*
X-4686454Y-9279342D01*
X-4686451Y-9279347D01*
X-4686451Y-9279348D01*
X-4661328Y-9326349D01*
X-4592436Y-9455237D01*
X-4465910Y-9609410D01*
X-4311737Y-9735936D01*
X-4135842Y-9829954D01*
X-3981003Y-9876923D01*
X-3922566Y-9915221D01*
X-3894110Y-9979033D01*
X-3893000Y-9995584D01*
X-3893000Y-10311663D01*
X-3912685Y-10378702D01*
X-3955620Y-10417548D01*
X-3955463Y-10417765D01*
X-3957477Y-10419228D01*
X-3960702Y-10422146D01*
X-3963352Y-10423496D01*
X-3963360Y-10423502D01*
X-3976319Y-10436461D01*
X-4037642Y-10469946D01*
X-4107334Y-10464962D01*
X-4151681Y-10436461D01*
X-4164639Y-10423502D01*
X-4164644Y-10423499D01*
X-4164643Y-10423499D01*
X-4164645Y-10423498D01*
X-4252561Y-10378702D01*
X-4276981Y-10366259D01*
X-4276980Y-10366259D01*
X-4370172Y-10351500D01*
X-4370177Y-10351500D01*
X-4624074Y-10351500D01*
X-4691113Y-10331815D01*
X-4711755Y-10315181D01*
X-7023356Y-8003580D01*
X-7027011Y-7999591D01*
X-7052050Y-7969751D01*
X-7052053Y-7969749D01*
X-7085786Y-7950273D01*
X-7090348Y-7947367D01*
X-7122249Y-7925030D01*
X-7128455Y-7922136D01*
X-7141521Y-7916724D01*
X-7147952Y-7914384D01*
X-7186304Y-7907621D01*
X-7191584Y-7906450D01*
X-7229209Y-7896368D01*
X-7259942Y-7899057D01*
X-7268018Y-7899764D01*
X-7273421Y-7900000D01*
X-16805783Y-7900000D01*
X-16811186Y-7899764D01*
X-16816307Y-7899316D01*
X-16849990Y-7896368D01*
X-16887616Y-7906450D01*
X-16892897Y-7907621D01*
X-16916793Y-7911835D01*
X-16931251Y-7914385D01*
X-16931255Y-7914386D01*
X-16937687Y-7916727D01*
X-16950735Y-7922131D01*
X-16956949Y-7925029D01*
X-16988849Y-7947366D01*
X-16993412Y-7950273D01*
X-17027146Y-7969749D01*
X-17027148Y-7969750D01*
X-17052188Y-7999591D01*
X-17055844Y-8003581D01*
X-18254012Y-9201749D01*
X-18258001Y-9205405D01*
X-18287848Y-9230449D01*
X-18287849Y-9230451D01*
X-18307331Y-9264197D01*
X-18310234Y-9268753D01*
X-18332569Y-9300649D01*
X-18335486Y-9306905D01*
X-18340860Y-9319880D01*
X-18343214Y-9326347D01*
X-18343215Y-9326349D01*
X-18349980Y-9364719D01*
X-18351145Y-9369975D01*
X-18361231Y-9407611D01*
X-18357836Y-9446412D01*
X-18357600Y-9451819D01*
X-18357600Y-31232779D01*
X-18357835Y-31238182D01*
X-18361231Y-31276989D01*
X-18351142Y-31314635D01*
X-18349982Y-31319867D01*
X-18343215Y-31358251D01*
X-18343212Y-31358254D01*
X-18343213Y-31358254D01*
X-18340844Y-31364762D01*
X-18335497Y-31377670D01*
X-18332571Y-31383941D01*
X-18332570Y-31383949D01*
X-18310225Y-31415858D01*
X-18307328Y-31420407D01*
X-18287849Y-31454149D01*
X-18257988Y-31479204D01*
X-18254027Y-31482834D01*
X-17873757Y-31863104D01*
X-17840274Y-31924425D01*
X-17845258Y-31994117D01*
X-17846880Y-31998239D01*
X-17850864Y-32007857D01*
X-17850866Y-32007860D01*
X-17850866Y-32007863D01*
X-17850867Y-32007864D01*
X-17865400Y-32080923D01*
X-17865400Y-32080925D01*
X-17865400Y-32080926D01*
X-17865400Y-32689074D01*
X-17850866Y-32762140D01*
X-17795501Y-32845001D01*
X-17712640Y-32900366D01*
X-17639577Y-32914899D01*
X-17639576Y-32914900D01*
X-17639574Y-32914900D01*
X-15278824Y-32914900D01*
X-15278821Y-32914899D01*
X-15205764Y-32900367D01*
X-15205760Y-32900366D01*
X-15205760Y-32900365D01*
X-15122899Y-32845001D01*
X-15067534Y-32762140D01*
X-15067533Y-32762139D01*
X-15067532Y-32762135D01*
X-15053000Y-32689078D01*
X-15053000Y-32369100D01*
X-15033315Y-32302061D01*
X-14980511Y-32256306D01*
X-14929000Y-32245100D01*
X-11536425Y-32245100D01*
X-11469386Y-32264785D01*
X-11448743Y-32281419D01*
X-9718348Y-34011813D01*
X-9684865Y-34073134D01*
X-9689849Y-34142825D01*
X-9731721Y-34198759D01*
X-9797185Y-34223176D01*
X-9838118Y-34219269D01*
X-9844139Y-34217655D01*
X-10000899Y-34197018D01*
X-10000901Y-34197018D01*
X-10157660Y-34217655D01*
X-10157662Y-34217656D01*
X-10309528Y-34280561D01*
X-10356981Y-34290000D01*
X-14487829Y-34290000D01*
X-14537704Y-34276634D01*
X-14538549Y-34278674D01*
X-14692134Y-34215057D01*
X-14692139Y-34215055D01*
X-14848899Y-34194418D01*
X-14848901Y-34194418D01*
X-15005660Y-34215055D01*
X-15005665Y-34215057D01*
X-15159251Y-34278674D01*
X-15160095Y-34276634D01*
X-15209971Y-34290000D01*
X-15428375Y-34290000D01*
X-15495414Y-34270315D01*
X-15503851Y-34264382D01*
X-15508959Y-34260464D01*
X-15508959Y-34260463D01*
X-15508962Y-34260462D01*
X-15508963Y-34260461D01*
X-15655034Y-34199957D01*
X-15655039Y-34199955D01*
X-15811799Y-34179318D01*
X-15811801Y-34179318D01*
X-15968560Y-34199955D01*
X-15968565Y-34199957D01*
X-16114636Y-34260461D01*
X-16114637Y-34260462D01*
X-16114641Y-34260464D01*
X-16119738Y-34264375D01*
X-16184906Y-34289570D01*
X-16195225Y-34290000D01*
X-18621500Y-34290000D01*
X-18688539Y-34270315D01*
X-18734294Y-34217511D01*
X-18745500Y-34166000D01*
X-18745500Y-4000000D01*
X-10859237Y-4000000D01*
X-10840313Y-4264597D01*
X-10783925Y-4523808D01*
X-10691221Y-4772355D01*
X-10564090Y-5005179D01*
X-10405118Y-5217541D01*
X-10217541Y-5405118D01*
X-10005179Y-5564090D01*
X-9772360Y-5691218D01*
X-9772359Y-5691218D01*
X-9772355Y-5691221D01*
X-9523808Y-5783925D01*
X-9264597Y-5840313D01*
X-9026508Y-5857341D01*
X-9000001Y-5859237D01*
X-9000000Y-5859237D01*
X-8999999Y-5859237D01*
X-8970540Y-5857130D01*
X-8735403Y-5840313D01*
X-8735399Y-5840312D01*
X-8735397Y-5840312D01*
X-8476200Y-5783927D01*
X-8476198Y-5783926D01*
X-8476192Y-5783925D01*
X-8227645Y-5691221D01*
X-8227642Y-5691219D01*
X-8227638Y-5691218D01*
X-7994826Y-5564093D01*
X-7994818Y-5564088D01*
X-7782466Y-5405124D01*
X-7782448Y-5405108D01*
X-7594891Y-5217551D01*
X-7594875Y-5217533D01*
X-7435911Y-5005181D01*
X-7435906Y-5005173D01*
X-7308781Y-4772361D01*
X-7216072Y-4523799D01*
X-7159687Y-4264602D01*
X-7140763Y-4000001D01*
X-7140763Y-3999998D01*
X-7159687Y-3735397D01*
X-7216072Y-3476200D01*
X-7308781Y-3227638D01*
X-7435906Y-2994826D01*
X-7435911Y-2994818D01*
X-7594875Y-2782466D01*
X-7594891Y-2782448D01*
X-7782448Y-2594891D01*
X-7782466Y-2594875D01*
X-7994818Y-2435911D01*
X-7994826Y-2435906D01*
X-8227639Y-2308781D01*
X-8227638Y-2308781D01*
X-8476200Y-2216072D01*
X-8735397Y-2159687D01*
X-8999999Y-2140763D01*
X-9000001Y-2140763D01*
X-9264602Y-2159687D01*
X-9523799Y-2216072D01*
X-9523805Y-2216074D01*
X-9523808Y-2216075D01*
X-9672936Y-2271697D01*
X-9772361Y-2308781D01*
X-10005173Y-2435906D01*
X-10005181Y-2435911D01*
X-10217533Y-2594875D01*
X-10217551Y-2594891D01*
X-10405108Y-2782448D01*
X-10405124Y-2782466D01*
X-10564088Y-2994818D01*
X-10564093Y-2994826D01*
X-10691218Y-3227638D01*
X-10691219Y-3227642D01*
X-10691221Y-3227645D01*
X-10783925Y-3476192D01*
X-10840313Y-3735403D01*
X-10859237Y-4000000D01*
X-18745500Y-4000000D01*
X-18745500Y-378500D01*
X-18725815Y-311461D01*
X-18673011Y-265706D01*
X-18621500Y-254500D01*
X-7490500Y-254500D01*
X-7423461Y-274185D01*
G37*
%TD.AperFunction*%
%TA.AperFunction,Conductor*%
G36*
X-2244691Y-18963387D02*
G01*
X-2188038Y-19004280D01*
X-2173607Y-19035919D01*
X-2171040Y-19034856D01*
X-2166366Y-19046138D01*
X-2166366Y-19046140D01*
X-2111001Y-19129001D01*
X-2028140Y-19184366D01*
X-2028138Y-19184366D01*
X-2020110Y-19189731D01*
X-1975304Y-19243343D01*
X-1965000Y-19292834D01*
X-1965000Y-20019083D01*
X-1984685Y-20086122D01*
X-2032703Y-20129567D01*
X-2039343Y-20132950D01*
X-2129045Y-20222652D01*
X-2129046Y-20222654D01*
X-2129050Y-20222658D01*
X-2178647Y-20319998D01*
X-2186647Y-20335698D01*
X-2194118Y-20382873D01*
X-2201500Y-20429481D01*
X-2201499Y-22242518D01*
X-2186646Y-22336304D01*
X-2129050Y-22449342D01*
X-2039342Y-22539050D01*
X-2032703Y-22542432D01*
X-1981909Y-22590405D01*
X-1965000Y-22652916D01*
X-1965000Y-24504979D01*
X-1965235Y-24510382D01*
X-1968631Y-24549189D01*
X-1958542Y-24586835D01*
X-1957382Y-24592067D01*
X-1950615Y-24630451D01*
X-1950612Y-24630454D01*
X-1950613Y-24630454D01*
X-1948244Y-24636962D01*
X-1942897Y-24649870D01*
X-1939971Y-24656141D01*
X-1939970Y-24656149D01*
X-1917625Y-24688058D01*
X-1914728Y-24692607D01*
X-1895249Y-24726349D01*
X-1865388Y-24751404D01*
X-1861427Y-24755034D01*
X1704909Y-28321372D01*
X2872139Y-29488602D01*
X2905624Y-29549925D01*
X2900640Y-29619617D01*
X2894945Y-29632574D01*
X2893352Y-29635699D01*
X2878500Y-29729475D01*
X2878500Y-31542517D01*
X2878832Y-31544611D01*
X2893354Y-31636304D01*
X2893354Y-31636305D01*
X2893687Y-31638403D01*
X2884731Y-31707696D01*
X2839734Y-31761148D01*
X2772983Y-31781787D01*
X2771213Y-31781800D01*
X1546787Y-31781800D01*
X1479748Y-31762115D01*
X1433993Y-31709311D01*
X1424049Y-31640153D01*
X1424314Y-31638402D01*
X1434356Y-31575000D01*
X1439500Y-31542519D01*
X1439499Y-29729482D01*
X1424646Y-29635696D01*
X1367050Y-29522658D01*
X1367046Y-29522654D01*
X1367045Y-29522652D01*
X1277347Y-29432954D01*
X1277344Y-29432952D01*
X1277342Y-29432950D01*
X1190218Y-29388558D01*
X1164301Y-29375352D01*
X1070524Y-29360500D01*
X707482Y-29360500D01*
X626519Y-29373323D01*
X613696Y-29375354D01*
X500658Y-29432950D01*
X500656Y-29432951D01*
X500657Y-29432951D01*
X500652Y-29432954D01*
X410954Y-29522652D01*
X410949Y-29522659D01*
X364483Y-29613852D01*
X316508Y-29664648D01*
X248687Y-29681442D01*
X182552Y-29658904D01*
X143515Y-29613851D01*
X97050Y-29522658D01*
X97047Y-29522655D01*
X97045Y-29522652D01*
X7347Y-29432954D01*
X7344Y-29432952D01*
X7342Y-29432950D01*
X-49721Y-29403874D01*
X-105698Y-29375352D01*
X-199475Y-29360500D01*
X-562517Y-29360500D01*
X-630657Y-29371292D01*
X-656304Y-29375354D01*
X-769342Y-29432950D01*
X-769344Y-29432952D01*
X-769347Y-29432954D01*
X-859045Y-29522652D01*
X-859046Y-29522654D01*
X-859050Y-29522658D01*
X-905515Y-29613851D01*
X-953490Y-29664647D01*
X-1021311Y-29681442D01*
X-1087446Y-29658904D01*
X-1126485Y-29613851D01*
X-1172950Y-29522658D01*
X-1172951Y-29522657D01*
X-1172954Y-29522652D01*
X-1262652Y-29432954D01*
X-1262657Y-29432951D01*
X-1262656Y-29432951D01*
X-1262658Y-29432950D01*
X-1311181Y-29408226D01*
X-1375698Y-29375352D01*
X-1469475Y-29360500D01*
X-1832517Y-29360500D01*
X-1900657Y-29371292D01*
X-1926304Y-29375354D01*
X-2039342Y-29432950D01*
X-2039344Y-29432952D01*
X-2039347Y-29432954D01*
X-2129045Y-29522652D01*
X-2129046Y-29522654D01*
X-2129050Y-29522658D01*
X-2175515Y-29613850D01*
X-2186647Y-29635698D01*
X-2195824Y-29693642D01*
X-2201500Y-29729481D01*
X-2201499Y-31542518D01*
X-2186646Y-31636304D01*
X-2129050Y-31749342D01*
X-2039342Y-31839050D01*
X-2038303Y-31839579D01*
X-2037271Y-31840553D01*
X-2031450Y-31844783D01*
X-2031996Y-31845534D01*
X-1987507Y-31887544D01*
X-1970704Y-31955364D01*
X-1993235Y-32021501D01*
X-2006910Y-32037747D01*
X-2151583Y-32182420D01*
X-2212906Y-32215905D01*
X-2255448Y-32217678D01*
X-2346298Y-32205718D01*
X-2346301Y-32205718D01*
X-2503060Y-32226355D01*
X-2503062Y-32226356D01*
X-2614026Y-32272319D01*
X-2649141Y-32286864D01*
X-2774582Y-32383118D01*
X-2870836Y-32508559D01*
X-2931344Y-32654638D01*
X-2931344Y-32654639D01*
X-2951982Y-32811398D01*
X-2951982Y-32811401D01*
X-2947558Y-32845001D01*
X-2931344Y-32968162D01*
X-2870836Y-33114241D01*
X-2774582Y-33239682D01*
X-2649141Y-33335936D01*
X-2503062Y-33396444D01*
X-2398554Y-33410202D01*
X-2346301Y-33417082D01*
X-2346300Y-33417082D01*
X-2346299Y-33417082D01*
X-2267918Y-33406762D01*
X-2189538Y-33396444D01*
X-2043459Y-33335936D01*
X-1985019Y-33291094D01*
X-1919852Y-33265901D01*
X-1851408Y-33279939D01*
X-1847523Y-33282091D01*
X-1845546Y-33283231D01*
X-1845541Y-33283236D01*
X-1699462Y-33343744D01*
X-1594953Y-33357502D01*
X-1542701Y-33364382D01*
X-1542700Y-33364382D01*
X-1493998Y-33357970D01*
X-1424965Y-33368735D01*
X-1372709Y-33415115D01*
X-1353823Y-33482383D01*
X-1374303Y-33549184D01*
X-1402327Y-33579284D01*
X-1414879Y-33588915D01*
X-1414880Y-33588916D01*
X-1414882Y-33588918D01*
X-1511136Y-33714359D01*
X-1571644Y-33860438D01*
X-1571644Y-33860439D01*
X-1592282Y-34017198D01*
X-1592282Y-34017201D01*
X-1574823Y-34149815D01*
X-1585589Y-34218850D01*
X-1631969Y-34271106D01*
X-1697762Y-34290000D01*
X-1921292Y-34290000D01*
X-1975223Y-34275547D01*
X-1975649Y-34276574D01*
X-2129234Y-34212957D01*
X-2129239Y-34212955D01*
X-2285999Y-34192318D01*
X-2286001Y-34192318D01*
X-2442760Y-34212955D01*
X-2442765Y-34212957D01*
X-2596351Y-34276574D01*
X-2596776Y-34275547D01*
X-2650708Y-34290000D01*
X-3646377Y-34290000D01*
X-3713416Y-34270315D01*
X-3759171Y-34217511D01*
X-3769316Y-34182186D01*
X-3784706Y-34065288D01*
X-3784706Y-34065287D01*
X-3845213Y-33919210D01*
X-3941468Y-33793768D01*
X-4066910Y-33697513D01*
X-4212987Y-33637006D01*
X-4212989Y-33637005D01*
X-4369749Y-33616368D01*
X-4369751Y-33616368D01*
X-4526510Y-33637005D01*
X-4526512Y-33637006D01*
X-4672591Y-33697514D01*
X-4798032Y-33793768D01*
X-4888207Y-33911287D01*
X-4944635Y-33952489D01*
X-4986583Y-33959800D01*
X-8830875Y-33959800D01*
X-8897914Y-33940115D01*
X-8918556Y-33923481D01*
X-9904560Y-32937476D01*
X-9938045Y-32876153D01*
X-9933061Y-32806461D01*
X-9891189Y-32750528D01*
X-9825725Y-32726111D01*
X-9757452Y-32740963D01*
X-9741393Y-32751418D01*
X-9700841Y-32782536D01*
X-9554762Y-32843044D01*
X-9450254Y-32856802D01*
X-9398001Y-32863682D01*
X-9398000Y-32863682D01*
X-9397999Y-32863682D01*
X-9319619Y-32853363D01*
X-9241238Y-32843044D01*
X-9095159Y-32782536D01*
X-9095158Y-32782535D01*
X-9095157Y-32782535D01*
X-8999405Y-32709062D01*
X-8934236Y-32683868D01*
X-8865791Y-32697906D01*
X-8815802Y-32746720D01*
X-8809356Y-32759991D01*
X-8808467Y-32762135D01*
X-8808466Y-32762140D01*
X-8753101Y-32845001D01*
X-8670240Y-32900366D01*
X-8597177Y-32914899D01*
X-8597176Y-32914900D01*
X-8597174Y-32914900D01*
X-6236424Y-32914900D01*
X-6236421Y-32914899D01*
X-6163364Y-32900367D01*
X-6163360Y-32900366D01*
X-6163360Y-32900365D01*
X-6080499Y-32845001D01*
X-6025134Y-32762140D01*
X-6025133Y-32762139D01*
X-6025132Y-32762135D01*
X-6010600Y-32689078D01*
X-6010600Y-32080921D01*
X-6025132Y-32007864D01*
X-6025133Y-32007860D01*
X-6080499Y-31924999D01*
X-6163360Y-31869633D01*
X-6174644Y-31864960D01*
X-6173125Y-31861293D01*
X-6215305Y-31839225D01*
X-6249874Y-31778506D01*
X-6246128Y-31708737D01*
X-6205257Y-31652068D01*
X-6173582Y-31637603D01*
X-6174644Y-31635040D01*
X-6163360Y-31630366D01*
X-6143506Y-31617100D01*
X-6080499Y-31575001D01*
X-6025134Y-31492140D01*
X-6025133Y-31492139D01*
X-6025132Y-31492135D01*
X-6010600Y-31419078D01*
X-6010600Y-30967500D01*
X-5990915Y-30900461D01*
X-5938111Y-30854706D01*
X-5886600Y-30843500D01*
X-5396920Y-30843500D01*
X-5391519Y-30843735D01*
X-5352711Y-30847131D01*
X-5315075Y-30837045D01*
X-5309819Y-30835880D01*
X-5271449Y-30829115D01*
X-5271447Y-30829114D01*
X-5264980Y-30826760D01*
X-5252005Y-30821386D01*
X-5245749Y-30818469D01*
X-5213854Y-30796135D01*
X-5213845Y-30796129D01*
X-5209297Y-30793231D01*
X-5175551Y-30773749D01*
X-5175549Y-30773748D01*
X-5150505Y-30743901D01*
X-5146849Y-30739912D01*
X-4198406Y-29791469D01*
X-4137083Y-29757984D01*
X-4067391Y-29762968D01*
X-4056275Y-29767745D01*
X-4052518Y-29769582D01*
X-3977582Y-29780500D01*
X-3977577Y-29780500D01*
X-3634423Y-29780500D01*
X-3634418Y-29780500D01*
X-3559482Y-29769582D01*
X-3554656Y-29767222D01*
X-3443900Y-29713078D01*
X-3443897Y-29713076D01*
X-3352923Y-29622102D01*
X-3352921Y-29622099D01*
X-3296419Y-29506521D01*
X-3296418Y-29506519D01*
X-3296418Y-29506518D01*
X-3285500Y-29431582D01*
X-3285500Y-28988418D01*
X-3296418Y-28913482D01*
X-3296418Y-28913480D01*
X-3296419Y-28913478D01*
X-3352921Y-28797900D01*
X-3352923Y-28797897D01*
X-3443897Y-28706923D01*
X-3443900Y-28706921D01*
X-3559478Y-28650419D01*
X-3559480Y-28650418D01*
X-3559482Y-28650418D01*
X-3634418Y-28639500D01*
X-3878000Y-28639500D01*
X-3945039Y-28619815D01*
X-3990794Y-28567011D01*
X-4002000Y-28515500D01*
X-4002000Y-27364500D01*
X-3982315Y-27297461D01*
X-3929511Y-27251706D01*
X-3878000Y-27240500D01*
X-3634423Y-27240500D01*
X-3634418Y-27240500D01*
X-3559482Y-27229582D01*
X-3554656Y-27227222D01*
X-3443900Y-27173078D01*
X-3443897Y-27173076D01*
X-3352923Y-27082102D01*
X-3352921Y-27082099D01*
X-3296419Y-26966521D01*
X-3296418Y-26966519D01*
X-3296418Y-26966518D01*
X-3285500Y-26891582D01*
X-3285500Y-26448418D01*
X-3296418Y-26373482D01*
X-3296418Y-26373480D01*
X-3296419Y-26373478D01*
X-3352921Y-26257900D01*
X-3352923Y-26257897D01*
X-3451163Y-26159658D01*
X-3449337Y-26157832D01*
X-3483177Y-26114689D01*
X-3492000Y-26068751D01*
X-3492000Y-25994010D01*
X-3472315Y-25926971D01*
X-3440884Y-25893691D01*
X-3435610Y-25889860D01*
X-3348142Y-25802392D01*
X-3348141Y-25802391D01*
X-3291983Y-25692175D01*
X-3291981Y-25692172D01*
X-3291981Y-25692171D01*
X-3277500Y-25600735D01*
X-3277500Y-25199260D01*
X-3291981Y-25107829D01*
X-3291981Y-25107828D01*
X-3348142Y-24997607D01*
X-3348145Y-24997603D01*
X-3435603Y-24910145D01*
X-3435608Y-24910142D01*
X-3435609Y-24910141D01*
X-3511299Y-24871575D01*
X-3545828Y-24853981D01*
X-3637264Y-24839500D01*
X-3978739Y-24839500D01*
X-3978739Y-24839501D01*
X-4070170Y-24853981D01*
X-4070171Y-24853981D01*
X-4070174Y-24853982D01*
X-4070175Y-24853983D01*
X-4180391Y-24910141D01*
X-4180392Y-24910142D01*
X-4180396Y-24910145D01*
X-4200319Y-24930068D01*
X-4261642Y-24963553D01*
X-4331334Y-24958569D01*
X-4375681Y-24930068D01*
X-4395607Y-24910141D01*
X-4402885Y-24904854D01*
X-4445551Y-24849525D01*
X-4454000Y-24804536D01*
X-4454000Y-24645613D01*
X-4434315Y-24578574D01*
X-4417681Y-24557932D01*
X-4334145Y-24474396D01*
X-4334143Y-24474393D01*
X-4334141Y-24474391D01*
X-4277983Y-24364175D01*
X-4277981Y-24364172D01*
X-4277981Y-24364171D01*
X-4263500Y-24272735D01*
X-4263500Y-23931260D01*
X-4277981Y-23839829D01*
X-4277981Y-23839828D01*
X-4334142Y-23729607D01*
X-4334145Y-23729603D01*
X-4421603Y-23642145D01*
X-4421608Y-23642142D01*
X-4421609Y-23642141D01*
X-4477809Y-23613505D01*
X-4531828Y-23585981D01*
X-4623265Y-23571500D01*
X-4859074Y-23571500D01*
X-4926113Y-23551815D01*
X-4946755Y-23535181D01*
X-8301256Y-20180680D01*
X-8304911Y-20176691D01*
X-8329950Y-20146851D01*
X-8329953Y-20146849D01*
X-8363686Y-20127373D01*
X-8368248Y-20124467D01*
X-8400149Y-20102130D01*
X-8406355Y-20099236D01*
X-8419421Y-20093824D01*
X-8425852Y-20091484D01*
X-8464204Y-20084721D01*
X-8469484Y-20083550D01*
X-8507109Y-20073468D01*
X-8537842Y-20076157D01*
X-8545918Y-20076864D01*
X-8551321Y-20077100D01*
X-9136075Y-20077100D01*
X-9203114Y-20057415D01*
X-9223756Y-20040781D01*
X-9296356Y-19968181D01*
X-9329841Y-19906858D01*
X-9324857Y-19837166D01*
X-9282985Y-19781233D01*
X-9217521Y-19756816D01*
X-9208675Y-19756500D01*
X-3264520Y-19756500D01*
X-3259119Y-19756735D01*
X-3220311Y-19760131D01*
X-3182675Y-19750045D01*
X-3177419Y-19748880D01*
X-3139049Y-19742115D01*
X-3139047Y-19742114D01*
X-3132580Y-19739760D01*
X-3119605Y-19734386D01*
X-3113349Y-19731469D01*
X-3088856Y-19714318D01*
X-3081445Y-19709129D01*
X-3076897Y-19706231D01*
X-3043151Y-19686749D01*
X-3043149Y-19686748D01*
X-3018105Y-19656901D01*
X-3014449Y-19652912D01*
X-2710581Y-19349044D01*
X-2706591Y-19345388D01*
X-2676750Y-19320348D01*
X-2676749Y-19320346D01*
X-2657273Y-19286612D01*
X-2654366Y-19282049D01*
X-2625808Y-19241264D01*
X-2623849Y-19242635D01*
X-2587616Y-19201484D01*
X-2545595Y-19184711D01*
X-2543860Y-19184366D01*
X-2460999Y-19129001D01*
X-2405634Y-19046140D01*
X-2405633Y-19046139D01*
X-2400960Y-19034856D01*
X-2397297Y-19036373D01*
X-2375191Y-18994160D01*
X-2314459Y-18959614D01*
X-2244691Y-18963387D01*
G37*
%TD.AperFunction*%
%TA.AperFunction,Conductor*%
G36*
X-9878586Y-30178685D02*
G01*
X-9857943Y-30195319D01*
X-9313333Y-30739928D01*
X-9309704Y-30743888D01*
X-9284649Y-30773749D01*
X-9250913Y-30793225D01*
X-9250911Y-30793226D01*
X-9246358Y-30796125D01*
X-9214449Y-30818470D01*
X-9214441Y-30818471D01*
X-9208170Y-30821397D01*
X-9195262Y-30826744D01*
X-9188755Y-30829112D01*
X-9188751Y-30829115D01*
X-9150367Y-30835882D01*
X-9145135Y-30837042D01*
X-9107489Y-30847131D01*
X-9068680Y-30843735D01*
X-9063280Y-30843500D01*
X-8947000Y-30843500D01*
X-8879961Y-30863185D01*
X-8834206Y-30915989D01*
X-8823000Y-30967499D01*
X-8823000Y-31419074D01*
X-8808466Y-31492140D01*
X-8753101Y-31575001D01*
X-8670240Y-31630366D01*
X-8670238Y-31630366D01*
X-8658956Y-31635040D01*
X-8660475Y-31638707D01*
X-8618303Y-31660767D01*
X-8583728Y-31721482D01*
X-8587467Y-31791252D01*
X-8628333Y-31847924D01*
X-8660018Y-31862394D01*
X-8658956Y-31864960D01*
X-8670239Y-31869633D01*
X-8697045Y-31887544D01*
X-8746994Y-31920919D01*
X-8751402Y-31923864D01*
X-8818080Y-31944741D01*
X-8885460Y-31926256D01*
X-8918667Y-31896248D01*
X-8969716Y-31829720D01*
X-8969717Y-31829719D01*
X-8969718Y-31829718D01*
X-9095159Y-31733464D01*
X-9095158Y-31733464D01*
X-9095160Y-31733463D01*
X-9241237Y-31672956D01*
X-9241239Y-31672955D01*
X-9397999Y-31652318D01*
X-9398001Y-31652318D01*
X-9554760Y-31672955D01*
X-9554762Y-31672956D01*
X-9660347Y-31716691D01*
X-9700841Y-31733464D01*
X-9826282Y-31829718D01*
X-9922536Y-31955159D01*
X-9983044Y-32101238D01*
X-9989045Y-32146824D01*
X-10000556Y-32234258D01*
X-10003682Y-32258000D01*
X-9983044Y-32414762D01*
X-9922536Y-32560841D01*
X-9891420Y-32601391D01*
X-9866225Y-32666558D01*
X-9880262Y-32735004D01*
X-9929075Y-32784994D01*
X-9997166Y-32800659D01*
X-10062917Y-32777024D01*
X-10077476Y-32764559D01*
X-11121356Y-31720680D01*
X-11125011Y-31716691D01*
X-11150050Y-31686851D01*
X-11150053Y-31686849D01*
X-11183786Y-31667373D01*
X-11188348Y-31664467D01*
X-11220249Y-31642130D01*
X-11226455Y-31639236D01*
X-11239521Y-31633824D01*
X-11245952Y-31631484D01*
X-11284304Y-31624721D01*
X-11289584Y-31623550D01*
X-11327209Y-31613468D01*
X-11357942Y-31616157D01*
X-11366018Y-31616864D01*
X-11371421Y-31617100D01*
X-14941295Y-31617100D01*
X-15008334Y-31597415D01*
X-15054089Y-31544611D01*
X-15064033Y-31475453D01*
X-15062912Y-31468909D01*
X-15053000Y-31419078D01*
X-15053000Y-30810921D01*
X-15067532Y-30737864D01*
X-15067533Y-30737860D01*
X-15122899Y-30654999D01*
X-15205760Y-30599633D01*
X-15217044Y-30594960D01*
X-15215525Y-30591293D01*
X-15257705Y-30569225D01*
X-15292274Y-30508506D01*
X-15288528Y-30438737D01*
X-15247657Y-30382068D01*
X-15215982Y-30367603D01*
X-15217044Y-30365040D01*
X-15205760Y-30360366D01*
X-15160918Y-30330404D01*
X-15122899Y-30305001D01*
X-15122898Y-30305000D01*
X-15062167Y-30214109D01*
X-15008555Y-30169304D01*
X-14959065Y-30159000D01*
X-9945625Y-30159000D01*
X-9878586Y-30178685D01*
G37*
%TD.AperFunction*%
%TA.AperFunction,Conductor*%
G36*
X-13418665Y-21777430D02*
G01*
X-13374321Y-21805928D01*
X-13354391Y-21825859D01*
X-13354382Y-21825863D01*
X-13347116Y-21831144D01*
X-13304450Y-21886473D01*
X-13296000Y-21931463D01*
X-13296000Y-26239075D01*
X-13315685Y-26306114D01*
X-13332319Y-26326756D01*
X-15049540Y-28043977D01*
X-15110863Y-28077462D01*
X-15180555Y-28072478D01*
X-15205195Y-28059867D01*
X-15205764Y-28059632D01*
X-15278823Y-28045100D01*
X-15278826Y-28045100D01*
X-17605600Y-28045100D01*
X-17672639Y-28025415D01*
X-17718394Y-27972611D01*
X-17729600Y-27921100D01*
X-17729600Y-26688900D01*
X-17709915Y-26621861D01*
X-17657111Y-26576106D01*
X-17605600Y-26564900D01*
X-15278824Y-26564900D01*
X-15278821Y-26564899D01*
X-15205764Y-26550367D01*
X-15205760Y-26550366D01*
X-15181640Y-26534250D01*
X-15122899Y-26495001D01*
X-15122898Y-26495000D01*
X-15067535Y-26412142D01*
X-15067534Y-26412141D01*
X-15067534Y-26412140D01*
X-15066549Y-26407189D01*
X-15034163Y-26345281D01*
X-14987339Y-26314862D01*
X-14977079Y-26311128D01*
X-14971104Y-26306114D01*
X-14964018Y-26300168D01*
X-14946312Y-26287771D01*
X-14931551Y-26279249D01*
X-14920591Y-26266187D01*
X-14905312Y-26250908D01*
X-14892251Y-26239949D01*
X-14891746Y-26239075D01*
X-14883724Y-26225181D01*
X-14871328Y-26207478D01*
X-14860375Y-26194424D01*
X-14860373Y-26194422D01*
X-14860371Y-26194419D01*
X-14860370Y-26194416D01*
X-14854540Y-26178398D01*
X-14845406Y-26158810D01*
X-14843585Y-26155657D01*
X-14836885Y-26144051D01*
X-14836884Y-26144050D01*
X-14836884Y-26144049D01*
X-14833923Y-26127260D01*
X-14828331Y-26106388D01*
X-14822500Y-26090367D01*
X-14822500Y-25979633D01*
X-14822499Y-22711924D01*
X-14802814Y-22644885D01*
X-14786180Y-22624243D01*
X-14094755Y-21932818D01*
X-14033432Y-21899333D01*
X-14007074Y-21896499D01*
X-13771261Y-21896499D01*
X-13771260Y-21896498D01*
X-13679829Y-21882018D01*
X-13679828Y-21882018D01*
X-13679826Y-21882017D01*
X-13679825Y-21882017D01*
X-13569609Y-21825859D01*
X-13569607Y-21825857D01*
X-13569603Y-21825854D01*
X-13549680Y-21805931D01*
X-13488357Y-21772446D01*
X-13418665Y-21777430D01*
G37*
%TD.AperFunction*%
%TA.AperFunction,Conductor*%
G36*
X9000597Y-17315194D02*
G01*
X9052668Y-17361783D01*
X9071300Y-17427156D01*
X9071300Y-18520579D01*
X9071064Y-18525986D01*
X9067668Y-18564787D01*
X9077751Y-18602415D01*
X9078922Y-18607698D01*
X9085685Y-18646053D01*
X9088030Y-18652494D01*
X9093431Y-18665535D01*
X9096329Y-18671749D01*
X9118666Y-18703649D01*
X9121573Y-18708212D01*
X9141049Y-18741946D01*
X9141050Y-18741948D01*
X9170891Y-18766988D01*
X9174881Y-18770644D01*
X12002682Y-21598445D01*
X12036166Y-21659766D01*
X12039000Y-21686124D01*
X12039000Y-25234279D01*
X12038764Y-25239686D01*
X12035368Y-25278487D01*
X12045451Y-25316115D01*
X12046622Y-25321398D01*
X12053385Y-25359753D01*
X12055730Y-25366194D01*
X12061131Y-25379235D01*
X12064029Y-25385449D01*
X12086366Y-25417349D01*
X12089273Y-25421912D01*
X12108749Y-25455646D01*
X12108750Y-25455648D01*
X12138591Y-25480688D01*
X12142581Y-25484344D01*
X12498449Y-25840212D01*
X12502105Y-25844201D01*
X12527149Y-25874048D01*
X12527151Y-25874049D01*
X12560897Y-25893531D01*
X12565445Y-25896429D01*
X12565454Y-25896435D01*
X12597349Y-25918769D01*
X12603605Y-25921686D01*
X12616573Y-25927057D01*
X12623043Y-25929412D01*
X12623049Y-25929415D01*
X12661409Y-25936178D01*
X12666664Y-25937343D01*
X12704310Y-25947431D01*
X12743113Y-25944035D01*
X12748517Y-25943800D01*
X13469780Y-25943800D01*
X13475180Y-25944035D01*
X13513989Y-25947431D01*
X13551635Y-25937342D01*
X13556867Y-25936182D01*
X13595251Y-25929415D01*
X13595255Y-25929412D01*
X13601762Y-25927044D01*
X13614670Y-25921697D01*
X13620941Y-25918771D01*
X13620949Y-25918770D01*
X13652858Y-25896425D01*
X13657411Y-25893526D01*
X13657413Y-25893525D01*
X13691149Y-25874049D01*
X13716204Y-25844188D01*
X13719823Y-25840238D01*
X13817246Y-25742815D01*
X13878568Y-25709333D01*
X13904925Y-25706499D01*
X14140739Y-25706499D01*
X14140739Y-25706498D01*
X14186454Y-25699258D01*
X14232170Y-25692018D01*
X14232171Y-25692018D01*
X14232172Y-25692017D01*
X14232175Y-25692017D01*
X14342391Y-25635859D01*
X14342395Y-25635853D01*
X14401855Y-25576396D01*
X14463178Y-25542911D01*
X14532870Y-25547895D01*
X14577217Y-25576396D01*
X14649895Y-25649074D01*
X14649896Y-25649074D01*
X14649898Y-25649076D01*
X14659942Y-25653986D01*
X14711525Y-25701111D01*
X14729442Y-25768645D01*
X14708004Y-25835144D01*
X14693166Y-25853069D01*
X14040680Y-26505556D01*
X14036691Y-26509211D01*
X14006851Y-26534250D01*
X14006849Y-26534253D01*
X13987373Y-26567986D01*
X13984467Y-26572548D01*
X13962130Y-26604449D01*
X13959236Y-26610655D01*
X13953824Y-26623721D01*
X13951484Y-26630152D01*
X13944721Y-26668504D01*
X13943550Y-26673784D01*
X13933468Y-26711409D01*
X13933468Y-26711411D01*
X13936863Y-26750214D01*
X13937099Y-26755619D01*
X13937100Y-27413537D01*
X13917416Y-27480576D01*
X13900781Y-27501219D01*
X13838946Y-27563053D01*
X13777622Y-27596537D01*
X13707931Y-27591552D01*
X13675779Y-27573747D01*
X13578841Y-27499364D01*
X13578838Y-27499362D01*
X13503785Y-27468274D01*
X13463557Y-27441394D01*
X10129319Y-24107156D01*
X10095834Y-24045833D01*
X10093000Y-24019475D01*
X10093000Y-22652916D01*
X10112685Y-22585877D01*
X10160703Y-22542432D01*
X10167342Y-22539050D01*
X10257050Y-22449342D01*
X10314646Y-22336304D01*
X10314646Y-22336302D01*
X10314647Y-22336301D01*
X10329499Y-22242524D01*
X10329500Y-22242519D01*
X10329499Y-20429482D01*
X10314646Y-20335696D01*
X10257050Y-20222658D01*
X10257046Y-20222654D01*
X10257045Y-20222652D01*
X10167347Y-20132954D01*
X10167344Y-20132952D01*
X10167342Y-20132950D01*
X10085961Y-20091484D01*
X10054301Y-20075352D01*
X9960524Y-20060500D01*
X9597482Y-20060500D01*
X9516519Y-20073323D01*
X9503696Y-20075354D01*
X9390658Y-20132950D01*
X9390656Y-20132951D01*
X9381963Y-20137381D01*
X9380912Y-20135318D01*
X9327840Y-20154246D01*
X9259789Y-20138411D01*
X9233097Y-20118127D01*
X8420593Y-19305581D01*
X7743533Y-18628485D01*
X7710050Y-18567161D01*
X7715036Y-18497469D01*
X7743534Y-18453127D01*
X8846427Y-17350234D01*
X8850389Y-17346603D01*
X8867599Y-17332163D01*
X8931606Y-17304153D01*
X9000597Y-17315194D01*
G37*
%TD.AperFunction*%
%TA.AperFunction,Conductor*%
G36*
X-17152166Y-9090543D02*
G01*
X-17096233Y-9132415D01*
X-17071816Y-9197879D01*
X-17071500Y-9206725D01*
X-17071500Y-10914674D01*
X-17056966Y-10987740D01*
X-17001601Y-11070601D01*
X-16918740Y-11125966D01*
X-16845677Y-11140499D01*
X-16845676Y-11140500D01*
X-16845674Y-11140500D01*
X-15666324Y-11140500D01*
X-15666321Y-11140499D01*
X-15593264Y-11125967D01*
X-15593260Y-11125966D01*
X-15593043Y-11125821D01*
X-15510399Y-11070601D01*
X-15455034Y-10987740D01*
X-15455033Y-10987739D01*
X-15455032Y-10987735D01*
X-15440500Y-10914678D01*
X-15440500Y-10108000D01*
X-15420815Y-10040961D01*
X-15368011Y-9995206D01*
X-15316500Y-9984000D01*
X-14655500Y-9984000D01*
X-14588461Y-10003685D01*
X-14542706Y-10056489D01*
X-14531499Y-10108000D01*
X-14531500Y-10914674D01*
X-14516966Y-10987740D01*
X-14461601Y-11070601D01*
X-14378740Y-11125966D01*
X-14305677Y-11140499D01*
X-14305676Y-11140500D01*
X-14305674Y-11140500D01*
X-14106586Y-11140500D01*
X-14039547Y-11160185D01*
X-13998488Y-11207568D01*
X-13997551Y-11207027D01*
X-13994741Y-11211893D01*
X-13993792Y-11212989D01*
X-13993017Y-11214878D01*
X-13992128Y-11216417D01*
X-13992127Y-11216422D01*
X-13981168Y-11229481D01*
X-13968773Y-11247182D01*
X-13960249Y-11261949D01*
X-13947184Y-11272910D01*
X-13931910Y-11288184D01*
X-13920949Y-11301249D01*
X-13906182Y-11309773D01*
X-13888481Y-11322168D01*
X-13875422Y-11333127D01*
X-13859391Y-11338961D01*
X-13839817Y-11348089D01*
X-13825051Y-11356615D01*
X-13808267Y-11359573D01*
X-13787389Y-11365167D01*
X-13771367Y-11371000D01*
X-13743471Y-11371000D01*
X-9948425Y-11371000D01*
X-9881386Y-11390685D01*
X-9860744Y-11407319D01*
X-8083744Y-13184319D01*
X-8050259Y-13245642D01*
X-8055243Y-13315334D01*
X-8097115Y-13371267D01*
X-8162579Y-13395684D01*
X-8171425Y-13396000D01*
X-8288751Y-13396000D01*
X-8355790Y-13376315D01*
X-8378850Y-13354355D01*
X-8379658Y-13355163D01*
X-8477897Y-13256923D01*
X-8477900Y-13256921D01*
X-8593478Y-13200419D01*
X-8593480Y-13200418D01*
X-8593482Y-13200418D01*
X-8668418Y-13189500D01*
X-9111582Y-13189500D01*
X-9186518Y-13200418D01*
X-9186519Y-13200418D01*
X-9186521Y-13200419D01*
X-9302099Y-13256921D01*
X-9302101Y-13256923D01*
X-9302102Y-13256924D01*
X-9393076Y-13347898D01*
X-9393076Y-13347899D01*
X-9400340Y-13355163D01*
X-9401672Y-13353830D01*
X-9446737Y-13389176D01*
X-9492676Y-13398000D01*
X-10066751Y-13398000D01*
X-10133790Y-13378315D01*
X-10156850Y-13356355D01*
X-10157658Y-13357163D01*
X-10255897Y-13258923D01*
X-10255900Y-13258921D01*
X-10371478Y-13202419D01*
X-10371480Y-13202418D01*
X-10371482Y-13202418D01*
X-10446418Y-13191500D01*
X-10889582Y-13191500D01*
X-10964518Y-13202418D01*
X-10964519Y-13202418D01*
X-10964521Y-13202419D01*
X-11080099Y-13258921D01*
X-11080102Y-13258923D01*
X-11171076Y-13349897D01*
X-11171078Y-13349900D01*
X-11205851Y-13421030D01*
X-11227582Y-13465482D01*
X-11238500Y-13540418D01*
X-11238500Y-13883582D01*
X-11227582Y-13958518D01*
X-11199329Y-14016310D01*
X-11171078Y-14074099D01*
X-11171076Y-14074102D01*
X-11110860Y-14134319D01*
X-11077375Y-14195642D01*
X-11082359Y-14265334D01*
X-11110860Y-14309681D01*
X-11178342Y-14377163D01*
X-11180167Y-14375337D01*
X-11223311Y-14409177D01*
X-11269249Y-14418000D01*
X-14088583Y-14418000D01*
X-14093986Y-14417764D01*
X-14099107Y-14417316D01*
X-14132790Y-14414368D01*
X-14170416Y-14424450D01*
X-14175697Y-14425621D01*
X-14199593Y-14429835D01*
X-14214051Y-14432385D01*
X-14214055Y-14432386D01*
X-14220487Y-14434727D01*
X-14233535Y-14440131D01*
X-14239749Y-14443029D01*
X-14271649Y-14465366D01*
X-14276212Y-14468273D01*
X-14309946Y-14487749D01*
X-14309948Y-14487750D01*
X-14334988Y-14517591D01*
X-14338644Y-14521581D01*
X-16466412Y-16649349D01*
X-16470401Y-16653005D01*
X-16500248Y-16678049D01*
X-16500249Y-16678051D01*
X-16519731Y-16711797D01*
X-16522629Y-16716345D01*
X-16530097Y-16727011D01*
X-16543831Y-16746624D01*
X-16598408Y-16790249D01*
X-16645405Y-16799500D01*
X-16845677Y-16799500D01*
X-16918735Y-16814032D01*
X-16918739Y-16814033D01*
X-16946235Y-16832405D01*
X-17001601Y-16869399D01*
X-17048715Y-16939912D01*
X-17056966Y-16952260D01*
X-17056967Y-16952264D01*
X-17071499Y-17025321D01*
X-17071500Y-17025323D01*
X-17071500Y-17025326D01*
X-17071500Y-19514674D01*
X-17056966Y-19587740D01*
X-17001601Y-19670601D01*
X-16918740Y-19725966D01*
X-16845677Y-19740499D01*
X-16845676Y-19740500D01*
X-16057695Y-19740500D01*
X-15990656Y-19760185D01*
X-15944901Y-19812989D01*
X-15934957Y-19882147D01*
X-15959317Y-19939984D01*
X-16018536Y-20017159D01*
X-16079044Y-20163238D01*
X-16079044Y-20163239D01*
X-16099682Y-20319998D01*
X-16099682Y-20320001D01*
X-16097615Y-20335698D01*
X-16079044Y-20476762D01*
X-16018536Y-20622841D01*
X-15922282Y-20748282D01*
X-15796841Y-20844536D01*
X-15650762Y-20905044D01*
X-15546253Y-20918802D01*
X-15494001Y-20925682D01*
X-15494000Y-20925682D01*
X-15493999Y-20925682D01*
X-15415619Y-20915363D01*
X-15337238Y-20905044D01*
X-15191159Y-20844536D01*
X-15065718Y-20748282D01*
X-14969464Y-20622841D01*
X-14908956Y-20476762D01*
X-14908955Y-20476760D01*
X-14888318Y-20320001D01*
X-14888318Y-20319998D01*
X-14908955Y-20163239D01*
X-14908956Y-20163237D01*
X-14969463Y-20017160D01*
X-15065718Y-19891718D01*
X-15191160Y-19795463D01*
X-15337237Y-19734956D01*
X-15337243Y-19734954D01*
X-15349308Y-19733366D01*
X-15413203Y-19705097D01*
X-15451672Y-19646771D01*
X-15454734Y-19586237D01*
X-15440500Y-19514678D01*
X-15440500Y-17025321D01*
X-15455032Y-16952264D01*
X-15455033Y-16952260D01*
X-15510399Y-16869398D01*
X-15557375Y-16838011D01*
X-15602180Y-16784399D01*
X-15610887Y-16715074D01*
X-15580733Y-16652047D01*
X-15576165Y-16647228D01*
X-14011256Y-15082319D01*
X-13949933Y-15048834D01*
X-13923575Y-15046000D01*
X-11269249Y-15046000D01*
X-11202210Y-15065685D01*
X-11179149Y-15087644D01*
X-11178342Y-15086837D01*
X-11080102Y-15185076D01*
X-11080099Y-15185078D01*
X-11030987Y-15209087D01*
X-10964518Y-15241582D01*
X-10892957Y-15252008D01*
X-10829459Y-15281152D01*
X-10791795Y-15340000D01*
X-10791926Y-15409870D01*
X-10823156Y-15462393D01*
X-11070344Y-15709581D01*
X-11131667Y-15743066D01*
X-11158025Y-15745900D01*
X-13562579Y-15745900D01*
X-13567981Y-15745664D01*
X-13574895Y-15745059D01*
X-13606789Y-15742268D01*
X-13644419Y-15752351D01*
X-13649700Y-15753522D01*
X-13688053Y-15760285D01*
X-13694498Y-15762631D01*
X-13707536Y-15768031D01*
X-13713748Y-15770928D01*
X-13713749Y-15770929D01*
X-13745659Y-15793272D01*
X-13750204Y-15796168D01*
X-13783949Y-15815651D01*
X-13801319Y-15836352D01*
X-13808988Y-15845491D01*
X-13812644Y-15849481D01*
X-14658412Y-16695249D01*
X-14662401Y-16698905D01*
X-14692248Y-16723949D01*
X-14692249Y-16723951D01*
X-14711731Y-16757697D01*
X-14714634Y-16762253D01*
X-14736969Y-16794149D01*
X-14739886Y-16800405D01*
X-14745260Y-16813380D01*
X-14747614Y-16819847D01*
X-14747615Y-16819849D01*
X-14754380Y-16858219D01*
X-14755545Y-16863475D01*
X-14765631Y-16901111D01*
X-14762236Y-16939912D01*
X-14762000Y-16945319D01*
X-14762000Y-19556379D01*
X-14762235Y-19561782D01*
X-14765631Y-19600589D01*
X-14755542Y-19638235D01*
X-14754382Y-19643467D01*
X-14747615Y-19681851D01*
X-14747612Y-19681854D01*
X-14747613Y-19681854D01*
X-14745244Y-19688362D01*
X-14739897Y-19701270D01*
X-14736971Y-19707541D01*
X-14736970Y-19707549D01*
X-14714625Y-19739458D01*
X-14711728Y-19744007D01*
X-14692249Y-19777749D01*
X-14662388Y-19802804D01*
X-14658427Y-19806434D01*
X-14436834Y-20028027D01*
X-14433204Y-20031988D01*
X-14408149Y-20061849D01*
X-14374411Y-20081326D01*
X-14369858Y-20084225D01*
X-14337949Y-20106570D01*
X-14337941Y-20106571D01*
X-14331670Y-20109497D01*
X-14318755Y-20114847D01*
X-14312255Y-20117213D01*
X-14312254Y-20117213D01*
X-14312251Y-20117215D01*
X-14273867Y-20123982D01*
X-14268623Y-20125146D01*
X-14230990Y-20135231D01*
X-14192186Y-20131835D01*
X-14186783Y-20131600D01*
X-13863625Y-20131600D01*
X-13796586Y-20151285D01*
X-13775943Y-20167919D01*
X-13495916Y-20447947D01*
X-13305040Y-20638822D01*
X-13271555Y-20700145D01*
X-13276539Y-20769836D01*
X-13318410Y-20825770D01*
X-13336420Y-20836984D01*
X-13354391Y-20846141D01*
X-13354393Y-20846143D01*
X-13354396Y-20846145D01*
X-13374319Y-20866068D01*
X-13435642Y-20899553D01*
X-13505334Y-20894569D01*
X-13549681Y-20866068D01*
X-13569603Y-20846145D01*
X-13569608Y-20846142D01*
X-13569609Y-20846141D01*
X-13625809Y-20817505D01*
X-13679828Y-20789981D01*
X-13771264Y-20775500D01*
X-14112739Y-20775500D01*
X-14112739Y-20775501D01*
X-14204170Y-20789981D01*
X-14204171Y-20789981D01*
X-14204174Y-20789982D01*
X-14204175Y-20789983D01*
X-14314391Y-20846141D01*
X-14314391Y-20846142D01*
X-14314392Y-20846142D01*
X-14314396Y-20846145D01*
X-14401854Y-20933603D01*
X-14401855Y-20933605D01*
X-14401859Y-20933609D01*
X-14441069Y-21010563D01*
X-14458018Y-21043827D01*
X-14458018Y-21043828D01*
X-14463579Y-21078947D01*
X-14472500Y-21135265D01*
X-14472499Y-21299751D01*
X-14472499Y-21371073D01*
X-14492183Y-21438113D01*
X-14508818Y-21458755D01*
X-15346912Y-22296849D01*
X-15350901Y-22300505D01*
X-15380748Y-22325549D01*
X-15380749Y-22325551D01*
X-15400231Y-22359297D01*
X-15403134Y-22363853D01*
X-15425469Y-22395749D01*
X-15428386Y-22402005D01*
X-15433760Y-22414980D01*
X-15436114Y-22421447D01*
X-15436115Y-22421449D01*
X-15442880Y-22459819D01*
X-15444045Y-22465075D01*
X-15454131Y-22502711D01*
X-15450736Y-22541512D01*
X-15450500Y-22546919D01*
X-15450500Y-22841100D01*
X-15470185Y-22908139D01*
X-15522989Y-22953894D01*
X-15574500Y-22965100D01*
X-17605600Y-22965100D01*
X-17672639Y-22945415D01*
X-17718394Y-22892611D01*
X-17729600Y-22841100D01*
X-17729600Y-13462000D01*
X-16861682Y-13462000D01*
X-16841044Y-13618762D01*
X-16780536Y-13764841D01*
X-16684282Y-13890282D01*
X-16558841Y-13986536D01*
X-16412762Y-14047044D01*
X-16308253Y-14060802D01*
X-16256001Y-14067682D01*
X-16256000Y-14067682D01*
X-16255999Y-14067682D01*
X-16177619Y-14057363D01*
X-16099238Y-14047044D01*
X-15953159Y-13986536D01*
X-15827718Y-13890282D01*
X-15731464Y-13764841D01*
X-15711828Y-13717437D01*
X-15670956Y-13618762D01*
X-15670955Y-13618760D01*
X-15650318Y-13462001D01*
X-15650318Y-13461998D01*
X-15670955Y-13305239D01*
X-15670956Y-13305237D01*
X-15731463Y-13159160D01*
X-15827718Y-13033718D01*
X-15953160Y-12937463D01*
X-16099237Y-12876956D01*
X-16099239Y-12876955D01*
X-16255999Y-12856318D01*
X-16256001Y-12856318D01*
X-16412760Y-12876955D01*
X-16412762Y-12876956D01*
X-16558841Y-12937464D01*
X-16684282Y-13033718D01*
X-16780536Y-13159159D01*
X-16841044Y-13305238D01*
X-16841044Y-13305239D01*
X-16853934Y-13403151D01*
X-16861682Y-13462000D01*
X-17729600Y-13462000D01*
X-17729600Y-9616825D01*
X-17709915Y-9549786D01*
X-17693281Y-9529144D01*
X-17283181Y-9119044D01*
X-17221858Y-9085559D01*
X-17152166Y-9090543D01*
G37*
%TD.AperFunction*%
%TA.AperFunction,Conductor*%
G36*
X1826139Y-16843685D02*
G01*
X1871894Y-16896489D01*
X1883100Y-16948000D01*
X1883100Y-18973078D01*
X1897632Y-19046135D01*
X1897633Y-19046139D01*
X1897634Y-19046140D01*
X1952999Y-19129001D01*
X2035859Y-19184365D01*
X2035860Y-19184366D01*
X2035864Y-19184367D01*
X2108921Y-19198899D01*
X2108924Y-19198900D01*
X2108926Y-19198900D01*
X2717076Y-19198900D01*
X2717077Y-19198899D01*
X2790140Y-19184366D01*
X2873001Y-19129001D01*
X2928366Y-19046140D01*
X2928366Y-19046138D01*
X2933040Y-19034856D01*
X2936707Y-19036375D01*
X2958767Y-18994203D01*
X3019482Y-18959628D01*
X3089252Y-18963367D01*
X3145924Y-19004233D01*
X3160394Y-19035918D01*
X3162960Y-19034856D01*
X3167633Y-19046139D01*
X3167634Y-19046140D01*
X3222999Y-19129001D01*
X3305860Y-19184366D01*
X3310805Y-19185349D01*
X3372715Y-19217734D01*
X3403134Y-19264552D01*
X3406870Y-19274816D01*
X3406871Y-19274819D01*
X3406873Y-19274822D01*
X3406875Y-19274824D01*
X3417828Y-19287878D01*
X3430224Y-19305581D01*
X3438749Y-19320346D01*
X3438751Y-19320349D01*
X3451812Y-19331308D01*
X3467091Y-19346587D01*
X3478051Y-19359649D01*
X3492812Y-19368171D01*
X3510518Y-19380568D01*
X3523578Y-19391527D01*
X3539600Y-19397358D01*
X3559188Y-19406493D01*
X3573945Y-19415013D01*
X3573946Y-19415013D01*
X3573949Y-19415015D01*
X3573953Y-19415015D01*
X3573954Y-19415016D01*
X3590734Y-19417975D01*
X3611616Y-19423570D01*
X3627633Y-19429400D01*
X3655529Y-19429400D01*
X3836375Y-19429400D01*
X3903414Y-19449085D01*
X3924056Y-19465719D01*
X4375880Y-19917543D01*
X4409365Y-19978866D01*
X4404381Y-20048558D01*
X4362509Y-20104491D01*
X4344497Y-20115707D01*
X4310660Y-20132948D01*
X4310652Y-20132954D01*
X4220954Y-20222652D01*
X4220949Y-20222659D01*
X4174483Y-20313852D01*
X4126508Y-20364648D01*
X4058687Y-20381442D01*
X3992552Y-20358904D01*
X3953515Y-20313851D01*
X3907050Y-20222658D01*
X3907047Y-20222655D01*
X3907045Y-20222652D01*
X3817347Y-20132954D01*
X3817344Y-20132952D01*
X3817342Y-20132950D01*
X3735961Y-20091484D01*
X3704301Y-20075352D01*
X3610524Y-20060500D01*
X3247482Y-20060500D01*
X3166519Y-20073323D01*
X3153696Y-20075354D01*
X3040658Y-20132950D01*
X3040656Y-20132951D01*
X3040657Y-20132951D01*
X3040652Y-20132954D01*
X2950954Y-20222652D01*
X2950949Y-20222659D01*
X2904483Y-20313852D01*
X2856508Y-20364648D01*
X2788687Y-20381442D01*
X2722552Y-20358904D01*
X2683515Y-20313851D01*
X2637050Y-20222658D01*
X2637047Y-20222655D01*
X2637045Y-20222652D01*
X2547347Y-20132954D01*
X2547344Y-20132952D01*
X2547342Y-20132950D01*
X2465961Y-20091484D01*
X2434301Y-20075352D01*
X2340524Y-20060500D01*
X1977482Y-20060500D01*
X1896519Y-20073323D01*
X1883696Y-20075354D01*
X1770658Y-20132950D01*
X1770656Y-20132951D01*
X1770657Y-20132951D01*
X1770652Y-20132954D01*
X1680954Y-20222652D01*
X1680949Y-20222659D01*
X1634483Y-20313852D01*
X1586508Y-20364648D01*
X1518687Y-20381442D01*
X1452552Y-20358904D01*
X1413515Y-20313851D01*
X1367050Y-20222658D01*
X1367047Y-20222655D01*
X1367045Y-20222652D01*
X1277347Y-20132954D01*
X1277344Y-20132952D01*
X1277342Y-20132950D01*
X1195961Y-20091484D01*
X1164301Y-20075352D01*
X1070524Y-20060500D01*
X707482Y-20060500D01*
X626519Y-20073323D01*
X613696Y-20075354D01*
X500658Y-20132950D01*
X500656Y-20132951D01*
X500657Y-20132951D01*
X500652Y-20132954D01*
X410954Y-20222652D01*
X410949Y-20222659D01*
X364483Y-20313852D01*
X316508Y-20364648D01*
X248687Y-20381442D01*
X182552Y-20358904D01*
X143515Y-20313851D01*
X97050Y-20222658D01*
X97047Y-20222655D01*
X97045Y-20222652D01*
X7347Y-20132954D01*
X7344Y-20132952D01*
X7342Y-20132950D01*
X-58825Y-20099236D01*
X-105698Y-20075352D01*
X-199475Y-20060500D01*
X-562517Y-20060500D01*
X-630657Y-20071292D01*
X-656304Y-20075354D01*
X-769342Y-20132950D01*
X-769344Y-20132952D01*
X-769347Y-20132954D01*
X-859045Y-20222652D01*
X-859046Y-20222654D01*
X-859050Y-20222658D01*
X-905515Y-20313851D01*
X-953490Y-20364647D01*
X-1021311Y-20381442D01*
X-1087446Y-20358904D01*
X-1126485Y-20313851D01*
X-1172950Y-20222658D01*
X-1172951Y-20222657D01*
X-1172954Y-20222652D01*
X-1262656Y-20132950D01*
X-1269297Y-20129567D01*
X-1320092Y-20081591D01*
X-1337000Y-20019083D01*
X-1337000Y-19292834D01*
X-1317315Y-19225795D01*
X-1281890Y-19189731D01*
X-1273860Y-19184366D01*
X-1190999Y-19129001D01*
X-1135634Y-19046140D01*
X-1135633Y-19046139D01*
X-1135632Y-19046135D01*
X-1121100Y-18973078D01*
X-1121100Y-16948000D01*
X-1101415Y-16880961D01*
X-1048611Y-16835206D01*
X-997100Y-16824000D01*
X1759100Y-16824000D01*
X1826139Y-16843685D01*
G37*
%TD.AperFunction*%
%TA.AperFunction,Conductor*%
G36*
X-7371386Y-8547685D02*
G01*
X-7350744Y-8564319D01*
X-5130818Y-10784244D01*
X-5097333Y-10845567D01*
X-5094499Y-10871924D01*
X-5094499Y-11125822D01*
X-5079739Y-11219022D01*
X-5022502Y-11331355D01*
X-4933355Y-11420502D01*
X-4821022Y-11477739D01*
X-4821019Y-11477739D01*
X-4821018Y-11477740D01*
X-4821019Y-11477740D01*
X-4754286Y-11488308D01*
X-4727823Y-11492500D01*
X-4370178Y-11492499D01*
X-4276978Y-11477739D01*
X-4164645Y-11420502D01*
X-4164641Y-11420498D01*
X-4164639Y-11420497D01*
X-4151681Y-11407539D01*
X-4090358Y-11374054D01*
X-4020666Y-11379038D01*
X-3976319Y-11407539D01*
X-3966904Y-11416953D01*
X-3963355Y-11420502D01*
X-3851022Y-11477739D01*
X-3851019Y-11477739D01*
X-3851018Y-11477740D01*
X-3851019Y-11477740D01*
X-3784286Y-11488308D01*
X-3757823Y-11492500D01*
X-3400178Y-11492499D01*
X-3306978Y-11477739D01*
X-3306974Y-11477737D01*
X-3304313Y-11476873D01*
X-3300896Y-11476775D01*
X-3297340Y-11476212D01*
X-3297267Y-11476671D01*
X-3234472Y-11474876D01*
X-3174638Y-11510956D01*
X-3143809Y-11573656D01*
X-3151773Y-11643071D01*
X-3160737Y-11657726D01*
X-3159824Y-11658254D01*
X-3165248Y-11667650D01*
X-3165249Y-11667651D01*
X-3184731Y-11701397D01*
X-3187629Y-11705945D01*
X-3192694Y-11713179D01*
X-3216193Y-11746738D01*
X-3218151Y-11745366D01*
X-3254382Y-11786514D01*
X-3296390Y-11803285D01*
X-3298136Y-11803632D01*
X-3298142Y-11803634D01*
X-3379599Y-11858062D01*
X-3381001Y-11858999D01*
X-3428518Y-11930115D01*
X-3436366Y-11941860D01*
X-3441040Y-11953144D01*
X-3444706Y-11951625D01*
X-3466775Y-11993805D01*
X-3527494Y-12028374D01*
X-3597263Y-12024628D01*
X-3653932Y-11983757D01*
X-3668396Y-11952082D01*
X-3670960Y-11953144D01*
X-3675633Y-11941860D01*
X-3730999Y-11858999D01*
X-3813860Y-11803633D01*
X-3813864Y-11803632D01*
X-3886923Y-11789100D01*
X-3886926Y-11789100D01*
X-4495074Y-11789100D01*
X-4495077Y-11789100D01*
X-4568135Y-11803632D01*
X-4568139Y-11803633D01*
X-4570343Y-11805106D01*
X-4651001Y-11858999D01*
X-4698518Y-11930115D01*
X-4706366Y-11941860D01*
X-4706367Y-11941864D01*
X-4720899Y-12014921D01*
X-4720900Y-12014923D01*
X-4720900Y-13749800D01*
X-4740585Y-13816839D01*
X-4793389Y-13862594D01*
X-4844900Y-13873800D01*
X-6417500Y-13873800D01*
X-6484539Y-13854115D01*
X-6530294Y-13801311D01*
X-6541500Y-13749800D01*
X-6541500Y-13540423D01*
X-6541500Y-13540418D01*
X-6552418Y-13465482D01*
X-6552418Y-13465480D01*
X-6552419Y-13465478D01*
X-6608921Y-13349900D01*
X-6608923Y-13349897D01*
X-6699897Y-13258923D01*
X-6699900Y-13258921D01*
X-6815478Y-13202419D01*
X-6815480Y-13202418D01*
X-6815482Y-13202418D01*
X-6890418Y-13191500D01*
X-6890423Y-13191500D01*
X-7137075Y-13191500D01*
X-7204114Y-13171815D01*
X-7224756Y-13155181D01*
X-8365011Y-12014926D01*
X-9533355Y-10846580D01*
X-9537011Y-10842591D01*
X-9562050Y-10812751D01*
X-9562053Y-10812749D01*
X-9595786Y-10793273D01*
X-9600348Y-10790367D01*
X-9632249Y-10768030D01*
X-9638455Y-10765136D01*
X-9651521Y-10759724D01*
X-9657952Y-10757384D01*
X-9696304Y-10750621D01*
X-9701584Y-10749450D01*
X-9739209Y-10739368D01*
X-9769942Y-10742057D01*
X-9778018Y-10742764D01*
X-9783421Y-10743000D01*
X-12776500Y-10743000D01*
X-12843539Y-10723315D01*
X-12889294Y-10670511D01*
X-12900500Y-10619000D01*
X-12900500Y-8652000D01*
X-12880815Y-8584961D01*
X-12828011Y-8539206D01*
X-12776500Y-8528000D01*
X-7438425Y-8528000D01*
X-7371386Y-8547685D01*
G37*
%TD.AperFunction*%
%TD*%
M02*
