%TF.GenerationSoftware,KiCad,Pcbnew,7.0.5*%
%TF.CreationDate,2023-06-26T09:37:40-04:00*%
%TF.ProjectId,ESP32Sensor-Sensor_board,45535033-3253-4656-9e73-6f722d53656e,rev?*%
%TF.SameCoordinates,Original*%
%TF.FileFunction,Soldermask,Bot*%
%TF.FilePolarity,Negative*%
%FSLAX46Y46*%
G04 Gerber Fmt 4.6, Leading zero omitted, Abs format (unit mm)*
G04 Created by KiCad (PCBNEW 7.0.5) date 2023-06-26 09:37:40*
%MOMM*%
%LPD*%
G01*
G04 APERTURE LIST*
G04 Aperture macros list*
%AMRoundRect*
0 Rectangle with rounded corners*
0 $1 Rounding radius*
0 $2 $3 $4 $5 $6 $7 $8 $9 X,Y pos of 4 corners*
0 Add a 4 corners polygon primitive as box body*
4,1,4,$2,$3,$4,$5,$6,$7,$8,$9,$2,$3,0*
0 Add four circle primitives for the rounded corners*
1,1,$1+$1,$2,$3*
1,1,$1+$1,$4,$5*
1,1,$1+$1,$6,$7*
1,1,$1+$1,$8,$9*
0 Add four rect primitives between the rounded corners*
20,1,$1+$1,$2,$3,$4,$5,0*
20,1,$1+$1,$4,$5,$6,$7,0*
20,1,$1+$1,$6,$7,$8,$9,0*
20,1,$1+$1,$8,$9,$2,$3,0*%
G04 Aperture macros list end*
%ADD10C,0.650000*%
%ADD11O,1.100000X0.500000*%
%ADD12O,1.600000X1.000000*%
%ADD13C,1.270000*%
%ADD14C,2.000000*%
%ADD15C,1.524000*%
%ADD16RoundRect,0.381000X-0.381000X-2.794000X0.381000X-2.794000X0.381000X2.794000X-0.381000X2.794000X0*%
%ADD17RoundRect,0.147500X-0.172500X0.147500X-0.172500X-0.147500X0.172500X-0.147500X0.172500X0.147500X0*%
%ADD18R,1.130000X2.440000*%
%ADD19RoundRect,0.135000X-0.185000X0.135000X-0.185000X-0.135000X0.185000X-0.135000X0.185000X0.135000X0*%
%ADD20RoundRect,0.135000X0.135000X0.185000X-0.135000X0.185000X-0.135000X-0.185000X0.135000X-0.185000X0*%
%ADD21RoundRect,0.140000X0.140000X0.170000X-0.140000X0.170000X-0.140000X-0.170000X0.140000X-0.170000X0*%
%ADD22RoundRect,0.147500X-0.147500X-0.172500X0.147500X-0.172500X0.147500X0.172500X-0.147500X0.172500X0*%
%ADD23RoundRect,0.140000X-0.170000X0.140000X-0.170000X-0.140000X0.170000X-0.140000X0.170000X0.140000X0*%
%ADD24R,0.600800X1.111200*%
%ADD25R,0.558800X1.981200*%
%ADD26RoundRect,0.135000X0.185000X-0.135000X0.185000X0.135000X-0.185000X0.135000X-0.185000X-0.135000X0*%
%ADD27RoundRect,0.093750X-0.093750X-0.106250X0.093750X-0.106250X0.093750X0.106250X-0.093750X0.106250X0*%
%ADD28R,1.000000X1.600000*%
%ADD29RoundRect,0.135000X-0.135000X-0.185000X0.135000X-0.185000X0.135000X0.185000X-0.135000X0.185000X0*%
%ADD30R,0.558800X1.066800*%
%ADD31RoundRect,0.250000X-0.450000X0.262500X-0.450000X-0.262500X0.450000X-0.262500X0.450000X0.262500X0*%
%ADD32R,1.111200X0.600800*%
%ADD33RoundRect,0.147500X0.147500X0.172500X-0.147500X0.172500X-0.147500X-0.172500X0.147500X-0.172500X0*%
%ADD34RoundRect,0.140000X0.170000X-0.140000X0.170000X0.140000X-0.170000X0.140000X-0.170000X-0.140000X0*%
%ADD35RoundRect,0.250000X0.262500X0.450000X-0.262500X0.450000X-0.262500X-0.450000X0.262500X-0.450000X0*%
%ADD36RoundRect,0.140000X-0.140000X-0.170000X0.140000X-0.170000X0.140000X0.170000X-0.140000X0.170000X0*%
%ADD37RoundRect,0.150000X-0.150000X0.875000X-0.150000X-0.875000X0.150000X-0.875000X0.150000X0.875000X0*%
%ADD38R,0.804800X0.249200*%
%ADD39R,0.610000X2.200000*%
%ADD40RoundRect,0.250000X0.450000X-0.262500X0.450000X0.262500X-0.450000X0.262500X-0.450000X-0.262500X0*%
%ADD41R,2.311400X0.558800*%
G04 APERTURE END LIST*
D10*
%TO.C,J2*%
X9056000Y-51688000D03*
X9056000Y-44488000D03*
D11*
X10306000Y-43958000D03*
D12*
X10306000Y-52218000D03*
X16256000Y-52578000D03*
X16256000Y-43598000D03*
%TD*%
D13*
%TO.C,J5*%
X-10160000Y-57785000D03*
X-7620000Y-57785000D03*
X-5080000Y-57785000D03*
X-2540000Y-57785000D03*
%TD*%
D14*
%TO.C,J1*%
X15738000Y-27278000D03*
%TD*%
D15*
%TO.C,PD1*%
X3810000Y-8890000D03*
X-3746500Y-8890000D03*
D16*
X0Y-5715000D03*
D15*
X0Y-8890000D03*
%TD*%
D13*
%TO.C,J6*%
X2540000Y-57785000D03*
X5080000Y-57785000D03*
X7620000Y-57785000D03*
X10160000Y-57785000D03*
%TD*%
D17*
%TO.C,FB1*%
X-17272000Y-18819000D03*
X-17272000Y-19789000D03*
%TD*%
D18*
%TO.C,S3*%
X16256000Y-18270000D03*
X16256000Y-9670000D03*
X13716000Y-18270000D03*
X13716000Y-9670000D03*
%TD*%
D19*
%TO.C,R10*%
X11684000Y-30226000D03*
X11684000Y-31246000D03*
%TD*%
D20*
%TO.C,R8*%
X4828000Y-10922000D03*
X3808000Y-10922000D03*
%TD*%
D21*
%TO.C,C17*%
X-7930000Y-50546000D03*
X-8890000Y-50546000D03*
%TD*%
D22*
%TO.C,FB3*%
X-4549000Y-10922000D03*
X-3579000Y-10922000D03*
%TD*%
D23*
%TO.C,C8*%
X7366000Y-33810000D03*
X7366000Y-34770000D03*
%TD*%
D24*
%TO.C,CR1*%
X9398000Y-12393000D03*
X9398000Y-8943000D03*
%TD*%
D18*
%TO.C,S2*%
X-10414000Y-10432000D03*
X-10414000Y-19032000D03*
X-7874000Y-10432000D03*
X-7874000Y-19032000D03*
%TD*%
D25*
%TO.C,U7*%
X-4191000Y-13030200D03*
X-2921000Y-13030200D03*
X-1651000Y-13030200D03*
X-381000Y-13030200D03*
X-381000Y-17957800D03*
X-1651000Y-17957800D03*
X-2921000Y-17957800D03*
X-4191000Y-17957800D03*
%TD*%
D19*
%TO.C,R11*%
X9906000Y-17524000D03*
X9906000Y-18544000D03*
%TD*%
%TO.C,R12*%
X8890000Y-17524000D03*
X8890000Y-18544000D03*
%TD*%
D26*
%TO.C,R18*%
X8890000Y-15748000D03*
X8890000Y-14728000D03*
%TD*%
D20*
%TO.C,R13*%
X16032000Y-24130000D03*
X15012000Y-24130000D03*
%TD*%
D25*
%TO.C,U9*%
X2413000Y-13030200D03*
X3683000Y-13030200D03*
X4953000Y-13030200D03*
X6223000Y-13030200D03*
X6223000Y-17957800D03*
X4953000Y-17957800D03*
X3683000Y-17957800D03*
X2413000Y-17957800D03*
%TD*%
D20*
%TO.C,R14*%
X16032000Y-25146000D03*
X15012000Y-25146000D03*
%TD*%
D27*
%TO.C,U12*%
X5462500Y-38750000D03*
X5462500Y-38100000D03*
X5462500Y-37450000D03*
X7237500Y-37450000D03*
X7237500Y-38100000D03*
X7237500Y-38750000D03*
D28*
X6350000Y-38100000D03*
%TD*%
D29*
%TO.C,R15*%
X-4826000Y-26670000D03*
X-3806000Y-26670000D03*
%TD*%
D30*
%TO.C,CR3*%
X13030200Y-46837600D03*
X13970000Y-46837600D03*
X14909800Y-46837600D03*
X14909800Y-49682400D03*
X13970000Y-49682400D03*
X13030200Y-49682400D03*
%TD*%
D31*
%TO.C,R5*%
X-15755548Y-12218720D03*
X-15755548Y-14043720D03*
%TD*%
D32*
%TO.C,CR2*%
X13515000Y-21082000D03*
X16965000Y-21082000D03*
%TD*%
D33*
%TO.C,FB4*%
X7343000Y-10922000D03*
X6373000Y-10922000D03*
%TD*%
D21*
%TO.C,C18*%
X-7958000Y-51562000D03*
X-8918000Y-51562000D03*
%TD*%
D34*
%TO.C,C14*%
X4318000Y-38622000D03*
X4318000Y-37662000D03*
%TD*%
D21*
%TO.C,C6*%
X13970000Y-24130000D03*
X13010000Y-24130000D03*
%TD*%
D35*
%TO.C,R17*%
X13716000Y-33020000D03*
X11891000Y-33020000D03*
%TD*%
D31*
%TO.C,R4*%
X-17716053Y-12207644D03*
X-17716053Y-14032644D03*
%TD*%
D17*
%TO.C,FB2*%
X-16002000Y-18842000D03*
X-16002000Y-19812000D03*
%TD*%
D36*
%TO.C,C12*%
X-4768000Y-25400000D03*
X-3808000Y-25400000D03*
%TD*%
D26*
%TO.C,R19*%
X9906000Y-15750000D03*
X9906000Y-14730000D03*
%TD*%
D37*
%TO.C,U8*%
X-1651000Y-21336000D03*
X-381000Y-21336000D03*
X889000Y-21336000D03*
X2159000Y-21336000D03*
X3429000Y-21336000D03*
X4699000Y-21336000D03*
X5969000Y-21336000D03*
X7239000Y-21336000D03*
X8509000Y-21336000D03*
X9779000Y-21336000D03*
X9779000Y-30636000D03*
X8509000Y-30636000D03*
X7239000Y-30636000D03*
X5969000Y-30636000D03*
X4699000Y-30636000D03*
X3429000Y-30636000D03*
X2159000Y-30636000D03*
X889000Y-30636000D03*
X-381000Y-30636000D03*
X-1651000Y-30636000D03*
%TD*%
D19*
%TO.C,R20*%
X-9934000Y-50544000D03*
X-9934000Y-51564000D03*
%TD*%
D38*
%TO.C,U10*%
X5968802Y-33782000D03*
X5968802Y-34282001D03*
X5968802Y-34782001D03*
X5968802Y-35282002D03*
X4064000Y-35282002D03*
X4064000Y-34782001D03*
X4064000Y-34282001D03*
X4064000Y-33782000D03*
D39*
X5016401Y-34532001D03*
%TD*%
D19*
%TO.C,R9*%
X11684000Y-28194000D03*
X11684000Y-29214000D03*
%TD*%
D21*
%TO.C,C10*%
X-3836000Y-27940000D03*
X-4796000Y-27940000D03*
%TD*%
D36*
%TO.C,C11*%
X-13942000Y-21336000D03*
X-12982000Y-21336000D03*
%TD*%
D21*
%TO.C,C13*%
X7338000Y-39986000D03*
X6378000Y-39986000D03*
%TD*%
D29*
%TO.C,R7*%
X1522000Y-10922000D03*
X2542000Y-10922000D03*
%TD*%
D40*
%TO.C,R6*%
X-13716000Y-14017000D03*
X-13716000Y-12192000D03*
%TD*%
D41*
%TO.C,U11*%
X-16459200Y-32385000D03*
X-16459200Y-31115000D03*
X-16459200Y-29845000D03*
X-16459200Y-28575000D03*
X-16459200Y-27305000D03*
X-16459200Y-26035000D03*
X-16459200Y-24765000D03*
X-16459200Y-23495000D03*
X-7416800Y-23495000D03*
X-7416800Y-24765000D03*
X-7416800Y-26035000D03*
X-7416800Y-27305000D03*
X-7416800Y-28575000D03*
X-7416800Y-29845000D03*
X-7416800Y-31115000D03*
X-7416800Y-32385000D03*
%TD*%
D34*
%TO.C,C15*%
X-4824000Y-24102000D03*
X-4824000Y-23142000D03*
%TD*%
D21*
%TO.C,C16*%
X-7958000Y-49400000D03*
X-8918000Y-49400000D03*
%TD*%
D23*
%TO.C,C9*%
X8636000Y-33810000D03*
X8636000Y-34770000D03*
%TD*%
D19*
%TO.C,R16*%
X-3683000Y-23112000D03*
X-3683000Y-24132000D03*
%TD*%
D21*
%TO.C,C7*%
X13970000Y-25146000D03*
X13010000Y-25146000D03*
%TD*%
M02*
