M48
; DRILL file {KiCad 7.0.5} date Thu Jun 22 13:55:41 2023
; FORMAT={-:-/ absolute / inch / decimal}
; #@! TF.CreationDate,2023-06-22T13:55:41-04:00
; #@! TF.GenerationSoftware,Kicad,Pcbnew,7.0.5
; #@! TF.FileFunction,NonPlated,1,4,NPTH
FMAT,2
INCH
; #@! TA.AperFunction,NonPlated,NPTH,ComponentDrill
T1C0.0290
; #@! TA.AperFunction,NonPlated,NPTH,ComponentDrill
T2C0.0433
%
G90
G05
T1
X-0.6799Y0.025
X-0.6799Y-0.025
X-0.6299Y0.025
X-0.6299Y-0.025
X-0.5799Y0.025
X-0.5799Y-0.025
X0.5799Y0.025
X0.5799Y-0.025
X0.6299Y0.025
X0.6299Y-0.025
X0.6799Y0.025
X0.6799Y-0.025
T2
X-1.0701Y-0.1176
X-0.9886Y0.4327
X-0.8655Y-0.6349
X-0.7658Y0.0469
X-0.6843Y-0.3403
X-0.6428Y0.8684
X-0.6428Y0.423
X-0.4298Y-0.9806
X-0.4201Y-0.6349
X-0.3483Y0.6872
X-0.1256Y1.073
X-0.044Y-0.7579
X0.0389Y0.7687
X0.1205Y-1.0621
X0.3432Y-0.6764
X0.415Y0.6457
X0.4247Y0.9914
X0.6378Y-0.4122
X0.6378Y-0.8576
X0.6792Y0.3512
X0.7608Y-0.0361
X0.8605Y0.6457
X0.9835Y-0.4218
X1.065Y0.1284
T0
M30
