%TF.GenerationSoftware,KiCad,Pcbnew,7.0.5*%
%TF.CreationDate,2023-06-22T13:55:48-04:00*%
%TF.ProjectId,ESP32Sensor-LED_board,45535033-3253-4656-9e73-6f722d4c4544,rev?*%
%TF.SameCoordinates,Original*%
%TF.FileFunction,Drillmap*%
%TF.FilePolarity,Positive*%
%FSLAX45Y45*%
G04 Gerber Fmt 4.5, Leading zero omitted, Abs format (unit mm)*
G04 Created by KiCad (PCBNEW 7.0.5) date 2023-06-22 13:55:48*
%MOMM*%
%LPD*%
G01*
G04 APERTURE LIST*
%ADD10C,0.100000*%
%ADD11C,0.200000*%
%ADD12C,0.020320*%
%ADD13C,0.022030*%
G04 APERTURE END LIST*
D10*
X1000000Y0D02*
G75*
G03*
X1000000Y0I-1000000J0D01*
G01*
X1459038Y-750000D02*
G75*
G03*
X1459038Y-750000I-160000J0D01*
G01*
X160000Y-2600000D02*
G75*
G03*
X160000Y-2600000I-160000J0D01*
G01*
X-1139038Y-750000D02*
G75*
G03*
X-1139038Y-750000I-160000J0D01*
G01*
X160000Y1500000D02*
G75*
G03*
X160000Y1500000I-160000J0D01*
G01*
X2900000Y0D02*
G75*
G03*
X2900000Y0I-2900000J0D01*
G01*
X160000Y2600000D02*
G75*
G03*
X160000Y2600000I-160000J0D01*
G01*
D11*
D12*
X-2715260Y10160D02*
X-2694940Y-10160D01*
X-2694940Y10160D02*
X-2715260Y-10160D01*
X-2524760Y518160D02*
X-2504440Y497840D01*
X-2504440Y518160D02*
X-2524760Y497840D01*
X-2524760Y-370840D02*
X-2504440Y-391160D01*
X-2504440Y-370840D02*
X-2524760Y-391160D01*
X-2461260Y-116840D02*
X-2440940Y-137160D01*
X-2440940Y-116840D02*
X-2461260Y-137160D01*
X-2125024Y178243D02*
X-2104704Y157923D01*
X-2104704Y178243D02*
X-2125024Y157923D01*
X-1953260Y10160D02*
X-1932940Y-10160D01*
X-1932940Y10160D02*
X-1953260Y-10160D01*
X-1762760Y-447040D02*
X-1742440Y-467360D01*
X-1742440Y-447040D02*
X-1762760Y-467360D01*
X-1699260Y1915160D02*
X-1678940Y1894840D01*
X-1678940Y1915160D02*
X-1699260Y1894840D01*
X-1699260Y327660D02*
X-1678940Y307340D01*
X-1678940Y327660D02*
X-1699260Y307340D01*
X-1661160Y-447040D02*
X-1640840Y-467360D01*
X-1640840Y-447040D02*
X-1661160Y-467360D01*
X-1635760Y391160D02*
X-1615440Y370840D01*
X-1615440Y391160D02*
X-1635760Y370840D01*
X-1445260Y327660D02*
X-1424940Y307340D01*
X-1424940Y327660D02*
X-1445260Y307340D01*
X-1254760Y-1704340D02*
X-1234440Y-1724660D01*
X-1234440Y-1704340D02*
X-1254760Y-1724660D01*
X-949960Y2296160D02*
X-929640Y2275840D01*
X-929640Y2296160D02*
X-949960Y2275840D01*
X-924560Y-1894840D02*
X-904240Y-1915160D01*
X-904240Y-1894840D02*
X-924560Y-1915160D01*
X-238760Y-1831340D02*
X-218440Y-1851660D01*
X-218440Y-1831340D02*
X-238760Y-1851660D01*
X-175260Y2359660D02*
X-154940Y2339340D01*
X-154940Y2359660D02*
X-175260Y2339340D01*
X-175260Y-2339340D02*
X-154940Y-2359660D01*
X-154940Y-2339340D02*
X-175260Y-2359660D01*
X-48260Y-1704340D02*
X-27940Y-1724660D01*
X-27940Y-1704340D02*
X-48260Y-1724660D01*
X142240Y2359660D02*
X162560Y2339340D01*
X162560Y2359660D02*
X142240Y2339340D01*
X142240Y-2339340D02*
X162560Y-2359660D01*
X162560Y-2339340D02*
X142240Y-2359660D01*
X777240Y1838960D02*
X797560Y1818640D01*
X797560Y1838960D02*
X777240Y1818640D01*
X929640Y-2225040D02*
X949960Y-2245360D01*
X949960Y-2225040D02*
X929640Y-2245360D01*
X1158240Y1597660D02*
X1178560Y1577340D01*
X1178560Y1597660D02*
X1158240Y1577340D01*
X1336040Y-294640D02*
X1356360Y-314960D01*
X1356360Y-294640D02*
X1336040Y-314960D01*
X1475740Y-1831340D02*
X1496060Y-1851660D01*
X1496060Y-1831340D02*
X1475740Y-1851660D01*
X1564640Y391160D02*
X1584960Y370840D01*
X1584960Y391160D02*
X1564640Y370840D01*
X1666240Y327660D02*
X1686560Y307340D01*
X1686560Y327660D02*
X1666240Y307340D01*
X1844040Y-294640D02*
X1864360Y-314960D01*
X1864360Y-294640D02*
X1844040Y-314960D01*
X1983740Y162560D02*
X2004060Y142240D01*
X2004060Y162560D02*
X1983740Y142240D01*
X2110740Y-116840D02*
X2131060Y-137160D01*
X2131060Y-116840D02*
X2110740Y-137160D01*
X2428240Y200660D02*
X2448560Y180340D01*
X2448560Y200660D02*
X2428240Y180340D01*
X2491740Y518160D02*
X2512060Y497840D01*
X2512060Y518160D02*
X2491740Y497840D01*
X2491740Y-370840D02*
X2512060Y-391160D01*
X2512060Y-370840D02*
X2491740Y-391160D01*
X2682240Y10160D02*
X2702560Y-10160D01*
X2702560Y10160D02*
X2682240Y-10160D01*
D13*
X-1257478Y2070095D02*
G75*
G03*
X-1257478Y2070095I-11015J0D01*
G01*
X-1257478Y-2070095D02*
G75*
G03*
X-1257478Y-2070095I-11015J0D01*
G01*
X-1147492Y2133595D02*
G75*
G03*
X-1147492Y2133595I-11015J0D01*
G01*
X-1147492Y-2133595D02*
G75*
G03*
X-1147492Y-2133595I-11015J0D01*
G01*
X-1130478Y1850125D02*
G75*
G03*
X-1130478Y1850125I-11015J0D01*
G01*
X-1130478Y-1850125D02*
G75*
G03*
X-1130478Y-1850125I-11015J0D01*
G01*
X-1020492Y1913625D02*
G75*
G03*
X-1020492Y1913625I-11015J0D01*
G01*
X-1020492Y-1913625D02*
G75*
G03*
X-1020492Y-1913625I-11015J0D01*
G01*
X1042522Y1913625D02*
G75*
G03*
X1042522Y1913625I-11015J0D01*
G01*
X1042522Y-1913625D02*
G75*
G03*
X1042522Y-1913625I-11015J0D01*
G01*
X1152508Y1850125D02*
G75*
G03*
X1152508Y1850125I-11015J0D01*
G01*
X1152508Y-1850125D02*
G75*
G03*
X1152508Y-1850125I-11015J0D01*
G01*
X1169522Y2133595D02*
G75*
G03*
X1169522Y2133595I-11015J0D01*
G01*
X1169522Y-2133595D02*
G75*
G03*
X1169522Y-2133595I-11015J0D01*
G01*
X1279508Y2070095D02*
G75*
G03*
X1279508Y2070095I-11015J0D01*
G01*
X1279508Y-2070095D02*
G75*
G03*
X1279508Y-2070095I-11015J0D01*
G01*
D11*
X-2644223Y-3216484D02*
X-2644223Y-3016484D01*
X-2644223Y-3016484D02*
X-2596604Y-3016484D01*
X-2596604Y-3016484D02*
X-2568033Y-3026008D01*
X-2568033Y-3026008D02*
X-2548985Y-3045055D01*
X-2548985Y-3045055D02*
X-2539461Y-3064103D01*
X-2539461Y-3064103D02*
X-2529937Y-3102198D01*
X-2529937Y-3102198D02*
X-2529937Y-3130769D01*
X-2529937Y-3130769D02*
X-2539461Y-3168865D01*
X-2539461Y-3168865D02*
X-2548985Y-3187912D01*
X-2548985Y-3187912D02*
X-2568033Y-3206960D01*
X-2568033Y-3206960D02*
X-2596604Y-3216484D01*
X-2596604Y-3216484D02*
X-2644223Y-3216484D01*
X-2444223Y-3216484D02*
X-2444223Y-3083150D01*
X-2444223Y-3121246D02*
X-2434699Y-3102198D01*
X-2434699Y-3102198D02*
X-2425176Y-3092674D01*
X-2425176Y-3092674D02*
X-2406128Y-3083150D01*
X-2406128Y-3083150D02*
X-2387080Y-3083150D01*
X-2320414Y-3216484D02*
X-2320414Y-3083150D01*
X-2320414Y-3016484D02*
X-2329937Y-3026008D01*
X-2329937Y-3026008D02*
X-2320414Y-3035531D01*
X-2320414Y-3035531D02*
X-2310890Y-3026008D01*
X-2310890Y-3026008D02*
X-2320414Y-3016484D01*
X-2320414Y-3016484D02*
X-2320414Y-3035531D01*
X-2196604Y-3216484D02*
X-2215652Y-3206960D01*
X-2215652Y-3206960D02*
X-2225176Y-3187912D01*
X-2225176Y-3187912D02*
X-2225176Y-3016484D01*
X-2091842Y-3216484D02*
X-2110890Y-3206960D01*
X-2110890Y-3206960D02*
X-2120414Y-3187912D01*
X-2120414Y-3187912D02*
X-2120414Y-3016484D01*
X-1863271Y-3216484D02*
X-1863271Y-3016484D01*
X-1863271Y-3016484D02*
X-1796604Y-3159341D01*
X-1796604Y-3159341D02*
X-1729937Y-3016484D01*
X-1729937Y-3016484D02*
X-1729937Y-3216484D01*
X-1548985Y-3216484D02*
X-1548985Y-3111722D01*
X-1548985Y-3111722D02*
X-1558509Y-3092674D01*
X-1558509Y-3092674D02*
X-1577556Y-3083150D01*
X-1577556Y-3083150D02*
X-1615652Y-3083150D01*
X-1615652Y-3083150D02*
X-1634699Y-3092674D01*
X-1548985Y-3206960D02*
X-1568033Y-3216484D01*
X-1568033Y-3216484D02*
X-1615652Y-3216484D01*
X-1615652Y-3216484D02*
X-1634699Y-3206960D01*
X-1634699Y-3206960D02*
X-1644223Y-3187912D01*
X-1644223Y-3187912D02*
X-1644223Y-3168865D01*
X-1644223Y-3168865D02*
X-1634699Y-3149817D01*
X-1634699Y-3149817D02*
X-1615652Y-3140293D01*
X-1615652Y-3140293D02*
X-1568033Y-3140293D01*
X-1568033Y-3140293D02*
X-1548985Y-3130769D01*
X-1453747Y-3083150D02*
X-1453747Y-3283150D01*
X-1453747Y-3092674D02*
X-1434699Y-3083150D01*
X-1434699Y-3083150D02*
X-1396604Y-3083150D01*
X-1396604Y-3083150D02*
X-1377556Y-3092674D01*
X-1377556Y-3092674D02*
X-1368033Y-3102198D01*
X-1368033Y-3102198D02*
X-1358509Y-3121246D01*
X-1358509Y-3121246D02*
X-1358509Y-3178388D01*
X-1358509Y-3178388D02*
X-1368033Y-3197436D01*
X-1368033Y-3197436D02*
X-1377556Y-3206960D01*
X-1377556Y-3206960D02*
X-1396604Y-3216484D01*
X-1396604Y-3216484D02*
X-1434699Y-3216484D01*
X-1434699Y-3216484D02*
X-1453747Y-3206960D01*
X-1272795Y-3197436D02*
X-1263271Y-3206960D01*
X-1263271Y-3206960D02*
X-1272795Y-3216484D01*
X-1272795Y-3216484D02*
X-1282318Y-3206960D01*
X-1282318Y-3206960D02*
X-1272795Y-3197436D01*
X-1272795Y-3197436D02*
X-1272795Y-3216484D01*
X-1272795Y-3092674D02*
X-1263271Y-3102198D01*
X-1263271Y-3102198D02*
X-1272795Y-3111722D01*
X-1272795Y-3111722D02*
X-1282318Y-3102198D01*
X-1282318Y-3102198D02*
X-1272795Y-3092674D01*
X-1272795Y-3092674D02*
X-1272795Y-3111722D01*
D12*
X-2925320Y-3534840D02*
X-2905000Y-3555160D01*
X-2905000Y-3534840D02*
X-2925320Y-3555160D01*
D11*
X-2606128Y-3436484D02*
X-2587080Y-3436484D01*
X-2587080Y-3436484D02*
X-2568033Y-3446008D01*
X-2568033Y-3446008D02*
X-2558509Y-3455531D01*
X-2558509Y-3455531D02*
X-2548985Y-3474579D01*
X-2548985Y-3474579D02*
X-2539461Y-3512674D01*
X-2539461Y-3512674D02*
X-2539461Y-3560293D01*
X-2539461Y-3560293D02*
X-2548985Y-3598388D01*
X-2548985Y-3598388D02*
X-2558509Y-3617436D01*
X-2558509Y-3617436D02*
X-2568033Y-3626960D01*
X-2568033Y-3626960D02*
X-2587080Y-3636484D01*
X-2587080Y-3636484D02*
X-2606128Y-3636484D01*
X-2606128Y-3636484D02*
X-2625176Y-3626960D01*
X-2625176Y-3626960D02*
X-2634699Y-3617436D01*
X-2634699Y-3617436D02*
X-2644223Y-3598388D01*
X-2644223Y-3598388D02*
X-2653747Y-3560293D01*
X-2653747Y-3560293D02*
X-2653747Y-3512674D01*
X-2653747Y-3512674D02*
X-2644223Y-3474579D01*
X-2644223Y-3474579D02*
X-2634699Y-3455531D01*
X-2634699Y-3455531D02*
X-2625176Y-3446008D01*
X-2625176Y-3446008D02*
X-2606128Y-3436484D01*
X-2453747Y-3617436D02*
X-2444223Y-3626960D01*
X-2444223Y-3626960D02*
X-2453747Y-3636484D01*
X-2453747Y-3636484D02*
X-2463271Y-3626960D01*
X-2463271Y-3626960D02*
X-2453747Y-3617436D01*
X-2453747Y-3617436D02*
X-2453747Y-3636484D01*
X-2368033Y-3455531D02*
X-2358509Y-3446008D01*
X-2358509Y-3446008D02*
X-2339461Y-3436484D01*
X-2339461Y-3436484D02*
X-2291842Y-3436484D01*
X-2291842Y-3436484D02*
X-2272795Y-3446008D01*
X-2272795Y-3446008D02*
X-2263271Y-3455531D01*
X-2263271Y-3455531D02*
X-2253747Y-3474579D01*
X-2253747Y-3474579D02*
X-2253747Y-3493627D01*
X-2253747Y-3493627D02*
X-2263271Y-3522198D01*
X-2263271Y-3522198D02*
X-2377556Y-3636484D01*
X-2377556Y-3636484D02*
X-2253747Y-3636484D01*
X-2129937Y-3436484D02*
X-2110890Y-3436484D01*
X-2110890Y-3436484D02*
X-2091842Y-3446008D01*
X-2091842Y-3446008D02*
X-2082318Y-3455531D01*
X-2082318Y-3455531D02*
X-2072794Y-3474579D01*
X-2072794Y-3474579D02*
X-2063271Y-3512674D01*
X-2063271Y-3512674D02*
X-2063271Y-3560293D01*
X-2063271Y-3560293D02*
X-2072794Y-3598388D01*
X-2072794Y-3598388D02*
X-2082318Y-3617436D01*
X-2082318Y-3617436D02*
X-2091842Y-3626960D01*
X-2091842Y-3626960D02*
X-2110890Y-3636484D01*
X-2110890Y-3636484D02*
X-2129937Y-3636484D01*
X-2129937Y-3636484D02*
X-2148985Y-3626960D01*
X-2148985Y-3626960D02*
X-2158509Y-3617436D01*
X-2158509Y-3617436D02*
X-2168033Y-3598388D01*
X-2168033Y-3598388D02*
X-2177556Y-3560293D01*
X-2177556Y-3560293D02*
X-2177556Y-3512674D01*
X-2177556Y-3512674D02*
X-2168033Y-3474579D01*
X-2168033Y-3474579D02*
X-2158509Y-3455531D01*
X-2158509Y-3455531D02*
X-2148985Y-3446008D01*
X-2148985Y-3446008D02*
X-2129937Y-3436484D01*
X-1996604Y-3436484D02*
X-1872794Y-3436484D01*
X-1872794Y-3436484D02*
X-1939461Y-3512674D01*
X-1939461Y-3512674D02*
X-1910890Y-3512674D01*
X-1910890Y-3512674D02*
X-1891842Y-3522198D01*
X-1891842Y-3522198D02*
X-1882318Y-3531722D01*
X-1882318Y-3531722D02*
X-1872794Y-3550769D01*
X-1872794Y-3550769D02*
X-1872794Y-3598388D01*
X-1872794Y-3598388D02*
X-1882318Y-3617436D01*
X-1882318Y-3617436D02*
X-1891842Y-3626960D01*
X-1891842Y-3626960D02*
X-1910890Y-3636484D01*
X-1910890Y-3636484D02*
X-1968033Y-3636484D01*
X-1968033Y-3636484D02*
X-1987080Y-3626960D01*
X-1987080Y-3626960D02*
X-1996604Y-3617436D01*
X-1787080Y-3636484D02*
X-1787080Y-3503150D01*
X-1787080Y-3522198D02*
X-1777556Y-3512674D01*
X-1777556Y-3512674D02*
X-1758509Y-3503150D01*
X-1758509Y-3503150D02*
X-1729937Y-3503150D01*
X-1729937Y-3503150D02*
X-1710890Y-3512674D01*
X-1710890Y-3512674D02*
X-1701366Y-3531722D01*
X-1701366Y-3531722D02*
X-1701366Y-3636484D01*
X-1701366Y-3531722D02*
X-1691842Y-3512674D01*
X-1691842Y-3512674D02*
X-1672794Y-3503150D01*
X-1672794Y-3503150D02*
X-1644223Y-3503150D01*
X-1644223Y-3503150D02*
X-1625175Y-3512674D01*
X-1625175Y-3512674D02*
X-1615652Y-3531722D01*
X-1615652Y-3531722D02*
X-1615652Y-3636484D01*
X-1520413Y-3636484D02*
X-1520413Y-3503150D01*
X-1520413Y-3522198D02*
X-1510890Y-3512674D01*
X-1510890Y-3512674D02*
X-1491842Y-3503150D01*
X-1491842Y-3503150D02*
X-1463271Y-3503150D01*
X-1463271Y-3503150D02*
X-1444223Y-3512674D01*
X-1444223Y-3512674D02*
X-1434699Y-3531722D01*
X-1434699Y-3531722D02*
X-1434699Y-3636484D01*
X-1434699Y-3531722D02*
X-1425175Y-3512674D01*
X-1425175Y-3512674D02*
X-1406128Y-3503150D01*
X-1406128Y-3503150D02*
X-1377556Y-3503150D01*
X-1377556Y-3503150D02*
X-1358509Y-3512674D01*
X-1358509Y-3512674D02*
X-1348985Y-3531722D01*
X-1348985Y-3531722D02*
X-1348985Y-3636484D01*
X-958509Y-3426960D02*
X-1129937Y-3684103D01*
X-701366Y-3436484D02*
X-682318Y-3436484D01*
X-682318Y-3436484D02*
X-663271Y-3446008D01*
X-663271Y-3446008D02*
X-653747Y-3455531D01*
X-653747Y-3455531D02*
X-644223Y-3474579D01*
X-644223Y-3474579D02*
X-634699Y-3512674D01*
X-634699Y-3512674D02*
X-634699Y-3560293D01*
X-634699Y-3560293D02*
X-644223Y-3598388D01*
X-644223Y-3598388D02*
X-653747Y-3617436D01*
X-653747Y-3617436D02*
X-663271Y-3626960D01*
X-663271Y-3626960D02*
X-682318Y-3636484D01*
X-682318Y-3636484D02*
X-701366Y-3636484D01*
X-701366Y-3636484D02*
X-720413Y-3626960D01*
X-720413Y-3626960D02*
X-729937Y-3617436D01*
X-729937Y-3617436D02*
X-739461Y-3598388D01*
X-739461Y-3598388D02*
X-748985Y-3560293D01*
X-748985Y-3560293D02*
X-748985Y-3512674D01*
X-748985Y-3512674D02*
X-739461Y-3474579D01*
X-739461Y-3474579D02*
X-729937Y-3455531D01*
X-729937Y-3455531D02*
X-720413Y-3446008D01*
X-720413Y-3446008D02*
X-701366Y-3436484D01*
X-548985Y-3617436D02*
X-539461Y-3626960D01*
X-539461Y-3626960D02*
X-548985Y-3636484D01*
X-548985Y-3636484D02*
X-558509Y-3626960D01*
X-558509Y-3626960D02*
X-548985Y-3617436D01*
X-548985Y-3617436D02*
X-548985Y-3636484D01*
X-415651Y-3436484D02*
X-396604Y-3436484D01*
X-396604Y-3436484D02*
X-377556Y-3446008D01*
X-377556Y-3446008D02*
X-368032Y-3455531D01*
X-368032Y-3455531D02*
X-358509Y-3474579D01*
X-358509Y-3474579D02*
X-348985Y-3512674D01*
X-348985Y-3512674D02*
X-348985Y-3560293D01*
X-348985Y-3560293D02*
X-358509Y-3598388D01*
X-358509Y-3598388D02*
X-368032Y-3617436D01*
X-368032Y-3617436D02*
X-377556Y-3626960D01*
X-377556Y-3626960D02*
X-396604Y-3636484D01*
X-396604Y-3636484D02*
X-415651Y-3636484D01*
X-415651Y-3636484D02*
X-434699Y-3626960D01*
X-434699Y-3626960D02*
X-444223Y-3617436D01*
X-444223Y-3617436D02*
X-453747Y-3598388D01*
X-453747Y-3598388D02*
X-463270Y-3560293D01*
X-463270Y-3560293D02*
X-463270Y-3512674D01*
X-463270Y-3512674D02*
X-453747Y-3474579D01*
X-453747Y-3474579D02*
X-444223Y-3455531D01*
X-444223Y-3455531D02*
X-434699Y-3446008D01*
X-434699Y-3446008D02*
X-415651Y-3436484D01*
X-225175Y-3436484D02*
X-206128Y-3436484D01*
X-206128Y-3436484D02*
X-187080Y-3446008D01*
X-187080Y-3446008D02*
X-177556Y-3455531D01*
X-177556Y-3455531D02*
X-168032Y-3474579D01*
X-168032Y-3474579D02*
X-158509Y-3512674D01*
X-158509Y-3512674D02*
X-158509Y-3560293D01*
X-158509Y-3560293D02*
X-168032Y-3598388D01*
X-168032Y-3598388D02*
X-177556Y-3617436D01*
X-177556Y-3617436D02*
X-187080Y-3626960D01*
X-187080Y-3626960D02*
X-206128Y-3636484D01*
X-206128Y-3636484D02*
X-225175Y-3636484D01*
X-225175Y-3636484D02*
X-244223Y-3626960D01*
X-244223Y-3626960D02*
X-253747Y-3617436D01*
X-253747Y-3617436D02*
X-263271Y-3598388D01*
X-263271Y-3598388D02*
X-272794Y-3560293D01*
X-272794Y-3560293D02*
X-272794Y-3512674D01*
X-272794Y-3512674D02*
X-263271Y-3474579D01*
X-263271Y-3474579D02*
X-253747Y-3455531D01*
X-253747Y-3455531D02*
X-244223Y-3446008D01*
X-244223Y-3446008D02*
X-225175Y-3436484D01*
X-44223Y-3522198D02*
X-63270Y-3512674D01*
X-63270Y-3512674D02*
X-72794Y-3503150D01*
X-72794Y-3503150D02*
X-82318Y-3484103D01*
X-82318Y-3484103D02*
X-82318Y-3474579D01*
X-82318Y-3474579D02*
X-72794Y-3455531D01*
X-72794Y-3455531D02*
X-63270Y-3446008D01*
X-63270Y-3446008D02*
X-44223Y-3436484D01*
X-44223Y-3436484D02*
X-6128Y-3436484D01*
X-6128Y-3436484D02*
X12920Y-3446008D01*
X12920Y-3446008D02*
X22444Y-3455531D01*
X22444Y-3455531D02*
X31967Y-3474579D01*
X31967Y-3474579D02*
X31967Y-3484103D01*
X31967Y-3484103D02*
X22444Y-3503150D01*
X22444Y-3503150D02*
X12920Y-3512674D01*
X12920Y-3512674D02*
X-6128Y-3522198D01*
X-6128Y-3522198D02*
X-44223Y-3522198D01*
X-44223Y-3522198D02*
X-63270Y-3531722D01*
X-63270Y-3531722D02*
X-72794Y-3541246D01*
X-72794Y-3541246D02*
X-82318Y-3560293D01*
X-82318Y-3560293D02*
X-82318Y-3598388D01*
X-82318Y-3598388D02*
X-72794Y-3617436D01*
X-72794Y-3617436D02*
X-63270Y-3626960D01*
X-63270Y-3626960D02*
X-44223Y-3636484D01*
X-44223Y-3636484D02*
X-6128Y-3636484D01*
X-6128Y-3636484D02*
X12920Y-3626960D01*
X12920Y-3626960D02*
X22444Y-3617436D01*
X22444Y-3617436D02*
X31967Y-3598388D01*
X31967Y-3598388D02*
X31967Y-3560293D01*
X31967Y-3560293D02*
X22444Y-3541246D01*
X22444Y-3541246D02*
X12920Y-3531722D01*
X12920Y-3531722D02*
X-6128Y-3522198D01*
X155777Y-3436484D02*
X174825Y-3436484D01*
X174825Y-3436484D02*
X193872Y-3446008D01*
X193872Y-3446008D02*
X203396Y-3455531D01*
X203396Y-3455531D02*
X212920Y-3474579D01*
X212920Y-3474579D02*
X222444Y-3512674D01*
X222444Y-3512674D02*
X222444Y-3560293D01*
X222444Y-3560293D02*
X212920Y-3598388D01*
X212920Y-3598388D02*
X203396Y-3617436D01*
X203396Y-3617436D02*
X193872Y-3626960D01*
X193872Y-3626960D02*
X174825Y-3636484D01*
X174825Y-3636484D02*
X155777Y-3636484D01*
X155777Y-3636484D02*
X136729Y-3626960D01*
X136729Y-3626960D02*
X127206Y-3617436D01*
X127206Y-3617436D02*
X117682Y-3598388D01*
X117682Y-3598388D02*
X108158Y-3560293D01*
X108158Y-3560293D02*
X108158Y-3512674D01*
X108158Y-3512674D02*
X117682Y-3474579D01*
X117682Y-3474579D02*
X127206Y-3455531D01*
X127206Y-3455531D02*
X136729Y-3446008D01*
X136729Y-3446008D02*
X155777Y-3436484D01*
X298634Y-3436484D02*
X298634Y-3474579D01*
X374825Y-3436484D02*
X374825Y-3474579D01*
X670063Y-3712674D02*
X660539Y-3703150D01*
X660539Y-3703150D02*
X641491Y-3674579D01*
X641491Y-3674579D02*
X631968Y-3655531D01*
X631968Y-3655531D02*
X622444Y-3626960D01*
X622444Y-3626960D02*
X612920Y-3579341D01*
X612920Y-3579341D02*
X612920Y-3541246D01*
X612920Y-3541246D02*
X622444Y-3493627D01*
X622444Y-3493627D02*
X631968Y-3465055D01*
X631968Y-3465055D02*
X641491Y-3446008D01*
X641491Y-3446008D02*
X660539Y-3417436D01*
X660539Y-3417436D02*
X670063Y-3407912D01*
X727206Y-3436484D02*
X851015Y-3436484D01*
X851015Y-3436484D02*
X784348Y-3512674D01*
X784348Y-3512674D02*
X812920Y-3512674D01*
X812920Y-3512674D02*
X831968Y-3522198D01*
X831968Y-3522198D02*
X841491Y-3531722D01*
X841491Y-3531722D02*
X851015Y-3550769D01*
X851015Y-3550769D02*
X851015Y-3598388D01*
X851015Y-3598388D02*
X841491Y-3617436D01*
X841491Y-3617436D02*
X831968Y-3626960D01*
X831968Y-3626960D02*
X812920Y-3636484D01*
X812920Y-3636484D02*
X755777Y-3636484D01*
X755777Y-3636484D02*
X736729Y-3626960D01*
X736729Y-3626960D02*
X727206Y-3617436D01*
X1031968Y-3436484D02*
X936729Y-3436484D01*
X936729Y-3436484D02*
X927206Y-3531722D01*
X927206Y-3531722D02*
X936729Y-3522198D01*
X936729Y-3522198D02*
X955777Y-3512674D01*
X955777Y-3512674D02*
X1003396Y-3512674D01*
X1003396Y-3512674D02*
X1022444Y-3522198D01*
X1022444Y-3522198D02*
X1031968Y-3531722D01*
X1031968Y-3531722D02*
X1041491Y-3550769D01*
X1041491Y-3550769D02*
X1041491Y-3598388D01*
X1041491Y-3598388D02*
X1031968Y-3617436D01*
X1031968Y-3617436D02*
X1022444Y-3626960D01*
X1022444Y-3626960D02*
X1003396Y-3636484D01*
X1003396Y-3636484D02*
X955777Y-3636484D01*
X955777Y-3636484D02*
X936729Y-3626960D01*
X936729Y-3626960D02*
X927206Y-3617436D01*
X1279587Y-3636484D02*
X1279587Y-3436484D01*
X1365301Y-3636484D02*
X1365301Y-3531722D01*
X1365301Y-3531722D02*
X1355777Y-3512674D01*
X1355777Y-3512674D02*
X1336730Y-3503150D01*
X1336730Y-3503150D02*
X1308158Y-3503150D01*
X1308158Y-3503150D02*
X1289111Y-3512674D01*
X1289111Y-3512674D02*
X1279587Y-3522198D01*
X1489110Y-3636484D02*
X1470063Y-3626960D01*
X1470063Y-3626960D02*
X1460539Y-3617436D01*
X1460539Y-3617436D02*
X1451015Y-3598388D01*
X1451015Y-3598388D02*
X1451015Y-3541246D01*
X1451015Y-3541246D02*
X1460539Y-3522198D01*
X1460539Y-3522198D02*
X1470063Y-3512674D01*
X1470063Y-3512674D02*
X1489110Y-3503150D01*
X1489110Y-3503150D02*
X1517682Y-3503150D01*
X1517682Y-3503150D02*
X1536730Y-3512674D01*
X1536730Y-3512674D02*
X1546253Y-3522198D01*
X1546253Y-3522198D02*
X1555777Y-3541246D01*
X1555777Y-3541246D02*
X1555777Y-3598388D01*
X1555777Y-3598388D02*
X1546253Y-3617436D01*
X1546253Y-3617436D02*
X1536730Y-3626960D01*
X1536730Y-3626960D02*
X1517682Y-3636484D01*
X1517682Y-3636484D02*
X1489110Y-3636484D01*
X1670063Y-3636484D02*
X1651015Y-3626960D01*
X1651015Y-3626960D02*
X1641491Y-3607912D01*
X1641491Y-3607912D02*
X1641491Y-3436484D01*
X1822444Y-3626960D02*
X1803396Y-3636484D01*
X1803396Y-3636484D02*
X1765301Y-3636484D01*
X1765301Y-3636484D02*
X1746253Y-3626960D01*
X1746253Y-3626960D02*
X1736730Y-3607912D01*
X1736730Y-3607912D02*
X1736730Y-3531722D01*
X1736730Y-3531722D02*
X1746253Y-3512674D01*
X1746253Y-3512674D02*
X1765301Y-3503150D01*
X1765301Y-3503150D02*
X1803396Y-3503150D01*
X1803396Y-3503150D02*
X1822444Y-3512674D01*
X1822444Y-3512674D02*
X1831968Y-3531722D01*
X1831968Y-3531722D02*
X1831968Y-3550769D01*
X1831968Y-3550769D02*
X1736730Y-3569817D01*
X1908158Y-3626960D02*
X1927206Y-3636484D01*
X1927206Y-3636484D02*
X1965301Y-3636484D01*
X1965301Y-3636484D02*
X1984349Y-3626960D01*
X1984349Y-3626960D02*
X1993872Y-3607912D01*
X1993872Y-3607912D02*
X1993872Y-3598388D01*
X1993872Y-3598388D02*
X1984349Y-3579341D01*
X1984349Y-3579341D02*
X1965301Y-3569817D01*
X1965301Y-3569817D02*
X1936730Y-3569817D01*
X1936730Y-3569817D02*
X1917682Y-3560293D01*
X1917682Y-3560293D02*
X1908158Y-3541246D01*
X1908158Y-3541246D02*
X1908158Y-3531722D01*
X1908158Y-3531722D02*
X1917682Y-3512674D01*
X1917682Y-3512674D02*
X1936730Y-3503150D01*
X1936730Y-3503150D02*
X1965301Y-3503150D01*
X1965301Y-3503150D02*
X1984349Y-3512674D01*
X2060539Y-3712674D02*
X2070063Y-3703150D01*
X2070063Y-3703150D02*
X2089111Y-3674579D01*
X2089111Y-3674579D02*
X2098634Y-3655531D01*
X2098634Y-3655531D02*
X2108158Y-3626960D01*
X2108158Y-3626960D02*
X2117682Y-3579341D01*
X2117682Y-3579341D02*
X2117682Y-3541246D01*
X2117682Y-3541246D02*
X2108158Y-3493627D01*
X2108158Y-3493627D02*
X2098634Y-3465055D01*
X2098634Y-3465055D02*
X2089111Y-3446008D01*
X2089111Y-3446008D02*
X2070063Y-3417436D01*
X2070063Y-3417436D02*
X2060539Y-3407912D01*
D13*
X-2905000Y-3809000D02*
G75*
G03*
X-2905000Y-3809000I-11015J0D01*
G01*
D11*
X-2606128Y-3700484D02*
X-2587080Y-3700484D01*
X-2587080Y-3700484D02*
X-2568033Y-3710008D01*
X-2568033Y-3710008D02*
X-2558509Y-3719531D01*
X-2558509Y-3719531D02*
X-2548985Y-3738579D01*
X-2548985Y-3738579D02*
X-2539461Y-3776674D01*
X-2539461Y-3776674D02*
X-2539461Y-3824293D01*
X-2539461Y-3824293D02*
X-2548985Y-3862388D01*
X-2548985Y-3862388D02*
X-2558509Y-3881436D01*
X-2558509Y-3881436D02*
X-2568033Y-3890960D01*
X-2568033Y-3890960D02*
X-2587080Y-3900484D01*
X-2587080Y-3900484D02*
X-2606128Y-3900484D01*
X-2606128Y-3900484D02*
X-2625176Y-3890960D01*
X-2625176Y-3890960D02*
X-2634699Y-3881436D01*
X-2634699Y-3881436D02*
X-2644223Y-3862388D01*
X-2644223Y-3862388D02*
X-2653747Y-3824293D01*
X-2653747Y-3824293D02*
X-2653747Y-3776674D01*
X-2653747Y-3776674D02*
X-2644223Y-3738579D01*
X-2644223Y-3738579D02*
X-2634699Y-3719531D01*
X-2634699Y-3719531D02*
X-2625176Y-3710008D01*
X-2625176Y-3710008D02*
X-2606128Y-3700484D01*
X-2453747Y-3881436D02*
X-2444223Y-3890960D01*
X-2444223Y-3890960D02*
X-2453747Y-3900484D01*
X-2453747Y-3900484D02*
X-2463271Y-3890960D01*
X-2463271Y-3890960D02*
X-2453747Y-3881436D01*
X-2453747Y-3881436D02*
X-2453747Y-3900484D01*
X-2368033Y-3719531D02*
X-2358509Y-3710008D01*
X-2358509Y-3710008D02*
X-2339461Y-3700484D01*
X-2339461Y-3700484D02*
X-2291842Y-3700484D01*
X-2291842Y-3700484D02*
X-2272795Y-3710008D01*
X-2272795Y-3710008D02*
X-2263271Y-3719531D01*
X-2263271Y-3719531D02*
X-2253747Y-3738579D01*
X-2253747Y-3738579D02*
X-2253747Y-3757627D01*
X-2253747Y-3757627D02*
X-2263271Y-3786198D01*
X-2263271Y-3786198D02*
X-2377556Y-3900484D01*
X-2377556Y-3900484D02*
X-2253747Y-3900484D01*
X-2177556Y-3719531D02*
X-2168033Y-3710008D01*
X-2168033Y-3710008D02*
X-2148985Y-3700484D01*
X-2148985Y-3700484D02*
X-2101366Y-3700484D01*
X-2101366Y-3700484D02*
X-2082318Y-3710008D01*
X-2082318Y-3710008D02*
X-2072794Y-3719531D01*
X-2072794Y-3719531D02*
X-2063271Y-3738579D01*
X-2063271Y-3738579D02*
X-2063271Y-3757627D01*
X-2063271Y-3757627D02*
X-2072794Y-3786198D01*
X-2072794Y-3786198D02*
X-2187080Y-3900484D01*
X-2187080Y-3900484D02*
X-2063271Y-3900484D01*
X-1939461Y-3700484D02*
X-1920413Y-3700484D01*
X-1920413Y-3700484D02*
X-1901366Y-3710008D01*
X-1901366Y-3710008D02*
X-1891842Y-3719531D01*
X-1891842Y-3719531D02*
X-1882318Y-3738579D01*
X-1882318Y-3738579D02*
X-1872794Y-3776674D01*
X-1872794Y-3776674D02*
X-1872794Y-3824293D01*
X-1872794Y-3824293D02*
X-1882318Y-3862388D01*
X-1882318Y-3862388D02*
X-1891842Y-3881436D01*
X-1891842Y-3881436D02*
X-1901366Y-3890960D01*
X-1901366Y-3890960D02*
X-1920413Y-3900484D01*
X-1920413Y-3900484D02*
X-1939461Y-3900484D01*
X-1939461Y-3900484D02*
X-1958509Y-3890960D01*
X-1958509Y-3890960D02*
X-1968033Y-3881436D01*
X-1968033Y-3881436D02*
X-1977556Y-3862388D01*
X-1977556Y-3862388D02*
X-1987080Y-3824293D01*
X-1987080Y-3824293D02*
X-1987080Y-3776674D01*
X-1987080Y-3776674D02*
X-1977556Y-3738579D01*
X-1977556Y-3738579D02*
X-1968033Y-3719531D01*
X-1968033Y-3719531D02*
X-1958509Y-3710008D01*
X-1958509Y-3710008D02*
X-1939461Y-3700484D01*
X-1787080Y-3900484D02*
X-1787080Y-3767150D01*
X-1787080Y-3786198D02*
X-1777556Y-3776674D01*
X-1777556Y-3776674D02*
X-1758509Y-3767150D01*
X-1758509Y-3767150D02*
X-1729937Y-3767150D01*
X-1729937Y-3767150D02*
X-1710890Y-3776674D01*
X-1710890Y-3776674D02*
X-1701366Y-3795722D01*
X-1701366Y-3795722D02*
X-1701366Y-3900484D01*
X-1701366Y-3795722D02*
X-1691842Y-3776674D01*
X-1691842Y-3776674D02*
X-1672794Y-3767150D01*
X-1672794Y-3767150D02*
X-1644223Y-3767150D01*
X-1644223Y-3767150D02*
X-1625175Y-3776674D01*
X-1625175Y-3776674D02*
X-1615652Y-3795722D01*
X-1615652Y-3795722D02*
X-1615652Y-3900484D01*
X-1520413Y-3900484D02*
X-1520413Y-3767150D01*
X-1520413Y-3786198D02*
X-1510890Y-3776674D01*
X-1510890Y-3776674D02*
X-1491842Y-3767150D01*
X-1491842Y-3767150D02*
X-1463271Y-3767150D01*
X-1463271Y-3767150D02*
X-1444223Y-3776674D01*
X-1444223Y-3776674D02*
X-1434699Y-3795722D01*
X-1434699Y-3795722D02*
X-1434699Y-3900484D01*
X-1434699Y-3795722D02*
X-1425175Y-3776674D01*
X-1425175Y-3776674D02*
X-1406128Y-3767150D01*
X-1406128Y-3767150D02*
X-1377556Y-3767150D01*
X-1377556Y-3767150D02*
X-1358509Y-3776674D01*
X-1358509Y-3776674D02*
X-1348985Y-3795722D01*
X-1348985Y-3795722D02*
X-1348985Y-3900484D01*
X-958509Y-3690960D02*
X-1129937Y-3948103D01*
X-701366Y-3700484D02*
X-682318Y-3700484D01*
X-682318Y-3700484D02*
X-663271Y-3710008D01*
X-663271Y-3710008D02*
X-653747Y-3719531D01*
X-653747Y-3719531D02*
X-644223Y-3738579D01*
X-644223Y-3738579D02*
X-634699Y-3776674D01*
X-634699Y-3776674D02*
X-634699Y-3824293D01*
X-634699Y-3824293D02*
X-644223Y-3862388D01*
X-644223Y-3862388D02*
X-653747Y-3881436D01*
X-653747Y-3881436D02*
X-663271Y-3890960D01*
X-663271Y-3890960D02*
X-682318Y-3900484D01*
X-682318Y-3900484D02*
X-701366Y-3900484D01*
X-701366Y-3900484D02*
X-720413Y-3890960D01*
X-720413Y-3890960D02*
X-729937Y-3881436D01*
X-729937Y-3881436D02*
X-739461Y-3862388D01*
X-739461Y-3862388D02*
X-748985Y-3824293D01*
X-748985Y-3824293D02*
X-748985Y-3776674D01*
X-748985Y-3776674D02*
X-739461Y-3738579D01*
X-739461Y-3738579D02*
X-729937Y-3719531D01*
X-729937Y-3719531D02*
X-720413Y-3710008D01*
X-720413Y-3710008D02*
X-701366Y-3700484D01*
X-548985Y-3881436D02*
X-539461Y-3890960D01*
X-539461Y-3890960D02*
X-548985Y-3900484D01*
X-548985Y-3900484D02*
X-558509Y-3890960D01*
X-558509Y-3890960D02*
X-548985Y-3881436D01*
X-548985Y-3881436D02*
X-548985Y-3900484D01*
X-415651Y-3700484D02*
X-396604Y-3700484D01*
X-396604Y-3700484D02*
X-377556Y-3710008D01*
X-377556Y-3710008D02*
X-368032Y-3719531D01*
X-368032Y-3719531D02*
X-358509Y-3738579D01*
X-358509Y-3738579D02*
X-348985Y-3776674D01*
X-348985Y-3776674D02*
X-348985Y-3824293D01*
X-348985Y-3824293D02*
X-358509Y-3862388D01*
X-358509Y-3862388D02*
X-368032Y-3881436D01*
X-368032Y-3881436D02*
X-377556Y-3890960D01*
X-377556Y-3890960D02*
X-396604Y-3900484D01*
X-396604Y-3900484D02*
X-415651Y-3900484D01*
X-415651Y-3900484D02*
X-434699Y-3890960D01*
X-434699Y-3890960D02*
X-444223Y-3881436D01*
X-444223Y-3881436D02*
X-453747Y-3862388D01*
X-453747Y-3862388D02*
X-463270Y-3824293D01*
X-463270Y-3824293D02*
X-463270Y-3776674D01*
X-463270Y-3776674D02*
X-453747Y-3738579D01*
X-453747Y-3738579D02*
X-444223Y-3719531D01*
X-444223Y-3719531D02*
X-434699Y-3710008D01*
X-434699Y-3710008D02*
X-415651Y-3700484D01*
X-225175Y-3700484D02*
X-206128Y-3700484D01*
X-206128Y-3700484D02*
X-187080Y-3710008D01*
X-187080Y-3710008D02*
X-177556Y-3719531D01*
X-177556Y-3719531D02*
X-168032Y-3738579D01*
X-168032Y-3738579D02*
X-158509Y-3776674D01*
X-158509Y-3776674D02*
X-158509Y-3824293D01*
X-158509Y-3824293D02*
X-168032Y-3862388D01*
X-168032Y-3862388D02*
X-177556Y-3881436D01*
X-177556Y-3881436D02*
X-187080Y-3890960D01*
X-187080Y-3890960D02*
X-206128Y-3900484D01*
X-206128Y-3900484D02*
X-225175Y-3900484D01*
X-225175Y-3900484D02*
X-244223Y-3890960D01*
X-244223Y-3890960D02*
X-253747Y-3881436D01*
X-253747Y-3881436D02*
X-263271Y-3862388D01*
X-263271Y-3862388D02*
X-272794Y-3824293D01*
X-272794Y-3824293D02*
X-272794Y-3776674D01*
X-272794Y-3776674D02*
X-263271Y-3738579D01*
X-263271Y-3738579D02*
X-253747Y-3719531D01*
X-253747Y-3719531D02*
X-244223Y-3710008D01*
X-244223Y-3710008D02*
X-225175Y-3700484D01*
X-44223Y-3786198D02*
X-63270Y-3776674D01*
X-63270Y-3776674D02*
X-72794Y-3767150D01*
X-72794Y-3767150D02*
X-82318Y-3748103D01*
X-82318Y-3748103D02*
X-82318Y-3738579D01*
X-82318Y-3738579D02*
X-72794Y-3719531D01*
X-72794Y-3719531D02*
X-63270Y-3710008D01*
X-63270Y-3710008D02*
X-44223Y-3700484D01*
X-44223Y-3700484D02*
X-6128Y-3700484D01*
X-6128Y-3700484D02*
X12920Y-3710008D01*
X12920Y-3710008D02*
X22444Y-3719531D01*
X22444Y-3719531D02*
X31967Y-3738579D01*
X31967Y-3738579D02*
X31967Y-3748103D01*
X31967Y-3748103D02*
X22444Y-3767150D01*
X22444Y-3767150D02*
X12920Y-3776674D01*
X12920Y-3776674D02*
X-6128Y-3786198D01*
X-6128Y-3786198D02*
X-44223Y-3786198D01*
X-44223Y-3786198D02*
X-63270Y-3795722D01*
X-63270Y-3795722D02*
X-72794Y-3805246D01*
X-72794Y-3805246D02*
X-82318Y-3824293D01*
X-82318Y-3824293D02*
X-82318Y-3862388D01*
X-82318Y-3862388D02*
X-72794Y-3881436D01*
X-72794Y-3881436D02*
X-63270Y-3890960D01*
X-63270Y-3890960D02*
X-44223Y-3900484D01*
X-44223Y-3900484D02*
X-6128Y-3900484D01*
X-6128Y-3900484D02*
X12920Y-3890960D01*
X12920Y-3890960D02*
X22444Y-3881436D01*
X22444Y-3881436D02*
X31967Y-3862388D01*
X31967Y-3862388D02*
X31967Y-3824293D01*
X31967Y-3824293D02*
X22444Y-3805246D01*
X22444Y-3805246D02*
X12920Y-3795722D01*
X12920Y-3795722D02*
X-6128Y-3786198D01*
X98634Y-3700484D02*
X231967Y-3700484D01*
X231967Y-3700484D02*
X146253Y-3900484D01*
X298634Y-3700484D02*
X298634Y-3738579D01*
X374825Y-3700484D02*
X374825Y-3738579D01*
X670063Y-3976674D02*
X660539Y-3967150D01*
X660539Y-3967150D02*
X641491Y-3938579D01*
X641491Y-3938579D02*
X631968Y-3919531D01*
X631968Y-3919531D02*
X622444Y-3890960D01*
X622444Y-3890960D02*
X612920Y-3843341D01*
X612920Y-3843341D02*
X612920Y-3805246D01*
X612920Y-3805246D02*
X622444Y-3757627D01*
X622444Y-3757627D02*
X631968Y-3729055D01*
X631968Y-3729055D02*
X641491Y-3710008D01*
X641491Y-3710008D02*
X660539Y-3681436D01*
X660539Y-3681436D02*
X670063Y-3671912D01*
X851015Y-3900484D02*
X736729Y-3900484D01*
X793872Y-3900484D02*
X793872Y-3700484D01*
X793872Y-3700484D02*
X774825Y-3729055D01*
X774825Y-3729055D02*
X755777Y-3748103D01*
X755777Y-3748103D02*
X736729Y-3757627D01*
X1022444Y-3700484D02*
X984348Y-3700484D01*
X984348Y-3700484D02*
X965301Y-3710008D01*
X965301Y-3710008D02*
X955777Y-3719531D01*
X955777Y-3719531D02*
X936729Y-3748103D01*
X936729Y-3748103D02*
X927206Y-3786198D01*
X927206Y-3786198D02*
X927206Y-3862388D01*
X927206Y-3862388D02*
X936729Y-3881436D01*
X936729Y-3881436D02*
X946253Y-3890960D01*
X946253Y-3890960D02*
X965301Y-3900484D01*
X965301Y-3900484D02*
X1003396Y-3900484D01*
X1003396Y-3900484D02*
X1022444Y-3890960D01*
X1022444Y-3890960D02*
X1031968Y-3881436D01*
X1031968Y-3881436D02*
X1041491Y-3862388D01*
X1041491Y-3862388D02*
X1041491Y-3814769D01*
X1041491Y-3814769D02*
X1031968Y-3795722D01*
X1031968Y-3795722D02*
X1022444Y-3786198D01*
X1022444Y-3786198D02*
X1003396Y-3776674D01*
X1003396Y-3776674D02*
X965301Y-3776674D01*
X965301Y-3776674D02*
X946253Y-3786198D01*
X946253Y-3786198D02*
X936729Y-3795722D01*
X936729Y-3795722D02*
X927206Y-3814769D01*
X1279587Y-3900484D02*
X1279587Y-3700484D01*
X1365301Y-3900484D02*
X1365301Y-3795722D01*
X1365301Y-3795722D02*
X1355777Y-3776674D01*
X1355777Y-3776674D02*
X1336730Y-3767150D01*
X1336730Y-3767150D02*
X1308158Y-3767150D01*
X1308158Y-3767150D02*
X1289111Y-3776674D01*
X1289111Y-3776674D02*
X1279587Y-3786198D01*
X1489110Y-3900484D02*
X1470063Y-3890960D01*
X1470063Y-3890960D02*
X1460539Y-3881436D01*
X1460539Y-3881436D02*
X1451015Y-3862388D01*
X1451015Y-3862388D02*
X1451015Y-3805246D01*
X1451015Y-3805246D02*
X1460539Y-3786198D01*
X1460539Y-3786198D02*
X1470063Y-3776674D01*
X1470063Y-3776674D02*
X1489110Y-3767150D01*
X1489110Y-3767150D02*
X1517682Y-3767150D01*
X1517682Y-3767150D02*
X1536730Y-3776674D01*
X1536730Y-3776674D02*
X1546253Y-3786198D01*
X1546253Y-3786198D02*
X1555777Y-3805246D01*
X1555777Y-3805246D02*
X1555777Y-3862388D01*
X1555777Y-3862388D02*
X1546253Y-3881436D01*
X1546253Y-3881436D02*
X1536730Y-3890960D01*
X1536730Y-3890960D02*
X1517682Y-3900484D01*
X1517682Y-3900484D02*
X1489110Y-3900484D01*
X1670063Y-3900484D02*
X1651015Y-3890960D01*
X1651015Y-3890960D02*
X1641491Y-3871912D01*
X1641491Y-3871912D02*
X1641491Y-3700484D01*
X1822444Y-3890960D02*
X1803396Y-3900484D01*
X1803396Y-3900484D02*
X1765301Y-3900484D01*
X1765301Y-3900484D02*
X1746253Y-3890960D01*
X1746253Y-3890960D02*
X1736730Y-3871912D01*
X1736730Y-3871912D02*
X1736730Y-3795722D01*
X1736730Y-3795722D02*
X1746253Y-3776674D01*
X1746253Y-3776674D02*
X1765301Y-3767150D01*
X1765301Y-3767150D02*
X1803396Y-3767150D01*
X1803396Y-3767150D02*
X1822444Y-3776674D01*
X1822444Y-3776674D02*
X1831968Y-3795722D01*
X1831968Y-3795722D02*
X1831968Y-3814769D01*
X1831968Y-3814769D02*
X1736730Y-3833817D01*
X1908158Y-3890960D02*
X1927206Y-3900484D01*
X1927206Y-3900484D02*
X1965301Y-3900484D01*
X1965301Y-3900484D02*
X1984349Y-3890960D01*
X1984349Y-3890960D02*
X1993872Y-3871912D01*
X1993872Y-3871912D02*
X1993872Y-3862388D01*
X1993872Y-3862388D02*
X1984349Y-3843341D01*
X1984349Y-3843341D02*
X1965301Y-3833817D01*
X1965301Y-3833817D02*
X1936730Y-3833817D01*
X1936730Y-3833817D02*
X1917682Y-3824293D01*
X1917682Y-3824293D02*
X1908158Y-3805246D01*
X1908158Y-3805246D02*
X1908158Y-3795722D01*
X1908158Y-3795722D02*
X1917682Y-3776674D01*
X1917682Y-3776674D02*
X1936730Y-3767150D01*
X1936730Y-3767150D02*
X1965301Y-3767150D01*
X1965301Y-3767150D02*
X1984349Y-3776674D01*
X2060539Y-3976674D02*
X2070063Y-3967150D01*
X2070063Y-3967150D02*
X2089111Y-3938579D01*
X2089111Y-3938579D02*
X2098634Y-3919531D01*
X2098634Y-3919531D02*
X2108158Y-3890960D01*
X2108158Y-3890960D02*
X2117682Y-3843341D01*
X2117682Y-3843341D02*
X2117682Y-3805246D01*
X2117682Y-3805246D02*
X2108158Y-3757627D01*
X2108158Y-3757627D02*
X2098634Y-3729055D01*
X2098634Y-3729055D02*
X2089111Y-3710008D01*
X2089111Y-3710008D02*
X2070063Y-3681436D01*
X2070063Y-3681436D02*
X2060539Y-3671912D01*
M02*
