M48
; DRILL file {KiCad 7.0.5} date Thu Jun 22 13:55:41 2023
; FORMAT={-:-/ absolute / inch / decimal}
; #@! TF.CreationDate,2023-06-22T13:55:41-04:00
; #@! TF.GenerationSoftware,Kicad,Pcbnew,7.0.5
; #@! TF.FileFunction,Plated,1,4,PTH
FMAT,2
INCH
; #@! TA.AperFunction,Plated,PTH,ViaDrill
T1C0.0080
; #@! TA.AperFunction,Plated,PTH,ComponentDrill
T2C0.0087
%
G90
G05
T1
X-1.065Y0.0
X-0.99Y0.2
X-0.99Y-0.15
X-0.965Y-0.05
X-0.8326Y0.0662
X-0.765Y0.0
X-0.69Y-0.18
X-0.665Y0.75
X-0.665Y0.125
X-0.65Y-0.18
X-0.64Y0.15
X-0.565Y0.125
X-0.49Y-0.675
X-0.37Y0.9
X-0.36Y-0.75
X-0.09Y-0.725
X-0.065Y0.925
X-0.065Y-0.925
X-0.015Y-0.675
X0.06Y0.925
X0.06Y-0.925
X0.31Y0.72
X0.37Y-0.88
X0.46Y0.625
X0.53Y-0.12
X0.585Y-0.725
X0.62Y0.15
X0.66Y0.125
X0.73Y-0.12
X0.785Y0.06
X0.835Y-0.05
X0.96Y0.075
X0.985Y0.2
X0.985Y-0.15
X1.06Y0.0
T2
X-0.4994Y0.815
X-0.4994Y-0.815
X-0.4561Y0.84
X-0.4561Y-0.84
X-0.4494Y0.7284
X-0.4494Y-0.7284
X-0.4061Y0.7534
X-0.4061Y-0.7534
X0.4061Y0.7534
X0.4061Y-0.7534
X0.4494Y0.7284
X0.4494Y-0.7284
X0.4561Y0.84
X0.4561Y-0.84
X0.4994Y0.815
X0.4994Y-0.815
T0
M30
