%TF.GenerationSoftware,KiCad,Pcbnew,7.0.5*%
%TF.CreationDate,2023-06-22T13:55:38-04:00*%
%TF.ProjectId,ESP32Sensor-LED_board,45535033-3253-4656-9e73-6f722d4c4544,rev?*%
%TF.SameCoordinates,Original*%
%TF.FileFunction,Soldermask,Bot*%
%TF.FilePolarity,Negative*%
%FSLAX46Y46*%
G04 Gerber Fmt 4.6, Leading zero omitted, Abs format (unit mm)*
G04 Created by KiCad (PCBNEW 7.0.5) date 2023-06-22 13:55:38*
%MOMM*%
%LPD*%
G01*
G04 APERTURE LIST*
G04 Aperture macros list*
%AMRoundRect*
0 Rectangle with rounded corners*
0 $1 Rounding radius*
0 $2 $3 $4 $5 $6 $7 $8 $9 X,Y pos of 4 corners*
0 Add a 4 corners polygon primitive as box body*
4,1,4,$2,$3,$4,$5,$6,$7,$8,$9,$2,$3,0*
0 Add four circle primitives for the rounded corners*
1,1,$1+$1,$2,$3*
1,1,$1+$1,$4,$5*
1,1,$1+$1,$6,$7*
1,1,$1+$1,$8,$9*
0 Add four rect primitives between the rounded corners*
20,1,$1+$1,$2,$3,$4,$5,0*
20,1,$1+$1,$4,$5,$6,$7,0*
20,1,$1+$1,$6,$7,$8,$9,0*
20,1,$1+$1,$8,$9,$2,$3,0*%
%AMRotRect*
0 Rectangle, with rotation*
0 The origin of the aperture is its center*
0 $1 length*
0 $2 width*
0 $3 Rotation angle, in degrees counterclockwise*
0 Add horizontal line*
21,1,$1,$2,0,0,$3*%
G04 Aperture macros list end*
%ADD10C,1.400000*%
%ADD11RotRect,2.209800X4.394200X120.000000*%
%ADD12RoundRect,0.135000X0.135000X0.185000X-0.135000X0.185000X-0.135000X-0.185000X0.135000X-0.185000X0*%
%ADD13C,0.700000*%
%ADD14RotRect,0.950000X0.350000X30.000000*%
%ADD15RotRect,1.117600X1.752600X285.000000*%
%ADD16R,0.965200X0.685800*%
%ADD17R,0.660400X0.304800*%
%ADD18RotRect,1.117600X1.752600X105.000000*%
%ADD19R,0.736600X1.333500*%
%ADD20C,0.736600*%
%ADD21RotRect,1.117600X1.752600X75.000000*%
%ADD22RotRect,2.209800X4.394200X240.000000*%
%ADD23RoundRect,0.140000X0.217224X-0.036244X0.077224X0.206244X-0.217224X0.036244X-0.077224X-0.206244X0*%
%ADD24RotRect,0.950000X0.350000X210.000000*%
%ADD25RotRect,1.117600X1.752600X255.000000*%
%ADD26RoundRect,0.140000X-0.077224X0.206244X-0.217224X-0.036244X0.077224X-0.206244X0.217224X0.036244X0*%
%ADD27RoundRect,0.140000X-0.217224X0.036244X-0.077224X-0.206244X0.217224X-0.036244X0.077224X0.206244X0*%
%ADD28RotRect,0.950000X0.350000X150.000000*%
%ADD29RoundRect,0.140000X0.077224X-0.206244X0.217224X0.036244X-0.077224X0.206244X-0.217224X-0.036244X0*%
%ADD30RotRect,2.209800X4.394200X60.000000*%
%ADD31RotRect,0.950000X0.350000X330.000000*%
G04 APERTURE END LIST*
%TO.C,U2*%
G36*
X14361640Y-19934975D02*
G01*
X13417673Y-20479975D01*
X13172672Y-20055620D01*
X14116639Y-19510620D01*
X14361640Y-19934975D01*
G37*
G36*
X13961640Y-19242153D02*
G01*
X13017672Y-19787153D01*
X12772673Y-19362802D01*
X13716640Y-18817802D01*
X13961640Y-19242153D01*
G37*
G36*
X13561639Y-18549332D02*
G01*
X12617672Y-19094332D01*
X12372672Y-18669981D01*
X13316640Y-18124981D01*
X13561639Y-18549332D01*
G37*
G36*
X13161640Y-17856514D02*
G01*
X12217673Y-18401514D01*
X11972672Y-17977159D01*
X12916639Y-17432159D01*
X13161640Y-17856514D01*
G37*
G36*
X13289371Y-20690881D02*
G01*
X12795909Y-20975781D01*
X11232409Y-18267719D01*
X11725871Y-17982819D01*
X13289371Y-20690881D01*
G37*
G36*
X12449499Y-21175781D02*
G01*
X12114001Y-21369481D01*
X10550501Y-18661419D01*
X10885999Y-18467719D01*
X12449499Y-21175781D01*
G37*
G36*
X13289371Y-20690881D02*
G01*
X11274129Y-21854381D01*
X10986079Y-21355463D01*
X13001321Y-20191963D01*
X13289371Y-20690881D01*
G37*
G36*
X11767591Y-21569481D02*
G01*
X11274129Y-21854381D01*
X9710629Y-19146319D01*
X10204091Y-18861419D01*
X11767591Y-21569481D01*
G37*
G36*
X12801321Y-19845553D02*
G01*
X10786079Y-21009053D01*
X10592379Y-20673555D01*
X12607621Y-19510055D01*
X12801321Y-19845553D01*
G37*
G36*
X12407621Y-19163645D02*
G01*
X10392379Y-20327145D01*
X10198679Y-19991647D01*
X12213921Y-18828147D01*
X12407621Y-19163645D01*
G37*
G36*
X12013921Y-18481737D02*
G01*
X9998679Y-19645237D01*
X9710629Y-19146319D01*
X11725871Y-17982819D01*
X12013921Y-18481737D01*
G37*
G36*
X11027328Y-21860041D02*
G01*
X10083361Y-22405041D01*
X9838360Y-21980686D01*
X10782327Y-21435686D01*
X11027328Y-21860041D01*
G37*
G36*
X10627328Y-21167219D02*
G01*
X9683360Y-21712219D01*
X9438361Y-21287868D01*
X10382328Y-20742868D01*
X10627328Y-21167219D01*
G37*
G36*
X10227327Y-20474398D02*
G01*
X9283360Y-21019398D01*
X9038360Y-20595047D01*
X9982328Y-20050047D01*
X10227327Y-20474398D01*
G37*
G36*
X9827328Y-19781580D02*
G01*
X8883361Y-20326580D01*
X8638360Y-19902225D01*
X9582327Y-19357225D01*
X9827328Y-19781580D01*
G37*
%TO.C,U3*%
G36*
X-13172672Y20055620D02*
G01*
X-14116639Y19510620D01*
X-14361640Y19934975D01*
X-13417673Y20479975D01*
X-13172672Y20055620D01*
G37*
G36*
X-12772673Y19362802D02*
G01*
X-13716640Y18817802D01*
X-13961640Y19242153D01*
X-13017672Y19787153D01*
X-12772673Y19362802D01*
G37*
G36*
X-12372672Y18669981D02*
G01*
X-13316640Y18124981D01*
X-13561639Y18549332D01*
X-12617672Y19094332D01*
X-12372672Y18669981D01*
G37*
G36*
X-11972672Y17977159D02*
G01*
X-12916639Y17432159D01*
X-13161640Y17856514D01*
X-12217673Y18401514D01*
X-11972672Y17977159D01*
G37*
G36*
X-11232409Y18267719D02*
G01*
X-11725871Y17982819D01*
X-13289371Y20690881D01*
X-12795909Y20975781D01*
X-11232409Y18267719D01*
G37*
G36*
X-10550501Y18661419D02*
G01*
X-10885999Y18467719D01*
X-12449499Y21175781D01*
X-12114001Y21369481D01*
X-10550501Y18661419D01*
G37*
G36*
X-10986079Y21355463D02*
G01*
X-13001321Y20191963D01*
X-13289371Y20690881D01*
X-11274129Y21854381D01*
X-10986079Y21355463D01*
G37*
G36*
X-9710629Y19146319D02*
G01*
X-10204091Y18861419D01*
X-11767591Y21569481D01*
X-11274129Y21854381D01*
X-9710629Y19146319D01*
G37*
G36*
X-10592379Y20673555D02*
G01*
X-12607621Y19510055D01*
X-12801321Y19845553D01*
X-10786079Y21009053D01*
X-10592379Y20673555D01*
G37*
G36*
X-10198679Y19991647D02*
G01*
X-12213921Y18828147D01*
X-12407621Y19163645D01*
X-10392379Y20327145D01*
X-10198679Y19991647D01*
G37*
G36*
X-9710629Y19146319D02*
G01*
X-11725871Y17982819D01*
X-12013921Y18481737D01*
X-9998679Y19645237D01*
X-9710629Y19146319D01*
G37*
G36*
X-9838360Y21980686D02*
G01*
X-10782327Y21435686D01*
X-11027328Y21860041D01*
X-10083361Y22405041D01*
X-9838360Y21980686D01*
G37*
G36*
X-9438361Y21287868D02*
G01*
X-10382328Y20742868D01*
X-10627328Y21167219D01*
X-9683360Y21712219D01*
X-9438361Y21287868D01*
G37*
G36*
X-9038360Y20595047D02*
G01*
X-9982328Y20050047D01*
X-10227327Y20474398D01*
X-9283360Y21019398D01*
X-9038360Y20595047D01*
G37*
G36*
X-8638360Y19902225D02*
G01*
X-9582327Y19357225D01*
X-9827328Y19781580D01*
X-8883361Y20326580D01*
X-8638360Y19902225D01*
G37*
%TO.C,U4*%
G36*
X-11972672Y-17977159D02*
G01*
X-12217673Y-18401514D01*
X-13161640Y-17856514D01*
X-12916639Y-17432159D01*
X-11972672Y-17977159D01*
G37*
G36*
X-12372672Y-18669981D02*
G01*
X-12617672Y-19094332D01*
X-13561639Y-18549332D01*
X-13316640Y-18124981D01*
X-12372672Y-18669981D01*
G37*
G36*
X-12772673Y-19362802D02*
G01*
X-13017672Y-19787153D01*
X-13961640Y-19242153D01*
X-13716640Y-18817802D01*
X-12772673Y-19362802D01*
G37*
G36*
X-13172672Y-20055620D02*
G01*
X-13417673Y-20479975D01*
X-14361640Y-19934975D01*
X-14116639Y-19510620D01*
X-13172672Y-20055620D01*
G37*
G36*
X-11232409Y-18267719D02*
G01*
X-12795909Y-20975781D01*
X-13289371Y-20690881D01*
X-11725871Y-17982819D01*
X-11232409Y-18267719D01*
G37*
G36*
X-10550501Y-18661419D02*
G01*
X-12114001Y-21369481D01*
X-12449499Y-21175781D01*
X-10885999Y-18467719D01*
X-10550501Y-18661419D01*
G37*
G36*
X-9710629Y-19146319D02*
G01*
X-9998679Y-19645237D01*
X-12013921Y-18481737D01*
X-11725871Y-17982819D01*
X-9710629Y-19146319D01*
G37*
G36*
X-9710629Y-19146319D02*
G01*
X-11274129Y-21854381D01*
X-11767591Y-21569481D01*
X-10204091Y-18861419D01*
X-9710629Y-19146319D01*
G37*
G36*
X-10198679Y-19991647D02*
G01*
X-10392379Y-20327145D01*
X-12407621Y-19163645D01*
X-12213921Y-18828147D01*
X-10198679Y-19991647D01*
G37*
G36*
X-10592379Y-20673555D02*
G01*
X-10786079Y-21009053D01*
X-12801321Y-19845553D01*
X-12607621Y-19510055D01*
X-10592379Y-20673555D01*
G37*
G36*
X-10986079Y-21355463D02*
G01*
X-11274129Y-21854381D01*
X-13289371Y-20690881D01*
X-13001321Y-20191963D01*
X-10986079Y-21355463D01*
G37*
G36*
X-8638360Y-19902225D02*
G01*
X-8883361Y-20326580D01*
X-9827328Y-19781580D01*
X-9582327Y-19357225D01*
X-8638360Y-19902225D01*
G37*
G36*
X-9038360Y-20595047D02*
G01*
X-9283360Y-21019398D01*
X-10227327Y-20474398D01*
X-9982328Y-20050047D01*
X-9038360Y-20595047D01*
G37*
G36*
X-9438361Y-21287868D02*
G01*
X-9683360Y-21712219D01*
X-10627328Y-21167219D01*
X-10382328Y-20742868D01*
X-9438361Y-21287868D01*
G37*
G36*
X-9838360Y-21980686D02*
G01*
X-10083361Y-22405041D01*
X-11027328Y-21860041D01*
X-10782327Y-21435686D01*
X-9838360Y-21980686D01*
G37*
%TO.C,U1*%
G36*
X13161640Y17856514D02*
G01*
X12916639Y17432159D01*
X11972672Y17977159D01*
X12217673Y18401514D01*
X13161640Y17856514D01*
G37*
G36*
X13561639Y18549332D02*
G01*
X13316640Y18124981D01*
X12372672Y18669981D01*
X12617672Y19094332D01*
X13561639Y18549332D01*
G37*
G36*
X13961640Y19242153D02*
G01*
X13716640Y18817802D01*
X12772673Y19362802D01*
X13017672Y19787153D01*
X13961640Y19242153D01*
G37*
G36*
X14361640Y19934975D02*
G01*
X14116639Y19510620D01*
X13172672Y20055620D01*
X13417673Y20479975D01*
X14361640Y19934975D01*
G37*
G36*
X13289371Y20690881D02*
G01*
X11725871Y17982819D01*
X11232409Y18267719D01*
X12795909Y20975781D01*
X13289371Y20690881D01*
G37*
G36*
X12449499Y21175781D02*
G01*
X10885999Y18467719D01*
X10550501Y18661419D01*
X12114001Y21369481D01*
X12449499Y21175781D01*
G37*
G36*
X12013921Y18481737D02*
G01*
X11725871Y17982819D01*
X9710629Y19146319D01*
X9998679Y19645237D01*
X12013921Y18481737D01*
G37*
G36*
X11767591Y21569481D02*
G01*
X10204091Y18861419D01*
X9710629Y19146319D01*
X11274129Y21854381D01*
X11767591Y21569481D01*
G37*
G36*
X12407621Y19163645D02*
G01*
X12213921Y18828147D01*
X10198679Y19991647D01*
X10392379Y20327145D01*
X12407621Y19163645D01*
G37*
G36*
X12801321Y19845553D02*
G01*
X12607621Y19510055D01*
X10592379Y20673555D01*
X10786079Y21009053D01*
X12801321Y19845553D01*
G37*
G36*
X13289371Y20690881D02*
G01*
X13001321Y20191963D01*
X10986079Y21355463D01*
X11274129Y21854381D01*
X13289371Y20690881D01*
G37*
G36*
X9827328Y19781580D02*
G01*
X9582327Y19357225D01*
X8638360Y19902225D01*
X8883361Y20326580D01*
X9827328Y19781580D01*
G37*
G36*
X10227327Y20474398D02*
G01*
X9982328Y20050047D01*
X9038360Y20595047D01*
X9283360Y21019398D01*
X10227327Y20474398D01*
G37*
G36*
X10627328Y21167219D02*
G01*
X10382328Y20742868D01*
X9438361Y21287868D01*
X9683360Y21712219D01*
X10627328Y21167219D01*
G37*
G36*
X11027328Y21860041D02*
G01*
X10782327Y21435686D01*
X9838360Y21980686D01*
X10083361Y22405041D01*
X11027328Y21860041D01*
G37*
%TD*%
D10*
%TO.C,LED1*%
X10787179Y25182627D03*
X989221Y19525773D03*
%TD*%
%TO.C,LED12*%
X-10916379Y-24906827D03*
X-1118421Y-19249973D03*
%TD*%
%TO.C,LED10*%
X-27179879Y-2986473D03*
X-17381921Y-8643327D03*
%TD*%
%TO.C,LED8*%
X-16328100Y10744546D03*
X-16328100Y22058254D03*
%TD*%
%TO.C,LED3*%
X27050679Y3262373D03*
X17252721Y8919227D03*
%TD*%
%TO.C,LED6*%
X8716627Y-17179421D03*
X3059773Y-26977379D03*
%TD*%
%TO.C,LED9*%
X-19452473Y1191821D03*
X-25109327Y10989779D03*
%TD*%
%TO.C,LED5*%
X16198900Y-10468646D03*
X16198900Y-21782354D03*
%TD*%
%TO.C,LED4*%
X19323273Y-915921D03*
X24980127Y-10713879D03*
%TD*%
%TO.C,LED7*%
X-8845827Y17455221D03*
X-3188973Y27253179D03*
%TD*%
%TO.C,LED11*%
X-21984854Y-16125500D03*
X-10671146Y-16125500D03*
%TD*%
%TO.C,LED2*%
X21855754Y16401400D03*
X10542046Y16401400D03*
%TD*%
D11*
%TO.C,R3*%
X18547000Y13875681D03*
X21290200Y9124319D03*
%TD*%
D12*
%TO.C,R17*%
X-26291000Y0D03*
X-25271000Y0D03*
%TD*%
D13*
%TO.C,U2*%
X12684926Y-20700952D03*
X11414926Y-18501248D03*
X11585074Y-21335952D03*
X10315074Y-19136248D03*
D14*
X13767156Y-19995297D03*
X13367156Y-19302476D03*
X12967157Y-18609658D03*
X12567156Y-17916837D03*
X9232844Y-19841903D03*
X9632844Y-20534724D03*
X10032843Y-21227542D03*
X10432844Y-21920363D03*
%TD*%
D15*
%TO.C,R5*%
X6347240Y-23688371D03*
X5558360Y-20744229D03*
%TD*%
D16*
%TO.C,K1*%
X22935400Y-346986D03*
X22935400Y622786D03*
D17*
X21906700Y787899D03*
X21906700Y137900D03*
X21906700Y-512099D03*
X23964100Y-512099D03*
X23964100Y137900D03*
X23964100Y787899D03*
%TD*%
D18*
%TO.C,R7*%
X-3950440Y24332071D03*
X-3161560Y21387929D03*
%TD*%
D19*
%TO.C,J1*%
X14730000Y-1936750D03*
X14730000Y1936750D03*
X16000000Y-1936750D03*
X16000000Y1936750D03*
X17270000Y-1936750D03*
X17270000Y1936750D03*
D20*
X14730000Y635000D03*
X14730000Y-635000D03*
X16000000Y635000D03*
X16000000Y-635000D03*
X17270000Y635000D03*
X17270000Y-635000D03*
%TD*%
D21*
%TO.C,R10*%
X-3161560Y-21387929D03*
X-3950440Y-24332071D03*
%TD*%
D22*
%TO.C,R6*%
X18546984Y-13875681D03*
X21290184Y-9124319D03*
%TD*%
D12*
%TO.C,R14*%
X25144000Y0D03*
X26164000Y0D03*
%TD*%
%TO.C,R16*%
X-20576000Y-635000D03*
X-19556000Y-635000D03*
%TD*%
D11*
%TO.C,R12*%
X-21290184Y-9124319D03*
X-18546984Y-13875681D03*
%TD*%
D23*
%TO.C,C6*%
X14842200Y-19355508D03*
X15322200Y-20186892D03*
%TD*%
D13*
%TO.C,U3*%
X-12684926Y20700952D03*
X-11414926Y18501248D03*
X-11585074Y21335952D03*
X-10315074Y19136248D03*
D24*
X-13767156Y19995297D03*
X-13367156Y19302476D03*
X-12967157Y18609658D03*
X-12567156Y17916837D03*
X-9232844Y19841903D03*
X-9632844Y20534724D03*
X-10032843Y21227542D03*
X-10432844Y21920363D03*
%TD*%
D25*
%TO.C,R2*%
X5558360Y20744229D03*
X6347240Y23688371D03*
%TD*%
D23*
%TO.C,C5*%
X15722100Y-18847508D03*
X16202100Y-19678892D03*
%TD*%
D26*
%TO.C,C8*%
X-13711100Y-17433692D03*
X-13231100Y-16602308D03*
%TD*%
D27*
%TO.C,C1*%
X-15625900Y18761308D03*
X-16105900Y19592692D03*
%TD*%
D13*
%TO.C,U4*%
X-11414926Y-18501248D03*
X-12684926Y-20700952D03*
X-10315074Y-19136248D03*
X-11585074Y-21335952D03*
D28*
X-12567156Y-17916837D03*
X-12967157Y-18609658D03*
X-13367156Y-19302476D03*
X-13767156Y-19995297D03*
X-10432844Y-21920363D03*
X-10032843Y-21227542D03*
X-9632844Y-20534724D03*
X-9232844Y-19841903D03*
%TD*%
D29*
%TO.C,C4*%
X13829000Y17560692D03*
X13349000Y16729308D03*
%TD*%
D19*
%TO.C,J2*%
X-17270000Y-1936750D03*
X-17270000Y1936750D03*
X-16000000Y-1936750D03*
X-16000000Y1936750D03*
X-14730000Y-1936750D03*
X-14730000Y1936750D03*
D20*
X-17270000Y635000D03*
X-17270000Y-635000D03*
X-16000000Y635000D03*
X-16000000Y-635000D03*
X-14730000Y635000D03*
X-14730000Y-635000D03*
%TD*%
D27*
%TO.C,C2*%
X-14746000Y19269308D03*
X-15226000Y20100692D03*
%TD*%
D18*
%TO.C,R8*%
X-6347240Y23688371D03*
X-5558360Y20744229D03*
%TD*%
D29*
%TO.C,C3*%
X14708900Y17052692D03*
X14228900Y16221308D03*
%TD*%
D21*
%TO.C,R11*%
X-5558360Y-20744229D03*
X-6347240Y-23688371D03*
%TD*%
D15*
%TO.C,R4*%
X3718540Y-24332071D03*
X2929660Y-21387929D03*
%TD*%
D12*
%TO.C,R15*%
X19429000Y635000D03*
X20449000Y635000D03*
%TD*%
D26*
%TO.C,C7*%
X-14591000Y-16925692D03*
X-14111000Y-16094308D03*
%TD*%
D16*
%TO.C,K2*%
X-23064600Y-346986D03*
X-23064600Y622786D03*
D17*
X-24093300Y787899D03*
X-24093300Y137900D03*
X-24093300Y-512099D03*
X-22035900Y-512099D03*
X-22035900Y137900D03*
X-22035900Y787899D03*
%TD*%
D30*
%TO.C,R9*%
X-18546984Y13875681D03*
X-21290184Y9124319D03*
%TD*%
D13*
%TO.C,U1*%
X11414926Y18501248D03*
X12684926Y20700952D03*
X10315074Y19136248D03*
X11585074Y21335952D03*
D31*
X12567156Y17916837D03*
X12967157Y18609658D03*
X13367156Y19302476D03*
X13767156Y19995297D03*
X10432844Y21920363D03*
X10032843Y21227542D03*
X9632844Y20534724D03*
X9232844Y19841903D03*
%TD*%
D25*
%TO.C,R1*%
X3034560Y21387929D03*
X3823440Y24332071D03*
%TD*%
M02*
