%TF.GenerationSoftware,KiCad,Pcbnew,7.0.5*%
%TF.CreationDate,2023-06-22T13:55:38-04:00*%
%TF.ProjectId,ESP32Sensor-LED_board,45535033-3253-4656-9e73-6f722d4c4544,rev?*%
%TF.SameCoordinates,Original*%
%TF.FileFunction,Legend,Top*%
%TF.FilePolarity,Positive*%
%FSLAX46Y46*%
G04 Gerber Fmt 4.6, Leading zero omitted, Abs format (unit mm)*
G04 Created by KiCad (PCBNEW 7.0.5) date 2023-06-22 13:55:38*
%MOMM*%
%LPD*%
G01*
G04 APERTURE LIST*
%ADD10C,0.150000*%
%ADD11C,0.760000*%
%ADD12C,0.300000*%
%ADD13C,0.120000*%
%ADD14C,0.760001*%
%ADD15C,0.152400*%
%ADD16C,0.508000*%
G04 APERTURE END LIST*
D10*
%TO.C,LED1*%
X5478447Y25148651D02*
X5018482Y25271898D01*
X5018482Y25271898D02*
X5277301Y26237824D01*
X5935994Y25568339D02*
X6257970Y25482066D01*
X6260387Y24939131D02*
X5800422Y25062378D01*
X5800422Y25062378D02*
X6059241Y26028304D01*
X6059241Y26028304D02*
X6519206Y25905056D01*
X6674355Y24828208D02*
X6933174Y25794134D01*
X6933174Y25794134D02*
X7163157Y25732510D01*
X7163157Y25732510D02*
X7288822Y25649540D01*
X7288822Y25649540D02*
X7356165Y25532897D01*
X7356165Y25532897D02*
X7377512Y25428580D01*
X7377512Y25428580D02*
X7374210Y25232269D01*
X7374210Y25232269D02*
X7337235Y25094280D01*
X7337235Y25094280D02*
X7241940Y24922619D01*
X7241940Y24922619D02*
X7171294Y24842950D01*
X7171294Y24842950D02*
X7054652Y24775607D01*
X7054652Y24775607D02*
X6904338Y24766585D01*
X6904338Y24766585D02*
X6674355Y24828208D01*
X8146242Y24433817D02*
X7594285Y24581714D01*
X7870264Y24507765D02*
X8129083Y25473691D01*
X8129083Y25473691D02*
X8000116Y25360351D01*
X8000116Y25360351D02*
X7883473Y25293008D01*
X7883473Y25293008D02*
X7779156Y25271661D01*
X8623926Y21755937D02*
X8759498Y22261898D01*
X8759498Y22261898D02*
X8738151Y22366216D01*
X8738151Y22366216D02*
X8658482Y22436862D01*
X8658482Y22436862D02*
X8474497Y22486161D01*
X8474497Y22486161D02*
X8370179Y22464814D01*
X8636251Y21801934D02*
X8531933Y21780587D01*
X8531933Y21780587D02*
X8301951Y21842210D01*
X8301951Y21842210D02*
X8222282Y21912856D01*
X8222282Y21912856D02*
X8200935Y22017174D01*
X8200935Y22017174D02*
X8225585Y22109167D01*
X8225585Y22109167D02*
X8296231Y22188835D01*
X8296231Y22188835D02*
X8400548Y22210182D01*
X8400548Y22210182D02*
X8630531Y22148558D01*
X8630531Y22148558D02*
X8734848Y22169906D01*
X9256437Y22276641D02*
X9083891Y21632690D01*
X9231787Y22184648D02*
X9290108Y22218319D01*
X9290108Y22218319D02*
X9394426Y22239667D01*
X9394426Y22239667D02*
X9532415Y22202692D01*
X9532415Y22202692D02*
X9612084Y22132046D01*
X9612084Y22132046D02*
X9633431Y22027729D01*
X9633431Y22027729D02*
X9497859Y21521768D01*
X2309290Y24103654D02*
X2204972Y24082307D01*
X2204972Y24082307D02*
X2020986Y24131606D01*
X2020986Y24131606D02*
X1941318Y24202252D01*
X1941318Y24202252D02*
X1907646Y24260573D01*
X1907646Y24260573D02*
X1886299Y24364890D01*
X1886299Y24364890D02*
X1960247Y24640869D01*
X1960247Y24640869D02*
X2030893Y24720537D01*
X2030893Y24720537D02*
X2089214Y24754209D01*
X2089214Y24754209D02*
X2193532Y24775556D01*
X2193532Y24775556D02*
X2377518Y24726257D01*
X2377518Y24726257D02*
X2457186Y24655611D01*
X3124901Y23835812D02*
X3260473Y24341774D01*
X3260473Y24341774D02*
X3239126Y24446091D01*
X3239126Y24446091D02*
X3159458Y24516737D01*
X3159458Y24516737D02*
X2975472Y24566036D01*
X2975472Y24566036D02*
X2871154Y24544689D01*
X3137226Y23881809D02*
X3032908Y23860462D01*
X3032908Y23860462D02*
X2802926Y23922085D01*
X2802926Y23922085D02*
X2723258Y23992731D01*
X2723258Y23992731D02*
X2701911Y24097049D01*
X2701911Y24097049D02*
X2726560Y24189042D01*
X2726560Y24189042D02*
X2797206Y24268710D01*
X2797206Y24268710D02*
X2901524Y24290057D01*
X2901524Y24290057D02*
X3131506Y24228434D01*
X3131506Y24228434D02*
X3235824Y24249781D01*
X3619423Y24393490D02*
X3987394Y24294892D01*
X3843685Y24678491D02*
X3621840Y23850555D01*
X3621840Y23850555D02*
X3643187Y23746237D01*
X3643187Y23746237D02*
X3722856Y23675591D01*
X3722856Y23675591D02*
X3814848Y23650942D01*
%TO.C,LED12*%
X-5147682Y-24996098D02*
X-4687717Y-25119345D01*
X-4687717Y-25119345D02*
X-4946536Y-26085271D01*
X-5605229Y-25415786D02*
X-5927204Y-25329513D01*
X-5929622Y-24786578D02*
X-5469657Y-24909825D01*
X-5469657Y-24909825D02*
X-5728476Y-25875751D01*
X-5728476Y-25875751D02*
X-6188441Y-25752504D01*
X-6343590Y-24675655D02*
X-6602409Y-25641581D01*
X-6602409Y-25641581D02*
X-6832392Y-25579958D01*
X-6832392Y-25579958D02*
X-6958056Y-25496987D01*
X-6958056Y-25496987D02*
X-7025400Y-25380345D01*
X-7025400Y-25380345D02*
X-7046747Y-25276027D01*
X-7046747Y-25276027D02*
X-7043444Y-25079716D01*
X-7043444Y-25079716D02*
X-7006470Y-24941727D01*
X-7006470Y-24941727D02*
X-6911175Y-24770066D01*
X-6911175Y-24770066D02*
X-6840529Y-24690398D01*
X-6840529Y-24690398D02*
X-6723887Y-24623054D01*
X-6723887Y-24623054D02*
X-6573573Y-24614032D01*
X-6573573Y-24614032D02*
X-6343590Y-24675655D01*
X-7815477Y-24281264D02*
X-7263520Y-24429161D01*
X-7539498Y-24355213D02*
X-7798317Y-25321139D01*
X-7798317Y-25321139D02*
X-7669350Y-25207799D01*
X-7669350Y-25207799D02*
X-7552708Y-25140455D01*
X-7552708Y-25140455D02*
X-7448390Y-25119108D01*
X-8417619Y-25056600D02*
X-8475940Y-25090271D01*
X-8475940Y-25090271D02*
X-8580257Y-25111618D01*
X-8580257Y-25111618D02*
X-8810240Y-25049995D01*
X-8810240Y-25049995D02*
X-8889908Y-24979349D01*
X-8889908Y-24979349D02*
X-8923580Y-24921028D01*
X-8923580Y-24921028D02*
X-8944927Y-24816710D01*
X-8944927Y-24816710D02*
X-8920277Y-24724717D01*
X-8920277Y-24724717D02*
X-8837307Y-24599052D01*
X-8837307Y-24599052D02*
X-8137453Y-24194991D01*
X-8137453Y-24194991D02*
X-8735407Y-24034770D01*
X-8753126Y-21480137D02*
X-8888698Y-21986098D01*
X-8888698Y-21986098D02*
X-8867351Y-22090416D01*
X-8867351Y-22090416D02*
X-8787682Y-22161062D01*
X-8787682Y-22161062D02*
X-8603697Y-22210361D01*
X-8603697Y-22210361D02*
X-8499379Y-22189014D01*
X-8765451Y-21526134D02*
X-8661133Y-21504787D01*
X-8661133Y-21504787D02*
X-8431151Y-21566410D01*
X-8431151Y-21566410D02*
X-8351482Y-21637056D01*
X-8351482Y-21637056D02*
X-8330135Y-21741374D01*
X-8330135Y-21741374D02*
X-8354785Y-21833367D01*
X-8354785Y-21833367D02*
X-8425431Y-21913035D01*
X-8425431Y-21913035D02*
X-8529748Y-21934382D01*
X-8529748Y-21934382D02*
X-8759731Y-21872758D01*
X-8759731Y-21872758D02*
X-8864048Y-21894106D01*
X-9385637Y-22000841D02*
X-9213091Y-21356890D01*
X-9360987Y-21908848D02*
X-9419308Y-21942519D01*
X-9419308Y-21942519D02*
X-9523626Y-21963867D01*
X-9523626Y-21963867D02*
X-9661615Y-21926892D01*
X-9661615Y-21926892D02*
X-9741284Y-21856246D01*
X-9741284Y-21856246D02*
X-9762631Y-21751929D01*
X-9762631Y-21751929D02*
X-9627059Y-21245968D01*
X-2309290Y-24103654D02*
X-2204972Y-24082307D01*
X-2204972Y-24082307D02*
X-2020986Y-24131606D01*
X-2020986Y-24131606D02*
X-1941318Y-24202252D01*
X-1941318Y-24202252D02*
X-1907646Y-24260573D01*
X-1907646Y-24260573D02*
X-1886299Y-24364890D01*
X-1886299Y-24364890D02*
X-1960247Y-24640869D01*
X-1960247Y-24640869D02*
X-2030893Y-24720537D01*
X-2030893Y-24720537D02*
X-2089214Y-24754209D01*
X-2089214Y-24754209D02*
X-2193532Y-24775556D01*
X-2193532Y-24775556D02*
X-2377518Y-24726257D01*
X-2377518Y-24726257D02*
X-2457186Y-24655611D01*
X-3124901Y-23835812D02*
X-3260473Y-24341774D01*
X-3260473Y-24341774D02*
X-3239126Y-24446091D01*
X-3239126Y-24446091D02*
X-3159458Y-24516737D01*
X-3159458Y-24516737D02*
X-2975472Y-24566036D01*
X-2975472Y-24566036D02*
X-2871154Y-24544689D01*
X-3137226Y-23881809D02*
X-3032908Y-23860462D01*
X-3032908Y-23860462D02*
X-2802926Y-23922085D01*
X-2802926Y-23922085D02*
X-2723258Y-23992731D01*
X-2723258Y-23992731D02*
X-2701911Y-24097049D01*
X-2701911Y-24097049D02*
X-2726560Y-24189042D01*
X-2726560Y-24189042D02*
X-2797206Y-24268710D01*
X-2797206Y-24268710D02*
X-2901524Y-24290057D01*
X-2901524Y-24290057D02*
X-3131506Y-24228434D01*
X-3131506Y-24228434D02*
X-3235824Y-24249781D01*
X-3619423Y-24393490D02*
X-3987394Y-24294892D01*
X-3843685Y-24678491D02*
X-3621840Y-23850555D01*
X-3621840Y-23850555D02*
X-3643187Y-23746237D01*
X-3643187Y-23746237D02*
X-3722856Y-23675591D01*
X-3722856Y-23675591D02*
X-3814848Y-23650942D01*
%TO.C,LED10*%
X-25563800Y-8027166D02*
X-25440553Y-8487130D01*
X-25440553Y-8487130D02*
X-26406479Y-8745949D01*
X-26156034Y-7840762D02*
X-26242307Y-7518787D01*
X-25773320Y-7245225D02*
X-25650073Y-7705190D01*
X-25650073Y-7705190D02*
X-26615999Y-7964009D01*
X-26615999Y-7964009D02*
X-26739246Y-7504044D01*
X-25884243Y-6831257D02*
X-26850169Y-7090076D01*
X-26850169Y-7090076D02*
X-26911792Y-6860094D01*
X-26911792Y-6860094D02*
X-26902770Y-6709780D01*
X-26902770Y-6709780D02*
X-26835426Y-6593137D01*
X-26835426Y-6593137D02*
X-26755758Y-6522491D01*
X-26755758Y-6522491D02*
X-26584097Y-6427196D01*
X-26584097Y-6427196D02*
X-26446107Y-6390222D01*
X-26446107Y-6390222D02*
X-26249797Y-6386920D01*
X-26249797Y-6386920D02*
X-26145479Y-6408267D01*
X-26145479Y-6408267D02*
X-26028837Y-6475610D01*
X-26028837Y-6475610D02*
X-25945866Y-6601275D01*
X-25945866Y-6601275D02*
X-25884243Y-6831257D01*
X-26278634Y-5359370D02*
X-26130737Y-5911328D01*
X-26204685Y-5635349D02*
X-27170611Y-5894168D01*
X-27170611Y-5894168D02*
X-27007972Y-5949187D01*
X-27007972Y-5949187D02*
X-26891330Y-6016530D01*
X-26891330Y-6016530D02*
X-26820684Y-6096198D01*
X-27404781Y-5020235D02*
X-27429430Y-4928242D01*
X-27429430Y-4928242D02*
X-27408083Y-4823924D01*
X-27408083Y-4823924D02*
X-27374411Y-4765603D01*
X-27374411Y-4765603D02*
X-27294743Y-4694957D01*
X-27294743Y-4694957D02*
X-27123082Y-4599662D01*
X-27123082Y-4599662D02*
X-26893100Y-4538038D01*
X-26893100Y-4538038D02*
X-26696789Y-4534736D01*
X-26696789Y-4534736D02*
X-26592471Y-4556083D01*
X-26592471Y-4556083D02*
X-26534150Y-4589755D01*
X-26534150Y-4589755D02*
X-26463504Y-4669423D01*
X-26463504Y-4669423D02*
X-26438855Y-4761416D01*
X-26438855Y-4761416D02*
X-26460202Y-4865734D01*
X-26460202Y-4865734D02*
X-26493874Y-4924055D01*
X-26493874Y-4924055D02*
X-26573542Y-4994701D01*
X-26573542Y-4994701D02*
X-26745203Y-5089996D01*
X-26745203Y-5089996D02*
X-26975185Y-5151620D01*
X-26975185Y-5151620D02*
X-27171496Y-5154922D01*
X-27171496Y-5154922D02*
X-27275814Y-5133575D01*
X-27275814Y-5133575D02*
X-27334135Y-5099903D01*
X-27334135Y-5099903D02*
X-27404781Y-5020235D01*
X-23130652Y-3146560D02*
X-23636613Y-3282132D01*
X-23636613Y-3282132D02*
X-23716281Y-3352778D01*
X-23716281Y-3352778D02*
X-23737628Y-3457095D01*
X-23737628Y-3457095D02*
X-23688330Y-3641081D01*
X-23688330Y-3641081D02*
X-23617684Y-3720749D01*
X-23176648Y-3158885D02*
X-23106003Y-3238553D01*
X-23106003Y-3238553D02*
X-23044379Y-3468535D01*
X-23044379Y-3468535D02*
X-23065726Y-3572853D01*
X-23065726Y-3572853D02*
X-23145394Y-3643499D01*
X-23145394Y-3643499D02*
X-23237387Y-3668148D01*
X-23237387Y-3668148D02*
X-23341705Y-3646801D01*
X-23341705Y-3646801D02*
X-23412351Y-3567133D01*
X-23412351Y-3567133D02*
X-23473974Y-3337151D01*
X-23473974Y-3337151D02*
X-23544620Y-3257482D01*
X-23897850Y-2859141D02*
X-23253899Y-2686595D01*
X-23805857Y-2834492D02*
X-23864178Y-2800820D01*
X-23864178Y-2800820D02*
X-23934824Y-2721152D01*
X-23934824Y-2721152D02*
X-23971798Y-2583162D01*
X-23971798Y-2583162D02*
X-23950451Y-2478845D01*
X-23950451Y-2478845D02*
X-23870783Y-2408199D01*
X-23870783Y-2408199D02*
X-23364822Y-2272627D01*
X-21335927Y-10028549D02*
X-21265282Y-10108217D01*
X-21265282Y-10108217D02*
X-21215983Y-10292203D01*
X-21215983Y-10292203D02*
X-21237330Y-10396520D01*
X-21237330Y-10396520D02*
X-21271001Y-10454841D01*
X-21271001Y-10454841D02*
X-21350670Y-10525487D01*
X-21350670Y-10525487D02*
X-21626648Y-10599436D01*
X-21626648Y-10599436D02*
X-21730966Y-10578089D01*
X-21730966Y-10578089D02*
X-21789287Y-10544417D01*
X-21789287Y-10544417D02*
X-21859933Y-10464749D01*
X-21859933Y-10464749D02*
X-21909232Y-10280763D01*
X-21909232Y-10280763D02*
X-21887885Y-10176445D01*
X-21511776Y-9188287D02*
X-22017737Y-9323859D01*
X-22017737Y-9323859D02*
X-22097405Y-9394505D01*
X-22097405Y-9394505D02*
X-22118752Y-9498823D01*
X-22118752Y-9498823D02*
X-22069453Y-9682809D01*
X-22069453Y-9682809D02*
X-21998808Y-9762477D01*
X-21557772Y-9200612D02*
X-21487126Y-9280280D01*
X-21487126Y-9280280D02*
X-21425503Y-9510263D01*
X-21425503Y-9510263D02*
X-21446850Y-9614580D01*
X-21446850Y-9614580D02*
X-21526518Y-9685226D01*
X-21526518Y-9685226D02*
X-21618511Y-9709876D01*
X-21618511Y-9709876D02*
X-21722829Y-9688529D01*
X-21722829Y-9688529D02*
X-21793475Y-9608860D01*
X-21793475Y-9608860D02*
X-21855098Y-9378878D01*
X-21855098Y-9378878D02*
X-21925744Y-9299210D01*
X-22241999Y-9038858D02*
X-22340597Y-8670886D01*
X-22600949Y-8987142D02*
X-21773012Y-8765297D01*
X-21773012Y-8765297D02*
X-21693344Y-8694651D01*
X-21693344Y-8694651D02*
X-21671997Y-8590333D01*
X-21671997Y-8590333D02*
X-21696647Y-8498340D01*
%TO.C,LED8*%
X-13703158Y15359030D02*
X-13366441Y15695748D01*
X-13366441Y15695748D02*
X-12659334Y14988641D01*
X-13568471Y14752938D02*
X-13804174Y14517236D01*
X-14275578Y14786610D02*
X-13938861Y15123328D01*
X-13938861Y15123328D02*
X-13231754Y14416221D01*
X-13231754Y14416221D02*
X-13568471Y14079503D01*
X-14578624Y14483564D02*
X-13871517Y13776458D01*
X-13871517Y13776458D02*
X-14039876Y13608099D01*
X-14039876Y13608099D02*
X-14174563Y13540755D01*
X-14174563Y13540755D02*
X-14309250Y13540755D01*
X-14309250Y13540755D02*
X-14410265Y13574427D01*
X-14410265Y13574427D02*
X-14578624Y13675442D01*
X-14578624Y13675442D02*
X-14679639Y13776458D01*
X-14679639Y13776458D02*
X-14780654Y13944816D01*
X-14780654Y13944816D02*
X-14814326Y14045832D01*
X-14814326Y14045832D02*
X-14814326Y14180519D01*
X-14814326Y14180519D02*
X-14746983Y14315206D01*
X-14746983Y14315206D02*
X-14578624Y14483564D01*
X-14982685Y13271381D02*
X-14881670Y13305053D01*
X-14881670Y13305053D02*
X-14814326Y13305053D01*
X-14814326Y13305053D02*
X-14713311Y13271381D01*
X-14713311Y13271381D02*
X-14679639Y13237710D01*
X-14679639Y13237710D02*
X-14645967Y13136694D01*
X-14645967Y13136694D02*
X-14645967Y13069351D01*
X-14645967Y13069351D02*
X-14679639Y12968335D01*
X-14679639Y12968335D02*
X-14814326Y12833648D01*
X-14814326Y12833648D02*
X-14915341Y12799977D01*
X-14915341Y12799977D02*
X-14982685Y12799977D01*
X-14982685Y12799977D02*
X-15083700Y12833648D01*
X-15083700Y12833648D02*
X-15117372Y12867320D01*
X-15117372Y12867320D02*
X-15151044Y12968335D01*
X-15151044Y12968335D02*
X-15151044Y13035679D01*
X-15151044Y13035679D02*
X-15117372Y13136694D01*
X-15117372Y13136694D02*
X-14982685Y13271381D01*
X-14982685Y13271381D02*
X-14949013Y13372397D01*
X-14949013Y13372397D02*
X-14949013Y13439740D01*
X-14949013Y13439740D02*
X-14982685Y13540755D01*
X-14982685Y13540755D02*
X-15117372Y13675442D01*
X-15117372Y13675442D02*
X-15218387Y13709114D01*
X-15218387Y13709114D02*
X-15285731Y13709114D01*
X-15285731Y13709114D02*
X-15386746Y13675442D01*
X-15386746Y13675442D02*
X-15521433Y13540755D01*
X-15521433Y13540755D02*
X-15555105Y13439740D01*
X-15555105Y13439740D02*
X-15555105Y13372397D01*
X-15555105Y13372397D02*
X-15521433Y13271381D01*
X-15521433Y13271381D02*
X-15386746Y13136694D01*
X-15386746Y13136694D02*
X-15285731Y13103023D01*
X-15285731Y13103023D02*
X-15218387Y13103023D01*
X-15218387Y13103023D02*
X-15117372Y13136694D01*
X-18214073Y14331322D02*
X-17843684Y13960933D01*
X-17843684Y13960933D02*
X-17742669Y13927261D01*
X-17742669Y13927261D02*
X-17641654Y13960933D01*
X-17641654Y13960933D02*
X-17506967Y14095620D01*
X-17506967Y14095620D02*
X-17473295Y14196635D01*
X-18180402Y14297650D02*
X-18146730Y14398666D01*
X-18146730Y14398666D02*
X-17978371Y14567024D01*
X-17978371Y14567024D02*
X-17877356Y14600696D01*
X-17877356Y14600696D02*
X-17776341Y14567024D01*
X-17776341Y14567024D02*
X-17708997Y14499681D01*
X-17708997Y14499681D02*
X-17675325Y14398666D01*
X-17675325Y14398666D02*
X-17708997Y14297650D01*
X-17708997Y14297650D02*
X-17877356Y14129292D01*
X-17877356Y14129292D02*
X-17911028Y14028276D01*
X-18079386Y13523200D02*
X-18550791Y13994604D01*
X-18146730Y13590543D02*
X-18146730Y13523200D01*
X-18146730Y13523200D02*
X-18180402Y13422185D01*
X-18180402Y13422185D02*
X-18281417Y13321169D01*
X-18281417Y13321169D02*
X-18382432Y13287498D01*
X-18382432Y13287498D02*
X-18483447Y13321169D01*
X-18483447Y13321169D02*
X-18853837Y13691559D01*
X-13151459Y19326593D02*
X-13117787Y19427609D01*
X-13117787Y19427609D02*
X-12983100Y19562296D01*
X-12983100Y19562296D02*
X-12882085Y19595967D01*
X-12882085Y19595967D02*
X-12814741Y19595967D01*
X-12814741Y19595967D02*
X-12713726Y19562296D01*
X-12713726Y19562296D02*
X-12511695Y19360265D01*
X-12511695Y19360265D02*
X-12478024Y19259250D01*
X-12478024Y19259250D02*
X-12478024Y19191906D01*
X-12478024Y19191906D02*
X-12511695Y19090891D01*
X-12511695Y19090891D02*
X-12646382Y18956204D01*
X-12646382Y18956204D02*
X-12747398Y18922532D01*
X-13791222Y18754173D02*
X-13420833Y18383784D01*
X-13420833Y18383784D02*
X-13319817Y18350112D01*
X-13319817Y18350112D02*
X-13218802Y18383784D01*
X-13218802Y18383784D02*
X-13084115Y18518471D01*
X-13084115Y18518471D02*
X-13050443Y18619486D01*
X-13757550Y18720502D02*
X-13723878Y18821517D01*
X-13723878Y18821517D02*
X-13555520Y18989876D01*
X-13555520Y18989876D02*
X-13454504Y19023547D01*
X-13454504Y19023547D02*
X-13353489Y18989876D01*
X-13353489Y18989876D02*
X-13286146Y18922532D01*
X-13286146Y18922532D02*
X-13252474Y18821517D01*
X-13252474Y18821517D02*
X-13286146Y18720502D01*
X-13286146Y18720502D02*
X-13454504Y18552143D01*
X-13454504Y18552143D02*
X-13488176Y18451128D01*
X-13555520Y18047067D02*
X-13824894Y17777693D01*
X-13420833Y17710349D02*
X-14026924Y18316441D01*
X-14026924Y18316441D02*
X-14127940Y18350112D01*
X-14127940Y18350112D02*
X-14228955Y18316441D01*
X-14228955Y18316441D02*
X-14296298Y18249097D01*
%TO.C,LED3*%
X24366889Y7842880D02*
X24243642Y8302845D01*
X24243642Y8302845D02*
X25209568Y8561664D01*
X24959123Y7656477D02*
X25045397Y7334501D01*
X24576410Y7060940D02*
X24453162Y7520905D01*
X24453162Y7520905D02*
X25419088Y7779724D01*
X25419088Y7779724D02*
X25542335Y7319759D01*
X24687332Y6646972D02*
X25653258Y6905791D01*
X25653258Y6905791D02*
X25714881Y6675809D01*
X25714881Y6675809D02*
X25705859Y6525494D01*
X25705859Y6525494D02*
X25638516Y6408852D01*
X25638516Y6408852D02*
X25558847Y6338206D01*
X25558847Y6338206D02*
X25387186Y6242911D01*
X25387186Y6242911D02*
X25249197Y6205937D01*
X25249197Y6205937D02*
X25052886Y6202634D01*
X25052886Y6202634D02*
X24948569Y6223981D01*
X24948569Y6223981D02*
X24831926Y6291325D01*
X24831926Y6291325D02*
X24748956Y6416990D01*
X24748956Y6416990D02*
X24687332Y6646972D01*
X25887427Y6031858D02*
X26047649Y5433904D01*
X26047649Y5433904D02*
X25593404Y5657282D01*
X25593404Y5657282D02*
X25630378Y5519292D01*
X25630378Y5519292D02*
X25609031Y5414974D01*
X25609031Y5414974D02*
X25575359Y5356653D01*
X25575359Y5356653D02*
X25495691Y5286007D01*
X25495691Y5286007D02*
X25265709Y5224384D01*
X25265709Y5224384D02*
X25161391Y5245731D01*
X25161391Y5245731D02*
X25103070Y5279403D01*
X25103070Y5279403D02*
X25032424Y5359071D01*
X25032424Y5359071D02*
X24958476Y5635050D01*
X24958476Y5635050D02*
X24979823Y5739367D01*
X24979823Y5739367D02*
X25013495Y5797688D01*
X23001452Y3422460D02*
X23507413Y3558032D01*
X23507413Y3558032D02*
X23587081Y3628678D01*
X23587081Y3628678D02*
X23608428Y3732995D01*
X23608428Y3732995D02*
X23559130Y3916981D01*
X23559130Y3916981D02*
X23488484Y3996649D01*
X23047448Y3434785D02*
X22976803Y3514453D01*
X22976803Y3514453D02*
X22915179Y3744435D01*
X22915179Y3744435D02*
X22936526Y3848753D01*
X22936526Y3848753D02*
X23016194Y3919399D01*
X23016194Y3919399D02*
X23108187Y3944048D01*
X23108187Y3944048D02*
X23212505Y3922701D01*
X23212505Y3922701D02*
X23283151Y3843033D01*
X23283151Y3843033D02*
X23344774Y3613051D01*
X23344774Y3613051D02*
X23415420Y3533382D01*
X23768650Y3135041D02*
X23124699Y2962495D01*
X23676657Y3110392D02*
X23734978Y3076720D01*
X23734978Y3076720D02*
X23805624Y2997052D01*
X23805624Y2997052D02*
X23842598Y2859062D01*
X23842598Y2859062D02*
X23821251Y2754745D01*
X23821251Y2754745D02*
X23741583Y2684099D01*
X23741583Y2684099D02*
X23235622Y2548527D01*
X21206727Y10304449D02*
X21136082Y10384117D01*
X21136082Y10384117D02*
X21086783Y10568103D01*
X21086783Y10568103D02*
X21108130Y10672420D01*
X21108130Y10672420D02*
X21141801Y10730741D01*
X21141801Y10730741D02*
X21221470Y10801387D01*
X21221470Y10801387D02*
X21497448Y10875336D01*
X21497448Y10875336D02*
X21601766Y10853989D01*
X21601766Y10853989D02*
X21660087Y10820317D01*
X21660087Y10820317D02*
X21730733Y10740649D01*
X21730733Y10740649D02*
X21780032Y10556663D01*
X21780032Y10556663D02*
X21758685Y10452345D01*
X21382576Y9464187D02*
X21888537Y9599759D01*
X21888537Y9599759D02*
X21968205Y9670405D01*
X21968205Y9670405D02*
X21989552Y9774723D01*
X21989552Y9774723D02*
X21940253Y9958709D01*
X21940253Y9958709D02*
X21869608Y10038377D01*
X21428572Y9476512D02*
X21357926Y9556180D01*
X21357926Y9556180D02*
X21296303Y9786163D01*
X21296303Y9786163D02*
X21317650Y9890480D01*
X21317650Y9890480D02*
X21397318Y9961126D01*
X21397318Y9961126D02*
X21489311Y9985776D01*
X21489311Y9985776D02*
X21593629Y9964429D01*
X21593629Y9964429D02*
X21664275Y9884760D01*
X21664275Y9884760D02*
X21725898Y9654778D01*
X21725898Y9654778D02*
X21796544Y9575110D01*
X22112799Y9314758D02*
X22211397Y8946786D01*
X22471749Y9263042D02*
X21643812Y9041197D01*
X21643812Y9041197D02*
X21564144Y8970551D01*
X21564144Y8970551D02*
X21542797Y8866233D01*
X21542797Y8866233D02*
X21567447Y8774240D01*
%TO.C,LED6*%
X4136119Y-19863210D02*
X3676154Y-19986457D01*
X3676154Y-19986457D02*
X3417335Y-19020531D01*
X4322522Y-19270976D02*
X4644498Y-19184702D01*
X4918059Y-19653689D02*
X4458094Y-19776937D01*
X4458094Y-19776937D02*
X4199275Y-18811011D01*
X4199275Y-18811011D02*
X4659240Y-18687764D01*
X5332027Y-19542767D02*
X5073208Y-18576841D01*
X5073208Y-18576841D02*
X5303190Y-18515218D01*
X5303190Y-18515218D02*
X5453505Y-18524240D01*
X5453505Y-18524240D02*
X5570147Y-18591583D01*
X5570147Y-18591583D02*
X5640793Y-18671252D01*
X5640793Y-18671252D02*
X5736088Y-18842913D01*
X5736088Y-18842913D02*
X5773062Y-18980902D01*
X5773062Y-18980902D02*
X5776365Y-19177213D01*
X5776365Y-19177213D02*
X5755018Y-19281530D01*
X5755018Y-19281530D02*
X5687674Y-19398173D01*
X5687674Y-19398173D02*
X5562009Y-19481143D01*
X5562009Y-19481143D02*
X5332027Y-19542767D01*
X6453102Y-18207100D02*
X6269116Y-18256399D01*
X6269116Y-18256399D02*
X6189448Y-18327044D01*
X6189448Y-18327044D02*
X6155776Y-18385366D01*
X6155776Y-18385366D02*
X6100757Y-18548004D01*
X6100757Y-18548004D02*
X6104060Y-18744315D01*
X6104060Y-18744315D02*
X6202658Y-19112287D01*
X6202658Y-19112287D02*
X6273303Y-19191955D01*
X6273303Y-19191955D02*
X6331625Y-19225627D01*
X6331625Y-19225627D02*
X6435942Y-19246974D01*
X6435942Y-19246974D02*
X6619928Y-19197675D01*
X6619928Y-19197675D02*
X6699596Y-19127029D01*
X6699596Y-19127029D02*
X6733268Y-19068708D01*
X6733268Y-19068708D02*
X6754615Y-18964390D01*
X6754615Y-18964390D02*
X6692992Y-18734408D01*
X6692992Y-18734408D02*
X6622346Y-18654740D01*
X6622346Y-18654740D02*
X6564025Y-18621068D01*
X6564025Y-18621068D02*
X6459707Y-18599721D01*
X6459707Y-18599721D02*
X6275721Y-18649020D01*
X6275721Y-18649020D02*
X6196053Y-18719666D01*
X6196053Y-18719666D02*
X6162381Y-18777987D01*
X6162381Y-18777987D02*
X6141034Y-18882304D01*
X8556539Y-21228647D02*
X8420967Y-20722686D01*
X8420967Y-20722686D02*
X8350321Y-20643018D01*
X8350321Y-20643018D02*
X8246004Y-20621671D01*
X8246004Y-20621671D02*
X8062018Y-20670969D01*
X8062018Y-20670969D02*
X7982350Y-20741615D01*
X8544214Y-21182651D02*
X8464546Y-21253296D01*
X8464546Y-21253296D02*
X8234564Y-21314920D01*
X8234564Y-21314920D02*
X8130246Y-21293573D01*
X8130246Y-21293573D02*
X8059600Y-21213905D01*
X8059600Y-21213905D02*
X8034951Y-21121912D01*
X8034951Y-21121912D02*
X8056298Y-21017594D01*
X8056298Y-21017594D02*
X8135966Y-20946948D01*
X8135966Y-20946948D02*
X8365948Y-20885325D01*
X8365948Y-20885325D02*
X8445617Y-20814679D01*
X8843958Y-20461449D02*
X9016504Y-21105400D01*
X8868607Y-20553442D02*
X8902279Y-20495121D01*
X8902279Y-20495121D02*
X8981947Y-20424475D01*
X8981947Y-20424475D02*
X9119937Y-20387501D01*
X9119937Y-20387501D02*
X9224254Y-20408848D01*
X9224254Y-20408848D02*
X9294900Y-20488516D01*
X9294900Y-20488516D02*
X9430472Y-20994477D01*
X1674550Y-23023372D02*
X1594882Y-23094017D01*
X1594882Y-23094017D02*
X1410896Y-23143316D01*
X1410896Y-23143316D02*
X1306579Y-23121969D01*
X1306579Y-23121969D02*
X1248258Y-23088298D01*
X1248258Y-23088298D02*
X1177612Y-23008629D01*
X1177612Y-23008629D02*
X1103663Y-22732651D01*
X1103663Y-22732651D02*
X1125010Y-22628333D01*
X1125010Y-22628333D02*
X1158682Y-22570012D01*
X1158682Y-22570012D02*
X1238350Y-22499366D01*
X1238350Y-22499366D02*
X1422336Y-22450067D01*
X1422336Y-22450067D02*
X1526654Y-22471414D01*
X2514812Y-22847523D02*
X2379240Y-22341562D01*
X2379240Y-22341562D02*
X2308594Y-22261894D01*
X2308594Y-22261894D02*
X2204276Y-22240547D01*
X2204276Y-22240547D02*
X2020290Y-22289846D01*
X2020290Y-22289846D02*
X1940622Y-22360491D01*
X2502487Y-22801527D02*
X2422819Y-22872173D01*
X2422819Y-22872173D02*
X2192836Y-22933796D01*
X2192836Y-22933796D02*
X2088519Y-22912449D01*
X2088519Y-22912449D02*
X2017873Y-22832781D01*
X2017873Y-22832781D02*
X1993223Y-22740788D01*
X1993223Y-22740788D02*
X2014570Y-22636470D01*
X2014570Y-22636470D02*
X2094239Y-22565824D01*
X2094239Y-22565824D02*
X2324221Y-22504201D01*
X2324221Y-22504201D02*
X2403889Y-22433555D01*
X2664241Y-22117300D02*
X3032213Y-22018702D01*
X2715957Y-21758350D02*
X2937802Y-22586287D01*
X2937802Y-22586287D02*
X3008448Y-22665955D01*
X3008448Y-22665955D02*
X3112766Y-22687302D01*
X3112766Y-22687302D02*
X3204759Y-22662652D01*
%TO.C,LED9*%
X-19486448Y6500552D02*
X-19363201Y6960517D01*
X-19363201Y6960517D02*
X-18397275Y6701698D01*
X-19066760Y6043005D02*
X-19153033Y5721029D01*
X-19695968Y5718612D02*
X-19572721Y6178577D01*
X-19572721Y6178577D02*
X-18606795Y5919758D01*
X-18606795Y5919758D02*
X-18730043Y5459793D01*
X-19806891Y5304644D02*
X-18840965Y5045825D01*
X-18840965Y5045825D02*
X-18902589Y4815842D01*
X-18902589Y4815842D02*
X-18985559Y4690177D01*
X-18985559Y4690177D02*
X-19102202Y4622834D01*
X-19102202Y4622834D02*
X-19206519Y4601487D01*
X-19206519Y4601487D02*
X-19402830Y4604789D01*
X-19402830Y4604789D02*
X-19540819Y4641764D01*
X-19540819Y4641764D02*
X-19712480Y4737059D01*
X-19712480Y4737059D02*
X-19792149Y4807705D01*
X-19792149Y4807705D02*
X-19859492Y4924347D01*
X-19859492Y4924347D02*
X-19868514Y5074661D01*
X-19868514Y5074661D02*
X-19806891Y5304644D01*
X-20078035Y4292721D02*
X-20127334Y4108735D01*
X-20127334Y4108735D02*
X-20105987Y4004418D01*
X-20105987Y4004418D02*
X-20072315Y3946097D01*
X-20072315Y3946097D02*
X-19958975Y3817129D01*
X-19958975Y3817129D02*
X-19787314Y3721834D01*
X-19787314Y3721834D02*
X-19419342Y3623236D01*
X-19419342Y3623236D02*
X-19315024Y3644583D01*
X-19315024Y3644583D02*
X-19256703Y3678255D01*
X-19256703Y3678255D02*
X-19186057Y3757923D01*
X-19186057Y3757923D02*
X-19136758Y3941909D01*
X-19136758Y3941909D02*
X-19158105Y4046227D01*
X-19158105Y4046227D02*
X-19191777Y4104548D01*
X-19191777Y4104548D02*
X-19271445Y4175194D01*
X-19271445Y4175194D02*
X-19501428Y4236818D01*
X-19501428Y4236818D02*
X-19605745Y4215471D01*
X-19605745Y4215471D02*
X-19664066Y4181799D01*
X-19664066Y4181799D02*
X-19734712Y4102131D01*
X-19734712Y4102131D02*
X-19784011Y3918145D01*
X-19784011Y3918145D02*
X-19762664Y3813827D01*
X-19762664Y3813827D02*
X-19728992Y3755506D01*
X-19728992Y3755506D02*
X-19649324Y3684860D01*
X-22879162Y3355073D02*
X-22373201Y3219501D01*
X-22373201Y3219501D02*
X-22268883Y3240848D01*
X-22268883Y3240848D02*
X-22198237Y3320517D01*
X-22198237Y3320517D02*
X-22148938Y3504502D01*
X-22148938Y3504502D02*
X-22170285Y3608820D01*
X-22833165Y3342748D02*
X-22854512Y3447066D01*
X-22854512Y3447066D02*
X-22792889Y3677048D01*
X-22792889Y3677048D02*
X-22722243Y3756717D01*
X-22722243Y3756717D02*
X-22617925Y3778064D01*
X-22617925Y3778064D02*
X-22525932Y3753414D01*
X-22525932Y3753414D02*
X-22446264Y3682768D01*
X-22446264Y3682768D02*
X-22424917Y3578451D01*
X-22424917Y3578451D02*
X-22486541Y3348468D01*
X-22486541Y3348468D02*
X-22465193Y3244151D01*
X-22358458Y2722562D02*
X-23002409Y2895108D01*
X-22450451Y2747212D02*
X-22416780Y2688891D01*
X-22416780Y2688891D02*
X-22395432Y2584573D01*
X-22395432Y2584573D02*
X-22432407Y2446584D01*
X-22432407Y2446584D02*
X-22503053Y2366915D01*
X-22503053Y2366915D02*
X-22607370Y2345568D01*
X-22607370Y2345568D02*
X-23113331Y2481140D01*
X-20992444Y10212412D02*
X-21013791Y10316730D01*
X-21013791Y10316730D02*
X-20964492Y10500716D01*
X-20964492Y10500716D02*
X-20893846Y10580384D01*
X-20893846Y10580384D02*
X-20835525Y10614056D01*
X-20835525Y10614056D02*
X-20731208Y10635403D01*
X-20731208Y10635403D02*
X-20455229Y10561455D01*
X-20455229Y10561455D02*
X-20375561Y10490809D01*
X-20375561Y10490809D02*
X-20341889Y10432488D01*
X-20341889Y10432488D02*
X-20320542Y10328170D01*
X-20320542Y10328170D02*
X-20369841Y10144184D01*
X-20369841Y10144184D02*
X-20440487Y10064516D01*
X-21260286Y9396801D02*
X-20754324Y9261229D01*
X-20754324Y9261229D02*
X-20650007Y9282576D01*
X-20650007Y9282576D02*
X-20579361Y9362244D01*
X-20579361Y9362244D02*
X-20530062Y9546230D01*
X-20530062Y9546230D02*
X-20551409Y9650548D01*
X-21214289Y9384476D02*
X-21235636Y9488794D01*
X-21235636Y9488794D02*
X-21174013Y9718776D01*
X-21174013Y9718776D02*
X-21103367Y9798444D01*
X-21103367Y9798444D02*
X-20999049Y9819791D01*
X-20999049Y9819791D02*
X-20907056Y9795142D01*
X-20907056Y9795142D02*
X-20827388Y9724496D01*
X-20827388Y9724496D02*
X-20806041Y9620178D01*
X-20806041Y9620178D02*
X-20867664Y9390196D01*
X-20867664Y9390196D02*
X-20846317Y9285878D01*
X-20702608Y8902279D02*
X-20801206Y8534308D01*
X-20417607Y8678017D02*
X-21245543Y8899862D01*
X-21245543Y8899862D02*
X-21349861Y8878515D01*
X-21349861Y8878515D02*
X-21420507Y8798846D01*
X-21420507Y8798846D02*
X-21445156Y8706854D01*
%TO.C,LED5*%
X13573958Y-15083130D02*
X13237241Y-15419848D01*
X13237241Y-15419848D02*
X12530134Y-14712741D01*
X13439271Y-14477038D02*
X13674974Y-14241336D01*
X14146378Y-14510710D02*
X13809661Y-14847428D01*
X13809661Y-14847428D02*
X13102554Y-14140321D01*
X13102554Y-14140321D02*
X13439271Y-13803603D01*
X14449424Y-14207664D02*
X13742317Y-13500558D01*
X13742317Y-13500558D02*
X13910676Y-13332199D01*
X13910676Y-13332199D02*
X14045363Y-13264855D01*
X14045363Y-13264855D02*
X14180050Y-13264855D01*
X14180050Y-13264855D02*
X14281065Y-13298527D01*
X14281065Y-13298527D02*
X14449424Y-13399542D01*
X14449424Y-13399542D02*
X14550439Y-13500558D01*
X14550439Y-13500558D02*
X14651454Y-13668916D01*
X14651454Y-13668916D02*
X14685126Y-13769932D01*
X14685126Y-13769932D02*
X14685126Y-13904619D01*
X14685126Y-13904619D02*
X14617783Y-14039306D01*
X14617783Y-14039306D02*
X14449424Y-14207664D01*
X14786141Y-12456733D02*
X14449424Y-12793451D01*
X14449424Y-12793451D02*
X14752470Y-13163840D01*
X14752470Y-13163840D02*
X14752470Y-13096497D01*
X14752470Y-13096497D02*
X14786141Y-12995481D01*
X14786141Y-12995481D02*
X14954500Y-12827123D01*
X14954500Y-12827123D02*
X15055515Y-12793451D01*
X15055515Y-12793451D02*
X15122859Y-12793451D01*
X15122859Y-12793451D02*
X15223874Y-12827123D01*
X15223874Y-12827123D02*
X15392233Y-12995481D01*
X15392233Y-12995481D02*
X15425905Y-13096497D01*
X15425905Y-13096497D02*
X15425905Y-13163840D01*
X15425905Y-13163840D02*
X15392233Y-13264855D01*
X15392233Y-13264855D02*
X15223874Y-13433214D01*
X15223874Y-13433214D02*
X15122859Y-13466886D01*
X15122859Y-13466886D02*
X15055515Y-13466886D01*
X18084873Y-14055422D02*
X17714484Y-13685033D01*
X17714484Y-13685033D02*
X17613469Y-13651361D01*
X17613469Y-13651361D02*
X17512454Y-13685033D01*
X17512454Y-13685033D02*
X17377767Y-13819720D01*
X17377767Y-13819720D02*
X17344095Y-13920735D01*
X18051202Y-14021750D02*
X18017530Y-14122766D01*
X18017530Y-14122766D02*
X17849171Y-14291124D01*
X17849171Y-14291124D02*
X17748156Y-14324796D01*
X17748156Y-14324796D02*
X17647141Y-14291124D01*
X17647141Y-14291124D02*
X17579797Y-14223781D01*
X17579797Y-14223781D02*
X17546125Y-14122766D01*
X17546125Y-14122766D02*
X17579797Y-14021750D01*
X17579797Y-14021750D02*
X17748156Y-13853392D01*
X17748156Y-13853392D02*
X17781828Y-13752376D01*
X17950186Y-13247300D02*
X18421591Y-13718704D01*
X18017530Y-13314643D02*
X18017530Y-13247300D01*
X18017530Y-13247300D02*
X18051202Y-13146285D01*
X18051202Y-13146285D02*
X18152217Y-13045269D01*
X18152217Y-13045269D02*
X18253232Y-13011598D01*
X18253232Y-13011598D02*
X18354247Y-13045269D01*
X18354247Y-13045269D02*
X18724637Y-13415659D01*
X13022259Y-19050693D02*
X12988587Y-19151709D01*
X12988587Y-19151709D02*
X12853900Y-19286396D01*
X12853900Y-19286396D02*
X12752885Y-19320067D01*
X12752885Y-19320067D02*
X12685541Y-19320067D01*
X12685541Y-19320067D02*
X12584526Y-19286396D01*
X12584526Y-19286396D02*
X12382495Y-19084365D01*
X12382495Y-19084365D02*
X12348824Y-18983350D01*
X12348824Y-18983350D02*
X12348824Y-18916006D01*
X12348824Y-18916006D02*
X12382495Y-18814991D01*
X12382495Y-18814991D02*
X12517182Y-18680304D01*
X12517182Y-18680304D02*
X12618198Y-18646632D01*
X13662022Y-18478273D02*
X13291633Y-18107884D01*
X13291633Y-18107884D02*
X13190617Y-18074212D01*
X13190617Y-18074212D02*
X13089602Y-18107884D01*
X13089602Y-18107884D02*
X12954915Y-18242571D01*
X12954915Y-18242571D02*
X12921243Y-18343586D01*
X13628350Y-18444602D02*
X13594678Y-18545617D01*
X13594678Y-18545617D02*
X13426320Y-18713976D01*
X13426320Y-18713976D02*
X13325304Y-18747647D01*
X13325304Y-18747647D02*
X13224289Y-18713976D01*
X13224289Y-18713976D02*
X13156946Y-18646632D01*
X13156946Y-18646632D02*
X13123274Y-18545617D01*
X13123274Y-18545617D02*
X13156946Y-18444602D01*
X13156946Y-18444602D02*
X13325304Y-18276243D01*
X13325304Y-18276243D02*
X13358976Y-18175228D01*
X13426320Y-17771167D02*
X13695694Y-17501793D01*
X13291633Y-17434449D02*
X13897724Y-18040541D01*
X13897724Y-18040541D02*
X13998740Y-18074212D01*
X13998740Y-18074212D02*
X14099755Y-18040541D01*
X14099755Y-18040541D02*
X14167098Y-17973197D01*
%TO.C,LED4*%
X19357248Y-6224652D02*
X19234001Y-6684617D01*
X19234001Y-6684617D02*
X18268075Y-6425798D01*
X18937560Y-5767105D02*
X19023833Y-5445129D01*
X19566768Y-5442712D02*
X19443521Y-5902677D01*
X19443521Y-5902677D02*
X18477595Y-5643858D01*
X18477595Y-5643858D02*
X18600843Y-5183893D01*
X19677691Y-5028744D02*
X18711765Y-4769925D01*
X18711765Y-4769925D02*
X18773389Y-4539942D01*
X18773389Y-4539942D02*
X18856359Y-4414277D01*
X18856359Y-4414277D02*
X18973002Y-4346934D01*
X18973002Y-4346934D02*
X19077319Y-4325587D01*
X19077319Y-4325587D02*
X19273630Y-4328889D01*
X19273630Y-4328889D02*
X19411619Y-4365864D01*
X19411619Y-4365864D02*
X19583280Y-4461159D01*
X19583280Y-4461159D02*
X19662949Y-4531805D01*
X19662949Y-4531805D02*
X19730292Y-4648447D01*
X19730292Y-4648447D02*
X19739314Y-4798761D01*
X19739314Y-4798761D02*
X19677691Y-5028744D01*
X19403482Y-3476303D02*
X20047432Y-3648850D01*
X18973887Y-3607688D02*
X19602210Y-4022541D01*
X19602210Y-4022541D02*
X19762431Y-3424587D01*
X22749962Y-3079173D02*
X22244001Y-2943601D01*
X22244001Y-2943601D02*
X22139683Y-2964948D01*
X22139683Y-2964948D02*
X22069037Y-3044617D01*
X22069037Y-3044617D02*
X22019738Y-3228602D01*
X22019738Y-3228602D02*
X22041085Y-3332920D01*
X22703965Y-3066848D02*
X22725312Y-3171166D01*
X22725312Y-3171166D02*
X22663689Y-3401148D01*
X22663689Y-3401148D02*
X22593043Y-3480817D01*
X22593043Y-3480817D02*
X22488725Y-3502164D01*
X22488725Y-3502164D02*
X22396732Y-3477514D01*
X22396732Y-3477514D02*
X22317064Y-3406868D01*
X22317064Y-3406868D02*
X22295717Y-3302551D01*
X22295717Y-3302551D02*
X22357341Y-3072568D01*
X22357341Y-3072568D02*
X22335993Y-2968251D01*
X22229258Y-2446662D02*
X22873209Y-2619208D01*
X22321251Y-2471312D02*
X22287580Y-2412991D01*
X22287580Y-2412991D02*
X22266232Y-2308673D01*
X22266232Y-2308673D02*
X22303207Y-2170684D01*
X22303207Y-2170684D02*
X22373853Y-2091015D01*
X22373853Y-2091015D02*
X22478170Y-2069668D01*
X22478170Y-2069668D02*
X22984131Y-2205240D01*
X20863244Y-9936512D02*
X20884591Y-10040830D01*
X20884591Y-10040830D02*
X20835292Y-10224816D01*
X20835292Y-10224816D02*
X20764646Y-10304484D01*
X20764646Y-10304484D02*
X20706325Y-10338156D01*
X20706325Y-10338156D02*
X20602008Y-10359503D01*
X20602008Y-10359503D02*
X20326029Y-10285555D01*
X20326029Y-10285555D02*
X20246361Y-10214909D01*
X20246361Y-10214909D02*
X20212689Y-10156588D01*
X20212689Y-10156588D02*
X20191342Y-10052270D01*
X20191342Y-10052270D02*
X20240641Y-9868284D01*
X20240641Y-9868284D02*
X20311287Y-9788616D01*
X21131086Y-9120901D02*
X20625124Y-8985329D01*
X20625124Y-8985329D02*
X20520807Y-9006676D01*
X20520807Y-9006676D02*
X20450161Y-9086344D01*
X20450161Y-9086344D02*
X20400862Y-9270330D01*
X20400862Y-9270330D02*
X20422209Y-9374648D01*
X21085089Y-9108576D02*
X21106436Y-9212894D01*
X21106436Y-9212894D02*
X21044813Y-9442876D01*
X21044813Y-9442876D02*
X20974167Y-9522544D01*
X20974167Y-9522544D02*
X20869849Y-9543891D01*
X20869849Y-9543891D02*
X20777856Y-9519242D01*
X20777856Y-9519242D02*
X20698188Y-9448596D01*
X20698188Y-9448596D02*
X20676841Y-9344278D01*
X20676841Y-9344278D02*
X20738464Y-9114296D01*
X20738464Y-9114296D02*
X20717117Y-9009978D01*
X20573408Y-8626379D02*
X20672006Y-8258408D01*
X20288407Y-8402117D02*
X21116343Y-8623962D01*
X21116343Y-8623962D02*
X21220661Y-8602615D01*
X21220661Y-8602615D02*
X21291307Y-8522946D01*
X21291307Y-8522946D02*
X21315956Y-8430954D01*
%TO.C,LED7*%
X-4265319Y20139010D02*
X-3805354Y20262257D01*
X-3805354Y20262257D02*
X-3546535Y19296331D01*
X-4451722Y19546776D02*
X-4773698Y19460502D01*
X-5047259Y19929489D02*
X-4587294Y20052737D01*
X-4587294Y20052737D02*
X-4328475Y19086811D01*
X-4328475Y19086811D02*
X-4788440Y18963564D01*
X-5461227Y19818567D02*
X-5202408Y18852641D01*
X-5202408Y18852641D02*
X-5432390Y18791018D01*
X-5432390Y18791018D02*
X-5582705Y18800040D01*
X-5582705Y18800040D02*
X-5699347Y18867383D01*
X-5699347Y18867383D02*
X-5769993Y18947052D01*
X-5769993Y18947052D02*
X-5865288Y19118713D01*
X-5865288Y19118713D02*
X-5902262Y19256702D01*
X-5902262Y19256702D02*
X-5905565Y19453013D01*
X-5905565Y19453013D02*
X-5884218Y19557330D01*
X-5884218Y19557330D02*
X-5816874Y19673973D01*
X-5816874Y19673973D02*
X-5691209Y19756943D01*
X-5691209Y19756943D02*
X-5461227Y19818567D01*
X-6076341Y18618472D02*
X-6720291Y18445926D01*
X-6720291Y18445926D02*
X-6565142Y19522774D01*
X-8685739Y21504447D02*
X-8550167Y20998486D01*
X-8550167Y20998486D02*
X-8479521Y20918818D01*
X-8479521Y20918818D02*
X-8375204Y20897471D01*
X-8375204Y20897471D02*
X-8191218Y20946769D01*
X-8191218Y20946769D02*
X-8111550Y21017415D01*
X-8673414Y21458451D02*
X-8593746Y21529096D01*
X-8593746Y21529096D02*
X-8363764Y21590720D01*
X-8363764Y21590720D02*
X-8259446Y21569373D01*
X-8259446Y21569373D02*
X-8188800Y21489705D01*
X-8188800Y21489705D02*
X-8164151Y21397712D01*
X-8164151Y21397712D02*
X-8185498Y21293394D01*
X-8185498Y21293394D02*
X-8265166Y21222748D01*
X-8265166Y21222748D02*
X-8495148Y21161125D01*
X-8495148Y21161125D02*
X-8574817Y21090479D01*
X-8973158Y20737249D02*
X-9145704Y21381200D01*
X-8997807Y20829242D02*
X-9031479Y20770921D01*
X-9031479Y20770921D02*
X-9111147Y20700275D01*
X-9111147Y20700275D02*
X-9249137Y20663301D01*
X-9249137Y20663301D02*
X-9353454Y20684648D01*
X-9353454Y20684648D02*
X-9424100Y20764316D01*
X-9424100Y20764316D02*
X-9559672Y21270277D01*
X-1963253Y22490171D02*
X-1883585Y22560816D01*
X-1883585Y22560816D02*
X-1699599Y22610115D01*
X-1699599Y22610115D02*
X-1595282Y22588768D01*
X-1595282Y22588768D02*
X-1536961Y22555097D01*
X-1536961Y22555097D02*
X-1466315Y22475428D01*
X-1466315Y22475428D02*
X-1392366Y22199450D01*
X-1392366Y22199450D02*
X-1413713Y22095132D01*
X-1413713Y22095132D02*
X-1447385Y22036811D01*
X-1447385Y22036811D02*
X-1527053Y21966165D01*
X-1527053Y21966165D02*
X-1711039Y21916866D01*
X-1711039Y21916866D02*
X-1815357Y21938213D01*
X-2803515Y22314322D02*
X-2667943Y21808361D01*
X-2667943Y21808361D02*
X-2597297Y21728693D01*
X-2597297Y21728693D02*
X-2492979Y21707346D01*
X-2492979Y21707346D02*
X-2308993Y21756645D01*
X-2308993Y21756645D02*
X-2229325Y21827290D01*
X-2791190Y22268326D02*
X-2711522Y22338972D01*
X-2711522Y22338972D02*
X-2481539Y22400595D01*
X-2481539Y22400595D02*
X-2377222Y22379248D01*
X-2377222Y22379248D02*
X-2306576Y22299580D01*
X-2306576Y22299580D02*
X-2281926Y22207587D01*
X-2281926Y22207587D02*
X-2303273Y22103269D01*
X-2303273Y22103269D02*
X-2382942Y22032623D01*
X-2382942Y22032623D02*
X-2612924Y21971000D01*
X-2612924Y21971000D02*
X-2692592Y21900354D01*
X-2952944Y21584099D02*
X-3320916Y21485501D01*
X-3004660Y21225149D02*
X-3226505Y22053086D01*
X-3226505Y22053086D02*
X-3297151Y22132754D01*
X-3297151Y22132754D02*
X-3401469Y22154101D01*
X-3401469Y22154101D02*
X-3493462Y22129451D01*
%TO.C,LED11*%
X-17346390Y-19087159D02*
X-17009673Y-19423876D01*
X-17009673Y-19423876D02*
X-17716779Y-20130983D01*
X-17952482Y-19221846D02*
X-18188184Y-18986143D01*
X-17918810Y-18514739D02*
X-17582092Y-18851456D01*
X-17582092Y-18851456D02*
X-18289199Y-19558563D01*
X-18289199Y-19558563D02*
X-18625917Y-19221846D01*
X-18221856Y-18211693D02*
X-18928963Y-18918800D01*
X-18928963Y-18918800D02*
X-19097321Y-18750441D01*
X-19097321Y-18750441D02*
X-19164665Y-18615754D01*
X-19164665Y-18615754D02*
X-19164665Y-18481067D01*
X-19164665Y-18481067D02*
X-19130993Y-18380052D01*
X-19130993Y-18380052D02*
X-19029978Y-18211693D01*
X-19029978Y-18211693D02*
X-18928963Y-18110678D01*
X-18928963Y-18110678D02*
X-18760604Y-18009662D01*
X-18760604Y-18009662D02*
X-18659589Y-17975991D01*
X-18659589Y-17975991D02*
X-18524902Y-17975991D01*
X-18524902Y-17975991D02*
X-18390215Y-18043334D01*
X-18390215Y-18043334D02*
X-18221856Y-18211693D01*
X-19299352Y-17134197D02*
X-18895291Y-17538258D01*
X-19097321Y-17336227D02*
X-19804428Y-18043334D01*
X-19804428Y-18043334D02*
X-19636069Y-18009662D01*
X-19636069Y-18009662D02*
X-19501382Y-18009662D01*
X-19501382Y-18009662D02*
X-19400367Y-18043334D01*
X-19972787Y-16460762D02*
X-19568726Y-16864823D01*
X-19770756Y-16662792D02*
X-20477863Y-17369899D01*
X-20477863Y-17369899D02*
X-20309504Y-17336227D01*
X-20309504Y-17336227D02*
X-20174817Y-17336227D01*
X-20174817Y-17336227D02*
X-20073802Y-17369899D01*
X-18398077Y-14239526D02*
X-18768466Y-14609915D01*
X-18768466Y-14609915D02*
X-18802138Y-14710930D01*
X-18802138Y-14710930D02*
X-18768466Y-14811945D01*
X-18768466Y-14811945D02*
X-18633779Y-14946632D01*
X-18633779Y-14946632D02*
X-18532764Y-14980304D01*
X-18431749Y-14273197D02*
X-18330733Y-14306869D01*
X-18330733Y-14306869D02*
X-18162375Y-14475228D01*
X-18162375Y-14475228D02*
X-18128703Y-14576243D01*
X-18128703Y-14576243D02*
X-18162375Y-14677258D01*
X-18162375Y-14677258D02*
X-18229718Y-14744602D01*
X-18229718Y-14744602D02*
X-18330733Y-14778274D01*
X-18330733Y-14778274D02*
X-18431749Y-14744602D01*
X-18431749Y-14744602D02*
X-18600107Y-14576243D01*
X-18600107Y-14576243D02*
X-18701123Y-14542571D01*
X-19206199Y-14374213D02*
X-18734795Y-13902808D01*
X-19138856Y-14306869D02*
X-19206199Y-14306869D01*
X-19206199Y-14306869D02*
X-19307214Y-14273197D01*
X-19307214Y-14273197D02*
X-19408230Y-14172182D01*
X-19408230Y-14172182D02*
X-19441901Y-14071167D01*
X-19441901Y-14071167D02*
X-19408230Y-13970152D01*
X-19408230Y-13970152D02*
X-19037840Y-13599762D01*
X-13402806Y-19302140D02*
X-13301790Y-19335812D01*
X-13301790Y-19335812D02*
X-13167103Y-19470499D01*
X-13167103Y-19470499D02*
X-13133432Y-19571514D01*
X-13133432Y-19571514D02*
X-13133432Y-19638858D01*
X-13133432Y-19638858D02*
X-13167103Y-19739873D01*
X-13167103Y-19739873D02*
X-13369134Y-19941904D01*
X-13369134Y-19941904D02*
X-13470149Y-19975575D01*
X-13470149Y-19975575D02*
X-13537493Y-19975575D01*
X-13537493Y-19975575D02*
X-13638508Y-19941904D01*
X-13638508Y-19941904D02*
X-13773195Y-19807217D01*
X-13773195Y-19807217D02*
X-13806867Y-19706201D01*
X-13975226Y-18662377D02*
X-14345615Y-19032766D01*
X-14345615Y-19032766D02*
X-14379287Y-19133782D01*
X-14379287Y-19133782D02*
X-14345615Y-19234797D01*
X-14345615Y-19234797D02*
X-14210928Y-19369484D01*
X-14210928Y-19369484D02*
X-14109913Y-19403156D01*
X-14008897Y-18696049D02*
X-13907882Y-18729721D01*
X-13907882Y-18729721D02*
X-13739523Y-18898079D01*
X-13739523Y-18898079D02*
X-13705852Y-18999095D01*
X-13705852Y-18999095D02*
X-13739523Y-19100110D01*
X-13739523Y-19100110D02*
X-13806867Y-19167453D01*
X-13806867Y-19167453D02*
X-13907882Y-19201125D01*
X-13907882Y-19201125D02*
X-14008897Y-19167453D01*
X-14008897Y-19167453D02*
X-14177256Y-18999095D01*
X-14177256Y-18999095D02*
X-14278271Y-18965423D01*
X-14682332Y-18898079D02*
X-14951706Y-18628705D01*
X-15019050Y-19032766D02*
X-14412958Y-18426675D01*
X-14412958Y-18426675D02*
X-14379287Y-18325659D01*
X-14379287Y-18325659D02*
X-14412958Y-18224644D01*
X-14412958Y-18224644D02*
X-14480302Y-18157301D01*
%TO.C,LED2*%
X17241269Y19026341D02*
X16904551Y19363058D01*
X16904551Y19363058D02*
X17611658Y20070165D01*
X17847361Y19161028D02*
X18083063Y18925325D01*
X17813689Y18453921D02*
X17476971Y18790638D01*
X17476971Y18790638D02*
X18184078Y19497745D01*
X18184078Y19497745D02*
X18520796Y19161028D01*
X18116735Y18150875D02*
X18823841Y18857982D01*
X18823841Y18857982D02*
X18992200Y18689623D01*
X18992200Y18689623D02*
X19059544Y18554936D01*
X19059544Y18554936D02*
X19059544Y18420249D01*
X19059544Y18420249D02*
X19025872Y18319234D01*
X19025872Y18319234D02*
X18924857Y18150875D01*
X18924857Y18150875D02*
X18823841Y18049860D01*
X18823841Y18049860D02*
X18655483Y17948845D01*
X18655483Y17948845D02*
X18554467Y17915173D01*
X18554467Y17915173D02*
X18419780Y17915173D01*
X18419780Y17915173D02*
X18285093Y17982516D01*
X18285093Y17982516D02*
X18116735Y18150875D01*
X19429933Y18117203D02*
X19497276Y18117203D01*
X19497276Y18117203D02*
X19598292Y18083532D01*
X19598292Y18083532D02*
X19766651Y17915173D01*
X19766651Y17915173D02*
X19800322Y17814158D01*
X19800322Y17814158D02*
X19800322Y17746814D01*
X19800322Y17746814D02*
X19766651Y17645799D01*
X19766651Y17645799D02*
X19699307Y17578455D01*
X19699307Y17578455D02*
X19564620Y17511112D01*
X19564620Y17511112D02*
X18756498Y17511112D01*
X18756498Y17511112D02*
X19194231Y17073379D01*
X18268977Y14515426D02*
X18639366Y14885815D01*
X18639366Y14885815D02*
X18673038Y14986830D01*
X18673038Y14986830D02*
X18639366Y15087845D01*
X18639366Y15087845D02*
X18504679Y15222532D01*
X18504679Y15222532D02*
X18403664Y15256204D01*
X18302649Y14549097D02*
X18201633Y14582769D01*
X18201633Y14582769D02*
X18033275Y14751128D01*
X18033275Y14751128D02*
X17999603Y14852143D01*
X17999603Y14852143D02*
X18033275Y14953158D01*
X18033275Y14953158D02*
X18100618Y15020502D01*
X18100618Y15020502D02*
X18201633Y15054174D01*
X18201633Y15054174D02*
X18302649Y15020502D01*
X18302649Y15020502D02*
X18471007Y14852143D01*
X18471007Y14852143D02*
X18572023Y14818471D01*
X19077099Y14650113D02*
X18605695Y14178708D01*
X19009756Y14582769D02*
X19077099Y14582769D01*
X19077099Y14582769D02*
X19178114Y14549097D01*
X19178114Y14549097D02*
X19279130Y14448082D01*
X19279130Y14448082D02*
X19312801Y14347067D01*
X19312801Y14347067D02*
X19279130Y14246052D01*
X19279130Y14246052D02*
X18908740Y13875662D01*
X13273706Y19578040D02*
X13172690Y19611712D01*
X13172690Y19611712D02*
X13038003Y19746399D01*
X13038003Y19746399D02*
X13004332Y19847414D01*
X13004332Y19847414D02*
X13004332Y19914758D01*
X13004332Y19914758D02*
X13038003Y20015773D01*
X13038003Y20015773D02*
X13240034Y20217804D01*
X13240034Y20217804D02*
X13341049Y20251475D01*
X13341049Y20251475D02*
X13408393Y20251475D01*
X13408393Y20251475D02*
X13509408Y20217804D01*
X13509408Y20217804D02*
X13644095Y20083117D01*
X13644095Y20083117D02*
X13677767Y19982101D01*
X13846126Y18938277D02*
X14216515Y19308666D01*
X14216515Y19308666D02*
X14250187Y19409682D01*
X14250187Y19409682D02*
X14216515Y19510697D01*
X14216515Y19510697D02*
X14081828Y19645384D01*
X14081828Y19645384D02*
X13980813Y19679056D01*
X13879797Y18971949D02*
X13778782Y19005621D01*
X13778782Y19005621D02*
X13610423Y19173979D01*
X13610423Y19173979D02*
X13576752Y19274995D01*
X13576752Y19274995D02*
X13610423Y19376010D01*
X13610423Y19376010D02*
X13677767Y19443353D01*
X13677767Y19443353D02*
X13778782Y19477025D01*
X13778782Y19477025D02*
X13879797Y19443353D01*
X13879797Y19443353D02*
X14048156Y19274995D01*
X14048156Y19274995D02*
X14149171Y19241323D01*
X14553232Y19173979D02*
X14822606Y18904605D01*
X14889950Y19308666D02*
X14283858Y18702575D01*
X14283858Y18702575D02*
X14250187Y18601559D01*
X14250187Y18601559D02*
X14283858Y18500544D01*
X14283858Y18500544D02*
X14351202Y18433201D01*
%TO.C,C9*%
X-2904419Y-17311666D02*
X-2856800Y-17359285D01*
X-2856800Y-17359285D02*
X-2809180Y-17502142D01*
X-2809180Y-17502142D02*
X-2809180Y-17597380D01*
X-2809180Y-17597380D02*
X-2856800Y-17740237D01*
X-2856800Y-17740237D02*
X-2952038Y-17835475D01*
X-2952038Y-17835475D02*
X-3047276Y-17883094D01*
X-3047276Y-17883094D02*
X-3237752Y-17930713D01*
X-3237752Y-17930713D02*
X-3380609Y-17930713D01*
X-3380609Y-17930713D02*
X-3571085Y-17883094D01*
X-3571085Y-17883094D02*
X-3666323Y-17835475D01*
X-3666323Y-17835475D02*
X-3761561Y-17740237D01*
X-3761561Y-17740237D02*
X-3809180Y-17597380D01*
X-3809180Y-17597380D02*
X-3809180Y-17502142D01*
X-3809180Y-17502142D02*
X-3761561Y-17359285D01*
X-3761561Y-17359285D02*
X-3713942Y-17311666D01*
X-2809180Y-16835475D02*
X-2809180Y-16644999D01*
X-2809180Y-16644999D02*
X-2856800Y-16549761D01*
X-2856800Y-16549761D02*
X-2904419Y-16502142D01*
X-2904419Y-16502142D02*
X-3047276Y-16406904D01*
X-3047276Y-16406904D02*
X-3237752Y-16359285D01*
X-3237752Y-16359285D02*
X-3618704Y-16359285D01*
X-3618704Y-16359285D02*
X-3713942Y-16406904D01*
X-3713942Y-16406904D02*
X-3761561Y-16454523D01*
X-3761561Y-16454523D02*
X-3809180Y-16549761D01*
X-3809180Y-16549761D02*
X-3809180Y-16740237D01*
X-3809180Y-16740237D02*
X-3761561Y-16835475D01*
X-3761561Y-16835475D02*
X-3713942Y-16883094D01*
X-3713942Y-16883094D02*
X-3618704Y-16930713D01*
X-3618704Y-16930713D02*
X-3380609Y-16930713D01*
X-3380609Y-16930713D02*
X-3285371Y-16883094D01*
X-3285371Y-16883094D02*
X-3237752Y-16835475D01*
X-3237752Y-16835475D02*
X-3190133Y-16740237D01*
X-3190133Y-16740237D02*
X-3190133Y-16549761D01*
X-3190133Y-16549761D02*
X-3237752Y-16454523D01*
X-3237752Y-16454523D02*
X-3285371Y-16406904D01*
X-3285371Y-16406904D02*
X-3380609Y-16359285D01*
%TO.C,C10*%
X-4174419Y-18267857D02*
X-4126800Y-18315476D01*
X-4126800Y-18315476D02*
X-4079180Y-18458333D01*
X-4079180Y-18458333D02*
X-4079180Y-18553571D01*
X-4079180Y-18553571D02*
X-4126800Y-18696428D01*
X-4126800Y-18696428D02*
X-4222038Y-18791666D01*
X-4222038Y-18791666D02*
X-4317276Y-18839285D01*
X-4317276Y-18839285D02*
X-4507752Y-18886904D01*
X-4507752Y-18886904D02*
X-4650609Y-18886904D01*
X-4650609Y-18886904D02*
X-4841085Y-18839285D01*
X-4841085Y-18839285D02*
X-4936323Y-18791666D01*
X-4936323Y-18791666D02*
X-5031561Y-18696428D01*
X-5031561Y-18696428D02*
X-5079180Y-18553571D01*
X-5079180Y-18553571D02*
X-5079180Y-18458333D01*
X-5079180Y-18458333D02*
X-5031561Y-18315476D01*
X-5031561Y-18315476D02*
X-4983942Y-18267857D01*
X-4079180Y-17315476D02*
X-4079180Y-17886904D01*
X-4079180Y-17601190D02*
X-5079180Y-17601190D01*
X-5079180Y-17601190D02*
X-4936323Y-17696428D01*
X-4936323Y-17696428D02*
X-4841085Y-17791666D01*
X-4841085Y-17791666D02*
X-4793466Y-17886904D01*
X-5079180Y-16696428D02*
X-5079180Y-16601190D01*
X-5079180Y-16601190D02*
X-5031561Y-16505952D01*
X-5031561Y-16505952D02*
X-4983942Y-16458333D01*
X-4983942Y-16458333D02*
X-4888704Y-16410714D01*
X-4888704Y-16410714D02*
X-4698228Y-16363095D01*
X-4698228Y-16363095D02*
X-4460133Y-16363095D01*
X-4460133Y-16363095D02*
X-4269657Y-16410714D01*
X-4269657Y-16410714D02*
X-4174419Y-16458333D01*
X-4174419Y-16458333D02*
X-4126800Y-16505952D01*
X-4126800Y-16505952D02*
X-4079180Y-16601190D01*
X-4079180Y-16601190D02*
X-4079180Y-16696428D01*
X-4079180Y-16696428D02*
X-4126800Y-16791666D01*
X-4126800Y-16791666D02*
X-4174419Y-16839285D01*
X-4174419Y-16839285D02*
X-4269657Y-16886904D01*
X-4269657Y-16886904D02*
X-4460133Y-16934523D01*
X-4460133Y-16934523D02*
X-4698228Y-16934523D01*
X-4698228Y-16934523D02*
X-4888704Y-16886904D01*
X-4888704Y-16886904D02*
X-4983942Y-16839285D01*
X-4983942Y-16839285D02*
X-5031561Y-16791666D01*
X-5031561Y-16791666D02*
X-5079180Y-16696428D01*
%TO.C,R13*%
X5534819Y-16225857D02*
X5058628Y-16559190D01*
X5534819Y-16797285D02*
X4534819Y-16797285D01*
X4534819Y-16797285D02*
X4534819Y-16416333D01*
X4534819Y-16416333D02*
X4582438Y-16321095D01*
X4582438Y-16321095D02*
X4630057Y-16273476D01*
X4630057Y-16273476D02*
X4725295Y-16225857D01*
X4725295Y-16225857D02*
X4868152Y-16225857D01*
X4868152Y-16225857D02*
X4963390Y-16273476D01*
X4963390Y-16273476D02*
X5011009Y-16321095D01*
X5011009Y-16321095D02*
X5058628Y-16416333D01*
X5058628Y-16416333D02*
X5058628Y-16797285D01*
X5534819Y-15273476D02*
X5534819Y-15844904D01*
X5534819Y-15559190D02*
X4534819Y-15559190D01*
X4534819Y-15559190D02*
X4677676Y-15654428D01*
X4677676Y-15654428D02*
X4772914Y-15749666D01*
X4772914Y-15749666D02*
X4820533Y-15844904D01*
X4534819Y-14940142D02*
X4534819Y-14321095D01*
X4534819Y-14321095D02*
X4915771Y-14654428D01*
X4915771Y-14654428D02*
X4915771Y-14511571D01*
X4915771Y-14511571D02*
X4963390Y-14416333D01*
X4963390Y-14416333D02*
X5011009Y-14368714D01*
X5011009Y-14368714D02*
X5106247Y-14321095D01*
X5106247Y-14321095D02*
X5344342Y-14321095D01*
X5344342Y-14321095D02*
X5439580Y-14368714D01*
X5439580Y-14368714D02*
X5487200Y-14416333D01*
X5487200Y-14416333D02*
X5534819Y-14511571D01*
X5534819Y-14511571D02*
X5534819Y-14797285D01*
X5534819Y-14797285D02*
X5487200Y-14892523D01*
X5487200Y-14892523D02*
X5439580Y-14940142D01*
%TO.C,U5*%
X-761904Y-12154819D02*
X-761904Y-12964342D01*
X-761904Y-12964342D02*
X-714285Y-13059580D01*
X-714285Y-13059580D02*
X-666666Y-13107200D01*
X-666666Y-13107200D02*
X-571428Y-13154819D01*
X-571428Y-13154819D02*
X-380952Y-13154819D01*
X-380952Y-13154819D02*
X-285714Y-13107200D01*
X-285714Y-13107200D02*
X-238095Y-13059580D01*
X-238095Y-13059580D02*
X-190476Y-12964342D01*
X-190476Y-12964342D02*
X-190476Y-12154819D01*
X761904Y-12154819D02*
X285714Y-12154819D01*
X285714Y-12154819D02*
X238095Y-12631009D01*
X238095Y-12631009D02*
X285714Y-12583390D01*
X285714Y-12583390D02*
X380952Y-12535771D01*
X380952Y-12535771D02*
X619047Y-12535771D01*
X619047Y-12535771D02*
X714285Y-12583390D01*
X714285Y-12583390D02*
X761904Y-12631009D01*
X761904Y-12631009D02*
X809523Y-12726247D01*
X809523Y-12726247D02*
X809523Y-12964342D01*
X809523Y-12964342D02*
X761904Y-13059580D01*
X761904Y-13059580D02*
X714285Y-13107200D01*
X714285Y-13107200D02*
X619047Y-13154819D01*
X619047Y-13154819D02*
X380952Y-13154819D01*
X380952Y-13154819D02*
X285714Y-13107200D01*
X285714Y-13107200D02*
X238095Y-13059580D01*
X-2485000Y-13894819D02*
X-2485000Y-14132914D01*
X-2723095Y-14037676D02*
X-2485000Y-14132914D01*
X-2485000Y-14132914D02*
X-2246905Y-14037676D01*
X-2627857Y-14323390D02*
X-2485000Y-14132914D01*
X-2485000Y-14132914D02*
X-2342143Y-14323390D01*
X-2485000Y-13894819D02*
X-2485000Y-14132914D01*
X-2723095Y-14037676D02*
X-2485000Y-14132914D01*
X-2485000Y-14132914D02*
X-2246905Y-14037676D01*
X-2627857Y-14323390D02*
X-2485000Y-14132914D01*
X-2485000Y-14132914D02*
X-2342143Y-14323390D01*
%TO.C,LED1*%
D11*
X9096627Y17455221D02*
G75*
G03*
X9096627Y17455221I-380000J0D01*
G01*
D12*
X4392149Y25465052D02*
G75*
G03*
X4392149Y25465052I-300000J0D01*
G01*
D11*
X3439773Y27253179D02*
G75*
G03*
X3439773Y27253179I-380000J0D01*
G01*
D13*
X7325041Y19865518D02*
X8376882Y23791041D01*
X8376882Y23791041D02*
X4451359Y24842882D01*
X3399518Y20917359D02*
X7325041Y19865518D01*
X4451359Y24842882D02*
X3399518Y20917359D01*
%TO.C,LED12*%
D11*
X-8465827Y-17179421D02*
G75*
G03*
X-8465827Y-17179421I-380000J0D01*
G01*
D12*
X-3921349Y-25189252D02*
G75*
G03*
X-3921349Y-25189252I-300000J0D01*
G01*
D11*
X-2808973Y-26977379D02*
G75*
G03*
X-2808973Y-26977379I-380000J0D01*
G01*
D13*
X-7454241Y-19589718D02*
X-8506082Y-23515241D01*
X-8506082Y-23515241D02*
X-4580559Y-24567082D01*
X-3528718Y-20641559D02*
X-7454241Y-19589718D01*
X-4580559Y-24567082D02*
X-3528718Y-20641559D01*
%TO.C,LED10*%
D14*
X-19072473Y-915921D02*
G75*
G03*
X-19072473Y-915921I-380000J0D01*
G01*
D12*
X-23776951Y-8925752D02*
G75*
G03*
X-23776951Y-8925752I-300000J0D01*
G01*
D11*
X-24729327Y-10713879D02*
G75*
G03*
X-24729327Y-10713879I-380000J0D01*
G01*
D13*
X-20844059Y-3326218D02*
X-24769582Y-4378059D01*
X-24769582Y-4378059D02*
X-23717741Y-8303582D01*
X-19792218Y-7251741D02*
X-20844059Y-3326218D01*
X-23717741Y-8303582D02*
X-19792218Y-7251741D01*
%TO.C,LED8*%
D11*
X-21604954Y16401400D02*
G75*
G03*
X-21604954Y16401400I-380000J0D01*
G01*
D12*
X-12435998Y16401400D02*
G75*
G03*
X-12435998Y16401400I-300000J0D01*
G01*
D11*
X-10291246Y16401400D02*
G75*
G03*
X-10291246Y16401400I-380000J0D01*
G01*
D13*
X-19201782Y16401400D02*
X-16328100Y13527718D01*
X-16328100Y13527718D02*
X-13454418Y16401400D01*
X-16328100Y19275082D02*
X-19201782Y16401400D01*
X-13454418Y16401400D02*
X-16328100Y19275082D01*
%TO.C,LED3*%
D14*
X19703273Y1191821D02*
G75*
G03*
X19703273Y1191821I-380000J0D01*
G01*
D12*
X24247751Y9201652D02*
G75*
G03*
X24247751Y9201652I-300000J0D01*
G01*
D11*
X25360127Y10989779D02*
G75*
G03*
X25360127Y10989779I-380000J0D01*
G01*
D13*
X20714859Y3602118D02*
X24640382Y4653959D01*
X24640382Y4653959D02*
X23588541Y8579482D01*
X19663018Y7527641D02*
X20714859Y3602118D01*
X23588541Y8579482D02*
X19663018Y7527641D01*
%TO.C,LED6*%
D14*
X11167179Y-24906827D02*
G75*
G03*
X11167179Y-24906827I-380000J0D01*
G01*
D12*
X3077348Y-20282349D02*
G75*
G03*
X3077348Y-20282349I-300000J0D01*
G01*
D11*
X1369221Y-19249973D02*
G75*
G03*
X1369221Y-19249973I-380000J0D01*
G01*
D13*
X8376882Y-23515241D02*
X7325041Y-19589718D01*
X7325041Y-19589718D02*
X3399518Y-20641559D01*
X4451359Y-24567082D02*
X8376882Y-23515241D01*
X3399518Y-20641559D02*
X4451359Y-24567082D01*
%TO.C,LED9*%
D11*
X-26799879Y3262373D02*
G75*
G03*
X-26799879Y3262373I-380000J0D01*
G01*
D12*
X-18870048Y7886851D02*
G75*
G03*
X-18870048Y7886851I-300000J0D01*
G01*
D11*
X-17001921Y8919227D02*
G75*
G03*
X-17001921Y8919227I-380000J0D01*
G01*
D13*
X-24769582Y4653959D02*
X-20844059Y3602118D01*
X-20844059Y3602118D02*
X-19792218Y7527641D01*
X-23717741Y8579482D02*
X-24769582Y4653959D01*
X-19792218Y7527641D02*
X-23717741Y8579482D01*
%TO.C,LED5*%
D11*
X22235754Y-16125500D02*
G75*
G03*
X22235754Y-16125500I-380000J0D01*
G01*
D12*
X12906798Y-16125500D02*
G75*
G03*
X12906798Y-16125500I-300000J0D01*
G01*
D11*
X10922046Y-16125500D02*
G75*
G03*
X10922046Y-16125500I-380000J0D01*
G01*
D13*
X19072582Y-16125500D02*
X16198900Y-13251818D01*
X16198900Y-13251818D02*
X13325218Y-16125500D01*
X16198900Y-18999182D02*
X19072582Y-16125500D01*
X13325218Y-16125500D02*
X16198900Y-18999182D01*
%TO.C,LED4*%
D11*
X27430679Y-2986473D02*
G75*
G03*
X27430679Y-2986473I-380000J0D01*
G01*
D12*
X19340848Y-7610951D02*
G75*
G03*
X19340848Y-7610951I-300000J0D01*
G01*
D11*
X17632721Y-8643327D02*
G75*
G03*
X17632721Y-8643327I-380000J0D01*
G01*
D13*
X24640382Y-4378059D02*
X20714859Y-3326218D01*
X20714859Y-3326218D02*
X19663018Y-7251741D01*
X23588541Y-8303582D02*
X24640382Y-4378059D01*
X19663018Y-7251741D02*
X23588541Y-8303582D01*
%TO.C,LED7*%
D14*
X-10536379Y25182627D02*
G75*
G03*
X-10536379Y25182627I-380000J0D01*
G01*
D12*
X-2606548Y20558149D02*
G75*
G03*
X-2606548Y20558149I-300000J0D01*
G01*
D11*
X-738421Y19525773D02*
G75*
G03*
X-738421Y19525773I-380000J0D01*
G01*
D13*
X-8506082Y23791041D02*
X-7454241Y19865518D01*
X-7454241Y19865518D02*
X-3528718Y20917359D01*
X-4580559Y24842882D02*
X-8506082Y23791041D01*
X-3528718Y20917359D02*
X-4580559Y24842882D01*
%TO.C,LED11*%
D11*
X-15948000Y-10468646D02*
G75*
G03*
X-15948000Y-10468646I-380000J0D01*
G01*
D12*
X-16028000Y-19717602D02*
G75*
G03*
X-16028000Y-19717602I-300000J0D01*
G01*
D11*
X-15948000Y-21782354D02*
G75*
G03*
X-15948000Y-21782354I-380000J0D01*
G01*
D13*
X-16328000Y-13251818D02*
X-19201682Y-16125500D01*
X-19201682Y-16125500D02*
X-16328000Y-18999182D01*
X-13454318Y-16125500D02*
X-16328000Y-13251818D01*
X-16328000Y-18999182D02*
X-13454318Y-16125500D01*
%TO.C,LED2*%
D11*
X16578900Y10744546D02*
G75*
G03*
X16578900Y10744546I-380000J0D01*
G01*
D12*
X16498900Y19993502D02*
G75*
G03*
X16498900Y19993502I-300000J0D01*
G01*
D11*
X16578900Y22058254D02*
G75*
G03*
X16578900Y22058254I-380000J0D01*
G01*
D13*
X16198900Y13527718D02*
X19072582Y16401400D01*
X19072582Y16401400D02*
X16198900Y19275082D01*
X13325218Y16401400D02*
X16198900Y13527718D01*
X16198900Y19275082D02*
X13325218Y16401400D01*
%TO.C,C9*%
X-3031000Y-15347836D02*
X-3031000Y-15132164D01*
X-3751000Y-15347836D02*
X-3751000Y-15132164D01*
%TO.C,C10*%
X-4047000Y-15319836D02*
X-4047000Y-15104164D01*
X-4767000Y-15319836D02*
X-4767000Y-15104164D01*
%TO.C,R13*%
X3809000Y-14885641D02*
X3809000Y-14578359D01*
X3049000Y-14885641D02*
X3049000Y-14578359D01*
%TO.C,U5*%
G36*
X990501Y-13936000D02*
G01*
X609501Y-13936000D01*
X609501Y-13682000D01*
X990501Y-13682000D01*
X990501Y-13936000D01*
G37*
D15*
X2349500Y-16586200D02*
X2349500Y-13893800D01*
X2349500Y-13893800D02*
X2001598Y-13893800D01*
X2001598Y-16586200D02*
X2349500Y-16586200D01*
X-2001598Y-13893800D02*
X-2349500Y-13893800D01*
X-2349500Y-16586200D02*
X-2001598Y-16586200D01*
X-2349500Y-13893800D02*
X-2349500Y-16586200D01*
D16*
%TO.C,J1*%
X19263900Y1866900D02*
G75*
G03*
X19263900Y1866900I-381000J0D01*
G01*
%TO.C,J2*%
X-12736100Y1866900D02*
G75*
G03*
X-12736100Y1866900I-381000J0D01*
G01*
%TD*%
M02*
