%TF.GenerationSoftware,KiCad,Pcbnew,7.0.5*%
%TF.CreationDate,2023-06-26T09:37:40-04:00*%
%TF.ProjectId,ESP32Sensor-Sensor_board,45535033-3253-4656-9e73-6f722d53656e,rev?*%
%TF.SameCoordinates,Original*%
%TF.FileFunction,Copper,L3,Inr*%
%TF.FilePolarity,Positive*%
%FSLAX46Y46*%
G04 Gerber Fmt 4.6, Leading zero omitted, Abs format (unit mm)*
G04 Created by KiCad (PCBNEW 7.0.5) date 2023-06-26 09:37:40*
%MOMM*%
%LPD*%
G01*
G04 APERTURE LIST*
%TA.AperFunction,ComponentPad*%
%ADD10O,1.600000X1.000000*%
%TD*%
%TA.AperFunction,ComponentPad*%
%ADD11C,0.700000*%
%TD*%
%TA.AperFunction,ComponentPad*%
%ADD12C,1.270000*%
%TD*%
%TA.AperFunction,ComponentPad*%
%ADD13C,1.524000*%
%TD*%
%TA.AperFunction,ViaPad*%
%ADD14C,0.700000*%
%TD*%
%TA.AperFunction,Conductor*%
%ADD15C,0.254000*%
%TD*%
%TA.AperFunction,Conductor*%
%ADD16C,0.200000*%
%TD*%
%TA.AperFunction,Conductor*%
%ADD17C,0.127000*%
%TD*%
G04 APERTURE END LIST*
D10*
%TO.N,N/C*%
%TO.C,J2*%
X10306000Y-52218000D03*
X16256000Y-52578000D03*
X16256000Y-43598000D03*
%TD*%
D11*
%TO.N,GND*%
%TO.C,U5*%
X4827500Y-45790000D03*
X4827500Y-46890000D03*
%TD*%
D12*
%TO.N,GND*%
%TO.C,J5*%
X-10160000Y-57785000D03*
%TO.N,3.3V*%
X-7620000Y-57785000D03*
%TO.N,SCL*%
X-5080000Y-57785000D03*
%TO.N,SDA*%
X-2540000Y-57785000D03*
%TD*%
D13*
%TO.N,Net-(PD1-An)*%
%TO.C,PD1*%
X3810000Y-8890000D03*
%TO.N,The_better_5V*%
X-3746500Y-8890000D03*
X0Y-8890000D03*
%TD*%
D12*
%TO.N,GND*%
%TO.C,J6*%
X2540000Y-57785000D03*
%TO.N,GPIO1*%
X5080000Y-57785000D03*
%TO.N,GPIO2*%
X7620000Y-57785000D03*
%TO.N,GPIO3*%
X10160000Y-57785000D03*
%TD*%
D11*
%TO.N,Sensor_GND*%
%TO.C,U12*%
X6350000Y-37550000D03*
X6350000Y-38650000D03*
%TD*%
D14*
%TO.N,3.3V*%
X0Y-44450000D03*
X-3810000Y-35052000D03*
X11430000Y-42545000D03*
X7366000Y-42164000D03*
X-11430000Y-53086000D03*
X-8890000Y-48260000D03*
%TO.N,GND*%
X8128000Y-51816000D03*
X-14732000Y-10922000D03*
X16510000Y-30988000D03*
X11430000Y-13970000D03*
X11938000Y-38354000D03*
X14986000Y-13970000D03*
X-9144000Y-15240000D03*
X14986000Y-15494000D03*
X10160000Y-44958000D03*
X-2540000Y-31496000D03*
X-12192000Y-23368000D03*
X4826000Y-51562000D03*
X6858000Y-6604000D03*
X-7620000Y-6604000D03*
X10414000Y-37592000D03*
%TO.N,CC1*%
X7493000Y-48768000D03*
X13335000Y-41783000D03*
%TO.N,D+*%
X9271000Y-48006000D03*
X5080000Y-43434000D03*
%TO.N,D-*%
X9271000Y-48895000D03*
X7493000Y-47752000D03*
X5080000Y-42164000D03*
%TO.N,CC2*%
X9271000Y-47117000D03*
X16637000Y-41783000D03*
%TO.N,GPIO9*%
X-889000Y-55753000D03*
X-13208000Y-30734000D03*
X381000Y-33401000D03*
%TO.N,ESP_EN*%
X762000Y-32131000D03*
X-12192000Y-30734000D03*
X-9906000Y-53086000D03*
X-127000Y-51562000D03*
%TO.N,INT*%
X15113000Y-37338000D03*
X1778000Y-37592000D03*
X18288000Y-5080000D03*
%TO.N,SCL*%
X17893700Y-9144000D03*
X-8382000Y-53086000D03*
X13970000Y-37338000D03*
X1778000Y-36195000D03*
%TO.N,SDA*%
X14986000Y-9144000D03*
X-6858000Y-53086000D03*
X16256000Y-34798000D03*
X1778000Y-35306000D03*
X12954000Y-37338000D03*
%TO.N,LED_REF*%
X-12065000Y-12827000D03*
X-12065000Y-10668000D03*
X762000Y-46990000D03*
X9144000Y-23368000D03*
X7112000Y-22860000D03*
X1524000Y-23114000D03*
%TO.N,ESP_LED_REF_INV*%
X-10414000Y-6858000D03*
X-10160000Y-12827000D03*
%TO.N,5V*%
X3302000Y-36068000D03*
X-5334000Y-10922000D03*
%TO.N,Sensor_Analog*%
X7874000Y-14224000D03*
X3048000Y-32258000D03*
X12446000Y-17907000D03*
X3162085Y-35042772D03*
X7874000Y-19304000D03*
%TO.N,Net-(U9-OUT)*%
X5588000Y-14986000D03*
X4826000Y-16383000D03*
%TO.N,+Vs_For_Lock_in*%
X5334000Y-22733000D03*
X9906000Y-27813000D03*
%TO.N,-Vs_For_Lock_in*%
X6858000Y-14224000D03*
X-1016000Y-16002000D03*
X-14605000Y-16764000D03*
X6858000Y-16637000D03*
%TO.N,The_better_5V*%
X4064000Y-32512000D03*
X-2794000Y-10922000D03*
%TO.N,The_better_GND*%
X4064000Y-35814000D03*
X7874000Y-13208000D03*
X6096000Y-33020000D03*
%TO.N,ESP_ADC*%
X17653000Y-36449000D03*
X-4572000Y-39624000D03*
%TO.N,Sensor_First_stage*%
X2032000Y-28956000D03*
X-1651000Y-19685000D03*
%TO.N,Net-(U8-SEL_B)*%
X10922000Y-30226000D03*
X8509000Y-27305000D03*
%TO.N,GPIO1*%
X-9906000Y-39624000D03*
%TO.N,GPIO2*%
X-8890000Y-39624000D03*
%TO.N,GPIO3*%
X-7874000Y-39624000D03*
%TO.N,ESP_PWM_DIM*%
X-15494000Y-35052000D03*
X-3810000Y-53086000D03*
%TO.N,VBUS*%
X-17018000Y-17907000D03*
X-1016000Y-24130000D03*
X7620000Y-44450000D03*
X17780000Y-41656000D03*
X17526000Y-38354000D03*
%TO.N,Sensor_GND*%
X-12700000Y-19050000D03*
X12700000Y-23368000D03*
X11430000Y-27178000D03*
X12446000Y-16510000D03*
X-6096000Y-19050000D03*
X3302000Y-38354000D03*
X-12192000Y-24638000D03*
X1016000Y-13208000D03*
X-8890000Y-7874000D03*
X-7366000Y-13716000D03*
X-14732000Y-26924000D03*
X11176000Y-23876000D03*
X4572000Y-24384000D03*
X7112000Y-36068000D03*
X16002000Y-21082000D03*
X-2540000Y-23876000D03*
X1016000Y-15494000D03*
X10922000Y-15240000D03*
X-3048000Y-15240000D03*
X7874000Y-32766000D03*
%TO.N,-VBUS*%
X-16002000Y-17907000D03*
X-12065000Y-26035000D03*
%TD*%
D15*
%TO.N,3.3V*%
X-1016000Y-35052000D02*
X-3810000Y-35052000D01*
X762000Y-43688000D02*
X762000Y-36830000D01*
X0Y-44450000D02*
X762000Y-43688000D01*
X762000Y-36830000D02*
X-1016000Y-35052000D01*
D16*
%TO.N,D+*%
X5080000Y-43434000D02*
X5080000Y-43815000D01*
X5080000Y-43815000D02*
X9271000Y-48006000D01*
%TO.N,D-*%
X5080000Y-42672000D02*
X4826000Y-42926000D01*
X4572000Y-42926000D02*
X4318000Y-43180000D01*
X7493000Y-46863000D02*
X7493000Y-47752000D01*
X4318000Y-43688000D02*
X7493000Y-46863000D01*
X4318000Y-43180000D02*
X4318000Y-43688000D01*
X4826000Y-42926000D02*
X4572000Y-42926000D01*
X5080000Y-42164000D02*
X5080000Y-42672000D01*
D17*
%TO.N,INT*%
X14351000Y-38100000D02*
X15113000Y-37338000D01*
X12700000Y-38100000D02*
X14351000Y-38100000D01*
X12192000Y-37592000D02*
X12700000Y-38100000D01*
X18288000Y-34163000D02*
X15113000Y-37338000D01*
X12192000Y-36830000D02*
X12192000Y-37592000D01*
X5080000Y-36830000D02*
X6848755Y-35061245D01*
X4572000Y-36830000D02*
X5080000Y-36830000D01*
X1778000Y-37592000D02*
X3810000Y-37592000D01*
X6848755Y-35061245D02*
X10423245Y-35061245D01*
X18542000Y-5334000D02*
X18542000Y-9398000D01*
X18542000Y-9398000D02*
X18288000Y-9652000D01*
X10423245Y-35061245D02*
X12192000Y-36830000D01*
X18288000Y-5080000D02*
X18542000Y-5334000D01*
X18288000Y-9652000D02*
X18288000Y-34163000D01*
X3810000Y-37592000D02*
X4572000Y-36830000D01*
%TO.N,SCL*%
X17893700Y-9144000D02*
X17893700Y-33922300D01*
X2286000Y-37084000D02*
X1778000Y-36576000D01*
X4318000Y-36576000D02*
X3810000Y-37084000D01*
X17893700Y-33922300D02*
X15748000Y-36068000D01*
X1778000Y-36576000D02*
X1778000Y-36195000D01*
X6604000Y-34798000D02*
X4826000Y-36576000D01*
X13970000Y-37338000D02*
X13970000Y-36068000D01*
X4826000Y-36576000D02*
X4318000Y-36576000D01*
X15748000Y-36068000D02*
X13970000Y-36068000D01*
X11938000Y-36068000D02*
X10668000Y-34798000D01*
X13970000Y-36068000D02*
X11938000Y-36068000D01*
X3810000Y-37084000D02*
X2286000Y-37084000D01*
X10668000Y-34798000D02*
X6604000Y-34798000D01*
%TO.N,SDA*%
X15494000Y-35814000D02*
X12192000Y-35814000D01*
X17526000Y-11430000D02*
X17526000Y-33782000D01*
X17526000Y-33782000D02*
X16383000Y-34925000D01*
X16256000Y-34798000D02*
X16383000Y-34925000D01*
X15240000Y-9144000D02*
X17526000Y-11430000D01*
X2794000Y-36830000D02*
X2540000Y-36576000D01*
X2540000Y-36576000D02*
X2540000Y-36068000D01*
X10922000Y-34544000D02*
X6350000Y-34544000D01*
X12192000Y-35814000D02*
X10922000Y-34544000D01*
X6350000Y-34544000D02*
X4572000Y-36322000D01*
X16383000Y-34925000D02*
X15494000Y-35814000D01*
X2540000Y-36068000D02*
X1778000Y-35306000D01*
X4572000Y-36322000D02*
X4248710Y-36322000D01*
X3740710Y-36830000D02*
X2794000Y-36830000D01*
X4248710Y-36322000D02*
X3740710Y-36830000D01*
X14986000Y-9144000D02*
X15240000Y-9144000D01*
%TO.N,LED_REF*%
X762000Y-44450000D02*
X762000Y-46990000D01*
X-13716000Y-17018000D02*
X-14224000Y-17526000D01*
X-14224000Y-17526000D02*
X-14732000Y-17526000D01*
X2540000Y-23368000D02*
X2794000Y-23114000D01*
X-12065000Y-12827000D02*
X-12065000Y-10668000D01*
X1143000Y-44069000D02*
X762000Y-44450000D01*
X2794000Y-31115000D02*
X1143000Y-32766000D01*
X-15240000Y-16002000D02*
X-12065000Y-12827000D01*
X2540000Y-23368000D02*
X1778000Y-23368000D01*
X2794000Y-23114000D02*
X2794000Y-19558000D01*
X2540000Y-23368000D02*
X2794000Y-23622000D01*
X-254000Y-16510000D02*
X-762000Y-16510000D01*
X7620000Y-23368000D02*
X9144000Y-23368000D01*
X2794000Y-19558000D02*
X-254000Y-16510000D01*
X-1270000Y-17018000D02*
X-13716000Y-17018000D01*
X1143000Y-32766000D02*
X1143000Y-44069000D01*
X-15240000Y-17018000D02*
X-15240000Y-16002000D01*
X-14732000Y-17526000D02*
X-15240000Y-17018000D01*
X-762000Y-16510000D02*
X-1270000Y-17018000D01*
X7112000Y-22860000D02*
X7620000Y-23368000D01*
X2794000Y-23622000D02*
X2794000Y-31115000D01*
X1778000Y-23368000D02*
X1524000Y-23114000D01*
%TO.N,ESP_LED_REF_INV*%
X-10160000Y-12827000D02*
X-10160000Y-7112000D01*
X-10160000Y-7112000D02*
X-10414000Y-6858000D01*
%TO.N,5V*%
X3048000Y-19304000D02*
X-5334000Y-10922000D01*
X3048000Y-31242000D02*
X3048000Y-19304000D01*
X1524000Y-32766000D02*
X3048000Y-31242000D01*
X1524000Y-34290000D02*
X1524000Y-32766000D01*
X3302000Y-36068000D02*
X1524000Y-34290000D01*
%TO.N,Sensor_Analog*%
X7874000Y-14224000D02*
X7874000Y-18288000D01*
X12065000Y-18288000D02*
X12446000Y-17907000D01*
X7874000Y-18288000D02*
X12065000Y-18288000D01*
X3048000Y-32258000D02*
X3048000Y-34928687D01*
X7874000Y-18288000D02*
X7874000Y-19304000D01*
X3048000Y-34928687D02*
X3162085Y-35042772D01*
%TO.N,Net-(U9-OUT)*%
X4826000Y-15494000D02*
X5334000Y-14986000D01*
X5334000Y-14986000D02*
X5588000Y-14986000D01*
X4826000Y-16383000D02*
X4826000Y-15494000D01*
%TO.N,+Vs_For_Lock_in*%
X5334000Y-23241000D02*
X9906000Y-27813000D01*
X5334000Y-22733000D02*
X5334000Y-23241000D01*
%TO.N,-Vs_For_Lock_in*%
X7620000Y-14986000D02*
X6858000Y-14224000D01*
X6858000Y-16637000D02*
X7239000Y-16637000D01*
X-1016000Y-16002000D02*
X-1778000Y-16764000D01*
X7239000Y-16637000D02*
X7620000Y-16256000D01*
X7620000Y-16256000D02*
X7620000Y-14986000D01*
X-1778000Y-16764000D02*
X-14605000Y-16764000D01*
%TO.N,The_better_5V*%
X3302000Y-29972000D02*
X3302000Y-19177000D01*
X-2794000Y-13081000D02*
X-2794000Y-10922000D01*
X4064000Y-32512000D02*
X4064000Y-30734000D01*
X4064000Y-30734000D02*
X3302000Y-29972000D01*
X3302000Y-19177000D02*
X-2794000Y-13081000D01*
%TO.N,The_better_GND*%
X3302000Y-16510000D02*
X6604000Y-13208000D01*
X6604000Y-13208000D02*
X7874000Y-13208000D01*
X4826000Y-33020000D02*
X4826000Y-30988000D01*
X4826000Y-30988000D02*
X3556000Y-29718000D01*
X6096000Y-33020000D02*
X4826000Y-33020000D01*
X3556000Y-29718000D02*
X3556000Y-18796000D01*
X3302000Y-18542000D02*
X3302000Y-16510000D01*
X3556000Y-18796000D02*
X3302000Y-18542000D01*
X4064000Y-35814000D02*
X4826000Y-35052000D01*
X4826000Y-35052000D02*
X4826000Y-33020000D01*
%TO.N,Sensor_First_stage*%
X2032000Y-28956000D02*
X-254000Y-28956000D01*
X-1651000Y-27559000D02*
X-1651000Y-19685000D01*
X-254000Y-28956000D02*
X-1651000Y-27559000D01*
%TO.N,Net-(U8-SEL_B)*%
X10922000Y-29718000D02*
X10922000Y-30226000D01*
X8509000Y-27305000D02*
X10922000Y-29718000D01*
%TO.N,GPIO1*%
X6223000Y-55753000D02*
X6223000Y-56642000D01*
X-9906000Y-39624000D02*
X6223000Y-55753000D01*
X6223000Y-56642000D02*
X5080000Y-57785000D01*
%TO.N,GPIO2*%
X-8890000Y-39624000D02*
X-8890000Y-40132000D01*
X7620000Y-56642000D02*
X7620000Y-57785000D01*
X-8890000Y-40132000D02*
X7620000Y-56642000D01*
%TO.N,GPIO3*%
X-7874000Y-40640000D02*
X9271000Y-57785000D01*
X9271000Y-57785000D02*
X10160000Y-57785000D01*
X-7874000Y-39624000D02*
X-7874000Y-40640000D01*
%TO.N,ESP_PWM_DIM*%
X-10668000Y-39878000D02*
X-10668000Y-35814000D01*
X-10160000Y-40386000D02*
X-10668000Y-39878000D01*
X-3810000Y-53086000D02*
X-3810000Y-46228000D01*
X-11430000Y-35052000D02*
X-15494000Y-35052000D01*
X-10668000Y-35814000D02*
X-11430000Y-35052000D01*
X-9652000Y-40386000D02*
X-10160000Y-40386000D01*
X-3810000Y-46228000D02*
X-9652000Y-40386000D01*
%TO.N,-VBUS*%
X-15875000Y-18034000D02*
X-15875000Y-22225000D01*
X-16002000Y-17907000D02*
X-15875000Y-18034000D01*
X-15875000Y-22225000D02*
X-12065000Y-26035000D01*
%TD*%
%TA.AperFunction,Conductor*%
%TO.N,GND*%
G36*
X18713908Y-34371809D02*
G01*
X18743941Y-34434894D01*
X18745500Y-34454494D01*
X18745500Y-59621500D01*
X18725815Y-59688539D01*
X18673011Y-59734294D01*
X18621500Y-59745500D01*
X-18621500Y-59745500D01*
X-18688539Y-59725815D01*
X-18734294Y-59673011D01*
X-18745500Y-59621500D01*
X-18745500Y-57000000D01*
X-17859237Y-57000000D01*
X-17840313Y-57264597D01*
X-17783925Y-57523808D01*
X-17691221Y-57772355D01*
X-17691218Y-57772359D01*
X-17691218Y-57772361D01*
X-17640704Y-57864871D01*
X-17564090Y-58005179D01*
X-17405118Y-58217541D01*
X-17217541Y-58405118D01*
X-17005179Y-58564090D01*
X-16772360Y-58691218D01*
X-16772359Y-58691218D01*
X-16772355Y-58691221D01*
X-16523808Y-58783925D01*
X-16264597Y-58840313D01*
X-16026508Y-58857341D01*
X-16000001Y-58859237D01*
X-16000000Y-58859237D01*
X-15999999Y-58859237D01*
X-15970540Y-58857130D01*
X-15735403Y-58840313D01*
X-15735399Y-58840312D01*
X-15735397Y-58840312D01*
X-15476200Y-58783927D01*
X-15476198Y-58783926D01*
X-15476192Y-58783925D01*
X-15227645Y-58691221D01*
X-15227642Y-58691219D01*
X-15227638Y-58691218D01*
X-14994826Y-58564093D01*
X-14994818Y-58564088D01*
X-14782466Y-58405124D01*
X-14782448Y-58405108D01*
X-14594891Y-58217551D01*
X-14594875Y-58217533D01*
X-14435911Y-58005181D01*
X-14435906Y-58005173D01*
X-14315682Y-57785000D01*
X-8510378Y-57785000D01*
X-8490921Y-57970120D01*
X-8433401Y-58147149D01*
X-8340331Y-58308351D01*
X-8215779Y-58446680D01*
X-8065189Y-58556090D01*
X-7952424Y-58606296D01*
X-7895147Y-58631798D01*
X-7895144Y-58631798D01*
X-7895142Y-58631800D01*
X-7713070Y-58670500D01*
X-7713069Y-58670500D01*
X-7526931Y-58670500D01*
X-7526930Y-58670500D01*
X-7344858Y-58631800D01*
X-7344852Y-58631798D01*
X-7174811Y-58556090D01*
X-7174810Y-58556089D01*
X-7024221Y-58446680D01*
X-7024218Y-58446677D01*
X-7024215Y-58446675D01*
X-6914713Y-58325059D01*
X-6899669Y-58308351D01*
X-6806599Y-58147149D01*
X-6806596Y-58147143D01*
X-6749080Y-57970124D01*
X-6749079Y-57970122D01*
X-6729622Y-57785000D01*
X-5970378Y-57785000D01*
X-5950921Y-57970120D01*
X-5893401Y-58147149D01*
X-5800331Y-58308351D01*
X-5675779Y-58446680D01*
X-5525189Y-58556090D01*
X-5412424Y-58606296D01*
X-5355147Y-58631798D01*
X-5355144Y-58631798D01*
X-5355142Y-58631800D01*
X-5173070Y-58670500D01*
X-5173069Y-58670500D01*
X-4986931Y-58670500D01*
X-4986930Y-58670500D01*
X-4804858Y-58631800D01*
X-4804852Y-58631798D01*
X-4634811Y-58556090D01*
X-4634810Y-58556089D01*
X-4484221Y-58446680D01*
X-4484218Y-58446677D01*
X-4484215Y-58446675D01*
X-4374713Y-58325059D01*
X-4359669Y-58308351D01*
X-4266599Y-58147149D01*
X-4266596Y-58147143D01*
X-4209080Y-57970124D01*
X-4209079Y-57970122D01*
X-4189622Y-57785000D01*
X-3430378Y-57785000D01*
X-3410921Y-57970120D01*
X-3353401Y-58147149D01*
X-3260331Y-58308351D01*
X-3135779Y-58446680D01*
X-2985189Y-58556090D01*
X-2872424Y-58606296D01*
X-2815147Y-58631798D01*
X-2815144Y-58631798D01*
X-2815142Y-58631800D01*
X-2633070Y-58670500D01*
X-2633069Y-58670500D01*
X-2446931Y-58670500D01*
X-2446930Y-58670500D01*
X-2264858Y-58631800D01*
X-2264852Y-58631798D01*
X-2094811Y-58556090D01*
X-2094811Y-58556089D01*
X-1944221Y-58446680D01*
X-1944218Y-58446677D01*
X-1944215Y-58446675D01*
X-1834713Y-58325059D01*
X-1819669Y-58308351D01*
X-1726599Y-58147149D01*
X-1726596Y-58147143D01*
X-1669080Y-57970124D01*
X-1669079Y-57970122D01*
X-1649622Y-57785000D01*
X-1669079Y-57599877D01*
X-1669080Y-57599875D01*
X-1726596Y-57422856D01*
X-1726599Y-57422850D01*
X-1819668Y-57261650D01*
X-1944215Y-57123324D01*
X-1944218Y-57123322D01*
X-2094811Y-57013909D01*
X-2264852Y-56938201D01*
X-2264858Y-56938199D01*
X-2415014Y-56906283D01*
X-2446930Y-56899500D01*
X-2633070Y-56899500D01*
X-2671769Y-56907725D01*
X-2815141Y-56938199D01*
X-2815147Y-56938201D01*
X-2985188Y-57013909D01*
X-2985189Y-57013910D01*
X-3135779Y-57123320D01*
X-3135780Y-57123321D01*
X-3135781Y-57123322D01*
X-3135784Y-57123324D01*
X-3211547Y-57207469D01*
X-3260331Y-57261649D01*
X-3353400Y-57422850D01*
X-3353403Y-57422856D01*
X-3375119Y-57489693D01*
X-3410921Y-57599880D01*
X-3430378Y-57785000D01*
X-4189622Y-57785000D01*
X-4209079Y-57599877D01*
X-4209080Y-57599875D01*
X-4266596Y-57422856D01*
X-4266599Y-57422850D01*
X-4359668Y-57261650D01*
X-4484215Y-57123324D01*
X-4484218Y-57123322D01*
X-4634811Y-57013909D01*
X-4804852Y-56938201D01*
X-4804858Y-56938199D01*
X-4955014Y-56906283D01*
X-4986930Y-56899500D01*
X-5173070Y-56899500D01*
X-5211769Y-56907725D01*
X-5355141Y-56938199D01*
X-5355147Y-56938201D01*
X-5525188Y-57013909D01*
X-5525189Y-57013910D01*
X-5675779Y-57123320D01*
X-5675780Y-57123321D01*
X-5675781Y-57123322D01*
X-5675784Y-57123324D01*
X-5751547Y-57207469D01*
X-5800331Y-57261649D01*
X-5893400Y-57422850D01*
X-5893403Y-57422856D01*
X-5915119Y-57489693D01*
X-5950921Y-57599880D01*
X-5970378Y-57785000D01*
X-6729622Y-57785000D01*
X-6749079Y-57599877D01*
X-6749080Y-57599875D01*
X-6806596Y-57422856D01*
X-6806599Y-57422850D01*
X-6899668Y-57261650D01*
X-7024215Y-57123324D01*
X-7024218Y-57123322D01*
X-7174811Y-57013909D01*
X-7344852Y-56938201D01*
X-7344858Y-56938199D01*
X-7495014Y-56906283D01*
X-7526930Y-56899500D01*
X-7713070Y-56899500D01*
X-7751769Y-56907725D01*
X-7895141Y-56938199D01*
X-7895147Y-56938201D01*
X-8065188Y-57013909D01*
X-8065189Y-57013910D01*
X-8215779Y-57123320D01*
X-8215780Y-57123321D01*
X-8215781Y-57123322D01*
X-8215784Y-57123324D01*
X-8291547Y-57207469D01*
X-8340331Y-57261649D01*
X-8433400Y-57422850D01*
X-8433403Y-57422856D01*
X-8455119Y-57489693D01*
X-8490921Y-57599880D01*
X-8510378Y-57785000D01*
X-14315682Y-57785000D01*
X-14308781Y-57772361D01*
X-14216072Y-57523799D01*
X-14159687Y-57264602D01*
X-14140763Y-57000001D01*
X-14140763Y-56999998D01*
X-14159687Y-56735397D01*
X-14216072Y-56476200D01*
X-14308781Y-56227638D01*
X-14435906Y-55994826D01*
X-14435911Y-55994818D01*
X-14594875Y-55782466D01*
X-14594891Y-55782448D01*
X-14624339Y-55753000D01*
X-1494682Y-55753000D01*
X-1474044Y-55909762D01*
X-1413536Y-56055841D01*
X-1317282Y-56181282D01*
X-1191841Y-56277536D01*
X-1045762Y-56338044D01*
X-941254Y-56351802D01*
X-889001Y-56358682D01*
X-889000Y-56358682D01*
X-888999Y-56358682D01*
X-810619Y-56348363D01*
X-732238Y-56338044D01*
X-586159Y-56277536D01*
X-460718Y-56181282D01*
X-364464Y-56055841D01*
X-342602Y-56003063D01*
X-303956Y-55909762D01*
X-303955Y-55909760D01*
X-283318Y-55753001D01*
X-283318Y-55752998D01*
X-303955Y-55596239D01*
X-303956Y-55596237D01*
X-364463Y-55450160D01*
X-460718Y-55324718D01*
X-586160Y-55228463D01*
X-732237Y-55167956D01*
X-732239Y-55167955D01*
X-888999Y-55147318D01*
X-889001Y-55147318D01*
X-1045760Y-55167955D01*
X-1045762Y-55167956D01*
X-1161931Y-55216075D01*
X-1191841Y-55228464D01*
X-1317282Y-55324718D01*
X-1413536Y-55450159D01*
X-1474044Y-55596238D01*
X-1494682Y-55753000D01*
X-14624339Y-55753000D01*
X-14782448Y-55594891D01*
X-14782466Y-55594875D01*
X-14994818Y-55435911D01*
X-14994826Y-55435906D01*
X-15227639Y-55308781D01*
X-15227638Y-55308781D01*
X-15476200Y-55216072D01*
X-15735397Y-55159687D01*
X-15999999Y-55140763D01*
X-16000001Y-55140763D01*
X-16264602Y-55159687D01*
X-16523799Y-55216072D01*
X-16523805Y-55216074D01*
X-16523808Y-55216075D01*
X-16672936Y-55271697D01*
X-16772361Y-55308781D01*
X-17005173Y-55435906D01*
X-17005181Y-55435911D01*
X-17217533Y-55594875D01*
X-17217551Y-55594891D01*
X-17405108Y-55782448D01*
X-17405124Y-55782466D01*
X-17564088Y-55994818D01*
X-17564093Y-55994826D01*
X-17691218Y-56227638D01*
X-17691219Y-56227642D01*
X-17691221Y-56227645D01*
X-17783925Y-56476192D01*
X-17783926Y-56476198D01*
X-17783927Y-56476200D01*
X-17835374Y-56712701D01*
X-17840313Y-56735403D01*
X-17859237Y-57000000D01*
X-18745500Y-57000000D01*
X-18745500Y-54378500D01*
X-18725815Y-54311461D01*
X-18673011Y-54265706D01*
X-18621500Y-54254500D01*
X-13037282Y-54254500D01*
X-13013093Y-54256882D01*
X-13000000Y-54259486D01*
X-12999998Y-54259486D01*
X-12900701Y-54239735D01*
X-12900700Y-54239734D01*
X-12900699Y-54239734D01*
X-12858607Y-54211608D01*
X-12816515Y-54183484D01*
X-12782796Y-54133019D01*
X-12760266Y-54099301D01*
X-12760265Y-54099299D01*
X-12760264Y-54099296D01*
X-12744647Y-54020782D01*
X-12744642Y-54020755D01*
X-12740514Y-54000000D01*
X-12743118Y-53986906D01*
X-12745500Y-53962718D01*
X-12745500Y-53086000D01*
X-12035682Y-53086000D01*
X-12015044Y-53242762D01*
X-11954536Y-53388841D01*
X-11858282Y-53514282D01*
X-11732841Y-53610536D01*
X-11586762Y-53671044D01*
X-11482254Y-53684802D01*
X-11430001Y-53691682D01*
X-11430000Y-53691682D01*
X-11429999Y-53691682D01*
X-11351619Y-53681363D01*
X-11273238Y-53671044D01*
X-11127159Y-53610536D01*
X-11001718Y-53514282D01*
X-10905464Y-53388841D01*
X-10874148Y-53313239D01*
X-10844956Y-53242762D01*
X-10844955Y-53242760D01*
X-10824318Y-53086001D01*
X-10824318Y-53086000D01*
X-10511682Y-53086000D01*
X-10491044Y-53242762D01*
X-10430536Y-53388841D01*
X-10334282Y-53514282D01*
X-10208841Y-53610536D01*
X-10062762Y-53671044D01*
X-9958253Y-53684802D01*
X-9906001Y-53691682D01*
X-9906000Y-53691682D01*
X-9905999Y-53691682D01*
X-9827618Y-53681363D01*
X-9749238Y-53671044D01*
X-9603159Y-53610536D01*
X-9477718Y-53514282D01*
X-9381464Y-53388841D01*
X-9350148Y-53313239D01*
X-9320956Y-53242762D01*
X-9320955Y-53242760D01*
X-9300318Y-53086001D01*
X-9300318Y-53086000D01*
X-8987682Y-53086000D01*
X-8967044Y-53242762D01*
X-8906536Y-53388841D01*
X-8810282Y-53514282D01*
X-8684841Y-53610536D01*
X-8538762Y-53671044D01*
X-8434254Y-53684802D01*
X-8382001Y-53691682D01*
X-8382000Y-53691682D01*
X-8381999Y-53691682D01*
X-8303619Y-53681363D01*
X-8225238Y-53671044D01*
X-8079159Y-53610536D01*
X-7953718Y-53514282D01*
X-7857464Y-53388841D01*
X-7826148Y-53313239D01*
X-7796956Y-53242762D01*
X-7796955Y-53242760D01*
X-7776318Y-53086001D01*
X-7776318Y-53086000D01*
X-7463682Y-53086000D01*
X-7443044Y-53242762D01*
X-7382536Y-53388841D01*
X-7286282Y-53514282D01*
X-7160841Y-53610536D01*
X-7014762Y-53671044D01*
X-6910253Y-53684802D01*
X-6858001Y-53691682D01*
X-6858000Y-53691682D01*
X-6857999Y-53691682D01*
X-6779618Y-53681363D01*
X-6701238Y-53671044D01*
X-6555159Y-53610536D01*
X-6429718Y-53514282D01*
X-6333464Y-53388841D01*
X-6302148Y-53313239D01*
X-6272956Y-53242762D01*
X-6272955Y-53242760D01*
X-6252318Y-53086001D01*
X-6252318Y-53085998D01*
X-6272955Y-52929239D01*
X-6272956Y-52929237D01*
X-6333463Y-52783160D01*
X-6429718Y-52657718D01*
X-6555160Y-52561463D01*
X-6701237Y-52500956D01*
X-6701239Y-52500955D01*
X-6857999Y-52480318D01*
X-6858001Y-52480318D01*
X-7014760Y-52500955D01*
X-7014762Y-52500956D01*
X-7160841Y-52561464D01*
X-7286282Y-52657718D01*
X-7382536Y-52783159D01*
X-7443044Y-52929238D01*
X-7463682Y-53086000D01*
X-7776318Y-53086000D01*
X-7776318Y-53085998D01*
X-7796955Y-52929239D01*
X-7796956Y-52929237D01*
X-7857463Y-52783160D01*
X-7953718Y-52657718D01*
X-8079160Y-52561463D01*
X-8225237Y-52500956D01*
X-8225239Y-52500955D01*
X-8381999Y-52480318D01*
X-8382001Y-52480318D01*
X-8538760Y-52500955D01*
X-8538762Y-52500956D01*
X-8684841Y-52561464D01*
X-8810282Y-52657718D01*
X-8906536Y-52783159D01*
X-8967044Y-52929238D01*
X-8987682Y-53086000D01*
X-9300318Y-53086000D01*
X-9300318Y-53085998D01*
X-9320955Y-52929239D01*
X-9320956Y-52929237D01*
X-9381463Y-52783160D01*
X-9477718Y-52657718D01*
X-9603160Y-52561463D01*
X-9749237Y-52500956D01*
X-9749239Y-52500955D01*
X-9905999Y-52480318D01*
X-9906001Y-52480318D01*
X-10062760Y-52500955D01*
X-10062762Y-52500956D01*
X-10208841Y-52561464D01*
X-10334282Y-52657718D01*
X-10430536Y-52783159D01*
X-10491044Y-52929238D01*
X-10511682Y-53086000D01*
X-10824318Y-53086000D01*
X-10824318Y-53085998D01*
X-10844955Y-52929239D01*
X-10844956Y-52929237D01*
X-10905463Y-52783160D01*
X-11001718Y-52657718D01*
X-11127160Y-52561463D01*
X-11273237Y-52500956D01*
X-11273239Y-52500955D01*
X-11429999Y-52480318D01*
X-11430001Y-52480318D01*
X-11586760Y-52500955D01*
X-11586762Y-52500956D01*
X-11732841Y-52561464D01*
X-11858282Y-52657718D01*
X-11954536Y-52783159D01*
X-12015044Y-52929238D01*
X-12035682Y-53086000D01*
X-12745500Y-53086000D01*
X-12745500Y-48260000D01*
X-9495682Y-48260000D01*
X-9475044Y-48416762D01*
X-9414536Y-48562841D01*
X-9318282Y-48688282D01*
X-9192841Y-48784536D01*
X-9046762Y-48845044D01*
X-8942253Y-48858802D01*
X-8890001Y-48865682D01*
X-8890000Y-48865682D01*
X-8889999Y-48865682D01*
X-8811618Y-48855363D01*
X-8733238Y-48845044D01*
X-8587159Y-48784536D01*
X-8461718Y-48688282D01*
X-8365464Y-48562841D01*
X-8350198Y-48525987D01*
X-8304956Y-48416762D01*
X-8304955Y-48416760D01*
X-8284318Y-48260001D01*
X-8284318Y-48259998D01*
X-8304955Y-48103239D01*
X-8304956Y-48103237D01*
X-8365463Y-47957160D01*
X-8461718Y-47831718D01*
X-8587160Y-47735463D01*
X-8733237Y-47674956D01*
X-8733239Y-47674955D01*
X-8889999Y-47654318D01*
X-8890001Y-47654318D01*
X-9046760Y-47674955D01*
X-9046762Y-47674956D01*
X-9192841Y-47735464D01*
X-9318282Y-47831718D01*
X-9414536Y-47957159D01*
X-9475044Y-48103238D01*
X-9495682Y-48260000D01*
X-12745500Y-48260000D01*
X-12745500Y-37037277D01*
X-12743117Y-37013084D01*
X-12740514Y-36999999D01*
X-12740514Y-36999997D01*
X-12750608Y-36949252D01*
X-12760266Y-36900699D01*
X-12816515Y-36816515D01*
X-12900700Y-36760265D01*
X-12900701Y-36760264D01*
X-12999998Y-36740514D01*
X-13000000Y-36740514D01*
X-13013093Y-36743118D01*
X-13037282Y-36745500D01*
X-18621500Y-36745500D01*
X-18688539Y-36725815D01*
X-18734294Y-36673011D01*
X-18745500Y-36621500D01*
X-18745500Y-35684000D01*
X-18725815Y-35616961D01*
X-18673011Y-35571206D01*
X-18621500Y-35560000D01*
X-15858708Y-35560000D01*
X-15804776Y-35574452D01*
X-15804351Y-35573426D01*
X-15749081Y-35596319D01*
X-15650762Y-35637044D01*
X-15546254Y-35650802D01*
X-15494001Y-35657682D01*
X-15494000Y-35657682D01*
X-15493999Y-35657682D01*
X-15398635Y-35645127D01*
X-15337238Y-35637044D01*
X-15269657Y-35609051D01*
X-15183649Y-35573426D01*
X-15183223Y-35574452D01*
X-15129292Y-35560000D01*
X-11417425Y-35560000D01*
X-11350386Y-35579685D01*
X-11329744Y-35596319D01*
X-11018319Y-35907744D01*
X-10984834Y-35969067D01*
X-10982000Y-35995425D01*
X-10982000Y-39861579D01*
X-10982235Y-39866982D01*
X-10985631Y-39905789D01*
X-10975542Y-39943435D01*
X-10974382Y-39948667D01*
X-10967615Y-39987051D01*
X-10967612Y-39987054D01*
X-10967613Y-39987054D01*
X-10965244Y-39993562D01*
X-10959897Y-40006470D01*
X-10956971Y-40012741D01*
X-10956970Y-40012749D01*
X-10934625Y-40044658D01*
X-10931728Y-40049207D01*
X-10912249Y-40082949D01*
X-10882388Y-40108004D01*
X-10878427Y-40111634D01*
X-10393634Y-40596427D01*
X-10390004Y-40600388D01*
X-10364949Y-40630249D01*
X-10331211Y-40649726D01*
X-10326658Y-40652625D01*
X-10294749Y-40674970D01*
X-10294741Y-40674971D01*
X-10288470Y-40677897D01*
X-10275555Y-40683247D01*
X-10269055Y-40685613D01*
X-10269054Y-40685613D01*
X-10269051Y-40685615D01*
X-10230667Y-40692382D01*
X-10225423Y-40693546D01*
X-10187790Y-40703631D01*
X-10148986Y-40700235D01*
X-10143583Y-40700000D01*
X-9833425Y-40700000D01*
X-9766386Y-40719685D01*
X-9745744Y-40736319D01*
X-4160319Y-46321744D01*
X-4126834Y-46383067D01*
X-4124000Y-46409425D01*
X-4124000Y-52508875D01*
X-4143685Y-52575914D01*
X-4172512Y-52607250D01*
X-4191649Y-52621935D01*
X-4238282Y-52657718D01*
X-4334536Y-52783159D01*
X-4395044Y-52929238D01*
X-4415682Y-53086000D01*
X-4395044Y-53242762D01*
X-4334536Y-53388841D01*
X-4238282Y-53514282D01*
X-4112841Y-53610536D01*
X-3966762Y-53671044D01*
X-3862253Y-53684802D01*
X-3810001Y-53691682D01*
X-3810000Y-53691682D01*
X-3809999Y-53691682D01*
X-3731618Y-53681363D01*
X-3653238Y-53671044D01*
X-3507159Y-53610536D01*
X-3381718Y-53514282D01*
X-3285464Y-53388841D01*
X-3254148Y-53313239D01*
X-3224956Y-53242762D01*
X-3224955Y-53242760D01*
X-3204318Y-53086001D01*
X-3204318Y-53085998D01*
X-3224955Y-52929239D01*
X-3224956Y-52929237D01*
X-3285463Y-52783160D01*
X-3342211Y-52709205D01*
X-3381718Y-52657718D01*
X-3381719Y-52657717D01*
X-3447488Y-52607250D01*
X-3488690Y-52550821D01*
X-3496000Y-52508875D01*
X-3496000Y-51562001D01*
X-732682Y-51562001D01*
X-725802Y-51614253D01*
X-712044Y-51718762D01*
X-651536Y-51864841D01*
X-555282Y-51990282D01*
X-429841Y-52086536D01*
X-283762Y-52147044D01*
X-179254Y-52160802D01*
X-127001Y-52167682D01*
X-127000Y-52167682D01*
X-126999Y-52167682D01*
X-74745Y-52160802D01*
X29762Y-52147044D01*
X175841Y-52086536D01*
X301282Y-51990282D01*
X397536Y-51864841D01*
X458044Y-51718762D01*
X471802Y-51614253D01*
X478682Y-51562001D01*
X478682Y-51561998D01*
X458044Y-51405239D01*
X458044Y-51405238D01*
X397536Y-51259159D01*
X301282Y-51133718D01*
X175841Y-51037464D01*
X29762Y-50976956D01*
X29760Y-50976955D01*
X-126999Y-50956318D01*
X-127001Y-50956318D01*
X-283760Y-50976955D01*
X-283762Y-50976956D01*
X-429841Y-51037464D01*
X-555282Y-51133718D01*
X-651536Y-51259159D01*
X-712044Y-51405238D01*
X-712044Y-51405239D01*
X-732682Y-51561998D01*
X-732682Y-51562001D01*
X-3496000Y-51562001D01*
X-3496000Y-46777425D01*
X-3476315Y-46710386D01*
X-3423511Y-46664631D01*
X-3354353Y-46654687D01*
X-3290797Y-46683712D01*
X-3284319Y-46689744D01*
X5872681Y-55846744D01*
X5906166Y-55908067D01*
X5909000Y-55934425D01*
X5909000Y-56460574D01*
X5889315Y-56527613D01*
X5872681Y-56548255D01*
X5503690Y-56917245D01*
X5442367Y-56950730D01*
X5372675Y-56945746D01*
X5365577Y-56942845D01*
X5355147Y-56938201D01*
X5355141Y-56938199D01*
X5211769Y-56907725D01*
X5173070Y-56899500D01*
X4986930Y-56899500D01*
X4955014Y-56906283D01*
X4804858Y-56938199D01*
X4804852Y-56938201D01*
X4634811Y-57013909D01*
X4484218Y-57123322D01*
X4484215Y-57123324D01*
X4359668Y-57261650D01*
X4266599Y-57422850D01*
X4266596Y-57422856D01*
X4209080Y-57599875D01*
X4209079Y-57599877D01*
X4189622Y-57785000D01*
X4209079Y-57970122D01*
X4209080Y-57970124D01*
X4266596Y-58147143D01*
X4266599Y-58147149D01*
X4359669Y-58308351D01*
X4374713Y-58325059D01*
X4484215Y-58446675D01*
X4484218Y-58446677D01*
X4484221Y-58446680D01*
X4634810Y-58556089D01*
X4634811Y-58556090D01*
X4804852Y-58631798D01*
X4804858Y-58631800D01*
X4986930Y-58670500D01*
X4986931Y-58670500D01*
X5173069Y-58670500D01*
X5173070Y-58670500D01*
X5355142Y-58631800D01*
X5355144Y-58631798D01*
X5355147Y-58631798D01*
X5412424Y-58606296D01*
X5525189Y-58556090D01*
X5675779Y-58446680D01*
X5800331Y-58308351D01*
X5893401Y-58147149D01*
X5950921Y-57970120D01*
X5970378Y-57785000D01*
X5950921Y-57599880D01*
X5915117Y-57489688D01*
X5913123Y-57419852D01*
X5945366Y-57363695D01*
X6433427Y-56875634D01*
X6437388Y-56872004D01*
X6467249Y-56846949D01*
X6486728Y-56813207D01*
X6489625Y-56808658D01*
X6511970Y-56776749D01*
X6511971Y-56776741D01*
X6514897Y-56770470D01*
X6520244Y-56757562D01*
X6522613Y-56751054D01*
X6522612Y-56751054D01*
X6522615Y-56751051D01*
X6529382Y-56712667D01*
X6530542Y-56707435D01*
X6540631Y-56669789D01*
X6537235Y-56630982D01*
X6537000Y-56625579D01*
X6537000Y-56302425D01*
X6556685Y-56235386D01*
X6609489Y-56189631D01*
X6678647Y-56179687D01*
X6742203Y-56208712D01*
X6748681Y-56214744D01*
X7269682Y-56735745D01*
X7303166Y-56797066D01*
X7306000Y-56823424D01*
X7306000Y-56874974D01*
X7286315Y-56942013D01*
X7233511Y-56987768D01*
X7232436Y-56988253D01*
X7174812Y-57013908D01*
X7024218Y-57123322D01*
X7024215Y-57123324D01*
X6899668Y-57261650D01*
X6806599Y-57422850D01*
X6806596Y-57422856D01*
X6749080Y-57599875D01*
X6749079Y-57599877D01*
X6729622Y-57785000D01*
X6749079Y-57970122D01*
X6749080Y-57970124D01*
X6806596Y-58147143D01*
X6806599Y-58147149D01*
X6899669Y-58308351D01*
X6914713Y-58325059D01*
X7024215Y-58446675D01*
X7024218Y-58446677D01*
X7024221Y-58446680D01*
X7174810Y-58556089D01*
X7174811Y-58556090D01*
X7344852Y-58631798D01*
X7344858Y-58631800D01*
X7526930Y-58670500D01*
X7526931Y-58670500D01*
X7713069Y-58670500D01*
X7713070Y-58670500D01*
X7895142Y-58631800D01*
X7895144Y-58631798D01*
X7895147Y-58631798D01*
X7952424Y-58606296D01*
X8065189Y-58556090D01*
X8215779Y-58446680D01*
X8340331Y-58308351D01*
X8433401Y-58147149D01*
X8490921Y-57970120D01*
X8510378Y-57785000D01*
X8509801Y-57779511D01*
X8522367Y-57710782D01*
X8570097Y-57659756D01*
X8637837Y-57642636D01*
X8704079Y-57664856D01*
X8720802Y-57678865D01*
X9037349Y-57995412D01*
X9041004Y-57999400D01*
X9066048Y-58029246D01*
X9066051Y-58029249D01*
X9082780Y-58038907D01*
X9099779Y-58048722D01*
X9104343Y-58051629D01*
X9136251Y-58073971D01*
X9136253Y-58073971D01*
X9142511Y-58076890D01*
X9155473Y-58082258D01*
X9161946Y-58084614D01*
X9161947Y-58084614D01*
X9161949Y-58084615D01*
X9200315Y-58091379D01*
X9205571Y-58092544D01*
X9243211Y-58102631D01*
X9243217Y-58102630D01*
X9254022Y-58103577D01*
X9253798Y-58106129D01*
X9306953Y-58116807D01*
X9356659Y-58164574D01*
X9412980Y-58262125D01*
X9439669Y-58308351D01*
X9454713Y-58325059D01*
X9564215Y-58446675D01*
X9564218Y-58446677D01*
X9564221Y-58446680D01*
X9714810Y-58556089D01*
X9714811Y-58556090D01*
X9884852Y-58631798D01*
X9884858Y-58631800D01*
X10066930Y-58670500D01*
X10066931Y-58670500D01*
X10253069Y-58670500D01*
X10253070Y-58670500D01*
X10435142Y-58631800D01*
X10435144Y-58631798D01*
X10435147Y-58631798D01*
X10492424Y-58606296D01*
X10605189Y-58556090D01*
X10755779Y-58446680D01*
X10880331Y-58308351D01*
X10973401Y-58147149D01*
X11030921Y-57970120D01*
X11050378Y-57785000D01*
X11030921Y-57599880D01*
X10995119Y-57489693D01*
X10973403Y-57422856D01*
X10973400Y-57422850D01*
X10880331Y-57261649D01*
X10831547Y-57207469D01*
X10755784Y-57123324D01*
X10755781Y-57123322D01*
X10755780Y-57123321D01*
X10755779Y-57123320D01*
X10605189Y-57013910D01*
X10605188Y-57013909D01*
X10573950Y-57000001D01*
X14140763Y-57000001D01*
X14159687Y-57264602D01*
X14216072Y-57523799D01*
X14308781Y-57772361D01*
X14435906Y-58005173D01*
X14435911Y-58005181D01*
X14594875Y-58217533D01*
X14594891Y-58217551D01*
X14782448Y-58405108D01*
X14782466Y-58405124D01*
X14994818Y-58564088D01*
X14994826Y-58564093D01*
X15227639Y-58691218D01*
X15227638Y-58691218D01*
X15227642Y-58691219D01*
X15227645Y-58691221D01*
X15476192Y-58783925D01*
X15476198Y-58783926D01*
X15476200Y-58783927D01*
X15735397Y-58840312D01*
X15735399Y-58840312D01*
X15735403Y-58840313D01*
X15970540Y-58857130D01*
X15999999Y-58859237D01*
X16000000Y-58859237D01*
X16000001Y-58859237D01*
X16026508Y-58857341D01*
X16264597Y-58840313D01*
X16523808Y-58783925D01*
X16772355Y-58691221D01*
X16772359Y-58691218D01*
X16772361Y-58691218D01*
X16888766Y-58627655D01*
X17005179Y-58564090D01*
X17217541Y-58405118D01*
X17405118Y-58217541D01*
X17564090Y-58005179D01*
X17640704Y-57864871D01*
X17691218Y-57772361D01*
X17691218Y-57772359D01*
X17691221Y-57772355D01*
X17783925Y-57523808D01*
X17840313Y-57264597D01*
X17859237Y-57000000D01*
X17840313Y-56735403D01*
X17835374Y-56712701D01*
X17783927Y-56476200D01*
X17783926Y-56476198D01*
X17783925Y-56476192D01*
X17691221Y-56227645D01*
X17691219Y-56227642D01*
X17691218Y-56227638D01*
X17564093Y-55994826D01*
X17564088Y-55994818D01*
X17405124Y-55782466D01*
X17405108Y-55782448D01*
X17217551Y-55594891D01*
X17217533Y-55594875D01*
X17005181Y-55435911D01*
X17005173Y-55435906D01*
X16772360Y-55308781D01*
X16772361Y-55308781D01*
X16672936Y-55271697D01*
X16523808Y-55216075D01*
X16523805Y-55216074D01*
X16523799Y-55216072D01*
X16264602Y-55159687D01*
X16000001Y-55140763D01*
X15999999Y-55140763D01*
X15735397Y-55159687D01*
X15476200Y-55216072D01*
X15227638Y-55308781D01*
X14994826Y-55435906D01*
X14994818Y-55435911D01*
X14782466Y-55594875D01*
X14782448Y-55594891D01*
X14594891Y-55782448D01*
X14594875Y-55782466D01*
X14435911Y-55994818D01*
X14435906Y-55994826D01*
X14308781Y-56227638D01*
X14216072Y-56476200D01*
X14159687Y-56735397D01*
X14140763Y-56999998D01*
X14140763Y-57000001D01*
X10573950Y-57000001D01*
X10435147Y-56938201D01*
X10435141Y-56938199D01*
X10291769Y-56907725D01*
X10253070Y-56899500D01*
X10066930Y-56899500D01*
X10035014Y-56906283D01*
X9884858Y-56938199D01*
X9884852Y-56938201D01*
X9714811Y-57013909D01*
X9564218Y-57123322D01*
X9564215Y-57123324D01*
X9439667Y-57261650D01*
X9439665Y-57261653D01*
X9429706Y-57278902D01*
X9379137Y-57327115D01*
X9310529Y-57340335D01*
X9245665Y-57314364D01*
X9234641Y-57304578D01*
X3618064Y-51688001D01*
X8471500Y-51688001D01*
X8491415Y-51839278D01*
X8491416Y-51839280D01*
X8549806Y-51980247D01*
X8549807Y-51980249D01*
X8549808Y-51980250D01*
X8642696Y-52101304D01*
X8763750Y-52194192D01*
X8763751Y-52194192D01*
X8763752Y-52194193D01*
X8795686Y-52207420D01*
X8904720Y-52252584D01*
X8961370Y-52260042D01*
X9018019Y-52267500D01*
X9018020Y-52267500D01*
X9093978Y-52267500D01*
X9093980Y-52267500D01*
X9131363Y-52262578D01*
X9200395Y-52273343D01*
X9252652Y-52319722D01*
X9269663Y-52363983D01*
X9282135Y-52434711D01*
X9351623Y-52595804D01*
X9351624Y-52595806D01*
X9351626Y-52595809D01*
X9397716Y-52657718D01*
X9456390Y-52736530D01*
X9590786Y-52849302D01*
X9646497Y-52877281D01*
X9747562Y-52928038D01*
X9747563Y-52928038D01*
X9747567Y-52928040D01*
X9918279Y-52968500D01*
X9918282Y-52968500D01*
X10649701Y-52968500D01*
X10649709Y-52968500D01*
X10780255Y-52953241D01*
X10945117Y-52893237D01*
X11091696Y-52796830D01*
X11212092Y-52669218D01*
X11239392Y-52621933D01*
X15201668Y-52621933D01*
X15217058Y-52709210D01*
X15232135Y-52794711D01*
X15301623Y-52955804D01*
X15301624Y-52955806D01*
X15301626Y-52955809D01*
X15356278Y-53029218D01*
X15406390Y-53096530D01*
X15540786Y-53209302D01*
X15607407Y-53242760D01*
X15697562Y-53288038D01*
X15697563Y-53288038D01*
X15697567Y-53288040D01*
X15868279Y-53328500D01*
X15868282Y-53328500D01*
X16599701Y-53328500D01*
X16599709Y-53328500D01*
X16730255Y-53313241D01*
X16895117Y-53253237D01*
X17041696Y-53156830D01*
X17162092Y-53029218D01*
X17249812Y-52877281D01*
X17300130Y-52709210D01*
X17310331Y-52534065D01*
X17279865Y-52361289D01*
X17210377Y-52200196D01*
X17205907Y-52194192D01*
X17105609Y-52059469D01*
X16971214Y-51946698D01*
X16971212Y-51946697D01*
X16814437Y-51867961D01*
X16801273Y-51864841D01*
X16643721Y-51827500D01*
X15912291Y-51827500D01*
X15811526Y-51839278D01*
X15781743Y-51842759D01*
X15781740Y-51842760D01*
X15616884Y-51902762D01*
X15616880Y-51902764D01*
X15470306Y-51999167D01*
X15470305Y-51999168D01*
X15349910Y-52126778D01*
X15262188Y-52278718D01*
X15211870Y-52446789D01*
X15211869Y-52446794D01*
X15201668Y-52621933D01*
X11239392Y-52621933D01*
X11299812Y-52517281D01*
X11350130Y-52349210D01*
X11360331Y-52174065D01*
X11329865Y-52001289D01*
X11260377Y-51840196D01*
X11259695Y-51839280D01*
X11155609Y-51699469D01*
X11021214Y-51586698D01*
X11021212Y-51586697D01*
X10864437Y-51507961D01*
X10864433Y-51507960D01*
X10693721Y-51467500D01*
X9962291Y-51467500D01*
X9857854Y-51479707D01*
X9831743Y-51482759D01*
X9831737Y-51482761D01*
X9740368Y-51516016D01*
X9670639Y-51520447D01*
X9609584Y-51486476D01*
X9583399Y-51446948D01*
X9562192Y-51395750D01*
X9469304Y-51274696D01*
X9348250Y-51181808D01*
X9348249Y-51181807D01*
X9348247Y-51181806D01*
X9207280Y-51123416D01*
X9207278Y-51123415D01*
X9093981Y-51108500D01*
X9093980Y-51108500D01*
X9018020Y-51108500D01*
X9018019Y-51108500D01*
X8904721Y-51123415D01*
X8904719Y-51123416D01*
X8763752Y-51181806D01*
X8642696Y-51274696D01*
X8549806Y-51395752D01*
X8491416Y-51536719D01*
X8491415Y-51536721D01*
X8471500Y-51687998D01*
X8471500Y-51688001D01*
X3618064Y-51688001D01*
X-7523681Y-40546255D01*
X-7557166Y-40484932D01*
X-7560000Y-40458574D01*
X-7560000Y-40201123D01*
X-7540315Y-40134084D01*
X-7511486Y-40102747D01*
X-7445719Y-40052283D01*
X-7439857Y-40044644D01*
X-7349464Y-39926841D01*
X-7322431Y-39861579D01*
X-7288956Y-39780762D01*
X-7288955Y-39780760D01*
X-7268318Y-39624001D01*
X-7268318Y-39624000D01*
X-5177682Y-39624000D01*
X-5157044Y-39780762D01*
X-5096536Y-39926841D01*
X-5000282Y-40052282D01*
X-4874841Y-40148536D01*
X-4728762Y-40209044D01*
X-4624254Y-40222802D01*
X-4572001Y-40229682D01*
X-4572000Y-40229682D01*
X-4571999Y-40229682D01*
X-4493619Y-40219363D01*
X-4415238Y-40209044D01*
X-4269159Y-40148536D01*
X-4143718Y-40052282D01*
X-4047464Y-39926841D01*
X-4020431Y-39861579D01*
X-3986956Y-39780762D01*
X-3986955Y-39780760D01*
X-3966318Y-39624001D01*
X-3966318Y-39623998D01*
X-3986955Y-39467239D01*
X-3986956Y-39467237D01*
X-4047463Y-39321160D01*
X-4143718Y-39195718D01*
X-4269160Y-39099463D01*
X-4415237Y-39038956D01*
X-4415239Y-39038955D01*
X-4571999Y-39018318D01*
X-4572001Y-39018318D01*
X-4728760Y-39038955D01*
X-4728762Y-39038956D01*
X-4866577Y-39096041D01*
X-4874841Y-39099464D01*
X-5000282Y-39195718D01*
X-5096536Y-39321159D01*
X-5157044Y-39467238D01*
X-5177682Y-39624000D01*
X-7268318Y-39624000D01*
X-7268318Y-39623998D01*
X-7288955Y-39467239D01*
X-7288956Y-39467237D01*
X-7349463Y-39321160D01*
X-7445718Y-39195718D01*
X-7571160Y-39099463D01*
X-7717237Y-39038956D01*
X-7717239Y-39038955D01*
X-7873999Y-39018318D01*
X-7874001Y-39018318D01*
X-8030760Y-39038955D01*
X-8030762Y-39038956D01*
X-8168577Y-39096041D01*
X-8176841Y-39099464D01*
X-8302282Y-39195718D01*
X-8302284Y-39195720D01*
X-8306512Y-39198965D01*
X-8371682Y-39224159D01*
X-8440126Y-39210121D01*
X-8457485Y-39198965D01*
X-8587157Y-39099464D01*
X-8733237Y-39038956D01*
X-8733239Y-39038955D01*
X-8889999Y-39018318D01*
X-8890001Y-39018318D01*
X-9046760Y-39038955D01*
X-9046762Y-39038956D01*
X-9184577Y-39096041D01*
X-9192841Y-39099464D01*
X-9318282Y-39195718D01*
X-9318284Y-39195720D01*
X-9322512Y-39198965D01*
X-9387682Y-39224159D01*
X-9456126Y-39210121D01*
X-9473485Y-39198965D01*
X-9603157Y-39099464D01*
X-9749237Y-39038956D01*
X-9749239Y-39038955D01*
X-9905999Y-39018318D01*
X-9906001Y-39018318D01*
X-10062760Y-39038955D01*
X-10062765Y-39038957D01*
X-10182548Y-39088572D01*
X-10252017Y-39096041D01*
X-10314496Y-39064765D01*
X-10350148Y-39004676D01*
X-10354000Y-38974011D01*
X-10354000Y-35830419D01*
X-10353764Y-35825012D01*
X-10350368Y-35786210D01*
X-10360451Y-35748581D01*
X-10361622Y-35743299D01*
X-10368282Y-35705535D01*
X-10360539Y-35636096D01*
X-10316484Y-35581866D01*
X-10250103Y-35560063D01*
X-10246166Y-35560000D01*
X-4174708Y-35560000D01*
X-4120776Y-35574452D01*
X-4120351Y-35573426D01*
X-4065081Y-35596319D01*
X-3966762Y-35637044D01*
X-3862254Y-35650802D01*
X-3810001Y-35657682D01*
X-3810000Y-35657682D01*
X-3809999Y-35657682D01*
X-3714635Y-35645127D01*
X-3653238Y-35637044D01*
X-3585657Y-35609051D01*
X-3499649Y-35573426D01*
X-3499223Y-35574452D01*
X-3445292Y-35560000D01*
X-1093227Y-35560000D01*
X-1026188Y-35579685D01*
X-1005546Y-35596319D01*
X-36319Y-36565546D01*
X-2834Y-36626869D01*
X0Y-36653227D01*
X0Y-42418000D01*
X260500Y-42418000D01*
X327539Y-42437685D01*
X373294Y-42490489D01*
X384500Y-42542000D01*
X384500Y-43480271D01*
X364815Y-43547310D01*
X348181Y-43567952D01*
X106700Y-43809433D01*
X45377Y-43842918D01*
X2835Y-43844691D01*
X2Y-43844318D01*
X-2Y-43844318D01*
X-156760Y-43864955D01*
X-156762Y-43864956D01*
X-234801Y-43897281D01*
X-302841Y-43925464D01*
X-428282Y-44021718D01*
X-524536Y-44147159D01*
X-585044Y-44293238D01*
X-585044Y-44293239D01*
X-605682Y-44449998D01*
X-605682Y-44450001D01*
X-604036Y-44462500D01*
X-585044Y-44606762D01*
X-524536Y-44752841D01*
X-428282Y-44878282D01*
X-302841Y-44974536D01*
X-156762Y-45035044D01*
X-52253Y-45048802D01*
X-1Y-45055682D01*
X0Y-45055682D01*
X1Y-45055682D01*
X52253Y-45048802D01*
X156762Y-45035044D01*
X276548Y-44985426D01*
X346017Y-44977958D01*
X408496Y-45009233D01*
X444148Y-45069322D01*
X448000Y-45099988D01*
X448000Y-46412875D01*
X428315Y-46479914D01*
X399488Y-46511250D01*
X333719Y-46561717D01*
X237463Y-46687160D01*
X176956Y-46833237D01*
X176955Y-46833239D01*
X156318Y-46989998D01*
X156318Y-46990001D01*
X176955Y-47146760D01*
X176956Y-47146762D01*
X200202Y-47202884D01*
X237464Y-47292841D01*
X333718Y-47418282D01*
X459159Y-47514536D01*
X605238Y-47575044D01*
X683618Y-47585363D01*
X761999Y-47595682D01*
X762000Y-47595682D01*
X762001Y-47595682D01*
X814253Y-47588802D01*
X918762Y-47575044D01*
X1064841Y-47514536D01*
X1190282Y-47418282D01*
X1286536Y-47292841D01*
X1347044Y-47146762D01*
X1367682Y-46990000D01*
X1347044Y-46833238D01*
X1286536Y-46687159D01*
X1190282Y-46561718D01*
X1151496Y-46531956D01*
X1124512Y-46511250D01*
X1083310Y-46454821D01*
X1076000Y-46412875D01*
X1076000Y-44631424D01*
X1095685Y-44564385D01*
X1112315Y-44543747D01*
X1353428Y-44302633D01*
X1357388Y-44299004D01*
X1387249Y-44273949D01*
X1406728Y-44240207D01*
X1409625Y-44235658D01*
X1431970Y-44203749D01*
X1431971Y-44203741D01*
X1434897Y-44197470D01*
X1440247Y-44184555D01*
X1442613Y-44178055D01*
X1442613Y-44178054D01*
X1442615Y-44178051D01*
X1449382Y-44139667D01*
X1450546Y-44134423D01*
X1460631Y-44096790D01*
X1457235Y-44057986D01*
X1457000Y-44052583D01*
X1457000Y-42542000D01*
X1476685Y-42474961D01*
X1529489Y-42429206D01*
X1581000Y-42418000D01*
X4284940Y-42418000D01*
X4351979Y-42437685D01*
X4397734Y-42490489D01*
X4407678Y-42559647D01*
X4378653Y-42623203D01*
X4361103Y-42639853D01*
X4353738Y-42645585D01*
X4319913Y-42682329D01*
X4318139Y-42684177D01*
X4104955Y-42897361D01*
X4085106Y-42913482D01*
X4077331Y-42918562D01*
X4057143Y-42944498D01*
X4052067Y-42950248D01*
X4049634Y-42952681D01*
X4049624Y-42952694D01*
X4037695Y-42969401D01*
X4036164Y-42971453D01*
X4005483Y-43010872D01*
X4001975Y-43017353D01*
X3998761Y-43023931D01*
X3984506Y-43071809D01*
X3983725Y-43074246D01*
X3967499Y-43121512D01*
X3966294Y-43128733D01*
X3965382Y-43136046D01*
X3967447Y-43185948D01*
X3967500Y-43188510D01*
X3967500Y-43638788D01*
X3964861Y-43664232D01*
X3962957Y-43673311D01*
X3962957Y-43673317D01*
X3967023Y-43705937D01*
X3967500Y-43713614D01*
X3967500Y-43717040D01*
X3970232Y-43733420D01*
X3970876Y-43737276D01*
X3971245Y-43739808D01*
X3977427Y-43789393D01*
X3979520Y-43796426D01*
X3981907Y-43803379D01*
X3981908Y-43803381D01*
X3985368Y-43809774D01*
X4005691Y-43847330D01*
X4006864Y-43849608D01*
X4028802Y-43894484D01*
X4028804Y-43894486D01*
X4033071Y-43900464D01*
X4037582Y-43906259D01*
X4074341Y-43940098D01*
X4076189Y-43941871D01*
X7106181Y-46971864D01*
X7139665Y-47033185D01*
X7142499Y-47059543D01*
X7142499Y-47202884D01*
X7122814Y-47269923D01*
X7093987Y-47301258D01*
X7064720Y-47323715D01*
X6968463Y-47449160D01*
X6907956Y-47595237D01*
X6907955Y-47595239D01*
X6887318Y-47751998D01*
X6887318Y-47752001D01*
X6907955Y-47908760D01*
X6907956Y-47908762D01*
X6968464Y-48054842D01*
X7067965Y-48184514D01*
X7093159Y-48249683D01*
X7079121Y-48318128D01*
X7067965Y-48335486D01*
X6968464Y-48465157D01*
X6907956Y-48611237D01*
X6907955Y-48611239D01*
X6887318Y-48767998D01*
X6887318Y-48768001D01*
X6907955Y-48924760D01*
X6907956Y-48924762D01*
X6968464Y-49070841D01*
X7064718Y-49196282D01*
X7190159Y-49292536D01*
X7336238Y-49353044D01*
X7414618Y-49363363D01*
X7492999Y-49373682D01*
X7493000Y-49373682D01*
X7493001Y-49373682D01*
X7545254Y-49366802D01*
X7649762Y-49353044D01*
X7795841Y-49292536D01*
X7921282Y-49196282D01*
X8017536Y-49070841D01*
X8078044Y-48924762D01*
X8098682Y-48768000D01*
X8078044Y-48611238D01*
X8017536Y-48465159D01*
X8017535Y-48465158D01*
X8017535Y-48465157D01*
X7918034Y-48335485D01*
X7892840Y-48270316D01*
X7906878Y-48201871D01*
X7918035Y-48184512D01*
X7921279Y-48180284D01*
X7921282Y-48180282D01*
X8017536Y-48054841D01*
X8078044Y-47908762D01*
X8098682Y-47752000D01*
X8082285Y-47627452D01*
X8093051Y-47558418D01*
X8139430Y-47506162D01*
X8206699Y-47487277D01*
X8273500Y-47507758D01*
X8292905Y-47523587D01*
X8634875Y-47865557D01*
X8668360Y-47926880D01*
X8670133Y-47969422D01*
X8665318Y-48005998D01*
X8665318Y-48006001D01*
X8685955Y-48162760D01*
X8685956Y-48162762D01*
X8726232Y-48259998D01*
X8746464Y-48308841D01*
X8770157Y-48339718D01*
X8797240Y-48375014D01*
X8822433Y-48440184D01*
X8808394Y-48508629D01*
X8797240Y-48525986D01*
X8746463Y-48592160D01*
X8685956Y-48738237D01*
X8685955Y-48738239D01*
X8665318Y-48894998D01*
X8665318Y-48895001D01*
X8685955Y-49051760D01*
X8685956Y-49051762D01*
X8746464Y-49197841D01*
X8842718Y-49323282D01*
X8968159Y-49419536D01*
X9114238Y-49480044D01*
X9192618Y-49490363D01*
X9270999Y-49500682D01*
X9271000Y-49500682D01*
X9271001Y-49500682D01*
X9323254Y-49493802D01*
X9427762Y-49480044D01*
X9573841Y-49419536D01*
X9699282Y-49323282D01*
X9795536Y-49197841D01*
X9856044Y-49051762D01*
X9876682Y-48895000D01*
X9856044Y-48738238D01*
X9795536Y-48592159D01*
X9795535Y-48592158D01*
X9795535Y-48592157D01*
X9771140Y-48560366D01*
X9744759Y-48525985D01*
X9719565Y-48460818D01*
X9733603Y-48392373D01*
X9744757Y-48375017D01*
X9795536Y-48308841D01*
X9856044Y-48162762D01*
X9876682Y-48006000D01*
X9871866Y-47969422D01*
X9856044Y-47849239D01*
X9856044Y-47849238D01*
X9795536Y-47703159D01*
X9795535Y-47703158D01*
X9795535Y-47703157D01*
X9758059Y-47654318D01*
X9744759Y-47636985D01*
X9719565Y-47571818D01*
X9733603Y-47503373D01*
X9744757Y-47486017D01*
X9795536Y-47419841D01*
X9856044Y-47273762D01*
X9876682Y-47117000D01*
X9856044Y-46960238D01*
X9795536Y-46814159D01*
X9699282Y-46688718D01*
X9573841Y-46592464D01*
X9427762Y-46531956D01*
X9427760Y-46531955D01*
X9271001Y-46511318D01*
X9270999Y-46511318D01*
X9114239Y-46531955D01*
X9114237Y-46531956D01*
X8968160Y-46592463D01*
X8968158Y-46592464D01*
X8968159Y-46592464D01*
X8842718Y-46688718D01*
X8842717Y-46688719D01*
X8842716Y-46688720D01*
X8758024Y-46799092D01*
X8701596Y-46840294D01*
X8631850Y-46844449D01*
X8571968Y-46811286D01*
X6210683Y-44450001D01*
X7014318Y-44450001D01*
X7034955Y-44606760D01*
X7034956Y-44606762D01*
X7095464Y-44752841D01*
X7191718Y-44878282D01*
X7317159Y-44974536D01*
X7463238Y-45035044D01*
X7541619Y-45045363D01*
X7619999Y-45055682D01*
X7620000Y-45055682D01*
X7620001Y-45055682D01*
X7672253Y-45048802D01*
X7776762Y-45035044D01*
X7922841Y-44974536D01*
X8048282Y-44878282D01*
X8144536Y-44752841D01*
X8205044Y-44606762D01*
X8220679Y-44487999D01*
X8471500Y-44487999D01*
X8475969Y-44521944D01*
X8476500Y-44530046D01*
X8476500Y-44703300D01*
X8505557Y-44830608D01*
X8562214Y-44948258D01*
X8562216Y-44948260D01*
X8562218Y-44948264D01*
X8583170Y-44974536D01*
X8643638Y-45050361D01*
X8667415Y-45069322D01*
X8745736Y-45131782D01*
X8745739Y-45131783D01*
X8745741Y-45131785D01*
X8863392Y-45188442D01*
X8863390Y-45188442D01*
X8990699Y-45217499D01*
X8990704Y-45217499D01*
X8990706Y-45217500D01*
X8990708Y-45217500D01*
X9121292Y-45217500D01*
X9121294Y-45217500D01*
X9121296Y-45217499D01*
X9121300Y-45217499D01*
X9248608Y-45188442D01*
X9366258Y-45131785D01*
X9366258Y-45131784D01*
X9366264Y-45131782D01*
X9468361Y-45050361D01*
X9549782Y-44948264D01*
X9583484Y-44878282D01*
X9606442Y-44830608D01*
X9635499Y-44703300D01*
X9635500Y-44703292D01*
X9635500Y-44536366D01*
X9655185Y-44469327D01*
X9707989Y-44423572D01*
X9777147Y-44413628D01*
X9811012Y-44423572D01*
X9862401Y-44447041D01*
X9862404Y-44447042D01*
X9969917Y-44462500D01*
X9969920Y-44462500D01*
X10642080Y-44462500D01*
X10642083Y-44462500D01*
X10749596Y-44447042D01*
X10749597Y-44447041D01*
X10749599Y-44447041D01*
X10822762Y-44413628D01*
X10881558Y-44386777D01*
X10991196Y-44291775D01*
X11069629Y-44169732D01*
X11110500Y-44030536D01*
X11110500Y-43885464D01*
X11089726Y-43814712D01*
X11069630Y-43746270D01*
X11069630Y-43746269D01*
X11022746Y-43673317D01*
X11002576Y-43641933D01*
X15201668Y-43641933D01*
X15228846Y-43796060D01*
X15232135Y-43814711D01*
X15301623Y-43975804D01*
X15301624Y-43975806D01*
X15301626Y-43975809D01*
X15391694Y-44096790D01*
X15406390Y-44116530D01*
X15540786Y-44229302D01*
X15562508Y-44240211D01*
X15697562Y-44308038D01*
X15697563Y-44308038D01*
X15697567Y-44308040D01*
X15868279Y-44348500D01*
X15868282Y-44348500D01*
X16599701Y-44348500D01*
X16599709Y-44348500D01*
X16730255Y-44333241D01*
X16895117Y-44273237D01*
X17036159Y-44180471D01*
X17041693Y-44176832D01*
X17041694Y-44176831D01*
X17041693Y-44176831D01*
X17041696Y-44176830D01*
X17162092Y-44049218D01*
X17249812Y-43897281D01*
X17300130Y-43729210D01*
X17310331Y-43554065D01*
X17279865Y-43381289D01*
X17210377Y-43220196D01*
X17185835Y-43187231D01*
X17105609Y-43079469D01*
X16971214Y-42966698D01*
X16971212Y-42966697D01*
X16814437Y-42887961D01*
X16814433Y-42887960D01*
X16643721Y-42847500D01*
X15912291Y-42847500D01*
X15807854Y-42859707D01*
X15781743Y-42862759D01*
X15781740Y-42862760D01*
X15616884Y-42922762D01*
X15616880Y-42922764D01*
X15470306Y-43019167D01*
X15470305Y-43019168D01*
X15349910Y-43146778D01*
X15262188Y-43298718D01*
X15211870Y-43466789D01*
X15211869Y-43466794D01*
X15201668Y-43641933D01*
X11002576Y-43641933D01*
X10991196Y-43624225D01*
X10881558Y-43529223D01*
X10881556Y-43529222D01*
X10749599Y-43468958D01*
X10749595Y-43468957D01*
X10669110Y-43457386D01*
X10642083Y-43453500D01*
X9969917Y-43453500D01*
X9956403Y-43455443D01*
X9862404Y-43468957D01*
X9862400Y-43468958D01*
X9730443Y-43529222D01*
X9730442Y-43529223D01*
X9620803Y-43624226D01*
X9542369Y-43746269D01*
X9542369Y-43746270D01*
X9536512Y-43766217D01*
X9498736Y-43824994D01*
X9435180Y-43854017D01*
X9366021Y-43844072D01*
X9363735Y-43842999D01*
X9248607Y-43787557D01*
X9248609Y-43787557D01*
X9121300Y-43758500D01*
X9121294Y-43758500D01*
X9100875Y-43758500D01*
X9056000Y-43758500D01*
X8990706Y-43758500D01*
X8990699Y-43758500D01*
X8863391Y-43787557D01*
X8745741Y-43844214D01*
X8745739Y-43844216D01*
X8745737Y-43844217D01*
X8745736Y-43844218D01*
X8735135Y-43852672D01*
X8643638Y-43925638D01*
X8576807Y-44009441D01*
X8567018Y-44021718D01*
X8562216Y-44027739D01*
X8562214Y-44027741D01*
X8505557Y-44145391D01*
X8476500Y-44272699D01*
X8476500Y-44445953D01*
X8475969Y-44454055D01*
X8471500Y-44487999D01*
X8220679Y-44487999D01*
X8224036Y-44462500D01*
X8225682Y-44450001D01*
X8225682Y-44449998D01*
X8205044Y-44293239D01*
X8205044Y-44293238D01*
X8144536Y-44147159D01*
X8048282Y-44021718D01*
X7922841Y-43925464D01*
X7854801Y-43897281D01*
X7776762Y-43864956D01*
X7776760Y-43864955D01*
X7620001Y-43844318D01*
X7619999Y-43844318D01*
X7463239Y-43864955D01*
X7463237Y-43864956D01*
X7317160Y-43925463D01*
X7191718Y-44021718D01*
X7095463Y-44147160D01*
X7034956Y-44293237D01*
X7034955Y-44293239D01*
X7014318Y-44449998D01*
X7014318Y-44450001D01*
X6210683Y-44450001D01*
X5631779Y-43871097D01*
X5598294Y-43809774D01*
X5603278Y-43740082D01*
X5604886Y-43735995D01*
X5665044Y-43590762D01*
X5685682Y-43434000D01*
X5665044Y-43277238D01*
X5604536Y-43131159D01*
X5508282Y-43005718D01*
X5508280Y-43005717D01*
X5508280Y-43005716D01*
X5466009Y-42973281D01*
X5444172Y-42956525D01*
X5402971Y-42900100D01*
X5398816Y-42830353D01*
X5400810Y-42822787D01*
X5413492Y-42780185D01*
X5414259Y-42777790D01*
X5430500Y-42730488D01*
X5430500Y-42730481D01*
X5431705Y-42723261D01*
X5432616Y-42715956D01*
X5432617Y-42715954D01*
X5432616Y-42715950D01*
X5433889Y-42705753D01*
X5435324Y-42705931D01*
X5449544Y-42648879D01*
X5481052Y-42613175D01*
X5508282Y-42592282D01*
X5604536Y-42466841D01*
X5604535Y-42466841D01*
X5604787Y-42466514D01*
X5661215Y-42425311D01*
X5703163Y-42418000D01*
X6742837Y-42418000D01*
X6809876Y-42437685D01*
X6841213Y-42466514D01*
X6934958Y-42588686D01*
X6937718Y-42592282D01*
X7063159Y-42688536D01*
X7209238Y-42749044D01*
X7287619Y-42759363D01*
X7365999Y-42769682D01*
X7366000Y-42769682D01*
X7366001Y-42769682D01*
X7418254Y-42762802D01*
X7522762Y-42749044D01*
X7668841Y-42688536D01*
X7794282Y-42592282D01*
X7830562Y-42545001D01*
X10824318Y-42545001D01*
X10844955Y-42701760D01*
X10844956Y-42701762D01*
X10902682Y-42841126D01*
X10905464Y-42847841D01*
X11001718Y-42973282D01*
X11127159Y-43069536D01*
X11273238Y-43130044D01*
X11318828Y-43136046D01*
X11429999Y-43150682D01*
X11430000Y-43150682D01*
X11430001Y-43150682D01*
X11482254Y-43143802D01*
X11586762Y-43130044D01*
X11732841Y-43069536D01*
X11858282Y-42973282D01*
X11954536Y-42847841D01*
X12015044Y-42701762D01*
X12035682Y-42545000D01*
X12015044Y-42388238D01*
X11954536Y-42242159D01*
X11858282Y-42116718D01*
X11732841Y-42020464D01*
X11586762Y-41959956D01*
X11586760Y-41959955D01*
X11430001Y-41939318D01*
X11429999Y-41939318D01*
X11273239Y-41959955D01*
X11273237Y-41959956D01*
X11127160Y-42020463D01*
X11001718Y-42116718D01*
X10905463Y-42242160D01*
X10844956Y-42388237D01*
X10844955Y-42388239D01*
X10824318Y-42544998D01*
X10824318Y-42545001D01*
X7830562Y-42545001D01*
X7890536Y-42466841D01*
X7890535Y-42466841D01*
X7890787Y-42466514D01*
X7947215Y-42425311D01*
X7989163Y-42418000D01*
X10414000Y-42418000D01*
X10414000Y-41783001D01*
X12729318Y-41783001D01*
X12749955Y-41939760D01*
X12749956Y-41939762D01*
X12783383Y-42020463D01*
X12810464Y-42085841D01*
X12906718Y-42211282D01*
X13032159Y-42307536D01*
X13178238Y-42368044D01*
X13256618Y-42378363D01*
X13334999Y-42388682D01*
X13335000Y-42388682D01*
X13335001Y-42388682D01*
X13387254Y-42381802D01*
X13491762Y-42368044D01*
X13637841Y-42307536D01*
X13763282Y-42211282D01*
X13859536Y-42085841D01*
X13920044Y-41939762D01*
X13940682Y-41783001D01*
X16031318Y-41783001D01*
X16051955Y-41939760D01*
X16051956Y-41939762D01*
X16085383Y-42020463D01*
X16112464Y-42085841D01*
X16208718Y-42211282D01*
X16334159Y-42307536D01*
X16480238Y-42368044D01*
X16558619Y-42378363D01*
X16636999Y-42388682D01*
X16637000Y-42388682D01*
X16637001Y-42388682D01*
X16689254Y-42381802D01*
X16793762Y-42368044D01*
X16939841Y-42307536D01*
X17065282Y-42211282D01*
X17158850Y-42089341D01*
X17215277Y-42048139D01*
X17285023Y-42043984D01*
X17345943Y-42078196D01*
X17347961Y-42080525D01*
X17351713Y-42084277D01*
X17351715Y-42084279D01*
X17351718Y-42084282D01*
X17477159Y-42180536D01*
X17623238Y-42241044D01*
X17701619Y-42251363D01*
X17779999Y-42261682D01*
X17780000Y-42261682D01*
X17780001Y-42261682D01*
X17832254Y-42254802D01*
X17936762Y-42241044D01*
X18082841Y-42180536D01*
X18208282Y-42084282D01*
X18304536Y-41958841D01*
X18365044Y-41812762D01*
X18385682Y-41656000D01*
X18365044Y-41499238D01*
X18304536Y-41353159D01*
X18208282Y-41227718D01*
X18082841Y-41131464D01*
X17936762Y-41070956D01*
X17936760Y-41070955D01*
X17780001Y-41050318D01*
X17779999Y-41050318D01*
X17623239Y-41070955D01*
X17623237Y-41070956D01*
X17477160Y-41131463D01*
X17477158Y-41131464D01*
X17477159Y-41131464D01*
X17351718Y-41227718D01*
X17351717Y-41227719D01*
X17351716Y-41227720D01*
X17258149Y-41349658D01*
X17201721Y-41390860D01*
X17131975Y-41395015D01*
X17071055Y-41360802D01*
X17069038Y-41358474D01*
X17065286Y-41354722D01*
X17065283Y-41354720D01*
X17065282Y-41354718D01*
X16939841Y-41258464D01*
X16793762Y-41197956D01*
X16793760Y-41197955D01*
X16637001Y-41177318D01*
X16636999Y-41177318D01*
X16480239Y-41197955D01*
X16480237Y-41197956D01*
X16334160Y-41258463D01*
X16208718Y-41354718D01*
X16112463Y-41480160D01*
X16051956Y-41626237D01*
X16051955Y-41626239D01*
X16031318Y-41782998D01*
X16031318Y-41783001D01*
X13940682Y-41783001D01*
X13940682Y-41783000D01*
X13920044Y-41626238D01*
X13859536Y-41480159D01*
X13763282Y-41354718D01*
X13637841Y-41258464D01*
X13491762Y-41197956D01*
X13491760Y-41197955D01*
X13335001Y-41177318D01*
X13334999Y-41177318D01*
X13178239Y-41197955D01*
X13178237Y-41197956D01*
X13032160Y-41258463D01*
X12906718Y-41354718D01*
X12810463Y-41480160D01*
X12749956Y-41626237D01*
X12749955Y-41626239D01*
X12729318Y-41782998D01*
X12729318Y-41783001D01*
X10414000Y-41783001D01*
X10414000Y-37462000D01*
X10433685Y-37394961D01*
X10486489Y-37349206D01*
X10538000Y-37338000D01*
X11754000Y-37338000D01*
X11821039Y-37357685D01*
X11866794Y-37410489D01*
X11878000Y-37462000D01*
X11878000Y-37575579D01*
X11877764Y-37580986D01*
X11874368Y-37619787D01*
X11884451Y-37657415D01*
X11885622Y-37662698D01*
X11892385Y-37701053D01*
X11894730Y-37707494D01*
X11900131Y-37720535D01*
X11903029Y-37726749D01*
X11925366Y-37758649D01*
X11928273Y-37763212D01*
X11947749Y-37796946D01*
X11947750Y-37796948D01*
X11977591Y-37821988D01*
X11981581Y-37825644D01*
X12466349Y-38310412D01*
X12470005Y-38314401D01*
X12495049Y-38344248D01*
X12495051Y-38344249D01*
X12528797Y-38363731D01*
X12533345Y-38366629D01*
X12533354Y-38366635D01*
X12565249Y-38388969D01*
X12571505Y-38391886D01*
X12584473Y-38397257D01*
X12590943Y-38399612D01*
X12590949Y-38399615D01*
X12629309Y-38406378D01*
X12634564Y-38407543D01*
X12672210Y-38417631D01*
X12711013Y-38414235D01*
X12716417Y-38414000D01*
X14334580Y-38414000D01*
X14339980Y-38414235D01*
X14378789Y-38417631D01*
X14416435Y-38407542D01*
X14421667Y-38406382D01*
X14460051Y-38399615D01*
X14460055Y-38399612D01*
X14466562Y-38397244D01*
X14479470Y-38391897D01*
X14485741Y-38388971D01*
X14485749Y-38388970D01*
X14517658Y-38366625D01*
X14522211Y-38363726D01*
X14522213Y-38363725D01*
X14539057Y-38354001D01*
X16920318Y-38354001D01*
X16940955Y-38510760D01*
X16940956Y-38510762D01*
X17001464Y-38656841D01*
X17097718Y-38782282D01*
X17223159Y-38878536D01*
X17369238Y-38939044D01*
X17447619Y-38949363D01*
X17525999Y-38959682D01*
X17526000Y-38959682D01*
X17526001Y-38959682D01*
X17578254Y-38952802D01*
X17682762Y-38939044D01*
X17828841Y-38878536D01*
X17954282Y-38782282D01*
X18050536Y-38656841D01*
X18111044Y-38510762D01*
X18131682Y-38354000D01*
X18130781Y-38347159D01*
X18111044Y-38197239D01*
X18111044Y-38197238D01*
X18050536Y-38051159D01*
X17954282Y-37925718D01*
X17828841Y-37829464D01*
X17810792Y-37821988D01*
X17682762Y-37768956D01*
X17682760Y-37768955D01*
X17526001Y-37748318D01*
X17525999Y-37748318D01*
X17369239Y-37768955D01*
X17369237Y-37768956D01*
X17223160Y-37829463D01*
X17097718Y-37925718D01*
X17001463Y-38051160D01*
X16940956Y-38197237D01*
X16940955Y-38197239D01*
X16920318Y-38353998D01*
X16920318Y-38354001D01*
X14539057Y-38354001D01*
X14555949Y-38344249D01*
X14581004Y-38314388D01*
X14584634Y-38310427D01*
X14926944Y-37968117D01*
X14988265Y-37934634D01*
X15030809Y-37932861D01*
X15112999Y-37943682D01*
X15113000Y-37943682D01*
X15113001Y-37943682D01*
X15165253Y-37936802D01*
X15269762Y-37923044D01*
X15415841Y-37862536D01*
X15541282Y-37766282D01*
X15637536Y-37640841D01*
X15698044Y-37494762D01*
X15718682Y-37338000D01*
X15707860Y-37255809D01*
X15718626Y-37186774D01*
X15743116Y-37151945D01*
X16446060Y-36449001D01*
X17047318Y-36449001D01*
X17067955Y-36605760D01*
X17067956Y-36605762D01*
X17128464Y-36751841D01*
X17224718Y-36877282D01*
X17350159Y-36973536D01*
X17496238Y-37034044D01*
X17559215Y-37042335D01*
X17652999Y-37054682D01*
X17653000Y-37054682D01*
X17653001Y-37054682D01*
X17705253Y-37047802D01*
X17809762Y-37034044D01*
X17955841Y-36973536D01*
X18081282Y-36877282D01*
X18177536Y-36751841D01*
X18238044Y-36605762D01*
X18258682Y-36449000D01*
X18257360Y-36438961D01*
X18238044Y-36292239D01*
X18238044Y-36292238D01*
X18177536Y-36146159D01*
X18081282Y-36020718D01*
X17955841Y-35924464D01*
X17915475Y-35907744D01*
X17809762Y-35863956D01*
X17809760Y-35863955D01*
X17653001Y-35843318D01*
X17652999Y-35843318D01*
X17496239Y-35863955D01*
X17496237Y-35863956D01*
X17350157Y-35924464D01*
X17224717Y-36020717D01*
X17128464Y-36146157D01*
X17067956Y-36292237D01*
X17067955Y-36292239D01*
X17047318Y-36448998D01*
X17047318Y-36449001D01*
X16446060Y-36449001D01*
X17042456Y-35852605D01*
X17046277Y-35850519D01*
X17056601Y-35838460D01*
X18498427Y-34396634D01*
X18502388Y-34393004D01*
X18532249Y-34367949D01*
X18532249Y-34367948D01*
X18540563Y-34360973D01*
X18542968Y-34363839D01*
X18584675Y-34336088D01*
X18654535Y-34334976D01*
X18713908Y-34371809D01*
G37*
%TD.AperFunction*%
%TA.AperFunction,Conductor*%
G36*
X17155039Y-27959685D02*
G01*
X17200794Y-28012489D01*
X17212000Y-28064000D01*
X17212000Y-33600574D01*
X17192315Y-33667613D01*
X17175681Y-33688255D01*
X16639794Y-34224141D01*
X16578471Y-34257626D01*
X16508779Y-34252642D01*
X16504661Y-34251021D01*
X16412765Y-34212957D01*
X16412760Y-34212955D01*
X16256001Y-34192318D01*
X16255999Y-34192318D01*
X16099239Y-34212955D01*
X16099237Y-34212956D01*
X15953160Y-34273463D01*
X15827718Y-34369718D01*
X15731463Y-34495160D01*
X15670956Y-34641237D01*
X15670955Y-34641239D01*
X15650318Y-34797998D01*
X15650318Y-34798001D01*
X15670955Y-34954760D01*
X15670957Y-34954765D01*
X15709021Y-35046661D01*
X15716490Y-35116130D01*
X15685214Y-35178609D01*
X15682142Y-35181794D01*
X15400254Y-35463682D01*
X15338934Y-35497166D01*
X15312575Y-35500000D01*
X14233155Y-35500000D01*
X14166116Y-35480315D01*
X14120361Y-35427511D01*
X14110417Y-35358353D01*
X14139442Y-35294797D01*
X14148779Y-35285134D01*
X14504566Y-34954760D01*
X15494000Y-34036000D01*
X15494000Y-29972000D01*
X15494000Y-28656362D01*
X15513685Y-28589323D01*
X15566489Y-28543568D01*
X15619524Y-28534515D01*
X15619524Y-28532500D01*
X15794337Y-28532500D01*
X15794343Y-28532500D01*
X15952443Y-28518270D01*
X15962906Y-28517329D01*
X16180570Y-28457258D01*
X16180575Y-28457255D01*
X16180582Y-28457254D01*
X16384033Y-28359277D01*
X16566721Y-28226547D01*
X16722772Y-28063330D01*
X16767422Y-27995687D01*
X16820782Y-27950583D01*
X16870909Y-27940000D01*
X17088000Y-27940000D01*
X17155039Y-27959685D01*
G37*
%TD.AperFunction*%
%TD*%
%TA.AperFunction,Conductor*%
%TO.N,Sensor_GND*%
G36*
X8588432Y-35394930D02*
G01*
X8634187Y-35447734D01*
X8644131Y-35516892D01*
X8636000Y-35534696D01*
X8636000Y-41024000D01*
X8616315Y-41091039D01*
X8563511Y-41136794D01*
X8512000Y-41148000D01*
X2410000Y-41148000D01*
X2342961Y-41128315D01*
X2297206Y-41075511D01*
X2286000Y-41024000D01*
X2286000Y-38030000D01*
X2305685Y-37962961D01*
X2358489Y-37917206D01*
X2410000Y-37906000D01*
X3793580Y-37906000D01*
X3798980Y-37906235D01*
X3837789Y-37909631D01*
X3875435Y-37899542D01*
X3880667Y-37898382D01*
X3919051Y-37891615D01*
X3919055Y-37891612D01*
X3925562Y-37889244D01*
X3938470Y-37883897D01*
X3944741Y-37880971D01*
X3944749Y-37880970D01*
X3976658Y-37858625D01*
X3981211Y-37855726D01*
X4014949Y-37836249D01*
X4040004Y-37806388D01*
X4043633Y-37802428D01*
X4665743Y-37180319D01*
X4727067Y-37146834D01*
X4753425Y-37144000D01*
X5063580Y-37144000D01*
X5068980Y-37144235D01*
X5107789Y-37147631D01*
X5145435Y-37137542D01*
X5150667Y-37136382D01*
X5189051Y-37129615D01*
X5189055Y-37129612D01*
X5195562Y-37127244D01*
X5208470Y-37121897D01*
X5214741Y-37118971D01*
X5214749Y-37118970D01*
X5246658Y-37096625D01*
X5251211Y-37093726D01*
X5284949Y-37074249D01*
X5310004Y-37044388D01*
X5313634Y-37040427D01*
X6942498Y-35411564D01*
X7003822Y-35378079D01*
X7030180Y-35375245D01*
X8521393Y-35375245D01*
X8588432Y-35394930D01*
G37*
%TD.AperFunction*%
%TA.AperFunction,Conductor*%
G36*
X-7423461Y-274185D02*
G01*
X-7377706Y-326989D01*
X-7366500Y-378500D01*
X-7366500Y-2502718D01*
X-7368882Y-2526906D01*
X-7371486Y-2540000D01*
X-7367689Y-2559086D01*
X-7367689Y-2559092D01*
X-7360568Y-2594891D01*
X-7351734Y-2639301D01*
X-7295484Y-2723484D01*
X-7211301Y-2779734D01*
X-7211298Y-2779734D01*
X-7211298Y-2779735D01*
X-7112002Y-2799486D01*
X-7112000Y-2799486D01*
X-7098907Y-2796882D01*
X-7074718Y-2794500D01*
X7074718Y-2794500D01*
X7098907Y-2796882D01*
X7112000Y-2799486D01*
X7112002Y-2799486D01*
X7211298Y-2779735D01*
X7211298Y-2779734D01*
X7211301Y-2779734D01*
X7295484Y-2723484D01*
X7351734Y-2639301D01*
X7360568Y-2594891D01*
X7367689Y-2559092D01*
X7367689Y-2559086D01*
X7371486Y-2540000D01*
X7368882Y-2526906D01*
X7366500Y-2502718D01*
X7366500Y-378500D01*
X7386185Y-311461D01*
X7438989Y-265706D01*
X7490500Y-254500D01*
X18621500Y-254500D01*
X18688539Y-274185D01*
X18734294Y-326989D01*
X18745500Y-378500D01*
X18745500Y-4433946D01*
X18725815Y-4500985D01*
X18673011Y-4546740D01*
X18603853Y-4556684D01*
X18574048Y-4548507D01*
X18444765Y-4494957D01*
X18444760Y-4494955D01*
X18288001Y-4474318D01*
X18287999Y-4474318D01*
X18131239Y-4494955D01*
X18131237Y-4494956D01*
X17985160Y-4555463D01*
X17859718Y-4651718D01*
X17763463Y-4777160D01*
X17702956Y-4923237D01*
X17702955Y-4923239D01*
X17682318Y-5079998D01*
X17682318Y-5080001D01*
X17702955Y-5236760D01*
X17702956Y-5236762D01*
X17763464Y-5382841D01*
X17859718Y-5508282D01*
X17985159Y-5604536D01*
X18131238Y-5665044D01*
X18131239Y-5665044D01*
X18136097Y-5666346D01*
X18195757Y-5702713D01*
X18226284Y-5765561D01*
X18228000Y-5786120D01*
X18228000Y-8446915D01*
X18208315Y-8513954D01*
X18155511Y-8559709D01*
X18086353Y-8569653D01*
X18056553Y-8561479D01*
X18050462Y-8558956D01*
X18050460Y-8558955D01*
X17893701Y-8538318D01*
X17893699Y-8538318D01*
X17736939Y-8558955D01*
X17736937Y-8558956D01*
X17590860Y-8619463D01*
X17465418Y-8715718D01*
X17369163Y-8841160D01*
X17308656Y-8987237D01*
X17308655Y-8987239D01*
X17288018Y-9143998D01*
X17288018Y-9144001D01*
X17308655Y-9300760D01*
X17308656Y-9300762D01*
X17369164Y-9446841D01*
X17465417Y-9572281D01*
X17465419Y-9572283D01*
X17531186Y-9622747D01*
X17572389Y-9679175D01*
X17579700Y-9721123D01*
X17579700Y-10740275D01*
X17560015Y-10807314D01*
X17507211Y-10853069D01*
X17438053Y-10863013D01*
X17374497Y-10833988D01*
X17368019Y-10827956D01*
X15607440Y-9067377D01*
X15573955Y-9006054D01*
X15572181Y-8995877D01*
X15571044Y-8987240D01*
X15571044Y-8987239D01*
X15571044Y-8987238D01*
X15510536Y-8841159D01*
X15414282Y-8715718D01*
X15288841Y-8619464D01*
X15142762Y-8558956D01*
X15142760Y-8558955D01*
X14986001Y-8538318D01*
X14985999Y-8538318D01*
X14829239Y-8558955D01*
X14829237Y-8558956D01*
X14683160Y-8619463D01*
X14557718Y-8715718D01*
X14461463Y-8841160D01*
X14400956Y-8987237D01*
X14400955Y-8987239D01*
X14380318Y-9143998D01*
X14380318Y-9144001D01*
X14400955Y-9300760D01*
X14400956Y-9300762D01*
X14461464Y-9446841D01*
X14557718Y-9572282D01*
X14683159Y-9668536D01*
X14829238Y-9729044D01*
X14881611Y-9735939D01*
X14985999Y-9749682D01*
X14986000Y-9749682D01*
X14986001Y-9749682D01*
X15038254Y-9742802D01*
X15142762Y-9729044D01*
X15234661Y-9690977D01*
X15304131Y-9683509D01*
X15366610Y-9714784D01*
X15369795Y-9717858D01*
X17175681Y-11523744D01*
X17209166Y-11585067D01*
X17212000Y-11611425D01*
X17212000Y-26800000D01*
X17192315Y-26867039D01*
X17139511Y-26912794D01*
X17088000Y-26924000D01*
X17032129Y-26924000D01*
X16965090Y-26904315D01*
X16919335Y-26851511D01*
X16914198Y-26838317D01*
X16901748Y-26800000D01*
X16896211Y-26782957D01*
X16789204Y-26584106D01*
X16648411Y-26407558D01*
X16568614Y-26337841D01*
X16478360Y-26258988D01*
X16374146Y-26196723D01*
X16284507Y-26143166D01*
X16166154Y-26098747D01*
X16073091Y-26063819D01*
X15850910Y-26023500D01*
X15850907Y-26023500D01*
X15681657Y-26023500D01*
X15650271Y-26026324D01*
X15513093Y-26038670D01*
X15295429Y-26098741D01*
X15295414Y-26098747D01*
X15091973Y-26196719D01*
X15091965Y-26196723D01*
X14909284Y-26329448D01*
X14909282Y-26329449D01*
X14753226Y-26492671D01*
X14628825Y-26681130D01*
X14555001Y-26853852D01*
X14510553Y-26907760D01*
X14488435Y-26919677D01*
X14478000Y-26923999D01*
X13207999Y-28194000D01*
X13208000Y-35376000D01*
X13188315Y-35443039D01*
X13135511Y-35488794D01*
X13084000Y-35500000D01*
X12373425Y-35500000D01*
X12306386Y-35480315D01*
X12285744Y-35463681D01*
X11155644Y-34333581D01*
X11151988Y-34329591D01*
X11126948Y-34299750D01*
X11126946Y-34299749D01*
X11093212Y-34280273D01*
X11088649Y-34277366D01*
X11056749Y-34255029D01*
X11050535Y-34252131D01*
X11037494Y-34246730D01*
X11031053Y-34244385D01*
X10992698Y-34237622D01*
X10987415Y-34236451D01*
X10949786Y-34226368D01*
X10916669Y-34229266D01*
X10910981Y-34229764D01*
X10905579Y-34230000D01*
X6366421Y-34230000D01*
X6361018Y-34229764D01*
X6352942Y-34229057D01*
X6322209Y-34226368D01*
X6284581Y-34236451D01*
X6279300Y-34237622D01*
X6248843Y-34242992D01*
X6240949Y-34244385D01*
X6240948Y-34244385D01*
X6240944Y-34244386D01*
X6234512Y-34246727D01*
X6221455Y-34252135D01*
X6215252Y-34255027D01*
X6183339Y-34277373D01*
X6178777Y-34280279D01*
X6145053Y-34299749D01*
X6145047Y-34299755D01*
X6120011Y-34329591D01*
X6116356Y-34333580D01*
X5351681Y-35098255D01*
X5290358Y-35131740D01*
X5220667Y-35126756D01*
X5164733Y-35084884D01*
X5140316Y-35019420D01*
X5140000Y-35010574D01*
X5140000Y-33458000D01*
X5159685Y-33390961D01*
X5212489Y-33345206D01*
X5264000Y-33334000D01*
X5518877Y-33334000D01*
X5585916Y-33353685D01*
X5617252Y-33382513D01*
X5667718Y-33448282D01*
X5793159Y-33544536D01*
X5939238Y-33605044D01*
X6017619Y-33615363D01*
X6095999Y-33625682D01*
X6096000Y-33625682D01*
X6096001Y-33625682D01*
X6148253Y-33618802D01*
X6252762Y-33605044D01*
X6398841Y-33544536D01*
X6524282Y-33448282D01*
X6620536Y-33322841D01*
X6681044Y-33176762D01*
X6698071Y-33047427D01*
X6701682Y-33020001D01*
X6701682Y-33019998D01*
X6681044Y-32863239D01*
X6681044Y-32863238D01*
X6620536Y-32717159D01*
X6524282Y-32591718D01*
X6398841Y-32495464D01*
X6252762Y-32434956D01*
X6252760Y-32434955D01*
X6096001Y-32414318D01*
X6095999Y-32414318D01*
X5939239Y-32434955D01*
X5939237Y-32434956D01*
X5793160Y-32495463D01*
X5667716Y-32591719D01*
X5617253Y-32657486D01*
X5560825Y-32698689D01*
X5518877Y-32706000D01*
X5264000Y-32706000D01*
X5196961Y-32686315D01*
X5151206Y-32633511D01*
X5140000Y-32582000D01*
X5140000Y-31004416D01*
X5140236Y-30999008D01*
X5141200Y-30988000D01*
X5143631Y-30960211D01*
X5133545Y-30922575D01*
X5132379Y-30917314D01*
X5125615Y-30878949D01*
X5125614Y-30878947D01*
X5123260Y-30872480D01*
X5117886Y-30859505D01*
X5114969Y-30853249D01*
X5099556Y-30831238D01*
X5092629Y-30821345D01*
X5089731Y-30816797D01*
X5070249Y-30783051D01*
X5070248Y-30783049D01*
X5040401Y-30758005D01*
X5036412Y-30754349D01*
X3906319Y-29624255D01*
X3872834Y-29562932D01*
X3870000Y-29536574D01*
X3870000Y-22733001D01*
X4728318Y-22733001D01*
X4748955Y-22889760D01*
X4748956Y-22889762D01*
X4796890Y-23005486D01*
X4809464Y-23035841D01*
X4905718Y-23161282D01*
X4905720Y-23161284D01*
X4975352Y-23214715D01*
X5016555Y-23271143D01*
X5019641Y-23280999D01*
X5026450Y-23306416D01*
X5027621Y-23311696D01*
X5034385Y-23350053D01*
X5036730Y-23356494D01*
X5042131Y-23369535D01*
X5045029Y-23375749D01*
X5067366Y-23407649D01*
X5070273Y-23412212D01*
X5089749Y-23445946D01*
X5089751Y-23445949D01*
X5097721Y-23452637D01*
X5119591Y-23470988D01*
X5123581Y-23474644D01*
X8233420Y-26584483D01*
X8266905Y-26645806D01*
X8261921Y-26715498D01*
X8220049Y-26771431D01*
X8207743Y-26779549D01*
X8206163Y-26780460D01*
X8080718Y-26876718D01*
X7984463Y-27002160D01*
X7923956Y-27148237D01*
X7923955Y-27148239D01*
X7903318Y-27304998D01*
X7903318Y-27305001D01*
X7923955Y-27461760D01*
X7923956Y-27461762D01*
X7963935Y-27558281D01*
X7984464Y-27607841D01*
X8080718Y-27733282D01*
X8206159Y-27829536D01*
X8352238Y-27890044D01*
X8426806Y-27899861D01*
X8508999Y-27910682D01*
X8509000Y-27910682D01*
X8509001Y-27910682D01*
X8558897Y-27904112D01*
X8591189Y-27899861D01*
X8660224Y-27910626D01*
X8695056Y-27935119D01*
X10444583Y-29684646D01*
X10478068Y-29745969D01*
X10473084Y-29815661D01*
X10455278Y-29847813D01*
X10397464Y-29923157D01*
X10336956Y-30069237D01*
X10336955Y-30069239D01*
X10316318Y-30225998D01*
X10316318Y-30226001D01*
X10336955Y-30382760D01*
X10336956Y-30382762D01*
X10375602Y-30476063D01*
X10397464Y-30528841D01*
X10493718Y-30654282D01*
X10619159Y-30750536D01*
X10765238Y-30811044D01*
X10843543Y-30821353D01*
X10921999Y-30831682D01*
X10922000Y-30831682D01*
X10922001Y-30831682D01*
X10974253Y-30824802D01*
X11078762Y-30811044D01*
X11224841Y-30750536D01*
X11350282Y-30654282D01*
X11446536Y-30528841D01*
X11507044Y-30382762D01*
X11527682Y-30226000D01*
X11507044Y-30069238D01*
X11446536Y-29923159D01*
X11350282Y-29797718D01*
X11350280Y-29797717D01*
X11350280Y-29797716D01*
X11280649Y-29744287D01*
X11239446Y-29687859D01*
X11236361Y-29678008D01*
X11229544Y-29652569D01*
X11228377Y-29647300D01*
X11221615Y-29608949D01*
X11221612Y-29608943D01*
X11219257Y-29602473D01*
X11213886Y-29589505D01*
X11210969Y-29583249D01*
X11188634Y-29551353D01*
X11185731Y-29546797D01*
X11166249Y-29513051D01*
X11166248Y-29513049D01*
X11136401Y-29488005D01*
X11132412Y-29484349D01*
X10181579Y-28533516D01*
X10148094Y-28472193D01*
X10153078Y-28402501D01*
X10194950Y-28346568D01*
X10207271Y-28338441D01*
X10208827Y-28337541D01*
X10208841Y-28337536D01*
X10334282Y-28241282D01*
X10430536Y-28115841D01*
X10491044Y-27969762D01*
X10511682Y-27813000D01*
X10491044Y-27656238D01*
X10430536Y-27510159D01*
X10334282Y-27384718D01*
X10208841Y-27288464D01*
X10062762Y-27227956D01*
X10062760Y-27227955D01*
X9906001Y-27207318D01*
X9905999Y-27207318D01*
X9823809Y-27218138D01*
X9754773Y-27207372D01*
X9719943Y-27182880D01*
X5811416Y-23274353D01*
X5777931Y-23213030D01*
X5782915Y-23143338D01*
X5800720Y-23111188D01*
X5858536Y-23035841D01*
X5919044Y-22889762D01*
X5922962Y-22860001D01*
X6506318Y-22860001D01*
X6526955Y-23016760D01*
X6526956Y-23016762D01*
X6579385Y-23143338D01*
X6587464Y-23162841D01*
X6683718Y-23288282D01*
X6809159Y-23384536D01*
X6955238Y-23445044D01*
X7029806Y-23454861D01*
X7111999Y-23465682D01*
X7112000Y-23465682D01*
X7112001Y-23465682D01*
X7171867Y-23457800D01*
X7194189Y-23454861D01*
X7263224Y-23465626D01*
X7298056Y-23490119D01*
X7386349Y-23578412D01*
X7390005Y-23582401D01*
X7415049Y-23612248D01*
X7415051Y-23612249D01*
X7448797Y-23631731D01*
X7453345Y-23634629D01*
X7458925Y-23638536D01*
X7485249Y-23656969D01*
X7491505Y-23659886D01*
X7504473Y-23665257D01*
X7510943Y-23667612D01*
X7510949Y-23667615D01*
X7549309Y-23674378D01*
X7554564Y-23675543D01*
X7592210Y-23685631D01*
X7631013Y-23682235D01*
X7636417Y-23682000D01*
X8566877Y-23682000D01*
X8633916Y-23701685D01*
X8665252Y-23730513D01*
X8715718Y-23796282D01*
X8841159Y-23892536D01*
X8987238Y-23953044D01*
X9065619Y-23963363D01*
X9143999Y-23973682D01*
X9144000Y-23973682D01*
X9144001Y-23973682D01*
X9196253Y-23966802D01*
X9300762Y-23953044D01*
X9446841Y-23892536D01*
X9572282Y-23796282D01*
X9668536Y-23670841D01*
X9729044Y-23524762D01*
X9749682Y-23368000D01*
X9748918Y-23362200D01*
X9729044Y-23211239D01*
X9729044Y-23211238D01*
X9668536Y-23065159D01*
X9572282Y-22939718D01*
X9446841Y-22843464D01*
X9368852Y-22811160D01*
X9300762Y-22782956D01*
X9300760Y-22782955D01*
X9144001Y-22762318D01*
X9143999Y-22762318D01*
X8987239Y-22782955D01*
X8987237Y-22782956D01*
X8841160Y-22843463D01*
X8715716Y-22939719D01*
X8665253Y-23005486D01*
X8608825Y-23046689D01*
X8566877Y-23054000D01*
X7833536Y-23054000D01*
X7766497Y-23034315D01*
X7720742Y-22981511D01*
X7710597Y-22913814D01*
X7717682Y-22860000D01*
X7717682Y-22859998D01*
X7697044Y-22703239D01*
X7697044Y-22703238D01*
X7636536Y-22557159D01*
X7540282Y-22431718D01*
X7414841Y-22335464D01*
X7268762Y-22274956D01*
X7268760Y-22274955D01*
X7112001Y-22254318D01*
X7111999Y-22254318D01*
X6955239Y-22274955D01*
X6955237Y-22274956D01*
X6809160Y-22335463D01*
X6683718Y-22431718D01*
X6587463Y-22557160D01*
X6526956Y-22703237D01*
X6526955Y-22703239D01*
X6506318Y-22859998D01*
X6506318Y-22860001D01*
X5922962Y-22860001D01*
X5939682Y-22733000D01*
X5919044Y-22576238D01*
X5858536Y-22430159D01*
X5762282Y-22304718D01*
X5636841Y-22208464D01*
X5490762Y-22147956D01*
X5490760Y-22147955D01*
X5334001Y-22127318D01*
X5333999Y-22127318D01*
X5177239Y-22147955D01*
X5177237Y-22147956D01*
X5031160Y-22208463D01*
X4905718Y-22304718D01*
X4809463Y-22430160D01*
X4748956Y-22576237D01*
X4748955Y-22576239D01*
X4728318Y-22732998D01*
X4728318Y-22733001D01*
X3870000Y-22733001D01*
X3870000Y-18812416D01*
X3870236Y-18807008D01*
X3873631Y-18768211D01*
X3863548Y-18730586D01*
X3862379Y-18725314D01*
X3855615Y-18686949D01*
X3855614Y-18686947D01*
X3853260Y-18680480D01*
X3847886Y-18667505D01*
X3844969Y-18661249D01*
X3822634Y-18629353D01*
X3819731Y-18624797D01*
X3800249Y-18591051D01*
X3800248Y-18591049D01*
X3770401Y-18566005D01*
X3766423Y-18562360D01*
X3652315Y-18448252D01*
X3618833Y-18386934D01*
X3616000Y-18360584D01*
X3616000Y-16691425D01*
X3635685Y-16624385D01*
X3652319Y-16603744D01*
X3825748Y-16430315D01*
X4014668Y-16241394D01*
X4075989Y-16207911D01*
X4145680Y-16212895D01*
X4201614Y-16254766D01*
X4226031Y-16320231D01*
X4225286Y-16345262D01*
X4220318Y-16382998D01*
X4220318Y-16383001D01*
X4240955Y-16539760D01*
X4240956Y-16539762D01*
X4281232Y-16636998D01*
X4301464Y-16685841D01*
X4397718Y-16811282D01*
X4523159Y-16907536D01*
X4669238Y-16968044D01*
X4747619Y-16978363D01*
X4825999Y-16988682D01*
X4826000Y-16988682D01*
X4826001Y-16988682D01*
X4878254Y-16981802D01*
X4982762Y-16968044D01*
X5128841Y-16907536D01*
X5254282Y-16811282D01*
X5350536Y-16685841D01*
X5411044Y-16539762D01*
X5431682Y-16383000D01*
X5425457Y-16335719D01*
X5414800Y-16254766D01*
X5411044Y-16226238D01*
X5350536Y-16080159D01*
X5254282Y-15954718D01*
X5212011Y-15922282D01*
X5188512Y-15904250D01*
X5147310Y-15847821D01*
X5140000Y-15805875D01*
X5140000Y-15675425D01*
X5159685Y-15608386D01*
X5176319Y-15587744D01*
X5204205Y-15559858D01*
X5265528Y-15526373D01*
X5335220Y-15531357D01*
X5339332Y-15532975D01*
X5431238Y-15571044D01*
X5509619Y-15581363D01*
X5587999Y-15591682D01*
X5588000Y-15591682D01*
X5588001Y-15591682D01*
X5640253Y-15584802D01*
X5744762Y-15571044D01*
X5890841Y-15510536D01*
X6016282Y-15414282D01*
X6112536Y-15288841D01*
X6173044Y-15142762D01*
X6193682Y-14986000D01*
X6173044Y-14829238D01*
X6112536Y-14683159D01*
X6016282Y-14557718D01*
X5948558Y-14505751D01*
X5907357Y-14449325D01*
X5903202Y-14379579D01*
X5936363Y-14319698D01*
X6048896Y-14207165D01*
X6110217Y-14173682D01*
X6179909Y-14178666D01*
X6235842Y-14220538D01*
X6259514Y-14278662D01*
X6269288Y-14352904D01*
X6272956Y-14380762D01*
X6333464Y-14526841D01*
X6429718Y-14652282D01*
X6555159Y-14748536D01*
X6701238Y-14809044D01*
X6775806Y-14818861D01*
X6857999Y-14829682D01*
X6858000Y-14829682D01*
X6858001Y-14829682D01*
X6907897Y-14823112D01*
X6940189Y-14818861D01*
X7009224Y-14829626D01*
X7044056Y-14854119D01*
X7269682Y-15079745D01*
X7303166Y-15141066D01*
X7306000Y-15167424D01*
X7306000Y-15987011D01*
X7286315Y-16054050D01*
X7233511Y-16099805D01*
X7164353Y-16109749D01*
X7134548Y-16101572D01*
X7014765Y-16051957D01*
X7014760Y-16051955D01*
X6858001Y-16031318D01*
X6857999Y-16031318D01*
X6701239Y-16051955D01*
X6701237Y-16051956D01*
X6555160Y-16112463D01*
X6429718Y-16208718D01*
X6333463Y-16334160D01*
X6272956Y-16480237D01*
X6272955Y-16480239D01*
X6252318Y-16636998D01*
X6252318Y-16637001D01*
X6272955Y-16793760D01*
X6272956Y-16793762D01*
X6321781Y-16911637D01*
X6333464Y-16939841D01*
X6429718Y-17065282D01*
X6555159Y-17161536D01*
X6701238Y-17222044D01*
X6749608Y-17228412D01*
X6857999Y-17242682D01*
X6858000Y-17242682D01*
X6858001Y-17242682D01*
X6936092Y-17232401D01*
X7014762Y-17222044D01*
X7160841Y-17161536D01*
X7286282Y-17065282D01*
X7337625Y-16998370D01*
X7394052Y-16957168D01*
X7463798Y-16953013D01*
X7524718Y-16987225D01*
X7557471Y-17048942D01*
X7560000Y-17073857D01*
X7560000Y-18726875D01*
X7540315Y-18793914D01*
X7511488Y-18825250D01*
X7445719Y-18875717D01*
X7349463Y-19001160D01*
X7288956Y-19147237D01*
X7288955Y-19147239D01*
X7268318Y-19303998D01*
X7268318Y-19304001D01*
X7288955Y-19460760D01*
X7288956Y-19460762D01*
X7316905Y-19528238D01*
X7349464Y-19606841D01*
X7445718Y-19732282D01*
X7571159Y-19828536D01*
X7717238Y-19889044D01*
X7795619Y-19899363D01*
X7873999Y-19909682D01*
X7874000Y-19909682D01*
X7874001Y-19909682D01*
X7926253Y-19902802D01*
X8030762Y-19889044D01*
X8176841Y-19828536D01*
X8302282Y-19732282D01*
X8398536Y-19606841D01*
X8459044Y-19460762D01*
X8479682Y-19304000D01*
X8459044Y-19147238D01*
X8398536Y-19001159D01*
X8302282Y-18875718D01*
X8302280Y-18875717D01*
X8302280Y-18875716D01*
X8236513Y-18825252D01*
X8195310Y-18768824D01*
X8187999Y-18726876D01*
X8187999Y-18726000D01*
X8207684Y-18658961D01*
X8260488Y-18613206D01*
X8311999Y-18602000D01*
X12048580Y-18602000D01*
X12053980Y-18602235D01*
X12092789Y-18605631D01*
X12130435Y-18595542D01*
X12135667Y-18594382D01*
X12174051Y-18587615D01*
X12174055Y-18587612D01*
X12180562Y-18585244D01*
X12193470Y-18579897D01*
X12199741Y-18576971D01*
X12199749Y-18576970D01*
X12231658Y-18554625D01*
X12236211Y-18551726D01*
X12269949Y-18532249D01*
X12269954Y-18532242D01*
X12272184Y-18530373D01*
X12276374Y-18528539D01*
X12279345Y-18526824D01*
X12279536Y-18527155D01*
X12336191Y-18502359D01*
X12368070Y-18502421D01*
X12446000Y-18512682D01*
X12602762Y-18492044D01*
X12748841Y-18431536D01*
X12874282Y-18335282D01*
X12970536Y-18209841D01*
X13031044Y-18063762D01*
X13051682Y-17907000D01*
X13050959Y-17901511D01*
X13036626Y-17792635D01*
X13031044Y-17750238D01*
X12970536Y-17604159D01*
X12874282Y-17478718D01*
X12748841Y-17382464D01*
X12602762Y-17321956D01*
X12602760Y-17321955D01*
X12446001Y-17301318D01*
X12445999Y-17301318D01*
X12289239Y-17321955D01*
X12289237Y-17321956D01*
X12143160Y-17382463D01*
X12017718Y-17478718D01*
X11921463Y-17604160D01*
X11860956Y-17750237D01*
X11860956Y-17750238D01*
X11845691Y-17866186D01*
X11817424Y-17930082D01*
X11759100Y-17968553D01*
X11722752Y-17974000D01*
X8312000Y-17974000D01*
X8244961Y-17954315D01*
X8199206Y-17901511D01*
X8188000Y-17850000D01*
X8188000Y-15494001D01*
X14380318Y-15494001D01*
X14400955Y-15650760D01*
X14400956Y-15650762D01*
X14451176Y-15772005D01*
X14461464Y-15796841D01*
X14557718Y-15922282D01*
X14683159Y-16018536D01*
X14829238Y-16079044D01*
X14907619Y-16089363D01*
X14985999Y-16099682D01*
X14986000Y-16099682D01*
X14986001Y-16099682D01*
X15038254Y-16092802D01*
X15142762Y-16079044D01*
X15288841Y-16018536D01*
X15414282Y-15922282D01*
X15510536Y-15796841D01*
X15571044Y-15650762D01*
X15585252Y-15542839D01*
X15591682Y-15494001D01*
X15591682Y-15493998D01*
X15571044Y-15337239D01*
X15571044Y-15337238D01*
X15510536Y-15191159D01*
X15414282Y-15065718D01*
X15288841Y-14969464D01*
X15210852Y-14937160D01*
X15142762Y-14908956D01*
X15142760Y-14908955D01*
X14986001Y-14888318D01*
X14985999Y-14888318D01*
X14829239Y-14908955D01*
X14829237Y-14908956D01*
X14683160Y-14969463D01*
X14557718Y-15065718D01*
X14461463Y-15191160D01*
X14400956Y-15337237D01*
X14400955Y-15337239D01*
X14380318Y-15493998D01*
X14380318Y-15494001D01*
X8188000Y-15494001D01*
X8188000Y-14801123D01*
X8207685Y-14734084D01*
X8236514Y-14702747D01*
X8302282Y-14652282D01*
X8398536Y-14526841D01*
X8459044Y-14380762D01*
X8479682Y-14224000D01*
X8459044Y-14067238D01*
X8418767Y-13970001D01*
X10824318Y-13970001D01*
X10844955Y-14126760D01*
X10844956Y-14126762D01*
X10885232Y-14223998D01*
X10905464Y-14272841D01*
X11001718Y-14398282D01*
X11127159Y-14494536D01*
X11273238Y-14555044D01*
X11351619Y-14565363D01*
X11429999Y-14575682D01*
X11430000Y-14575682D01*
X11430001Y-14575682D01*
X11482254Y-14568802D01*
X11586762Y-14555044D01*
X11732841Y-14494536D01*
X11858282Y-14398282D01*
X11954536Y-14272841D01*
X12015044Y-14126762D01*
X12035682Y-13970001D01*
X14380318Y-13970001D01*
X14400955Y-14126760D01*
X14400956Y-14126762D01*
X14441232Y-14223998D01*
X14461464Y-14272841D01*
X14557718Y-14398282D01*
X14683159Y-14494536D01*
X14829238Y-14555044D01*
X14907619Y-14565363D01*
X14985999Y-14575682D01*
X14986000Y-14575682D01*
X14986001Y-14575682D01*
X15038254Y-14568802D01*
X15142762Y-14555044D01*
X15288841Y-14494536D01*
X15414282Y-14398282D01*
X15510536Y-14272841D01*
X15571044Y-14126762D01*
X15591682Y-13970000D01*
X15571044Y-13813238D01*
X15510536Y-13667159D01*
X15414282Y-13541718D01*
X15288841Y-13445464D01*
X15231858Y-13421861D01*
X15142762Y-13384956D01*
X15142760Y-13384955D01*
X14986001Y-13364318D01*
X14985999Y-13364318D01*
X14829239Y-13384955D01*
X14829237Y-13384956D01*
X14683160Y-13445463D01*
X14557718Y-13541718D01*
X14461463Y-13667160D01*
X14400956Y-13813237D01*
X14400955Y-13813239D01*
X14380318Y-13969998D01*
X14380318Y-13970001D01*
X12035682Y-13970001D01*
X12035682Y-13970000D01*
X12015044Y-13813238D01*
X11954536Y-13667159D01*
X11858282Y-13541718D01*
X11732841Y-13445464D01*
X11675858Y-13421861D01*
X11586762Y-13384956D01*
X11586760Y-13384955D01*
X11430001Y-13364318D01*
X11429999Y-13364318D01*
X11273239Y-13384955D01*
X11273237Y-13384956D01*
X11127160Y-13445463D01*
X11001718Y-13541718D01*
X10905463Y-13667160D01*
X10844956Y-13813237D01*
X10844955Y-13813239D01*
X10824318Y-13969998D01*
X10824318Y-13970001D01*
X8418767Y-13970001D01*
X8398536Y-13921159D01*
X8302282Y-13795718D01*
X8302278Y-13795715D01*
X8299034Y-13791487D01*
X8273840Y-13726318D01*
X8287878Y-13657873D01*
X8299034Y-13640513D01*
X8302278Y-13636284D01*
X8302282Y-13636282D01*
X8398536Y-13510841D01*
X8459044Y-13364762D01*
X8479682Y-13208000D01*
X8459044Y-13051238D01*
X8398536Y-12905159D01*
X8302282Y-12779718D01*
X8176841Y-12683464D01*
X8144908Y-12670237D01*
X8030762Y-12622956D01*
X8030760Y-12622955D01*
X7874001Y-12602318D01*
X7873999Y-12602318D01*
X7717239Y-12622955D01*
X7717237Y-12622956D01*
X7571160Y-12683463D01*
X7445716Y-12779719D01*
X7395253Y-12845486D01*
X7338825Y-12886689D01*
X7296877Y-12894000D01*
X6620421Y-12894000D01*
X6615018Y-12893764D01*
X6606942Y-12893057D01*
X6576209Y-12890368D01*
X6538584Y-12900450D01*
X6533304Y-12901621D01*
X6494952Y-12908384D01*
X6488521Y-12910724D01*
X6475455Y-12916136D01*
X6469249Y-12919030D01*
X6437348Y-12941367D01*
X6432786Y-12944273D01*
X6399053Y-12963749D01*
X6399050Y-12963751D01*
X6374011Y-12993591D01*
X6370356Y-12997580D01*
X3091580Y-16276356D01*
X3087591Y-16280011D01*
X3057751Y-16305050D01*
X3057749Y-16305053D01*
X3038273Y-16338786D01*
X3035367Y-16343348D01*
X3013030Y-16375249D01*
X3010136Y-16381455D01*
X3004724Y-16394521D01*
X3002384Y-16400952D01*
X2995621Y-16439304D01*
X2994450Y-16444584D01*
X2984368Y-16482209D01*
X2987764Y-16521012D01*
X2988000Y-16526419D01*
X2988000Y-18119573D01*
X2968315Y-18186612D01*
X2915511Y-18232367D01*
X2846353Y-18242311D01*
X2782797Y-18213286D01*
X2776319Y-18207254D01*
X-2443681Y-12987255D01*
X-2477166Y-12925932D01*
X-2480000Y-12899574D01*
X-2480000Y-11499123D01*
X-2460315Y-11432084D01*
X-2431486Y-11400747D01*
X-2365719Y-11350283D01*
X-2285027Y-11245123D01*
X-2269464Y-11224841D01*
X-2260489Y-11203175D01*
X-2208956Y-11078762D01*
X-2208955Y-11078760D01*
X-2188318Y-10922001D01*
X-2188318Y-10921998D01*
X-2208955Y-10765239D01*
X-2208956Y-10765237D01*
X-2269463Y-10619160D01*
X-2365718Y-10493718D01*
X-2491160Y-10397463D01*
X-2637237Y-10336956D01*
X-2637239Y-10336955D01*
X-2793999Y-10316318D01*
X-2794001Y-10316318D01*
X-2950760Y-10336955D01*
X-2950762Y-10336956D01*
X-3018852Y-10365160D01*
X-3096841Y-10397464D01*
X-3222282Y-10493718D01*
X-3318536Y-10619159D01*
X-3379044Y-10765238D01*
X-3399682Y-10922000D01*
X-3379044Y-11078762D01*
X-3318536Y-11224841D01*
X-3222282Y-11350282D01*
X-3156514Y-11400747D01*
X-3115311Y-11457175D01*
X-3108000Y-11499123D01*
X-3108000Y-12404574D01*
X-3127685Y-12471613D01*
X-3180489Y-12517368D01*
X-3249647Y-12527312D01*
X-3313203Y-12498287D01*
X-3319681Y-12492255D01*
X-4703880Y-11108055D01*
X-4737365Y-11046732D01*
X-4739138Y-11004189D01*
X-4728318Y-10922001D01*
X-4728318Y-10921998D01*
X-4748955Y-10765239D01*
X-4748956Y-10765237D01*
X-4809463Y-10619160D01*
X-4905718Y-10493718D01*
X-5031160Y-10397463D01*
X-5177237Y-10336956D01*
X-5177239Y-10336955D01*
X-5333999Y-10316318D01*
X-5334001Y-10316318D01*
X-5490760Y-10336955D01*
X-5490762Y-10336956D01*
X-5558852Y-10365160D01*
X-5636841Y-10397464D01*
X-5762282Y-10493718D01*
X-5858536Y-10619159D01*
X-5919044Y-10765238D01*
X-5939682Y-10922000D01*
X-5919044Y-11078762D01*
X-5858536Y-11224841D01*
X-5762282Y-11350282D01*
X-5636841Y-11446536D01*
X-5490762Y-11507044D01*
X-5416194Y-11516861D01*
X-5334001Y-11527682D01*
X-5334000Y-11527682D01*
X-5333999Y-11527682D01*
X-5251809Y-11516861D01*
X-5182774Y-11527626D01*
X-5147945Y-11552116D01*
X-1364363Y-15335698D01*
X-1330880Y-15397019D01*
X-1335864Y-15466711D01*
X-1376558Y-15521751D01*
X-1444282Y-15573718D01*
X-1540536Y-15699159D01*
X-1601044Y-15845238D01*
X-1621682Y-16002000D01*
X-1611392Y-16080160D01*
X-1610861Y-16084189D01*
X-1621626Y-16153224D01*
X-1646119Y-16188056D01*
X-1871744Y-16413681D01*
X-1933067Y-16447166D01*
X-1959425Y-16450000D01*
X-14027877Y-16450000D01*
X-14094916Y-16430315D01*
X-14126253Y-16401486D01*
X-14176716Y-16335719D01*
X-14302160Y-16239463D01*
X-14448237Y-16178956D01*
X-14448239Y-16178955D01*
X-14604999Y-16158318D01*
X-14605001Y-16158318D01*
X-14642737Y-16163286D01*
X-14711772Y-16152520D01*
X-14764028Y-16106140D01*
X-14782913Y-16038871D01*
X-14762432Y-15972071D01*
X-14746603Y-15952666D01*
X-14033937Y-15240000D01*
X-9749682Y-15240000D01*
X-9729044Y-15396762D01*
X-9668536Y-15542841D01*
X-9572282Y-15668282D01*
X-9446841Y-15764536D01*
X-9300762Y-15825044D01*
X-9196253Y-15838802D01*
X-9144001Y-15845682D01*
X-9144000Y-15845682D01*
X-9143999Y-15845682D01*
X-9065543Y-15835353D01*
X-8987238Y-15825044D01*
X-8841159Y-15764536D01*
X-8715718Y-15668282D01*
X-8619464Y-15542841D01*
X-8615378Y-15532978D01*
X-8558956Y-15396762D01*
X-8558955Y-15396760D01*
X-8538318Y-15240001D01*
X-8538318Y-15239998D01*
X-8558955Y-15083239D01*
X-8558956Y-15083237D01*
X-8619463Y-14937160D01*
X-8715718Y-14811718D01*
X-8841160Y-14715463D01*
X-8987237Y-14654956D01*
X-8987239Y-14654955D01*
X-9143999Y-14634318D01*
X-9144001Y-14634318D01*
X-9300760Y-14654955D01*
X-9300762Y-14654956D01*
X-9416139Y-14702747D01*
X-9446841Y-14715464D01*
X-9572282Y-14811718D01*
X-9668536Y-14937159D01*
X-9729044Y-15083238D01*
X-9749682Y-15240000D01*
X-14033937Y-15240000D01*
X-12251056Y-13457119D01*
X-12189733Y-13423634D01*
X-12147189Y-13421861D01*
X-12133723Y-13423634D01*
X-12065001Y-13432682D01*
X-12065000Y-13432682D01*
X-12064999Y-13432682D01*
X-11982806Y-13421861D01*
X-11908238Y-13412044D01*
X-11762159Y-13351536D01*
X-11636718Y-13255282D01*
X-11540464Y-13129841D01*
X-11507905Y-13051238D01*
X-11479956Y-12983762D01*
X-11479955Y-12983760D01*
X-11459318Y-12827001D01*
X-11459318Y-12826998D01*
X-11479955Y-12670239D01*
X-11479956Y-12670237D01*
X-11540463Y-12524160D01*
X-11636719Y-12398717D01*
X-11702488Y-12348250D01*
X-11743690Y-12291821D01*
X-11751000Y-12249875D01*
X-11751000Y-11245123D01*
X-11731315Y-11178084D01*
X-11702486Y-11146747D01*
X-11636719Y-11096283D01*
X-11636718Y-11096282D01*
X-11540464Y-10970841D01*
X-11520232Y-10921998D01*
X-11479956Y-10824762D01*
X-11479955Y-10824760D01*
X-11459318Y-10668001D01*
X-11459318Y-10667998D01*
X-11479955Y-10511239D01*
X-11479956Y-10511237D01*
X-11540463Y-10365160D01*
X-11636718Y-10239718D01*
X-11762160Y-10143463D01*
X-11908237Y-10082956D01*
X-11908239Y-10082955D01*
X-12064999Y-10062318D01*
X-12065001Y-10062318D01*
X-12221760Y-10082955D01*
X-12221762Y-10082956D01*
X-12367841Y-10143464D01*
X-12493282Y-10239718D01*
X-12589536Y-10365159D01*
X-12650044Y-10511238D01*
X-12670682Y-10668000D01*
X-12650044Y-10824762D01*
X-12589536Y-10970841D01*
X-12493282Y-11096282D01*
X-12427514Y-11146747D01*
X-12386311Y-11203175D01*
X-12379000Y-11245123D01*
X-12379000Y-12249875D01*
X-12398685Y-12316914D01*
X-12427512Y-12348250D01*
X-12465027Y-12377037D01*
X-12493282Y-12398718D01*
X-12589536Y-12524159D01*
X-12650044Y-12670238D01*
X-12656923Y-12722491D01*
X-12664457Y-12779719D01*
X-12670682Y-12827000D01*
X-12660392Y-12905160D01*
X-12659861Y-12909189D01*
X-12670626Y-12978224D01*
X-12695119Y-13013056D01*
X-15450412Y-15768349D01*
X-15454401Y-15772005D01*
X-15484248Y-15797049D01*
X-15484249Y-15797051D01*
X-15503731Y-15830797D01*
X-15506634Y-15835353D01*
X-15528969Y-15867249D01*
X-15531886Y-15873505D01*
X-15537260Y-15886480D01*
X-15539614Y-15892947D01*
X-15539615Y-15892949D01*
X-15546380Y-15931319D01*
X-15547545Y-15936575D01*
X-15557631Y-15974211D01*
X-15554236Y-16013012D01*
X-15554000Y-16018419D01*
X-15554000Y-17001579D01*
X-15554235Y-17006982D01*
X-15557631Y-17045789D01*
X-15547542Y-17083435D01*
X-15546382Y-17088667D01*
X-15539615Y-17127051D01*
X-15539612Y-17127054D01*
X-15539613Y-17127054D01*
X-15537244Y-17133562D01*
X-15531897Y-17146470D01*
X-15528971Y-17152741D01*
X-15528970Y-17152749D01*
X-15506625Y-17184658D01*
X-15503728Y-17189207D01*
X-15484249Y-17222949D01*
X-15454388Y-17248004D01*
X-15450427Y-17251634D01*
X-15405605Y-17296456D01*
X-15403519Y-17300277D01*
X-15391462Y-17310600D01*
X-14965634Y-17736427D01*
X-14962004Y-17740388D01*
X-14936949Y-17770249D01*
X-14903213Y-17789725D01*
X-14903211Y-17789726D01*
X-14898658Y-17792625D01*
X-14866749Y-17814970D01*
X-14866741Y-17814971D01*
X-14860470Y-17817897D01*
X-14847555Y-17823247D01*
X-14841055Y-17825613D01*
X-14841054Y-17825613D01*
X-14841051Y-17825615D01*
X-14802667Y-17832382D01*
X-14797423Y-17833546D01*
X-14759790Y-17843631D01*
X-14720986Y-17840235D01*
X-14715583Y-17840000D01*
X-14240420Y-17840000D01*
X-14235019Y-17840235D01*
X-14196211Y-17843631D01*
X-14158575Y-17833545D01*
X-14153319Y-17832380D01*
X-14114949Y-17825615D01*
X-14114947Y-17825614D01*
X-14108480Y-17823260D01*
X-14095505Y-17817886D01*
X-14089249Y-17814969D01*
X-14057354Y-17792635D01*
X-14057345Y-17792629D01*
X-14052797Y-17789731D01*
X-14019051Y-17770249D01*
X-14019049Y-17770248D01*
X-13994005Y-17740401D01*
X-13990349Y-17736412D01*
X-13622256Y-17368319D01*
X-13560933Y-17334834D01*
X-13534575Y-17332000D01*
X-1286420Y-17332000D01*
X-1281019Y-17332235D01*
X-1242211Y-17335631D01*
X-1204575Y-17325545D01*
X-1199319Y-17324380D01*
X-1160949Y-17317615D01*
X-1160947Y-17317614D01*
X-1154480Y-17315260D01*
X-1141505Y-17309886D01*
X-1135249Y-17306969D01*
X-1120233Y-17296454D01*
X-1103345Y-17284629D01*
X-1098797Y-17281731D01*
X-1065051Y-17262249D01*
X-1065049Y-17262248D01*
X-1040005Y-17232401D01*
X-1036349Y-17228412D01*
X-668256Y-16860319D01*
X-606933Y-16826834D01*
X-580575Y-16824000D01*
X-435425Y-16824000D01*
X-368386Y-16843685D01*
X-347744Y-16860319D01*
X2443680Y-19651743D01*
X2477165Y-19713066D01*
X2479999Y-19739424D01*
X2479999Y-22930000D01*
X2460314Y-22997039D01*
X2407510Y-23042794D01*
X2355999Y-23054000D01*
X2230120Y-23054000D01*
X2163081Y-23034315D01*
X2117326Y-22981511D01*
X2110346Y-22962097D01*
X2109044Y-22957239D01*
X2109044Y-22957237D01*
X2048536Y-22811159D01*
X1952282Y-22685718D01*
X1826841Y-22589464D01*
X1794908Y-22576237D01*
X1680762Y-22528956D01*
X1680760Y-22528955D01*
X1524001Y-22508318D01*
X1523999Y-22508318D01*
X1367239Y-22528955D01*
X1367237Y-22528956D01*
X1221160Y-22589463D01*
X1095718Y-22685718D01*
X999463Y-22811160D01*
X938956Y-22957237D01*
X938955Y-22957239D01*
X918318Y-23113998D01*
X918318Y-23114001D01*
X938955Y-23270760D01*
X938956Y-23270762D01*
X997546Y-23412212D01*
X999464Y-23416841D01*
X1095718Y-23542282D01*
X1221159Y-23638536D01*
X1367238Y-23699044D01*
X1445619Y-23709363D01*
X1523999Y-23719682D01*
X1524000Y-23719682D01*
X1524001Y-23719682D01*
X1542237Y-23717280D01*
X1680762Y-23699044D01*
X1691570Y-23694566D01*
X1739456Y-23687196D01*
X1739402Y-23686577D01*
X1748852Y-23685750D01*
X1749840Y-23685598D01*
X1750204Y-23685629D01*
X1750211Y-23685631D01*
X1789013Y-23682235D01*
X1794417Y-23682000D01*
X2356000Y-23682000D01*
X2423039Y-23701685D01*
X2468794Y-23754489D01*
X2480000Y-23806000D01*
X2480000Y-28306011D01*
X2460315Y-28373050D01*
X2407511Y-28418805D01*
X2338353Y-28428749D01*
X2308548Y-28420572D01*
X2188765Y-28370957D01*
X2188760Y-28370955D01*
X2032001Y-28350318D01*
X2031999Y-28350318D01*
X1875239Y-28370955D01*
X1875237Y-28370956D01*
X1729160Y-28431463D01*
X1603716Y-28527719D01*
X1553253Y-28593486D01*
X1496825Y-28634689D01*
X1454877Y-28642000D01*
X-72575Y-28642000D01*
X-139614Y-28622315D01*
X-160256Y-28605681D01*
X-1300681Y-27465255D01*
X-1334166Y-27403932D01*
X-1337000Y-27377574D01*
X-1337000Y-24832593D01*
X-1317315Y-24765554D01*
X-1264511Y-24719799D01*
X-1195353Y-24709855D01*
X-1180853Y-24713837D01*
X-1180613Y-24712940D01*
X-1172765Y-24715042D01*
X-1172762Y-24715044D01*
X-1068253Y-24728802D01*
X-1016001Y-24735682D01*
X-1016000Y-24735682D01*
X-1015999Y-24735682D01*
X-937619Y-24725363D01*
X-859238Y-24715044D01*
X-713159Y-24654536D01*
X-587718Y-24558282D01*
X-491464Y-24432841D01*
X-430956Y-24286762D01*
X-430955Y-24286760D01*
X-410318Y-24130001D01*
X-410318Y-24129998D01*
X-430955Y-23973239D01*
X-430956Y-23973237D01*
X-491463Y-23827160D01*
X-587718Y-23701718D01*
X-713160Y-23605463D01*
X-859237Y-23544956D01*
X-859239Y-23544955D01*
X-1015999Y-23524318D01*
X-1016001Y-23524318D01*
X-1172760Y-23544955D01*
X-1180613Y-23547060D01*
X-1181506Y-23543726D01*
X-1235293Y-23549386D01*
X-1297701Y-23517969D01*
X-1333217Y-23457800D01*
X-1337000Y-23427406D01*
X-1337000Y-20262123D01*
X-1317315Y-20195084D01*
X-1288486Y-20163747D01*
X-1288484Y-20163746D01*
X-1222718Y-20113282D01*
X-1126464Y-19987841D01*
X-1065956Y-19841762D01*
X-1065955Y-19841760D01*
X-1045318Y-19685001D01*
X-1045318Y-19684998D01*
X-1065955Y-19528239D01*
X-1065956Y-19528237D01*
X-1126463Y-19382160D01*
X-1222718Y-19256718D01*
X-1348160Y-19160463D01*
X-1494237Y-19099956D01*
X-1494239Y-19099955D01*
X-1650999Y-19079318D01*
X-1651001Y-19079318D01*
X-1807760Y-19099955D01*
X-1807762Y-19099956D01*
X-1921908Y-19147237D01*
X-1953841Y-19160464D01*
X-2079282Y-19256718D01*
X-2175536Y-19382159D01*
X-2236044Y-19528238D01*
X-2256682Y-19685000D01*
X-2236044Y-19841762D01*
X-2175536Y-19987841D01*
X-2079282Y-20113282D01*
X-2013509Y-20163750D01*
X-1972310Y-20220174D01*
X-1964999Y-20262117D01*
X-1964999Y-23892536D01*
X-1964999Y-27542575D01*
X-1965234Y-27547982D01*
X-1968631Y-27586789D01*
X-1958542Y-27624435D01*
X-1957382Y-27629667D01*
X-1950615Y-27668051D01*
X-1950612Y-27668054D01*
X-1950613Y-27668054D01*
X-1948244Y-27674562D01*
X-1942897Y-27687470D01*
X-1939971Y-27693741D01*
X-1939970Y-27693749D01*
X-1917625Y-27725658D01*
X-1914728Y-27730207D01*
X-1895249Y-27763949D01*
X-1865388Y-27789004D01*
X-1861427Y-27792634D01*
X-487634Y-29166427D01*
X-484004Y-29170388D01*
X-458949Y-29200249D01*
X-425211Y-29219726D01*
X-420658Y-29222625D01*
X-388749Y-29244970D01*
X-388741Y-29244971D01*
X-382470Y-29247897D01*
X-369555Y-29253247D01*
X-363055Y-29255613D01*
X-363054Y-29255613D01*
X-363051Y-29255615D01*
X-324667Y-29262382D01*
X-319423Y-29263546D01*
X-281790Y-29273631D01*
X-242986Y-29270235D01*
X-237583Y-29270000D01*
X1454877Y-29270000D01*
X1521916Y-29289685D01*
X1553252Y-29318513D01*
X1603718Y-29384282D01*
X1729159Y-29480536D01*
X1875238Y-29541044D01*
X1953543Y-29551353D01*
X2031999Y-29561682D01*
X2032000Y-29561682D01*
X2032001Y-29561682D01*
X2084253Y-29554802D01*
X2188762Y-29541044D01*
X2308548Y-29491426D01*
X2378017Y-29483958D01*
X2440496Y-29515233D01*
X2476148Y-29575322D01*
X2480000Y-29605988D01*
X2480000Y-30933574D01*
X2460315Y-31000613D01*
X2443681Y-31021255D01*
X1520343Y-31944592D01*
X1459020Y-31978077D01*
X1389328Y-31973093D01*
X1333395Y-31931221D01*
X1318101Y-31904364D01*
X1287182Y-31829719D01*
X1286536Y-31828159D01*
X1190282Y-31702718D01*
X1064841Y-31606464D01*
X918762Y-31545956D01*
X918760Y-31545955D01*
X762001Y-31525318D01*
X761999Y-31525318D01*
X605239Y-31545955D01*
X605237Y-31545956D01*
X459160Y-31606463D01*
X333718Y-31702718D01*
X237463Y-31828160D01*
X176956Y-31974237D01*
X176955Y-31974239D01*
X156318Y-32130998D01*
X156318Y-32131001D01*
X176955Y-32287760D01*
X176956Y-32287762D01*
X237464Y-32433841D01*
X333718Y-32559282D01*
X365704Y-32583826D01*
X406905Y-32640252D01*
X411060Y-32709998D01*
X376848Y-32770919D01*
X315130Y-32803671D01*
X306401Y-32805139D01*
X224239Y-32815955D01*
X224237Y-32815956D01*
X78160Y-32876463D01*
X78158Y-32876464D01*
X78159Y-32876464D01*
X-47282Y-32972718D01*
X-143536Y-33098159D01*
X-204044Y-33244238D01*
X-204044Y-33244239D01*
X-223360Y-33390961D01*
X-224682Y-33401000D01*
X-204044Y-33557762D01*
X-143536Y-33703841D01*
X-47282Y-33829282D01*
X78159Y-33925536D01*
X224238Y-33986044D01*
X302619Y-33996363D01*
X380999Y-34006682D01*
X381000Y-34006682D01*
X381001Y-34006682D01*
X433253Y-33999802D01*
X537762Y-33986044D01*
X657548Y-33936426D01*
X727017Y-33928958D01*
X789496Y-33960233D01*
X825148Y-34020322D01*
X829000Y-34050988D01*
X829000Y-34166000D01*
X809315Y-34233039D01*
X756511Y-34278794D01*
X705000Y-34290000D01*
X-18621500Y-34290000D01*
X-18688539Y-34270315D01*
X-18734294Y-34217511D01*
X-18745500Y-34166000D01*
X-18745500Y-31496000D01*
X-3145682Y-31496000D01*
X-3125044Y-31652762D01*
X-3064536Y-31798841D01*
X-2968282Y-31924282D01*
X-2842841Y-32020536D01*
X-2696762Y-32081044D01*
X-2612608Y-32092123D01*
X-2540001Y-32101682D01*
X-2540000Y-32101682D01*
X-2539999Y-32101682D01*
X-2461619Y-32091363D01*
X-2383238Y-32081044D01*
X-2237159Y-32020536D01*
X-2111718Y-31924282D01*
X-2015464Y-31798841D01*
X-1954956Y-31652762D01*
X-1954955Y-31652760D01*
X-1934318Y-31496001D01*
X-1934318Y-31495998D01*
X-1954955Y-31339239D01*
X-1954956Y-31339237D01*
X-2015463Y-31193160D01*
X-2111718Y-31067718D01*
X-2237160Y-30971463D01*
X-2383237Y-30910956D01*
X-2383239Y-30910955D01*
X-2539999Y-30890318D01*
X-2540001Y-30890318D01*
X-2696760Y-30910955D01*
X-2696762Y-30910956D01*
X-2842841Y-30971464D01*
X-2968282Y-31067718D01*
X-3064536Y-31193159D01*
X-3125044Y-31339238D01*
X-3145682Y-31496000D01*
X-18745500Y-31496000D01*
X-18745500Y-30734000D01*
X-13813682Y-30734000D01*
X-13793044Y-30890762D01*
X-13732536Y-31036841D01*
X-13636282Y-31162282D01*
X-13510841Y-31258536D01*
X-13364762Y-31319044D01*
X-13260253Y-31332802D01*
X-13208001Y-31339682D01*
X-13208000Y-31339682D01*
X-13207999Y-31339682D01*
X-13129619Y-31329363D01*
X-13051238Y-31319044D01*
X-12905159Y-31258536D01*
X-12779718Y-31162282D01*
X-12779715Y-31162278D01*
X-12775487Y-31159034D01*
X-12710318Y-31133840D01*
X-12641873Y-31147878D01*
X-12624513Y-31159034D01*
X-12620284Y-31162278D01*
X-12620282Y-31162282D01*
X-12494841Y-31258536D01*
X-12348762Y-31319044D01*
X-12244253Y-31332802D01*
X-12192001Y-31339682D01*
X-12192000Y-31339682D01*
X-12191999Y-31339682D01*
X-12113619Y-31329363D01*
X-12035238Y-31319044D01*
X-11889159Y-31258536D01*
X-11763718Y-31162282D01*
X-11667464Y-31036841D01*
X-11645602Y-30984063D01*
X-11606956Y-30890762D01*
X-11606955Y-30890760D01*
X-11586318Y-30734001D01*
X-11586318Y-30733998D01*
X-11606955Y-30577239D01*
X-11606956Y-30577237D01*
X-11667463Y-30431160D01*
X-11763718Y-30305718D01*
X-11889160Y-30209463D01*
X-12035237Y-30148956D01*
X-12035239Y-30148955D01*
X-12191999Y-30128318D01*
X-12192001Y-30128318D01*
X-12348760Y-30148955D01*
X-12348762Y-30148956D01*
X-12494842Y-30209464D01*
X-12624514Y-30308965D01*
X-12689683Y-30334159D01*
X-12758128Y-30320121D01*
X-12775486Y-30308965D01*
X-12905157Y-30209464D01*
X-13051237Y-30148956D01*
X-13051239Y-30148955D01*
X-13207999Y-30128318D01*
X-13208001Y-30128318D01*
X-13364760Y-30148955D01*
X-13364762Y-30148956D01*
X-13510841Y-30209464D01*
X-13636282Y-30305718D01*
X-13732536Y-30431159D01*
X-13793044Y-30577238D01*
X-13813682Y-30734000D01*
X-18745500Y-30734000D01*
X-18745500Y-17907000D01*
X-17623682Y-17907000D01*
X-17603044Y-18063762D01*
X-17542536Y-18209841D01*
X-17446282Y-18335282D01*
X-17320841Y-18431536D01*
X-17174762Y-18492044D01*
X-17070254Y-18505802D01*
X-17018001Y-18512682D01*
X-17018000Y-18512682D01*
X-17017999Y-18512682D01*
X-16924215Y-18500335D01*
X-16861238Y-18492044D01*
X-16715159Y-18431536D01*
X-16715158Y-18431535D01*
X-16715157Y-18431535D01*
X-16585485Y-18332034D01*
X-16520316Y-18306840D01*
X-16451871Y-18320878D01*
X-16434512Y-18332035D01*
X-16430284Y-18335279D01*
X-16430282Y-18335282D01*
X-16304841Y-18431536D01*
X-16265546Y-18447811D01*
X-16211145Y-18491650D01*
X-16189079Y-18557944D01*
X-16189000Y-18562372D01*
X-16189000Y-22208579D01*
X-16189235Y-22213982D01*
X-16192631Y-22252789D01*
X-16182542Y-22290435D01*
X-16181382Y-22295667D01*
X-16174615Y-22334051D01*
X-16174612Y-22334054D01*
X-16174613Y-22334054D01*
X-16172244Y-22340562D01*
X-16166897Y-22353470D01*
X-16163971Y-22359741D01*
X-16163970Y-22359749D01*
X-16141625Y-22391658D01*
X-16138728Y-22396207D01*
X-16119249Y-22429949D01*
X-16089388Y-22455004D01*
X-16085427Y-22458634D01*
X-12695117Y-25848944D01*
X-12661634Y-25910265D01*
X-12659860Y-25952809D01*
X-12670682Y-26035000D01*
X-12650044Y-26191762D01*
X-12589536Y-26337841D01*
X-12493282Y-26463282D01*
X-12367841Y-26559536D01*
X-12221762Y-26620044D01*
X-12117253Y-26633802D01*
X-12065001Y-26640682D01*
X-12065000Y-26640682D01*
X-12064999Y-26640682D01*
X-11986619Y-26630363D01*
X-11908238Y-26620044D01*
X-11762159Y-26559536D01*
X-11636718Y-26463282D01*
X-11540464Y-26337841D01*
X-11536989Y-26329453D01*
X-11479956Y-26191762D01*
X-11479955Y-26191760D01*
X-11459318Y-26035001D01*
X-11459318Y-26034998D01*
X-11479955Y-25878239D01*
X-11479956Y-25878237D01*
X-11540463Y-25732160D01*
X-11636718Y-25606718D01*
X-11762160Y-25510463D01*
X-11908237Y-25449956D01*
X-11908239Y-25449955D01*
X-12064999Y-25429318D01*
X-12065001Y-25429318D01*
X-12147189Y-25440138D01*
X-12216224Y-25429372D01*
X-12251055Y-25404880D01*
X-14287936Y-23368000D01*
X-12797682Y-23368000D01*
X-12777044Y-23524762D01*
X-12716536Y-23670841D01*
X-12620282Y-23796282D01*
X-12494841Y-23892536D01*
X-12348762Y-23953044D01*
X-12244253Y-23966802D01*
X-12192001Y-23973682D01*
X-12192000Y-23973682D01*
X-12191999Y-23973682D01*
X-12113619Y-23963363D01*
X-12035238Y-23953044D01*
X-11889159Y-23892536D01*
X-11763718Y-23796282D01*
X-11667464Y-23670841D01*
X-11652466Y-23634634D01*
X-11606956Y-23524762D01*
X-11606955Y-23524760D01*
X-11586318Y-23368001D01*
X-11586318Y-23367998D01*
X-11606955Y-23211239D01*
X-11606956Y-23211237D01*
X-11667463Y-23065160D01*
X-11763718Y-22939718D01*
X-11889160Y-22843463D01*
X-12035237Y-22782956D01*
X-12035239Y-22782955D01*
X-12191999Y-22762318D01*
X-12192001Y-22762318D01*
X-12348760Y-22782955D01*
X-12348762Y-22782956D01*
X-12416852Y-22811160D01*
X-12494841Y-22843464D01*
X-12620282Y-22939718D01*
X-12716536Y-23065159D01*
X-12777044Y-23211238D01*
X-12777044Y-23211239D01*
X-12796918Y-23362200D01*
X-12797682Y-23368000D01*
X-14287936Y-23368000D01*
X-15524681Y-22131255D01*
X-15558166Y-22069932D01*
X-15561000Y-22043574D01*
X-15561000Y-18360799D01*
X-15541315Y-18293760D01*
X-15535386Y-18285326D01*
X-15477464Y-18209841D01*
X-15477463Y-18209839D01*
X-15477461Y-18209837D01*
X-15477461Y-18209836D01*
X-15416957Y-18063765D01*
X-15416955Y-18063760D01*
X-15396318Y-17907001D01*
X-15396318Y-17906998D01*
X-15416955Y-17750239D01*
X-15416956Y-17750237D01*
X-15477464Y-17604157D01*
X-15573717Y-17478717D01*
X-15699157Y-17382464D01*
X-15845237Y-17321956D01*
X-15845239Y-17321955D01*
X-16001999Y-17301318D01*
X-16002001Y-17301318D01*
X-16158760Y-17321955D01*
X-16158762Y-17321956D01*
X-16304842Y-17382464D01*
X-16434514Y-17481965D01*
X-16499683Y-17507159D01*
X-16568128Y-17493121D01*
X-16585486Y-17481965D01*
X-16715157Y-17382464D01*
X-16861237Y-17321956D01*
X-16861239Y-17321955D01*
X-17017999Y-17301318D01*
X-17018001Y-17301318D01*
X-17174760Y-17321955D01*
X-17174762Y-17321956D01*
X-17320841Y-17382464D01*
X-17446282Y-17478718D01*
X-17542536Y-17604159D01*
X-17603044Y-17750238D01*
X-17608626Y-17792635D01*
X-17622959Y-17901511D01*
X-17623682Y-17907000D01*
X-18745500Y-17907000D01*
X-18745500Y-10922000D01*
X-15337682Y-10922000D01*
X-15317044Y-11078762D01*
X-15256536Y-11224841D01*
X-15160282Y-11350282D01*
X-15034841Y-11446536D01*
X-14888762Y-11507044D01*
X-14814194Y-11516861D01*
X-14732001Y-11527682D01*
X-14732000Y-11527682D01*
X-14731999Y-11527682D01*
X-14649806Y-11516861D01*
X-14575238Y-11507044D01*
X-14429159Y-11446536D01*
X-14303718Y-11350282D01*
X-14207464Y-11224841D01*
X-14198489Y-11203175D01*
X-14146956Y-11078762D01*
X-14146955Y-11078760D01*
X-14126318Y-10922001D01*
X-14126318Y-10921998D01*
X-14146955Y-10765239D01*
X-14146956Y-10765237D01*
X-14207463Y-10619160D01*
X-14303718Y-10493718D01*
X-14429160Y-10397463D01*
X-14575237Y-10336956D01*
X-14575239Y-10336955D01*
X-14731999Y-10316318D01*
X-14732001Y-10316318D01*
X-14888760Y-10336955D01*
X-14888762Y-10336956D01*
X-14956852Y-10365160D01*
X-15034841Y-10397464D01*
X-15160282Y-10493718D01*
X-15256536Y-10619159D01*
X-15317044Y-10765238D01*
X-15337682Y-10922000D01*
X-18745500Y-10922000D01*
X-18745500Y-6858000D01*
X-11019682Y-6858000D01*
X-10999044Y-7014762D01*
X-10938536Y-7160841D01*
X-10842282Y-7286282D01*
X-10716841Y-7382536D01*
X-10570762Y-7443044D01*
X-10570759Y-7443044D01*
X-10570758Y-7443045D01*
X-10565904Y-7444346D01*
X-10506244Y-7480711D01*
X-10475716Y-7543559D01*
X-10473999Y-7564119D01*
X-10473999Y-12249878D01*
X-10493684Y-12316914D01*
X-10522512Y-12348250D01*
X-10588279Y-12398715D01*
X-10588280Y-12398716D01*
X-10588282Y-12398718D01*
X-10684536Y-12524159D01*
X-10745044Y-12670238D01*
X-10751923Y-12722492D01*
X-10759457Y-12779719D01*
X-10765682Y-12827000D01*
X-10745044Y-12983762D01*
X-10684536Y-13129841D01*
X-10588282Y-13255282D01*
X-10462841Y-13351536D01*
X-10316762Y-13412044D01*
X-10212254Y-13425802D01*
X-10160001Y-13432682D01*
X-10160000Y-13432682D01*
X-10159999Y-13432682D01*
X-10077806Y-13421861D01*
X-10003238Y-13412044D01*
X-9857159Y-13351536D01*
X-9731718Y-13255282D01*
X-9635464Y-13129841D01*
X-9602905Y-13051238D01*
X-9574956Y-12983762D01*
X-9574955Y-12983760D01*
X-9554318Y-12827001D01*
X-9554318Y-12826998D01*
X-9574955Y-12670239D01*
X-9574956Y-12670237D01*
X-9635463Y-12524160D01*
X-9731719Y-12398717D01*
X-9797488Y-12348250D01*
X-9838690Y-12291821D01*
X-9846000Y-12249875D01*
X-9846000Y-8890000D01*
X-4763899Y-8890000D01*
X-4744350Y-9088485D01*
X-4686454Y-9279342D01*
X-4592436Y-9455237D01*
X-4465910Y-9609410D01*
X-4311737Y-9735936D01*
X-4135842Y-9829954D01*
X-3944985Y-9887850D01*
X-3746500Y-9907399D01*
X-3548015Y-9887850D01*
X-3357158Y-9829954D01*
X-3357154Y-9829951D01*
X-3357151Y-9829951D01*
X-3181268Y-9735939D01*
X-3181266Y-9735937D01*
X-3181263Y-9735936D01*
X-3112099Y-9679175D01*
X-3027089Y-9609410D01*
X-2900565Y-9455238D01*
X-2900560Y-9455231D01*
X-2806548Y-9279348D01*
X-2765491Y-9144001D01*
X-2748650Y-9088485D01*
X-2748649Y-9088483D01*
X-2748649Y-9088481D01*
X-2729101Y-8890000D01*
X-1017399Y-8890000D01*
X-997850Y-9088485D01*
X-939954Y-9279342D01*
X-845936Y-9455237D01*
X-719410Y-9609410D01*
X-565237Y-9735936D01*
X-389342Y-9829954D01*
X-198485Y-9887850D01*
X0Y-9907399D01*
X198485Y-9887850D01*
X389342Y-9829954D01*
X565237Y-9735936D01*
X719410Y-9609410D01*
X845936Y-9455237D01*
X939954Y-9279342D01*
X997850Y-9088485D01*
X1017399Y-8890000D01*
X2792601Y-8890000D01*
X2812149Y-9088481D01*
X2812149Y-9088483D01*
X2812150Y-9088485D01*
X2828991Y-9144001D01*
X2870048Y-9279348D01*
X2964060Y-9455231D01*
X2964065Y-9455238D01*
X3090589Y-9609410D01*
X3175599Y-9679175D01*
X3244763Y-9735936D01*
X3244766Y-9735937D01*
X3244768Y-9735939D01*
X3420651Y-9829951D01*
X3420654Y-9829951D01*
X3420658Y-9829954D01*
X3611515Y-9887850D01*
X3810000Y-9907399D01*
X4008485Y-9887850D01*
X4199342Y-9829954D01*
X4375237Y-9735936D01*
X4529410Y-9609410D01*
X4655936Y-9455237D01*
X4749954Y-9279342D01*
X4807850Y-9088485D01*
X4827399Y-8890000D01*
X4807850Y-8691515D01*
X4749954Y-8500658D01*
X4749951Y-8500654D01*
X4749951Y-8500651D01*
X4655939Y-8324768D01*
X4655937Y-8324766D01*
X4655936Y-8324763D01*
X4617456Y-8277875D01*
X4529410Y-8170589D01*
X4375238Y-8044065D01*
X4375231Y-8044060D01*
X4199348Y-7950048D01*
X4199342Y-7950046D01*
X4008485Y-7892150D01*
X4008483Y-7892149D01*
X4008481Y-7892149D01*
X3810000Y-7872601D01*
X3611518Y-7892149D01*
X3420651Y-7950048D01*
X3244768Y-8044060D01*
X3244761Y-8044065D01*
X3090589Y-8170589D01*
X2964065Y-8324761D01*
X2964060Y-8324768D01*
X2870048Y-8500651D01*
X2812149Y-8691518D01*
X2792601Y-8890000D01*
X1017399Y-8890000D01*
X997850Y-8691515D01*
X939954Y-8500658D01*
X939951Y-8500654D01*
X939951Y-8500651D01*
X845939Y-8324768D01*
X845937Y-8324766D01*
X845936Y-8324763D01*
X807456Y-8277875D01*
X719410Y-8170589D01*
X565238Y-8044065D01*
X565231Y-8044060D01*
X389348Y-7950048D01*
X389342Y-7950046D01*
X198485Y-7892150D01*
X198483Y-7892149D01*
X198481Y-7892149D01*
X0Y-7872601D01*
X-198481Y-7892149D01*
X-198483Y-7892149D01*
X-198485Y-7892150D01*
X-389342Y-7950046D01*
X-389348Y-7950048D01*
X-565231Y-8044060D01*
X-565238Y-8044065D01*
X-719410Y-8170589D01*
X-807456Y-8277875D01*
X-845936Y-8324763D01*
X-845937Y-8324766D01*
X-845939Y-8324768D01*
X-939951Y-8500651D01*
X-939951Y-8500654D01*
X-939954Y-8500658D01*
X-997850Y-8691515D01*
X-1017399Y-8890000D01*
X-2729101Y-8890000D01*
X-2748649Y-8691518D01*
X-2806548Y-8500651D01*
X-2900560Y-8324768D01*
X-2900565Y-8324761D01*
X-3027089Y-8170589D01*
X-3181261Y-8044065D01*
X-3181268Y-8044060D01*
X-3357151Y-7950048D01*
X-3548018Y-7892149D01*
X-3746500Y-7872601D01*
X-3944981Y-7892149D01*
X-3944983Y-7892149D01*
X-3944985Y-7892150D01*
X-4135842Y-7950046D01*
X-4135848Y-7950048D01*
X-4311731Y-8044060D01*
X-4311738Y-8044065D01*
X-4465910Y-8170589D01*
X-4553956Y-8277875D01*
X-4592436Y-8324763D01*
X-4592437Y-8324766D01*
X-4592439Y-8324768D01*
X-4686451Y-8500651D01*
X-4686451Y-8500654D01*
X-4686454Y-8500658D01*
X-4744350Y-8691515D01*
X-4763899Y-8890000D01*
X-9846000Y-8890000D01*
X-9846000Y-7128417D01*
X-9845764Y-7123009D01*
X-9842368Y-7084209D01*
X-9842402Y-7083828D01*
X-9842247Y-7082823D01*
X-9841423Y-7073403D01*
X-9840805Y-7073457D01*
X-9833435Y-7025576D01*
X-9828956Y-7014762D01*
X-9808318Y-6858001D01*
X-9808318Y-6857998D01*
X-9828955Y-6701239D01*
X-9828956Y-6701237D01*
X-9869233Y-6604000D01*
X-8225682Y-6604000D01*
X-8205044Y-6760762D01*
X-8144536Y-6906841D01*
X-8048282Y-7032282D01*
X-7922841Y-7128536D01*
X-7776762Y-7189044D01*
X-7672254Y-7202802D01*
X-7620001Y-7209682D01*
X-7620000Y-7209682D01*
X-7619999Y-7209682D01*
X-7541619Y-7199363D01*
X-7463238Y-7189044D01*
X-7317159Y-7128536D01*
X-7191718Y-7032282D01*
X-7095464Y-6906841D01*
X-7075232Y-6857998D01*
X-7034956Y-6760762D01*
X-7034955Y-6760760D01*
X-7014318Y-6604001D01*
X6252318Y-6604001D01*
X6272955Y-6760760D01*
X6272956Y-6760762D01*
X6313232Y-6857998D01*
X6333464Y-6906841D01*
X6429718Y-7032282D01*
X6555159Y-7128536D01*
X6701238Y-7189044D01*
X6779619Y-7199363D01*
X6857999Y-7209682D01*
X6858000Y-7209682D01*
X6858001Y-7209682D01*
X6910254Y-7202802D01*
X7014762Y-7189044D01*
X7160841Y-7128536D01*
X7286282Y-7032282D01*
X7382536Y-6906841D01*
X7443044Y-6760762D01*
X7463682Y-6604000D01*
X7443044Y-6447238D01*
X7382536Y-6301159D01*
X7286282Y-6175718D01*
X7160841Y-6079464D01*
X7014762Y-6018956D01*
X7014760Y-6018955D01*
X6858001Y-5998318D01*
X6857999Y-5998318D01*
X6701239Y-6018955D01*
X6701237Y-6018956D01*
X6555160Y-6079463D01*
X6429718Y-6175718D01*
X6333463Y-6301160D01*
X6272956Y-6447237D01*
X6272955Y-6447239D01*
X6252318Y-6603998D01*
X6252318Y-6604001D01*
X-7014318Y-6604001D01*
X-7014318Y-6603998D01*
X-7034955Y-6447239D01*
X-7034956Y-6447237D01*
X-7095463Y-6301160D01*
X-7191718Y-6175718D01*
X-7317160Y-6079463D01*
X-7463237Y-6018956D01*
X-7463239Y-6018955D01*
X-7619999Y-5998318D01*
X-7620001Y-5998318D01*
X-7776760Y-6018955D01*
X-7776762Y-6018956D01*
X-7922841Y-6079464D01*
X-8048282Y-6175718D01*
X-8144536Y-6301159D01*
X-8205044Y-6447238D01*
X-8225682Y-6604000D01*
X-9869233Y-6604000D01*
X-9889463Y-6555160D01*
X-9985718Y-6429718D01*
X-10111160Y-6333463D01*
X-10257237Y-6272956D01*
X-10257239Y-6272955D01*
X-10413999Y-6252318D01*
X-10414001Y-6252318D01*
X-10570760Y-6272955D01*
X-10570762Y-6272956D01*
X-10638852Y-6301160D01*
X-10716841Y-6333464D01*
X-10842282Y-6429718D01*
X-10938536Y-6555159D01*
X-10999044Y-6701238D01*
X-11019682Y-6858000D01*
X-18745500Y-6858000D01*
X-18745500Y-4000000D01*
X-11859237Y-4000000D01*
X-11840313Y-4264597D01*
X-11783925Y-4523808D01*
X-11691221Y-4772355D01*
X-11691218Y-4772359D01*
X-11691218Y-4772361D01*
X-11640704Y-4864871D01*
X-11564090Y-5005179D01*
X-11405118Y-5217541D01*
X-11217541Y-5405118D01*
X-11005179Y-5564090D01*
X-10772360Y-5691218D01*
X-10772359Y-5691218D01*
X-10772355Y-5691221D01*
X-10523808Y-5783925D01*
X-10264597Y-5840313D01*
X-10026508Y-5857341D01*
X-10000001Y-5859237D01*
X-10000000Y-5859237D01*
X-9999999Y-5859237D01*
X-9970540Y-5857130D01*
X-9735403Y-5840313D01*
X-9735399Y-5840312D01*
X-9735397Y-5840312D01*
X-9476200Y-5783927D01*
X-9476198Y-5783926D01*
X-9476192Y-5783925D01*
X-9227645Y-5691221D01*
X-9227642Y-5691219D01*
X-9227638Y-5691218D01*
X-8994826Y-5564093D01*
X-8994818Y-5564088D01*
X-8782466Y-5405124D01*
X-8782448Y-5405108D01*
X-8594891Y-5217551D01*
X-8594875Y-5217533D01*
X-8435911Y-5005181D01*
X-8435906Y-5005173D01*
X-8308781Y-4772361D01*
X-8227882Y-4555463D01*
X-8216075Y-4523808D01*
X-8216074Y-4523805D01*
X-8216072Y-4523799D01*
X-8159687Y-4264602D01*
X-8140763Y-4000001D01*
X8140763Y-4000001D01*
X8159687Y-4264602D01*
X8216072Y-4523799D01*
X8216074Y-4523805D01*
X8216075Y-4523808D01*
X8227882Y-4555463D01*
X8308781Y-4772361D01*
X8435906Y-5005173D01*
X8435911Y-5005181D01*
X8594875Y-5217533D01*
X8594891Y-5217551D01*
X8782448Y-5405108D01*
X8782466Y-5405124D01*
X8994818Y-5564088D01*
X8994826Y-5564093D01*
X9227639Y-5691218D01*
X9227638Y-5691218D01*
X9227642Y-5691219D01*
X9227645Y-5691221D01*
X9476192Y-5783925D01*
X9476198Y-5783926D01*
X9476200Y-5783927D01*
X9735397Y-5840312D01*
X9735399Y-5840312D01*
X9735403Y-5840313D01*
X9970540Y-5857130D01*
X9999999Y-5859237D01*
X10000000Y-5859237D01*
X10000001Y-5859237D01*
X10026508Y-5857341D01*
X10264597Y-5840313D01*
X10523808Y-5783925D01*
X10772355Y-5691221D01*
X10772359Y-5691218D01*
X10772361Y-5691218D01*
X10931107Y-5604536D01*
X11005179Y-5564090D01*
X11217541Y-5405118D01*
X11405118Y-5217541D01*
X11564090Y-5005179D01*
X11640704Y-4864871D01*
X11691218Y-4772361D01*
X11691218Y-4772359D01*
X11691221Y-4772355D01*
X11783925Y-4523808D01*
X11840313Y-4264597D01*
X11859237Y-4000000D01*
X11840313Y-3735403D01*
X11783925Y-3476192D01*
X11691221Y-3227645D01*
X11691219Y-3227642D01*
X11691218Y-3227638D01*
X11564093Y-2994826D01*
X11564088Y-2994818D01*
X11405124Y-2782466D01*
X11405108Y-2782448D01*
X11217551Y-2594891D01*
X11217533Y-2594875D01*
X11005181Y-2435911D01*
X11005173Y-2435906D01*
X10772360Y-2308781D01*
X10772361Y-2308781D01*
X10672936Y-2271697D01*
X10523808Y-2216075D01*
X10523805Y-2216074D01*
X10523799Y-2216072D01*
X10264602Y-2159687D01*
X10000001Y-2140763D01*
X9999999Y-2140763D01*
X9735397Y-2159687D01*
X9476200Y-2216072D01*
X9227638Y-2308781D01*
X8994826Y-2435906D01*
X8994818Y-2435911D01*
X8782466Y-2594875D01*
X8782448Y-2594891D01*
X8594891Y-2782448D01*
X8594875Y-2782466D01*
X8435911Y-2994818D01*
X8435906Y-2994826D01*
X8308781Y-3227638D01*
X8216072Y-3476200D01*
X8159687Y-3735397D01*
X8140763Y-3999998D01*
X8140763Y-4000001D01*
X-8140763Y-4000001D01*
X-8140763Y-3999998D01*
X-8159687Y-3735397D01*
X-8216072Y-3476200D01*
X-8308781Y-3227638D01*
X-8435906Y-2994826D01*
X-8435911Y-2994818D01*
X-8594875Y-2782466D01*
X-8594891Y-2782448D01*
X-8782448Y-2594891D01*
X-8782466Y-2594875D01*
X-8994818Y-2435911D01*
X-8994826Y-2435906D01*
X-9227639Y-2308781D01*
X-9227638Y-2308781D01*
X-9476200Y-2216072D01*
X-9735397Y-2159687D01*
X-9999999Y-2140763D01*
X-10000001Y-2140763D01*
X-10264602Y-2159687D01*
X-10523799Y-2216072D01*
X-10523805Y-2216074D01*
X-10523808Y-2216075D01*
X-10672936Y-2271697D01*
X-10772361Y-2308781D01*
X-11005173Y-2435906D01*
X-11005181Y-2435911D01*
X-11217533Y-2594875D01*
X-11217551Y-2594891D01*
X-11405108Y-2782448D01*
X-11405124Y-2782466D01*
X-11564088Y-2994818D01*
X-11564093Y-2994826D01*
X-11691218Y-3227638D01*
X-11691219Y-3227642D01*
X-11691221Y-3227645D01*
X-11783925Y-3476192D01*
X-11840313Y-3735403D01*
X-11859237Y-4000000D01*
X-18745500Y-4000000D01*
X-18745500Y-378500D01*
X-18725815Y-311461D01*
X-18673011Y-265706D01*
X-18621500Y-254500D01*
X-7490500Y-254500D01*
X-7423461Y-274185D01*
G37*
%TD.AperFunction*%
%TD*%
M02*
