%TF.GenerationSoftware,KiCad,Pcbnew,7.0.7*%
%TF.CreationDate,2024-03-07T18:56:00-05:00*%
%TF.ProjectId,ESP32Sensor-Sensor_board,45535033-3253-4656-9e73-6f722d53656e,rev?*%
%TF.SameCoordinates,Original*%
%TF.FileFunction,Soldermask,Bot*%
%TF.FilePolarity,Negative*%
%FSLAX46Y46*%
G04 Gerber Fmt 4.6, Leading zero omitted, Abs format (unit mm)*
G04 Created by KiCad (PCBNEW 7.0.7) date 2024-03-07 18:56:00*
%MOMM*%
%LPD*%
G01*
G04 APERTURE LIST*
G04 Aperture macros list*
%AMRoundRect*
0 Rectangle with rounded corners*
0 $1 Rounding radius*
0 $2 $3 $4 $5 $6 $7 $8 $9 X,Y pos of 4 corners*
0 Add a 4 corners polygon primitive as box body*
4,1,4,$2,$3,$4,$5,$6,$7,$8,$9,$2,$3,0*
0 Add four circle primitives for the rounded corners*
1,1,$1+$1,$2,$3*
1,1,$1+$1,$4,$5*
1,1,$1+$1,$6,$7*
1,1,$1+$1,$8,$9*
0 Add four rect primitives between the rounded corners*
20,1,$1+$1,$2,$3,$4,$5,0*
20,1,$1+$1,$4,$5,$6,$7,0*
20,1,$1+$1,$6,$7,$8,$9,0*
20,1,$1+$1,$8,$9,$2,$3,0*%
%AMHorizOval*
0 Thick line with rounded ends*
0 $1 width*
0 $2 $3 position (X,Y) of the first rounded end (center of the circle)*
0 $4 $5 position (X,Y) of the second rounded end (center of the circle)*
0 Add line between two ends*
20,1,$1,$2,$3,$4,$5,0*
0 Add two circle primitives to create the rounded ends*
1,1,$1,$2,$3*
1,1,$1,$4,$5*%
G04 Aperture macros list end*
%ADD10C,0.650000*%
%ADD11O,1.000000X2.100000*%
%ADD12O,1.000000X1.800000*%
%ADD13HorizOval,1.600000X0.176777X0.176777X-0.176777X-0.176777X0*%
%ADD14HorizOval,1.600000X0.000000X0.000000X0.000000X0.000000X0*%
%ADD15R,1.700000X1.700000*%
%ADD16O,1.700000X1.700000*%
%ADD17O,2.000000X4.200000*%
%ADD18O,4.000000X2.000000*%
%ADD19R,4.500000X2.000000*%
%ADD20RoundRect,0.250000X-0.250000X-0.475000X0.250000X-0.475000X0.250000X0.475000X-0.250000X0.475000X0*%
%ADD21RoundRect,0.250000X0.300000X0.300000X-0.300000X0.300000X-0.300000X-0.300000X0.300000X-0.300000X0*%
%ADD22RoundRect,0.135000X0.185000X-0.135000X0.185000X0.135000X-0.185000X0.135000X-0.185000X-0.135000X0*%
%ADD23R,0.400000X0.650000*%
%ADD24RoundRect,0.135000X-0.135000X-0.185000X0.135000X-0.185000X0.135000X0.185000X-0.135000X0.185000X0*%
%ADD25RoundRect,0.093750X-0.106250X0.093750X-0.106250X-0.093750X0.106250X-0.093750X0.106250X0.093750X0*%
%ADD26R,1.600000X1.000000*%
%ADD27RoundRect,0.135000X-0.185000X0.135000X-0.185000X-0.135000X0.185000X-0.135000X0.185000X0.135000X0*%
%ADD28C,1.000000*%
%ADD29RoundRect,0.135000X0.135000X0.185000X-0.135000X0.185000X-0.135000X-0.185000X0.135000X-0.185000X0*%
%ADD30RoundRect,0.140000X0.170000X-0.140000X0.170000X0.140000X-0.170000X0.140000X-0.170000X-0.140000X0*%
%ADD31RoundRect,0.062500X-0.062500X0.275000X-0.062500X-0.275000X0.062500X-0.275000X0.062500X0.275000X0*%
%ADD32RoundRect,0.062500X-0.275000X0.062500X-0.275000X-0.062500X0.275000X-0.062500X0.275000X0.062500X0*%
%ADD33R,1.450000X1.450000*%
%ADD34RoundRect,0.225000X0.225000X0.375000X-0.225000X0.375000X-0.225000X-0.375000X0.225000X-0.375000X0*%
%ADD35R,0.300000X0.800000*%
%ADD36RoundRect,0.225000X-0.250000X0.225000X-0.250000X-0.225000X0.250000X-0.225000X0.250000X0.225000X0*%
%ADD37RoundRect,0.140000X-0.170000X0.140000X-0.170000X-0.140000X0.170000X-0.140000X0.170000X0.140000X0*%
%ADD38RoundRect,0.102000X-0.750000X-0.450000X0.750000X-0.450000X0.750000X0.450000X-0.750000X0.450000X0*%
%ADD39RoundRect,0.102000X-0.350000X-0.350000X0.350000X-0.350000X0.350000X0.350000X-0.350000X0.350000X0*%
%ADD40R,1.000000X1.000000*%
%ADD41O,1.000000X1.000000*%
%ADD42RoundRect,0.062500X-0.062500X0.350000X-0.062500X-0.350000X0.062500X-0.350000X0.062500X0.350000X0*%
%ADD43RoundRect,0.062500X-0.350000X0.062500X-0.350000X-0.062500X0.350000X-0.062500X0.350000X0.062500X0*%
%ADD44R,2.600000X2.600000*%
%ADD45RoundRect,0.225000X0.225000X0.250000X-0.225000X0.250000X-0.225000X-0.250000X0.225000X-0.250000X0*%
G04 APERTURE END LIST*
D10*
%TO.C,J3*%
X14110000Y-23210000D03*
X19890000Y-23210000D03*
D11*
X12680000Y-22710000D03*
D12*
X12680000Y-26890000D03*
X21320000Y-26890000D03*
D11*
X21320000Y-22710000D03*
%TD*%
D13*
%TO.C,PD1*%
X-2517300Y-2503158D03*
D14*
X-2517300Y2517300D03*
X2503158Y2517300D03*
%TD*%
D15*
%TO.C,J6*%
X-24825000Y-8875000D03*
D16*
X-24825000Y-6335000D03*
X-24825000Y-3795000D03*
X-24825000Y-1255000D03*
X-24825000Y1285000D03*
X-24825000Y3825000D03*
X-24825000Y6365000D03*
X-24825000Y8905000D03*
%TD*%
D17*
%TO.C,J1*%
X-12300000Y-18700000D03*
D18*
X-17000000Y-21700000D03*
D19*
X-17000000Y-15700000D03*
%TD*%
D20*
%TO.C,C1*%
X18050000Y-7200000D03*
X19950000Y-7200000D03*
%TD*%
D21*
%TO.C,CR2*%
X21800000Y11400000D03*
X19000000Y11400000D03*
%TD*%
D22*
%TO.C,R1*%
X19400000Y-10710000D03*
X19400000Y-9690000D03*
%TD*%
D23*
%TO.C,U10*%
X11900000Y-7450000D03*
X11250000Y-7450000D03*
X10600000Y-7450000D03*
X10600000Y-5550000D03*
X11250000Y-5550000D03*
X11900000Y-5550000D03*
%TD*%
D24*
%TO.C,R21*%
X22240000Y4350000D03*
X23260000Y4350000D03*
%TD*%
D25*
%TO.C,U14*%
X-13900000Y-9468750D03*
X-13250000Y-9468750D03*
X-12600000Y-9468750D03*
X-12600000Y-11243750D03*
X-13250000Y-11243750D03*
X-13900000Y-11243750D03*
D26*
X-13250000Y-10356250D03*
%TD*%
D27*
%TO.C,R18*%
X8800000Y-5990000D03*
X8800000Y-7010000D03*
%TD*%
D28*
%TO.C,TP1*%
X11000000Y-11200000D03*
%TD*%
%TO.C,TP2*%
X11000000Y-13200000D03*
%TD*%
D25*
%TO.C,U11*%
X13100000Y5537500D03*
X13750000Y5537500D03*
X14400000Y5537500D03*
X14400000Y3762500D03*
X13750000Y3762500D03*
X13100000Y3762500D03*
D26*
X13750000Y4650000D03*
%TD*%
D29*
%TO.C,R17*%
X25510000Y3100000D03*
X24490000Y3100000D03*
%TD*%
D30*
%TO.C,C29*%
X-15400000Y-11830000D03*
X-15400000Y-10870000D03*
%TD*%
D31*
%TO.C,U8*%
X21760000Y-9775000D03*
X22260000Y-9775000D03*
X22760000Y-9775000D03*
D32*
X23522500Y-10287500D03*
X23522500Y-10787500D03*
X23522500Y-11287500D03*
X23522500Y-11787500D03*
D31*
X22760000Y-12300000D03*
X22260000Y-12300000D03*
X21760000Y-12300000D03*
D32*
X20997500Y-11787500D03*
X20997500Y-11287500D03*
X20997500Y-10787500D03*
X20997500Y-10287500D03*
D33*
X22260000Y-11037500D03*
%TD*%
D34*
%TO.C,CR3*%
X22250000Y8700000D03*
X18950000Y8700000D03*
%TD*%
D35*
%TO.C,U12*%
X22750000Y-1550000D03*
X22250000Y-1550000D03*
X21750000Y-1550000D03*
X21250000Y-1550000D03*
X21250000Y1550000D03*
X21750000Y1550000D03*
X22250000Y1550000D03*
X22750000Y1550000D03*
%TD*%
D36*
%TO.C,C25*%
X11750000Y5425000D03*
X11750000Y3875000D03*
%TD*%
D37*
%TO.C,C20*%
X21900000Y-7120000D03*
X21900000Y-8080000D03*
%TD*%
D27*
%TO.C,R19*%
X13700000Y-5990000D03*
X13700000Y-7010000D03*
%TD*%
D38*
%TO.C,U9*%
X-8750000Y-22200000D03*
X-8750000Y-20700000D03*
X-8750000Y-19200000D03*
X-8750000Y-17700000D03*
X-8750000Y-16200000D03*
X-8750000Y-14700000D03*
X-8750000Y-13200000D03*
X-8750000Y-11700000D03*
X-8750000Y-10200000D03*
X8750000Y-10200000D03*
X8750000Y-11700000D03*
X8750000Y-13200000D03*
X8750000Y-14700000D03*
X8750000Y-16200000D03*
X8750000Y-17700000D03*
X8750000Y-19200000D03*
X8750000Y-20700000D03*
X8750000Y-22200000D03*
D39*
X-140000Y-17100000D03*
X960000Y-17100000D03*
X2060000Y-17100000D03*
X-140000Y-16000000D03*
X960000Y-16000000D03*
X2060000Y-16000000D03*
X-140000Y-14900000D03*
X960000Y-14900000D03*
X2060000Y-14900000D03*
%TD*%
D40*
%TO.C,J4*%
X17275000Y-625000D03*
D41*
X17275000Y645000D03*
X16005000Y-625000D03*
X16005000Y645000D03*
X14735000Y-625000D03*
X14735000Y645000D03*
%TD*%
D37*
%TO.C,C21*%
X24250000Y1880000D03*
X24250000Y920000D03*
%TD*%
D30*
%TO.C,C24*%
X15700000Y4170000D03*
X15700000Y5130000D03*
%TD*%
D40*
%TO.C,J7*%
X-14725000Y-625000D03*
D41*
X-14725000Y645000D03*
X-15995000Y-625000D03*
X-15995000Y645000D03*
X-17265000Y-625000D03*
X-17265000Y645000D03*
%TD*%
D37*
%TO.C,C19*%
X19400000Y-12220000D03*
X19400000Y-13180000D03*
%TD*%
D42*
%TO.C,U15*%
X14450000Y-9362500D03*
X14950000Y-9362500D03*
X15450000Y-9362500D03*
X15950000Y-9362500D03*
X16450000Y-9362500D03*
X16950000Y-9362500D03*
D43*
X17637500Y-10050000D03*
X17637500Y-10550000D03*
X17637500Y-11050000D03*
X17637500Y-11550000D03*
X17637500Y-12050000D03*
X17637500Y-12550000D03*
D42*
X16950000Y-13237500D03*
X16450000Y-13237500D03*
X15950000Y-13237500D03*
X15450000Y-13237500D03*
X14950000Y-13237500D03*
X14450000Y-13237500D03*
D43*
X13762500Y-12550000D03*
X13762500Y-12050000D03*
X13762500Y-11550000D03*
X13762500Y-11050000D03*
X13762500Y-10550000D03*
X13762500Y-10050000D03*
D44*
X15700000Y-11300000D03*
%TD*%
D24*
%TO.C,R20*%
X22240000Y3100000D03*
X23260000Y3100000D03*
%TD*%
D45*
%TO.C,C30*%
X-15625000Y-9400000D03*
X-17175000Y-9400000D03*
%TD*%
M02*
