%TF.GenerationSoftware,KiCad,Pcbnew,7.0.7*%
%TF.CreationDate,2024-03-07T18:56:00-05:00*%
%TF.ProjectId,ESP32Sensor-Sensor_board,45535033-3253-4656-9e73-6f722d53656e,rev?*%
%TF.SameCoordinates,Original*%
%TF.FileFunction,Legend,Bot*%
%TF.FilePolarity,Positive*%
%FSLAX46Y46*%
G04 Gerber Fmt 4.6, Leading zero omitted, Abs format (unit mm)*
G04 Created by KiCad (PCBNEW 7.0.7) date 2024-03-07 18:56:00*
%MOMM*%
%LPD*%
G01*
G04 APERTURE LIST*
G04 Aperture macros list*
%AMRoundRect*
0 Rectangle with rounded corners*
0 $1 Rounding radius*
0 $2 $3 $4 $5 $6 $7 $8 $9 X,Y pos of 4 corners*
0 Add a 4 corners polygon primitive as box body*
4,1,4,$2,$3,$4,$5,$6,$7,$8,$9,$2,$3,0*
0 Add four circle primitives for the rounded corners*
1,1,$1+$1,$2,$3*
1,1,$1+$1,$4,$5*
1,1,$1+$1,$6,$7*
1,1,$1+$1,$8,$9*
0 Add four rect primitives between the rounded corners*
20,1,$1+$1,$2,$3,$4,$5,0*
20,1,$1+$1,$4,$5,$6,$7,0*
20,1,$1+$1,$6,$7,$8,$9,0*
20,1,$1+$1,$8,$9,$2,$3,0*%
%AMHorizOval*
0 Thick line with rounded ends*
0 $1 width*
0 $2 $3 position (X,Y) of the first rounded end (center of the circle)*
0 $4 $5 position (X,Y) of the second rounded end (center of the circle)*
0 Add line between two ends*
20,1,$1,$2,$3,$4,$5,0*
0 Add two circle primitives to create the rounded ends*
1,1,$1,$2,$3*
1,1,$1,$4,$5*%
G04 Aperture macros list end*
%ADD10C,0.300000*%
%ADD11C,0.150000*%
%ADD12C,0.120000*%
%ADD13C,0.127000*%
%ADD14C,0.200000*%
%ADD15C,0.650000*%
%ADD16O,1.000000X2.100000*%
%ADD17O,1.000000X1.800000*%
%ADD18HorizOval,1.600000X0.176777X0.176777X-0.176777X-0.176777X0*%
%ADD19HorizOval,1.600000X0.000000X0.000000X0.000000X0.000000X0*%
%ADD20R,1.700000X1.700000*%
%ADD21O,1.700000X1.700000*%
%ADD22O,2.000000X4.200000*%
%ADD23O,4.000000X2.000000*%
%ADD24R,4.500000X2.000000*%
%ADD25RoundRect,0.250000X-0.250000X-0.475000X0.250000X-0.475000X0.250000X0.475000X-0.250000X0.475000X0*%
%ADD26RoundRect,0.250000X0.300000X0.300000X-0.300000X0.300000X-0.300000X-0.300000X0.300000X-0.300000X0*%
%ADD27RoundRect,0.135000X0.185000X-0.135000X0.185000X0.135000X-0.185000X0.135000X-0.185000X-0.135000X0*%
%ADD28R,0.400000X0.650000*%
%ADD29RoundRect,0.135000X-0.135000X-0.185000X0.135000X-0.185000X0.135000X0.185000X-0.135000X0.185000X0*%
%ADD30RoundRect,0.093750X-0.106250X0.093750X-0.106250X-0.093750X0.106250X-0.093750X0.106250X0.093750X0*%
%ADD31R,1.600000X1.000000*%
%ADD32RoundRect,0.135000X-0.185000X0.135000X-0.185000X-0.135000X0.185000X-0.135000X0.185000X0.135000X0*%
%ADD33C,1.000000*%
%ADD34RoundRect,0.135000X0.135000X0.185000X-0.135000X0.185000X-0.135000X-0.185000X0.135000X-0.185000X0*%
%ADD35RoundRect,0.140000X0.170000X-0.140000X0.170000X0.140000X-0.170000X0.140000X-0.170000X-0.140000X0*%
%ADD36RoundRect,0.062500X-0.062500X0.275000X-0.062500X-0.275000X0.062500X-0.275000X0.062500X0.275000X0*%
%ADD37RoundRect,0.062500X-0.275000X0.062500X-0.275000X-0.062500X0.275000X-0.062500X0.275000X0.062500X0*%
%ADD38R,1.450000X1.450000*%
%ADD39RoundRect,0.225000X0.225000X0.375000X-0.225000X0.375000X-0.225000X-0.375000X0.225000X-0.375000X0*%
%ADD40R,0.300000X0.800000*%
%ADD41RoundRect,0.225000X-0.250000X0.225000X-0.250000X-0.225000X0.250000X-0.225000X0.250000X0.225000X0*%
%ADD42RoundRect,0.140000X-0.170000X0.140000X-0.170000X-0.140000X0.170000X-0.140000X0.170000X0.140000X0*%
%ADD43RoundRect,0.102000X-0.750000X-0.450000X0.750000X-0.450000X0.750000X0.450000X-0.750000X0.450000X0*%
%ADD44RoundRect,0.102000X-0.350000X-0.350000X0.350000X-0.350000X0.350000X0.350000X-0.350000X0.350000X0*%
%ADD45R,1.000000X1.000000*%
%ADD46O,1.000000X1.000000*%
%ADD47RoundRect,0.062500X-0.062500X0.350000X-0.062500X-0.350000X0.062500X-0.350000X0.062500X0.350000X0*%
%ADD48RoundRect,0.062500X-0.350000X0.062500X-0.350000X-0.062500X0.350000X-0.062500X0.350000X0.062500X0*%
%ADD49R,2.600000X2.600000*%
%ADD50RoundRect,0.225000X0.225000X0.250000X-0.225000X0.250000X-0.225000X-0.250000X0.225000X-0.250000X0*%
G04 APERTURE END LIST*
D10*
X1030776Y15000000D02*
G75*
G03*
X1030776Y15000000I-1030776J0D01*
G01*
X1600000Y15000000D02*
G75*
G03*
X1600000Y15000000I-1600000J0D01*
G01*
X500000Y15000000D02*
G75*
G03*
X500000Y15000000I-500000J0D01*
G01*
D11*
X6714286Y19520180D02*
X6714286Y20520180D01*
X6238096Y20186847D02*
X6238096Y19520180D01*
X6238096Y20091609D02*
X6190477Y20139228D01*
X6190477Y20139228D02*
X6095239Y20186847D01*
X6095239Y20186847D02*
X5952382Y20186847D01*
X5952382Y20186847D02*
X5857144Y20139228D01*
X5857144Y20139228D02*
X5809525Y20043990D01*
X5809525Y20043990D02*
X5809525Y19520180D01*
X4714286Y20520180D02*
X4142858Y20520180D01*
X4428572Y19520180D02*
X4428572Y20520180D01*
X3809524Y19520180D02*
X3809524Y20520180D01*
X3380953Y19520180D02*
X3380953Y20043990D01*
X3380953Y20043990D02*
X3428572Y20139228D01*
X3428572Y20139228D02*
X3523810Y20186847D01*
X3523810Y20186847D02*
X3666667Y20186847D01*
X3666667Y20186847D02*
X3761905Y20139228D01*
X3761905Y20139228D02*
X3809524Y20091609D01*
X2904762Y19520180D02*
X2904762Y20186847D01*
X2904762Y19996371D02*
X2857143Y20091609D01*
X2857143Y20091609D02*
X2809524Y20139228D01*
X2809524Y20139228D02*
X2714286Y20186847D01*
X2714286Y20186847D02*
X2619048Y20186847D01*
X1857143Y20186847D02*
X1857143Y19520180D01*
X2285714Y20186847D02*
X2285714Y19663038D01*
X2285714Y19663038D02*
X2238095Y19567800D01*
X2238095Y19567800D02*
X2142857Y19520180D01*
X2142857Y19520180D02*
X2000000Y19520180D01*
X2000000Y19520180D02*
X1904762Y19567800D01*
X1904762Y19567800D02*
X1857143Y19615419D01*
X1428571Y19567800D02*
X1333333Y19520180D01*
X1333333Y19520180D02*
X1142857Y19520180D01*
X1142857Y19520180D02*
X1047619Y19567800D01*
X1047619Y19567800D02*
X1000000Y19663038D01*
X1000000Y19663038D02*
X1000000Y19710657D01*
X1000000Y19710657D02*
X1047619Y19805895D01*
X1047619Y19805895D02*
X1142857Y19853514D01*
X1142857Y19853514D02*
X1285714Y19853514D01*
X1285714Y19853514D02*
X1380952Y19901133D01*
X1380952Y19901133D02*
X1428571Y19996371D01*
X1428571Y19996371D02*
X1428571Y20043990D01*
X1428571Y20043990D02*
X1380952Y20139228D01*
X1380952Y20139228D02*
X1285714Y20186847D01*
X1285714Y20186847D02*
X1142857Y20186847D01*
X1142857Y20186847D02*
X1047619Y20139228D01*
X714285Y20186847D02*
X333333Y20186847D01*
X571428Y20520180D02*
X571428Y19663038D01*
X571428Y19663038D02*
X523809Y19567800D01*
X523809Y19567800D02*
X428571Y19520180D01*
X428571Y19520180D02*
X333333Y19520180D01*
X-666667Y20520180D02*
X-904762Y19520180D01*
X-904762Y19520180D02*
X-1095238Y20234466D01*
X-1095238Y20234466D02*
X-1285714Y19520180D01*
X-1285714Y19520180D02*
X-1523810Y20520180D01*
X-2285714Y19567800D02*
X-2190476Y19520180D01*
X-2190476Y19520180D02*
X-2000000Y19520180D01*
X-2000000Y19520180D02*
X-1904762Y19567800D01*
X-1904762Y19567800D02*
X-1857143Y19663038D01*
X-1857143Y19663038D02*
X-1857143Y20043990D01*
X-1857143Y20043990D02*
X-1904762Y20139228D01*
X-1904762Y20139228D02*
X-2000000Y20186847D01*
X-2000000Y20186847D02*
X-2190476Y20186847D01*
X-2190476Y20186847D02*
X-2285714Y20139228D01*
X-2285714Y20139228D02*
X-2333333Y20043990D01*
X-2333333Y20043990D02*
X-2333333Y19948752D01*
X-2333333Y19948752D02*
X-1857143Y19853514D01*
X-3380953Y20520180D02*
X-3952381Y20520180D01*
X-3666667Y19520180D02*
X-3666667Y20520180D01*
X-4285715Y19520180D02*
X-4285715Y20186847D01*
X-4285715Y19996371D02*
X-4333334Y20091609D01*
X-4333334Y20091609D02*
X-4380953Y20139228D01*
X-4380953Y20139228D02*
X-4476191Y20186847D01*
X-4476191Y20186847D02*
X-4571429Y20186847D01*
X-5333334Y20186847D02*
X-5333334Y19520180D01*
X-4904763Y20186847D02*
X-4904763Y19663038D01*
X-4904763Y19663038D02*
X-4952382Y19567800D01*
X-4952382Y19567800D02*
X-5047620Y19520180D01*
X-5047620Y19520180D02*
X-5190477Y19520180D01*
X-5190477Y19520180D02*
X-5285715Y19567800D01*
X-5285715Y19567800D02*
X-5333334Y19615419D01*
X-5761906Y19567800D02*
X-5857144Y19520180D01*
X-5857144Y19520180D02*
X-6047620Y19520180D01*
X-6047620Y19520180D02*
X-6142858Y19567800D01*
X-6142858Y19567800D02*
X-6190477Y19663038D01*
X-6190477Y19663038D02*
X-6190477Y19710657D01*
X-6190477Y19710657D02*
X-6142858Y19805895D01*
X-6142858Y19805895D02*
X-6047620Y19853514D01*
X-6047620Y19853514D02*
X-5904763Y19853514D01*
X-5904763Y19853514D02*
X-5809525Y19901133D01*
X-5809525Y19901133D02*
X-5761906Y19996371D01*
X-5761906Y19996371D02*
X-5761906Y20043990D01*
X-5761906Y20043990D02*
X-5809525Y20139228D01*
X-5809525Y20139228D02*
X-5904763Y20186847D01*
X-5904763Y20186847D02*
X-6047620Y20186847D01*
X-6047620Y20186847D02*
X-6142858Y20139228D01*
X-6476192Y20186847D02*
X-6857144Y20186847D01*
X-6619049Y20520180D02*
X-6619049Y19663038D01*
X-6619049Y19663038D02*
X-6666668Y19567800D01*
X-6666668Y19567800D02*
X-6761906Y19520180D01*
X-6761906Y19520180D02*
X-6857144Y19520180D01*
X9238096Y11885895D02*
X8761906Y11885895D01*
X9333334Y11600180D02*
X9000001Y12600180D01*
X9000001Y12600180D02*
X8666668Y11600180D01*
X8190477Y11600180D02*
X8285715Y11647800D01*
X8285715Y11647800D02*
X8333334Y11743038D01*
X8333334Y11743038D02*
X8333334Y12600180D01*
X7809524Y11600180D02*
X7809524Y12266847D01*
X7809524Y12600180D02*
X7857143Y12552561D01*
X7857143Y12552561D02*
X7809524Y12504942D01*
X7809524Y12504942D02*
X7761905Y12552561D01*
X7761905Y12552561D02*
X7809524Y12600180D01*
X7809524Y12600180D02*
X7809524Y12504942D01*
X6904763Y12266847D02*
X6904763Y11457323D01*
X6904763Y11457323D02*
X6952382Y11362085D01*
X6952382Y11362085D02*
X7000001Y11314466D01*
X7000001Y11314466D02*
X7095239Y11266847D01*
X7095239Y11266847D02*
X7238096Y11266847D01*
X7238096Y11266847D02*
X7333334Y11314466D01*
X6904763Y11647800D02*
X7000001Y11600180D01*
X7000001Y11600180D02*
X7190477Y11600180D01*
X7190477Y11600180D02*
X7285715Y11647800D01*
X7285715Y11647800D02*
X7333334Y11695419D01*
X7333334Y11695419D02*
X7380953Y11790657D01*
X7380953Y11790657D02*
X7380953Y12076371D01*
X7380953Y12076371D02*
X7333334Y12171609D01*
X7333334Y12171609D02*
X7285715Y12219228D01*
X7285715Y12219228D02*
X7190477Y12266847D01*
X7190477Y12266847D02*
X7000001Y12266847D01*
X7000001Y12266847D02*
X6904763Y12219228D01*
X6428572Y12266847D02*
X6428572Y11600180D01*
X6428572Y12171609D02*
X6380953Y12219228D01*
X6380953Y12219228D02*
X6285715Y12266847D01*
X6285715Y12266847D02*
X6142858Y12266847D01*
X6142858Y12266847D02*
X6047620Y12219228D01*
X6047620Y12219228D02*
X6000001Y12123990D01*
X6000001Y12123990D02*
X6000001Y11600180D01*
X4285715Y11600180D02*
X4761905Y11600180D01*
X4761905Y11600180D02*
X4761905Y12600180D01*
X3952381Y12123990D02*
X3619048Y12123990D01*
X3476191Y11600180D02*
X3952381Y11600180D01*
X3952381Y11600180D02*
X3952381Y12600180D01*
X3952381Y12600180D02*
X3476191Y12600180D01*
X3047619Y11600180D02*
X3047619Y12600180D01*
X3047619Y12600180D02*
X2809524Y12600180D01*
X2809524Y12600180D02*
X2666667Y12552561D01*
X2666667Y12552561D02*
X2571429Y12457323D01*
X2571429Y12457323D02*
X2523810Y12362085D01*
X2523810Y12362085D02*
X2476191Y12171609D01*
X2476191Y12171609D02*
X2476191Y12028752D01*
X2476191Y12028752D02*
X2523810Y11838276D01*
X2523810Y11838276D02*
X2571429Y11743038D01*
X2571429Y11743038D02*
X2666667Y11647800D01*
X2666667Y11647800D02*
X2809524Y11600180D01*
X2809524Y11600180D02*
X3047619Y11600180D01*
X1285714Y11600180D02*
X1285714Y12600180D01*
X1285714Y12600180D02*
X904762Y12600180D01*
X904762Y12600180D02*
X809524Y12552561D01*
X809524Y12552561D02*
X761905Y12504942D01*
X761905Y12504942D02*
X714286Y12409704D01*
X714286Y12409704D02*
X714286Y12266847D01*
X714286Y12266847D02*
X761905Y12171609D01*
X761905Y12171609D02*
X809524Y12123990D01*
X809524Y12123990D02*
X904762Y12076371D01*
X904762Y12076371D02*
X1285714Y12076371D01*
X-285713Y11695419D02*
X-238094Y11647800D01*
X-238094Y11647800D02*
X-95237Y11600180D01*
X-95237Y11600180D02*
X0Y11600180D01*
X0Y11600180D02*
X142857Y11647800D01*
X142857Y11647800D02*
X238095Y11743038D01*
X238095Y11743038D02*
X285714Y11838276D01*
X285714Y11838276D02*
X333333Y12028752D01*
X333333Y12028752D02*
X333333Y12171609D01*
X333333Y12171609D02*
X285714Y12362085D01*
X285714Y12362085D02*
X238095Y12457323D01*
X238095Y12457323D02*
X142857Y12552561D01*
X142857Y12552561D02*
X0Y12600180D01*
X0Y12600180D02*
X-95237Y12600180D01*
X-95237Y12600180D02*
X-238094Y12552561D01*
X-238094Y12552561D02*
X-285713Y12504942D01*
X-1047618Y12123990D02*
X-1190475Y12076371D01*
X-1190475Y12076371D02*
X-1238094Y12028752D01*
X-1238094Y12028752D02*
X-1285713Y11933514D01*
X-1285713Y11933514D02*
X-1285713Y11790657D01*
X-1285713Y11790657D02*
X-1238094Y11695419D01*
X-1238094Y11695419D02*
X-1190475Y11647800D01*
X-1190475Y11647800D02*
X-1095237Y11600180D01*
X-1095237Y11600180D02*
X-714285Y11600180D01*
X-714285Y11600180D02*
X-714285Y12600180D01*
X-714285Y12600180D02*
X-1047618Y12600180D01*
X-1047618Y12600180D02*
X-1142856Y12552561D01*
X-1142856Y12552561D02*
X-1190475Y12504942D01*
X-1190475Y12504942D02*
X-1238094Y12409704D01*
X-1238094Y12409704D02*
X-1238094Y12314466D01*
X-1238094Y12314466D02*
X-1190475Y12219228D01*
X-1190475Y12219228D02*
X-1142856Y12171609D01*
X-1142856Y12171609D02*
X-1047618Y12123990D01*
X-1047618Y12123990D02*
X-714285Y12123990D01*
X-2428571Y11647800D02*
X-2523809Y11600180D01*
X-2523809Y11600180D02*
X-2714285Y11600180D01*
X-2714285Y11600180D02*
X-2809523Y11647800D01*
X-2809523Y11647800D02*
X-2857142Y11743038D01*
X-2857142Y11743038D02*
X-2857142Y11790657D01*
X-2857142Y11790657D02*
X-2809523Y11885895D01*
X-2809523Y11885895D02*
X-2714285Y11933514D01*
X-2714285Y11933514D02*
X-2571428Y11933514D01*
X-2571428Y11933514D02*
X-2476190Y11981133D01*
X-2476190Y11981133D02*
X-2428571Y12076371D01*
X-2428571Y12076371D02*
X-2428571Y12123990D01*
X-2428571Y12123990D02*
X-2476190Y12219228D01*
X-2476190Y12219228D02*
X-2571428Y12266847D01*
X-2571428Y12266847D02*
X-2714285Y12266847D01*
X-2714285Y12266847D02*
X-2809523Y12219228D01*
X-3714285Y12266847D02*
X-3714285Y11600180D01*
X-3285714Y12266847D02*
X-3285714Y11743038D01*
X-3285714Y11743038D02*
X-3333333Y11647800D01*
X-3333333Y11647800D02*
X-3428571Y11600180D01*
X-3428571Y11600180D02*
X-3571428Y11600180D01*
X-3571428Y11600180D02*
X-3666666Y11647800D01*
X-3666666Y11647800D02*
X-3714285Y11695419D01*
X-4619047Y11647800D02*
X-4523809Y11600180D01*
X-4523809Y11600180D02*
X-4333333Y11600180D01*
X-4333333Y11600180D02*
X-4238095Y11647800D01*
X-4238095Y11647800D02*
X-4190476Y11695419D01*
X-4190476Y11695419D02*
X-4142857Y11790657D01*
X-4142857Y11790657D02*
X-4142857Y12076371D01*
X-4142857Y12076371D02*
X-4190476Y12171609D01*
X-4190476Y12171609D02*
X-4238095Y12219228D01*
X-4238095Y12219228D02*
X-4333333Y12266847D01*
X-4333333Y12266847D02*
X-4523809Y12266847D01*
X-4523809Y12266847D02*
X-4619047Y12219228D01*
X-5047619Y11600180D02*
X-5047619Y12600180D01*
X-5476190Y11600180D02*
X-5476190Y12123990D01*
X-5476190Y12123990D02*
X-5428571Y12219228D01*
X-5428571Y12219228D02*
X-5333333Y12266847D01*
X-5333333Y12266847D02*
X-5190476Y12266847D01*
X-5190476Y12266847D02*
X-5095238Y12219228D01*
X-5095238Y12219228D02*
X-5047619Y12171609D01*
X-6571429Y12266847D02*
X-6952381Y12266847D01*
X-6714286Y12600180D02*
X-6714286Y11743038D01*
X-6714286Y11743038D02*
X-6761905Y11647800D01*
X-6761905Y11647800D02*
X-6857143Y11600180D01*
X-6857143Y11600180D02*
X-6952381Y11600180D01*
X-7285715Y11600180D02*
X-7285715Y12600180D01*
X-7714286Y11600180D02*
X-7714286Y12123990D01*
X-7714286Y12123990D02*
X-7666667Y12219228D01*
X-7666667Y12219228D02*
X-7571429Y12266847D01*
X-7571429Y12266847D02*
X-7428572Y12266847D01*
X-7428572Y12266847D02*
X-7333334Y12219228D01*
X-7333334Y12219228D02*
X-7285715Y12171609D01*
X-8619048Y11600180D02*
X-8619048Y12123990D01*
X-8619048Y12123990D02*
X-8571429Y12219228D01*
X-8571429Y12219228D02*
X-8476191Y12266847D01*
X-8476191Y12266847D02*
X-8285715Y12266847D01*
X-8285715Y12266847D02*
X-8190477Y12219228D01*
X-8619048Y11647800D02*
X-8523810Y11600180D01*
X-8523810Y11600180D02*
X-8285715Y11600180D01*
X-8285715Y11600180D02*
X-8190477Y11647800D01*
X-8190477Y11647800D02*
X-8142858Y11743038D01*
X-8142858Y11743038D02*
X-8142858Y11838276D01*
X-8142858Y11838276D02*
X-8190477Y11933514D01*
X-8190477Y11933514D02*
X-8285715Y11981133D01*
X-8285715Y11981133D02*
X-8523810Y11981133D01*
X-8523810Y11981133D02*
X-8619048Y12028752D01*
X-8952382Y12266847D02*
X-9333334Y12266847D01*
X-9095239Y12600180D02*
X-9095239Y11743038D01*
X-9095239Y11743038D02*
X-9142858Y11647800D01*
X-9142858Y11647800D02*
X-9238096Y11600180D01*
X-9238096Y11600180D02*
X-9333334Y11600180D01*
X6166666Y10656847D02*
X5785714Y10656847D01*
X6023809Y10990180D02*
X6023809Y10133038D01*
X6023809Y10133038D02*
X5976190Y10037800D01*
X5976190Y10037800D02*
X5880952Y9990180D01*
X5880952Y9990180D02*
X5785714Y9990180D01*
X5023809Y9990180D02*
X5023809Y10513990D01*
X5023809Y10513990D02*
X5071428Y10609228D01*
X5071428Y10609228D02*
X5166666Y10656847D01*
X5166666Y10656847D02*
X5357142Y10656847D01*
X5357142Y10656847D02*
X5452380Y10609228D01*
X5023809Y10037800D02*
X5119047Y9990180D01*
X5119047Y9990180D02*
X5357142Y9990180D01*
X5357142Y9990180D02*
X5452380Y10037800D01*
X5452380Y10037800D02*
X5499999Y10133038D01*
X5499999Y10133038D02*
X5499999Y10228276D01*
X5499999Y10228276D02*
X5452380Y10323514D01*
X5452380Y10323514D02*
X5357142Y10371133D01*
X5357142Y10371133D02*
X5119047Y10371133D01*
X5119047Y10371133D02*
X5023809Y10418752D01*
X4547618Y9990180D02*
X4547618Y10656847D01*
X4547618Y10466371D02*
X4499999Y10561609D01*
X4499999Y10561609D02*
X4452380Y10609228D01*
X4452380Y10609228D02*
X4357142Y10656847D01*
X4357142Y10656847D02*
X4261904Y10656847D01*
X3499999Y10656847D02*
X3499999Y9847323D01*
X3499999Y9847323D02*
X3547618Y9752085D01*
X3547618Y9752085D02*
X3595237Y9704466D01*
X3595237Y9704466D02*
X3690475Y9656847D01*
X3690475Y9656847D02*
X3833332Y9656847D01*
X3833332Y9656847D02*
X3928570Y9704466D01*
X3499999Y10037800D02*
X3595237Y9990180D01*
X3595237Y9990180D02*
X3785713Y9990180D01*
X3785713Y9990180D02*
X3880951Y10037800D01*
X3880951Y10037800D02*
X3928570Y10085419D01*
X3928570Y10085419D02*
X3976189Y10180657D01*
X3976189Y10180657D02*
X3976189Y10466371D01*
X3976189Y10466371D02*
X3928570Y10561609D01*
X3928570Y10561609D02*
X3880951Y10609228D01*
X3880951Y10609228D02*
X3785713Y10656847D01*
X3785713Y10656847D02*
X3595237Y10656847D01*
X3595237Y10656847D02*
X3499999Y10609228D01*
X2642856Y10037800D02*
X2738094Y9990180D01*
X2738094Y9990180D02*
X2928570Y9990180D01*
X2928570Y9990180D02*
X3023808Y10037800D01*
X3023808Y10037800D02*
X3071427Y10133038D01*
X3071427Y10133038D02*
X3071427Y10513990D01*
X3071427Y10513990D02*
X3023808Y10609228D01*
X3023808Y10609228D02*
X2928570Y10656847D01*
X2928570Y10656847D02*
X2738094Y10656847D01*
X2738094Y10656847D02*
X2642856Y10609228D01*
X2642856Y10609228D02*
X2595237Y10513990D01*
X2595237Y10513990D02*
X2595237Y10418752D01*
X2595237Y10418752D02*
X3071427Y10323514D01*
X2309522Y10656847D02*
X1928570Y10656847D01*
X2166665Y10990180D02*
X2166665Y10133038D01*
X2166665Y10133038D02*
X2119046Y10037800D01*
X2119046Y10037800D02*
X2023808Y9990180D01*
X2023808Y9990180D02*
X1928570Y9990180D01*
X833331Y9990180D02*
X833331Y10656847D01*
X833331Y10990180D02*
X880950Y10942561D01*
X880950Y10942561D02*
X833331Y10894942D01*
X833331Y10894942D02*
X785712Y10942561D01*
X785712Y10942561D02*
X833331Y10990180D01*
X833331Y10990180D02*
X833331Y10894942D01*
X404760Y10037800D02*
X309522Y9990180D01*
X309522Y9990180D02*
X119046Y9990180D01*
X119046Y9990180D02*
X23808Y10037800D01*
X23808Y10037800D02*
X-23810Y10133038D01*
X-23810Y10133038D02*
X-23810Y10180657D01*
X-23810Y10180657D02*
X23808Y10275895D01*
X23808Y10275895D02*
X119046Y10323514D01*
X119046Y10323514D02*
X261903Y10323514D01*
X261903Y10323514D02*
X357141Y10371133D01*
X357141Y10371133D02*
X404760Y10466371D01*
X404760Y10466371D02*
X404760Y10513990D01*
X404760Y10513990D02*
X357141Y10609228D01*
X357141Y10609228D02*
X261903Y10656847D01*
X261903Y10656847D02*
X119046Y10656847D01*
X119046Y10656847D02*
X23808Y10609228D01*
X-1119049Y10656847D02*
X-1357144Y9990180D01*
X-1357144Y9990180D02*
X-1595239Y10656847D01*
X-1976192Y9990180D02*
X-1976192Y10656847D01*
X-1976192Y10990180D02*
X-1928573Y10942561D01*
X-1928573Y10942561D02*
X-1976192Y10894942D01*
X-1976192Y10894942D02*
X-2023811Y10942561D01*
X-2023811Y10942561D02*
X-1976192Y10990180D01*
X-1976192Y10990180D02*
X-1976192Y10894942D01*
X-2404763Y10037800D02*
X-2500001Y9990180D01*
X-2500001Y9990180D02*
X-2690477Y9990180D01*
X-2690477Y9990180D02*
X-2785715Y10037800D01*
X-2785715Y10037800D02*
X-2833334Y10133038D01*
X-2833334Y10133038D02*
X-2833334Y10180657D01*
X-2833334Y10180657D02*
X-2785715Y10275895D01*
X-2785715Y10275895D02*
X-2690477Y10323514D01*
X-2690477Y10323514D02*
X-2547620Y10323514D01*
X-2547620Y10323514D02*
X-2452382Y10371133D01*
X-2452382Y10371133D02*
X-2404763Y10466371D01*
X-2404763Y10466371D02*
X-2404763Y10513990D01*
X-2404763Y10513990D02*
X-2452382Y10609228D01*
X-2452382Y10609228D02*
X-2547620Y10656847D01*
X-2547620Y10656847D02*
X-2690477Y10656847D01*
X-2690477Y10656847D02*
X-2785715Y10609228D01*
X-3261906Y9990180D02*
X-3261906Y10656847D01*
X-3261906Y10990180D02*
X-3214287Y10942561D01*
X-3214287Y10942561D02*
X-3261906Y10894942D01*
X-3261906Y10894942D02*
X-3309525Y10942561D01*
X-3309525Y10942561D02*
X-3261906Y10990180D01*
X-3261906Y10990180D02*
X-3261906Y10894942D01*
X-3738096Y9990180D02*
X-3738096Y10990180D01*
X-3738096Y10609228D02*
X-3833334Y10656847D01*
X-3833334Y10656847D02*
X-4023810Y10656847D01*
X-4023810Y10656847D02*
X-4119048Y10609228D01*
X-4119048Y10609228D02*
X-4166667Y10561609D01*
X-4166667Y10561609D02*
X-4214286Y10466371D01*
X-4214286Y10466371D02*
X-4214286Y10180657D01*
X-4214286Y10180657D02*
X-4166667Y10085419D01*
X-4166667Y10085419D02*
X-4119048Y10037800D01*
X-4119048Y10037800D02*
X-4023810Y9990180D01*
X-4023810Y9990180D02*
X-3833334Y9990180D01*
X-3833334Y9990180D02*
X-3738096Y10037800D01*
X-4785715Y9990180D02*
X-4690477Y10037800D01*
X-4690477Y10037800D02*
X-4642858Y10133038D01*
X-4642858Y10133038D02*
X-4642858Y10990180D01*
X-5547620Y10037800D02*
X-5452382Y9990180D01*
X-5452382Y9990180D02*
X-5261906Y9990180D01*
X-5261906Y9990180D02*
X-5166668Y10037800D01*
X-5166668Y10037800D02*
X-5119049Y10133038D01*
X-5119049Y10133038D02*
X-5119049Y10513990D01*
X-5119049Y10513990D02*
X-5166668Y10609228D01*
X-5166668Y10609228D02*
X-5261906Y10656847D01*
X-5261906Y10656847D02*
X-5452382Y10656847D01*
X-5452382Y10656847D02*
X-5547620Y10609228D01*
X-5547620Y10609228D02*
X-5595239Y10513990D01*
X-5595239Y10513990D02*
X-5595239Y10418752D01*
X-5595239Y10418752D02*
X-5119049Y10323514D01*
X-6023811Y10085419D02*
X-6071430Y10037800D01*
X-6071430Y10037800D02*
X-6023811Y9990180D01*
X-6023811Y9990180D02*
X-5976192Y10037800D01*
X-5976192Y10037800D02*
X-6023811Y10085419D01*
X-6023811Y10085419D02*
X-6023811Y9990180D01*
X-6023811Y10371133D02*
X-5976192Y10942561D01*
X-5976192Y10942561D02*
X-6023811Y10990180D01*
X-6023811Y10990180D02*
X-6071430Y10942561D01*
X-6071430Y10942561D02*
X-6023811Y10371133D01*
X-6023811Y10371133D02*
X-6023811Y10990180D01*
X7073127Y-5322197D02*
X6366021Y-4615090D01*
X6366021Y-4615090D02*
X6096647Y-4884464D01*
X6096647Y-4884464D02*
X6062975Y-4985479D01*
X6062975Y-4985479D02*
X6062975Y-5052823D01*
X6062975Y-5052823D02*
X6096647Y-5153838D01*
X6096647Y-5153838D02*
X6197662Y-5254853D01*
X6197662Y-5254853D02*
X6298677Y-5288525D01*
X6298677Y-5288525D02*
X6366021Y-5288525D01*
X6366021Y-5288525D02*
X6467036Y-5254853D01*
X6467036Y-5254853D02*
X6736410Y-4985479D01*
X6366021Y-6029304D02*
X5658914Y-5322197D01*
X5658914Y-5322197D02*
X5490555Y-5490556D01*
X5490555Y-5490556D02*
X5423212Y-5625243D01*
X5423212Y-5625243D02*
X5423212Y-5759930D01*
X5423212Y-5759930D02*
X5456883Y-5860945D01*
X5456883Y-5860945D02*
X5557899Y-6029304D01*
X5557899Y-6029304D02*
X5658914Y-6130319D01*
X5658914Y-6130319D02*
X5827273Y-6231334D01*
X5827273Y-6231334D02*
X5928288Y-6265006D01*
X5928288Y-6265006D02*
X6062975Y-6265006D01*
X6062975Y-6265006D02*
X6197662Y-6197662D01*
X6197662Y-6197662D02*
X6366021Y-6029304D01*
X5288525Y-7106800D02*
X5692586Y-6702739D01*
X5490555Y-6904769D02*
X4783448Y-6197662D01*
X4783448Y-6197662D02*
X4951807Y-6231334D01*
X4951807Y-6231334D02*
X5086494Y-6231334D01*
X5086494Y-6231334D02*
X5187509Y-6197662D01*
X18416666Y-5809580D02*
X18464285Y-5857200D01*
X18464285Y-5857200D02*
X18607142Y-5904819D01*
X18607142Y-5904819D02*
X18702380Y-5904819D01*
X18702380Y-5904819D02*
X18845237Y-5857200D01*
X18845237Y-5857200D02*
X18940475Y-5761961D01*
X18940475Y-5761961D02*
X18988094Y-5666723D01*
X18988094Y-5666723D02*
X19035713Y-5476247D01*
X19035713Y-5476247D02*
X19035713Y-5333390D01*
X19035713Y-5333390D02*
X18988094Y-5142914D01*
X18988094Y-5142914D02*
X18940475Y-5047676D01*
X18940475Y-5047676D02*
X18845237Y-4952438D01*
X18845237Y-4952438D02*
X18702380Y-4904819D01*
X18702380Y-4904819D02*
X18607142Y-4904819D01*
X18607142Y-4904819D02*
X18464285Y-4952438D01*
X18464285Y-4952438D02*
X18416666Y-5000057D01*
X17464285Y-5904819D02*
X18035713Y-5904819D01*
X17749999Y-5904819D02*
X17749999Y-4904819D01*
X17749999Y-4904819D02*
X17845237Y-5047676D01*
X17845237Y-5047676D02*
X17940475Y-5142914D01*
X17940475Y-5142914D02*
X18035713Y-5190533D01*
X16916666Y11140419D02*
X16964285Y11092800D01*
X16964285Y11092800D02*
X17107142Y11045180D01*
X17107142Y11045180D02*
X17202380Y11045180D01*
X17202380Y11045180D02*
X17345237Y11092800D01*
X17345237Y11092800D02*
X17440475Y11188038D01*
X17440475Y11188038D02*
X17488094Y11283276D01*
X17488094Y11283276D02*
X17535713Y11473752D01*
X17535713Y11473752D02*
X17535713Y11616609D01*
X17535713Y11616609D02*
X17488094Y11807085D01*
X17488094Y11807085D02*
X17440475Y11902323D01*
X17440475Y11902323D02*
X17345237Y11997561D01*
X17345237Y11997561D02*
X17202380Y12045180D01*
X17202380Y12045180D02*
X17107142Y12045180D01*
X17107142Y12045180D02*
X16964285Y11997561D01*
X16964285Y11997561D02*
X16916666Y11949942D01*
X15916666Y11045180D02*
X16249999Y11521371D01*
X16488094Y11045180D02*
X16488094Y12045180D01*
X16488094Y12045180D02*
X16107142Y12045180D01*
X16107142Y12045180D02*
X16011904Y11997561D01*
X16011904Y11997561D02*
X15964285Y11949942D01*
X15964285Y11949942D02*
X15916666Y11854704D01*
X15916666Y11854704D02*
X15916666Y11711847D01*
X15916666Y11711847D02*
X15964285Y11616609D01*
X15964285Y11616609D02*
X16011904Y11568990D01*
X16011904Y11568990D02*
X16107142Y11521371D01*
X16107142Y11521371D02*
X16488094Y11521371D01*
X15535713Y11949942D02*
X15488094Y11997561D01*
X15488094Y11997561D02*
X15392856Y12045180D01*
X15392856Y12045180D02*
X15154761Y12045180D01*
X15154761Y12045180D02*
X15059523Y11997561D01*
X15059523Y11997561D02*
X15011904Y11949942D01*
X15011904Y11949942D02*
X14964285Y11854704D01*
X14964285Y11854704D02*
X14964285Y11759466D01*
X14964285Y11759466D02*
X15011904Y11616609D01*
X15011904Y11616609D02*
X15583332Y11045180D01*
X15583332Y11045180D02*
X14964285Y11045180D01*
X19566666Y-9154819D02*
X19899999Y-8678628D01*
X20138094Y-9154819D02*
X20138094Y-8154819D01*
X20138094Y-8154819D02*
X19757142Y-8154819D01*
X19757142Y-8154819D02*
X19661904Y-8202438D01*
X19661904Y-8202438D02*
X19614285Y-8250057D01*
X19614285Y-8250057D02*
X19566666Y-8345295D01*
X19566666Y-8345295D02*
X19566666Y-8488152D01*
X19566666Y-8488152D02*
X19614285Y-8583390D01*
X19614285Y-8583390D02*
X19661904Y-8631009D01*
X19661904Y-8631009D02*
X19757142Y-8678628D01*
X19757142Y-8678628D02*
X20138094Y-8678628D01*
X18614285Y-9154819D02*
X19185713Y-9154819D01*
X18899999Y-9154819D02*
X18899999Y-8154819D01*
X18899999Y-8154819D02*
X18995237Y-8297676D01*
X18995237Y-8297676D02*
X19090475Y-8392914D01*
X19090475Y-8392914D02*
X19185713Y-8440533D01*
X12538094Y-3654819D02*
X12538094Y-4464342D01*
X12538094Y-4464342D02*
X12490475Y-4559580D01*
X12490475Y-4559580D02*
X12442856Y-4607200D01*
X12442856Y-4607200D02*
X12347618Y-4654819D01*
X12347618Y-4654819D02*
X12157142Y-4654819D01*
X12157142Y-4654819D02*
X12061904Y-4607200D01*
X12061904Y-4607200D02*
X12014285Y-4559580D01*
X12014285Y-4559580D02*
X11966666Y-4464342D01*
X11966666Y-4464342D02*
X11966666Y-3654819D01*
X10966666Y-4654819D02*
X11538094Y-4654819D01*
X11252380Y-4654819D02*
X11252380Y-3654819D01*
X11252380Y-3654819D02*
X11347618Y-3797676D01*
X11347618Y-3797676D02*
X11442856Y-3892914D01*
X11442856Y-3892914D02*
X11538094Y-3940533D01*
X10347618Y-3654819D02*
X10252380Y-3654819D01*
X10252380Y-3654819D02*
X10157142Y-3702438D01*
X10157142Y-3702438D02*
X10109523Y-3750057D01*
X10109523Y-3750057D02*
X10061904Y-3845295D01*
X10061904Y-3845295D02*
X10014285Y-4035771D01*
X10014285Y-4035771D02*
X10014285Y-4273866D01*
X10014285Y-4273866D02*
X10061904Y-4464342D01*
X10061904Y-4464342D02*
X10109523Y-4559580D01*
X10109523Y-4559580D02*
X10157142Y-4607200D01*
X10157142Y-4607200D02*
X10252380Y-4654819D01*
X10252380Y-4654819D02*
X10347618Y-4654819D01*
X10347618Y-4654819D02*
X10442856Y-4607200D01*
X10442856Y-4607200D02*
X10490475Y-4559580D01*
X10490475Y-4559580D02*
X10538094Y-4464342D01*
X10538094Y-4464342D02*
X10585713Y-4273866D01*
X10585713Y-4273866D02*
X10585713Y-4035771D01*
X10585713Y-4035771D02*
X10538094Y-3845295D01*
X10538094Y-3845295D02*
X10490475Y-3750057D01*
X10490475Y-3750057D02*
X10442856Y-3702438D01*
X10442856Y-3702438D02*
X10347618Y-3654819D01*
X20992857Y3945180D02*
X21326190Y4421371D01*
X21564285Y3945180D02*
X21564285Y4945180D01*
X21564285Y4945180D02*
X21183333Y4945180D01*
X21183333Y4945180D02*
X21088095Y4897561D01*
X21088095Y4897561D02*
X21040476Y4849942D01*
X21040476Y4849942D02*
X20992857Y4754704D01*
X20992857Y4754704D02*
X20992857Y4611847D01*
X20992857Y4611847D02*
X21040476Y4516609D01*
X21040476Y4516609D02*
X21088095Y4468990D01*
X21088095Y4468990D02*
X21183333Y4421371D01*
X21183333Y4421371D02*
X21564285Y4421371D01*
X20611904Y4849942D02*
X20564285Y4897561D01*
X20564285Y4897561D02*
X20469047Y4945180D01*
X20469047Y4945180D02*
X20230952Y4945180D01*
X20230952Y4945180D02*
X20135714Y4897561D01*
X20135714Y4897561D02*
X20088095Y4849942D01*
X20088095Y4849942D02*
X20040476Y4754704D01*
X20040476Y4754704D02*
X20040476Y4659466D01*
X20040476Y4659466D02*
X20088095Y4516609D01*
X20088095Y4516609D02*
X20659523Y3945180D01*
X20659523Y3945180D02*
X20040476Y3945180D01*
X19088095Y3945180D02*
X19659523Y3945180D01*
X19373809Y3945180D02*
X19373809Y4945180D01*
X19373809Y4945180D02*
X19469047Y4802323D01*
X19469047Y4802323D02*
X19564285Y4707085D01*
X19564285Y4707085D02*
X19659523Y4659466D01*
X-11745180Y-9211905D02*
X-10935657Y-9211905D01*
X-10935657Y-9211905D02*
X-10840419Y-9259524D01*
X-10840419Y-9259524D02*
X-10792800Y-9307143D01*
X-10792800Y-9307143D02*
X-10745180Y-9402381D01*
X-10745180Y-9402381D02*
X-10745180Y-9592857D01*
X-10745180Y-9592857D02*
X-10792800Y-9688095D01*
X-10792800Y-9688095D02*
X-10840419Y-9735714D01*
X-10840419Y-9735714D02*
X-10935657Y-9783333D01*
X-10935657Y-9783333D02*
X-11745180Y-9783333D01*
X-10745180Y-10783333D02*
X-10745180Y-10211905D01*
X-10745180Y-10497619D02*
X-11745180Y-10497619D01*
X-11745180Y-10497619D02*
X-11602323Y-10402381D01*
X-11602323Y-10402381D02*
X-11507085Y-10307143D01*
X-11507085Y-10307143D02*
X-11459466Y-10211905D01*
X-11411847Y-11640476D02*
X-10745180Y-11640476D01*
X-11792800Y-11402381D02*
X-11078514Y-11164286D01*
X-11078514Y-11164286D02*
X-11078514Y-11783333D01*
X8392857Y-8704819D02*
X8726190Y-8228628D01*
X8964285Y-8704819D02*
X8964285Y-7704819D01*
X8964285Y-7704819D02*
X8583333Y-7704819D01*
X8583333Y-7704819D02*
X8488095Y-7752438D01*
X8488095Y-7752438D02*
X8440476Y-7800057D01*
X8440476Y-7800057D02*
X8392857Y-7895295D01*
X8392857Y-7895295D02*
X8392857Y-8038152D01*
X8392857Y-8038152D02*
X8440476Y-8133390D01*
X8440476Y-8133390D02*
X8488095Y-8181009D01*
X8488095Y-8181009D02*
X8583333Y-8228628D01*
X8583333Y-8228628D02*
X8964285Y-8228628D01*
X7440476Y-8704819D02*
X8011904Y-8704819D01*
X7726190Y-8704819D02*
X7726190Y-7704819D01*
X7726190Y-7704819D02*
X7821428Y-7847676D01*
X7821428Y-7847676D02*
X7916666Y-7942914D01*
X7916666Y-7942914D02*
X8011904Y-7990533D01*
X6869047Y-8133390D02*
X6964285Y-8085771D01*
X6964285Y-8085771D02*
X7011904Y-8038152D01*
X7011904Y-8038152D02*
X7059523Y-7942914D01*
X7059523Y-7942914D02*
X7059523Y-7895295D01*
X7059523Y-7895295D02*
X7011904Y-7800057D01*
X7011904Y-7800057D02*
X6964285Y-7752438D01*
X6964285Y-7752438D02*
X6869047Y-7704819D01*
X6869047Y-7704819D02*
X6678571Y-7704819D01*
X6678571Y-7704819D02*
X6583333Y-7752438D01*
X6583333Y-7752438D02*
X6535714Y-7800057D01*
X6535714Y-7800057D02*
X6488095Y-7895295D01*
X6488095Y-7895295D02*
X6488095Y-7942914D01*
X6488095Y-7942914D02*
X6535714Y-8038152D01*
X6535714Y-8038152D02*
X6583333Y-8085771D01*
X6583333Y-8085771D02*
X6678571Y-8133390D01*
X6678571Y-8133390D02*
X6869047Y-8133390D01*
X6869047Y-8133390D02*
X6964285Y-8181009D01*
X6964285Y-8181009D02*
X7011904Y-8228628D01*
X7011904Y-8228628D02*
X7059523Y-8323866D01*
X7059523Y-8323866D02*
X7059523Y-8514342D01*
X7059523Y-8514342D02*
X7011904Y-8609580D01*
X7011904Y-8609580D02*
X6964285Y-8657200D01*
X6964285Y-8657200D02*
X6869047Y-8704819D01*
X6869047Y-8704819D02*
X6678571Y-8704819D01*
X6678571Y-8704819D02*
X6583333Y-8657200D01*
X6583333Y-8657200D02*
X6535714Y-8609580D01*
X6535714Y-8609580D02*
X6488095Y-8514342D01*
X6488095Y-8514342D02*
X6488095Y-8323866D01*
X6488095Y-8323866D02*
X6535714Y-8228628D01*
X6535714Y-8228628D02*
X6583333Y-8181009D01*
X6583333Y-8181009D02*
X6678571Y-8133390D01*
X11166666Y-10204819D02*
X11499999Y-9728628D01*
X11738094Y-10204819D02*
X11738094Y-9204819D01*
X11738094Y-9204819D02*
X11357142Y-9204819D01*
X11357142Y-9204819D02*
X11261904Y-9252438D01*
X11261904Y-9252438D02*
X11214285Y-9300057D01*
X11214285Y-9300057D02*
X11166666Y-9395295D01*
X11166666Y-9395295D02*
X11166666Y-9538152D01*
X11166666Y-9538152D02*
X11214285Y-9633390D01*
X11214285Y-9633390D02*
X11261904Y-9681009D01*
X11261904Y-9681009D02*
X11357142Y-9728628D01*
X11357142Y-9728628D02*
X11738094Y-9728628D01*
X10833332Y-9204819D02*
X10166666Y-10204819D01*
X10166666Y-9204819D02*
X10833332Y-10204819D01*
X11761904Y-14204819D02*
X11190476Y-14204819D01*
X11476190Y-15204819D02*
X11476190Y-14204819D01*
X10952380Y-14204819D02*
X10285714Y-15204819D01*
X10285714Y-14204819D02*
X10952380Y-15204819D01*
X14938094Y7245180D02*
X14938094Y6435657D01*
X14938094Y6435657D02*
X14890475Y6340419D01*
X14890475Y6340419D02*
X14842856Y6292800D01*
X14842856Y6292800D02*
X14747618Y6245180D01*
X14747618Y6245180D02*
X14557142Y6245180D01*
X14557142Y6245180D02*
X14461904Y6292800D01*
X14461904Y6292800D02*
X14414285Y6340419D01*
X14414285Y6340419D02*
X14366666Y6435657D01*
X14366666Y6435657D02*
X14366666Y7245180D01*
X13366666Y6245180D02*
X13938094Y6245180D01*
X13652380Y6245180D02*
X13652380Y7245180D01*
X13652380Y7245180D02*
X13747618Y7102323D01*
X13747618Y7102323D02*
X13842856Y7007085D01*
X13842856Y7007085D02*
X13938094Y6959466D01*
X12414285Y6245180D02*
X12985713Y6245180D01*
X12699999Y6245180D02*
X12699999Y7245180D01*
X12699999Y7245180D02*
X12795237Y7102323D01*
X12795237Y7102323D02*
X12890475Y7007085D01*
X12890475Y7007085D02*
X12985713Y6959466D01*
X25992857Y3845180D02*
X26326190Y4321371D01*
X26564285Y3845180D02*
X26564285Y4845180D01*
X26564285Y4845180D02*
X26183333Y4845180D01*
X26183333Y4845180D02*
X26088095Y4797561D01*
X26088095Y4797561D02*
X26040476Y4749942D01*
X26040476Y4749942D02*
X25992857Y4654704D01*
X25992857Y4654704D02*
X25992857Y4511847D01*
X25992857Y4511847D02*
X26040476Y4416609D01*
X26040476Y4416609D02*
X26088095Y4368990D01*
X26088095Y4368990D02*
X26183333Y4321371D01*
X26183333Y4321371D02*
X26564285Y4321371D01*
X25040476Y3845180D02*
X25611904Y3845180D01*
X25326190Y3845180D02*
X25326190Y4845180D01*
X25326190Y4845180D02*
X25421428Y4702323D01*
X25421428Y4702323D02*
X25516666Y4607085D01*
X25516666Y4607085D02*
X25611904Y4559466D01*
X24707142Y4845180D02*
X24040476Y4845180D01*
X24040476Y4845180D02*
X24469047Y3845180D01*
X-14707142Y-13409580D02*
X-14659523Y-13457200D01*
X-14659523Y-13457200D02*
X-14516666Y-13504819D01*
X-14516666Y-13504819D02*
X-14421428Y-13504819D01*
X-14421428Y-13504819D02*
X-14278571Y-13457200D01*
X-14278571Y-13457200D02*
X-14183333Y-13361961D01*
X-14183333Y-13361961D02*
X-14135714Y-13266723D01*
X-14135714Y-13266723D02*
X-14088095Y-13076247D01*
X-14088095Y-13076247D02*
X-14088095Y-12933390D01*
X-14088095Y-12933390D02*
X-14135714Y-12742914D01*
X-14135714Y-12742914D02*
X-14183333Y-12647676D01*
X-14183333Y-12647676D02*
X-14278571Y-12552438D01*
X-14278571Y-12552438D02*
X-14421428Y-12504819D01*
X-14421428Y-12504819D02*
X-14516666Y-12504819D01*
X-14516666Y-12504819D02*
X-14659523Y-12552438D01*
X-14659523Y-12552438D02*
X-14707142Y-12600057D01*
X-15088095Y-12600057D02*
X-15135714Y-12552438D01*
X-15135714Y-12552438D02*
X-15230952Y-12504819D01*
X-15230952Y-12504819D02*
X-15469047Y-12504819D01*
X-15469047Y-12504819D02*
X-15564285Y-12552438D01*
X-15564285Y-12552438D02*
X-15611904Y-12600057D01*
X-15611904Y-12600057D02*
X-15659523Y-12695295D01*
X-15659523Y-12695295D02*
X-15659523Y-12790533D01*
X-15659523Y-12790533D02*
X-15611904Y-12933390D01*
X-15611904Y-12933390D02*
X-15040476Y-13504819D01*
X-15040476Y-13504819D02*
X-15659523Y-13504819D01*
X-16135714Y-13504819D02*
X-16326190Y-13504819D01*
X-16326190Y-13504819D02*
X-16421428Y-13457200D01*
X-16421428Y-13457200D02*
X-16469047Y-13409580D01*
X-16469047Y-13409580D02*
X-16564285Y-13266723D01*
X-16564285Y-13266723D02*
X-16611904Y-13076247D01*
X-16611904Y-13076247D02*
X-16611904Y-12695295D01*
X-16611904Y-12695295D02*
X-16564285Y-12600057D01*
X-16564285Y-12600057D02*
X-16516666Y-12552438D01*
X-16516666Y-12552438D02*
X-16421428Y-12504819D01*
X-16421428Y-12504819D02*
X-16230952Y-12504819D01*
X-16230952Y-12504819D02*
X-16135714Y-12552438D01*
X-16135714Y-12552438D02*
X-16088095Y-12600057D01*
X-16088095Y-12600057D02*
X-16040476Y-12695295D01*
X-16040476Y-12695295D02*
X-16040476Y-12933390D01*
X-16040476Y-12933390D02*
X-16088095Y-13028628D01*
X-16088095Y-13028628D02*
X-16135714Y-13076247D01*
X-16135714Y-13076247D02*
X-16230952Y-13123866D01*
X-16230952Y-13123866D02*
X-16421428Y-13123866D01*
X-16421428Y-13123866D02*
X-16516666Y-13076247D01*
X-16516666Y-13076247D02*
X-16564285Y-13028628D01*
X-16564285Y-13028628D02*
X-16611904Y-12933390D01*
X24313689Y-9265595D02*
X25123212Y-9265595D01*
X25123212Y-9265595D02*
X25218450Y-9313214D01*
X25218450Y-9313214D02*
X25266070Y-9360833D01*
X25266070Y-9360833D02*
X25313689Y-9456071D01*
X25313689Y-9456071D02*
X25313689Y-9646547D01*
X25313689Y-9646547D02*
X25266070Y-9741785D01*
X25266070Y-9741785D02*
X25218450Y-9789404D01*
X25218450Y-9789404D02*
X25123212Y-9837023D01*
X25123212Y-9837023D02*
X24313689Y-9837023D01*
X24742260Y-10456071D02*
X24694641Y-10360833D01*
X24694641Y-10360833D02*
X24647022Y-10313214D01*
X24647022Y-10313214D02*
X24551784Y-10265595D01*
X24551784Y-10265595D02*
X24504165Y-10265595D01*
X24504165Y-10265595D02*
X24408927Y-10313214D01*
X24408927Y-10313214D02*
X24361308Y-10360833D01*
X24361308Y-10360833D02*
X24313689Y-10456071D01*
X24313689Y-10456071D02*
X24313689Y-10646547D01*
X24313689Y-10646547D02*
X24361308Y-10741785D01*
X24361308Y-10741785D02*
X24408927Y-10789404D01*
X24408927Y-10789404D02*
X24504165Y-10837023D01*
X24504165Y-10837023D02*
X24551784Y-10837023D01*
X24551784Y-10837023D02*
X24647022Y-10789404D01*
X24647022Y-10789404D02*
X24694641Y-10741785D01*
X24694641Y-10741785D02*
X24742260Y-10646547D01*
X24742260Y-10646547D02*
X24742260Y-10456071D01*
X24742260Y-10456071D02*
X24789879Y-10360833D01*
X24789879Y-10360833D02*
X24837498Y-10313214D01*
X24837498Y-10313214D02*
X24932736Y-10265595D01*
X24932736Y-10265595D02*
X25123212Y-10265595D01*
X25123212Y-10265595D02*
X25218450Y-10313214D01*
X25218450Y-10313214D02*
X25266070Y-10360833D01*
X25266070Y-10360833D02*
X25313689Y-10456071D01*
X25313689Y-10456071D02*
X25313689Y-10646547D01*
X25313689Y-10646547D02*
X25266070Y-10741785D01*
X25266070Y-10741785D02*
X25218450Y-10789404D01*
X25218450Y-10789404D02*
X25123212Y-10837023D01*
X25123212Y-10837023D02*
X24932736Y-10837023D01*
X24932736Y-10837023D02*
X24837498Y-10789404D01*
X24837498Y-10789404D02*
X24789879Y-10741785D01*
X24789879Y-10741785D02*
X24742260Y-10646547D01*
X16916666Y8390419D02*
X16964285Y8342800D01*
X16964285Y8342800D02*
X17107142Y8295180D01*
X17107142Y8295180D02*
X17202380Y8295180D01*
X17202380Y8295180D02*
X17345237Y8342800D01*
X17345237Y8342800D02*
X17440475Y8438038D01*
X17440475Y8438038D02*
X17488094Y8533276D01*
X17488094Y8533276D02*
X17535713Y8723752D01*
X17535713Y8723752D02*
X17535713Y8866609D01*
X17535713Y8866609D02*
X17488094Y9057085D01*
X17488094Y9057085D02*
X17440475Y9152323D01*
X17440475Y9152323D02*
X17345237Y9247561D01*
X17345237Y9247561D02*
X17202380Y9295180D01*
X17202380Y9295180D02*
X17107142Y9295180D01*
X17107142Y9295180D02*
X16964285Y9247561D01*
X16964285Y9247561D02*
X16916666Y9199942D01*
X15916666Y8295180D02*
X16249999Y8771371D01*
X16488094Y8295180D02*
X16488094Y9295180D01*
X16488094Y9295180D02*
X16107142Y9295180D01*
X16107142Y9295180D02*
X16011904Y9247561D01*
X16011904Y9247561D02*
X15964285Y9199942D01*
X15964285Y9199942D02*
X15916666Y9104704D01*
X15916666Y9104704D02*
X15916666Y8961847D01*
X15916666Y8961847D02*
X15964285Y8866609D01*
X15964285Y8866609D02*
X16011904Y8818990D01*
X16011904Y8818990D02*
X16107142Y8771371D01*
X16107142Y8771371D02*
X16488094Y8771371D01*
X15583332Y9295180D02*
X14964285Y9295180D01*
X14964285Y9295180D02*
X15297618Y8914228D01*
X15297618Y8914228D02*
X15154761Y8914228D01*
X15154761Y8914228D02*
X15059523Y8866609D01*
X15059523Y8866609D02*
X15011904Y8818990D01*
X15011904Y8818990D02*
X14964285Y8723752D01*
X14964285Y8723752D02*
X14964285Y8485657D01*
X14964285Y8485657D02*
X15011904Y8390419D01*
X15011904Y8390419D02*
X15059523Y8342800D01*
X15059523Y8342800D02*
X15154761Y8295180D01*
X15154761Y8295180D02*
X15440475Y8295180D01*
X15440475Y8295180D02*
X15535713Y8342800D01*
X15535713Y8342800D02*
X15583332Y8390419D01*
X23138094Y-2454819D02*
X23138094Y-3264342D01*
X23138094Y-3264342D02*
X23090475Y-3359580D01*
X23090475Y-3359580D02*
X23042856Y-3407200D01*
X23042856Y-3407200D02*
X22947618Y-3454819D01*
X22947618Y-3454819D02*
X22757142Y-3454819D01*
X22757142Y-3454819D02*
X22661904Y-3407200D01*
X22661904Y-3407200D02*
X22614285Y-3359580D01*
X22614285Y-3359580D02*
X22566666Y-3264342D01*
X22566666Y-3264342D02*
X22566666Y-2454819D01*
X21566666Y-3454819D02*
X22138094Y-3454819D01*
X21852380Y-3454819D02*
X21852380Y-2454819D01*
X21852380Y-2454819D02*
X21947618Y-2597676D01*
X21947618Y-2597676D02*
X22042856Y-2692914D01*
X22042856Y-2692914D02*
X22138094Y-2740533D01*
X21185713Y-2550057D02*
X21138094Y-2502438D01*
X21138094Y-2502438D02*
X21042856Y-2454819D01*
X21042856Y-2454819D02*
X20804761Y-2454819D01*
X20804761Y-2454819D02*
X20709523Y-2502438D01*
X20709523Y-2502438D02*
X20661904Y-2550057D01*
X20661904Y-2550057D02*
X20614285Y-2645295D01*
X20614285Y-2645295D02*
X20614285Y-2740533D01*
X20614285Y-2740533D02*
X20661904Y-2883390D01*
X20661904Y-2883390D02*
X21233332Y-3454819D01*
X21233332Y-3454819D02*
X20614285Y-3454819D01*
X10679580Y5292857D02*
X10727200Y5340476D01*
X10727200Y5340476D02*
X10774819Y5483333D01*
X10774819Y5483333D02*
X10774819Y5578571D01*
X10774819Y5578571D02*
X10727200Y5721428D01*
X10727200Y5721428D02*
X10631961Y5816666D01*
X10631961Y5816666D02*
X10536723Y5864285D01*
X10536723Y5864285D02*
X10346247Y5911904D01*
X10346247Y5911904D02*
X10203390Y5911904D01*
X10203390Y5911904D02*
X10012914Y5864285D01*
X10012914Y5864285D02*
X9917676Y5816666D01*
X9917676Y5816666D02*
X9822438Y5721428D01*
X9822438Y5721428D02*
X9774819Y5578571D01*
X9774819Y5578571D02*
X9774819Y5483333D01*
X9774819Y5483333D02*
X9822438Y5340476D01*
X9822438Y5340476D02*
X9870057Y5292857D01*
X9870057Y4911904D02*
X9822438Y4864285D01*
X9822438Y4864285D02*
X9774819Y4769047D01*
X9774819Y4769047D02*
X9774819Y4530952D01*
X9774819Y4530952D02*
X9822438Y4435714D01*
X9822438Y4435714D02*
X9870057Y4388095D01*
X9870057Y4388095D02*
X9965295Y4340476D01*
X9965295Y4340476D02*
X10060533Y4340476D01*
X10060533Y4340476D02*
X10203390Y4388095D01*
X10203390Y4388095D02*
X10774819Y4959523D01*
X10774819Y4959523D02*
X10774819Y4340476D01*
X9774819Y3435714D02*
X9774819Y3911904D01*
X9774819Y3911904D02*
X10251009Y3959523D01*
X10251009Y3959523D02*
X10203390Y3911904D01*
X10203390Y3911904D02*
X10155771Y3816666D01*
X10155771Y3816666D02*
X10155771Y3578571D01*
X10155771Y3578571D02*
X10203390Y3483333D01*
X10203390Y3483333D02*
X10251009Y3435714D01*
X10251009Y3435714D02*
X10346247Y3388095D01*
X10346247Y3388095D02*
X10584342Y3388095D01*
X10584342Y3388095D02*
X10679580Y3435714D01*
X10679580Y3435714D02*
X10727200Y3483333D01*
X10727200Y3483333D02*
X10774819Y3578571D01*
X10774819Y3578571D02*
X10774819Y3816666D01*
X10774819Y3816666D02*
X10727200Y3911904D01*
X10727200Y3911904D02*
X10679580Y3959523D01*
X22892857Y-6359580D02*
X22940476Y-6407200D01*
X22940476Y-6407200D02*
X23083333Y-6454819D01*
X23083333Y-6454819D02*
X23178571Y-6454819D01*
X23178571Y-6454819D02*
X23321428Y-6407200D01*
X23321428Y-6407200D02*
X23416666Y-6311961D01*
X23416666Y-6311961D02*
X23464285Y-6216723D01*
X23464285Y-6216723D02*
X23511904Y-6026247D01*
X23511904Y-6026247D02*
X23511904Y-5883390D01*
X23511904Y-5883390D02*
X23464285Y-5692914D01*
X23464285Y-5692914D02*
X23416666Y-5597676D01*
X23416666Y-5597676D02*
X23321428Y-5502438D01*
X23321428Y-5502438D02*
X23178571Y-5454819D01*
X23178571Y-5454819D02*
X23083333Y-5454819D01*
X23083333Y-5454819D02*
X22940476Y-5502438D01*
X22940476Y-5502438D02*
X22892857Y-5550057D01*
X22511904Y-5550057D02*
X22464285Y-5502438D01*
X22464285Y-5502438D02*
X22369047Y-5454819D01*
X22369047Y-5454819D02*
X22130952Y-5454819D01*
X22130952Y-5454819D02*
X22035714Y-5502438D01*
X22035714Y-5502438D02*
X21988095Y-5550057D01*
X21988095Y-5550057D02*
X21940476Y-5645295D01*
X21940476Y-5645295D02*
X21940476Y-5740533D01*
X21940476Y-5740533D02*
X21988095Y-5883390D01*
X21988095Y-5883390D02*
X22559523Y-6454819D01*
X22559523Y-6454819D02*
X21940476Y-6454819D01*
X21321428Y-5454819D02*
X21226190Y-5454819D01*
X21226190Y-5454819D02*
X21130952Y-5502438D01*
X21130952Y-5502438D02*
X21083333Y-5550057D01*
X21083333Y-5550057D02*
X21035714Y-5645295D01*
X21035714Y-5645295D02*
X20988095Y-5835771D01*
X20988095Y-5835771D02*
X20988095Y-6073866D01*
X20988095Y-6073866D02*
X21035714Y-6264342D01*
X21035714Y-6264342D02*
X21083333Y-6359580D01*
X21083333Y-6359580D02*
X21130952Y-6407200D01*
X21130952Y-6407200D02*
X21226190Y-6454819D01*
X21226190Y-6454819D02*
X21321428Y-6454819D01*
X21321428Y-6454819D02*
X21416666Y-6407200D01*
X21416666Y-6407200D02*
X21464285Y-6359580D01*
X21464285Y-6359580D02*
X21511904Y-6264342D01*
X21511904Y-6264342D02*
X21559523Y-6073866D01*
X21559523Y-6073866D02*
X21559523Y-5835771D01*
X21559523Y-5835771D02*
X21511904Y-5645295D01*
X21511904Y-5645295D02*
X21464285Y-5550057D01*
X21464285Y-5550057D02*
X21416666Y-5502438D01*
X21416666Y-5502438D02*
X21321428Y-5454819D01*
X14154819Y-3407142D02*
X13678628Y-3073809D01*
X14154819Y-2835714D02*
X13154819Y-2835714D01*
X13154819Y-2835714D02*
X13154819Y-3216666D01*
X13154819Y-3216666D02*
X13202438Y-3311904D01*
X13202438Y-3311904D02*
X13250057Y-3359523D01*
X13250057Y-3359523D02*
X13345295Y-3407142D01*
X13345295Y-3407142D02*
X13488152Y-3407142D01*
X13488152Y-3407142D02*
X13583390Y-3359523D01*
X13583390Y-3359523D02*
X13631009Y-3311904D01*
X13631009Y-3311904D02*
X13678628Y-3216666D01*
X13678628Y-3216666D02*
X13678628Y-2835714D01*
X14154819Y-4359523D02*
X14154819Y-3788095D01*
X14154819Y-4073809D02*
X13154819Y-4073809D01*
X13154819Y-4073809D02*
X13297676Y-3978571D01*
X13297676Y-3978571D02*
X13392914Y-3883333D01*
X13392914Y-3883333D02*
X13440533Y-3788095D01*
X14154819Y-4835714D02*
X14154819Y-5026190D01*
X14154819Y-5026190D02*
X14107200Y-5121428D01*
X14107200Y-5121428D02*
X14059580Y-5169047D01*
X14059580Y-5169047D02*
X13916723Y-5264285D01*
X13916723Y-5264285D02*
X13726247Y-5311904D01*
X13726247Y-5311904D02*
X13345295Y-5311904D01*
X13345295Y-5311904D02*
X13250057Y-5264285D01*
X13250057Y-5264285D02*
X13202438Y-5216666D01*
X13202438Y-5216666D02*
X13154819Y-5121428D01*
X13154819Y-5121428D02*
X13154819Y-4930952D01*
X13154819Y-4930952D02*
X13202438Y-4835714D01*
X13202438Y-4835714D02*
X13250057Y-4788095D01*
X13250057Y-4788095D02*
X13345295Y-4740476D01*
X13345295Y-4740476D02*
X13583390Y-4740476D01*
X13583390Y-4740476D02*
X13678628Y-4788095D01*
X13678628Y-4788095D02*
X13726247Y-4835714D01*
X13726247Y-4835714D02*
X13773866Y-4930952D01*
X13773866Y-4930952D02*
X13773866Y-5121428D01*
X13773866Y-5121428D02*
X13726247Y-5216666D01*
X13726247Y-5216666D02*
X13678628Y-5264285D01*
X13678628Y-5264285D02*
X13583390Y-5311904D01*
X-7438095Y-7854819D02*
X-7438095Y-8664342D01*
X-7438095Y-8664342D02*
X-7485714Y-8759580D01*
X-7485714Y-8759580D02*
X-7533333Y-8807200D01*
X-7533333Y-8807200D02*
X-7628571Y-8854819D01*
X-7628571Y-8854819D02*
X-7819047Y-8854819D01*
X-7819047Y-8854819D02*
X-7914285Y-8807200D01*
X-7914285Y-8807200D02*
X-7961904Y-8759580D01*
X-7961904Y-8759580D02*
X-8009523Y-8664342D01*
X-8009523Y-8664342D02*
X-8009523Y-7854819D01*
X-8533333Y-8854819D02*
X-8723809Y-8854819D01*
X-8723809Y-8854819D02*
X-8819047Y-8807200D01*
X-8819047Y-8807200D02*
X-8866666Y-8759580D01*
X-8866666Y-8759580D02*
X-8961904Y-8616723D01*
X-8961904Y-8616723D02*
X-9009523Y-8426247D01*
X-9009523Y-8426247D02*
X-9009523Y-8045295D01*
X-9009523Y-8045295D02*
X-8961904Y-7950057D01*
X-8961904Y-7950057D02*
X-8914285Y-7902438D01*
X-8914285Y-7902438D02*
X-8819047Y-7854819D01*
X-8819047Y-7854819D02*
X-8628571Y-7854819D01*
X-8628571Y-7854819D02*
X-8533333Y-7902438D01*
X-8533333Y-7902438D02*
X-8485714Y-7950057D01*
X-8485714Y-7950057D02*
X-8438095Y-8045295D01*
X-8438095Y-8045295D02*
X-8438095Y-8283390D01*
X-8438095Y-8283390D02*
X-8485714Y-8378628D01*
X-8485714Y-8378628D02*
X-8533333Y-8426247D01*
X-8533333Y-8426247D02*
X-8628571Y-8473866D01*
X-8628571Y-8473866D02*
X-8819047Y-8473866D01*
X-8819047Y-8473866D02*
X-8914285Y-8426247D01*
X-8914285Y-8426247D02*
X-8961904Y-8378628D01*
X-8961904Y-8378628D02*
X-9009523Y-8283390D01*
X18424819Y343333D02*
X19139104Y343333D01*
X19139104Y343333D02*
X19281961Y390952D01*
X19281961Y390952D02*
X19377200Y486190D01*
X19377200Y486190D02*
X19424819Y629047D01*
X19424819Y629047D02*
X19424819Y724285D01*
X18758152Y-561428D02*
X19424819Y-561428D01*
X18377200Y-323333D02*
X19091485Y-85238D01*
X19091485Y-85238D02*
X19091485Y-704285D01*
X26842857Y1140419D02*
X26890476Y1092800D01*
X26890476Y1092800D02*
X27033333Y1045180D01*
X27033333Y1045180D02*
X27128571Y1045180D01*
X27128571Y1045180D02*
X27271428Y1092800D01*
X27271428Y1092800D02*
X27366666Y1188038D01*
X27366666Y1188038D02*
X27414285Y1283276D01*
X27414285Y1283276D02*
X27461904Y1473752D01*
X27461904Y1473752D02*
X27461904Y1616609D01*
X27461904Y1616609D02*
X27414285Y1807085D01*
X27414285Y1807085D02*
X27366666Y1902323D01*
X27366666Y1902323D02*
X27271428Y1997561D01*
X27271428Y1997561D02*
X27128571Y2045180D01*
X27128571Y2045180D02*
X27033333Y2045180D01*
X27033333Y2045180D02*
X26890476Y1997561D01*
X26890476Y1997561D02*
X26842857Y1949942D01*
X26461904Y1949942D02*
X26414285Y1997561D01*
X26414285Y1997561D02*
X26319047Y2045180D01*
X26319047Y2045180D02*
X26080952Y2045180D01*
X26080952Y2045180D02*
X25985714Y1997561D01*
X25985714Y1997561D02*
X25938095Y1949942D01*
X25938095Y1949942D02*
X25890476Y1854704D01*
X25890476Y1854704D02*
X25890476Y1759466D01*
X25890476Y1759466D02*
X25938095Y1616609D01*
X25938095Y1616609D02*
X26509523Y1045180D01*
X26509523Y1045180D02*
X25890476Y1045180D01*
X24938095Y1045180D02*
X25509523Y1045180D01*
X25223809Y1045180D02*
X25223809Y2045180D01*
X25223809Y2045180D02*
X25319047Y1902323D01*
X25319047Y1902323D02*
X25414285Y1807085D01*
X25414285Y1807085D02*
X25509523Y1759466D01*
X17042857Y2590419D02*
X17090476Y2542800D01*
X17090476Y2542800D02*
X17233333Y2495180D01*
X17233333Y2495180D02*
X17328571Y2495180D01*
X17328571Y2495180D02*
X17471428Y2542800D01*
X17471428Y2542800D02*
X17566666Y2638038D01*
X17566666Y2638038D02*
X17614285Y2733276D01*
X17614285Y2733276D02*
X17661904Y2923752D01*
X17661904Y2923752D02*
X17661904Y3066609D01*
X17661904Y3066609D02*
X17614285Y3257085D01*
X17614285Y3257085D02*
X17566666Y3352323D01*
X17566666Y3352323D02*
X17471428Y3447561D01*
X17471428Y3447561D02*
X17328571Y3495180D01*
X17328571Y3495180D02*
X17233333Y3495180D01*
X17233333Y3495180D02*
X17090476Y3447561D01*
X17090476Y3447561D02*
X17042857Y3399942D01*
X16661904Y3399942D02*
X16614285Y3447561D01*
X16614285Y3447561D02*
X16519047Y3495180D01*
X16519047Y3495180D02*
X16280952Y3495180D01*
X16280952Y3495180D02*
X16185714Y3447561D01*
X16185714Y3447561D02*
X16138095Y3399942D01*
X16138095Y3399942D02*
X16090476Y3304704D01*
X16090476Y3304704D02*
X16090476Y3209466D01*
X16090476Y3209466D02*
X16138095Y3066609D01*
X16138095Y3066609D02*
X16709523Y2495180D01*
X16709523Y2495180D02*
X16090476Y2495180D01*
X15233333Y3161847D02*
X15233333Y2495180D01*
X15471428Y3542800D02*
X15709523Y2828514D01*
X15709523Y2828514D02*
X15090476Y2828514D01*
X-13575180Y343333D02*
X-12860895Y343333D01*
X-12860895Y343333D02*
X-12718038Y390952D01*
X-12718038Y390952D02*
X-12622800Y486190D01*
X-12622800Y486190D02*
X-12575180Y629047D01*
X-12575180Y629047D02*
X-12575180Y724285D01*
X-13575180Y-37619D02*
X-13575180Y-704285D01*
X-13575180Y-704285D02*
X-12575180Y-275714D01*
X20987080Y-13757142D02*
X21034700Y-13709523D01*
X21034700Y-13709523D02*
X21082319Y-13566666D01*
X21082319Y-13566666D02*
X21082319Y-13471428D01*
X21082319Y-13471428D02*
X21034700Y-13328571D01*
X21034700Y-13328571D02*
X20939461Y-13233333D01*
X20939461Y-13233333D02*
X20844223Y-13185714D01*
X20844223Y-13185714D02*
X20653747Y-13138095D01*
X20653747Y-13138095D02*
X20510890Y-13138095D01*
X20510890Y-13138095D02*
X20320414Y-13185714D01*
X20320414Y-13185714D02*
X20225176Y-13233333D01*
X20225176Y-13233333D02*
X20129938Y-13328571D01*
X20129938Y-13328571D02*
X20082319Y-13471428D01*
X20082319Y-13471428D02*
X20082319Y-13566666D01*
X20082319Y-13566666D02*
X20129938Y-13709523D01*
X20129938Y-13709523D02*
X20177557Y-13757142D01*
X21082319Y-14709523D02*
X21082319Y-14138095D01*
X21082319Y-14423809D02*
X20082319Y-14423809D01*
X20082319Y-14423809D02*
X20225176Y-14328571D01*
X20225176Y-14328571D02*
X20320414Y-14233333D01*
X20320414Y-14233333D02*
X20368033Y-14138095D01*
X21082319Y-15185714D02*
X21082319Y-15376190D01*
X21082319Y-15376190D02*
X21034700Y-15471428D01*
X21034700Y-15471428D02*
X20987080Y-15519047D01*
X20987080Y-15519047D02*
X20844223Y-15614285D01*
X20844223Y-15614285D02*
X20653747Y-15661904D01*
X20653747Y-15661904D02*
X20272795Y-15661904D01*
X20272795Y-15661904D02*
X20177557Y-15614285D01*
X20177557Y-15614285D02*
X20129938Y-15566666D01*
X20129938Y-15566666D02*
X20082319Y-15471428D01*
X20082319Y-15471428D02*
X20082319Y-15280952D01*
X20082319Y-15280952D02*
X20129938Y-15185714D01*
X20129938Y-15185714D02*
X20177557Y-15138095D01*
X20177557Y-15138095D02*
X20272795Y-15090476D01*
X20272795Y-15090476D02*
X20510890Y-15090476D01*
X20510890Y-15090476D02*
X20606128Y-15138095D01*
X20606128Y-15138095D02*
X20653747Y-15185714D01*
X20653747Y-15185714D02*
X20701366Y-15280952D01*
X20701366Y-15280952D02*
X20701366Y-15471428D01*
X20701366Y-15471428D02*
X20653747Y-15566666D01*
X20653747Y-15566666D02*
X20606128Y-15614285D01*
X20606128Y-15614285D02*
X20510890Y-15661904D01*
X18238094Y-14204819D02*
X18238094Y-15014342D01*
X18238094Y-15014342D02*
X18190475Y-15109580D01*
X18190475Y-15109580D02*
X18142856Y-15157200D01*
X18142856Y-15157200D02*
X18047618Y-15204819D01*
X18047618Y-15204819D02*
X17857142Y-15204819D01*
X17857142Y-15204819D02*
X17761904Y-15157200D01*
X17761904Y-15157200D02*
X17714285Y-15109580D01*
X17714285Y-15109580D02*
X17666666Y-15014342D01*
X17666666Y-15014342D02*
X17666666Y-14204819D01*
X16666666Y-15204819D02*
X17238094Y-15204819D01*
X16952380Y-15204819D02*
X16952380Y-14204819D01*
X16952380Y-14204819D02*
X17047618Y-14347676D01*
X17047618Y-14347676D02*
X17142856Y-14442914D01*
X17142856Y-14442914D02*
X17238094Y-14490533D01*
X15761904Y-14204819D02*
X16238094Y-14204819D01*
X16238094Y-14204819D02*
X16285713Y-14681009D01*
X16285713Y-14681009D02*
X16238094Y-14633390D01*
X16238094Y-14633390D02*
X16142856Y-14585771D01*
X16142856Y-14585771D02*
X15904761Y-14585771D01*
X15904761Y-14585771D02*
X15809523Y-14633390D01*
X15809523Y-14633390D02*
X15761904Y-14681009D01*
X15761904Y-14681009D02*
X15714285Y-14776247D01*
X15714285Y-14776247D02*
X15714285Y-15014342D01*
X15714285Y-15014342D02*
X15761904Y-15109580D01*
X15761904Y-15109580D02*
X15809523Y-15157200D01*
X15809523Y-15157200D02*
X15904761Y-15204819D01*
X15904761Y-15204819D02*
X16142856Y-15204819D01*
X16142856Y-15204819D02*
X16238094Y-15157200D01*
X16238094Y-15157200D02*
X16285713Y-15109580D01*
X20942857Y2695180D02*
X21276190Y3171371D01*
X21514285Y2695180D02*
X21514285Y3695180D01*
X21514285Y3695180D02*
X21133333Y3695180D01*
X21133333Y3695180D02*
X21038095Y3647561D01*
X21038095Y3647561D02*
X20990476Y3599942D01*
X20990476Y3599942D02*
X20942857Y3504704D01*
X20942857Y3504704D02*
X20942857Y3361847D01*
X20942857Y3361847D02*
X20990476Y3266609D01*
X20990476Y3266609D02*
X21038095Y3218990D01*
X21038095Y3218990D02*
X21133333Y3171371D01*
X21133333Y3171371D02*
X21514285Y3171371D01*
X20561904Y3599942D02*
X20514285Y3647561D01*
X20514285Y3647561D02*
X20419047Y3695180D01*
X20419047Y3695180D02*
X20180952Y3695180D01*
X20180952Y3695180D02*
X20085714Y3647561D01*
X20085714Y3647561D02*
X20038095Y3599942D01*
X20038095Y3599942D02*
X19990476Y3504704D01*
X19990476Y3504704D02*
X19990476Y3409466D01*
X19990476Y3409466D02*
X20038095Y3266609D01*
X20038095Y3266609D02*
X20609523Y2695180D01*
X20609523Y2695180D02*
X19990476Y2695180D01*
X19371428Y3695180D02*
X19276190Y3695180D01*
X19276190Y3695180D02*
X19180952Y3647561D01*
X19180952Y3647561D02*
X19133333Y3599942D01*
X19133333Y3599942D02*
X19085714Y3504704D01*
X19085714Y3504704D02*
X19038095Y3314228D01*
X19038095Y3314228D02*
X19038095Y3076133D01*
X19038095Y3076133D02*
X19085714Y2885657D01*
X19085714Y2885657D02*
X19133333Y2790419D01*
X19133333Y2790419D02*
X19180952Y2742800D01*
X19180952Y2742800D02*
X19276190Y2695180D01*
X19276190Y2695180D02*
X19371428Y2695180D01*
X19371428Y2695180D02*
X19466666Y2742800D01*
X19466666Y2742800D02*
X19514285Y2790419D01*
X19514285Y2790419D02*
X19561904Y2885657D01*
X19561904Y2885657D02*
X19609523Y3076133D01*
X19609523Y3076133D02*
X19609523Y3314228D01*
X19609523Y3314228D02*
X19561904Y3504704D01*
X19561904Y3504704D02*
X19514285Y3599942D01*
X19514285Y3599942D02*
X19466666Y3647561D01*
X19466666Y3647561D02*
X19371428Y3695180D01*
X-15757142Y-8329580D02*
X-15709523Y-8377200D01*
X-15709523Y-8377200D02*
X-15566666Y-8424819D01*
X-15566666Y-8424819D02*
X-15471428Y-8424819D01*
X-15471428Y-8424819D02*
X-15328571Y-8377200D01*
X-15328571Y-8377200D02*
X-15233333Y-8281961D01*
X-15233333Y-8281961D02*
X-15185714Y-8186723D01*
X-15185714Y-8186723D02*
X-15138095Y-7996247D01*
X-15138095Y-7996247D02*
X-15138095Y-7853390D01*
X-15138095Y-7853390D02*
X-15185714Y-7662914D01*
X-15185714Y-7662914D02*
X-15233333Y-7567676D01*
X-15233333Y-7567676D02*
X-15328571Y-7472438D01*
X-15328571Y-7472438D02*
X-15471428Y-7424819D01*
X-15471428Y-7424819D02*
X-15566666Y-7424819D01*
X-15566666Y-7424819D02*
X-15709523Y-7472438D01*
X-15709523Y-7472438D02*
X-15757142Y-7520057D01*
X-16090476Y-7424819D02*
X-16709523Y-7424819D01*
X-16709523Y-7424819D02*
X-16376190Y-7805771D01*
X-16376190Y-7805771D02*
X-16519047Y-7805771D01*
X-16519047Y-7805771D02*
X-16614285Y-7853390D01*
X-16614285Y-7853390D02*
X-16661904Y-7901009D01*
X-16661904Y-7901009D02*
X-16709523Y-7996247D01*
X-16709523Y-7996247D02*
X-16709523Y-8234342D01*
X-16709523Y-8234342D02*
X-16661904Y-8329580D01*
X-16661904Y-8329580D02*
X-16614285Y-8377200D01*
X-16614285Y-8377200D02*
X-16519047Y-8424819D01*
X-16519047Y-8424819D02*
X-16233333Y-8424819D01*
X-16233333Y-8424819D02*
X-16138095Y-8377200D01*
X-16138095Y-8377200D02*
X-16090476Y-8329580D01*
X-17328571Y-7424819D02*
X-17423809Y-7424819D01*
X-17423809Y-7424819D02*
X-17519047Y-7472438D01*
X-17519047Y-7472438D02*
X-17566666Y-7520057D01*
X-17566666Y-7520057D02*
X-17614285Y-7615295D01*
X-17614285Y-7615295D02*
X-17661904Y-7805771D01*
X-17661904Y-7805771D02*
X-17661904Y-8043866D01*
X-17661904Y-8043866D02*
X-17614285Y-8234342D01*
X-17614285Y-8234342D02*
X-17566666Y-8329580D01*
X-17566666Y-8329580D02*
X-17519047Y-8377200D01*
X-17519047Y-8377200D02*
X-17423809Y-8424819D01*
X-17423809Y-8424819D02*
X-17328571Y-8424819D01*
X-17328571Y-8424819D02*
X-17233333Y-8377200D01*
X-17233333Y-8377200D02*
X-17185714Y-8329580D01*
X-17185714Y-8329580D02*
X-17138095Y-8234342D01*
X-17138095Y-8234342D02*
X-17090476Y-8043866D01*
X-17090476Y-8043866D02*
X-17090476Y-7805771D01*
X-17090476Y-7805771D02*
X-17138095Y-7615295D01*
X-17138095Y-7615295D02*
X-17185714Y-7520057D01*
X-17185714Y-7520057D02*
X-17233333Y-7472438D01*
X-17233333Y-7472438D02*
X-17328571Y-7424819D01*
D12*
%TO.C,PD1*%
X7312930Y7071D02*
G75*
G03*
X7312930Y7071I-7320001J0D01*
G01*
%TO.C,C1*%
X18738748Y-6465000D02*
X19261252Y-6465000D01*
X18738748Y-7935000D02*
X19261252Y-7935000D01*
%TO.C,CR2*%
X22610000Y10400000D02*
X18750000Y10400000D01*
X22610000Y12400000D02*
X22610000Y10400000D01*
X22610000Y12400000D02*
X18750000Y12400000D01*
%TO.C,R1*%
X19020000Y-10353641D02*
X19020000Y-10046359D01*
X19780000Y-10353641D02*
X19780000Y-10046359D01*
%TO.C,U10*%
X10090000Y-7200000D02*
X10090000Y-5800000D01*
X12410000Y-5800000D02*
X12410000Y-7700000D01*
%TO.C,R21*%
X22596359Y4730000D02*
X22903641Y4730000D01*
X22596359Y3970000D02*
X22903641Y3970000D01*
%TO.C,U14*%
X-12140000Y-9356250D02*
X-12140000Y-11356250D01*
X-14360000Y-10356250D02*
X-14360000Y-11356250D01*
%TO.C,R18*%
X9180000Y-6346359D02*
X9180000Y-6653641D01*
X8420000Y-6346359D02*
X8420000Y-6653641D01*
%TO.C,TP1*%
X11700000Y-11200000D02*
G75*
G03*
X11700000Y-11200000I-700000J0D01*
G01*
%TO.C,TP2*%
X11700000Y-13200000D02*
G75*
G03*
X11700000Y-13200000I-700000J0D01*
G01*
%TO.C,U11*%
X14860000Y5650000D02*
X14860000Y3650000D01*
X12640000Y4650000D02*
X12640000Y3650000D01*
%TO.C,R17*%
X25153641Y2720000D02*
X24846359Y2720000D01*
X25153641Y3480000D02*
X24846359Y3480000D01*
%TO.C,C29*%
X-15760000Y-11457836D02*
X-15760000Y-11242164D01*
X-15040000Y-11457836D02*
X-15040000Y-11242164D01*
%TO.C,U8*%
X23620000Y-9677500D02*
X23145000Y-9677500D01*
X23620000Y-9902500D02*
X23620000Y-9677500D01*
X20900000Y-9902500D02*
X20900000Y-9677500D01*
X23620000Y-12172500D02*
X23620000Y-12397500D01*
X20900000Y-12172500D02*
X20900000Y-12397500D01*
X23620000Y-12397500D02*
X23145000Y-12397500D01*
X20900000Y-12397500D02*
X21375000Y-12397500D01*
%TO.C,CR3*%
X22960000Y7700000D02*
X18950000Y7700000D01*
X22960000Y9700000D02*
X22960000Y7700000D01*
X22960000Y9700000D02*
X18950000Y9700000D01*
%TO.C,U12*%
X20900000Y1100000D02*
X20900000Y-1100000D01*
X23100000Y1100000D02*
X23100000Y-1900000D01*
%TO.C,C25*%
X12260000Y4790580D02*
X12260000Y4509420D01*
X11240000Y4790580D02*
X11240000Y4509420D01*
%TO.C,C20*%
X22260000Y-7492164D02*
X22260000Y-7707836D01*
X21540000Y-7492164D02*
X21540000Y-7707836D01*
%TO.C,R19*%
X14080000Y-6346359D02*
X14080000Y-6653641D01*
X13320000Y-6346359D02*
X13320000Y-6653641D01*
D13*
%TO.C,U9*%
X-9000000Y-9300000D02*
X-9000000Y-9430000D01*
X-9000000Y-9300000D02*
X9000000Y-9300000D01*
X-9000000Y-29300000D02*
X-9000000Y-22970000D01*
X9000000Y-9300000D02*
X9000000Y-9430000D01*
X9000000Y-22970000D02*
X9000000Y-29300000D01*
X9000000Y-29300000D02*
X-9000000Y-29300000D01*
D14*
X-10400000Y-22200000D02*
G75*
G03*
X-10400000Y-22200000I-100000J0D01*
G01*
D12*
%TO.C,J4*%
X14040000Y-1755000D02*
X14040000Y-932530D01*
X16515000Y-1755000D02*
X14040000Y-1755000D01*
X16515000Y-1755000D02*
X16515000Y-1188471D01*
X17275000Y-1755000D02*
X18035000Y-1755000D01*
X18035000Y-1755000D02*
X18035000Y-625000D01*
X14040000Y-317470D02*
X14040000Y337470D01*
X16515000Y-61529D02*
X16515000Y81529D01*
X16568471Y135000D02*
X16711529Y135000D01*
X17838471Y135000D02*
X17970000Y135000D01*
X17970000Y135000D02*
X17970000Y337470D01*
X14040000Y952530D02*
X14040000Y1775000D01*
X17970000Y952530D02*
X17970000Y1775000D01*
X17970000Y1775000D02*
X14040000Y1775000D01*
%TO.C,C21*%
X24610000Y1507836D02*
X24610000Y1292164D01*
X23890000Y1507836D02*
X23890000Y1292164D01*
%TO.C,C24*%
X15340000Y4542164D02*
X15340000Y4757836D01*
X16060000Y4542164D02*
X16060000Y4757836D01*
%TO.C,J7*%
X-17960000Y-1755000D02*
X-17960000Y-932530D01*
X-15485000Y-1755000D02*
X-17960000Y-1755000D01*
X-15485000Y-1755000D02*
X-15485000Y-1188471D01*
X-14725000Y-1755000D02*
X-13965000Y-1755000D01*
X-13965000Y-1755000D02*
X-13965000Y-625000D01*
X-17960000Y-317470D02*
X-17960000Y337470D01*
X-15485000Y-61529D02*
X-15485000Y81529D01*
X-15431529Y135000D02*
X-15288471Y135000D01*
X-14161529Y135000D02*
X-14030000Y135000D01*
X-14030000Y135000D02*
X-14030000Y337470D01*
X-17960000Y952530D02*
X-17960000Y1775000D01*
X-14030000Y952530D02*
X-14030000Y1775000D01*
X-14030000Y1775000D02*
X-17960000Y1775000D01*
%TO.C,C19*%
X19760000Y-12592164D02*
X19760000Y-12807836D01*
X19040000Y-12592164D02*
X19040000Y-12807836D01*
%TO.C,U15*%
X17810000Y-9190000D02*
X17335000Y-9190000D01*
X17810000Y-9665000D02*
X17810000Y-9190000D01*
X13590000Y-9665000D02*
X13590000Y-9190000D01*
X17810000Y-12935000D02*
X17810000Y-13410000D01*
X13590000Y-12935000D02*
X13590000Y-13410000D01*
X17810000Y-13410000D02*
X17335000Y-13410000D01*
X13590000Y-13410000D02*
X14065000Y-13410000D01*
%TO.C,R20*%
X22596359Y3480000D02*
X22903641Y3480000D01*
X22596359Y2720000D02*
X22903641Y2720000D01*
%TO.C,C30*%
X-16259420Y-9910000D02*
X-16540580Y-9910000D01*
X-16259420Y-8890000D02*
X-16540580Y-8890000D01*
%TD*%
%LPC*%
D15*
%TO.C,J3*%
X14110000Y-23210000D03*
X19890000Y-23210000D03*
D16*
X12680000Y-22710000D03*
D17*
X12680000Y-26890000D03*
X21320000Y-26890000D03*
D16*
X21320000Y-22710000D03*
%TD*%
D18*
%TO.C,PD1*%
X-2517300Y-2503158D03*
D19*
X-2517300Y2517300D03*
X2503158Y2517300D03*
%TD*%
D20*
%TO.C,J6*%
X-24825000Y-8875000D03*
D21*
X-24825000Y-6335000D03*
X-24825000Y-3795000D03*
X-24825000Y-1255000D03*
X-24825000Y1285000D03*
X-24825000Y3825000D03*
X-24825000Y6365000D03*
X-24825000Y8905000D03*
%TD*%
D22*
%TO.C,J1*%
X-12300000Y-18700000D03*
D23*
X-17000000Y-21700000D03*
D24*
X-17000000Y-15700000D03*
%TD*%
D25*
%TO.C,C1*%
X18050000Y-7200000D03*
X19950000Y-7200000D03*
%TD*%
D26*
%TO.C,CR2*%
X21800000Y11400000D03*
X19000000Y11400000D03*
%TD*%
D27*
%TO.C,R1*%
X19400000Y-10710000D03*
X19400000Y-9690000D03*
%TD*%
D28*
%TO.C,U10*%
X11900000Y-7450000D03*
X11250000Y-7450000D03*
X10600000Y-7450000D03*
X10600000Y-5550000D03*
X11250000Y-5550000D03*
X11900000Y-5550000D03*
%TD*%
D29*
%TO.C,R21*%
X22240000Y4350000D03*
X23260000Y4350000D03*
%TD*%
D30*
%TO.C,U14*%
X-13900000Y-9468750D03*
X-13250000Y-9468750D03*
X-12600000Y-9468750D03*
X-12600000Y-11243750D03*
X-13250000Y-11243750D03*
X-13900000Y-11243750D03*
D31*
X-13250000Y-10356250D03*
%TD*%
D32*
%TO.C,R18*%
X8800000Y-5990000D03*
X8800000Y-7010000D03*
%TD*%
D33*
%TO.C,TP1*%
X11000000Y-11200000D03*
%TD*%
%TO.C,TP2*%
X11000000Y-13200000D03*
%TD*%
D30*
%TO.C,U11*%
X13100000Y5537500D03*
X13750000Y5537500D03*
X14400000Y5537500D03*
X14400000Y3762500D03*
X13750000Y3762500D03*
X13100000Y3762500D03*
D31*
X13750000Y4650000D03*
%TD*%
D34*
%TO.C,R17*%
X25510000Y3100000D03*
X24490000Y3100000D03*
%TD*%
D35*
%TO.C,C29*%
X-15400000Y-11830000D03*
X-15400000Y-10870000D03*
%TD*%
D36*
%TO.C,U8*%
X21760000Y-9775000D03*
X22260000Y-9775000D03*
X22760000Y-9775000D03*
D37*
X23522500Y-10287500D03*
X23522500Y-10787500D03*
X23522500Y-11287500D03*
X23522500Y-11787500D03*
D36*
X22760000Y-12300000D03*
X22260000Y-12300000D03*
X21760000Y-12300000D03*
D37*
X20997500Y-11787500D03*
X20997500Y-11287500D03*
X20997500Y-10787500D03*
X20997500Y-10287500D03*
D38*
X22260000Y-11037500D03*
%TD*%
D39*
%TO.C,CR3*%
X22250000Y8700000D03*
X18950000Y8700000D03*
%TD*%
D40*
%TO.C,U12*%
X22750000Y-1550000D03*
X22250000Y-1550000D03*
X21750000Y-1550000D03*
X21250000Y-1550000D03*
X21250000Y1550000D03*
X21750000Y1550000D03*
X22250000Y1550000D03*
X22750000Y1550000D03*
%TD*%
D41*
%TO.C,C25*%
X11750000Y5425000D03*
X11750000Y3875000D03*
%TD*%
D42*
%TO.C,C20*%
X21900000Y-7120000D03*
X21900000Y-8080000D03*
%TD*%
D32*
%TO.C,R19*%
X13700000Y-5990000D03*
X13700000Y-7010000D03*
%TD*%
D43*
%TO.C,U9*%
X-8750000Y-22200000D03*
X-8750000Y-20700000D03*
X-8750000Y-19200000D03*
X-8750000Y-17700000D03*
X-8750000Y-16200000D03*
X-8750000Y-14700000D03*
X-8750000Y-13200000D03*
X-8750000Y-11700000D03*
X-8750000Y-10200000D03*
X8750000Y-10200000D03*
X8750000Y-11700000D03*
X8750000Y-13200000D03*
X8750000Y-14700000D03*
X8750000Y-16200000D03*
X8750000Y-17700000D03*
X8750000Y-19200000D03*
X8750000Y-20700000D03*
X8750000Y-22200000D03*
D44*
X-140000Y-17100000D03*
X960000Y-17100000D03*
X2060000Y-17100000D03*
X-140000Y-16000000D03*
X960000Y-16000000D03*
X2060000Y-16000000D03*
X-140000Y-14900000D03*
X960000Y-14900000D03*
X2060000Y-14900000D03*
%TD*%
D45*
%TO.C,J4*%
X17275000Y-625000D03*
D46*
X17275000Y645000D03*
X16005000Y-625000D03*
X16005000Y645000D03*
X14735000Y-625000D03*
X14735000Y645000D03*
%TD*%
D42*
%TO.C,C21*%
X24250000Y1880000D03*
X24250000Y920000D03*
%TD*%
D35*
%TO.C,C24*%
X15700000Y4170000D03*
X15700000Y5130000D03*
%TD*%
D45*
%TO.C,J7*%
X-14725000Y-625000D03*
D46*
X-14725000Y645000D03*
X-15995000Y-625000D03*
X-15995000Y645000D03*
X-17265000Y-625000D03*
X-17265000Y645000D03*
%TD*%
D42*
%TO.C,C19*%
X19400000Y-12220000D03*
X19400000Y-13180000D03*
%TD*%
D47*
%TO.C,U15*%
X14450000Y-9362500D03*
X14950000Y-9362500D03*
X15450000Y-9362500D03*
X15950000Y-9362500D03*
X16450000Y-9362500D03*
X16950000Y-9362500D03*
D48*
X17637500Y-10050000D03*
X17637500Y-10550000D03*
X17637500Y-11050000D03*
X17637500Y-11550000D03*
X17637500Y-12050000D03*
X17637500Y-12550000D03*
D47*
X16950000Y-13237500D03*
X16450000Y-13237500D03*
X15950000Y-13237500D03*
X15450000Y-13237500D03*
X14950000Y-13237500D03*
X14450000Y-13237500D03*
D48*
X13762500Y-12550000D03*
X13762500Y-12050000D03*
X13762500Y-11550000D03*
X13762500Y-11050000D03*
X13762500Y-10550000D03*
X13762500Y-10050000D03*
D49*
X15700000Y-11300000D03*
%TD*%
D29*
%TO.C,R20*%
X22240000Y3100000D03*
X23260000Y3100000D03*
%TD*%
D50*
%TO.C,C30*%
X-15625000Y-9400000D03*
X-17175000Y-9400000D03*
%TD*%
%LPD*%
M02*
